<?xml version="1.0" encoding="utf-8"?>
<!-- Generator: Adobe Illustrator 19.2.0, SVG Export Plug-In . SVG Version: 6.00 Build 0)  -->
<svg version="1.1" id="adjustmentlines" xmlns="http://www.w3.org/2000/svg" xmlns:xlink="http://www.w3.org/1999/xlink" x="0px"
	 y="0px" viewBox="0 0 204.1445 176" enable-background="new 0 0 204.1445 176" xml:space="preserve">
<g>
	<path fill="#D8D8D8" d="M121.1943,37.3735L48.0723,79.5889c-1.0029,6.0391-0.9409,12.2563,0.1357,18.3953l88.9165-51.335
		C132.3379,42.6365,126.9385,39.5276,121.1943,37.3735z"/>
	<path fill="#D8D8D8" d="M101.8828,33.8398c-9.2656,0-18.6523,2.3555-27.2383,7.3125
		c-11.1614,6.4443-19.1604,16.2703-23.5178,27.4341l59.0476-34.0898C107.4363,34.0779,104.6672,33.8398,101.8828,33.8398z"/>
	<path fill="#D8D8D8" d="M156.5173,90.877c0.2615-5.7688-0.4036-11.6025-2.0212-17.3047L62.793,126.5159
		c4.1299,4.2527,8.8508,7.7463,13.979,10.4041L156.5173,90.877z"/>
	<path fill="#D8D8D8" d="M151.7473,65.9202c-0.7305-1.6084-1.5339-3.199-2.4348-4.76c-1.824-3.1592-3.9265-6.0579-6.2446-8.7031
		l-92.843,53.6016c1.1318,3.3306,2.5876,6.6021,4.4119,9.7617c0.9011,1.5608,1.8767,3.052,2.9041,4.4888L151.7473,65.9202z"/>
	<path fill="#D8D8D8" d="M86.1733,140.731c13.9578,4.217,29.5403,2.9434,43.1313-4.9028
		c13.5947-7.8472,22.4885-20.7063,25.8137-34.9043L86.1733,140.731z"/>
	<path fill="#535353" d="M102.082,151.1367c10.6211,0,21.3828-2.6992,31.2227-8.3789
		c29.918-17.2734,40.2109-55.6719,22.9375-85.5977c-7.9333-13.7407-20.3416-23.2808-34.3191-27.9731l-0.6379-1.105l-1.0044,0.5798
		c-16.0471-4.9043-33.9888-3.4719-49.6362,5.5608c-15.6438,9.033-25.8564,23.8542-29.634,40.2041l-1.0066,0.5811l0.6392,1.1074
		c-2.9248,14.4497-0.8684,29.9641,7.064,43.7051C59.3008,139.9023,80.4062,151.1367,102.082,151.1367z M62.793,126.5159
		l91.7031-52.9436c1.6177,5.7021,2.2827,11.5359,2.0212,17.3047l-79.7454,46.043C71.6438,134.2622,66.9229,130.7686,62.793,126.5159
		z M129.3047,135.8281c-13.5911,7.8462-29.1736,9.1199-43.1313,4.9028l68.9451-39.8071
		C151.7932,115.1218,142.8994,127.981,129.3047,135.8281z M48.0723,79.5889l73.1221-42.2153
		c5.7441,2.1541,11.1436,5.2629,15.9302,9.2756L48.208,97.9841C47.1313,91.8452,47.0693,85.6279,48.0723,79.5889z M74.6445,41.1523
		c8.5859-4.957,17.9727-7.3125,27.2383-7.3125c2.7844,0,5.5535,0.238,8.2915,0.6567L51.1267,68.5864
		C55.4841,57.4226,63.4832,47.5967,74.6445,41.1523z M50.2249,106.0586l92.843-53.6016c2.3181,2.6453,4.4207,5.5439,6.2446,8.7031
		c0.9009,1.561,1.7043,3.1516,2.4348,4.76l-94.2065,54.3889c-1.0273-1.4368-2.0029-2.928-2.9041-4.4888
		C52.8125,112.6606,51.3567,109.3892,50.2249,106.0586z"/>
	<rect x="0.1445" fill="#535353" width="204" height="8"/>
	<rect x="148" y="28" fill="#535353" width="56.1445" height="8"/>
	<rect x="148" y="140" fill="#535353" width="56.1445" height="8"/>
	<rect y="28" fill="#535353" width="56.1445" height="8"/>
	<rect x="168.1445" y="56" fill="#535353" width="36" height="8"/>
	<rect x="168.1445" y="112" fill="#535353" width="36" height="8"/>
	<rect x="0.1445" y="56" fill="#535353" width="36" height="8"/>
	<rect x="172.1445" y="84" fill="#535353" width="32" height="8"/>
	<rect x="0.1445" y="168" fill="#535353" width="204" height="8"/>
	<rect x="0.1445" y="140" fill="#535353" width="56.1406" height="8"/>
	<rect x="0.1445" y="112" fill="#535353" width="36" height="8"/>
	<rect x="0.1445" y="84" fill="#535353" width="32" height="8"/>
</g>
</svg>
