<?xml version="1.0" encoding="utf-8"?>
<!-- Generator: Adobe Illustrator 19.2.0, SVG Export Plug-In . SVG Version: 6.00 Build 0)  -->
<svg version="1.1" id="alienship2" xmlns="http://www.w3.org/2000/svg" xmlns:xlink="http://www.w3.org/1999/xlink" x="0px" y="0px"
	 viewBox="0 0 224.3609 216.9414" enable-background="new 0 0 224.3609 216.9414" xml:space="preserve">
<g>
	<circle fill="#FFFFFF" cx="112.1812" cy="58" r="6"/>
	<path fill="#FFFFFF" d="M60.1812,68c5.5156,0,10-4.4863,10-10s-4.4844-10-10-10s-10,4.4863-10,10S54.6656,68,60.1812,68z"/>
	<path fill="#FFFFFF" d="M164.1812,68c5.5156,0,10-4.4863,10-10s-4.4844-10-10-10s-10,4.4863-10,10S158.6656,68,164.1812,68z"/>
	<path fill="#D8D8D8" d="M98.1812,84h24h62.0078c14.332,0,25.9922-11.6641,25.9922-26s-11.6602-26-25.9922-26h-70.0078h-8H40.1734
		c-14.332,0-25.9922,11.6641-25.9922,26s11.6602,26,25.9922,26H98.1812z M164.1812,40c9.9258,0,18,8.0742,18,18s-8.0742,18-18,18
		s-18-8.0742-18-18S154.2554,40,164.1812,40z M112.1812,44c7.7188,0,14,6.2812,14,14s-6.2812,14-14,14s-14-6.2812-14-14
		S104.4625,44,112.1812,44z M60.1812,40c9.9258,0,18,8.0742,18,18s-8.0742,18-18,18s-18-8.0742-18-18S50.2554,40,60.1812,40z"/>
	<path fill="#D8D8D8" d="M184.189,92h-10.3076l31.7725,75.6191l-17.7295-75.8354C186.6964,91.9189,185.4525,92,184.189,92z"/>
	<path fill="#D8D8D8" d="M36.5762,91.8047l-17.7466,75.5234L50.481,92H40.1734C38.9581,92,37.7591,91.9297,36.5762,91.8047z"/>
	<polygon fill="#D8D8D8" points="110.1812,170.4727 117.775,92 102.5875,92 	"/>
	<path fill="#535353" d="M164.1812,76c9.9258,0,18-8.0742,18-18s-8.0742-18-18-18s-18,8.0742-18,18S154.2554,76,164.1812,76z
		 M164.1812,48c5.5156,0,10,4.4863,10,10s-4.4844,10-10,10s-10-4.4863-10-10S158.6656,48,164.1812,48z"/>
	<path fill="#535353" d="M60.1812,76c9.9258,0,18-8.0742,18-18s-8.0742-18-18-18s-18,8.0742-18,18S50.2554,76,60.1812,76z
		 M60.1812,48c5.5156,0,10,4.4863,10,10s-4.4844,10-10,10s-10-4.4863-10-10S54.6656,48,60.1812,48z"/>
	<path fill="#535353" d="M112.1812,72c7.7188,0,14-6.2812,14-14s-6.2812-14-14-14s-14,6.2812-14,14S104.4625,72,112.1812,72z
		 M112.1812,52c3.3086,0,6,2.6914,6,6s-2.6914,6-6,6s-6-2.6914-6-6S108.8726,52,112.1812,52z"/>
	<path fill="#535353" d="M224.2554,212.0312L195.7098,89.9468C208.7906,85.2109,218.1812,72.6982,218.1812,58
		c0-18.748-15.2501-34-33.9922-34h-70.0078V0h-8v24H40.1734C21.4311,24,6.1812,39.252,6.1812,58
		c0,14.7471,9.4529,27.2949,22.6018,31.9941L0.107,212.0273c-0.4766,2.0234,0.6797,4.0742,2.6562,4.7188
		c0.4102,0.1328,0.8281,0.1953,1.2383,0.1953c1.5703,0,3.0508-0.9297,3.6875-2.4512L59.1575,92h35.3931l11.6501,120.3848
		C106.4,214.4355,108.1226,216,110.1812,216s3.7812-1.5645,3.9805-3.6152L125.8118,92h39.3931l51.4685,122.4902
		c0.6367,1.5215,2.1172,2.4512,3.6875,2.4512c0.4102,0,0.8242-0.0625,1.2344-0.1953
		C223.5718,216.1055,224.7281,214.0547,224.2554,212.0312z M14.1812,58c0-14.3359,11.6602-26,25.9922-26h66.0078h8h70.0078
		c14.332,0,25.9922,11.6641,25.9922,26s-11.6602,26-25.9922,26h-62.0078h-24H40.1734C25.8414,84,14.1812,72.3359,14.1812,58z
		 M18.8296,167.3281l17.7466-75.5234C37.7591,91.9297,38.9581,92,40.1734,92H50.481L18.8296,167.3281z M110.1812,170.4727
		L102.5875,92h15.1875L110.1812,170.4727z M173.8814,92h10.3076c1.2634,0,2.5073-0.0811,3.7354-0.2163l17.7295,75.8354L173.8814,92z
		"/>
</g>
</svg>
