<?xml version="1.0" encoding="utf-8"?>
<!-- Generator: Adobe Illustrator 19.2.0, SVG Export Plug-In . SVG Version: 6.00 Build 0)  -->
<svg version="1.1" id="alienship" xmlns="http://www.w3.org/2000/svg" xmlns:xlink="http://www.w3.org/1999/xlink" x="0px" y="0px"
	 viewBox="0 0 224 200" enable-background="new 0 0 224 200" xml:space="preserve">
<g>
	<polygon fill="#D8D8D8" points="128,144 120,144 104,144 96,144 89.5781,144 38.1484,192 185.8516,192 134.4219,144 	"/>
	<path fill="#D8D8D8" d="M112,20c2.2109,0,4,1.7891,4,4s-1.7891,4-4,4c-31.7358,0-57.7234,24.7803-59.7974,56h139.5947
		C189.6929,41.7502,154.7632,8,112,8S34.3071,41.7502,32.2026,84h12C46.2908,48.3689,75.854,20,112,20z"/>
	<path fill="#D8D8D8" d="M204.0273,92H19.9688C13.3711,92,8,97.3828,8,104s5.3711,12,11.9688,12H80h16h8h16h8h16h60.0273
		C210.6289,116,216,110.6172,216,104S210.6289,92,204.0273,92z M40,108H24v-8h16V108z M72,108H56v-8h16V108z M104,108H88v-8h16V108z
		 M136,108h-16v-8h16V108z M168,108h-16v-8h16V108z M200,108h-16v-8h16V108z"/>
	<path fill="#535353" d="M204.0273,84h-4.1289C197.7988,37.3269,159.1821,0,112,0S26.2012,37.3269,24.1016,84h-4.1328
		C8.957,84,0,92.9727,0,104s8.957,20,19.9688,20H76v16c0,1.5935,0.9465,2.9421,2.2932,3.5854l-53.0237,49.4888
		c-1.1992,1.1211-1.5938,2.8633-0.9922,4.3945C24.8828,198.9961,26.3555,200,28,200h168c1.6445,0,3.1172-1.0039,3.7227-2.5312
		c0.6016-1.5312,0.207-3.2734-0.9922-4.3945l-53.0237-49.4888C147.0535,142.9421,148,141.5935,148,140v-16h56.0273
		C215.0391,124,224,115.0273,224,104S215.0391,84,204.0273,84z M112,8c42.7632,0,77.6929,33.7502,79.7974,76H52.2026
		C54.2766,52.7803,80.2642,28,112,28c2.2109,0,4-1.7891,4-4s-1.7891-4-4-4c-36.146,0-65.7092,28.3689-67.7974,64h-12
		C34.3071,41.7502,69.2368,8,112,8z M96,136h-8h-4v-12h12V136z M104,124h16v12h-16V124z M38.1484,192l51.4297-48H96h8h16h8h6.4219
		l51.4297,48H38.1484z M140,136h-4h-8v-12h12V136z M204.0273,116H144h-16h-8h-16h-8H80H19.9688C13.3711,116,8,110.6172,8,104
		s5.3711-12,11.9688-12h184.0586C210.6289,92,216,97.3828,216,104S210.6289,116,204.0273,116z"/>
	<rect x="24" y="100" fill="#535353" width="16" height="8"/>
	<rect x="184" y="100" fill="#535353" width="16" height="8"/>
	<rect x="152" y="100" fill="#535353" width="16" height="8"/>
	<rect x="120" y="100" fill="#535353" width="16" height="8"/>
	<rect x="88" y="100" fill="#535353" width="16" height="8"/>
	<rect x="56" y="100" fill="#535353" width="16" height="8"/>
</g>
</svg>
