<?xml version="1.0" encoding="utf-8"?>
<!-- Generator: Adobe Illustrator 19.2.0, SVG Export Plug-In . SVG Version: 6.00 Build 0)  -->
<svg version="1.1" id="alienmonster" xmlns="http://www.w3.org/2000/svg" xmlns:xlink="http://www.w3.org/1999/xlink" x="0px"
	 y="0px" viewBox="0 0 176 235.9004" enable-background="new 0 0 176 235.9004" xml:space="preserve">
<g>
	<path fill="#D8D8D8" d="M104,72c0-0.0381-0.011-0.0728-0.0112-0.1104C100.3394,76.7822,94.5588,80,88,80
		s-12.3394-3.2178-15.9888-8.1104C72.011,71.9272,72,71.9619,72,72c0,8.8223,7.1777,16,16,16S104,80.8223,104,72z"/>
	<path fill="#D8D8D8" d="M88,8C43.8887,8,8,42.0938,8,84v88.002C8,180.8242,15.1777,188,24,188s16-7.1758,16-15.998v-19.8418
		c0-1.4336,0.7676-2.7578,2.0117-3.4707c1.25-0.7129,2.7812-0.7031,4.0117,0.0215c7.0996,4.1641,14.7988,7.2305,22.8828,9.1113
		C70.7188,158.2441,72,159.8594,72,161.7188v34.2578C72,204.8125,79.1777,212,88,212s16-7.1875,16-16.0234v-34.2578
		c0-1.8594,1.2812-3.4746,3.0938-3.8965c8.084-1.8809,15.7832-4.9473,22.8828-9.1113c0.623-0.3672,1.3242-0.5508,2.0234-0.5508
		c0.6855,0,1.3711,0.1758,1.9883,0.5293c1.2441,0.7129,2.0117,2.0371,2.0117,3.4707v59.7168c0,8.8359,7.1777,16.0234,16,16.0234
		s16-7.1875,16-16.0234V84C168,42.0938,132.1113,8,88,8z M64,72c0-13.2344,10.7656-24,24-24s24,10.7656,24,24s-10.7656,24-24,24
		S64,85.2344,64,72z M123.459,105.7207c-2.4883,9.2891-8.4453,17.0508-16.7734,21.8594
		c-5.5469,3.2031-11.7031,4.8379-17.9414,4.8379c-3.127,0-6.2734-0.4102-9.375-1.2422c-2.1348-0.5723-3.4004-2.7656-2.8281-4.8984
		c0.5703-2.1348,2.7656-3.4004,4.8984-2.8281c7.2285,1.9355,14.7715,0.9434,21.2461-2.7969
		c6.4766-3.7402,11.1113-9.7773,13.0469-17.002c0.5703-2.1328,2.7598-3.4043,4.8984-2.8281
		C122.7656,101.3945,124.0312,103.5879,123.459,105.7207z M120,72c-2.209,0-4-1.791-4-4c0-15.4395-12.5605-28-28-28
		S60,52.5605,60,68c0,2.209-1.791,4-4,4s-4-1.791-4-4c0-19.8496,16.1504-36,36-36s36,16.1504,36,36C124,70.209,122.209,72,120,72z"
		/>
	<path fill="#FFFFFF" d="M88,72c6.1506,0,11.1758-4.6675,11.8623-10.6372C96.9309,58.0967,92.7236,56,88,56
		s-8.9309,2.0967-11.8623,5.3628C76.8242,67.3325,81.8494,72,88,72z"/>
	<path fill="#535353" d="M88,0C39.4766,0,0,37.6816,0,84v88.002C0,185.2344,10.7656,196,24,196s24-10.7656,24-23.998v-13.1602
		c5.1152,2.4961,10.4688,4.502,16,5.9961v31.1387C64,209.2227,74.7656,220,88,220s24-10.7773,24-24.0234v-31.1387
		c5.5312-1.4941,10.8848-3.5,16-5.9961v53.0352c0,13.2461,10.7656,24.0234,24,24.0234s24-10.7773,24-24.0234V84
		C176,37.6816,136.5234,0,88,0z M168,211.877c0,8.8359-7.1777,16.0234-16,16.0234s-16-7.1875-16-16.0234v-59.7168
		c0-1.4336-0.7676-2.7578-2.0117-3.4707c-0.6172-0.3535-1.3027-0.5293-1.9883-0.5293c-0.6992,0-1.4004,0.1836-2.0234,0.5508
		c-7.0996,4.1641-14.7988,7.2305-22.8828,9.1113c-1.8125,0.4219-3.0938,2.0371-3.0938,3.8965v34.2578
		C104,204.8125,96.8223,212,88,212s-16-7.1875-16-16.0234v-34.2578c0-1.8594-1.2812-3.4746-3.0938-3.8965
		c-8.084-1.8809-15.7832-4.9473-22.8828-9.1113c-1.2305-0.7246-2.7617-0.7344-4.0117-0.0215
		C40.7676,149.4023,40,150.7266,40,152.1602v19.8418C40,180.8242,32.8223,188,24,188s-16-7.1758-16-15.998V84
		C8,42.0938,43.8887,8,88,8s80,34.0938,80,76V211.877z"/>
	<path fill="#535353" d="M88,32c-19.8496,0-36,16.1504-36,36c0,2.209,1.791,4,4,4s4-1.791,4-4c0-15.4395,12.5605-28,28-28
		s28,12.5605,28,28c0,2.209,1.791,4,4,4s4-1.791,4-4C124,48.1504,107.8496,32,88,32z"/>
	<path fill="#535353" d="M112,72c0-13.2344-10.7656-24-24-24S64,58.7656,64,72s10.7656,24,24,24S112,85.2344,112,72z M88,56
		c4.7236,0,8.9309,2.0967,11.8623,5.3628C99.1758,67.3325,94.1506,72,88,72s-11.1758-4.6675-11.8623-10.6372
		C79.0691,58.0967,83.2764,56,88,56z M72,72c0-0.0381,0.011-0.0728,0.0112-0.1104C75.6606,76.7822,81.4412,80,88,80
		s12.3394-3.2178,15.9888-8.1104C103.989,71.9272,104,71.9619,104,72c0,8.8223-7.1777,16-16,16S72,80.8223,72,72z"/>
	<path fill="#535353" d="M120.6309,100.8223c-2.1387-0.5762-4.3281,0.6953-4.8984,2.8281
		c-1.9355,7.2246-6.5703,13.2617-13.0469,17.002c-6.4746,3.7402-14.0176,4.7324-21.2461,2.7969
		c-2.1328-0.5723-4.3281,0.6934-4.8984,2.8281c-0.5723,2.1328,0.6934,4.3262,2.8281,4.8984c3.1016,0.832,6.248,1.2422,9.375,1.2422
		c6.2383,0,12.3945-1.6348,17.9414-4.8379c8.3281-4.8086,14.2852-12.5703,16.7734-21.8594
		C124.0312,103.5879,122.7656,101.3945,120.6309,100.8223z"/>
</g>
</svg>
