<?xml version="1.0" encoding="utf-8"?>
<!-- Generator: Adobe Illustrator 19.2.0, SVG Export Plug-In . SVG Version: 6.00 Build 0)  -->
<svg version="1.1" id="analysischart" xmlns="http://www.w3.org/2000/svg" xmlns:xlink="http://www.w3.org/1999/xlink" x="0px"
	 y="0px" viewBox="0 0 172 224" enable-background="new 0 0 172 224" xml:space="preserve">
<g>
	<path fill="#D8D8D8" d="M16,212.0117C16,214.2109,17.7988,216,20.0098,216h131.9805c2.2109,0,4.0098-1.7891,4.0098-3.9883V64H16
		V212.0117z M36.7617,155.2773l12.3359-46.1309c0.4082-1.5332,1.6855-2.6797,3.2539-2.9199
		c1.582-0.2441,3.1309,0.4668,3.9844,1.8066l14.7988,23.2539L87.584,87.9824c0.6387-1.6816,2.2832-2.7207,4.1016-2.5645
		c1.7871,0.1621,3.2461,1.4941,3.5723,3.2598l14.9921,81.2832l12.8028-58.834c0.4688-2.1602,2.6094-3.5312,4.7578-3.0586
		c2.1602,0.4688,3.5293,2.5996,3.0586,4.7578l-17.0352,78.2832c-0.4004,1.8418-2.0293,3.1504-3.9082,3.1504
		c-0.0215,0-0.043,0-0.0645,0c-1.9043-0.0312-3.5234-1.4004-3.8691-3.2754l-16.0078-86.791L75.7812,141.584
		c-0.5391,1.416-1.8281,2.4062-3.334,2.5586c-1.5234,0.1758-2.9707-0.5547-3.7812-1.832l-14.1934-22.3027l-9.9844,37.3359
		c-0.5684,2.1309-2.7617,3.4004-4.8965,2.8301S36.1895,157.4121,36.7617,155.2773z"/>
	<rect x="8" y="32" fill="#D8D8D8" width="156" height="24"/>
	<path fill="#535353" d="M172,24h-60c0-13.2344-10.7656-24-24-24S64,10.7656,64,24H0v40h8v148.0117
		C8,218.623,13.3867,224,20.0098,224h131.9805c6.623,0,12.0098-5.377,12.0098-11.9883V64h8V24z M88,8c8.8223,0,16,7.1777,16,16H72
		C72,15.1777,79.1777,8,88,8z M156,212.0117c0,2.1992-1.7988,3.9883-4.0098,3.9883H20.0098C17.7988,216,16,214.2109,16,212.0117V64
		h140V212.0117z M164,56H8V32h156V56z"/>
	<path fill="#535353" d="M39.5918,160.1738c2.1348,0.5703,4.3281-0.6992,4.8965-2.8301l9.9844-37.3359l14.1934,22.3027
		c0.8105,1.2773,2.2578,2.0078,3.7812,1.832c1.5059-0.1523,2.7949-1.1426,3.334-2.5586l14.2031-37.3906l16.0078,86.791
		c0.3457,1.875,1.9648,3.2441,3.8691,3.2754c0.0215,0,0.043,0,0.0645,0c1.8789,0,3.5078-1.3086,3.9082-3.1504l17.0352-78.2832
		c0.4707-2.1582-0.8984-4.2891-3.0586-4.7578c-2.1484-0.4727-4.2891,0.8984-4.7578,3.0586l-12.8028,58.834L95.2578,88.6777
		c-0.3262-1.7656-1.7852-3.0977-3.5723-3.2598c-1.8184-0.1562-3.4629,0.8828-4.1016,2.5645l-16.4492,43.3047l-14.7988-23.2539
		c-0.8535-1.3398-2.4023-2.0508-3.9844-1.8066c-1.5684,0.2402-2.8457,1.3867-3.2539,2.9199l-12.3359,46.1309
		C36.1895,157.4121,37.457,159.6035,39.5918,160.1738z"/>
</g>
</svg>
