<?xml version="1.0" encoding="utf-8"?>
<!-- Generator: Adobe Illustrator 19.2.0, SVG Export Plug-In . SVG Version: 6.00 Build 0)  -->
<svg version="1.1" id="animaltest" xmlns="http://www.w3.org/2000/svg" xmlns:xlink="http://www.w3.org/1999/xlink" x="0px" y="0px"
	 viewBox="0 0 188.6214 216.6406" enable-background="new 0 0 188.6214 216.6406" xml:space="preserve">
<g>
	<polygon fill="#D8D8D8" points="108,108 108,36 76,36 76,48 88,48 88,56 76,56 76,64 88,64 88,72 76,72 76,80 88,80 88,88 76,88 
		76,108 	"/>
	<circle fill="#D8D8D8" cx="36" cy="180" r="4"/>
	<path fill="#D8D8D8" d="M103.7305,136.6406c-2.4924,0-5.0823,0.1497-7.7305,0.4038V152c0,2.2109-1.7891,4-4,4s-4-1.7891-4-4
		v-13.8367c-7.0034,1.2588-14.3455,3.2705-21.8047,6.0437l-3.8711,1.4375l-1.3164-3.9141
		c-2.707-8.0508-8.7734-13.5312-14.6328-13.5312c-0.5859,0-1.1719,0.0547-1.75,0.168c-3.3828,0.6562-6.2773,3.1797-8.1484,7.0977
		c-2.0664,4.3203-2.6172,9.707-1.5586,15.1641c0.3203,1.6328,0.7773,3.2344,1.3633,4.7539l1.1602,3.0039l-2.6836,1.7734
		C16.2734,172.375,8,183.8125,8,189.7266c0,16.9531,45.043,18.9141,78.9219,18.9141c46.6719,0,73.0781-1.1484,73.0781-24.7461
		C160,162.3359,150.2383,136.6406,103.7305,136.6406z M36,192c-6.6172,0-12-5.3828-12-12s5.3828-12,12-12s12,5.3828,12,12
		S42.6172,192,36,192z"/>
	<path fill="#535353" d="M36,168c-6.6172,0-12,5.3828-12,12s5.3828,12,12,12s12-5.3828,12-12S42.6172,168,36,168z M36,184
		c-2.207,0-4-1.793-4-4s1.793-4,4-4s4,1.793,4,4S38.207,184,36,184z"/>
	<path fill="#535353" d="M166.5117,99.418c-17.4492-19.707-23.6836-36.7539-18.0352-49.3008c5.5-12.2148,21.043-17.5,27.7578-17.5
		c2.2109,0,4-1.7891,4-4s-1.7891-4-4-4c-10.1016,0-28.2266,7.0586-35.0508,22.2148c-4.9102,10.8984-5.5391,29.7891,19.3359,57.8906
		c16.0195,18.0938,22.6641,32.7578,19.2188,42.4102c-3.1929,8.9524-14.5308,11.5833-16.5244,11.9832
		c-6.9358-15.8831-23.178-30.4753-59.4834-30.4753c-2.4995,0-5.0955,0.1565-7.7305,0.3887V116h20V36h12c2.2109,0,4-1.7891,4-4
		s-1.7891-4-4-4h-12H96V8h32c2.2109,0,4-1.7891,4-4s-1.7891-4-4-4H56c-2.2109,0-4,1.7891-4,4s1.7891,4,4,4h32v20H68H56
		c-2.2109,0-4,1.7891-4,4s1.7891,4,4,4h12v80h20v14.0847c-6.7598,1.126-13.7805,2.8628-20.9297,5.3137
		c-4.9961-10.5664-14.6094-16.707-23.9688-14.8828c-5.9375,1.1523-10.8555,5.2344-13.8438,11.5
		c-2.8008,5.8594-3.5781,13.0117-2.1914,20.1406c0.1992,1.0273,0.4453,2.0508,0.7305,3.0508C10.332,167.2734,0,180.0547,0,189.7266
		c0,23.6523,41.7773,26.9141,86.9219,26.9141c43.5039,0,81.0781,0,81.0781-32.7461c0-5.1116-0.5156-11.0813-2.136-17.1699
		c4.6174-1.0894,17.1455-5.0627,21.3899-16.8457C191.8438,137.1289,184.8672,120.1523,166.5117,99.418z M76,88h12v-8H76v-8h12v-8H76
		v-8h12v-8H76V36h32v72H76V88z M86.9219,208.6406C53.043,208.6406,8,206.6797,8,189.7266c0-5.9141,8.2734-17.3516,26.7578-29.5664
		l2.6836-1.7734l-1.1602-3.0039c-0.5859-1.5195-1.043-3.1211-1.3633-4.7539c-1.0586-5.457-0.5078-10.8438,1.5586-15.1641
		c1.8711-3.918,4.7656-6.4414,8.1484-7.0977c0.5781-0.1133,1.1641-0.168,1.75-0.168c5.8594,0,11.9258,5.4805,14.6328,13.5312
		l1.3164,3.9141l3.8711-1.4375c7.4592-2.7732,14.8013-4.7849,21.8047-6.0437V152c0,2.2109,1.7891,4,4,4s4-1.7891,4-4v-14.9556
		c2.6482-0.2542,5.238-0.4038,7.7305-0.4038c46.5078,0,56.2695,25.6953,56.2695,47.2539
		C160,207.4922,133.5938,208.6406,86.9219,208.6406z"/>
</g>
</svg>
