<?xml version="1.0" encoding="utf-8"?>
<!-- Generator: Adobe Illustrator 19.2.0, SVG Export Plug-In . SVG Version: 6.00 Build 0)  -->
<svg version="1.1" id="applefall" xmlns="http://www.w3.org/2000/svg" xmlns:xlink="http://www.w3.org/1999/xlink" x="0px" y="0px"
	 viewBox="0 0 137.9438 222.1953" enable-background="new 0 0 137.9438 222.1953" xml:space="preserve">
<g>
	<path fill="#D8D8D8" d="M85.632,29.5391c3.7305-6.4648,3.9883-14.3047,0.7969-21.3828
		c-7.7266,0.7773-14.3867,4.918-18.1172,11.3828s-3.9883,14.3047-0.7969,21.3828C75.2414,40.1445,81.9016,36.0039,85.632,29.5391z"
		/>
	<path fill="#D8D8D8" d="M105.0656,58.0273c-11.0391-2.7656-23.4141,2.0547-33.1172,12.8633l-2.9766,3.3164l-2.9766-3.3164
		c-7.8984-8.8047-17.5781-13.6289-26.8594-13.6289c-2.1133,0-4.207,0.2539-6.2578,0.7656
		c-9.1094,2.2695-16.5273,9.3125-20.8945,19.8359c-4.5352,10.9375-5.2266,24.2148-1.9414,37.3828
		c3.2812,13.1719,10.125,24.5703,19.2656,32.0977c8.7969,7.2461,18.6484,9.9805,27.7578,7.707
		c4.0703-1.0117,10.8633-2.3242,11.1484-2.3789l0.7578-0.1484l0.7578,0.1484c0.2852,0.0547,7.0781,1.3672,11.1484,2.3789
		c9.0781,2.2734,18.957-0.4609,27.7578-7.707c9.1406-7.5273,15.9844-18.9258,19.2656-32.0977
		c3.2851-13.168,2.5937-26.4453-1.9414-37.3828C121.593,67.3398,114.175,60.2969,105.0656,58.0273z"/>
	<path fill="#535353" d="M133.3469,74.8008c-5.3594-12.9258-14.7148-21.6406-26.3437-24.5391
		c-12.8047-3.1836-26.7656,1.3516-38.0312,12.1992C57.7063,51.6055,43.7531,47.0703,30.9406,50.2617
		C19.3117,53.1602,9.9563,61.875,4.5969,74.8008c-5.1914,12.5078-6.0156,27.5586-2.3203,42.3828
		c3.6953,14.8203,11.4883,27.7266,21.9452,36.3359c10.8009,8.8906,23.1485,12.1836,34.7813,9.2969
		c3.0938-0.7734,8.082-1.7695,9.9688-2.1445c1.8906,0.375,6.875,1.3711,9.9688,2.1445c2.75,0.6836,5.543,1.0234,8.3438,1.0234
		c9.043,0,18.1914-3.5312,26.4374-10.3203c10.4571-8.6094,18.2501-21.5156,21.9454-36.3359
		C139.3625,102.3594,138.5383,87.3086,133.3469,74.8008z M127.9016,115.2461c-3.2812,13.1719-10.125,24.5703-19.2656,32.0977
		c-8.8008,7.2461-18.6797,9.9805-27.7578,7.707c-4.0703-1.0117-10.8633-2.3242-11.1484-2.3789l-0.7578-0.1484l-0.7578,0.1484
		c-0.2852,0.0547-7.0781,1.3672-11.1484,2.3789c-9.1094,2.2734-18.9609-0.4609-27.7578-7.707
		c-9.1406-7.5273-15.9844-18.9258-19.2656-32.0977c-3.2852-13.168-2.5938-26.4453,1.9414-37.3828
		c4.3672-10.5234,11.7852-17.5664,20.8945-19.8359c2.0508-0.5117,4.1445-0.7656,6.2578-0.7656
		c9.2812,0,18.9609,4.8242,26.8594,13.6289l2.9766,3.3164l2.9766-3.3164c9.7031-10.8086,22.0781-15.6289,33.1172-12.8633
		c9.1094,2.2695,16.5273,9.3125,20.8945,19.8359C130.4953,88.8008,131.1867,102.0781,127.9016,115.2461z"/>
	<path fill="#535353" d="M62.8078,49.0781l2.3555-0.0234c11.6055-0.1055,21.8477-5.9062,27.3984-15.5156
		c5.5469-9.6094,5.4492-21.3789-0.2656-31.4844L91.1359,0l-2.3555,0.0234C77.175,0.1289,66.9328,5.9297,61.382,15.5391
		c-5.5469,9.6094-5.4492,21.3789,0.2656,31.4844L62.8078,49.0781z M68.3117,19.5391c3.7305-6.4648,10.3906-10.6055,18.1172-11.3828
		c3.1914,7.0781,2.9336,14.918-0.7969,21.3828S75.2414,40.1445,67.5149,40.9219C64.3234,33.8438,64.5813,26.0039,68.3117,19.5391z"
		/>
	<polygon fill="#535353" points="90.2844,189.5703 72.9719,206.8828 72.9719,174.5391 64.9719,174.5391 64.9719,206.8828 
		47.6594,189.5703 42.0031,195.2266 64.9719,218.1953 64.9719,218.7617 65.5383,218.7617 68.9719,222.1953 72.4055,218.7617 
		72.9719,218.7617 72.9719,218.1953 95.9406,195.2266 	"/>
</g>
</svg>
