<?xml version="1.0" encoding="utf-8"?>
<!-- Generator: Adobe Illustrator 19.2.0, SVG Export Plug-In . SVG Version: 6.00 Build 0)  -->
<svg version="1.1" id="applethrow" xmlns="http://www.w3.org/2000/svg" xmlns:xlink="http://www.w3.org/1999/xlink" x="0px" y="0px"
	 viewBox="0 0 183.6119 193.0645" enable-background="new 0 0 183.6119 193.0645" xml:space="preserve">
<g>
	<path fill="#D8D8D8" d="M72.7518,68.1855c-10.543,4.2656-17.7305,15.4336-19.2266,29.8789l-0.4609,4.4297l-4.3555-0.9336
		c-3.4297-0.7344-6.7852-1.0938-9.9961-1.0938c-10.0898,0-18.8164,3.543-24.3633,10.1523c-12.7578,15.207-5.9531,42,15.1641,59.7227
		c10.3984,8.7227,22.6328,13.9219,34.4492,14.6367c11.4023,0.7383,20.9609-2.8906,26.9883-10.0781l0.0039-0.0039
		c2.6953-3.207,7.418-8.2617,7.6172-8.4766l0.5273-0.5664l0.6992-0.3281c0.2656-0.1211,6.5273-3.0469,10.4141-4.6172
		c8.7031-3.5156,15.0703-11.5273,17.9297-22.5547c2.9688-11.4609,1.8047-24.707-3.2773-37.2891
		C114.5409,75.502,91.1815,60.7715,72.7518,68.1855z"/>
	<path fill="#D8D8D8" d="M32.3182,76.4277c5.7969-5.1719,8.75-12.4375,7.9727-19.8594c-0.7812-7.4219-5.1836-13.918-11.9258-17.7695
		c-5.7969,5.1719-8.7461,12.4336-7.9688,19.8594C21.1776,66.0801,25.5761,72.5723,32.3182,76.4277z"/>
	<path fill="#535353" d="M69.7557,60.7715C57.5214,65.7168,48.8964,77.5957,46.162,92.9941
		c-15.4805-2.1758-29.4531,2.3672-37.9414,12.4844c-15.5898,18.5859-8.3477,50.4336,16.1523,70.9883
		c11.6992,9.8203,25.5898,15.6797,39.1055,16.5c1.0977,0.0664,2.1797,0.0977,3.2461,0.0977
		c12.5664,0,23.2578-4.5625,30.3594-13.0234c2.0508-2.4414,5.4961-6.1797,6.8047-7.5938c1.75-0.8086,6.3672-2.9258,9.3203-4.125
		c11.1133-4.4844,19.168-14.418,22.6758-27.9609c3.3984-13.1133,2.1172-28.1328-3.6055-42.2969
		C120.2987,68.416,92.2479,51.6816,69.7557,60.7715z M128.1425,138.3535c-2.8594,11.0273-9.2266,19.0391-17.9297,22.5547
		c-3.8867,1.5703-10.1484,4.4961-10.4141,4.6172l-0.6992,0.3281l-0.5273,0.5664c-0.1992,0.2148-4.9219,5.2695-7.6172,8.4766
		l-0.0039,0.0039c-6.0273,7.1875-15.5859,10.8164-26.9883,10.0781c-11.8164-0.7148-24.0508-5.9141-34.4492-14.6367
		c-21.1172-17.7227-27.9219-44.5156-15.1641-59.7227c5.5469-6.6094,14.2734-10.1523,24.3633-10.1523
		c3.2109,0,6.5664,0.3594,9.9961,1.0938l4.3555,0.9336l0.4609-4.4297c1.4961-14.4453,8.6836-25.6133,19.2266-29.8789
		c18.4297-7.4141,41.7891,7.3164,52.1133,32.8789C129.9471,113.6465,131.1112,126.8926,128.1425,138.3535z"/>
	<path fill="#535353" d="M31.1581,84.8145l2.1445,0.9766l1.8945-1.4023c9.332-6.9102,14.207-17.625,13.0469-28.6562
		c-1.1602-11.0352-8.1562-20.5-18.7188-25.3203l-2.1445-0.9766l-1.8945,1.4023c-9.3281,6.9102-14.2031,17.6211-13.043,28.6562
		S20.5995,79.9941,31.1581,84.8145z M28.3651,38.7988c6.7422,3.8516,11.1445,10.3477,11.9258,17.7695
		c0.7773,7.4219-2.1758,14.6875-7.9727,19.8594c-6.7422-3.8555-11.1406-10.3477-11.9219-17.7695
		C19.619,51.2324,22.5682,43.9707,28.3651,38.7988z"/>
	<path fill="#535353" d="M99.6151,44.002c0.8906,0,1.7852-0.2969,2.5273-0.9023l44-36c1.7109-1.4023,1.9648-3.9219,0.5664-5.6289
		c-1.4062-1.7148-3.9219-1.9648-5.6289-0.5664l-44,36c-1.7109,1.4023-1.9648,3.9219-0.5664,5.6289
		C97.3065,43.502,98.455,44.002,99.6151,44.002z"/>
	<path fill="#535353" d="M132.5135,42.5332c0.793,0.9688,1.9414,1.4688,3.1016,1.4688c0.8906,0,1.7852-0.2969,2.5273-0.9023l44-36
		c1.7109-1.4023,1.9648-3.9219,0.5664-5.6289c-1.4023-1.7148-3.9219-1.9648-5.6289-0.5664l-44,36
		C131.369,38.3066,131.1151,40.8262,132.5135,42.5332z"/>
	<path fill="#535353" d="M177.08,28.9043l-44,36c-1.7109,1.4023-1.9648,3.9219-0.5664,5.6289
		c0.793,0.9688,1.9414,1.4688,3.1016,1.4688c0.8906,0,1.7852-0.2969,2.5273-0.9023l44-36c1.7109-1.4023,1.9648-3.9219,0.5664-5.6289
		C181.3065,27.7559,178.787,27.5059,177.08,28.9043z"/>
</g>
</svg>
