<?xml version="1.0" encoding="utf-8"?>
<!-- Generator: Adobe Illustrator 19.2.0, SVG Export Plug-In . SVG Version: 6.00 Build 0)  -->
<svg version="1.1" id="areafiftyone" xmlns="http://www.w3.org/2000/svg" xmlns:xlink="http://www.w3.org/1999/xlink" x="0px"
	 y="0px" viewBox="0 0 216 200" enable-background="new 0 0 216 200" xml:space="preserve">
<g>
	<rect x="96" y="152" fill="#D8D8D8" width="24" height="40"/>
	<path fill="#FFFFFF" d="M156,44c-17.6445,0-32,14.3555-32,32s14.3555,32,32,32s32-14.3555,32-32S173.6445,44,156,44z
		 M168.7285,94.3848L155.585,81.2412l-13.7275,13.7275l-5.6562-5.6562l13.7275-13.7275l-12.3135-12.3135l5.6562-5.6562
		l12.3135,12.3135l11.7295-11.7295l5.6562,5.6562L161.2412,75.585l13.1436,13.1436L168.7285,94.3848z"/>
	<path fill="#D8D8D8" d="M191.9609,8H24.0391C15.1953,8,8,15.1875,8,24.0234v103.9531C8,136.8125,15.1953,144,24.0391,144H92h32
		h67.9609C200.8047,144,208,136.8125,208,127.9766V24.0234C208,15.1875,200.8047,8,191.9609,8z M64,60H40v12h16h8v8v12v8h-8H32v-8
		h24V80H40h-8v-8V60v-8h8h24V60z M92,60v40h-8V60h-8v-8h8h8V60z M156,116c-22.0566,0-40-17.9434-40-40s17.9434-40,40-40
		s40,17.9434,40,40S178.0566,116,156,116z"/>
	<path fill="#535353" d="M191.9609,0H24.0391C10.7832,0,0,10.7773,0,24.0234v103.9531C0,141.2227,10.7832,152,24.0391,152H88v44
		c0,2.209,1.791,4,4,4h32c2.209,0,4-1.791,4-4v-44h63.9609C205.2168,152,216,141.2227,216,127.9766V24.0234
		C216,10.7773,205.2168,0,191.9609,0z M120,192H96v-40h24V192z M208,127.9766C208,136.8125,200.8047,144,191.9609,144H124H92
		H24.0391C15.1953,144,8,136.8125,8,127.9766V24.0234C8,15.1875,15.1953,8,24.0391,8h167.9219C200.8047,8,208,15.1875,208,24.0234
		V127.9766z"/>
	<path fill="#535353" d="M156,36c-22.0566,0-40,17.9434-40,40s17.9434,40,40,40s40-17.9434,40-40S178.0566,36,156,36z M156,108
		c-17.6445,0-32-14.3555-32-32s14.3555-32,32-32s32,14.3555,32,32S173.6445,108,156,108z"/>
	<polygon fill="#535353" points="32,52 32,60 32,72 32,80 40,80 56,80 56,92 32,92 32,100 56,100 64,100 64,92 64,80 64,72 56,72 
		40,72 40,60 64,60 64,52 40,52 	"/>
	<polygon fill="#535353" points="76,52 76,60 84,60 84,100 92,100 92,60 92,52 84,52 	"/>
	<polygon fill="#535353" points="172.9707,63.8555 167.3145,58.1992 155.585,69.9287 143.2715,57.6152 137.6152,63.2715 
		149.9287,75.585 136.2012,89.3125 141.8574,94.9688 155.585,81.2412 168.7285,94.3848 174.3848,88.7285 161.2412,75.585 	"/>
</g>
</svg>
