<?xml version="1.0" encoding="utf-8"?>
<!-- Generator: Adobe Illustrator 19.2.0, SVG Export Plug-In . SVG Version: 6.00 Build 0)  -->
<svg version="1.1" id="astronauthelmet" xmlns="http://www.w3.org/2000/svg" xmlns:xlink="http://www.w3.org/1999/xlink" x="0px"
	 y="0px" viewBox="0 0 192.4844 220.4844" enable-background="new 0 0 192.4844 220.4844" xml:space="preserve">
<g>
	<path fill="#FFFFFF" d="M44,136.4844c11.8689,0,21.7253,8.6675,23.6387,20H76v-17.2617l62.8801-74.8787
		c-8.5679-4.9675-18.4822-7.8596-29.0793-7.8596H66.1992C34.1094,56.4844,8,82.582,8,114.6602v41.8242h12.3613
		C22.2747,145.1519,32.1311,136.4844,44,136.4844z"/>
	<path fill="#D8D8D8" d="M44,176.4844c8.8242,0,16-7.1758,16-16s-7.1758-16-16-16s-16,7.1758-16,16S35.1758,176.4844,44,176.4844z"
		/>
	<path fill="#D8D8D8" d="M168,188.4844v-73.8242c0-2.1409-0.135-4.2629-0.3662-6.3647c-0.0667-0.6096-0.1907-1.2009-0.2761-1.8044
		c-0.2102-1.481-0.4443-2.9563-0.7661-4.4082c-0.1584-0.7153-0.3611-1.4128-0.5459-2.1179
		c-0.3394-1.2974-0.7051-2.5862-1.1318-3.853c-0.26-0.7693-0.5459-1.5259-0.8367-2.2805c-0.4392-1.1433-0.915-2.2705-1.4248-3.3823
		c-0.3728-0.8098-0.752-1.6152-1.1604-2.4045c-0.5073-0.9846-1.0627-1.9429-1.6255-2.8972
		c-0.4985-0.8416-0.9851-1.6912-1.5242-2.5049c-0.5371-0.8137-1.1321-1.5889-1.7102-2.3757
		c-2.4397-3.3101-5.2119-6.3481-8.283-9.0728c-0.6418-0.5693-1.2659-1.1543-1.9353-1.6968
		c-0.2798-0.2271-0.582-0.4255-0.8662-0.6477L84,142.1367v14.3477v8v6.3125l18.1484,17.6875H168z"/>
	<path fill="#FFFFFF" d="M76,174.1719v-9.6875h-8.3613c-1.9133,11.3325-11.7698,20-23.6387,20s-21.7253-8.6675-23.6387-20H8v48h160
		v-16H98.8984L76,174.1719z"/>
	<path fill="#535353" d="M175.5806,107.4006c-0.2063-1.8696-0.4885-3.7214-0.8501-5.5537
		c-0.0867-0.4402-0.1895-0.8728-0.2849-1.3098c-0.3745-1.7131-0.803-3.4099-1.3098-5.0806
		c-0.0583-0.1919-0.1033-0.3889-0.1633-0.5798c-0.5706-1.8201-1.2432-3.6008-1.9663-5.3601
		c-0.1438-0.3479-0.2847-0.6958-0.4341-1.041c-0.77-1.7856-1.6096-3.5383-2.5332-5.2485c-0.0459-0.0842-0.0957-0.1658-0.1416-0.25
		c-4.928-9.031-11.9465-16.9341-20.6941-22.9302l-2.9922-2.0508l-0.1328,0.158c-10.0137-6.0935-21.7212-9.6697-34.2773-9.6697
		H66.1992C29.6953,48.4844,0,78.1719,0,114.6602v41.8242v8v56h176v-24v-81.8242c0-2.0239-0.123-4.0295-0.3052-6.0237
		C175.6572,108.2239,175.6255,107.8108,175.5806,107.4006z M84,164.4844v-8v-14.3477l61.5476-73.2874
		c0.2842,0.2222,0.5864,0.4207,0.8662,0.6477c0.6694,0.5425,1.2935,1.1274,1.9353,1.6968c3.071,2.7246,5.8433,5.7627,8.283,9.0728
		c0.5781,0.7869,1.1731,1.562,1.7102,2.3757c0.5391,0.8137,1.0256,1.6633,1.5242,2.5049c0.5627,0.9543,1.1182,1.9126,1.6255,2.8972
		c0.4084,0.7893,0.7876,1.5947,1.1604,2.4045c0.5098,1.1118,0.9856,2.239,1.4248,3.3823c0.2908,0.7546,0.5767,1.5112,0.8367,2.2805
		c0.4268,1.2668,0.7925,2.5557,1.1318,3.853c0.1848,0.7051,0.3875,1.4026,0.5459,2.1179c0.3218,1.4519,0.5559,2.9272,0.7661,4.4082
		c0.0854,0.6035,0.2095,1.1948,0.2761,1.8044c0.2312,2.1018,0.3662,4.2239,0.3662,6.3647v73.8242h-65.8516L84,170.7969V164.4844z
		 M8,114.6602C8,82.582,34.1094,56.4844,66.1992,56.4844h43.6016c10.5972,0,20.5115,2.8921,29.0793,7.8596L76,139.2227v17.2617
		h-8.3613c-1.9133-11.3325-11.7698-20-23.6387-20s-21.7253,8.6675-23.6387,20H8V114.6602z M44,144.4844c8.8242,0,16,7.1758,16,16
		s-7.1758,16-16,16s-16-7.1758-16-16S35.1758,144.4844,44,144.4844z M168,212.4844H8v-48h12.3613
		c1.9133,11.3325,11.7698,20,23.6387,20s21.7253-8.6675,23.6387-20H76v9.6875l22.8984,22.3125H168V212.4844z"/>
	<path fill="#535353" d="M8.6875,43.7969c0.7812,0.7812,1.8047,1.1719,2.8281,1.1719s2.0469-0.3906,2.8281-1.1719L20,38.1406
		l5.6562,5.6562c0.7812,0.7812,1.8047,1.1719,2.8281,1.1719s2.0469-0.3906,2.8281-1.1719c1.5625-1.5625,1.5625-4.0938,0-5.6562
		l-5.6562-5.6562l5.6562-5.6562c1.5625-1.5625,1.5625-4.0937,0-5.6562c-1.5626-1.5625-4.0938-1.5625-5.6562,0L20,26.8281
		l-5.6562-5.6562c-1.5625-1.5625-4.0938-1.5625-5.6562,0c-1.5625,1.5625-1.5625,4.0938,0,5.6562l5.6562,5.6562l-5.6562,5.6562
		C7.125,39.7031,7.125,42.2344,8.6875,43.7969z"/>
	<path fill="#535353" d="M128.6875,23.7969c0.7812,0.7812,1.8047,1.1719,2.8281,1.1719s2.0469-0.3906,2.8281-1.1719L140,18.1406
		l5.6562,5.6562c0.7812,0.7812,1.8047,1.1719,2.8281,1.1719s2.0469-0.3906,2.8281-1.1719c1.5625-1.5625,1.5625-4.0938,0-5.6562
		l-5.6562-5.6562l5.6562-5.6562c1.5625-1.5625,1.5625-4.0937,0-5.6562c-1.5626-1.5625-4.0938-1.5625-5.6562,0L140,6.8281
		l-5.6562-5.6562c-1.5625-1.5625-4.0938-1.5625-5.6562,0c-1.5625,1.5625-1.5625,4.0938,0,5.6562l5.6562,5.6562l-5.6562,5.6562
		C127.125,19.7031,127.125,22.2344,128.6875,23.7969z"/>
	<path fill="#535353" d="M185.6562,52.4844l5.6562-5.6562c1.5625-1.5625,1.5625-4.0937,0-5.6562
		c-1.5626-1.5625-4.0938-1.5625-5.6562,0L180,46.8281l-5.6562-5.6562c-1.5625-1.5625-4.0938-1.5625-5.6562,0
		c-1.5625,1.5625-1.5625,4.0938,0,5.6562l5.6562,5.6562l-5.6562,5.6562c-1.5625,1.5625-1.5625,4.0938,0,5.6562
		c0.7812,0.7812,1.8047,1.1719,2.8281,1.1719s2.0469-0.3906,2.8281-1.1719L180,58.1406l5.6562,5.6562
		c0.7812,0.7812,1.8047,1.1719,2.8281,1.1719s2.0469-0.3906,2.8281-1.1719c1.5625-1.5625,1.5625-4.0938,0-5.6562L185.6562,52.4844z"
		/>
</g>
</svg>
