<?xml version="1.0" encoding="utf-8"?>
<!-- Generator: Adobe Illustrator 19.2.0, SVG Export Plug-In . SVG Version: 6.00 Build 0)  -->
<svg version="1.1" id="astronautmoon" xmlns="http://www.w3.org/2000/svg" xmlns:xlink="http://www.w3.org/1999/xlink" x="0px"
	 y="0px" viewBox="0 0 212 220" enable-background="new 0 0 212 220" xml:space="preserve">
<g>
	<path fill="#FFFFFF" d="M105.2546,136H88v32.0322l25.2629-15.7878C109.4919,147.5496,106.7354,142.0264,105.2546,136z"/>
	<circle fill="#FFFFFF" cx="70" cy="106" r="6"/>
	<path fill="#D8D8D8" d="M88,128V90h8v38h8.1018c-0.032-0.6699-0.1018-1.3301-0.1018-2.0078v-7.9844C104,94.8438,122.8398,76,146,76
		c1.9797,0,3.9124,0.1853,5.8201,0.4517C149.9519,38.4033,118.5017,8,80,8C40.3008,8,8,40.2988,8,80c0,39.6992,32.3008,72,72,72v-24
		H88z M76,24c11.0273,0,20,8.9727,20,20s-8.9727,20-20,20s-20-8.9727-20-20S64.9727,24,76,24z M34,100c-7.7188,0-14-6.2812-14-14
		s6.2812-14,14-14s14,6.2812,14,14S41.7188,100,34,100z M70,120c-7.7188,0-14-6.2812-14-14s6.2812-14,14-14s14,6.2812,14,14
		S77.7188,120,70,120z"/>
	<path fill="#FFFFFF" d="M76,56c6.6172,0,12-5.3828,12-12s-5.3828-12-12-12s-12,5.3828-12,12S69.3828,56,76,56z"/>
	<circle fill="#FFFFFF" cx="34" cy="86" r="6"/>
	<path fill="#D8D8D8" d="M180,125.9922v-7.9844C180,99.2559,164.7461,84,146,84s-34,15.2559-34,34.0078v7.9844
		C112,144.7461,127.2539,160,146,160S180,144.7461,180,125.9922z M146,140.5156c-15.5508,0-26-9.0469-26-22.5156
		c0-18.5625,18.8906-18.5625,26-18.5625s26,0,26,18.5625C172,131.4688,161.5508,140.5156,146,140.5156z"/>
	<path fill="#FFFFFF" d="M186.7454,136c-1.4807,6.0264-4.2373,11.5496-8.0083,16.2444L204,168.0322V136H186.7454z"/>
	<path fill="#FFFFFF" d="M146,107.4375c-14.9883,0-18,4.0429-18,10.5625c0,10.7031,9.2969,14.5156,18,14.5156s18-3.8125,18-14.5156
		C164,111.4805,160.9883,107.4375,146,107.4375z"/>
	<path fill="#535353" d="M146,99.4375c-7.1094,0-26,0-26,18.5625c0,13.4688,10.4492,22.5156,26,22.5156s26-9.0469,26-22.5156
		C172,99.4375,153.1094,99.4375,146,99.4375z M146,132.5156c-8.7031,0-18-3.8125-18-14.5156c0-6.5195,3.0117-10.5625,18-10.5625
		s18,4.0429,18,10.5625C164,128.7031,154.7031,132.5156,146,132.5156z"/>
	<path fill="#535353" d="M187.8982,128c0.032-0.6699,0.1018-1.3301,0.1018-2.0078v-7.9844
		c0-18.2788-11.7517-33.8245-28.0801-39.5867C159.0671,35.043,123.5803,0,80,0C35.8867,0,0,35.8887,0,80c0,44.1133,35.8867,80,80,80
		v60h8v-42.5339l30.98-19.3606C126.2903,164.2683,135.7126,168,146,168s19.7097-3.7317,27.02-9.8945L204,177.4661V220h8v-92
		H187.8982z M8,80C8,40.2988,40.3008,8,80,8c38.5017,0,69.9519,30.4033,71.8201,68.4517C149.9124,76.1853,147.9797,76,146,76
		c-23.1602,0-42,18.8438-42,42.0078v7.9844c0,0.6777,0.0698,1.3379,0.1018,2.0078H96V90h-8v38h-8v24C40.3008,152,8,119.6992,8,80z
		 M88,136h17.2546c1.4807,6.0264,4.2373,11.5496,8.0083,16.2444L88,168.0322V136z M112,125.9922v-7.9844
		C112,99.2559,127.2539,84,146,84s34,15.2559,34,34.0078v7.9844C180,144.7461,164.7461,160,146,160S112,144.7461,112,125.9922z
		 M178.7371,152.2444c3.771-4.6948,6.5276-10.218,8.0083-16.2444H204v32.0322L178.7371,152.2444z"/>
	<path fill="#535353" d="M76,64c11.0273,0,20-8.9727,20-20s-8.9727-20-20-20s-20,8.9727-20,20S64.9727,64,76,64z M76,32
		c6.6172,0,12,5.3828,12,12s-5.3828,12-12,12s-12-5.3828-12-12S69.3828,32,76,32z"/>
	<path fill="#535353" d="M34,72c-7.7188,0-14,6.2812-14,14s6.2812,14,14,14s14-6.2812,14-14S41.7188,72,34,72z M34,92
		c-3.3086,0-6-2.6914-6-6s2.6914-6,6-6s6,2.6914,6,6S37.3086,92,34,92z"/>
	<path fill="#535353" d="M70,92c-7.7188,0-14,6.2812-14,14s6.2812,14,14,14s14-6.2812,14-14S77.7188,92,70,92z M70,112
		c-3.3086,0-6-2.6914-6-6s2.6914-6,6-6s6,2.6914,6,6S73.3086,112,70,112z"/>
</g>
</svg>
