<?xml version="1.0" encoding="utf-8"?>
<!-- Generator: Adobe Illustrator 19.2.0, SVG Export Plug-In . SVG Version: 6.00 Build 0)  -->
<svg version="1.1" id="astronout" xmlns="http://www.w3.org/2000/svg" xmlns:xlink="http://www.w3.org/1999/xlink" x="0px" y="0px"
	 viewBox="0 0 232 216" enable-background="new 0 0 232 216" xml:space="preserve">
<g>
	<path fill="#FFFFFF" d="M116,40c-42.6816,0-72.4902,26.1797-72.4902,63.6641c0,17.8086,6.4414,34.9023,18.1758,48.3359h108.6289
		c11.7344-13.4336,18.1758-30.5273,18.1758-48.3359C188.4902,66.1797,158.6816,40,116,40z M65.998,110
		c-0.8906,0-1.7871-0.2969-2.5312-0.9023c-1.709-1.4004-1.9609-3.9199-0.5625-5.6309l36-44c1.4004-1.709,3.918-1.959,5.6289-0.5625
		c1.709,1.3984,1.9609,3.918,0.5625,5.6289l-36,43.998C68.3047,109.5,67.1562,110,65.998,110z M115.0957,74.5332l-18,22
		C96.3047,97.5,95.1562,98,93.998,98c-0.8906,0-1.7871-0.2969-2.5312-0.9043c-1.709-1.3984-1.9609-3.918-0.5625-5.6289l18-22
		c1.3984-1.7109,3.918-1.959,5.6289-0.5625C116.2422,70.3027,116.4941,72.8223,115.0957,74.5332z"/>
	<path fill="#D8D8D8" d="M116.0312,19.1191c12.8667,0,25.2317-1.5549,35.8267-4.4448C140.7185,10.3794,128.6353,8,116,8
		c-12.6213,0-24.6919,2.374-35.8213,6.6599C90.7837,17.5557,103.1606,19.1191,116.0312,19.1191z"/>
	<path fill="#D8D8D8" d="M162.6284,19.575c-12.9849,4.8564-29.3999,7.5442-46.5972,7.5442c-17.2,0-33.6499-2.6926-46.6377-7.5554
		C37.6726,36.3489,16,69.6829,16,108c0,55.1406,44.8594,100,100,100s100-44.8594,100-100
		C216,69.6917,194.3374,36.3638,162.6284,19.575z M144,188.7461H84c-2.209,0-4-1.7891-4-4s1.791-4,4-4h60c2.209,0,4,1.7891,4,4
		S146.209,188.7461,144,188.7461z M156,176.7461H72c-2.209,0-4-1.7891-4-4s1.791-4,4-4h84c2.209,0,4,1.7891,4,4
		S158.209,176.7461,156,176.7461z M175.0547,158.6992L173.8652,160H58.1348l-1.1895-1.3008
		c-13.8223-15.0977-21.4355-34.6445-21.4355-55.0352C35.5098,61.4688,68.6094,32,116,32s80.4902,29.4688,80.4902,71.6641
		C196.4902,124.0547,188.877,143.6016,175.0547,158.6992z"/>
	<path fill="#535353" d="M116,0C56.4492,0,8,48.4492,8,108s48.4492,108,108,108s108-48.4492,108-108S175.5508,0,116,0z
		 M151.8579,14.6743c-10.595,2.8899-22.96,4.4448-35.8267,4.4448c-12.8706,0-25.2476-1.5635-35.8525-4.4592
		C91.3081,10.374,103.3787,8,116,8C128.6353,8,140.7185,10.3794,151.8579,14.6743z M116,208c-55.1406,0-100-44.8594-100-100
		c0-38.3171,21.6726-71.6511,53.3936-88.4363c12.9878,4.8628,29.4377,7.5554,46.6377,7.5554
		c17.1973,0,33.6123-2.6877,46.5972-7.5442C194.3374,36.3638,216,69.6917,216,108C216,163.1406,171.1406,208,116,208z"/>
	<path fill="#535353" d="M116,32c-47.3906,0-80.4902,29.4688-80.4902,71.6641c0,20.3906,7.6133,39.9375,21.4355,55.0352L58.1348,160
		h115.7305l1.1895-1.3008c13.8223-15.0977,21.4355-34.6445,21.4355-55.0352C196.4902,61.4688,163.3906,32,116,32z M170.3145,152
		H61.6855c-11.7344-13.4336-18.1758-30.5273-18.1758-48.3359C43.5098,66.1797,73.3184,40,116,40s72.4902,26.1797,72.4902,63.6641
		C188.4902,121.4727,182.0488,138.5664,170.3145,152z"/>
	<path fill="#535353" d="M156,168.7461H72c-2.209,0-4,1.7891-4,4s1.791,4,4,4h84c2.209,0,4-1.7891,4-4
		S158.209,168.7461,156,168.7461z"/>
	<path fill="#535353" d="M144,180.7461H84c-2.209,0-4,1.7891-4,4s1.791,4,4,4h60c2.209,0,4-1.7891,4-4
		S146.209,180.7461,144,180.7461z"/>
	<path fill="#535353" d="M200,184v8c13.2344,0,24,10.7656,24,24h8C232,198.3555,217.6445,184,200,184z"/>
	<path fill="#535353" d="M0,216h8c0-13.2344,10.7656-24,24-24v-8C14.3555,184,0,198.3555,0,216z"/>
	<path fill="#535353" d="M104.5332,58.9043c-1.7109-1.3965-4.2285-1.1465-5.6289,0.5625l-36,44
		c-1.3984,1.7109-1.1465,4.2305,0.5625,5.6309C64.2109,109.7031,65.1074,110,65.998,110c1.1582,0,2.3066-0.5,3.0977-1.4688
		l36-43.998C106.4941,62.8223,106.2422,60.3027,104.5332,58.9043z"/>
	<path fill="#535353" d="M108.9043,69.4668l-18,22c-1.3984,1.7109-1.1465,4.2305,0.5625,5.6289
		C92.2109,97.7031,93.1074,98,93.998,98c1.1582,0,2.3066-0.5,3.0977-1.4668l18-22c1.3984-1.7109,1.1465-4.2305-0.5625-5.6289
		C112.8223,67.5078,110.3027,67.7559,108.9043,69.4668z"/>
</g>
</svg>
