<?xml version="1.0" encoding="utf-8"?>
<!-- Generator: Adobe Illustrator 19.2.0, SVG Export Plug-In . SVG Version: 6.00 Build 0)  -->
<svg version="1.1" id="bacteria" xmlns="http://www.w3.org/2000/svg" xmlns:xlink="http://www.w3.org/1999/xlink" x="0px" y="0px"
	 viewBox="0 0 227.5302 203.4617" enable-background="new 0 0 227.5302 203.4617" xml:space="preserve">
<g>
	<path fill="#D8D8D8" d="M211.845,11.1414c-2.043-2.0391-4.5703-3.1406-7.1797-3.1406c-0.1992,0-0.4023,0.0039-0.6016,0.0195
		c-2.8086,0.1836-5.3945,1.6328-7.2812,4.0859l-9.7852,11.9785c0.2861,0.1685,0.5864,0.3071,0.832,0.5527l10,10
		c1.5625,1.5625,1.5625,4.0938,0,5.6562c-0.7812,0.7812-1.8047,1.1719-2.8281,1.1719s-2.0469-0.3906-2.8281-1.1719l-10-10
		c-0.0493-0.0493-0.0649-0.1162-0.1113-0.1675L171.181,43.4461c-3.5854,4.0154-8.6392,9.1787-13.5442,13.9988l9.1926,9.1926
		c1.5625,1.5625,1.5625,4.0938,0,5.6562c-0.7812,0.7812-1.8047,1.1719-2.8281,1.1719s-2.0469-0.3906-2.8281-1.1719l-9.2896-9.2896
		c-1.2876,1.2224-2.533,2.395-3.6519,3.4263c-0.0586,0.0547-0.1172,0.1055-0.1797,0.1562l-19.4128,15.8606l6.1902,6.1902
		c1.5625,1.5625,1.5625,4.0938,0,5.6562c-0.7812,0.7812-1.8047,1.1719-2.8281,1.1719s-2.0469-0.3906-2.8281-1.1719l-6.7598-6.7598
		l-5.6777,4.6387c-2.5469,1.9727-4,4.5742-4.1797,7.3906c-0.1758,2.8047,0.9297,5.5547,3.1211,7.7461l3.6914,3.6914
		c4.793,4.7852,13.3672,5.3555,18.7227,1.2305l17.145-14.0066c-0.136-0.1355-0.3157-0.2021-0.4341-0.3606l-6-8
		c-1.3281-1.7656-0.9688-4.2734,0.8008-5.5977c1.7656-1.3281,4.2695-0.9727,5.5977,0.8008l6,8
		c0.0474,0.0632,0.0547,0.1399,0.0979,0.2048l7.949-6.4939c5.4089-4.8386,13.3596-12.8345,19.2964-19.1138l-5.3706-5.3706
		c-1.5625-1.5625-1.5625-4.0938,0-5.6562s4.0938-1.5625,5.6562,0l5.0002,5.0002l23.0115-28.176
		c4.0664-5.2539,3.5-13.8203-1.3047-18.6289L211.845,11.1414z"/>
	<path fill="#535353" d="M221.1927,9.1766l-3.6914-3.6914c-3.8555-3.8516-8.8555-5.7773-13.957-5.4492
		c-5.1406,0.3359-9.793,2.8906-13.0312,7.1016l-25.4141,31.1133c-5.75,6.4336-15.7031,16.2227-22.2031,22.2148L111.7552,85.911
		c-1.1582,0.8967-2.1646,1.9036-3.0596,2.9766c-6.8792-1.9844-26.3186-6.7805-43.4795-3.3438
		c-21.1094,4.2227-33.7266,18.7031-34.25,19.3203c-1.4414,1.6758-1.2461,4.1992,0.4336,5.6367
		c0.7539,0.6484,1.6797,0.9648,2.6016,0.9648c1.125,0,2.2461-0.4727,3.0352-1.3984c0.1133-0.1289,11.3164-12.9922,29.75-16.6797
		c14.2651-2.8596,31.0286,0.8528,38.2837,2.8076c-0.1201,0.5117-0.1978,1.0339-0.2712,1.5581
		c-0.9329,0.2939-1.7742,0.9036-2.3054,1.7944c-0.0625,0.1016-6.543,10.3242-40.9102,13.9414
		c-39.6133,4.168-60.2227,40.4883-61.0781,42.0351c-1.0742,1.9297-0.3789,4.3594,1.5508,5.4336
		c0.6172,0.3438,1.2812,0.5078,1.9414,0.5078c1.4023,0,2.7656-0.7422,3.5-2.0547c0.1875-0.3398,19.5117-34.2383,54.9219-37.9687
		c26.7949-2.8196,38.6819-9.6584,43.7373-14.136c0.4351,0.9629,0.9141,1.9092,1.5242,2.8035
		c-1.6719,5.5212-9.1855,25.2185-32.7107,31.4927c-30.5117,8.1328-31.7383,17.2812-30.8477,20.832
		c0.4531,1.8203,2.082,3.0312,3.875,3.0312c0.3203,0,0.6484-0.0391,0.9727-0.1211c1.8984-0.4727,3.1367-2.2266,3.0273-4.1094
		c0.3281-0.7969,3.3008-6.1094,25.0352-11.9062c23.1775-6.1792,33.0042-23.189,36.7798-32.5913
		c1.1765,1.1614,2.501,2.1243,3.8999,2.9639c-1.0667,7.3186-5.8242,29.1042-25.3867,38.1313
		c-27.4648,12.6758-33.957,39.5938-34.2227,40.7344c-0.4961,2.1484,0.8438,4.2891,2.9922,4.7891
		c0.3047,0.0703,0.6094,0.1055,0.9102,0.1055c1.8125,0,3.457-1.2461,3.8906-3.0859c0.0586-0.2422,5.9688-24.2891,29.7812-35.2773
		c21.8455-10.0815,27.999-32.582,29.6875-42.5156c1.3706,0.2439,2.762,0.3828,4.1562,0.3828c4.8164,0,9.6406-1.4648,13.5391-4.4648
		l31.3867-25.6445c6.6562-5.9492,16.7383-16.207,23.0039-23.0156l25.6523-31.3984
		C229.6849,29.9422,228.8294,16.8172,221.1927,9.1766z M216.8411,33.4617l-23.0115,28.176l-5.0002-5.0002
		c-1.5625-1.5625-4.0938-1.5625-5.6562,0s-1.5625,4.0938,0,5.6562l5.3706,5.3706c-5.9368,6.2793-13.8875,14.2751-19.2964,19.1138
		l-7.949,6.4939c-0.0432-0.0649-0.0505-0.1416-0.0979-0.2048l-6-8c-1.3281-1.7734-3.832-2.1289-5.5977-0.8008
		c-1.7695,1.3242-2.1289,3.832-0.8008,5.5977l6,8c0.1184,0.1584,0.2981,0.2251,0.4341,0.3606l-17.145,14.0066
		c-5.3555,4.125-13.9297,3.5547-18.7227-1.2305l-3.6914-3.6914c-2.1914-2.1914-3.2969-4.9414-3.1211-7.7461
		c0.1797-2.8164,1.6328-5.418,4.1797-7.3906l5.6777-4.6387l6.7598,6.7598c0.7812,0.7812,1.8047,1.1719,2.8281,1.1719
		s2.0469-0.3906,2.8281-1.1719c1.5625-1.5625,1.5625-4.0938,0-5.6562l-6.1902-6.1902l19.4128-15.8606
		c0.0625-0.0508,0.1211-0.1016,0.1797-0.1562c1.1189-1.0312,2.3643-2.2039,3.6519-3.4263l9.2896,9.2896
		c0.7812,0.7812,1.8047,1.1719,2.8281,1.1719s2.0469-0.3906,2.8281-1.1719c1.5625-1.5625,1.5625-4.0938,0-5.6562l-9.1926-9.1926
		c4.905-4.8201,9.9587-9.9834,13.5442-13.9988l10.8809-13.3198c0.0464,0.0513,0.062,0.1182,0.1113,0.1675l10,10
		c0.7812,0.7812,1.8047,1.1719,2.8281,1.1719s2.0469-0.3906,2.8281-1.1719c1.5625-1.5625,1.5625-4.0938,0-5.6562l-10-10
		c-0.2456-0.2456-0.5459-0.3843-0.832-0.5527l9.7852-11.9785c1.8867-2.4531,4.4727-3.9023,7.2812-4.0859
		c0.1992-0.0156,0.4024-0.0195,0.6016-0.0195c2.6094,0,5.1367,1.1016,7.1797,3.1406l3.6914,3.6914
		C220.3411,19.6414,220.9075,28.2078,216.8411,33.4617z"/>
</g>
</svg>
