<?xml version="1.0" encoding="utf-8"?>
<!-- Generator: Adobe Illustrator 19.2.0, SVG Export Plug-In . SVG Version: 6.00 Build 0)  -->
<svg version="1.1" id="bomb" xmlns="http://www.w3.org/2000/svg" xmlns:xlink="http://www.w3.org/1999/xlink" x="0px" y="0px"
	 viewBox="0 0 226.0326 215.293" enable-background="new 0 0 226.0326 215.293" xml:space="preserve">
<g>
	<path fill="#D8D8D8" d="M149.8848,71.2734c-11.5293,0-23.2031,2.9297-33.8848,9.0977
		c-15.7305,9.082-26.9824,23.7461-31.6836,41.2891c-4.7012,17.5449-2.2871,35.8711,6.7949,51.5996
		c9.0801,15.7305,23.7441,26.9824,41.2891,31.6836c17.541,4.6934,35.8652,2.2871,51.5996-6.7949
		c15.7305-9.0801,26.9824-23.7441,31.6836-41.2891s2.2871-35.8691-6.7949-51.5996
		C196.3086,83.4707,173.4023,71.2734,149.8848,71.2734z M125,95.959c-23.877,13.7852-32.0859,44.4238-18.3008,68.3008
		c1.1035,1.9141,0.4492,4.3594-1.4648,5.4648c-0.6289,0.3633-1.3184,0.5352-1.9961,0.5352c-1.3828,0-2.7266-0.7168-3.4688-2
		C83.7793,140.5625,93.3027,105.0215,121,89.0293c1.9062-1.1074,4.3574-0.4492,5.4648,1.4648
		C127.5684,92.4082,126.9141,94.8535,125,95.959z"/>
	
		<rect x="94.0008" y="65.9796" transform="matrix(0.8659 -0.5001 0.5001 0.8659 -20.2529 64.3951)" fill="#D8D8D8" width="31.9984" height="7.9979"/>
	<path fill="#535353" d="M215.8184,101.2598C199.0598,72.2349,165.9221,58.5,134.7568,64.8574l-7.9717-13.8066
		c-1.1074-1.9141-3.5586-2.5703-5.4648-1.4648l-13.96,8.0596c-6.7986-10.5654-17.0884-18.1602-29.3076-21.4346
		c-13.0215-3.4902-26.6211-1.7012-38.3028,5.041c-1.914,1.1055-2.5683,3.5508-1.4648,5.4648
		c1.1035,1.9102,3.5469,2.5664,5.4648,1.4648c9.8262-5.6738,21.2715-7.1777,32.2325-4.2441
		c10.155,2.7217,18.7271,8.9902,24.4487,17.709l-13.7515,7.9395c-0.918,0.5312-1.5898,1.4043-1.8633,2.4297
		c-0.2754,1.0254-0.1309,2.1172,0.3984,3.0352l7.9622,13.79c-7.7532,8.7217-13.479,19.1494-16.5872,30.749
		c-5.2539,19.6094-2.5586,40.0898,7.5918,57.6699s26.5391,30.1562,46.1484,35.4102c6.5469,1.7559,13.1914,2.623,19.793,2.623
		c13.168,0,26.166-3.4551,37.877-10.2148c17.5801-10.1504,30.1562-26.5391,35.4102-46.1484
		C228.6641,139.3223,225.9688,118.8398,215.8184,101.2598z M121.8555,58.5156l4,6.9258l-27.7109,16l-4-6.9258L121.8555,58.5156z
		 M215.6836,156.8594c-4.7012,17.5449-15.9531,32.209-31.6836,41.2891c-15.7344,9.082-34.0586,11.4883-51.5996,6.7949
		c-17.5449-4.7012-32.209-15.9531-41.2891-31.6836c-9.082-15.7285-11.4961-34.0547-6.7949-51.5996
		c4.7012-17.543,15.9531-32.207,31.6836-41.2891c10.6816-6.168,22.3555-9.0977,33.8848-9.0977
		c23.5176,0,46.4238,12.1973,59.0039,33.9863C217.9707,120.9902,220.3848,139.3145,215.6836,156.8594z"/>
	<path fill="#535353" d="M121,89.0293c-27.6973,15.9922-37.2207,51.5332-21.2305,79.2305c0.7422,1.2832,2.0859,2,3.4688,2
		c0.6777,0,1.3672-0.1719,1.9961-0.5352c1.9141-1.1055,2.5684-3.5508,1.4648-5.4648C92.9141,140.3828,101.123,109.7441,125,95.959
		c1.9141-1.1055,2.5684-3.5508,1.4648-5.4648C125.3574,88.5801,122.9062,87.9219,121,89.0293z"/>
	
		<rect x="16.0001" y="-4.8752" transform="matrix(0.5547 -0.8321 0.8321 0.5547 -2.3657 22.6734)" fill="#535353" width="7.9998" height="36.8442"/>
	
		<rect x="-0.1242" y="67.5472" transform="matrix(0.4961 -0.8682 0.8682 0.4961 -52.0429 53.4145)" fill="#535353" width="40.2483" height="7.9993"/>
	<rect y="31.5469" fill="#535353" width="28" height="8"/>
</g>
</svg>
