<?xml version="1.0" encoding="utf-8"?>
<!-- Generator: Adobe Illustrator 19.2.0, SVG Export Plug-In . SVG Version: 6.00 Build 0)  -->
<svg version="1.1" id="cheesemoon" xmlns="http://www.w3.org/2000/svg" xmlns:xlink="http://www.w3.org/1999/xlink" x="0px" y="0px"
	 viewBox="0 0 224 224" enable-background="new 0 0 224 224" xml:space="preserve">
<g>
	<path fill="#FFFFFF" d="M90,144c-9.9258,0-18,8.0742-18,18s8.0742,18,18,18s18-8.0742,18-18S99.9258,144,90,144z"/>
	<path fill="#FFFFFF" d="M176,120c-6.6172,0-12,5.3828-12,12s5.3828,12,12,12s12-5.3828,12-12S182.6172,120,176,120z"/>
	<circle fill="#FFFFFF" cx="54" cy="94" r="6"/>
	<path fill="#FFFFFF" d="M118,44c-5.5137,0-10,4.4863-10,10s4.4863,10,10,10s10-4.4863,10-10S123.5137,44,118,44z"/>
	<path fill="#D8D8D8" d="M204.2129,63.8652C203.4824,63.9551,202.7422,64,202,64c-9.9258,0-18-8.0742-18-18
		c0-2.6074,0.5527-5.1387,1.6152-7.4648C165.9746,18.8184,139.9492,8,112,8C54.6543,8,8,54.6543,8,112
		c0,2.0156,0.0586,4.0488,0.1738,6.0703C17.6172,122.1055,24,131.5742,24,142c0,5.7871-1.8926,11.3164-5.3789,15.8418
		C36.043,193.2559,72.4141,216,112,216c14.0352,0,27.5996-2.7324,40.375-8.125c-0.25-1.2676-0.375-2.5625-0.375-3.875
		c0-11.0273,8.9727-20,20-20c4.1621,0,8.1113,1.252,11.4355,3.582C204.1738,167.9688,216,140.6191,216,112
		C216,95.2148,211.9336,78.6367,204.2129,63.8652z M54,108c-7.7188,0-14-6.2812-14-14s6.2812-14,14-14s14,6.2812,14,14
		S61.7188,108,54,108z M90,188c-14.3359,0-26-11.6641-26-26s11.6641-26,26-26s26,11.6641,26,26S104.3359,188,90,188z M118,72
		c-9.9258,0-18-8.0742-18-18s8.0742-18,18-18s18,8.0742,18,18S127.9258,72,118,72z M176,152c-11.0273,0-20-8.9727-20-20
		s8.9727-20,20-20s20,8.9727,20,20S187.0273,152,176,152z"/>
	<path fill="#535353" d="M209.7949,57.373c-0.9316-1.666-2.9082-2.4395-4.7188-1.8535C204.0879,55.8379,203.0527,56,202,56
		c-5.5137,0-10-4.4863-10-10c0-2.0879,0.6348-4.0859,1.8379-5.7773c1.1035-1.5547,0.957-3.6738-0.3516-5.0605
		C172.0977,12.4863,143.1582,0,112,0C50.2422,0,0,50.2422,0,112c0,3.0801,0.127,6.1953,0.377,9.2598
		c0.1328,1.6406,1.2559,3.0312,2.832,3.5059C10.7402,127.0371,16,134.123,16,142c0,4.6621-1.7754,9.084-4.998,12.4473
		c-1.1367,1.1875-1.4316,2.9512-0.7422,4.4434C28.5195,198.4434,68.4551,224,112,224c16.3633,0,32.1387-3.4512,46.8848-10.2559
		c1.9492-0.9004,2.8418-3.1797,2.0195-5.1621C160.3047,207.1309,160,205.5898,160,204c0-6.6172,5.3828-12,12-12
		c3.2949,0,6.3672,1.3086,8.6523,3.6836c1.4863,1.5488,3.9258,1.6406,5.5332,0.2246C210.2168,174.6465,224,144.0625,224,112
		C224,92.8633,219.0879,73.9727,209.7949,57.373z M183.4355,187.582C180.1113,185.252,176.1621,184,172,184
		c-11.0273,0-20,8.9727-20,20c0,1.3125,0.125,2.6074,0.375,3.875C139.5996,213.2676,126.0352,216,112,216
		c-39.5859,0-75.957-22.7441-93.3789-58.1582C22.1074,153.3164,24,147.7871,24,142c0-10.4258-6.3828-19.8945-15.8262-23.9297
		C8.0586,116.0488,8,114.0156,8,112C8,54.6543,54.6543,8,112,8c27.9492,0,53.9746,10.8184,73.6152,30.5352
		C184.5527,40.8613,184,43.3926,184,46c0,9.9258,8.0742,18,18,18c0.7422,0,1.4824-0.0449,2.2129-0.1348
		C211.9336,78.6367,216,95.2148,216,112C216,140.6191,204.1738,167.9688,183.4355,187.582z"/>
	<path fill="#535353" d="M118,36c-9.9258,0-18,8.0742-18,18s8.0742,18,18,18s18-8.0742,18-18S127.9258,36,118,36z M118,64
		c-5.5137,0-10-4.4863-10-10s4.4863-10,10-10s10,4.4863,10,10S123.5137,64,118,64z"/>
	<path fill="#535353" d="M176,112c-11.0273,0-20,8.9727-20,20s8.9727,20,20,20s20-8.9727,20-20S187.0273,112,176,112z M176,144
		c-6.6172,0-12-5.3828-12-12s5.3828-12,12-12s12,5.3828,12,12S182.6172,144,176,144z"/>
	<path fill="#535353" d="M90,136c-14.3359,0-26,11.6641-26,26s11.6641,26,26,26s26-11.6641,26-26S104.3359,136,90,136z M90,180
		c-9.9258,0-18-8.0742-18-18s8.0742-18,18-18s18,8.0742,18,18S99.9258,180,90,180z"/>
	<path fill="#535353" d="M54,80c-7.7188,0-14,6.2812-14,14s6.2812,14,14,14s14-6.2812,14-14S61.7188,80,54,80z M54,100
		c-3.3086,0-6-2.6914-6-6s2.6914-6,6-6s6,2.6914,6,6S57.3086,100,54,100z"/>
</g>
</svg>
