<?xml version="1.0" encoding="utf-8"?>
<!-- Generator: Adobe Illustrator 19.2.0, SVG Export Plug-In . SVG Version: 6.00 Build 0)  -->
<svg version="1.1" id="chemicalconnection" xmlns="http://www.w3.org/2000/svg" xmlns:xlink="http://www.w3.org/1999/xlink" x="0px"
	 y="0px" viewBox="0 0 224 172" enable-background="new 0 0 224 172" xml:space="preserve">
<g>
	<path fill="#D8D8D8" d="M152,8c-4.4121,0-8,3.5898-8,8s3.5879,8,8,8s8-3.5898,8-8S156.4121,8,152,8z"/>
	<path fill="#D8D8D8" d="M32,68c0-6.6172-5.3828-12-12-12S8,61.3828,8,68s5.3828,12,12,12S32,74.6172,32,68z"/>
	<circle fill="#D8D8D8" cx="132" cy="56" r="4"/>
	<path fill="#D8D8D8" d="M46,104c-9.9258,0-18,8.0742-18,18s8.0742,18,18,18s18-8.0742,18-18S55.9258,104,46,104z"/>
	<path fill="#D8D8D8" d="M216,24c0-6.6172-5.3828-12-12-12s-12,5.3828-12,12s5.3828,12,12,12S216,30.6172,216,24z"/>
	<path fill="#D8D8D8" d="M172,94c0,9.9258,8.0742,18,18,18s18-8.0742,18-18s-8.0742-18-18-18S172,84.0742,172,94z"/>
	<path fill="#D8D8D8" d="M124,116c-13.2344,0-24,10.7656-24,24s10.7656,24,24,24s24-10.7656,24-24S137.2344,116,124,116z"/>
	<path fill="#535353" d="M224,24c0-11.0273-8.9727-20-20-20c-9.1838,0-16.8613,6.2581-19.199,14.7085l-16.8503-2.2214
		C167.9558,16.3215,168,16.1667,168,16c0-8.8242-7.1777-16-16-16s-16,7.1758-16,16c0,4.137,1.6189,7.8757,4.2041,10.7185
		l-6.9629,17.407C132.8274,44.0823,132.425,44,132,44c-6.6172,0-12,5.3828-12,12s5.3828,12,12,12s12-5.3828,12-12
		c0-3.301-1.3413-6.2937-3.5054-8.4653l6.5588-16.397C148.6208,31.6519,150.2632,32,152,32c5.7942,0,10.8311-3.1255,13.6389-7.7499
		l18.6348,2.4565c1.0847,7.9041,6.7554,14.2925,14.2722,16.4419L189.2117,68.04C175.2422,68.4622,164,79.9302,164,94
		c0,5.71,1.8723,10.9788,5.0049,15.2727l-17.6865,14.1492C145.6975,114.1948,135.5715,108,124,108
		c-16.2568,0-29.6917,12.1958-31.709,27.9131l-21.4102-6.3909C71.6028,127.1389,72,124.6157,72,122c0-14.3359-11.6641-26-26-26
		c-3.2466,0-6.343,0.6245-9.2109,1.7166l-4.6458-13.937C36.887,80.1191,40,74.4409,40,68c0-11.0273-8.9727-20-20-20S0,56.9727,0,68
		s8.9727,20,20,20c1.6965,0,3.3171-0.2769,4.8911-0.6763l4.8152,14.4453C23.7952,106.5391,20,113.8311,20,122
		c0,14.3359,11.6641,26,26,26c8.832,0,16.6384-4.436,21.3396-11.1875l23.5159,7.0195C91.2383,143.9453,91.623,144,92.002,144
		c0.0925,0,0.1775-0.0371,0.269-0.0435C94.2297,159.7373,107.6978,172,124,172c17.6445,0,32-14.3555,32-32
		c0-3.1348-0.4727-6.1577-1.3169-9.0229l19.8149-15.8521c0.0657-0.0525,0.0935-0.1296,0.155-0.1853
		C178.9604,118.1055,184.2568,120,190,120c14.3359,0,26-11.6641,26-26c0-11.7754-7.8757-21.7336-18.6313-24.9204l9.5142-25.3711
		C216.5376,42.2966,224,34.0403,224,24z M132,60c-2.2051,0-4-1.793-4-4s1.7949-4,4-4s4,1.793,4,4S134.2051,60,132,60z M152,24
		c-4.4121,0-8-3.5898-8-8s3.5879-8,8-8s8,3.5898,8,8S156.4121,24,152,24z M8,68c0-6.6172,5.3828-12,12-12s12,5.3828,12,12
		s-5.3828,12-12,12S8,74.6172,8,68z M46,140c-9.9258,0-18-8.0742-18-18s8.0742-18,18-18s18,8.0742,18,18S55.9258,140,46,140z
		 M124,164c-13.2344,0-24-10.7656-24-24s10.7656-24,24-24s24,10.7656,24,24S137.2344,164,124,164z M192,24c0-6.6172,5.3828-12,12-12
		s12,5.3828,12,12s-5.3828,12-12,12S192,30.6172,192,24z M208,94c0,9.9258-8.0742,18-18,18s-18-8.0742-18-18s8.0742-18,18-18
		S208,84.0742,208,94z"/>
</g>
</svg>
