<?xml version="1.0" encoding="utf-8"?>
<!-- Generator: Adobe Illustrator 19.2.0, SVG Export Plug-In . SVG Version: 6.00 Build 0)  -->
<svg version="1.1" id="chemicalstructure" xmlns="http://www.w3.org/2000/svg" xmlns:xlink="http://www.w3.org/1999/xlink" x="0px"
	 y="0px" viewBox="0 0 239.9219 241.2344" enable-background="new 0 0 239.9219 241.2344" xml:space="preserve">
<g>
	<path fill="#D8D8D8" d="M8,148.9258v55.3828L55.9609,232l47.9609-27.6914v-55.3828l-47.9609-27.6914L8,148.9258z M67.9609,152.6172
		h8v48h-8v-20h-24v20h-8v-48h8v20h24V152.6172z"/>
	<path fill="#D8D8D8" d="M72,36.9258v55.3828L119.9609,120l47.9609-27.6914V36.9258L119.9609,9.2344L72,36.9258z M139.9609,40.6172
		v48h-8h-24h-8v-48h8h24H139.9609z"/>
	<rect x="107.9609" y="48.6172" fill="#D8D8D8" width="24" height="32"/>
	<path fill="#D8D8D8" d="M136,148.9258v55.3828L183.9609,232l47.9609-27.6914v-55.3828l-47.9609-27.6914L136,148.9258z
		 M195.9609,152.6172h8v48h-8v-20h-24v20h-8v-48h8v20h24V152.6172z"/>
	<path fill="#535353" d="M175.9219,32.3086L119.9609,0L64,32.3086v64.6172l55.9609,32.3086l55.9609-32.3086V32.3086z
		 M167.9219,92.3086L119.9609,120L72,92.3086V36.9258l47.9609-27.6914l47.9609,27.6914V92.3086z"/>
	<path fill="#535353" d="M0,144.3086v64.6172l55.9609,32.3086l55.9609-32.3086v-64.6172L55.9609,112L0,144.3086z M103.9219,204.3086
		L55.9609,232L8,204.3086v-55.3828l47.9609-27.6914l47.9609,27.6914V204.3086z"/>
	<path fill="#535353" d="M183.9609,112L128,144.3086v64.6172l55.9609,32.3086l55.9609-32.3086v-64.6172L183.9609,112z
		 M231.9219,204.3086L183.9609,232L136,204.3086v-55.3828l47.9609-27.6914l47.9609,27.6914V204.3086z"/>
	<polygon fill="#535353" points="43.9609,152.6172 35.9609,152.6172 35.9609,200.6172 43.9609,200.6172 43.9609,180.6172 
		67.9609,180.6172 67.9609,200.6172 75.9609,200.6172 75.9609,152.6172 67.9609,152.6172 67.9609,172.6172 43.9609,172.6172 	"/>
	<polygon fill="#535353" points="171.9609,152.6172 163.9609,152.6172 163.9609,200.6172 171.9609,200.6172 171.9609,180.6172 
		195.9609,180.6172 195.9609,200.6172 203.9609,200.6172 203.9609,152.6172 195.9609,152.6172 195.9609,172.6172 171.9609,172.6172 
			"/>
	<path fill="#535353" d="M99.9609,40.6172v48h8h24h8v-48h-8h-24H99.9609z M131.9609,48.6172v32h-24v-32H131.9609z"/>
</g>
</svg>
