<?xml version="1.0" encoding="utf-8"?>
<!-- Generator: Adobe Illustrator 19.2.0, SVG Export Plug-In . SVG Version: 6.00 Build 0)  -->
<svg version="1.1" id="chemicalcompound" xmlns="http://www.w3.org/2000/svg" xmlns:xlink="http://www.w3.org/1999/xlink" x="0px"
	 y="0px" viewBox="0 0 220 204" enable-background="new 0 0 220 204" xml:space="preserve">
<g>
	<path fill="#D8D8D8" d="M110,36c7.7188,0,14-6.2812,14-14s-6.2812-14-14-14s-14,6.2812-14,14S102.2812,36,110,36z"/>
	<path fill="#D8D8D8" d="M200,144c-6.6172,0-12,5.3828-12,12s5.3828,12,12,12s12-5.3828,12-12S206.6172,144,200,144z"/>
	<path fill="#D8D8D8" d="M32,156c0-6.6172-5.3828-12-12-12c-0.5681,0-1.1118,0.0911-1.6592,0.1677
		c-0.3096,0.1338-0.605,0.2949-0.9541,0.3479c-0.1938,0.0254-0.373-0.0332-0.5635-0.0347C11.7534,145.8838,8,150.4897,8,156
		c0,6.6172,5.3828,12,12,12S32,162.6172,32,156z"/>
	<path fill="#535353" d="M207.5813,137.5134C207.8342,135.0168,208,132.5037,208,130c0-22.3545-10.0037-42.3806-25.7227-55.9604
		c-5.5801-25.8049-24.709-47.1865-50.5188-55.1196C130.2522,8.2473,121.0811,0,110,0C98.9199,0,89.7495,8.2458,88.2419,18.9172
		c-25.8079,7.937-44.9377,29.3184-50.5188,55.1221C22.0039,87.6194,12,107.6453,12,130c0,2.5093,0.1731,5.0166,0.4236,7.5117
		C5.1458,140.5059,0,147.6558,0,156c0,11.0273,8.9727,20,20,20c2.4819,0,4.8337-0.5112,7.0286-1.3413
		C40.9976,193.0747,62.7998,204,86,204c8.4084,0,16.4617-1.4775,24-4.0728c7.5383,2.5952,15.5916,4.0728,24,4.0728
		c23.157,0,45.0056-10.9397,58.9697-29.3418C195.165,175.4888,197.5176,176,200,176c11.0273,0,20-8.9727,20-20
		C220,147.6575,214.8564,140.5085,207.5813,137.5134z M176,89.6055c0,16.4795-6.1133,31.5305-16.1375,43.1086
		C159.8958,131.8059,160,130.9163,160,130c0-27.8787-15.5073-52.1868-38.3379-64.8015C125.6643,64.4377,129.78,64,134,64
		c15.5051,0,29.7507,5.4106,41.0281,14.3955C175.6609,82.0549,176,85.7998,176,89.6055z M44.9722,78.3953
		C56.2493,69.4104,70.4949,64,86,64c4.22,0,8.3357,0.4377,12.3379,1.1985C75.5073,77.8132,60,102.1213,60,130
		c0,0.9163,0.1042,1.8059,0.1375,2.7141C50.1133,121.136,44,106.085,44,89.6055C44,85.7998,44.3391,82.0547,44.9722,78.3953z
		 M150.9673,141.2556c-11.2681,8.9565-25.4893,14.3499-40.9673,14.3499s-29.6992-5.3933-40.9673-14.3499
		C68.3989,137.5898,68,133.844,68,130c0-27.9177,17.4541-51.7871,42-61.4155c24.5459,9.6284,42,33.4978,42,61.4155
		C152,133.844,151.6011,137.5898,150.9673,141.2556z M110,163.6055c13.7891,0,26.6628-3.8599,37.7266-10.4541
		c-6.5842,17.4902-20.3503,31.448-37.7266,38.2642c-17.3762-6.8162-31.1423-20.7739-37.7266-38.2642
		C83.3372,159.7456,96.2109,163.6055,110,163.6055z M110,8c7.7188,0,14,6.2812,14,14s-6.2812,14-14,14s-14-6.2812-14-14
		S102.2812,8,110,8z M88.6421,27.1816C90.9819,36.8147,99.6584,44,110,44c10.3406,0,19.0168-7.1843,21.3572-16.8162
		c18.9121,6.4626,33.553,21.1116,40.3865,39.2805C160.676,59.864,147.7961,56,134,56c-8.4084,0-16.4617,1.4775-24,4.0728
		C102.4617,57.4775,94.4084,56,86,56c-13.7957,0-26.6753,3.8635-37.7427,10.4636C55.0916,48.2961,69.7322,33.6475,88.6421,27.1816z
		 M8,156c0-5.5103,3.7534-10.1162,8.8232-11.519c0.1904,0.0015,0.3696,0.0601,0.5635,0.0347
		c0.3491-0.053,0.6445-0.2141,0.9541-0.3479C18.8882,144.0911,19.4319,144,20,144c6.6172,0,12,5.3828,12,12s-5.3828,12-12,12
		S8,162.6172,8,156z M86,196c-20.4548,0-39.7043-9.5168-52.1794-25.605C37.6128,166.7532,40,161.6602,40,156
		c0-10.9236-8.8125-19.8027-19.6973-19.9695C20.1216,134.0264,20,132.0134,20,130c0-16.4661,6.1028-31.5068,16.1125-43.0813
		C36.0798,87.8154,36,88.7026,36,89.6055c0,22.3269,9.9802,42.3293,25.6655,55.9084c4.5469,21.217,18.2012,39.0815,36.6724,49.2876
		C94.3357,195.5623,90.22,196,86,196z M134,196c-4.22,0-8.3357-0.4377-12.3379-1.1985
		c18.4712-10.2061,32.1255-28.0706,36.6724-49.2876C174.0198,131.9348,184,111.9324,184,89.6055c0-0.9028-0.0798-1.79-0.1125-2.6868
		C193.897,98.4932,200,113.5339,200,130c0,2.0068-0.1245,4.0232-0.3059,6.031C188.8105,136.1992,180,145.0774,180,156
		c0,5.6562,2.3833,10.7466,6.1711,14.3882C173.7009,186.4656,154.4187,196,134,196z M200,168c-6.6172,0-12-5.3828-12-12
		s5.3828-12,12-12s12,5.3828,12,12S206.6172,168,200,168z"/>
</g>
</svg>
