<?xml version="1.0" encoding="utf-8"?>
<!-- Generator: Adobe Illustrator 19.2.0, SVG Export Plug-In . SVG Version: 6.00 Build 0)  -->
<svg version="1.1" id="chemestrystructure" xmlns="http://www.w3.org/2000/svg" xmlns:xlink="http://www.w3.org/1999/xlink" x="0px"
	 y="0px" viewBox="0 0 215.9219 240" enable-background="new 0 0 215.9219 240" xml:space="preserve">
<g>
	<path fill="#D8D8D8" d="M145.9609,8c-5.5137,0-10,4.4863-10,10s4.4863,10,10,10s10-4.4863,10-10S151.4746,8,145.9609,8z"/>
	<path fill="#D8D8D8" d="M163.3867,204c0.3418,0.5928,0.4612,1.2324,0.4805,1.8716c1.6926,1.314,3.7903,2.1284,6.0938,2.1284
		c5.5137,0,10-4.4863,10-10s-4.4863-10-10-10s-10,4.4863-10,10c0,1.4761,0.3411,2.8667,0.9177,4.1289
		C161.8975,202.3828,162.8193,203.0205,163.3867,204z"/>
	<path fill="#D8D8D8" d="M8,56.3086v55.3828l47.9609,27.6895l47.9609-27.6895V56.3086L55.9609,28.6191L8,56.3086z M58.373,43.8223
		l31.1758,18c1.9141,1.1055,2.5684,3.5508,1.4648,5.4648c-1.1074,1.9102-3.5527,2.5664-5.4648,1.4648L56.3984,51.9219
		L26.8223,69.4414C26.1816,69.8203,25.4805,70,24.7871,70c-1.3672,0-2.6992-0.7012-3.4453-1.9609
		c-1.127-1.9004-0.498-4.3555,1.4023-5.4805L54.334,43.8457C55.5781,43.1094,57.1211,43.0977,58.373,43.8223z"/>
	<path fill="#535353" d="M22.7441,62.5586c-1.9004,1.125-2.5293,3.5801-1.4023,5.4805C22.0879,69.2988,23.4199,70,24.7871,70
		c0.6934,0,1.3945-0.1797,2.0352-0.5586l29.5762-17.5195L85.5488,68.752c1.9121,1.1016,4.3574,0.4453,5.4648-1.4648
		c1.1035-1.9141,0.4492-4.3594-1.4648-5.4648l-31.1758-18c-1.252-0.7246-2.7949-0.7129-4.0391,0.0234L22.7441,62.5586z"/>
	<path fill="#535353" d="M213.9219,50.5352l-50.3132-29.0488c0.2229-1.1294,0.3523-2.2925,0.3523-3.4863c0-9.9258-8.0742-18-18-18
		s-18,8.0742-18,18s8.0742,18,18,18c5.8584,0,11.021-2.8555,14.3101-7.2017l47.6509,27.5103v55.3828l-47.9609,27.6895L112,111.6914
		V54c0-1.3818-0.7444-2.54-1.8101-3.2588c-0.093-0.0649-0.1687-0.1484-0.2681-0.2061l-0.262-0.1514
		c-0.0464-0.021-0.0825-0.0552-0.1296-0.0747L57.9609,20.5352c-1.2383-0.7148-2.7617-0.7148-4,0L2,50.5352
		C0.7617,51.25,0,52.5703,0,54v60c0,1.4297,0.7617,2.75,2,3.4648l50,28.8682V206c0,1.4297,0.7617,2.75,2,3.4648l51.9609,30
		c0.6191,0.3574,1.3086,0.5352,2,0.5352s1.3809-0.1777,2-0.5352l48.3091-27.8916c3.1543,2.7207,7.208,4.4268,11.6909,4.4268
		c9.9258,0,18-8.0742,18-18s-8.0742-18-18-18s-18,8.0742-18,18c0,2.5303,0.5359,4.9341,1.4824,7.1211l-45.4824,26.2598L60,203.6914
		v-57.4038l47.9609-27.6909l50,28.8682c0.6191,0.3574,1.3086,0.5352,2,0.5352s1.3809-0.1777,2-0.5352l51.9609-30
		c1.2383-0.7148,2-2.0352,2-3.4648V54C215.9219,52.5703,215.1602,51.25,213.9219,50.5352z M145.9609,28c-5.5137,0-10-4.4863-10-10
		s4.4863-10,10-10s10,4.4863,10,10S151.4746,28,145.9609,28z M169.9609,188c5.5137,0,10,4.4863,10,10s-4.4863,10-10,10
		c-2.3035,0-4.4011-0.8145-6.0938-2.1284c-0.0193-0.6392-0.1387-1.2788-0.4805-1.8716c-0.5674-0.9795-1.4893-1.6172-2.5081-1.8711
		c-0.5767-1.2622-0.9177-2.6528-0.9177-4.1289C159.9609,192.4863,164.4473,188,169.9609,188z M103.9219,111.6914l-47.9609,27.6895
		L8,111.6914V56.3086l47.9609-27.6895l47.9609,27.6895V111.6914z"/>
</g>
</svg>
