<?xml version="1.0" encoding="utf-8"?>
<!-- Generator: Adobe Illustrator 19.2.0, SVG Export Plug-In . SVG Version: 6.00 Build 0)  -->
<svg version="1.1" id="chippinpoint" xmlns="http://www.w3.org/2000/svg" xmlns:xlink="http://www.w3.org/1999/xlink" x="0px"
	 y="0px" viewBox="0 0 220 216" enable-background="new 0 0 220 216" xml:space="preserve">
<g>
	<path fill="#D8D8D8" d="M108,60c-19.8496,0-36,16.1484-36,36c0,15.4688,23.7773,44.7305,36,58.1328
		c12.2227-13.4062,36-42.6797,36-58.1328C144,76.1484,127.8496,60,108,60z"/>
	<path fill="#FFFFFF" d="M164.0391,40H160h-8h-24h-8H96h-8H64h-8h-4.0391C45.3652,40,40,45.3672,40,51.9609V64v8v20v8v20v8v20v8
		v8.0391C40,170.6328,45.3652,176,51.9609,176H56h8h24h8h24h8h24h8h4.0391C170.6348,176,176,170.6328,176,164.0391V51.9609
		C176,45.3672,170.6348,40,164.0391,40z M110.8945,162.7617C110.1387,163.5508,109.0938,164,108,164s-2.1387-0.4492-2.8945-1.2383
		C103.4277,161.0039,64,119.4219,64,96c0-24.2617,19.7383-44,44-44s44,19.7383,44,44
		C152,119.4219,112.5723,161.0039,110.8945,162.7617z"/>
	<path fill="#535353" d="M220,72v-8h-36V51.9609C184,40.9531,175.0449,32,164.0391,32H160V0h-8v32h-24V0h-8v32H96V0h-8v32H64V0h-8
		v32h-4.0391C40.9551,32,32,40.9531,32,51.9609V64H0v8h32v20H0v8h32v20H0v8h32v20H0v8h32v8.0391
		C32,175.0469,40.9551,184,51.9609,184H56v32h8v-32h24v32h8v-32h24v32h8v-32h24v32h8v-32h4.0391
		C175.0449,184,184,175.0469,184,164.0391V156h36v-8h-36v-20h36v-8h-36v-20h36v-8h-36V72H220z M176,164.0391
		C176,170.6328,170.6348,176,164.0391,176H160h-8h-24h-8H96h-8H64h-8h-4.0391C45.3652,176,40,170.6328,40,164.0391V156v-8v-20v-8
		v-20v-8V72v-8V51.9609C40,45.3672,45.3652,40,51.9609,40H56h8h24h8h24h8h24h8h4.0391C170.6348,40,176,45.3672,176,51.9609V164.0391
		z"/>
	<path fill="#535353" d="M108,52c-24.2617,0-44,19.7383-44,44c0,23.4219,39.4277,65.0039,41.1055,66.7617
		C105.8613,163.5508,106.9062,164,108,164s2.1387-0.4492,2.8945-1.2383C112.5723,161.0039,152,119.4219,152,96
		C152,71.7383,132.2617,52,108,52z M108,154.1328C95.7773,140.7305,72,111.4688,72,96c0-19.8516,16.1504-36,36-36s36,16.1484,36,36
		C144,111.4531,120.2227,140.7266,108,154.1328z"/>
</g>
</svg>
