<?xml version="1.0" encoding="utf-8"?>
<!-- Generator: Adobe Illustrator 19.2.0, SVG Export Plug-In . SVG Version: 6.00 Build 0)  -->
<svg version="1.1" id="chipboard" xmlns="http://www.w3.org/2000/svg" xmlns:xlink="http://www.w3.org/1999/xlink" x="0px" y="0px"
	 viewBox="0 0 232 232" enable-background="new 0 0 232 232" xml:space="preserve">
<g>
	<circle fill="#FFFFFF" cx="160" cy="12" r="4"/>
	<circle fill="#FFFFFF" cx="72" cy="12" r="4"/>
	<circle fill="#FFFFFF" cx="12" cy="160" r="4"/>
	<circle fill="#FFFFFF" cx="72" cy="220" r="4"/>
	<circle fill="#FFFFFF" cx="12" cy="72" r="4"/>
	<circle fill="#FFFFFF" cx="220" cy="72" r="4"/>
	<path fill="#FFFFFF" d="M76,76v80h80V76H76z M148,144c0,2.2109-1.791,4-4,4H88c-2.209,0-4-1.7891-4-4V88c0-2.2109,1.791-4,4-4h56
		c2.209,0,4,1.7891,4,4V144z"/>
	<circle fill="#FFFFFF" cx="220" cy="160" r="4"/>
	<circle fill="#FFFFFF" cx="160" cy="220" r="4"/>
	<rect x="92" y="92" fill="#D8D8D8" width="48" height="48"/>
	<path fill="#535353" d="M144,84H88c-2.209,0-4,1.7891-4,4v56c0,2.2109,1.791,4,4,4h56c2.209,0,4-1.7891,4-4V88
		C148,85.7891,146.209,84,144,84z M140,140H92V92h48V140z"/>
	<path fill="#535353" d="M220,148c-5.2078,0-9.6064,3.354-11.2629,8H164V76h44.7373c1.6565,4.646,6.0549,8,11.2627,8
		c6.6172,0,12-5.3828,12-12s-5.3828-12-12-12c-5.2078,0-9.6064,3.354-11.2629,8H164V23.2629c4.646-1.6565,8-6.0552,8-11.2629
		c0-6.6172-5.3828-12-12-12s-12,5.3828-12,12c0,5.2078,3.354,9.6062,8,11.2627V68H76V23.2629c4.646-1.6565,8-6.0552,8-11.2629
		c0-6.6172-5.3828-12-12-12S60,5.3828,60,12c0,5.2078,3.354,9.6062,8,11.2627V68H23.2629C21.6064,63.354,17.2078,60,12,60
		C5.3828,60,0,65.3828,0,72s5.3828,12,12,12c5.2078,0,9.6064-3.354,11.2629-8H68v80H23.2629c-1.6565-4.646-6.0552-8-11.2629-8
		c-6.6172,0-12,5.3828-12,12s5.3828,12,12,12c5.2078,0,9.6064-3.354,11.2629-8H68v44.7371c-4.646,1.6565-8,6.0552-8,11.2629
		c0,6.6172,5.3828,12,12,12s12-5.3828,12-12c0-5.2078-3.354-9.6064-8-11.2629V164h80v44.7371c-4.646,1.6565-8,6.0552-8,11.2629
		c0,6.6172,5.3828,12,12,12s12-5.3828,12-12c0-5.2078-3.354-9.6064-8-11.2629V164h44.7373c1.6565,4.646,6.0549,8,11.2627,8
		c6.6172,0,12-5.3828,12-12S226.6172,148,220,148z M12,76c-2.2051,0-4-1.793-4-4s1.7949-4,4-4s4,1.793,4,4S14.2051,76,12,76z
		 M220,68c2.2051,0,4,1.793,4,4s-1.7949,4-4,4s-4-1.793-4-4S217.7949,68,220,68z M160,8c2.2051,0,4,1.793,4,4s-1.7949,4-4,4
		s-4-1.793-4-4S157.7949,8,160,8z M72,8c2.2051,0,4,1.793,4,4s-1.7949,4-4,4s-4-1.793-4-4S69.7949,8,72,8z M12,164
		c-2.2051,0-4-1.793-4-4s1.7949-4,4-4s4,1.793,4,4S14.2051,164,12,164z M72,224c-2.2051,0-4-1.793-4-4s1.7949-4,4-4s4,1.793,4,4
		S74.2051,224,72,224z M76,156V76h80v80H76z M160,224c-2.2051,0-4-1.793-4-4s1.7949-4,4-4s4,1.793,4,4S162.2051,224,160,224z
		 M220,164c-2.2051,0-4-1.793-4-4s1.7949-4,4-4s4,1.793,4,4S222.2051,164,220,164z"/>
</g>
</svg>
