<?xml version="1.0" encoding="utf-8"?>
<!-- Generator: Adobe Illustrator 19.2.0, SVG Export Plug-In . SVG Version: 6.00 Build 0)  -->
<svg version="1.1" id="circlesradiant" xmlns="http://www.w3.org/2000/svg" xmlns:xlink="http://www.w3.org/1999/xlink" x="0px"
	 y="0px" viewBox="0 0 224 200" enable-background="new 0 0 224 200" xml:space="preserve">
<g>
	<path fill="#FFFFFF" d="M112,112c8.8242,0,16-7.1758,16-16s-7.1758-16-16-16s-16,7.1758-16,16S103.1758,112,112,112z"/>
	<path fill="#D8D8D8" d="M60,68c4.4102,0,8-3.5898,8-8s-3.5898-8-8-8s-8,3.5898-8,8S55.5898,68,60,68z"/>
	<path fill="#D8D8D8" d="M112,56c4.4102,0,8-3.5898,8-8s-3.5898-8-8-8s-8,3.5898-8,8S107.5898,56,112,56z"/>
	<path fill="#D8D8D8" d="M16,80c-4.4102,0-8,3.5898-8,8s3.5898,8,8,8s8-3.5898,8-8S20.4102,80,16,80z"/>
	<path fill="#D8D8D8" d="M164,68c4.4102,0,8-3.5898,8-8s-3.5898-8-8-8s-8,3.5898-8,8S159.5898,68,164,68z"/>
	<circle fill="#D8D8D8" cx="112" cy="12" r="4"/>
	<circle fill="#D8D8D8" cx="184" cy="28" r="4"/>
	<circle fill="#D8D8D8" cx="36" cy="28" r="4"/>
	<path fill="#FFFFFF" d="M52,104c-8.8242,0-16,7.1758-16,16s7.1758,16,16,16s16-7.1758,16-16S60.8242,104,52,104z"/>
	<path fill="#FFFFFF" d="M172,104c-8.8242,0-16,7.1758-16,16s7.1758,16,16,16s16-7.1758,16-16S180.8242,104,172,104z"/>
	<path fill="#D8D8D8" d="M112,136c-15.4375,0-28,12.5625-28,28s12.5625,28,28,28s28-12.5625,28-28S127.4375,136,112,136z"/>
	<path fill="#D8D8D8" d="M208,80c-4.4102,0-8,3.5898-8,8s3.5898,8,8,8s8-3.5898,8-8S212.4102,80,208,80z"/>
	<path fill="#535353" d="M112,128c-19.8516,0-36,16.1484-36,36s16.1484,36,36,36s36-16.1484,36-36S131.8516,128,112,128z M112,192
		c-15.4375,0-28-12.5625-28-28s12.5625-28,28-28s28,12.5625,28,28S127.4375,192,112,192z"/>
	<path fill="#535353" d="M112,120c13.2344,0,24-10.7656,24-24s-10.7656-24-24-24S88,82.7656,88,96S98.7656,120,112,120z M112,80
		c8.8242,0,16,7.1758,16,16s-7.1758,16-16,16s-16-7.1758-16-16S103.1758,80,112,80z"/>
	<path fill="#535353" d="M172,96c-13.2344,0-24,10.7656-24,24s10.7656,24,24,24s24-10.7656,24-24S185.2344,96,172,96z M172,136
		c-8.8242,0-16-7.1758-16-16s7.1758-16,16-16s16,7.1758,16,16S180.8242,136,172,136z"/>
	<path fill="#535353" d="M52,96c-13.2344,0-24,10.7656-24,24s10.7656,24,24,24s24-10.7656,24-24S65.2344,96,52,96z M52,136
		c-8.8242,0-16-7.1758-16-16s7.1758-16,16-16s16,7.1758,16,16S60.8242,136,52,136z"/>
	<path fill="#535353" d="M112,64c8.8242,0,16-7.1758,16-16s-7.1758-16-16-16s-16,7.1758-16,16S103.1758,64,112,64z M112,40
		c4.4102,0,8,3.5898,8,8s-3.5898,8-8,8s-8-3.5898-8-8S107.5898,40,112,40z"/>
	<path fill="#535353" d="M164,76c8.8242,0,16-7.1758,16-16s-7.1758-16-16-16s-16,7.1758-16,16S155.1758,76,164,76z M164,52
		c4.4102,0,8,3.5898,8,8s-3.5898,8-8,8s-8-3.5898-8-8S159.5898,52,164,52z"/>
	<path fill="#535353" d="M60,76c8.8242,0,16-7.1758,16-16s-7.1758-16-16-16s-16,7.1758-16,16S51.1758,76,60,76z M60,52
		c4.4102,0,8,3.5898,8,8s-3.5898,8-8,8s-8-3.5898-8-8S55.5898,52,60,52z"/>
	<path fill="#535353" d="M112,24c6.6172,0,12-5.3828,12-12s-5.3828-12-12-12s-12,5.3828-12,12S105.3828,24,112,24z M112,8
		c2.207,0,4,1.793,4,4s-1.793,4-4,4s-4-1.793-4-4S109.793,8,112,8z"/>
	<path fill="#535353" d="M36,40c6.6172,0,12-5.3828,12-12s-5.3828-12-12-12s-12,5.3828-12,12S29.3828,40,36,40z M36,24
		c2.207,0,4,1.793,4,4s-1.793,4-4,4s-4-1.793-4-4S33.793,24,36,24z"/>
	<path fill="#535353" d="M184,40c6.6172,0,12-5.3828,12-12s-5.3828-12-12-12s-12,5.3828-12,12S177.3828,40,184,40z M184,24
		c2.207,0,4,1.793,4,4s-1.793,4-4,4s-4-1.793-4-4S181.793,24,184,24z"/>
	<path fill="#535353" d="M208,72c-8.8242,0-16,7.1758-16,16s7.1758,16,16,16s16-7.1758,16-16S216.8242,72,208,72z M208,96
		c-4.4102,0-8-3.5898-8-8s3.5898-8,8-8s8,3.5898,8,8S212.4102,96,208,96z"/>
	<path fill="#535353" d="M16,72C7.1758,72,0,79.1758,0,88s7.1758,16,16,16s16-7.1758,16-16S24.8242,72,16,72z M16,96
		c-4.4102,0-8-3.5898-8-8s3.5898-8,8-8s8,3.5898,8,8S20.4102,96,16,96z"/>
</g>
</svg>
