<?xml version="1.0" encoding="utf-8"?>
<!-- Generator: Adobe Illustrator 19.2.0, SVG Export Plug-In . SVG Version: 6.00 Build 0)  -->
<svg version="1.1" id="circlehalf" xmlns="http://www.w3.org/2000/svg" xmlns:xlink="http://www.w3.org/1999/xlink" x="0px" y="0px"
	 viewBox="0 0 216 216" enable-background="new 0 0 216 216" xml:space="preserve">
<g>
	<path fill="#D8D8D8" d="M108,8C52.8594,8,8,52.8594,8,108s44.8594,100,100,100s100-44.8594,100-100S163.1406,8,108,8z M28,132.168
		c0,2.2109-1.791,4-4,4s-4-1.7891-4-4V84c0-2.2109,1.791-4,4-4s4,1.7891,4,4V132.168z M44,168.168c0,2.2109-1.791,4-4,4
		s-4-1.7891-4-4V120c0-2.2109,1.791-4,4-4s4,1.7891,4,4V168.168z M44,104.168c0,2.2109-1.791,4-4,4s-4-1.7891-4-4V56
		c0-2.2109,1.791-4,4-4s4,1.7891,4,4V104.168z M60,180c0,2.2109-1.791,4-4,4s-4-1.7891-4-4v-76c0-2.2109,1.791-4,4-4s4,1.7891,4,4
		V180z M60,88.168c0,2.2109-1.791,4-4,4s-4-1.7891-4-4V40c0-2.2109,1.791-4,4-4s4,1.7891,4,4V88.168z M76,188c0,2.2109-1.791,4-4,4
		s-4-1.7891-4-4v-36c0-2.2109,1.791-4,4-4s4,1.7891,4,4V188z M76,136c0,2.2109-1.791,4-4,4s-4-1.7891-4-4V84c0-2.2109,1.791-4,4-4
		s4,1.7891,4,4V136z M76,68c0,2.2109-1.791,4-4,4s-4-1.7891-4-4V32c0-2.2109,1.791-4,4-4s4,1.7891,4,4V68z M92,196
		c0,2.2109-1.791,4-4,4s-4-1.7891-4-4v-76c0-2.2109,1.791-4,4-4s4,1.7891,4,4V196z M92,104c0,2.2109-1.791,4-4,4s-4-1.7891-4-4V88
		c0-2.2109,1.791-4,4-4s4,1.7891,4,4V104z M92,72c0,2.2109-1.791,4-4,4s-4-1.7891-4-4V24c0-2.2109,1.791-4,4-4s4,1.7891,4,4V72z
		 M108,196c0,2.2109-1.791,4-4,4s-4-1.7891-4-4v-28c0-2.2109,1.791-4,4-4s4,1.7891,4,4V196z M108,152c0,2.2109-1.791,4-4,4
		s-4-1.7891-4-4v-28c0-2.2109,1.791-4,4-4s4,1.7891,4,4V152z M108,108c0,2.2109-1.791,4-4,4s-4-1.7891-4-4V20c0-2.2109,1.791-4,4-4
		s4,1.7891,4,4V108z"/>
	<path fill="#535353" d="M24,80c-2.209,0-4,1.7891-4,4v48.168c0,2.2109,1.791,4,4,4s4-1.7891,4-4V84C28,81.7891,26.209,80,24,80z"/>
	<path fill="#535353" d="M40,52c-2.209,0-4,1.7891-4,4v48.168c0,2.2109,1.791,4,4,4s4-1.7891,4-4V56C44,53.7891,42.209,52,40,52z"/>
	<path fill="#535353" d="M40,116c-2.209,0-4,1.7891-4,4v48.168c0,2.2109,1.791,4,4,4s4-1.7891,4-4V120
		C44,117.7891,42.209,116,40,116z"/>
	<path fill="#535353" d="M56,36c-2.209,0-4,1.7891-4,4v48.168c0,2.2109,1.791,4,4,4s4-1.7891,4-4V40C60,37.7891,58.209,36,56,36z"/>
	<path fill="#535353" d="M56,100c-2.209,0-4,1.7891-4,4v76c0,2.2109,1.791,4,4,4s4-1.7891,4-4v-76C60,101.7891,58.209,100,56,100z"
		/>
	<path fill="#535353" d="M88,116c-2.209,0-4,1.7891-4,4v76c0,2.2109,1.791,4,4,4s4-1.7891,4-4v-76C92,117.7891,90.209,116,88,116z"
		/>
	<path fill="#535353" d="M104,120c-2.209,0-4,1.7891-4,4v28c0,2.2109,1.791,4,4,4s4-1.7891,4-4v-28
		C108,121.7891,106.209,120,104,120z"/>
	<path fill="#535353" d="M104,16c-2.209,0-4,1.7891-4,4v88c0,2.2109,1.791,4,4,4s4-1.7891,4-4V20C108,17.7891,106.209,16,104,16z"/>
	<path fill="#535353" d="M104,164c-2.209,0-4,1.7891-4,4v28c0,2.2109,1.791,4,4,4s4-1.7891,4-4v-28
		C108,165.7891,106.209,164,104,164z"/>
	<path fill="#535353" d="M72,80c-2.209,0-4,1.7891-4,4v52c0,2.2109,1.791,4,4,4s4-1.7891,4-4V84C76,81.7891,74.209,80,72,80z"/>
	<path fill="#535353" d="M88,84c-2.209,0-4,1.7891-4,4v16c0,2.2109,1.791,4,4,4s4-1.7891,4-4V88C92,85.7891,90.209,84,88,84z"/>
	<path fill="#535353" d="M88,20c-2.209,0-4,1.7891-4,4v48c0,2.2109,1.791,4,4,4s4-1.7891,4-4V24C92,21.7891,90.209,20,88,20z"/>
	<path fill="#535353" d="M72,148c-2.209,0-4,1.7891-4,4v36c0,2.2109,1.791,4,4,4s4-1.7891,4-4v-36C76,149.7891,74.209,148,72,148z"
		/>
	<path fill="#535353" d="M72,28c-2.209,0-4,1.7891-4,4v36c0,2.2109,1.791,4,4,4s4-1.7891,4-4V32C76,29.7891,74.209,28,72,28z"/>
	<path fill="#535353" d="M108,0C48.4492,0,0,48.4492,0,108s48.4492,108,108,108s108-48.4492,108-108S167.5508,0,108,0z M108,208
		C52.8594,208,8,163.1406,8,108S52.8594,8,108,8s100,44.8594,100,100S163.1406,208,108,208z"/>
</g>
</svg>
