<?xml version="1.0" encoding="utf-8"?>
<!-- Generator: Adobe Illustrator 19.2.0, SVG Export Plug-In . SVG Version: 6.00 Build 0)  -->
<svg version="1.1" id="cloudorganism" xmlns="http://www.w3.org/2000/svg" xmlns:xlink="http://www.w3.org/1999/xlink" x="0px"
	 y="0px" viewBox="0 0 228 212" enable-background="new 0 0 228 212" xml:space="preserve">
<g>
	<path fill="#D8D8D8" d="M198.4062,85.1914c-1.9629-0.5723-3.1797-2.5332-2.8184-4.5449C195.8613,79.1211,196,77.5586,196,76
		c0-13.2344-9.8691-24-22-24c-0.9316,0-1.8496,0.0645-2.75,0.1855c-1.9258,0.2637-3.7051-0.8613-4.3242-2.668
		C164.1582,41.4316,156.5527,36,148,36c-0.4746,0-0.9434,0.0156-1.4102,0.0488c-1.418,0.0859-2.7461-0.5449-3.5508-1.6895
		c-0.8066-1.1465-0.9531-2.6309-0.3887-3.9141C143.5449,28.4121,144,26.2441,144,24c0-8.8223-7.1777-16-16-16
		c-4.2148,0-8.1914,1.625-11.1992,4.5723c-1.5547,1.5273-4.0469,1.5273-5.6016,0C108.1914,9.625,104.2148,8,100,8
		c-8.8223,0-16,7.1777-16,16c0,2.459,0.541,4.8164,1.6094,7.0059c0.6855,1.4023,0.4922,3.0742-0.4961,4.2832
		c-0.9844,1.207-2.5801,1.7305-4.0977,1.3438C79.3887,36.2129,77.7012,36,76,36c-8.4688,0-16.0488,5.3613-18.8652,13.3398
		c-0.5508,1.5625-2.0098,2.623-3.668,2.666C41.6309,52.3145,32,63.0781,32,76c0,1.5586,0.1387,3.1211,0.4121,4.6465
		c0.3613,2.0117-0.8555,3.9727-2.8184,4.5449C16.8789,88.8945,8,100.7422,8,114c0,16.2383,13.2031,29.6934,29.4297,29.9941
		c1.416,0.0273,2.7129,0.8008,3.4102,2.0352c0.6953,1.2324,0.6875,2.7422-0.0234,3.9688C37.666,155.4434,36,161.668,36,168
		c0,19.8496,16.1504,36,36,36c10.541,0,20.5195-4.6016,27.377-12.623c1.084-1.2656,2.8398-1.7246,4.4023-1.1621
		c6.543,2.3711,13.8984,2.3711,20.4414,0c0.4453-0.1602,0.9043-0.2383,1.3613-0.2383c1.1465,0,2.2656,0.4941,3.041,1.4004
		C135.4805,199.3984,145.459,204,156,204c19.8496,0,36-16.1504,36-36c0-6.332-1.666-12.5566-4.8164-18.002
		c-0.7109-1.2266-0.7188-2.7363-0.0234-3.9688c0.6973-1.2344,1.9941-2.0078,3.4102-2.0352C206.7969,143.6934,220,130.2383,220,114
		C220,100.7422,211.1211,88.8945,198.4062,85.1914z M128.2949,39.7793c4.6895,16.7266,16.623,22.4297,32.9727,28.6582
		l-2.8477,7.4766c-17.3379-6.6055-32.1504-13.7227-37.8281-33.9746L128.2949,39.7793z M99.7051,39.7793l7.7031,2.1602
		c-5.6777,20.252-20.4902,27.3691-37.8281,33.9746l-2.8477-7.4766C83.082,62.209,95.0156,56.5059,99.7051,39.7793z
		 M57.3379,105.0723c-0.6431,3.3525-1.1436,6.396-1.552,9.1494l0.1321,0.2373l-0.1855,0.1035
		c-1.3127,8.9473-1.52,14.3916-1.5215,14.4629l-0.1367,3.9961l-7.9922-0.2676l0.1328-3.9961
		c0.0083-0.2432,0.1492-3.9131,0.895-10.0967c-3.397,1.1694-8.1541,2.3525-13.6216,2.3525c-2.9551,0-6.1055-0.3457-9.3418-1.2266
		l-3.8594-1.0508l2.1016-7.7188l3.8594,1.0508c11.1113,3.0312,21.2139-2.0889,22.1838-2.5996
		c0.3088-1.8662,0.6509-3.8203,1.0505-5.9043c2.7949-14.5527,17.8242-17.8066,25.4473-17.4922l3.9961,0.166l-0.332,7.9922
		l-3.9844-0.166C74.0078,94.0605,59.5273,93.6699,57.3379,105.0723z M87.3418,157.2168
		c-8.2988,12.7539-14.3809,20.1328-14.6367,20.4395l-2.5488,3.0801l-6.1621-5.0996l2.5488-3.082
		c0.0605-0.0723,6.0684-7.3672,14.0938-19.7012c5.8691-9.0176-0.2129-14.5938-1.4922-15.6191l-3.0918-2.4805l4.8789-6.252
		l3.1348,2.4258C88.7559,134.5566,95.4766,144.7207,87.3418,157.2168z M89.4297,107.6289l-0.9785-3.8789l7.7578-1.957l0.9746,3.8652
		c0.0664,0.248,2.6289,9.4473,10.9199,12.834l3.7031,1.5117l-3.0234,7.4062l-3.7031-1.5117
		C92.9121,120.9297,89.5664,108.1699,89.4297,107.6289z M123.5293,171.3242c-4.5762-5.4668-6.2871-7.5137-16.4434-0.3828
		l-4.5957-6.5469c13.6719-9.5957,19.8789-6.9199,27.1719,1.793L123.5293,171.3242z M122.9199,125.8984l-3.7031,1.5117
		l-3.0234-7.4062l3.7031-1.5117c8.4648-3.457,10.8926-12.7266,10.916-12.8203l0.9785-3.8789l7.7578,1.957l-0.9785,3.8789
		C138.4336,108.1699,135.0879,120.9297,122.9199,125.8984z M157.8457,180.7383l-2.5508-3.082
		c-0.2559-0.3066-6.3379-7.6855-14.6387-20.4395c-8.1328-12.4961-1.4121-22.6602,3.2773-26.2891l3.1641-2.4473l4.8945,6.3281
		l-3.1445,2.4336c-1.2988,1.043-7.3418,6.6133-1.4863,15.6113c8.0527,12.373,14.0352,19.6289,14.0938,19.7012l2.5527,3.0801
		L157.8457,180.7383z M203.8535,119.7871c-3.2363,0.8809-6.3887,1.2266-9.3418,1.2266c-5.4683,0-10.2249-1.1826-13.6216-2.3521
		c0.7458,6.1831,0.8867,9.853,0.895,10.0962l0.1328,3.9961l-7.9922,0.2676l-0.1367-3.9961
		c-0.0015-0.0713-0.2087-5.5156-1.5215-14.4629l-0.1855-0.1035l0.1321-0.2373c-0.4084-2.7534-0.9089-5.7969-1.552-9.1494
		c-2.209-11.498-17.123-11.0195-17.2598-11.0078l-3.9961,0.166l-0.332-7.9922l3.9961-0.166
		c7.6484-0.3125,22.6543,2.9375,25.4473,17.4922c0.3997,2.084,0.7417,4.0371,1.0503,5.9023
		c1.0425,0.5405,11.2085,5.5889,22.1841,2.6016l3.8594-1.0508l2.1016,7.7188L203.8535,119.7871z"/>
	<path fill="#535353" d="M228,114c0-15.6367-9.7539-29.7227-24.0996-35.375C203.9668,77.75,204,76.875,204,76
		c0.002-17.8887-13.959-32.4316-30.6895-31.9922c-4.0723-8.6016-12.2617-14.5469-21.6816-15.7734
		C151.875,26.8477,152,25.4336,152,24c0-13.2344-10.7656-24-24-24c-5.0879,0-9.9453,1.5781-14,4.5c-4.0547-2.9219-8.9121-4.5-14-4.5
		C86.7656,0,76,10.7656,76,24c0,1.3555,0.1094,2.6914,0.3301,4.002c-11.2168-0.1523-21.1348,6.3086-25.7285,16.1973
		C35.4844,45.9824,24,59.4453,24,76c0,0.875,0.0332,1.75,0.0996,2.625C9.7539,84.2773,0,98.3633,0,114
		c0,18.5117,13.5488,34.1699,31.2461,37.3926C29.1113,156.6387,28,162.2852,28,168c0,24.2617,19.7383,44,44,44
		c11.9824,0,23.3691-4.8633,31.6445-13.4297c6.7148,1.8984,13.9961,1.8984,20.7109,0C132.6309,207.1367,144.0176,212,156,212
		c24.2617,0,44-19.7383,44-44c0-5.7148-1.1113-11.3613-3.2461-16.6074C214.4512,148.1699,228,132.5117,228,114z M190.5703,143.9941
		c-1.416,0.0273-2.7129,0.8008-3.4102,2.0352c-0.6953,1.2324-0.6875,2.7422,0.0234,3.9688C190.334,155.4434,192,161.668,192,168
		c0,19.8496-16.1504,36-36,36c-10.541,0-20.5195-4.6016-27.377-12.623c-0.7754-0.9062-1.8945-1.4004-3.041-1.4004
		c-0.457,0-0.916,0.0781-1.3613,0.2383c-6.543,2.3711-13.8984,2.3711-20.4414,0c-1.5625-0.5625-3.3184-0.1035-4.4023,1.1621
		C92.5195,199.3984,82.541,204,72,204c-19.8496,0-36-16.1504-36-36c0-6.332,1.666-12.5566,4.8164-18.002
		c0.7109-1.2266,0.7188-2.7363,0.0234-3.9688c-0.6973-1.2344-1.9941-2.0078-3.4102-2.0352C21.2031,143.6934,8,130.2383,8,114
		c0-13.2578,8.8789-25.1055,21.5938-28.8086c1.9629-0.5723,3.1797-2.5332,2.8184-4.5449C32.1387,79.1211,32,77.5586,32,76
		c0-12.9219,9.6309-23.6855,21.4668-23.9941c1.6582-0.043,3.1172-1.1035,3.668-2.666C59.9512,41.3613,67.5312,36,76,36
		c1.7012,0,3.3887,0.2129,5.0156,0.6328c1.5176,0.3867,3.1133-0.1367,4.0977-1.3438c0.9883-1.209,1.1816-2.8809,0.4961-4.2832
		C84.541,28.8164,84,26.459,84,24c0-8.8223,7.1777-16,16-16c4.2148,0,8.1914,1.625,11.1992,4.5723
		c1.5547,1.5273,4.0469,1.5273,5.6016,0C119.8086,9.625,123.7852,8,128,8c8.8223,0,16,7.1777,16,16
		c0,2.2441-0.4551,4.4121-1.3496,6.4453c-0.5645,1.2832-0.418,2.7676,0.3887,3.9141c0.8047,1.1445,2.1328,1.7754,3.5508,1.6895
		C147.0566,36.0156,147.5254,36,148,36c8.5527,0,16.1582,5.4316,18.9258,13.5176c0.6191,1.8066,2.3984,2.9316,4.3242,2.668
		C172.1504,52.0645,173.0684,52,174,52c12.1309,0,22,10.7656,22,24c0,1.5586-0.1387,3.1211-0.4121,4.6465
		c-0.3613,2.0117,0.8555,3.9727,2.8184,4.5449C211.1211,88.8945,220,100.7422,220,114
		C220,130.2383,206.7969,143.6934,190.5703,143.9941z"/>
	<path fill="#535353" d="M74.6094,94.0645l3.9844,0.166l0.332-7.9922l-3.9961-0.166c-7.623-0.3145-22.6523,2.9395-25.4473,17.4922
		c-0.3997,2.084-0.7417,4.0381-1.0505,5.9043c-0.97,0.5107-11.0725,5.6309-22.1838,2.5996l-3.8594-1.0508l-2.1016,7.7188
		l3.8594,1.0508c3.2363,0.8809,6.3867,1.2266,9.3418,1.2266c5.4675,0,10.2246-1.1831,13.6216-2.3525
		c-0.7458,6.1836-0.8867,9.8535-0.895,10.0967l-0.1328,3.9961l7.9922,0.2676l0.1367-3.9961
		c0.0015-0.0713,0.2087-5.5156,1.5215-14.4629l0.1855-0.1035l-0.1321-0.2373c0.4084-2.7534,0.9089-5.7969,1.552-9.1494
		C59.5273,93.6699,74.0078,94.0605,74.6094,94.0645z"/>
	<path fill="#535353" d="M84.0664,130.9277l-3.1348-2.4258l-4.8789,6.252l3.0918,2.4805c1.2793,1.0254,7.3613,6.6016,1.4922,15.6191
		c-8.0254,12.334-14.0332,19.6289-14.0938,19.7012l-2.5488,3.082l6.1621,5.0996l2.5488-3.0801
		c0.2559-0.3066,6.3379-7.6855,14.6367-20.4395C95.4766,144.7207,88.7559,134.5566,84.0664,130.9277z"/>
	<path fill="#535353" d="M108.7832,127.4102l3.0234-7.4062l-3.7031-1.5117c-8.291-3.3867-10.8535-12.5859-10.9199-12.834
		l-0.9746-3.8652l-7.7578,1.957l0.9785,3.8789c0.1367,0.541,3.4824,13.3008,15.6504,18.2695L108.7832,127.4102z"/>
	<path fill="#535353" d="M107.4082,41.9395l-7.7031-2.1602C95.0156,56.5059,83.082,62.209,66.7324,68.4375l2.8477,7.4766
		C86.918,69.3086,101.7305,62.1914,107.4082,41.9395z"/>
	<path fill="#535353" d="M201.752,112.0684c-10.9756,2.9873-21.1416-2.061-22.1841-2.6016
		c-0.3086-1.8652-0.6506-3.8184-1.0503-5.9023c-2.793-14.5547-17.7988-17.8047-25.4473-17.4922l-3.9961,0.166l0.332,7.9922
		l3.9961-0.166c0.1367-0.0117,15.0508-0.4902,17.2598,11.0078c0.6431,3.3525,1.1436,6.396,1.552,9.1494l-0.1321,0.2373
		l0.1855,0.1035c1.3127,8.9473,1.52,14.3916,1.5215,14.4629l0.1367,3.9961l7.9922-0.2676l-0.1328-3.9961
		c-0.0083-0.2432-0.1492-3.9131-0.895-10.0962c3.3967,1.1694,8.1533,2.3521,13.6216,2.3521c2.9531,0,6.1055-0.3457,9.3418-1.2266
		l3.8594-1.0508l-2.1016-7.7188L201.752,112.0684z"/>
	<path fill="#535353" d="M147.3613,152.8535c-5.8555-8.998,0.1875-14.5684,1.4863-15.6113l3.1445-2.4336l-4.8945-6.3281
		l-3.1641,2.4473c-4.6895,3.6289-11.4102,13.793-3.2773,26.2891c8.3008,12.7539,14.3828,20.1328,14.6387,20.4395l2.5508,3.082
		l6.1621-5.1035l-2.5527-3.0801C161.3965,172.4824,155.4141,165.2266,147.3613,152.8535z"/>
	<path fill="#535353" d="M139.5488,103.75l-7.7578-1.957l-0.9785,3.8789c-0.0234,0.0938-2.4512,9.3633-10.916,12.8203
		l-3.7031,1.5117l3.0234,7.4062l3.7031-1.5117c12.168-4.9688,15.5137-17.7285,15.6504-18.2695L139.5488,103.75z"/>
	<path fill="#535353" d="M158.4199,75.9141l2.8477-7.4766c-16.3496-6.2285-28.2832-11.9316-32.9727-28.6582l-7.7031,2.1602
		C126.2695,62.1914,141.082,69.3086,158.4199,75.9141z"/>
	<path fill="#535353" d="M102.4902,164.3945l4.5957,6.5469c10.1562-7.1309,11.8672-5.084,16.4434,0.3828l6.1328-5.1367
		C122.3691,157.4746,116.1621,154.7988,102.4902,164.3945z"/>
</g>
</svg>
