<?xml version="1.0" encoding="utf-8"?>
<!-- Generator: Adobe Illustrator 19.2.0, SVG Export Plug-In . SVG Version: 6.00 Build 0)  -->
<svg version="1.1" id="cube" xmlns="http://www.w3.org/2000/svg" xmlns:xlink="http://www.w3.org/1999/xlink" x="0px" y="0px"
	 viewBox="0 0 212.0397 212" enable-background="new 0 0 212.0397 212" xml:space="preserve">
<g>
	<polygon fill="#FFFFFF" points="68.0397,8 68.0397,60 146.2187,60 198.3644,8 	"/>
	<polygon fill="#FFFFFF" points="60.0397,60 60.0397,13.6372 13.547,60 	"/>
	<polygon fill="#D8D8D8" points="60.0397,68 8.0397,68 8.0397,198.1953 60.0397,146.3408 	"/>
	<rect x="68.0397" y="68" fill="#D8D8D8" width="76" height="76"/>
	<polygon fill="#FFFFFF" points="152.0397,144 204.0397,144 204.0397,13.6372 152.0397,65.4922 	"/>
	<polygon fill="#D8D8D8" points="144.0397,152 65.6928,152 13.547,204 144.0397,204 	"/>
	<polygon fill="#FFFFFF" points="152.0397,152 152.0397,198.1953 198.3644,152 	"/>
	<path fill="#535353" d="M212.0107,3.8564c-0.0176-0.4702-0.0962-0.9385-0.2783-1.3799c-0.2002-0.4854-0.4897-0.9229-0.8533-1.29
		c-0.0032-0.0029-0.0042-0.0078-0.0073-0.0107h-0.0002c-0.3684-0.3696-0.8101-0.6631-1.2996-0.8662
		c-0.4888-0.2031-1.0076-0.3086-1.5288-0.3086L208.0397,0h-144c-0.0535,0-0.0979,0.0283-0.1509,0.0303
		c-0.4678,0.0186-0.9338,0.0962-1.3735,0.2773c-0.4775,0.1973-0.9065,0.4844-1.2698,0.8408c-0.009,0.0088-0.0212,0.0107-0.03,0.0195
		l-0.0012,0.001c-0.0022,0.0024-0.0039,0.0039-0.0061,0.0063L1.1139,61.1016c-0.9197,0.915-1.2327,2.1572-1.0742,3.3506v142.957
		c-0.1592,1.1909,0.1528,2.4316,1.0664,3.3486c0.0305,0.0303,0.072,0.0396,0.1033,0.0688C1.9333,211.5518,2.9335,212,4.0397,212h144
		c1.3293,0,2.449-0.6904,3.1763-1.6865l59.6479-59.4814l0.0005-0.001c0.3691-0.3682,0.6628-0.8096,0.8662-1.2983
		c0.2029-0.4888,0.3083-1.0083,0.3086-1.5298c0-0.001,0.0005-0.002,0.0005-0.002V4C212.0397,3.9492,212.0126,3.9067,212.0107,3.8564
		z M68.0397,68h76v76h-76V68z M146.2187,60H68.0397V8h130.3247L146.2187,60z M60.0397,60H13.547l46.4927-46.3628V60z M8.0397,68h52
		v78.3408l-52,51.8545V68z M65.6928,152h78.3469v52H13.547L65.6928,152z M152.0397,152h46.3247l-46.3247,46.1953V152z M204.0397,144
		h-52V65.4922l52-51.855V144z"/>
</g>
</svg>
