<?xml version="1.0" encoding="utf-8"?>
<!-- Generator: Adobe Illustrator 19.2.0, SVG Export Plug-In . SVG Version: 6.00 Build 0)  -->
<svg version="1.1" id="dispersion" xmlns="http://www.w3.org/2000/svg" xmlns:xlink="http://www.w3.org/1999/xlink" x="0px" y="0px"
	 viewBox="0 0 212.2852 206.7866" enable-background="new 0 0 212.2852 206.7866" xml:space="preserve">
<g>
	<path fill="#D8D8D8" d="M55.6804,107.3921c-0.7949,5.5159-3.1924,10.5083-6.7195,14.5l26.7324,17.8215
		c6.9431-9.0942,11.3086-20.2231,12.1121-32.3215H55.6804z"/>
	<path fill="#D8D8D8" d="M48.9609,84.8921c3.5271,3.9917,5.9246,8.9841,6.7195,14.5h32.125
		c-0.8035-12.0984-5.1689-23.2273-12.1121-32.3215L48.9609,84.8921z"/>
	<path fill="#D8D8D8" d="M42.5779,79.5329l27.7764-18.5176C60.3738,51.0407,46.946,44.5139,32,43.5249v32.1868
		C35.832,76.2639,39.4084,77.5888,42.5779,79.5329z"/>
	<path fill="#D8D8D8" d="M48,103.3921c0-11.0273-8.9727-20-20-20s-20,8.9727-20,20s8.9727,20,20,20S48,114.4194,48,103.3921z"/>
	<path fill="#D8D8D8" d="M32,131.0725v32.1868c14.946-0.989,28.3738-7.5159,38.3542-17.4905l-27.7764-18.5176
		C39.4084,129.1953,35.832,130.5202,32,131.0725z"/>
	<path fill="#535353" d="M186.8281,77.935c-1.5625-1.5625-4.0938-1.5625-5.6562,0s-1.5625,4.0938,0,5.6562l15.8008,15.8008h-73.0742
		c-0.8037-19.4902-7.4456-37.4902-18.22-52.3118l39.3179-26.2119l-5.2268,20.9495c-0.5312,2.1445,0.7695,4.3164,2.9141,4.8516
		c0.3242,0.0781,0.6523,0.1172,0.9727,0.1172c1.793,0,3.4219-1.2148,3.8789-3.0312l8.707-34.9297l-34.9258-8.7109
		c-2.1445-0.5195-4.3125,0.7734-4.8516,2.9141c-0.5312,2.1445,0.7734,4.3164,2.9141,4.8516l22.3276,5.5666l-41.0171,27.345
		C83.071,20.3625,57.0295,7.392,28,7.392v8c26.2563,0,49.8477,11.573,65.9851,29.8691L77.125,56.5014
		C64.7344,43.5258,47.3157,35.392,28,35.392h-4v40.3196C10.4551,77.6635,0,89.3161,0,103.3921s10.4551,25.7285,24,27.6804v40.3196h4
		c19.3157,0,36.7344-8.1338,49.125-21.1094l16.8601,11.2402C77.8477,179.819,54.2563,191.392,28,191.392v8
		c29.0295,0,55.071-12.9705,72.6895-33.3999l41.0171,27.345l-22.3276,5.5667c-2.1406,0.5352-3.4453,2.707-2.9141,4.8516
		c0.457,1.8164,2.0859,3.0312,3.8789,3.0312c0.3203,0,0.6484-0.0391,0.9727-0.1172l34.9258-8.7109l-8.707-34.9297
		c-0.5391-2.1406-2.7188-3.4375-4.8516-2.9141c-2.1445,0.5352-3.4453,2.707-2.9141,4.8516l5.2268,20.9495l-39.3179-26.2119
		c10.7744-14.8215,17.4163-32.8215,18.22-52.3118h73.0742l-15.8008,15.8008c-1.5625,1.5625-1.5625,4.0938,0,5.6562
		c0.7812,0.7812,1.8047,1.1719,2.8281,1.1719s2.0469-0.3906,2.8281-1.1719l25.457-25.457L186.8281,77.935z M99.0237,51.517
		c9.9238,13.5501,16.0718,30.0249,16.8748,47.875H95.7974c-0.8052-13.7405-5.6851-26.3718-13.4797-36.7378L99.0237,51.517z
		 M48.9609,121.8921c3.5271-3.9917,5.9246-8.9841,6.7195-14.5h32.125c-0.8035,12.0984-5.1689,23.2273-12.1121,32.3215
		L48.9609,121.8921z M55.6804,99.3921c-0.7949-5.5159-3.1924-10.5083-6.7195-14.5l26.7324-17.8215
		c6.9431,9.0942,11.3086,20.2231,12.1121,32.3215H55.6804z M70.3542,61.0153L42.5779,79.5329
		C39.4084,77.5888,35.832,76.2639,32,75.7116V43.5249C46.946,44.5139,60.3738,51.0407,70.3542,61.0153z M8,103.3921
		c0-11.0273,8.9727-20,20-20s20,8.9727,20,20s-8.9727,20-20,20S8,114.4194,8,103.3921z M32,163.2592v-32.1868
		c3.832-0.5522,7.4084-1.8772,10.5779-3.8213l27.7764,18.5176C60.3738,155.7434,46.946,162.2702,32,163.2592z M99.0237,155.267
		l-16.7061-11.1372c7.7947-10.366,12.6746-22.9973,13.4797-36.7378h20.1011C115.0955,125.2421,108.9475,141.717,99.0237,155.267z"/>
</g>
</svg>
