<?xml version="1.0" encoding="utf-8"?>
<!-- Generator: Adobe Illustrator 19.2.0, SVG Export Plug-In . SVG Version: 6.00 Build 0)  -->
<svg version="1.1" id="droplet" xmlns="http://www.w3.org/2000/svg" xmlns:xlink="http://www.w3.org/1999/xlink" x="0px" y="0px"
	 viewBox="0 0 212.1016 223.9492" enable-background="new 0 0 212.1016 223.9492" xml:space="preserve">
<g>
	<path fill="#D8D8D8" d="M140.1016,50.3008c-12.7969,13.6914-64,70.4258-64,101.6484c0,35.2891,28.7109,64,64,64s64-28.7109,64-64
		C204.1016,120.7109,152.9023,63.9883,140.1016,50.3008z M140.1016,199.9492c-26.4688,0-48-21.5332-48-48c0-2.209,1.7891-4,4-4
		s4,1.791,4,4c0,22.0566,17.9453,40,40,40c2.2109,0,4,1.791,4,4S142.3125,199.9492,140.1016,199.9492z"/>
	<path fill="#D8D8D8" d="M40.1016,9.7676C29.0391,21.7285,8,47.3008,8,61.002c0,17.6992,14.4023,32.0996,32.1016,32.0996
		S72.2031,78.7012,72.2031,61.002C72.2031,47.2871,51.168,21.7246,40.1016,9.7676z M36.1016,83.9492c-11.0273,0-20-8.9727-20-20
		c0-2.209,1.7891-4,4-4s4,1.791,4,4c0,6.6172,5.3828,12,12,12c2.2109,0,4,1.791,4,4S38.3125,83.9492,36.1016,83.9492z"/>
	<path fill="#535353" d="M142.9688,41.6953c-1.5078-1.5469-4.2266-1.5469-5.7344,0c-2.8242,2.9023-69.1328,71.5195-69.1328,110.2539
		c0,39.7012,32.3008,72,72,72s72-32.2988,72-72C212.1016,113.2148,145.793,44.5977,142.9688,41.6953z M140.1016,215.9492
		c-35.2891,0-64-28.7109-64-64c0-31.2227,51.2031-87.957,64-101.6484c12.8008,13.6875,64,70.4102,64,101.6484
		C204.1016,187.2383,175.3906,215.9492,140.1016,215.9492z"/>
	<path fill="#535353" d="M80.2031,61.002c0-20.957-33.4219-55.9238-37.2344-59.8418c-1.5078-1.5469-4.2266-1.5469-5.7344,0
		C33.4219,5.0781,0,40.0449,0,61.002c0,22.1113,17.9883,40.0996,40.1016,40.0996S80.2031,83.1133,80.2031,61.002z M40.1016,93.1016
		C22.4023,93.1016,8,78.7012,8,61.002C8,47.3008,29.0391,21.7285,40.1016,9.7676C51.168,21.7246,72.2031,47.2871,72.2031,61.002
		C72.2031,78.7012,57.8008,93.1016,40.1016,93.1016z"/>
	<path fill="#535353" d="M36.1016,75.9492c-6.6172,0-12-5.3828-12-12c0-2.209-1.7891-4-4-4s-4,1.791-4,4c0,11.0273,8.9727,20,20,20
		c2.2109,0,4-1.791,4-4S38.3125,75.9492,36.1016,75.9492z"/>
	<path fill="#535353" d="M140.1016,191.9492c-22.0547,0-40-17.9434-40-40c0-2.209-1.7891-4-4-4s-4,1.791-4,4
		c0,26.4668,21.5312,48,48,48c2.2109,0,4-1.791,4-4S142.3125,191.9492,140.1016,191.9492z"/>
</g>
</svg>
