<?xml version="1.0" encoding="utf-8"?>
<!-- Generator: Adobe Illustrator 19.2.0, SVG Export Plug-In . SVG Version: 6.00 Build 0)  -->
<svg version="1.1" id="drugspills" xmlns="http://www.w3.org/2000/svg" xmlns:xlink="http://www.w3.org/1999/xlink" x="0px" y="0px"
	 viewBox="0 0 224.1506 199.5397" enable-background="new 0 0 224.1506 199.5397" xml:space="preserve">
<g>
	<path fill="#D8D8D8" d="M198.2706,137.2038l-10.5977-16.9609c-3.793-6.0625-10.3242-9.3945-16.9961-9.3945
		c-3.6211,0-7.2812,0.9805-10.5664,3.0312c-9.3516,5.8438-12.2031,18.207-6.3633,27.5586l10.6016,16.9609L198.2706,137.2038z"/>
	<path fill="#D8D8D8" d="M67.4996,45.0761l-7.479-5.0442l-11.1797,16.582c-2.9844,4.418-4.0664,9.7422-3.0469,14.9922
		c1.0156,5.25,4.0156,9.7852,8.4414,12.7695c9.1328,6.1641,21.5977,3.7461,27.7656-5.3984l11.1819-16.5757L67.4996,45.0761z"/>
	<path fill="#D8D8D8" d="M103.4424,11.4225c-4.418-2.9805-9.7266-4.0664-14.9922-3.0469c-5.25,1.0156-9.7852,4.0156-12.7695,8.4414
		L64.4976,33.3984l16.5796,11.1843l16.5801,11.1836l11.1836-16.582c2.9844-4.4219,4.0664-9.7461,3.0469-14.9922
		C110.8682,18.9421,107.8682,14.4069,103.4424,11.4225z"/>
	<path fill="#D8D8D8" d="M202.5089,143.9889l-33.9219,21.1953l10.5938,16.9648c5.8438,9.3398,18.2031,12.2031,27.5625,6.3594
		c4.5234-2.8281,7.6758-7.25,8.8828-12.457c1.2031-5.2109,0.3086-10.5742-2.5195-15.1016L202.5089,143.9889z"/>
	<path fill="#535353" d="M219.8878,156.7077l-12.7148-20.3516l-12.7188-20.3555c-8.1797-13.0859-25.4805-17.0938-38.5859-8.9023
		c-13.0898,8.1797-17.0859,25.4844-8.9023,38.582l12.7188,20.3516c0.0029,0.0046,0.0073,0.0078,0.0103,0.0125l12.7046,20.343
		c5.3047,8.4883,14.4453,13.1523,23.7891,13.1523c5.0664,0,10.1914-1.3711,14.7969-4.25
		c6.332-3.957,10.7461-10.1484,12.4336-17.4375C225.1065,170.5592,223.8526,163.0475,219.8878,156.7077z M160.1104,113.8796
		c3.2852-2.0508,6.9453-3.0312,10.5664-3.0312c6.6719,0,13.2031,3.332,16.9961,9.3945l10.5977,16.9609l-33.9219,21.1953
		l-10.6016-16.9609C147.9073,132.0866,150.7589,119.7233,160.1104,113.8796z M215.626,176.0514
		c-1.207,5.207-4.3594,9.6289-8.8828,12.457c-9.3594,5.8438-21.7188,2.9805-27.5625-6.3594l-10.5938-16.9648l33.9219-21.1953
		l10.5977,16.9609C215.9346,165.4772,216.8292,170.8405,215.626,176.0514z"/>
	<path fill="#535353" d="M119.7393,22.6686c-1.4259-7.3477-5.625-13.6992-11.8203-17.8789
		c-6.1914-4.1758-13.6328-5.6914-20.9922-4.2695c-7.3477,1.4258-13.6992,5.625-17.8789,11.8242L55.626,32.2389l-13.418,19.8984
		c-4.1758,6.1914-5.6914,13.6445-4.2695,20.9922c1.4258,7.3477,5.625,13.6992,11.8203,17.8789
		c4.793,3.2305,10.2305,4.7773,15.6172,4.7773c9.0039,0,17.8555-4.3242,23.2578-12.332l13.418-19.8945l13.4219-19.8984
		C119.6495,37.4655,121.1651,30.0124,119.7393,22.6686z M82.001,78.9772c-6.168,9.1445-18.6328,11.5625-27.7656,5.3984
		c-4.4258-2.9844-7.4258-7.5195-8.4414-12.7695c-1.0195-5.25,0.0625-10.5742,3.0469-14.9922l11.1797-16.582l7.479,5.0442
		l25.6833,17.3254L82.001,78.9772z M108.8409,39.1842l-11.1836,16.582L81.0772,44.5827L64.4976,33.3984l11.1831-16.5813
		c2.9844-4.4258,7.5195-7.4258,12.7695-8.4414c5.2656-1.0195,10.5742,0.0664,14.9922,3.0469
		c4.4258,2.9844,7.4258,7.5195,8.4453,12.7695C112.9073,29.4382,111.8253,34.7624,108.8409,39.1842z"/>
	<path fill="#535353" d="M96.6182,143.4694l-7.7266,2.0703l-2.0703-7.7266c-0.5703-2.1367-2.7578-3.3984-4.8984-2.8281
		c-2.1328,0.5703-3.3984,2.7656-2.8281,4.8984l2.0703,7.7266l-7.7266,2.0703c-2.1328,0.5703-3.3984,2.7656-2.8281,4.8984
		c0.4766,1.7891,2.0938,2.9648,3.8594,2.9648c0.3437,0,0.6914-0.043,1.0391-0.1367l7.7266-2.0703l2.0703,7.7266
		c0.4766,1.7891,2.0938,2.9648,3.8594,2.9648c0.3438,0,0.6914-0.043,1.0391-0.1367c2.1328-0.5703,3.3984-2.7656,2.8281-4.8984
		l-2.0703-7.7266l7.7266-2.0703c2.1328-0.5703,3.3984-2.7656,2.8281-4.8984C100.9464,144.1608,98.7589,142.903,96.6182,143.4694z"/>
	<path fill="#535353" d="M174.6104,58.2975c-0.5703,2.1328,0.6953,4.3281,2.8281,4.8984l7.7266,2.0703l-2.0703,7.7266
		c-0.5703,2.1328,0.6953,4.3281,2.8281,4.8984c0.3477,0.0938,0.6953,0.1367,1.0391,0.1367c1.7656,0,3.3828-1.1758,3.8594-2.9648
		l2.0703-7.7266l7.7266,2.0703c0.3477,0.0938,0.6952,0.1367,1.0391,0.1367c1.7656,0,3.3828-1.1758,3.8594-2.9648
		c0.5703-2.1328-0.6953-4.3281-2.8281-4.8984L194.962,59.61l2.0703-7.7266c0.5703-2.1328-0.6953-4.3281-2.8281-4.8984
		c-2.125-0.5703-4.3281,0.6914-4.8984,2.8281l-2.0703,7.7266l-7.7266-2.0703C177.3839,54.8991,175.1807,56.1647,174.6104,58.2975z"
		/>
	<path fill="#535353" d="M21.9464,72.5475l-6.7065,4.3555l-4.356-6.707c-1.2031-1.8516-3.6719-2.3828-5.5352-1.1758
		c-1.8516,1.2031-2.3789,3.6797-1.1758,5.5352l4.3555,6.7065l-6.707,4.356c-1.8516,1.2031-2.3789,3.6797-1.1758,5.5352
		c0.7656,1.1797,2.0508,1.8203,3.3594,1.8203c0.7461,0,1.5-0.207,2.1758-0.6445l6.7065-4.3555l4.356,6.707
		c0.7656,1.1797,2.0508,1.8203,3.3594,1.8203c0.7461,0,1.5-0.207,2.1758-0.6445c1.8516-1.2031,2.3789-3.6797,1.1758-5.5352
		l-4.3555-6.7065l6.707-4.356c1.8516-1.2031,2.3789-3.6797,1.1758-5.5352C26.2784,71.8717,23.8057,71.3405,21.9464,72.5475z"/>
	<path fill="#535353" d="M118.0635,102.4382c2.2109,0,4-1.7891,4-4c0-8.8242,7.1758-16,16-16c2.2109,0,4-1.7891,4-4s-1.7891-4-4-4
		c-13.2344,0-24,10.7656-24,24C114.0635,100.6491,115.8526,102.4382,118.0635,102.4382z"/>
	<path fill="#535353" d="M135.0909,180.6335c-5.6758,6.7578-15.7852,7.6484-22.5469,1.9727
		c-1.6953-1.4219-4.2148-1.1875-5.6367,0.4961c-1.418,1.6914-1.1953,4.2148,0.4961,5.6367
		c4.4883,3.7617,9.9609,5.6016,15.4062,5.6016c6.8555,0,13.668-2.9141,18.4062-8.5664c1.4219-1.6914,1.1992-4.2148-0.4922-5.6328
		C139.0284,178.7194,136.5049,178.9421,135.0909,180.6335z"/>
	<path fill="#535353" d="M145.0831,28.8991c3.2734,1.5273,6.7148,2.2461,10.1055,2.2461c9.043,0,17.7227-5.1328,21.7891-13.8516
		c0.9336-2.0039,0.0664-4.3828-1.9336-5.3164c-2-0.9219-4.3789-0.0664-5.3164,1.9336c-3.7266,7.9922-13.2617,11.4688-21.2617,7.7383
		c-2.0039-0.9258-4.3789-0.0664-5.3164,1.9336C142.2159,25.5866,143.0831,27.9655,145.0831,28.8991z"/>
</g>
</svg>
