<?xml version="1.0" encoding="utf-8"?>
<!-- Generator: Adobe Illustrator 19.2.0, SVG Export Plug-In . SVG Version: 6.00 Build 0)  -->
<svg version="1.1" id="earthstars" xmlns="http://www.w3.org/2000/svg" xmlns:xlink="http://www.w3.org/1999/xlink" x="0px" y="0px"
	 viewBox="0 0 192.9688 204.9688" enable-background="new 0 0 192.9688 204.9688" xml:space="preserve">
<g>
	<circle fill="#D8D8D8" cx="76.4844" cy="108.4844" r="68.1597"/>
	<path fill="#535353" d="M76.4844,36.4844c-39.6992,0-72,32.3008-72,72s32.3008,72,72,72s72-32.3008,72-72
		S116.1836,36.4844,76.4844,36.4844z M23.5461,72.5708c2.4434,1.4534,9.0583,5.5671,14.0242,10.3784
		c3.4688,3.3633,5.0664,5.8164,5.0312,7.7148c-0.0273,1.6133-1.2695,3.5352-3.6836,5.7109
		c-3.3086,2.9805-4.7227,6.7383-3.9766,10.5859c1.4922,7.7148,11.0898,13.7773,19.5703,16.8828
		c5.7226,2.0898,8.0977,3.75,9.0547,4.6133c-5.8726,2.2573-28.0691,1.5007-48.1377-0.7932
		c-1.9075-6.0586-2.9443-12.4993-2.9443-19.1794C12.4844,95.1812,16.5715,82.8186,23.5461,72.5708z M18.8364,136.0967
		c8.3633,0.8867,19.0913,1.7705,28.6831,1.7705c10.168,0,19.0469-0.9922,22.4375-4.0234c1.4531-1.2969,2.2383-3.0195,2.2188-4.8477
		c-0.082-6.4961-8.5508-10.3398-14.9141-12.668c-8.6406-3.1562-13.9023-7.9688-14.4648-10.8867
		c-0.0898-0.457-0.2969-1.5273,1.4727-3.1211c4.1875-3.7734,6.2578-7.5352,6.332-11.5078
		c0.1016-5.5156-3.7148-9.9727-7.4609-13.6055c-5.0354-4.8784-11.3777-9.0007-14.6047-10.9695
		c11.7363-13.304,28.8552-21.7532,47.9485-21.7532c14.8652,0,28.5278,5.1392,39.4043,13.6738
		c-0.9568,3.4905-4.384,12.3464-15.373,17.3223c-13.7344,6.2188-16.2109,7.3398-15.7266,17.6016
		c0.0547,1.168,0.1172,2.5234,0.1328,4.1211c0.0859,9.2148,6.0703,12.6953,11.3516,15.7656
		c3.3516,1.9492,6.8164,3.9648,9.6758,7.5742c4.9219,6.2109,5.2266,11.1523,5.5508,16.3867
		c0.1484,2.4141,0.3047,4.9062,0.9531,7.3984c1.3396,5.1455,4.6604,9.0381,7.1125,11.3459
		c-11.3853,10.4031-26.4807,16.8103-43.0813,16.8103C51.092,172.4844,29.1716,157.5815,18.8364,136.0967z M125.1414,149.9517
		c-1.6758-1.5535-4.0635-4.2507-4.946-7.6392c-0.4531-1.7422-0.5742-3.6602-0.7109-5.875
		c-0.3477-5.6523-0.7852-12.6836-7.2617-20.8633c-3.8008-4.793-8.3086-7.4141-11.9297-9.5195
		c-5.2109-3.0312-7.3281-4.4414-7.3711-8.9297c-0.0156-1.7109-0.082-3.1641-0.1406-4.418
		c-0.2305-4.8398-0.2305-4.8398,11.0312-9.9375c11.0781-5.0139,16.2058-13.2021,18.5239-18.8379
		c11.2092,11.5332,18.1479,27.2383,18.1479,44.5527C140.4844,124.3022,134.6851,138.7703,125.1414,149.9517z"/>
	<path fill="#535353" d="M12.4844,30.1406l5.6562,5.6562c0.7812,0.7812,1.8047,1.1719,2.8281,1.1719s2.0469-0.3906,2.8281-1.1719
		c1.5625-1.5624,1.5625-4.0938,0-5.6562l-5.6562-5.6562l5.6562-5.6562c1.5625-1.5625,1.5625-4.0937,0-5.6562
		c-1.5626-1.5625-4.0938-1.5625-5.6562,0l-5.6562,5.6562l-5.6562-5.6562c-1.5625-1.5625-4.0938-1.5625-5.6562,0
		c-1.5625,1.5626-1.5625,4.0938,0,5.6562l5.6562,5.6562l-5.6562,5.6562c-1.5625,1.5625-1.5625,4.0938,0,5.6562
		C1.9531,36.5781,2.9766,36.9688,4,36.9688s2.0469-0.3906,2.8281-1.1719L12.4844,30.1406z"/>
	<path fill="#535353" d="M151.7969,1.1719c-1.5626-1.5625-4.0938-1.5625-5.6562,0l-5.6562,5.6562l-5.6562-5.6562
		c-1.5625-1.5625-4.0938-1.5625-5.6562,0c-1.5625,1.5626-1.5625,4.0938,0,5.6562l5.6562,5.6562l-5.6562,5.6562
		c-1.5625,1.5625-1.5625,4.0938,0,5.6562c0.7812,0.7812,1.8047,1.1719,2.8281,1.1719s2.0469-0.3906,2.8281-1.1719l5.6562-5.6562
		l5.6562,5.6562c0.7812,0.7812,1.8047,1.1719,2.8281,1.1719s2.0469-0.3906,2.8281-1.1719c1.5625-1.5624,1.5625-4.0938,0-5.6562
		l-5.6562-5.6562l5.6562-5.6562C153.3594,5.2656,153.3594,2.7344,151.7969,1.1719z"/>
	<path fill="#535353" d="M186.1406,52.4844l5.6562-5.6562c1.5625-1.5625,1.5625-4.0937,0-5.6562
		c-1.5626-1.5625-4.0938-1.5625-5.6562,0l-5.6562,5.6562l-5.6562-5.6562c-1.5625-1.5625-4.0938-1.5625-5.6562,0
		c-1.5625,1.5626-1.5625,4.0938,0,5.6562l5.6562,5.6562l-5.6562,5.6562c-1.5625,1.5625-1.5625,4.0938,0,5.6562
		c0.7812,0.7812,1.8047,1.1719,2.8281,1.1719s2.0469-0.3906,2.8281-1.1719l5.6562-5.6562l5.6562,5.6562
		c0.7812,0.7812,1.8047,1.1719,2.8281,1.1719s2.0469-0.3906,2.8281-1.1719c1.5625-1.5624,1.5625-4.0938,0-5.6562L186.1406,52.4844z"
		/>
	<path fill="#535353" d="M151.7969,181.1719c-1.5626-1.5625-4.0938-1.5625-5.6562,0l-5.6562,5.6562l-5.6562-5.6562
		c-1.5625-1.5625-4.0938-1.5625-5.6562,0c-1.5625,1.5626-1.5625,4.0938,0,5.6562l5.6562,5.6562l-5.6562,5.6562
		c-1.5625,1.5625-1.5625,4.0938,0,5.6562c0.7812,0.7812,1.8047,1.1719,2.8281,1.1719s2.0469-0.3906,2.8281-1.1719l5.6562-5.6562
		l5.6562,5.6562c0.7812,0.7812,1.8047,1.1719,2.8281,1.1719s2.0469-0.3906,2.8281-1.1719c1.5625-1.5624,1.5625-4.0938,0-5.6562
		l-5.6562-5.6562l5.6562-5.6562C153.3594,185.2656,153.3594,182.7344,151.7969,181.1719z"/>
</g>
</svg>
