<?xml version="1.0" encoding="utf-8"?>
<!-- Generator: Adobe Illustrator 19.2.0, SVG Export Plug-In . SVG Version: 6.00 Build 0)  -->
<svg version="1.1" id="earthcomposition" xmlns="http://www.w3.org/2000/svg" xmlns:xlink="http://www.w3.org/1999/xlink" x="0px"
	 y="0px" viewBox="0 0 232 232" enable-background="new 0 0 232 232" xml:space="preserve">
<g>
	<path fill="#D8D8D8" d="M120.1172,52.125v127.75C153.4863,177.8008,180,149.9434,180,116S153.4863,54.1992,120.1172,52.125z"/>
	<path fill="#FFFFFF" d="M95.6387,80.7871c-2.1953,4.7168-5.4648,8.0723-8.0918,10.7676c-3.9492,4.0547-3.75,4.3203-3.1543,5.1113
		c2.1377,2.8389,15.1367,7.2461,27.6074,10.2988v-34.478C106.2944,73.4316,97.949,75.8232,95.6387,80.7871z"/>
	<path fill="#FFFFFF" d="M33.2539,150.2207c1.7559-1.8008,3.8789-3.7285,6.0625-5.707c4.1074-3.7207,11.75-10.6465,11.2754-13.3281
		c-0.0605-0.334-0.7188-1.125-2.8164-1.9746c-17.2656-7-17.6895-18.709-18.332-36.4355
		c-0.3809-10.5781,8.1504-15.6699,15.6777-20.1621c9.6973-5.7891,15.0137-9.5586,11.5234-19.7285
		c-3.7429-10.9043-5.584-17.8838-6.4299-22.4507C24.5684,50.1982,8,81.1929,8,116c0,19.6284,5.29,38.0337,14.4797,53.9121
		C24.4207,163.8325,27.8057,155.8057,33.2539,150.2207z"/>
	<path fill="#D8D8D8" d="M204,116c0-47.1821-37.3269-85.7988-84-87.8984v16.0957c37.8274,2.0391,68,33.4141,68,71.8027
		s-30.1726,69.7637-68,71.8027v16.0957C166.6731,201.7988,204,163.1821,204,116z"/>
	<path fill="#D8D8D8" d="M120,8.1016v12C171.0842,22.208,212,64.4077,212,116s-40.9158,93.792-92,95.8984v12
		c57.7021-2.1147,104-49.689,104-107.8984S177.7021,10.2163,120,8.1016z"/>
	<path fill="#FFFFFF" d="M112,115.1953c-9.5671-2.2344-29.3052-7.4863-33.998-13.7168c-4.9219-6.5391,0.1289-11.7227,3.8164-15.5059
		c2.3184-2.3809,4.9453-5.0762,6.5664-8.5605C92.7073,68.1245,105.479,65.2529,112,64.377V8.1016
		c-19.9968,0.7329-38.6123,6.9258-54.4163,17.1328c0.0708,1.8999,0.8438,8.2061,6.6272,25.0527
		c5.7695,16.8066-6.2285,23.9668-14.9902,29.1953c-7.4355,4.4375-11.9824,7.4395-11.7812,13.0039
		c0.6816,18.8301,1.4082,24.4727,13.3398,29.3105c4.4844,1.8184,7.0703,4.5059,7.6895,7.9902
		c1.248,7.0371-6.3926,13.959-13.7793,20.6543c-2.0566,1.8633-4.0566,3.6719-5.709,5.3652
		c-6.8455,7.0176-9.9097,19.7163-10.6387,23.165c18.896,26.229,49.2385,43.665,83.6582,44.9268V115.1953z"/>
	<path fill="#535353" d="M232,116C232,52.0371,179.9629,0,116,0S0,52.0371,0,116c0,62.6216,49.8855,113.7793,112,115.8984V232h8
		v-0.1016C182.1145,229.7793,232,178.6216,232,116z M112,106.9648c-12.4707-3.0527-25.4697-7.46-27.6074-10.2988
		c-0.5957-0.791-0.7949-1.0566,3.1543-5.1113c2.627-2.6953,5.8965-6.0508,8.0918-10.7676
		c2.3103-4.9639,10.6558-7.3555,16.3613-8.3003V106.9648z M120,187.8027c37.8274-2.0391,68-33.4141,68-71.8027
		s-30.1726-69.7637-68-71.8027V28.1016c46.6731,2.0996,84,40.7163,84,87.8984s-37.3269,85.7988-84,87.8984V187.8027z
		 M120.1172,179.875V52.125C153.4863,54.1992,180,82.0566,180,116S153.4863,177.8008,120.1172,179.875z M50.2146,30.4341
		c0.8459,4.5669,2.687,11.5464,6.4299,22.4507c3.4902,10.1699-1.8262,13.9395-11.5234,19.7285
		c-7.5273,4.4922-16.0586,9.584-15.6777,20.1621c0.6426,17.7266,1.0664,29.4355,18.332,36.4355
		c2.0977,0.8496,2.7559,1.6406,2.8164,1.9746c0.4746,2.6816-7.168,9.6074-11.2754,13.3281
		c-2.1836,1.9785-4.3066,3.9062-6.0625,5.707c-5.4482,5.585-8.8333,13.6118-10.7742,19.6914C13.29,154.0337,8,135.6284,8,116
		C8,81.1929,24.5684,50.1982,50.2146,30.4341z M28.3418,178.9717c0.729-3.4487,3.7932-16.1475,10.6387-23.165
		c1.6523-1.6934,3.6523-3.502,5.709-5.3652c7.3867-6.6953,15.0273-13.6172,13.7793-20.6543
		c-0.6191-3.4844-3.2051-6.1719-7.6895-7.9902c-11.9316-4.8379-12.6582-10.4805-13.3398-29.3105
		c-0.2012-5.5645,4.3457-8.5664,11.7812-13.0039c8.7617-5.2285,20.7598-12.3887,14.9902-29.1953
		c-5.7834-16.8467-6.5564-23.1528-6.6272-25.0527C73.3877,15.0273,92.0032,8.8345,112,8.1016V64.377
		c-6.521,0.876-19.2927,3.7476-23.6152,13.0352c-1.6211,3.4844-4.248,6.1797-6.5664,8.5605
		c-3.6875,3.7832-8.7383,8.9668-3.8164,15.5059c4.6929,6.2305,24.4309,11.4824,33.998,13.7168v108.7031
		C77.5803,222.6367,47.2378,205.2007,28.3418,178.9717z M120,223.8984v-12c51.0842-2.1064,92-44.3062,92-95.8984
		s-40.9158-93.792-92-95.8984v-12C177.7021,10.2163,224,57.7905,224,116S177.7021,221.7837,120,223.8984z"/>
</g>
</svg>
