<?xml version="1.0" encoding="utf-8"?>
<!-- Generator: Adobe Illustrator 19.2.0, SVG Export Plug-In . SVG Version: 6.00 Build 0)  -->
<svg version="1.1" id="einsteinequation" xmlns="http://www.w3.org/2000/svg" xmlns:xlink="http://www.w3.org/1999/xlink" x="0px"
	 y="0px" viewBox="0 0 212 224" enable-background="new 0 0 212 224" xml:space="preserve">
<g>
	<rect x="92" y="8" fill="#D8D8D8" width="32" height="20"/>
	<path fill="#D8D8D8" d="M88,36H8v112h196V36h-76H88z M52,76H32v16h20v8H32v16h20v8H32h-6.5H24V68h1.5H32h20V76z M88,108H64v-8h24
		V108z M88,92H64v-8h24V92z M172,78v-6v-4v-6v-2h12v-4h-12v-8h20v4v4v4v6v2h-12v4h12v8h-20V78z M140,68h1.5h6.5h20v8h-20v40h20v8
		h-20h-6.5H140V68z M132,76v48h-8V76h-4v12h-8V76h-4v48h-8V76v-8h8h4h8h4h8V76z"/>
	<path fill="#535353" d="M208,28h-76V4c0-2.209-1.7891-4-4-4H88c-2.2109,0-4,1.791-4,4v24H4c-2.2109,0-4,1.791-4,4v120
		c0,2.209,1.7891,4,4,4h97.5356l-29.9341,60H48v8h28.5547L104,168.9775V220h8v-51.0225L139.4453,224H168v-8h-23.6016l-29.9341-60
		H208c2.2109,0,4-1.791,4-4V32C212,29.791,210.2109,28,208,28z M92,8h32v20H92V8z M204,148H8V36h80h40h76V148z"/>
	<rect x="64" y="84" fill="#535353" width="24" height="8"/>
	<rect x="64" y="100" fill="#535353" width="24" height="8"/>
	<polygon fill="#535353" points="25.5,68 24,68 24,124 25.5,124 32,124 52,124 52,116 32,116 32,100 52,100 52,92 32,92 32,76 
		52,76 52,68 32,68 	"/>
	<polygon fill="#535353" points="148,124 168,124 168,116 148,116 148,76 168,76 168,68 148,68 141.5,68 140,68 140,124 141.5,124 	
		"/>
	<polygon fill="#535353" points="120,68 112,68 108,68 100,68 100,76 100,124 108,124 108,76 112,76 112,88 120,88 120,76 124,76 
		124,124 132,124 132,76 132,68 124,68 	"/>
	<polygon fill="#535353" points="192,72 180,72 180,68 192,68 192,66 192,60 192,56 192,52 192,48 172,48 172,56 184,56 184,60 
		172,60 172,62 172,68 172,72 172,78 172,80 192,80 	"/>
</g>
</svg>
