<?xml version="1.0" encoding="utf-8"?>
<!-- Generator: Adobe Illustrator 19.2.0, SVG Export Plug-In . SVG Version: 6.00 Build 0)  -->
<svg version="1.1" id="electricitydanger" xmlns="http://www.w3.org/2000/svg" xmlns:xlink="http://www.w3.org/1999/xlink" x="0px"
	 y="0px" viewBox="0 0 221.6292 188.0977" enable-background="new 0 0 221.6292 188.0977" xml:space="preserve">
<g>
	<path fill="#D8D8D8" d="M44.2394,164.0312h132.9062L110.6925,49.2891L44.2394,164.0312z M114.2238,83.4551
		c1.9102,1.1113,2.5547,3.5586,1.4453,5.4688l-13.5195,23.2363h27.1953c1.4648,0,2.8086,0.7988,3.5117,2.084
		c0.6992,1.2852,0.6445,2.8496-0.1484,4.0801l-22.6055,35.1328c-0.7656,1.1875-2.0508,1.8359-3.3672,1.8359
		c-0.7422,0-1.4922-0.2051-2.1602-0.6367c-1.8594-1.1953-2.3945-3.6699-1.1992-5.5273l18.6367-28.9688H95.1964
		c-1.4297,0-2.754-0.7656-3.4688-2.0059c-0.7109-1.2402-0.707-2.7676,0.0117-4.0059l17.0156-29.248
		C109.8644,82.9902,112.3136,82.3398,114.2238,83.4551z"/>
	<path fill="#FFFFFF" d="M11.0206,180.0977h199.582L110.6964,11.8418L11.0206,180.0977z M114.1535,39.3027l73.3906,126.7246
		c0.7188,1.2363,0.7188,2.7617,0.0039,4.002c-0.7148,1.2383-2.0352,2.002-3.4648,2.002H37.3019c-1.4297,0-2.75-0.7637-3.4648-2.002
		c-0.7148-1.2402-0.7148-2.7656,0.0039-4.002l73.3906-126.7246C108.6613,36.8301,112.7238,36.8301,114.1535,39.3027z"/>
	<path fill="#535353" d="M221.0675,182.0547L114.13,1.957C113.4113,0.7441,112.1027,0,110.6925,0c0,0,0,0-0.0039,0
		c-1.4102,0-2.7188,0.7461-3.4375,1.9609L0.5597,182.0586c-0.7344,1.2363-0.7461,2.7715-0.0352,4.0195s2.0391,2.0195,3.4766,2.0195
		H217.63c1.4375,0,2.7656-0.7715,3.4766-2.0215S221.8019,183.291,221.0675,182.0547z M11.0206,180.0977l99.6758-168.2559
		l99.9062,168.2559H11.0206z"/>
	<path fill="#535353" d="M107.2316,39.3027L33.841,166.0273c-0.7188,1.2363-0.7188,2.7617-0.0039,4.002
		c0.7148,1.2383,2.0352,2.002,3.4648,2.002h146.7812c1.4297,0,2.75-0.7637,3.4648-2.002c0.7148-1.2402,0.7148-2.7656-0.0039-4.002
		L114.1535,39.3027C112.7238,36.8301,108.6613,36.8301,107.2316,39.3027z M177.1456,164.0312H44.2394l66.4531-114.7422
		L177.1456,164.0312z"/>
	<path fill="#535353" d="M108.755,84.9004l-17.0156,29.248c-0.7188,1.2383-0.7227,2.7656-0.0117,4.0059
		c0.7148,1.2402,2.0391,2.0059,3.4688,2.0059h26.8164l-18.6367,28.9688c-1.1953,1.8574-0.6602,4.332,1.1992,5.5273
		c0.668,0.4316,1.418,0.6367,2.1602,0.6367c1.3164,0,2.6016-0.6484,3.3672-1.8359l22.6055-35.1328
		c0.793-1.2305,0.8477-2.7949,0.1484-4.0801c-0.7031-1.2852-2.0469-2.084-3.5117-2.084h-27.1953l13.5195-23.2363
		c1.1094-1.9102,0.4648-4.3574-1.4453-5.4688C112.3136,82.3398,109.8644,82.9902,108.755,84.9004z"/>
</g>
</svg>
