<?xml version="1.0" encoding="utf-8"?>
<!-- Generator: Adobe Illustrator 19.2.0, SVG Export Plug-In . SVG Version: 6.00 Build 0)  -->
<svg version="1.1" id="electricitymeasure" xmlns="http://www.w3.org/2000/svg" xmlns:xlink="http://www.w3.org/1999/xlink" x="0px"
	 y="0px" viewBox="0 0 220 221.3008" enable-background="new 0 0 220 221.3008" xml:space="preserve">
<g>
	<path fill="#FFFFFF" d="M112.0391,101.3008c32.3052,0,58.7605,24.7803,60.8718,56h16.5618c-2.1328-40.0547-36.0469-72-77.4336-72
		s-75.3008,31.9453-77.4336,72h16.5618C53.2786,126.0811,79.7339,101.3008,112.0391,101.3008z"/>
	<path fill="#D8D8D8" d="M44,177.3008c-6.6172,0-12,5.3828-12,12s5.3828,12,12,12s12-5.3828,12-12S50.6172,177.3008,44,177.3008z"/>
	<path fill="#D8D8D8" d="M164.9609,157.3008c-0.8181-10.4968-4.8645-20.1042-11.1194-27.9431l-12.6697,12.6697l-5.6562-5.6562
		l12.7266-12.7266l5.0293,5.0293c-8.957-10.843-22.2375-18.0908-37.2715-19.1858v15.8127h-8v-15.8091
		c-13.1365,0.9753-24.9243,6.6523-33.6636,15.3174l11.562,11.562l-5.6562,5.6562l-11.176-11.176
		c-5.5913,7.5527-9.1824,16.6155-9.949,26.4495H164.9609z"/>
	<path fill="#D8D8D8" d="M204,24.3711c4.4102,0,8-3.5898,8-8s-3.5898-8-8-8s-8,3.5898-8,8S199.5898,24.3711,204,24.3711z"/>
	<path fill="#D8D8D8" d="M28,17.3008c0-4.4102-3.5898-8-8-8s-8,3.5898-8,8s3.5898,8,8,8S28,21.7109,28,17.3008z"/>
	<path fill="#D8D8D8" d="M171.1523,177.3008c-6.7852,0-12.3047,5.3828-12.3047,12s5.5195,12,12.3047,12
		c6.7851,0,12.3086-5.3828,12.3086-12S177.9375,177.3008,171.1523,177.3008z"/>
	<path fill="#D8D8D8" d="M195.9609,165.3008h-22.8438H50.9609H26.5h-2.4609C15.1953,165.3008,8,172.4688,8,181.2812v16.0391
		c0,8.8125,7.1953,15.9805,16.0391,15.9805h171.9219c8.8438,0,16.0391-7.168,16.0391-15.9805v-16.0391
		C212,172.4688,204.8047,165.3008,195.9609,165.3008z M44,209.3008c-11.0273,0-20-8.9727-20-20s8.9727-20,20-20s20,8.9727,20,20
		S55.0273,209.3008,44,209.3008z M171.1523,209.3008c-11.1953,0-20.3047-8.9727-20.3047-20s9.1094-20,20.3047-20
		c11.1992,0,20.3086,8.9727,20.3086,20S182.3516,209.3008,171.1523,209.3008z"/>
	<path fill="#535353" d="M197.3755,157.3723c-1.4131-29.7844-18.6135-55.5547-43.6331-69.3428l42.3943-57.8091
		c2.3323,1.3296,4.9915,2.1506,7.8633,2.1506c8.8242,0,16-7.1758,16-16s-7.1758-16-16-16s-16,7.1758-16,16
		c0,3.0173,0.8884,5.811,2.3455,8.2219l-43.8992,59.8611c-10.5403-4.5693-22.1646-7.1533-34.4072-7.1533
		c-12.4651,0-24.2808,2.6931-34.9712,7.4204L33.6545,25.5227C35.1116,23.1118,36,20.3181,36,17.3008c0-8.8242-7.1758-16-16-16
		s-16,7.1758-16,16s7.1758,16,16,16c2.8718,0,5.531-0.821,7.8633-2.1506l41.9438,57.1951
		c-24.7083,13.8489-41.6738,39.416-43.1008,68.9556h-2.6672C10.7852,157.3008,0,168.0586,0,181.2812v16.0391
		c0,13.2227,10.7852,23.9805,24.0391,23.9805h171.9219c13.2539,0,24.0391-10.7578,24.0391-23.9805v-16.0391
		C220,168.5349,209.9697,158.1091,197.3755,157.3723z M204,8.3711c4.4102,0,8,3.5898,8,8s-3.5898,8-8,8s-8-3.5898-8-8
		S199.5898,8.3711,204,8.3711z M12,17.3008c0-4.4102,3.5898-8,8-8s8,3.5898,8,8s-3.5898,8-8,8S12,21.7109,12,17.3008z
		 M112.0391,85.3008c41.3867,0,75.3008,31.9453,77.4336,72h-16.5618c-2.1113-31.2197-28.5667-56-60.8718-56
		s-58.7605,24.7803-60.8718,56H34.6055C36.7383,117.2461,70.6523,85.3008,112.0391,85.3008z M69.0662,130.8513l11.176,11.176
		l5.6562-5.6562l-11.562-11.562c8.7393-8.665,20.5271-14.342,33.6636-15.3174v15.8091h8V109.488
		c15.0339,1.095,28.3145,8.3428,37.2715,19.1858l-5.0293-5.0293l-12.7266,12.7266l5.6562,5.6562l12.6697-12.6697
		c6.2549,7.8389,10.3013,17.4463,11.1194,27.9431H59.1172C59.8838,147.4668,63.4749,138.4041,69.0662,130.8513z M212,197.3203
		c0,8.8125-7.1953,15.9805-16.0391,15.9805H24.0391C15.1953,213.3008,8,206.1328,8,197.3203v-16.0391
		c0-8.8125,7.1953-15.9805,16.0391-15.9805H26.5h24.4609h122.1562h22.8438c8.8438,0,16.0391,7.168,16.0391,15.9805V197.3203z"/>
	<path fill="#535353" d="M171.1523,169.3008c-11.1953,0-20.3047,8.9727-20.3047,20s9.1094,20,20.3047,20
		c11.1992,0,20.3086-8.9727,20.3086-20S182.3516,169.3008,171.1523,169.3008z M171.1523,201.3008
		c-6.7852,0-12.3047-5.3828-12.3047-12s5.5195-12,12.3047-12c6.7851,0,12.3086,5.3828,12.3086,12
		S177.9375,201.3008,171.1523,201.3008z"/>
	<path fill="#535353" d="M44,169.3008c-11.0273,0-20,8.9727-20,20s8.9727,20,20,20s20-8.9727,20-20S55.0273,169.3008,44,169.3008z
		 M44,201.3008c-6.6172,0-12-5.3828-12-12s5.3828-12,12-12s12,5.3828,12,12S50.6172,201.3008,44,201.3008z"/>
	<polygon fill="#535353" points="77.4023,11.4375 108.6172,65.6211 130.0352,21.6914 153.2461,50.0625 178.3828,24.6406 
		172.6953,19.0156 153.8086,38.1172 128.3164,6.957 108.0312,48.5742 80.043,0 43.8789,24.4141 48.3555,31.0469 	"/>
</g>
</svg>
