<?xml version="1.0" encoding="utf-8"?>
<!-- Generator: Adobe Illustrator 19.2.0, SVG Export Plug-In . SVG Version: 6.00 Build 0)  -->
<svg version="1.1" id="electronics" xmlns="http://www.w3.org/2000/svg" xmlns:xlink="http://www.w3.org/1999/xlink" x="0px"
	 y="0px" viewBox="0 0 214 184" enable-background="new 0 0 214 184" xml:space="preserve">
<g>
	<path fill="#FFFFFF" d="M188,24h0.6047c-3.2998-9.3052-12.1653-16-22.5891-16H45.9844c-10.4238,0-19.2891,6.6948-22.5889,16H26v8
		h-4v24h4v8h-4v24h4v8h-4v24h4v8h-4v24h4v8h-2.6045c3.2998,9.3052,12.165,16,22.5889,16h120.0312
		c10.4238,0,19.2893-6.6948,22.5891-16H188v-8h2v-24h-2v-8h2V96h-2v-8h2V64h-2v-8h2V32h-2V24z M178,164H34V20h144V164z"/>
	<path fill="#D8D8D8" d="M170,28H42v128h128V28z M94,140H58v-36h8v28h28V140z M94,52H66v28h-8V44h36V52z M154,140h-36v-8h28v-28h8
		V140z M154,80h-8V52h-28v-8h36V80z"/>
	<path fill="#535353" d="M34,164h144V20H34V164z M42,28h128v128H42V28z"/>
	<polygon fill="#535353" points="58,80 66,80 66,52 94,52 94,44 58,44 	"/>
	<polygon fill="#535353" points="146,132 118,132 118,140 154,140 154,104 146,104 	"/>
	<polygon fill="#535353" points="66,104 58,104 58,140 94,140 94,132 66,132 	"/>
	<polygon fill="#535353" points="118,52 146,52 146,80 154,80 154,44 118,44 	"/>
	<path fill="#535353" d="M214,32v-8h-17.0496c-3.5605-13.7786-16.0591-24-30.9348-24H45.9844C31.1086,0,18.6101,10.2214,15.0496,24
		H0v8h14v24H0v8h14v24H0v8h14v24H0v8h14v24H0v8h15.0496c3.5605,13.7786,16.0591,24,30.9348,24h120.0312
		c14.8757,0,27.3743-10.2214,30.9348-24H214v-8h-16v-24h16v-8h-16V96h16v-8h-16V64h16v-8h-16V32H214z M190,56h-2v8h2v24h-2v8h2v24
		h-2v8h2v24h-2v8h0.6047c-3.2998,9.3052-12.1653,16-22.5891,16H45.9844c-10.4238,0-19.2891-6.6948-22.5889-16H26v-8h-4v-24h4v-8h-4
		V96h4v-8h-4V64h4v-8h-4V32h4v-8h-2.6045c3.2998-9.3052,12.165-16,22.5889-16h120.0312c10.4238,0,19.2893,6.6948,22.5891,16H188v8h2
		V56z"/>
</g>
</svg>
