<?xml version="1.0" encoding="utf-8"?>
<!-- Generator: Adobe Illustrator 19.2.0, SVG Export Plug-In . SVG Version: 6.00 Build 0)  -->
<svg version="1.1" id="explosion" xmlns="http://www.w3.org/2000/svg" xmlns:xlink="http://www.w3.org/1999/xlink" x="0px" y="0px"
	 viewBox="0 0 219.9999 224.0026" enable-background="new 0 0 219.9999 224.0026" xml:space="preserve">
<g>
	<path fill="#D8D8D8" d="M123.2595,165.819c-2.5234,0-4.9492,0.5352-7.207,1.5938l-3.0898,1.4414l-1.9141-2.8203
		c-2.5645-3.7773-6.8613-6.0312-11.4941-6.0312c-7.5977,0-13.7773,6.0352-13.7773,13.4531v4.3672l-4.3516-0.3164
		c-0.3711-0.0312-0.748-0.0508-1.1289-0.0508c-6.7812,0-12.2969,5.3828-12.2969,12c0,6.2383,4.9844,11.4961,11.3496,11.9688
		l3.1289,0.2305l0.5195,3.0938c1.0957,6.5234,6.8125,11.2539,13.5938,11.2539c7.5977,0,13.7793-6.0352,13.7793-13.4531
		c0-0.5273-0.0312-1.0469-0.0898-1.5586l-0.8262-7.1562l6.5098,3.082c2.2871,1.0859,4.7402,1.6328,7.2949,1.6328
		c9.2305,0,16.7402-7.3398,16.7402-16.3633S132.49,165.819,123.2595,165.819z"/>
	<path fill="#535353" d="M123.2595,157.819c-2.6191,0-5.1699,0.3945-7.6152,1.1758c-4.0957-4.4258-9.9082-6.9922-16.0898-6.9922
		c-10.6602,0-19.5566,7.5859-21.4199,17.5664c-10.1777,1.0664-18.1348,9.5781-18.1348,19.8867
		c0,9.4062,6.7344,17.4727,15.8008,19.5078c2.7891,8.8672,11.1074,15.0391,20.791,15.0391c10.8105,0,19.8066-7.7969,21.4941-17.9844
		c1.6875,0.3516,3.4141,0.5312,5.1738,0.5312c13.6426,0,24.7402-10.9297,24.7402-24.3633
		C147.9998,168.7487,136.9021,157.819,123.2595,157.819z M123.2595,198.5495c-2.5547,0-5.0078-0.5469-7.2949-1.6328l-6.5098-3.082
		l0.8262,7.1562c0.0586,0.5117,0.0898,1.0312,0.0898,1.5586c0,7.418-6.1816,13.4531-13.7793,13.4531
		c-6.7812,0-12.498-4.7305-13.5938-11.2539l-0.5195-3.0938l-3.1289-0.2305c-6.3652-0.4727-11.3496-5.7305-11.3496-11.9688
		c0-6.6172,5.5156-12,12.2969-12c0.3809,0,0.7578,0.0195,1.1289,0.0508l4.3516,0.3164v-4.3672
		c0-7.418,6.1797-13.4531,13.7773-13.4531c4.6328,0,8.9297,2.2539,11.4941,6.0312l1.9141,2.8203l3.0898-1.4414
		c2.2578-1.0586,4.6836-1.5938,7.207-1.5938c9.2305,0,16.7402,7.3438,16.7402,16.3672S132.49,198.5495,123.2595,198.5495z"/>
	<path fill="#535353" d="M58.5037,99.944c0.7305,1.3164,2.0938,2.0586,3.5,2.0586c0.6562,0,1.3242-0.1602,1.9395-0.5039
		c1.9297-1.0742,2.6269-3.5078,1.5527-5.4375l-40-72c-1.0684-1.9297-3.5039-2.6328-5.4395-1.5547
		c-1.9297,1.0742-2.627,3.5078-1.5527,5.4375L58.5037,99.944z"/>
	<path fill="#535353" d="M86.1052,138.9128c0.4297,1.8438,2.0742,3.0898,3.8906,3.0898c0.3008,0,0.6074-0.0352,0.9121-0.1055
		c2.1523-0.5,3.4883-2.6523,2.9863-4.8047l-28-120c-0.502-2.1484-2.6602-3.4844-4.8027-2.9844
		c-2.1523,0.5-3.4883,2.6523-2.9863,4.8047L86.1052,138.9128z"/>
	<path fill="#535353" d="M95.9958,88.0026c0.084,0,0.168-0.0039,0.2539-0.0078c2.2051-0.1367,3.8809-2.0352,3.7422-4.2421l-4-64
		c-0.1387-2.2071-2.0078-3.8047-4.2422-3.7422c-2.2051,0.1367-3.8809,2.0352-3.7422,4.2422l4,64
		C92.1404,86.3737,93.9001,88.0026,95.9958,88.0026z"/>
	<path fill="#535353" d="M105.533,133.9753c0.1582,0.0195,0.3164,0.0273,0.4727,0.0273c2,0,3.7266-1.4961,3.9668-3.5312l8-68
		c0.2578-2.1953-1.3105-4.1836-3.5059-4.4414c-2.1816-0.2773-4.1797,1.3086-4.4395,3.5039l-8,68
		C101.7693,131.7292,103.3376,133.7175,105.533,133.9753z"/>
	<path fill="#535353" d="M142.6248,95.8542l-28,44c-1.1855,1.8633-0.6367,4.3359,1.2266,5.5234
		c0.666,0.4219,1.4102,0.625,2.1445,0.625c1.3223,0,2.6152-0.6562,3.3789-1.8516l28-44c1.1855-1.8633,0.6367-4.3359-1.2266-5.5234
		C146.2849,93.4479,143.8123,93.9948,142.6248,95.8542z"/>
	<path fill="#535353" d="M151.7497,89.3112c0.6895,0.4688,1.4727,0.6914,2.2461,0.6914c1.2793,0,2.5371-0.6133,3.3125-1.75l34-50
		c1.2422-1.8282,0.7676-4.3164-1.0586-5.5586c-1.8281-1.2422-4.3144-0.7656-5.5586,1.0586l-34,50
		C149.449,85.5807,149.9236,88.069,151.7497,89.3112z"/>
	<path fill="#535353" d="M124.4997,101.7096c0.4922,0.1992,1,0.293,1.498,0.293c1.582,0,3.0801-0.9453,3.7109-2.5l38-94
		c0.8281-2.0508-0.1621-4.3789-2.209-5.207c-2.0527-0.8359-4.3789,0.1641-5.209,2.207l-38,94
		C121.4626,98.5534,122.4529,100.8815,124.4997,101.7096z"/>
	<path fill="#535353" d="M184.9548,89.4089l-46,54c-1.4316,1.6797-1.2305,4.207,0.4512,5.6406
		c0.752,0.6406,1.6738,0.9531,2.5918,0.9531c1.1309,0,2.2559-0.4766,3.0469-1.4062l46-54c1.4316-1.6797,1.2305-4.207-0.4512-5.6406
		C188.9158,87.5221,186.3884,87.7253,184.9548,89.4089z"/>
	<path fill="#535353" d="M183.5994,134.8034l-32,24c-1.7676,1.3242-2.125,3.832-0.7988,5.5977
		c0.7852,1.0508,1.9863,1.6016,3.2031,1.6016c0.834,0,1.6758-0.2617,2.3965-0.8008l32-24c1.7676-1.3242,2.125-3.832,0.7988-5.5977
		C187.8767,133.8347,185.3728,133.4792,183.5994,134.8034z"/>
	<path fill="#535353" d="M219.158,113.5456c-1.3594-1.7422-3.877-2.0625-5.6133-0.6992l-18,14
		c-1.7441,1.3555-2.0586,3.8672-0.7031,5.6133c0.7891,1.0117,1.9688,1.543,3.1602,1.543c0.8594,0,1.7246-0.2734,2.4531-0.8438l18-14
		C220.199,117.8034,220.5134,115.2917,219.158,113.5456z"/>
	<path fill="#535353" d="M39.6462,102.7682c-1.7852,1.2969-2.1816,3.8008-0.8809,5.5859l32,44
		c0.7832,1.0781,2.002,1.6484,3.2383,1.6484c0.8145,0,1.6387-0.25,2.3496-0.7656c1.7852-1.2969,2.1816-3.8008,0.8809-5.5859l-32-44
		C43.9333,101.862,41.4333,101.4675,39.6462,102.7682z"/>
	<path fill="#535353" d="M26.9763,96.6237c0.791,0.9102,1.9043,1.3789,3.0254,1.3789c0.9277,0,1.8613-0.3203,2.6172-0.9766
		c1.6699-1.4492,1.8496-3.9727,0.4043-5.6445l-26-30c-1.4453-1.6602-3.9727-1.8516-5.6426-0.4023s-1.8496,3.9727-0.4043,5.6445
		L26.9763,96.6237z"/>
	<path fill="#535353" d="M60.7165,155.069l-54-50c-1.6211-1.5039-4.1504-1.4062-5.6523,0.2148
		c-1.5,1.6211-1.4023,4.1523,0.2188,5.6523l54,50c0.7695,0.7148,1.7441,1.0664,2.7168,1.0664c1.0742,0,2.1465-0.4297,2.9355-1.2812
		C62.4353,159.1003,62.3376,156.569,60.7165,155.069z"/>
	<path fill="#535353" d="M47.4353,166.2682l-26-10c-2.0586-0.7852-4.373,0.2344-5.1699,2.2969
		c-0.793,2.0625,0.2363,4.3789,2.2988,5.1719l26,10c0.4727,0.1797,0.957,0.2656,1.4355,0.2656c1.6055,0,3.1211-0.9727,3.7344-2.5625
		C50.5271,169.3776,49.4978,167.0612,47.4353,166.2682z"/>
</g>
</svg>
