<?xml version="1.0" encoding="utf-8"?>
<!-- Generator: Adobe Illustrator 19.2.0, SVG Export Plug-In . SVG Version: 6.00 Build 0)  -->
<svg version="1.1" id="eyedropper" xmlns="http://www.w3.org/2000/svg" xmlns:xlink="http://www.w3.org/1999/xlink" x="0px" y="0px"
	 viewBox="0 0 189.9785 223.9805" enable-background="new 0 0 189.9785 223.9805" xml:space="preserve">
<g>
	<path fill="#D8D8D8" d="M16,191.9805c-4.4121,0-8,3.25-8,7.2441c0,2.3184,3.5898,8.5352,7.6895,14.2617
		C20.1113,207.75,24,201.5137,24,199.2246C24,195.2305,20.4121,191.9805,16,191.9805z"/>
	<path fill="#D8D8D8" d="M44.8496,122.502c-4.4961,4.4961-5.9023,11.2344-3.584,17.166c0.5801,1.4805,0.2266,3.1621-0.8965,4.2852
		l-18.1523,18.1523l5.6582,5.6562l18.1484-18.1484c1.123-1.125,2.8086-1.4785,4.2871-0.8965
		c5.9316,2.332,12.666,0.9121,17.168-3.5879l65.0479-65.0479l-22.627-22.627L44.8496,122.502z"/>
	<path fill="#FFFFFF" d="M174.9531,15.0273C170.4219,10.4961,164.3945,8,157.9805,8h-0.002c-6.4102,0-12.4277,2.4883-16.9492,7.0098
		l-31.1309,31.1309l2.8242,2.8242c0.0017,0.002,0.0042,0.002,0.0042,0.002l28.2849,28.2852c0,0,0.0022,0.0039,0.0039,0.0059
		l2.8242,2.8242l31.1309-31.1309c4.5254-4.5254,7.0137-10.5488,7.0078-16.9629C181.9746,25.5762,179.4785,19.5527,174.9531,15.0273z
		"/>
	<path fill="#535353" d="M189.9785,31.9805c-0.0059-8.5449-3.334-16.5742-9.3691-22.6094C174.5684,3.3281,166.5332,0,157.9824,0
		c-0.002,0-0.0039,0-0.0039,0c-8.5449,0-16.5742,3.3203-22.6055,9.3535l-31.1309,31.1309l-2.8281-2.8281
		c-1.5625-1.5625-4.0938-1.5625-5.6562,0s-1.5625,4.0938,0,5.6562l5.6562,5.6562l2.8291,2.8291l-65.0498,65.0479
		c-6.1055,6.1055-8.4141,14.9648-6.2148,23.1855l-19.2461,19.2461c-0.75,0.75-1.1719,1.7676-1.1719,2.8281
		s0.4219,2.0781,1.1719,2.8281l11.3145,11.3125c0.7812,0.7812,1.8047,1.1719,2.8281,1.1719s2.0469-0.3906,2.8281-1.1719
		l19.2422-19.2402c8.2188,2.1973,17.0801-0.1094,23.1895-6.2207l65.0479-65.0479l2.8291,2.8291l5.6582,5.6582
		c0.7812,0.7812,1.8047,1.1719,2.8281,1.1719s2.0469-0.3906,2.8281-1.1719c1.5625-1.5625,1.5625-4.0938,0-5.6562l-2.8301-2.8301
		l31.1309-31.1309C186.666,48.5703,189.9863,40.5352,189.9785,31.9805z M67.4785,145.1289c-4.502,4.5-11.2363,5.9199-17.168,3.5879
		c-1.4785-0.582-3.1641-0.2285-4.2871,0.8965L27.875,167.7617l-5.6582-5.6562l18.1523-18.1523
		c1.123-1.123,1.4766-2.8047,0.8965-4.2852c-2.3184-5.9316-0.9121-12.6699,3.584-17.166l65.0498-65.0479l22.627,22.627
		L67.4785,145.1289z M143.8398,80.082l-2.8242-2.8242c-0.0017-0.002-0.0022-0.0039-0.0022-0.0039l-28.2849-28.2852
		c0,0-0.0042-0.002-0.0059-0.0039l-2.8242-2.8242l31.1309-31.1309C145.5508,10.4883,151.5684,8,157.9785,8h0.002
		c6.4141,0,12.4414,2.4961,16.9727,7.0273c4.5254,4.5254,7.0215,10.5488,7.0254,16.9609
		c0.0059,6.4141-2.4824,12.4375-7.0078,16.9629L143.8398,80.082z"/>
	<path fill="#535353" d="M16,183.9805c-8.8223,0-16,6.8379-16,15.2441c0,7.0586,9.5273,19.5781,12.4453,23.2461
		c0.7441,0.9355,1.8672,1.4883,3.0605,1.5098c0.0234,0,0.0469,0,0.0703,0c1.1699,0,2.2812-0.5117,3.041-1.4023
		C21.7578,218.9023,32,206.3555,32,199.2246C32,190.8184,24.8223,183.9805,16,183.9805z M15.6895,213.4863
		C11.5898,207.7598,8,201.543,8,199.2246c0-3.9941,3.5879-7.2441,8-7.2441s8,3.25,8,7.2441
		C24,201.5137,20.1113,207.75,15.6895,213.4863z"/>
</g>
</svg>
