<?xml version="1.0" encoding="utf-8"?>
<!-- Generator: Adobe Illustrator 19.2.0, SVG Export Plug-In . SVG Version: 6.00 Build 0)  -->
<svg version="1.1" id="fallingstar" xmlns="http://www.w3.org/2000/svg" xmlns:xlink="http://www.w3.org/1999/xlink" x="0px"
	 y="0px" viewBox="0 0 220.6717 215.8174" enable-background="new 0 0 220.6717 215.8174" xml:space="preserve">
<g>
	<path fill="#D8D8D8" d="M168.3984,46.0811L152,12.8564l-16.3984,33.2246c-0.582,1.1816-1.707,2-3.0117,2.1895l-36.6641,5.3262
		l15.2461,14.8613C122.9502,65.4307,135.29,63.8174,148,63.8174c2.2109,0,4,1.791,4,4s-1.7891,4-4,4
		c-10.3059,0-20.3433,1.1523-30.021,3.2754l4.478,4.3652c0.8511,0.8315,1.2556,1.9941,1.1665,3.168
		c7.8398-1.8164,15.9922-2.8086,24.3765-2.8086c2.2109,0,4,1.791,4,4s-1.7891,4-4,4c-8.9211,0-17.5662,1.1914-25.8025,3.3931
		l-4.8538,28.3081l32.793-17.2422c0.5859-0.3066,1.2227-0.459,1.8633-0.459s1.2773,0.1523,1.8633,0.459l32.793,17.2422
		l-6.2617-36.5195c-0.2227-1.2969,0.207-2.6211,1.1484-3.541l26.5312-25.8613l-36.6641-5.3262
		C170.1055,48.0811,168.9805,47.2627,168.3984,46.0811z"/>
	<path fill="#535353" d="M220.4766,49.5674c-0.4727-1.4473-1.7227-2.5039-3.2305-2.7227l-42.6055-6.1895L155.5859,2.0479
		c-1.3438-2.7305-5.8281-2.7305-7.1719,0l-19.0547,38.6074l-42.6055,6.1895c-1.5078,0.2188-2.7578,1.2754-3.2305,2.7227
		c-0.4688,1.4492-0.0781,3.0371,1.0117,4.1016l17.8315,17.3799C43.0264,90.3325,0,146.1309,0,211.8174c0,2.209,1.7891,4,4,4
		s4-1.791,4-4C8,148.1934,50.6785,94.3823,108.8987,77.415l6.4685,6.3047l-0.2092,1.2197C71.6184,98.8716,40,139.7148,40,187.8174
		c0,2.209,1.7891,4,4,4s4-1.791,4-4c0-43.0664,27.3652-79.8604,65.6201-93.9092l-5.5303,32.2471
		c-0.2578,1.5,0.3594,3.0176,1.5898,3.9121c1.2383,0.8965,2.8711,1.0117,4.2148,0.3047L152,110.3369l38.1055,20.0352
		c0.5859,0.3066,1.2266,0.459,1.8633,0.459c0.8281,0,1.6523-0.2578,2.3516-0.7637c1.2305-0.8945,1.8477-2.4121,1.5898-3.9121
		l-7.2773-42.4355l30.832-30.0508C220.5547,52.6045,220.9453,51.0166,220.4766,49.5674z M181.543,79.458
		c-0.9414,0.9199-1.3711,2.2441-1.1484,3.541l6.2617,36.5195l-32.793-17.2422c-0.5859-0.3066-1.2227-0.459-1.8633-0.459
		s-1.2773,0.1523-1.8633,0.459l-32.793,17.2422l4.8538-28.3081c8.2363-2.2017,16.8813-3.3931,25.8025-3.3931c2.2109,0,4-1.791,4-4
		s-1.7891-4-4-4c-8.3843,0-16.5366,0.9922-24.3765,2.8086c0.0891-1.1738-0.3154-2.3364-1.1665-3.168l-4.478-4.3652
		c9.6777-2.123,19.7151-3.2754,30.021-3.2754c2.2109,0,4-1.791,4-4s-1.7891-4-4-4c-12.71,0-25.0498,1.6133-36.8281,4.6406
		L95.9258,53.5967l36.6641-5.3262c1.3047-0.1895,2.4297-1.0078,3.0117-2.1895L152,12.8564l16.3984,33.2246
		c0.582,1.1816,1.707,2,3.0117,2.1895l36.6641,5.3262L181.543,79.458z"/>
</g>
</svg>
