<?xml version="1.0" encoding="utf-8"?>
<!-- Generator: Adobe Illustrator 19.2.0, SVG Export Plug-In . SVG Version: 6.00 Build 0)  -->
<svg version="1.1" id="femalescientist" xmlns="http://www.w3.org/2000/svg" xmlns:xlink="http://www.w3.org/1999/xlink" x="0px"
	 y="0px" viewBox="0 0 200 222" enable-background="new 0 0 200 222" xml:space="preserve">
<g>
	<path fill="#FFFFFF" d="M74.4062,53.1328c-6.9277,9.4805-16.2793,13.0938-25.3691,16.6016
		c-2.582,0.9988-5.2173,2.0344-7.8574,3.1978c0.1208,1.4939,0.231,2.9922,0.4551,4.4702C46.9414,112.5,65.207,150,100.5508,150
		c29.9973,0,53.0652-28.3164,58.8484-72.1562C153.6492,79.2285,147.7915,80,141.8711,80
		C117.0742,80,91.5781,77.8125,74.4062,53.1328z M110,138H88c-2.209,0-4-1.7891-4-4s1.791-4,4-4h22c2.209,0,4,1.7891,4,4
		S112.209,138,110,138z M144.5801,107.4922c0.3906,3.1875-0.4727,6.332-2.4316,8.8555c-1.9688,2.5391-4.8125,4.1484-8.0098,4.5391
		l-15.8926,1.9531c-0.5,0.0625-1,0.0938-1.4941,0.0938c-2.6621,0-5.2266-0.8789-7.3496-2.5352
		c-2.5254-1.9727-4.1309-4.8242-4.5254-8.0273L104.5857,110h-9.1714l-0.2913,2.3711c-0.3945,3.2031-2,6.0547-4.5254,8.0273
		c-2.123,1.6562-4.6875,2.5352-7.3496,2.5352c-0.4961,0-0.9941-0.0312-1.4941-0.0938l-15.8965-1.9531
		c-3.1934-0.3906-6.0371-2-8.0059-4.5391c-1.959-2.5234-2.8223-5.668-2.4316-8.8555l1.457-11.8633
		c0.3945-3.2031,2-6.0547,4.5254-8.0273c2.5195-1.9648,5.6641-2.8477,8.8438-2.4414l15.8965,1.9531
		c3.1934,0.3906,6.0371,2,8.0059,4.5391c1.959,2.5234,2.8223,5.668,2.4316,8.8555L96.3967,102h7.2065l-0.1833-1.4922
		c-0.3906-3.1875,0.4727-6.332,2.4316-8.8555c1.9688-2.5391,4.8125-4.1484,8.0098-4.5391l15.8926-1.9531
		c3.1914-0.3984,6.3262,0.4766,8.8438,2.4414c2.5254,1.9727,4.1309,4.8242,4.5254,8.0273L144.5801,107.4922z"/>
	<path fill="#D8D8D8" d="M85.1699,95.0508l-15.9004-1.9531c-0.168-0.0195-0.3359-0.0312-0.502-0.0312
		c-0.8867,0-1.7383,0.293-2.4414,0.8398c-0.8398,0.6562-1.375,1.6172-1.5078,2.6992l-1.457,11.8633
		c-0.1328,1.0742,0.1562,2.1328,0.8105,2.9766c0.6504,0.8398,1.5957,1.3711,2.6582,1.5039l15.9004,1.9531
		c1.0723,0.1328,2.1094-0.1562,2.9434-0.8086c0.8398-0.6562,1.375-1.6172,1.5078-2.6992l1.457-11.8633
		c0.1328-1.0742-0.1562-2.1328-0.8105-2.9766C87.1777,95.7148,86.2324,95.1836,85.1699,95.0508z"/>
	<path fill="#D8D8D8" d="M133.6738,93.9062c-0.834-0.6484-1.8691-0.9336-2.9434-0.8086l-15.8965,1.9531
		c-1.0664,0.1328-2.0117,0.6641-2.6621,1.5039c-0.6543,0.8438-0.9434,1.9023-0.8105,2.9766l1.457,11.8633
		c0.1328,1.082,0.668,2.043,1.5078,2.6992c0.834,0.6523,1.8848,0.9375,2.9434,0.8086l15.8965-1.9531
		c1.0664-0.1328,2.0117-0.6641,2.6621-1.5039c0.6543-0.8438,0.9434-1.9023,0.8105-2.9766l-1.457-11.8633
		C135.0488,95.5234,134.5137,94.5625,133.6738,93.9062z"/>
	<path fill="#D8D8D8" d="M170.6172,128.1172c7.9668,1.168,16.209,2.375,18.1719,0.1289c0.5781-0.6602,1.6738-3.0664-0.6348-11.1484
		c-6.7332-23.561-22.2842-23.2346-23.6221-23.1284c-2.9185,12.2437-7.2542,23.0549-12.7727,32.1501
		C158.5112,126.3899,164.8975,127.2798,170.6172,128.1172z"/>
	<path fill="#D8D8D8" d="M30.9434,126.3828c5.428-0.7947,11.4514-1.6462,17.8201-1.9648
		c-5.25-9.1245-9.4065-19.9504-12.3354-32.1877c-3.3474,0.0261-16.8596,1.5652-23.0217,23.1331
		c-2.3086,8.082-1.2129,10.4883-0.6348,11.1484C14.7383,128.7617,22.9805,127.5508,30.9434,126.3828z"/>
	<path fill="#D8D8D8" d="M70.7832,43.7461c0.6641-1.3125,1.9961-2.1562,3.4688-2.1953c0.0352,0,0.0684,0,0.1016,0
		c1.4336,0,2.7617,0.7695,3.4746,2.0195C91.4512,67.4688,110.8457,72,141.8711,72c6.8801,0,13.6831-1.0906,20.2822-3.1809
		c0.3086-0.1589,0.6248-0.2629,0.9678-0.3372V50.5547C163.1211,27.0898,142.25,8,116.5957,8H84.5059
		C58.8516,8,37.9805,27.0898,37.9805,50.5547V65.582c2.7754-1.2227,5.502-2.2773,8.1758-3.3086
		C56.7559,58.1797,65.1289,54.9453,70.7832,43.7461z"/>
	<path fill="#535353" d="M138.5977,87.6016c-2.5176-1.9648-5.6523-2.8398-8.8438-2.4414l-15.8926,1.9531
		c-3.1973,0.3906-6.041,2-8.0098,4.5391c-1.959,2.5234-2.8223,5.668-2.4316,8.8555L103.6033,102h-7.2065l0.1833-1.4922
		c0.3906-3.1875-0.4727-6.332-2.4316-8.8555c-1.9688-2.5391-4.8125-4.1484-8.0059-4.5391l-15.8965-1.9531
		c-3.1797-0.4062-6.3242,0.4766-8.8438,2.4414c-2.5254,1.9727-4.1309,4.8242-4.5254,8.0273l-1.457,11.8633
		c-0.3906,3.1875,0.4727,6.332,2.4316,8.8555c1.9688,2.5391,4.8125,4.1484,8.0059,4.5391l15.8965,1.9531
		c0.5,0.0625,0.998,0.0938,1.4941,0.0938c2.6621,0,5.2266-0.8789,7.3496-2.5352c2.5254-1.9727,4.1309-4.8242,4.5254-8.0273
		L95.4143,110h9.1714l0.2913,2.3711c0.3945,3.2031,2,6.0547,4.5254,8.0273c2.123,1.6562,4.6875,2.5352,7.3496,2.5352
		c0.4941,0,0.9941-0.0312,1.4941-0.0938l15.8926-1.9531c3.1973-0.3906,6.041-2,8.0098-4.5391
		c1.959-2.5234,2.8223-5.668,2.4316-8.8555l-1.457-11.8633C142.7285,92.4258,141.123,89.5742,138.5977,87.6016z M87.1816,111.3945
		c-0.1328,1.082-0.668,2.043-1.5078,2.6992c-0.834,0.6523-1.8711,0.9414-2.9434,0.8086l-15.9004-1.9531
		c-1.0625-0.1328-2.0078-0.6641-2.6582-1.5039c-0.6543-0.8438-0.9434-1.9023-0.8105-2.9766l1.457-11.8633
		c0.1328-1.082,0.668-2.043,1.5078-2.6992c0.7031-0.5469,1.5547-0.8398,2.4414-0.8398c0.166,0,0.334,0.0117,0.502,0.0312
		l15.9004,1.9531c1.0625,0.1328,2.0078,0.6641,2.6582,1.5039c0.6543,0.8438,0.9434,1.9023,0.8105,2.9766L87.1816,111.3945z
		 M135.8281,111.4453c-0.6504,0.8398-1.5957,1.3711-2.6621,1.5039l-15.8965,1.9531c-1.0586,0.1289-2.1094-0.1562-2.9434-0.8086
		c-0.8398-0.6562-1.375-1.6172-1.5078-2.6992l-1.457-11.8633c-0.1328-1.0742,0.1562-2.1328,0.8105-2.9766
		c0.6504-0.8398,1.5957-1.3711,2.6621-1.5039l15.8965-1.9531c1.0742-0.125,2.1094,0.1602,2.9434,0.8086
		c0.8398,0.6562,1.375,1.6172,1.5078,2.6992l1.457,11.8633C136.7715,109.543,136.4824,110.6016,135.8281,111.4453z"/>
	<path fill="#535353" d="M175.9961,146H148c-1.2988,0-2.5176,0.6328-3.2676,1.6914L100,211.0625l-44.7324-63.3711
		C54.5176,146.6328,53.2988,146,52,146H24.0039C10.7676,146,0,156.7656,0,169.9961c0,2.2109,1.791,4,4,4s4-1.7891,4-4
		C8,161.1758,15.1797,154,24.0039,154h25.9238l46.8047,66.3086C97.4824,221.3672,98.7012,222,100,222s2.5176-0.6328,3.2676-1.6914
		L150.0723,154h25.9238C184.8203,154,192,161.1758,192,169.9961c0,2.2109,1.791,4,4,4s4-1.7891,4-4
		C200,156.7656,189.2324,146,175.9961,146z"/>
	<path fill="#535353" d="M18.0684,135.7578c4.0586,0,8.7949-0.6914,14.0352-1.4609c6.5059-0.9531,13.8789-2.0312,21.457-2.0312
		c0.0901,0,0.165-0.0454,0.2537-0.0513C65.792,148.7139,81.9131,158,100.5508,158c18.2185,0,34.1123-8.8459,45.9951-24.2935
		C146.9985,133.8843,147.4841,134,148,134c7.5781,0,14.9512,1.0781,21.457,2.0312c5.2402,0.7695,9.9766,1.4609,14.0352,1.4609
		c4.8242,0,8.6934-0.9805,11.3164-3.9766c4.2949-4.9062,2.6484-12.9727,1.0371-18.6133
		c-7.0649-24.729-23.335-28.3879-29.6523-28.8494c0.4443-2.4712,0.8625-4.967,1.1953-7.5374
		c0.1362-1.0515,0.1863-2.0845,0.2766-3.126c0.2874-0.1045,0.5815-0.176,0.8679-0.2842c1.5586-0.5859,2.5879-2.0781,2.5879-3.7422
		V50.5547C171.1211,22.6797,146.6602,0,116.5957,0H84.5059C54.4414,0,29.9805,22.6797,29.9805,50.5547v21.4141
		c0,1.4102,0.7402,2.7148,1.9512,3.4336c0.4705,0.2837,0.9907,0.429,1.5188,0.5002c0.1018,0.8992,0.1396,1.8047,0.2742,2.6951
		c0.2986,1.9744,0.6746,3.8679,1.0317,5.7812c-6.6912,0.6506-22.1882,4.8-29.0415,28.7891
		c-1.6113,5.6406-3.2578,13.707,1.0371,18.6133C9.375,134.7773,13.2441,135.7578,18.0684,135.7578z M188.1543,117.0977
		c2.3086,8.082,1.2129,10.4883,0.6348,11.1484c-1.9629,2.2461-10.2051,1.0391-18.1719-0.1289
		c-5.7197-0.8374-12.106-1.7273-18.8577-1.9978c5.5186-9.0952,9.8542-19.9065,12.7727-32.1501
		C165.8701,93.863,181.4211,93.5366,188.1543,117.0977z M100.5508,150c-35.3438,0-53.6094-37.5-58.916-72.5977
		c-0.2241-1.478-0.3342-2.9763-0.4551-4.4702c2.6401-1.1633,5.2754-2.199,7.8574-3.1978
		c9.0898-3.5078,18.4414-7.1211,25.3691-16.6016C91.5781,77.8125,117.0742,80,141.8711,80c5.9204,0,11.7781-0.7715,17.5281-2.1562
		C153.616,121.6836,130.5481,150,100.5508,150z M37.9805,50.5547C37.9805,27.0898,58.8516,8,84.5059,8h32.0898
		c25.6543,0,46.5254,19.0898,46.5254,42.5547v17.9272c-0.343,0.0742-0.6592,0.1782-0.9678,0.3372
		C155.5542,70.9094,148.7512,72,141.8711,72c-31.0254,0-50.4199-4.5312-64.043-28.4297c-0.7129-1.25-2.041-2.0195-3.4746-2.0195
		c-0.0332,0-0.0664,0-0.1016,0c-1.4727,0.0391-2.8047,0.8828-3.4688,2.1953c-5.6543,11.1992-14.0273,14.4336-24.627,18.5273
		c-2.6738,1.0312-5.4004,2.0859-8.1758,3.3086V50.5547z M13.4062,115.3633c6.1621-21.5679,19.6743-23.1069,23.0217-23.1331
		c2.929,12.2373,7.0854,23.0632,12.3354,32.1877c-6.3687,0.3186-12.3921,1.1702-17.8201,1.9648
		c-7.9629,1.168-16.2051,2.3789-18.1719,0.1289C12.1934,125.8516,11.0977,123.4453,13.4062,115.3633z"/>
	<path fill="#535353" d="M110,130H88c-2.209,0-4,1.7891-4,4s1.791,4,4,4h22c2.209,0,4-1.7891,4-4S112.209,130,110,130z"/>
</g>
</svg>
