<?xml version="1.0" encoding="utf-8"?>
<!-- Generator: Adobe Illustrator 19.2.0, SVG Export Plug-In . SVG Version: 6.00 Build 0)  -->
<svg version="1.1" id="flagstarplanet" xmlns="http://www.w3.org/2000/svg" xmlns:xlink="http://www.w3.org/1999/xlink" x="0px"
	 y="0px" viewBox="0 0 173.4297 234.3109" enable-background="new 0 0 173.4297 234.3109" xml:space="preserve">
<g>
	<path fill="#D8D8D8" d="M145.9805,198.3109c-4.4102,0-8,3.5898-8,8s3.5898,8,8,8s8-3.5898,8-8S150.3906,198.3109,145.9805,198.3109
		z"/>
	<path fill="#FFFFFF" d="M88.1602,47.5082l-0.6484,3.793l3.4023-1.791c1.1719-0.6133,2.5586-0.6133,3.7226,0l3.4063,1.791
		l-0.6484-3.791c-0.2227-1.2988,0.207-2.623,1.1484-3.543l2.7578-2.6855l-3.8086-0.5527c-1.3047-0.1895-2.4297-1.0078-3.0117-2.1895
		l-1.7031-3.4492l-1.7031,3.4492c-0.582,1.1816-1.707,2-3.0117,2.1895l-3.8086,0.5527l2.7578,2.6875
		C87.9531,44.8871,88.3828,46.2113,88.1602,47.5082z"/>
	<path fill="#D8D8D8" d="M89.9805,174.3109c-6.6172,0-12,5.3828-12,12s5.3828,12,12,12s12-5.3828,12-12
		S96.5977,174.3109,89.9805,174.3109z"/>
	<path fill="#D8D8D8" d="M49.9805,210.3109c-4.4102,0-8,3.5898-8,8s3.5898,8,8,8s8-3.5898,8-8S54.3906,210.3109,49.9805,210.3109z"
		/>
	<path fill="#D8D8D8" d="M95.3242,76.5727c14.6836-12.7754,41.707-8.3496,54.1562-5.3867L135.9844,9.8148
		c-7.9922-1.5801-35.0234-5.4844-57.4062,8.2656C62.457,27.9828,52.4883,30.9809,46.4805,31.4223l14.9883,56.6016
		C67.4492,88.2211,82.7422,87.5121,95.3242,76.5727z M71.8555,37.2523c0.4727-1.4473,1.7227-2.5039,3.2305-2.7227l9.7461-1.416
		l4.3594-8.832c1.3438-2.7305,5.8281-2.7305,7.1719,0l4.3594,8.832l9.75,1.416c1.5078,0.2188,2.7578,1.2754,3.2305,2.7227
		c0.4688,1.4492,0.0781,3.0391-1.0117,4.1016l-7.0586,6.875l1.668,9.707c0.2578,1.502-0.3594,3.0176-1.5898,3.9141
		c-1.2305,0.8985-2.8711,1.0137-4.2109,0.3047l-8.7227-4.584l-8.7148,4.584c-0.5859,0.3066-1.2266,0.459-1.8633,0.459
		c-0.8281,0-1.6523-0.2578-2.3516-0.7637c-1.2305-0.8945-1.8477-2.4121-1.5898-3.9121l1.6641-9.709l-7.0547-6.877
		C71.7773,40.2894,71.3867,38.6996,71.8555,37.2523z"/>
	<path fill="#D8D8D8" d="M33.5195,15.2094l-3.8633,1.0352l35.5024,132.4985c1.2649-0.4282,2.5332-0.8442,3.8132-1.2224
		L33.5195,15.2094z"/>
	<path fill="#535353" d="M150.0352,157.7914c-22.8806-13.7485-49.053-17.3743-73.3054-12.2249L63.4675,96.0717
		c8.1899-0.0276,23.7356-1.8311,37.1067-13.4639c15.7031-13.6523,52.6445-2.1465,53.0195-2.0293
		c1.3594,0.4316,2.8555,0.1055,3.9062-0.8594c1.0547-0.9629,1.5195-2.416,1.2109-3.8125L143.25,5.6019
		c-0.3203-1.4609-1.4297-2.6211-2.8789-3.0059c-1.4766-0.3945-36.5352-9.416-65.9805,8.668
		C54.9075,23.2287,46.5291,23.6928,44.0017,23.4235L40.2109,9.2758c-0.2734-1.0254-0.9453-1.8984-1.8633-2.4297
		c-0.9219-0.5312-2.0195-0.6777-3.0352-0.3984L23.7227,9.5531c-2.1328,0.5723-3.3984,2.7656-2.8281,4.8984l36.7549,137.1729
		c-18.8928,8.1047-35.5146,21.9651-46.8877,40.8936C6.0664,200.3266,2.4453,208.7055,0,217.4164l7.7031,2.1641
		c2.25-8.0234,5.5898-15.7422,9.918-22.9414c12.8594-21.4062,33.2891-36.5234,57.5195-42.5664
		c24.2383-6.0391,49.3633-2.2852,70.7773,10.5781c8.082,4.8555,15.3359,10.8438,21.5508,17.793l5.9609-5.3359
		C166.6797,169.561,158.8086,163.0648,150.0352,157.7914z M78.5781,18.0805c22.3828-13.75,49.4141-9.8457,57.4062-8.2656
		l13.4961,61.3711c-12.4492-2.9629-39.4727-7.3887-54.1562,5.3867c-12.582,10.9395-27.875,11.6484-33.8555,11.4512L46.4805,31.4223
		C52.4883,30.9809,62.457,27.9828,78.5781,18.0805z M29.6562,16.2445l3.8633-1.0352l35.4524,132.3113
		c-1.28,0.3782-2.5483,0.7942-3.8132,1.2224L29.6562,16.2445z"/>
	<path fill="#535353" d="M145.9805,190.3109c-8.8242,0-16,7.1758-16,16s7.1758,16,16,16s16-7.1758,16-16
		S154.8047,190.3109,145.9805,190.3109z M145.9805,214.3109c-4.4102,0-8-3.5898-8-8s3.5898-8,8-8s8,3.5898,8,8
		S150.3906,214.3109,145.9805,214.3109z"/>
	<path fill="#535353" d="M89.9805,166.3109c-11.0273,0-20,8.9727-20,20s8.9727,20,20,20s20-8.9727,20-20
		S101.0078,166.3109,89.9805,166.3109z M89.9805,198.3109c-6.6172,0-12-5.3828-12-12s5.3828-12,12-12s12,5.3828,12,12
		S96.5977,198.3109,89.9805,198.3109z"/>
	<path fill="#535353" d="M49.9805,202.3109c-8.8242,0-16,7.1758-16,16s7.1758,16,16,16s16-7.1758,16-16
		S58.8047,202.3109,49.9805,202.3109z M49.9805,226.3109c-4.4102,0-8-3.5898-8-8s3.5898-8,8-8s8,3.5898,8,8
		S54.3906,226.3109,49.9805,226.3109z"/>
	<path fill="#535353" d="M79.9219,48.2289l-1.6641,9.709c-0.2578,1.5,0.3594,3.0176,1.5898,3.9121
		c0.6992,0.5059,1.5234,0.7637,2.3516,0.7637c0.6367,0,1.2773-0.1523,1.8633-0.459l8.7148-4.584l8.7227,4.584
		c1.3398,0.709,2.9805,0.5938,4.2109-0.3047c1.2305-0.8965,1.8477-2.4121,1.5898-3.9141l-1.668-9.707l7.0586-6.875
		c1.0898-1.0625,1.4805-2.6523,1.0117-4.1016c-0.4727-1.4473-1.7227-2.5039-3.2305-2.7227l-9.75-1.416l-4.3594-8.832
		c-1.3438-2.7305-5.8281-2.7305-7.1719,0l-4.3594,8.832l-9.7461,1.416c-1.5078,0.2188-2.7578,1.2754-3.2305,2.7227
		c-0.4688,1.4473-0.0781,3.0371,1.0117,4.0996L79.9219,48.2289z M88.0625,40.7289c1.3047-0.1895,2.4297-1.0078,3.0117-2.1895
		l1.7031-3.4492l1.7031,3.4492c0.582,1.1816,1.707,2,3.0117,2.1895l3.8086,0.5527l-2.7578,2.6855
		c-0.9414,0.9199-1.3711,2.2441-1.1484,3.543l0.6484,3.791l-3.4063-1.791c-1.164-0.6133-2.5507-0.6133-3.7226,0l-3.4023,1.791
		l0.6484-3.793c0.2227-1.2969-0.207-2.6211-1.1484-3.5391l-2.7578-2.6875L88.0625,40.7289z"/>
</g>
</svg>
