<?xml version="1.0" encoding="utf-8"?>
<!-- Generator: Adobe Illustrator 19.2.0, SVG Export Plug-In . SVG Version: 6.00 Build 0)  -->
<svg version="1.1" id="futuristcgun" xmlns="http://www.w3.org/2000/svg" xmlns:xlink="http://www.w3.org/1999/xlink" x="0px"
	 y="0px" viewBox="0 0 236 161.5586" enable-background="new 0 0 236 161.5586" xml:space="preserve">
<g>
	<path fill="#D8D8D8" d="M91.0117,46.0039c0-3.3105-2.6914-6.0039-6-6.0039s-6,2.6934-6,6.0039v27.9922
		c0,3.3086,2.6914,6.0039,6,6.0039s6-2.6953,6-6.0039v-5.9785V51.9844V46.0039z"/>
	<path fill="#D8D8D8" d="M65.0117,40c-3.3086,0-6,2.6934-6,6.0039v27.9922c0,3.3086,2.6914,6.0039,6,6.0039s6-2.6953,6-6.0039
		V46.0039C71.0117,42.6934,68.3203,40,65.0117,40z"/>
	<path fill="#D8D8D8" d="M23.0117,56.2292C21.6584,53.7246,19.04,52,16,52c-4.4102,0-8,3.5879-8,8s3.5898,8,8,8
		c3.04,0,5.6584-1.7246,7.0117-4.2292V56.2292z"/>
	<path fill="#D8D8D8" d="M207.0117,12c0-2.2051-1.7891-4-3.9883-4H115c-2.1992,0-3.9883,1.7949-3.9883,4s1.7891,4,3.9883,4h88.0234
		C205.2227,16,207.0117,14.2051,207.0117,12z"/>
	<path fill="#D8D8D8" d="M211.0117,68.0176V51.9844c0-6.6074-5.3828-11.9844-11.9961-11.9844h-88.0078
		c-6.6133,0-11.9961,5.377-11.9961,11.9844v16.0332C99.0117,74.625,104.3945,80,111.0078,80h47.918l28.1211,66.2461
		c2.5859,6.0859,9.6289,8.957,15.7383,6.3594l8.9219-3.7891c6.0898-2.5859,8.9414-9.6484,6.3555-15.7383l-22.2578-52.4375
		l5.0781-0.7852C206.7539,78.9453,211.0117,73.9688,211.0117,68.0176z M154,72h-32v-8h32V72z M154,56h-32v-8h32V56z"/>
	<rect x="122" y="48" fill="#535353" width="32" height="8"/>
	<rect x="122" y="64" fill="#535353" width="32" height="8"/>
	<path fill="#535353" d="M212,84c13.2344,0,24-10.7656,24-24s-10.7656-24-24-24c-0.3152,0-0.594,0.1106-0.8882,0.1794
		C207.7427,33.5969,203.5808,32,199.0156,32H144v-8h59.0234c6.6094,0,11.9883-5.3828,11.9883-12s-5.3789-12-11.9883-12H115
		c-6.6094,0-11.9883,5.3828-11.9883,12S108.3906,24,115,24h21v8h-24.9922c-5.6606,0-10.7527,2.3855-14.3938,6.1753
		C94.0952,34.4519,89.8342,32,85.0117,32c-3.9189,0-7.4561,1.6289-10,4.2336C72.4678,33.6289,68.9307,32,65.0117,32
		c-7.7188,0-14,6.2812-14,14.0039V56H31.4319C29.6433,49.1189,23.4348,44,16,44C7.1758,44,0,51.1777,0,60s7.1758,16,16,16
		c7.4348,0,13.6433-5.1189,15.4319-12h19.5798v9.9961c0,7.7227,6.2812,14.0039,14,14.0039c3.9189,0,7.4561-1.6289,10-4.2336
		c2.5439,2.6047,6.0811,4.2336,10,4.2336c4.8223,0,9.083-2.4521,11.6021-6.1753C100.2546,85.6145,105.3472,88,111.0078,88H128
		c6.6172,0,12,5.3828,12,12s-5.3828,12-12,12v8c11.0273,0,20-8.9727,20-20c0-4.5198-1.564-8.647-4.1023-12h9.7312l26.0508,61.3711
		c3.2305,7.6133,10.6523,12.1914,18.4453,12.1875c2.6016,0,5.2422-0.5078,7.7852-1.5859l8.9219-3.793
		c10.1523-4.3086,14.9023-16.0742,10.5977-26.2266l-18.4922-43.5664c1.5527-0.6606,2.9695-1.5403,4.2791-2.5447
		C211.4785,83.896,211.7219,84,212,84z M111.0117,12c0-2.2051,1.7891-4,3.9883-4h88.0234c2.1992,0,3.9883,1.7949,3.9883,4
		s-1.7891,4-3.9883,4H115C112.8008,16,111.0117,14.2051,111.0117,12z M16,68c-4.4102,0-8-3.5879-8-8s3.5898-8,8-8
		c3.04,0,5.6584,1.7246,7.0117,4.2292v7.5415C21.6584,66.2754,19.04,68,16,68z M228,60c0,6.7842-4.2598,12.5591-10.2329,14.8823
		c0.7791-2.1494,1.2446-4.448,1.2446-6.8647V51.9844c0-2.4285-0.5002-4.728-1.2974-6.8831C223.7141,47.4111,228,53.1965,228,60z
		 M65.0117,80c-3.3086,0-6-2.6953-6-6.0039V46.0039c0-3.3105,2.6914-6.0039,6-6.0039s6,2.6934,6,6.0039v27.9922
		C71.0117,77.3047,68.3203,80,65.0117,80z M91.0117,73.9961c0,3.3086-2.6914,6.0039-6,6.0039s-6-2.6953-6-6.0039V46.0039
		c0-3.3105,2.6914-6.0039,6-6.0039s6,2.6934,6,6.0039v5.9805v16.0332V73.9961z M218.0625,133.0781
		c2.5859,6.0898-0.2656,13.1523-6.3555,15.7383l-8.9219,3.7891c-6.1094,2.5977-13.1523-0.2734-15.7383-6.3594L158.9258,80h-47.918
		c-6.6133,0-11.9961-5.375-11.9961-11.9824V51.9844C99.0117,45.377,104.3945,40,111.0078,40h88.0078
		c6.6133,0,11.9961,5.377,11.9961,11.9844v16.0332c0,5.9512-4.2578,10.9277-10.1289,11.8379l-5.0781,0.7852L218.0625,133.0781z"/>
</g>
</svg>
