<?xml version="1.0" encoding="utf-8"?>
<!-- Generator: Adobe Illustrator 19.2.0, SVG Export Plug-In . SVG Version: 6.00 Build 0)  -->
<svg version="1.1" id="galaxy" xmlns="http://www.w3.org/2000/svg" xmlns:xlink="http://www.w3.org/1999/xlink" x="0px" y="0px"
	 viewBox="0 0 209.2361 206.6847" enable-background="new 0 0 209.2361 206.6847" xml:space="preserve">
<g>
	<path fill="#D8D8D8" d="M94.1567,152.1721c1.4414-1.6836,3.9629-1.8672,5.6406-0.4375c1.5112,1.2957,3.0347,2.561,4.5569,3.8259
		c2.5916-2.147,5.2014-4.3584,7.8328-6.6599c-1.0654-0.907-2.1272-1.7937-3.1943-2.7207c-1.668-1.4492-1.8457-3.9727-0.3965-5.6406
		c1.4434-1.6719,3.9688-1.8555,5.6426-0.3984c1.3264,1.1523,2.6479,2.262,3.9707,3.3818
		c4.8132-4.3826,9.6714-9.0061,14.5508-13.8857c25.0664-25.0664,45.5781-51.6094,57.7617-74.7383
		c11.1465-21.1602,14.0254-37.5664,7.7031-43.8906c-2.2109-2.2109-5.6582-3.2969-10.1074-3.2969
		c-8.2734,0-20.0234,3.7539-33.7832,11c-23.1289,12.1836-49.6699,32.6953-74.7363,57.7617
		c-9.9314,9.9321-18.8308,19.7793-26.6846,29.3223c0.7634,0.1963,1.4927,0.5479,2.0459,1.1895
		c1.7202,1.9956,3.48,3.9966,5.2654,5.989c2.2703-2.6704,4.5549-5.2979,6.8293-7.8601c-1.3108-1.4404-2.6243-2.8818-3.8916-4.3086
		c-1.4648-1.6523-1.3164-4.1797,0.3359-5.6484c1.6562-1.4648,4.1836-1.3125,5.6484,0.3359
		c1.0725,1.2085,2.1895,2.4307,3.2939,3.6489c5.1562-5.6287,10.1311-10.8137,14.5713-15.2544
		c27.6602-27.6602,83.9824-75.9648,99.1348-60.8008c6.0957,6.0977,2.6562,18.9023-10.5156,39.1562
		c-11.6309,17.8828-29.4883,39.1836-50.2852,59.9766c-20.7949,20.7969-42.0957,38.6563-59.9785,50.2891
		c-13.8008,8.9766-24.1445,13.4336-31.2617,13.4336c-3.3301,0-5.9531-0.9766-7.8945-2.918
		c-10.0217-10.0217,7.6921-38.0269,28.8398-63.8513c-2.0872-2.3167-4.1501-4.6426-6.1543-6.969
		c-0.2207-0.2561-0.3318-0.5588-0.4766-0.8481c-31.7371,40.1626-44.1062,73.9236-34.2871,83.7427
		c9.8418,9.8342,43.6707-2.5759,83.8953-34.4006c-1.1472-0.9604-2.2981-1.908-3.4382-2.8845
		C92.9145,156.3752,92.7192,153.8479,94.1567,152.1721z"/>
	<circle fill="#D8D8D8" cx="104.0082" cy="104.6447" r="4"/>
	<path fill="#535353" d="M177.9106,132.426c0.7715,0,1.5508-0.2227,2.2383-0.6875c1.8281-1.2383,2.3086-3.7227,1.0703-5.5547
		c-2.9062-4.293-6.0801-8.7266-9.4355-13.1758c-1.3281-1.7617-3.8359-2.1211-5.6016-0.7812
		c-1.7637,1.3281-2.1152,3.8359-0.7852,5.6016c3.2734,4.3359,6.3672,8.6562,9.1973,12.8399
		C175.3676,131.8088,176.6274,132.426,177.9106,132.426z"/>
	<path fill="#535353" d="M3.6625,15.3948c0.5898,0.3047,1.2188,0.4492,1.8379,0.4492c1.4473,0,2.8437-0.7852,3.5547-2.1602
		c0.4785-0.9219,1.0488-1.707,1.7441-2.4023c1.8594-1.8633,4.6055-2.9531,8.1602-3.2344c2.2012-0.1758,3.8457-2.1055,3.6699-4.3047
		c-0.1758-2.207-2.0996-3.8476-4.3066-3.6719C12.8168,0.5119,8.3813,2.3791,5.1411,5.6252
		c-1.2656,1.2656-2.3379,2.7383-3.1875,4.3789C0.936,11.9651,1.7016,14.3791,3.6625,15.3948z"/>
	<path fill="#535353" d="M193.9536,160.0822c0.5703,0,1.1504-0.1211,1.7012-0.3789c1.998-0.9414,2.8574-3.3242,1.916-5.3242
		c-2.1641-4.6016-4.7441-9.4648-7.666-14.4531c-1.1191-1.9023-3.5684-2.5469-5.4727-1.4297
		c-1.9062,1.1172-2.5469,3.5703-1.4297,5.4766c2.8008,4.7812,5.2676,9.4297,7.3301,13.8125
		C191.0141,159.2346,192.4536,160.0822,193.9536,160.0822z"/>
	<path fill="#535353" d="M110.7809,160.7849c2.5237-2.1321,5.0842-4.3696,7.6643-6.6626c0.9854,0.8052,1.9817,1.6375,2.9556,2.417
		c0.7383,0.5938,1.6211,0.8789,2.498,0.8789c1.1719,0,2.334-0.5117,3.125-1.5c1.3809-1.7227,1.1016-4.2422-0.623-5.6211
		c-0.6492-0.5203-1.3164-1.0811-1.9712-1.613c4.5938-4.2371,9.2427-8.6467,13.9868-13.3909
		c63.4609-63.4609,81.0938-114.3125,65.4648-129.9414c-13.0476-13.0525-50.6602-2.8862-99.656,37.7544
		c-3.9258-3.2131-7.8652-6.3215-11.7249-9.2153c-1.7637-1.3203-4.2754-0.9648-5.5996,0.7969
		c-1.3262,1.7695-0.9688,4.2773,0.7988,5.6016c3.3928,2.5461,6.8523,5.2742,10.3101,8.0793
		c-2.5242,2.1846-5.0762,4.4504-7.6541,6.7935c-3.7803-3.158-7.542-6.2034-11.1931-9.0212
		c-1.7441-1.3398-4.2578-1.0234-5.6094,0.7227c-1.3496,1.75-1.0273,4.2617,0.7227,5.6133
		c3.3125,2.5569,6.7249,5.3181,10.1562,8.1692c-3.457,3.2566-6.9507,6.6311-10.4902,10.1707
		c-5.0581,5.0583-9.7927,10.0261-14.2749,14.9128c-0.0532-0.8049-0.2773-1.605-0.8286-2.2761
		c-3.4922-4.25-6.7812-8.4336-9.7754-12.4414c-1.3223-1.7695-3.8262-2.1367-5.5977-0.8086
		c-1.7695,1.3203-2.1328,3.8281-0.8086,5.5977c3.0664,4.1055,6.4316,8.3867,10.002,12.7305
		c0.791,0.9648,1.9375,1.4609,3.0918,1.4609c0.021,0,0.0413-0.0105,0.0625-0.0107C7.2319,144.3652-5.5411,186.7378,8.477,200.7541
		c3.5215,3.5234,8.8301,5.3555,15.6719,5.3555c17.8699,0,46.196-12.5491,80.3308-40.1262c0.8684,0.6958,1.74,1.4146,2.6047,2.095
		c0.7324,0.5742,1.6035,0.8555,2.4707,0.8555c1.1836,0,2.3555-0.5234,3.1465-1.5273c1.3652-1.7344,1.0645-4.25-0.6719-5.6172
		C111.6152,161.4631,111.1965,161.1147,110.7809,160.7849z M14.1332,195.0979c-9.8191-9.8191,2.55-43.5801,34.2871-83.7427
		c0.1448,0.2893,0.2559,0.592,0.4766,0.8481c2.0042,2.3264,4.0671,4.6523,6.1543,6.969
		c-21.1477,25.8245-38.8616,53.8296-28.8398,63.8513c1.9414,1.9414,4.5645,2.918,7.8945,2.918
		c7.1172,0,17.4609-4.457,31.2617-13.4336c17.8828-11.6328,39.1836-29.4922,59.9785-50.2891
		c20.7969-20.793,38.6543-42.0938,50.2852-59.9766c13.1719-20.2539,16.6113-33.0586,10.5156-39.1562
		c-15.1523-15.1641-71.4746,33.1406-99.1348,60.8008c-4.4402,4.4407-9.415,9.6257-14.5713,15.2544
		c-1.1045-1.2183-2.2214-2.4404-3.2939-3.6489c-1.4648-1.6484-3.9922-1.8008-5.6484-0.3359
		c-1.6523,1.4688-1.8008,3.9961-0.3359,5.6484c1.2673,1.4268,2.5808,2.8682,3.8916,4.3086
		c-2.2744,2.5623-4.5591,5.1897-6.8293,7.8601c-1.7854-1.9924-3.5452-3.9934-5.2654-5.989
		c-0.5532-0.6416-1.2825-0.9932-2.0459-1.1895c7.8538-9.543,16.7532-19.3901,26.6846-29.3223
		c25.0664-25.0664,51.6074-45.5781,74.7363-57.7617c13.7598-7.2461,25.5098-11,33.7832-11c4.4492,0,7.8965,1.0859,10.1074,3.2969
		c6.3223,6.3242,3.4434,22.7305-7.7031,43.8906c-12.1836,23.1289-32.6953,49.6719-57.7617,74.7383
		c-4.8794,4.8796-9.7375,9.5032-14.5508,13.8857c-1.3228-1.1199-2.6443-2.2295-3.9707-3.3818
		c-1.6738-1.457-4.1992-1.2734-5.6426,0.3984c-1.4492,1.668-1.2715,4.1914,0.3965,5.6406c1.0671,0.927,2.1289,1.8137,3.1943,2.7207
		c-2.6313,2.3015-5.2412,4.5129-7.8328,6.6599c-1.5222-1.2649-3.0457-2.5303-4.5569-3.8259
		c-1.6777-1.4297-4.1992-1.2461-5.6406,0.4375c-1.4375,1.6758-1.2422,4.2031,0.4336,5.6406
		c1.1401,0.9766,2.291,1.9241,3.4382,2.8845C57.8039,192.5219,23.975,204.9321,14.1332,195.0979z M62.6039,125.5119
		c0.9766,0,1.9551-0.3555,2.7246-1.0703c1.5798-1.4729,1.679-3.9111,0.28-5.5312c2.1772-2.5823,4.4673-5.2258,6.8689-7.9329
		c0.5378,0.5725,1.0549,1.1401,1.5991,1.7141c0.7871,0.8281,1.8438,1.2461,2.9023,1.2461c0.9883,0,1.9785-0.3633,2.752-1.0977
		c1.6035-1.5195,1.6699-4.0508,0.1504-5.6562c-0.6895-0.7268-1.3474-1.4468-2.0266-2.1714
		c4.5879-4.9912,9.4807-10.1357,14.8137-15.4692c43.1523-43.1484,75.8906-61.5117,85.4648-61.5117
		c1.0938,0,1.8867,0.2422,2.3574,0.7109c1.2441,1.2461,1.5938,8.9063-11.5645,29.1367
		c-11.3379,17.4297-28.8223,38.2695-49.2363,58.6836c-5.3489,5.3489-10.7244,10.481-16.063,15.3701
		c-0.1196-0.8848-0.4788-1.7446-1.1831-2.4014c-3.7949-3.5313-7.6191-7.1992-11.4551-11c-1.5684-1.5469-4.1035-1.543-5.6562,0.0273
		c-1.5547,1.5703-1.543,4.1055,0.0273,5.6602c3.8945,3.8555,7.7812,7.5859,11.6348,11.1719
		c0.5203,0.4834,1.1458,0.7412,1.7917,0.8972c-3.2397,2.885-6.4634,5.7012-9.6426,8.3669c0.1677-1.2458-0.1797-2.543-1.1707-3.4634
		c-3.8301-3.5547-7.6758-7.2539-11.4238-10.9961c-1.5684-1.5625-4.1016-1.5625-5.6582,0.0078
		c-1.5605,1.5625-1.5566,4.0938,0.0059,5.6562c3.8184,3.8086,7.7324,7.5781,11.6348,11.1992
		c0.6931,0.6438,1.5591,0.9507,2.4351,1.0137c-8.405,6.8489-16.5059,12.8789-23.9624,17.7285
		c-20.2324,13.1602-27.8926,12.8164-29.1367,11.5664c-3.3601-3.3616,5.1069-23.1892,28.77-52.4541
		C61.2526,125.2675,61.9125,125.5119,62.6039,125.5119z"/>
	<path fill="#535353" d="M198.6313,167.1369c-2.1152,0.6328-3.3164,2.8633-2.6836,4.9805c1.4922,4.9805,2.248,9.3945,2.248,13.125
		c0,0.4297-0.0098,0.8555-0.0312,1.2734c-0.1074,2.207,1.5937,4.082,3.8008,4.1914c0.0664,0.0039,0.1328,0.0039,0.1992,0.0039
		c2.1191,0,3.8867-1.6641,3.9922-3.8047c0.0254-0.543,0.0391-1.1016,0.0391-1.6641c0-4.5078-0.8691-9.6953-2.584-15.4219
		C202.977,167.7033,200.7465,166.5197,198.6313,167.1369z"/>
	<path fill="#535353" d="M137.7895,180.0354c-4.2559-2.6641-8.6641-5.6133-13.1055-8.7695
		c-1.8047-1.2812-4.2969-0.8555-5.5781,0.9453c-1.2793,1.8008-0.8555,4.2969,0.9453,5.5781
		c4.5664,3.2422,9.1074,6.2812,13.4922,9.0273c0.6602,0.4141,1.3945,0.6094,2.1191,0.6094c1.332,0,2.6348-0.6641,3.3945-1.8789
		C140.2289,183.676,139.6606,181.2072,137.7895,180.0354z"/>
	<path fill="#535353" d="M193.0082,196.8244c-2.0859,1.2344-4.8613,1.8594-8.2578,1.8594c-1.5-0.1211-3.041-0.1133-4.7188-0.3516
		c-2.1543-0.3008-4.209,1.2188-4.5195,3.4023c-0.3086,2.1875,1.2148,4.2109,3.4023,4.5195
		c2.0254,0.2852,3.9688,0.4297,5.7676,0.4297c4.8281,0.0352,9.0449-0.9883,12.3965-2.9688c1.9023-1.125,2.5332-3.5781,1.4082-5.4805
		C197.3618,196.3362,194.9067,195.7072,193.0082,196.8244z"/>
	<path fill="#535353" d="M165.5063,194.3362c-4.416-1.6953-9.168-3.8672-14.123-6.4609c-1.9609-1.0312-4.377-0.2656-5.4004,1.6875
		c-1.0234,1.957-0.2676,4.375,1.6895,5.3984c5.2285,2.7383,10.2656,5.0391,14.9707,6.8438
		c0.4707,0.1797,0.9551,0.2656,1.4316,0.2656c1.6074,0,3.125-0.9766,3.7344-2.5664
		C168.6,197.4416,167.5707,195.1252,165.5063,194.3362z"/>
	<path fill="#535353" d="M8.4028,46.8596c0.4844,0,0.9785-0.0898,1.457-0.2773c2.0566-0.8047,3.0723-3.125,2.2656-5.1836
		c-2.0957-5.3438-3.5-10.2266-4.1738-14.5117c-0.3457-2.1836-2.3945-3.6484-4.5723-3.332
		c-2.1816,0.3438-3.6738,2.3906-3.3301,4.5742c0.7637,4.8555,2.3203,10.3047,4.627,16.1914
		C5.2953,45.8986,6.8032,46.8596,8.4028,46.8596z"/>
	<path fill="#535353" d="M13.2641,53.8322c-1.9531,1.0352-2.6973,3.4531-1.6641,5.4062c2.4023,4.5352,5.1602,9.2773,8.1992,14.0937
		c0.7598,1.207,2.0586,1.8672,3.3867,1.8672c0.7285,0,1.4688-0.1992,2.1309-0.6172c1.8672-1.1797,2.4277-3.6484,1.248-5.5156
		c-2.9316-4.6484-5.5879-9.2148-7.8945-13.5703C17.6371,53.5432,15.2192,52.801,13.2641,53.8322z"/>
	<path fill="#535353" d="M33.309,10.008c4.3809,1.2617,9.2109,3.1133,14.3555,5.4961c0.5449,0.2539,1.1152,0.3711,1.6797,0.3711
		c1.5098,0,2.9551-0.8594,3.6309-2.3164c0.9297-2.0078,0.0566-4.3828-1.9473-5.3125c-5.5156-2.5547-10.7305-4.5508-15.5039-5.9258
		c-2.1211-0.6094-4.3398,0.6133-4.9512,2.7344C29.9614,7.1799,31.186,9.3948,33.309,10.008z"/>
	<path fill="#535353" d="M61.5063,22.7697c4.3086,2.5,8.793,5.3125,13.3301,8.3594c0.6855,0.4609,1.459,0.6797,2.2266,0.6797
		c1.2871,0,2.5527-0.6211,3.3242-1.7695c1.2324-1.832,0.7441-4.3203-1.0898-5.5508c-4.6816-3.1445-9.3164-6.0508-13.7754-8.6406
		c-1.9121-1.1055-4.3555-0.4531-5.4668,1.4531C58.9457,19.2111,59.5961,21.6604,61.5063,22.7697z"/>
	<path fill="#535353" d="M29.7934,81.215c-1.7969,1.2852-2.2129,3.7812-0.9277,5.582c3.0273,4.2344,6.3027,8.5859,9.7344,12.9336
		c0.7891,1,1.9609,1.5234,3.1426,1.5234c0.8691,0,1.7422-0.2812,2.4766-0.8593c1.7344-1.3672,2.0293-3.8829,0.6621-5.6172
		c-3.3555-4.25-6.5527-8.5039-9.5078-12.6367C34.0883,80.3479,31.5903,79.9299,29.7934,81.215z"/>
	<path fill="#535353" d="M182.5766,178.4377c-1.3516-1.75-3.8594-2.0781-5.6094-0.7344c-1.0039,0.7695-3.5645,1.2852-11.3574-1.9375
		c-2.0449-0.8477-4.3828,0.125-5.2246,2.1641c-0.8457,2.043,0.125,4.3828,2.166,5.2266c4.8926,2.0273,8.9102,3.0117,12.2793,3.0117
		c2.8223,0,5.1816-0.7148,7.0117-2.1211C183.5942,182.6994,183.9223,180.1877,182.5766,178.4377z"/>
	<path fill="#535353" d="M175.6918,167.2893c0.6152,1.5859,2.127,2.5547,3.7305,2.5547c0.4805,0,0.9707-0.0859,1.4453-0.2695
		c2.0586-0.7969,3.082-3.1133,2.2852-5.1758c-1.6758-4.3242-4.2109-9.3281-7.5371-14.8672
		c-1.1367-1.8945-3.5938-2.5039-5.4883-1.3711c-1.8945,1.1367-2.5078,3.5938-1.3711,5.4883
		C171.8481,158.7971,174.1821,163.3869,175.6918,167.2893z"/>
	<path fill="#535353" d="M46.7114,29.4924c-1.0684,1.9336-0.3652,4.3672,1.5684,5.4336c4.0605,2.2422,8.5215,5.0234,13.2559,8.2578
		c0.6914,0.4727,1.4766,0.6992,2.2539,0.6992c1.2773,0,2.5312-0.6094,3.3066-1.7422c1.2461-1.8242,0.7793-4.3125-1.0449-5.5586
		c-4.9453-3.3828-9.623-6.293-13.9043-8.6563C50.2133,26.8518,47.7797,27.5627,46.7114,29.4924z"/>
	<path fill="#535353" d="M138.9653,159.8752c-1.7891-1.2852-4.293-0.8789-5.584,0.9062c-1.293,1.793-0.8867,4.293,0.9043,5.5859
		c4.7559,3.4297,9.3145,6.4805,13.5469,9.0703c0.6504,0.3984,1.373,0.5898,2.084,0.5898c1.3457,0,2.6602-0.6797,3.416-1.9102
		c1.1523-1.8867,0.5605-4.3477-1.3242-5.5C147.9477,166.1291,143.559,163.1916,138.9653,159.8752z"/>
	<path fill="#535353" d="M163.3715,142.2424c0.8027,0,1.6133-0.2422,2.3184-0.7422c1.7988-1.2852,2.2168-3.7812,0.9355-5.5781
		c-2.9629-4.1562-6.252-8.5078-9.7734-12.9375c-1.3789-1.7305-3.8906-2.0156-5.6211-0.6367
		c-1.7285,1.375-2.0156,3.8906-0.6406,5.6211c3.4355,4.3164,6.6387,8.5547,9.5195,12.5938
		C160.8911,141.6604,162.1215,142.2424,163.3715,142.2424z"/>
	<path fill="#535353" d="M32.2387,44.6955c-0.9766-1.9805-3.373-2.7969-5.3574-1.8164c-1.9824,0.9766-2.7949,3.375-1.8184,5.3555
		c2.125,4.3086,4.9043,9.1016,8.2578,14.2539c0.7656,1.1758,2.0469,1.8164,3.3555,1.8164c0.748,0,1.5059-0.2109,2.1777-0.6484
		c1.8516-1.2031,2.375-3.6836,1.1699-5.5352C36.8422,53.2346,34.2231,48.719,32.2387,44.6955z"/>
	<path fill="#535353" d="M23.9008,35.2736c2.209,0,4-1.832,4-4.043c0-1.0898,0.1973-1.8867,0.5508-2.2422
		c0.707-0.7031,3.1309-0.7422,6.1133,0.0156c2.1504,0.5352,4.3164-0.7578,4.8594-2.8945c0.543-2.1445-0.752-4.3203-2.8945-4.8633
		c-6.2012-1.5664-10.7949-0.8477-13.7324,2.0859c-1.9219,1.9219-2.8965,4.582-2.8965,7.9805
		C19.9008,33.5236,21.6918,35.2736,23.9008,35.2736z"/>
	<path fill="#535353" d="M104.0082,116.6447c6.6172,0,12-5.3828,12-12s-5.3828-12-12-12s-12,5.3828-12,12
		S97.3911,116.6447,104.0082,116.6447z M104.0082,100.6447c2.2051,0,4,1.793,4,4s-1.7949,4-4,4s-4-1.793-4-4
		S101.8032,100.6447,104.0082,100.6447z"/>
</g>
</svg>
