<?xml version="1.0" encoding="utf-8"?>
<!-- Generator: Adobe Illustrator 19.2.0, SVG Export Plug-In . SVG Version: 6.00 Build 0)  -->
<svg version="1.1" id="heatnucleus" xmlns="http://www.w3.org/2000/svg" xmlns:xlink="http://www.w3.org/1999/xlink" x="0px"
	 y="0px" viewBox="0 0 151.0625 222.459" enable-background="new 0 0 151.0625 222.459" xml:space="preserve">
<g>
	<path fill="#D8D8D8" d="M89.1504,80.7676l-3.25-0.6641l0.0664-4.709c0-27.041-16.25-51.2969-40.498-61.9043
		c3.668,9.0078,5.5781,18.707,5.5781,28.5234c0,21.4492-14.1602,42.0195-24.502,57.041c-1.6113,2.3418-3.1504,4.5762-4.5508,6.6895
		C12.7852,117.8086,8,131.9746,8,146.9277c0,37.2363,30.2949,67.5312,67.5312,67.5312c18.0391,0,34.998-7.0254,47.752-19.7793
		c12.7539-12.7559,19.7793-29.7148,19.7793-47.752C143.0625,114.9863,120.3887,87.1621,89.1504,80.7676z M75.5312,206.459
		c-19.8496,0-36-16.1504-36-36s16.1504-36,36-36s36,16.1504,36,36S95.3809,206.459,75.5312,206.459z"/>
	<path fill="#FFFFFF" d="M75.5312,142.459c-15.4395,0-28,12.5605-28,28s12.5605,28,28,28s28-12.5605,28-28
		S90.9707,142.459,75.5312,142.459z"/>
	<path fill="#535353" d="M93.9473,73.6562C93.1836,40.5488,70.6699,11.4824,38.6699,2.6055L29.2793,0l4.8516,8.4512
		c5.832,10.1602,8.916,21.7676,8.916,33.5625c0,18.9609-12.8027,37.5605-23.0898,52.5039
		c-1.6406,2.3828-3.2051,4.6562-4.4746,6.5859C5.3535,114.3574,0,130.2031,0,146.9277c0,41.6484,33.8828,75.5312,75.5312,75.5312
		c20.1777,0,39.1445-7.8574,53.4082-22.123c14.2656-14.2656,22.123-33.2324,22.123-53.4082
		C151.0625,112.3008,127.2344,82,93.9473,73.6562z M123.2832,194.6797c-12.7539,12.7539-29.7129,19.7793-47.752,19.7793
		C38.2949,214.459,8,184.1641,8,146.9277c0-14.9531,4.7852-29.1191,13.9941-41.1836c1.4004-2.1133,2.9395-4.3477,4.5508-6.6895
		c10.3418-15.0215,24.502-35.5918,24.502-57.041c0-9.8164-1.9102-19.5156-5.5781-28.5234
		c24.248,10.6074,40.498,34.8633,40.498,61.9043l-0.0664,4.709l3.25,0.6641c31.2383,6.3945,53.9121,34.2188,53.9121,66.1602
		C143.0625,164.9648,136.0371,181.9238,123.2832,194.6797z"/>
	<path fill="#535353" d="M75.5312,134.459c-19.8496,0-36,16.1504-36,36s16.1504,36,36,36s36-16.1504,36-36
		S95.3809,134.459,75.5312,134.459z M75.5312,198.459c-15.4395,0-28-12.5605-28-28s12.5605-28,28-28s28,12.5605,28,28
		S90.9707,198.459,75.5312,198.459z"/>
</g>
</svg>
