<?xml version="1.0" encoding="utf-8"?>
<!-- Generator: Adobe Illustrator 19.2.0, SVG Export Plug-In . SVG Version: 6.00 Build 0)  -->
<svg version="1.1" id="heatfirelamp" xmlns="http://www.w3.org/2000/svg" xmlns:xlink="http://www.w3.org/1999/xlink" x="0px"
	 y="0px" viewBox="0 0 200 219.9478" enable-background="new 0 0 200 219.9478" xml:space="preserve">
<g>
	<path fill="#D8D8D8" d="M136,171.9478h-22v-8h21.2612c-1.6599-4.646-6.0676-8-11.2847-8H108h-8H80.0234
		c-6.6289,0-12.0234,5.3828-12.0234,12v12h68V171.9478z"/>
	<path fill="#D8D8D8" d="M128,107.9478v-20H80v20c0,11.0273,8.9688,20,19.9922,20h8.0156
		C119.0312,127.9478,128,118.9751,128,107.9478z"/>
	<path fill="#D8D8D8" d="M103.7383,62.0063c11.0547,0,20.0508-8.9941,20.0508-20.0508c0-7.6113-11.3242-22.5859-20.0508-32.166
		c-8.7266,9.5801-20.0469,24.5547-20.0469,32.166C83.6914,53.0122,92.6836,62.0063,103.7383,62.0063z"/>
	<polygon fill="#D8D8D8" points="64,187.9478 8,187.9478 8,211.9478 192,211.9478 192,187.9478 140,187.9478 	"/>
	<path fill="#535353" d="M103.7383,70.0063c15.4688,0,28.0508-12.584,28.0508-28.0508c0-14.4883-22.6055-38.1465-25.1836-40.7969
		c-1.5117-1.5469-4.2305-1.543-5.7344,0C98.293,3.8091,75.6914,27.4692,75.6914,41.9556
		C75.6914,57.4224,88.2734,70.0063,103.7383,70.0063z M103.7383,9.7896c8.7266,9.5801,20.0508,24.5547,20.0508,32.166
		c0,11.0566-8.9961,20.0508-20.0508,20.0508s-20.0469-8.9941-20.0469-20.0508C83.6914,34.3442,95.0117,19.3696,103.7383,9.7896z"/>
	<path fill="#535353" d="M196,179.9478h-52v-8h36v-2v-6v-26.3301h-8v26.3301h-28.405c-1.8611-9.1172-9.9504-16-19.6184-16H108v-12
		h0.0078c15.4336,0,27.9922-12.5605,27.9922-28v-24c0-2.209-1.7891-4-4-4H76c-2.2109,0-4,1.791-4,4v24
		c0,15.4395,12.5586,28,27.9922,28H100v12H80.0234c-11.0391,0-20.0234,8.9727-20.0234,20v12H4c-2.2109,0-4,1.791-4,4v32
		c0,2.209,1.7891,4,4,4h192c2.2109,0,4-1.791,4-4v-32C200,181.7388,198.2109,179.9478,196,179.9478z M80,107.9478v-20h48v20
		c0,11.0273-8.9688,20-19.9922,20h-8.0156C88.9688,127.9478,80,118.9751,80,107.9478z M68,167.9478c0-6.6172,5.3945-12,12.0234-12
		H100h8h15.9766c5.217,0,9.6248,3.354,11.2847,8H114v8h22v8H68V167.9478z M192,211.9478H8v-24h56h76h52V211.9478z"/>
</g>
</svg>
