<?xml version="1.0" encoding="utf-8"?>
<!-- Generator: Adobe Illustrator 19.2.0, SVG Export Plug-In . SVG Version: 6.00 Build 0)  -->
<svg version="1.1" id="heatflasklab" xmlns="http://www.w3.org/2000/svg" xmlns:xlink="http://www.w3.org/1999/xlink" x="0px"
	 y="0px" viewBox="0 0 156 220" enable-background="new 0 0 156 220" xml:space="preserve">
<g>
	<path fill="#D8D8D8" d="M78.168,180c5.9141,0,10.7266-4.8125,10.7266-10.7266c0-3.7578-5.5918-11.5352-10.7266-17.375
		c-5.1348,5.8398-10.7266,13.6172-10.7266,17.375C67.4414,175.1875,72.2539,180,78.168,180z"/>
	<polygon fill="#D8D8D8" points="92,60.9453 92,20 64,20 64,60.9453 38.4727,112 117.5273,112 	"/>
	<path fill="#D8D8D8" d="M64,206c0,3.3086,2.7031,6,6.0273,6h15.9453C89.2969,212,92,209.3086,92,206v-6H64V206z"/>
	<polygon fill="#D8D8D8" points="25.5273,120 8,120 8,128 148,128 148,120 130.4727,120 	"/>
	<path fill="#535353" d="M156,112h-29.5273L100,59.0547V12H56v47.0547L29.5273,112H0v24h32v84h8v-84h76v84h8v-84h32V112z
		 M64,60.9453V20h28v40.9453L117.5273,112H38.4727L64,60.9453z M148,128H8v-8h17.5273h104.9453H148V128z"/>
	<path fill="#535353" d="M78.168,188c10.3262,0,18.7266-8.4023,18.7266-18.7266c0-9.2852-13.2109-23.3398-15.8594-26.0625
		c-1.5039-1.5469-4.2305-1.5469-5.7344,0c-2.6484,2.7227-15.8594,16.7773-15.8594,26.0625C59.4414,179.5977,67.8418,188,78.168,188z
		 M78.168,151.8984c5.1348,5.8398,10.7266,13.6172,10.7266,17.375C88.8945,175.1875,84.082,180,78.168,180
		s-10.7266-4.8125-10.7266-10.7266C67.4414,165.5156,73.0332,157.7383,78.168,151.8984z"/>
	<path fill="#535353" d="M96,192H60c-2.209,0-4,1.7891-4,4v10c0,7.7188,6.293,14,14.0273,14h15.9453
		C93.707,220,100,213.7188,100,206v-10C100,193.7891,98.209,192,96,192z M92,206c0,3.3086-2.7031,6-6.0273,6H70.0273
		C66.7031,212,64,209.3086,64,206v-6h28V206z"/>
	<rect x="60" fill="#535353" width="36" height="8"/>
</g>
</svg>
