<?xml version="1.0" encoding="utf-8"?>
<!-- Generator: Adobe Illustrator 19.2.0, SVG Export Plug-In . SVG Version: 6.00 Build 0)  -->
<svg version="1.1" id="heatflask" xmlns="http://www.w3.org/2000/svg" xmlns:xlink="http://www.w3.org/1999/xlink" x="0px" y="0px"
	 viewBox="0 0 216 168" enable-background="new 0 0 216 168" xml:space="preserve">
<g>
	<circle fill="#D8D8D8" cx="144" cy="104" r="4"/>
	<path fill="#D8D8D8" d="M128,125.9766C128,144.7383,143.2539,160,162,160s34-15.2617,34-34.0234V80h-68V125.9766z M172,142
		c0,5.5156-4.4844,10-10,10s-10-4.4844-10-10s4.4844-10,10-10S172,136.4844,172,142z M144,92c6.6172,0,12,5.3828,12,12
		s-5.3828,12-12,12s-12-5.3828-12-12S137.3828,92,144,92z"/>
	<circle fill="#D8D8D8" cx="162" cy="142" r="2"/>
	<polygon fill="#FFFFFF" points="8,44 8,50.7148 120,63.5156 120,44 	"/>
	<path fill="#FFFFFF" d="M180,40c0,2.2109-1.7891,4-4,4h-48v24v4h68V24h-16V40z M184,60c0,4.4102-3.5898,8-8,8s-8-3.5898-8-8
		s3.5898-8,8-8S184,55.5898,184,60z"/>
	<polygon fill="#D8D8D8" points="168,16 176,16 200,16 208,16 208,8 168,8 	"/>
	<path fill="#535353" d="M212,0h-48c-2.2109,0-4,1.7891-4,4v16c0,2.2109,1.7891,4,4,4h8v12h-48H4c-2.2109,0-4,1.7891-4,4v14.2852
		c0,2.0352,1.5273,3.7422,3.5469,3.9727L120,71.5674V76v49.9766C120,149.1484,138.8398,168,162,168s42-18.8516,42-42.0234V76V24h8
		c2.2109,0,4-1.7891,4-4V4C216,1.7891,214.2109,0,212,0z M8,50.7148V44h112v19.5156L8,50.7148z M196,125.9766
		C196,144.7383,180.7461,160,162,160s-34-15.2617-34-34.0234V80h68V125.9766z M196,72h-68v-4V44h48c2.2109,0,4-1.7891,4-4V24h16V72z
		 M208,16h-8h-24h-8V8h40V16z"/>
	<path fill="#535353" d="M144,116c6.6172,0,12-5.3828,12-12s-5.3828-12-12-12s-12,5.3828-12,12S137.3828,116,144,116z M144,100
		c2.207,0,4,1.793,4,4s-1.793,4-4,4s-4-1.793-4-4S141.793,100,144,100z"/>
	<path fill="#535353" d="M152,142c0,5.5156,4.4844,10,10,10s10-4.4844,10-10s-4.4844-10-10-10S152,136.4844,152,142z M162,140
		c1.1016,0,2,0.8984,2,2s-0.8984,2-2,2s-2-0.8984-2-2S160.8984,140,162,140z"/>
	<path fill="#535353" d="M168,60c0,4.4102,3.5898,8,8,8s8-3.5898,8-8s-3.5898-8-8-8S168,55.5898,168,60z"/>
</g>
</svg>
