<?xml version="1.0" encoding="utf-8"?>
<!-- Generator: Adobe Illustrator 19.2.0, SVG Export Plug-In . SVG Version: 6.00 Build 0)  -->
<svg version="1.1" id="heatspike" xmlns="http://www.w3.org/2000/svg" xmlns:xlink="http://www.w3.org/1999/xlink" x="0px" y="0px"
	 viewBox="0 0 163.4297 211.9961" enable-background="new 0 0 163.4297 211.9961" xml:space="preserve">
<g>
	<path fill="#D8D8D8" d="M95.082,99.8125c-2.9492-2.3906-6-4.8672-8.3906-8.1992c-2.1094-2.9453-3.7305-5.7656-4.9766-8.3164
		c-1.2461,2.5508-2.8672,5.3711-4.9766,8.3125c-2.3906,3.3359-5.4414,5.8125-8.3906,8.2031
		c-5.1953,4.2148-9.3008,7.543-9.3008,14.5156c0,12.5,10.168,22.668,22.668,22.668s22.668-10.168,22.668-22.668
		C104.3828,107.3555,100.2773,104.0273,95.082,99.8125z"/>
	<path fill="#FFFFFF" d="M110.9648,90.5195c-5.6952-4.6172-11.5819-9.3906-16.0468-15.6211
		c-6.5547-9.1523-10.6602-17.6289-13.2031-24.2773c-2.543,6.6484-6.6484,15.125-13.2031,24.2734
		c-4.4648,6.2344-10.3516,11.0078-16.047,15.625c-10.7773,8.7422-20.0819,16.2891-20.0819,32.1445
		c0,27.2031,22.1289,49.332,49.332,49.332s49.332-22.1289,49.332-49.332C131.0469,106.8086,121.7422,99.2617,110.9648,90.5195z
		 M81.7148,144.9961c-16.9102,0-30.668-13.7578-30.668-30.668c0-10.7852,6.5156-16.0664,12.2617-20.7305
		c2.6562-2.1523,5.1641-4.1875,6.9297-6.6484c6.3906-8.9219,7.5039-16.4141,7.5117-16.4883
		c0.2773-1.9766,1.9688-3.4531,3.9648-3.4531c0.0039,0,0.0117,0,0.0195,0c2,0.0078,3.6875,1.4883,3.9453,3.4727
		c0.0078,0.0547,1.1211,7.5469,7.5117,16.4727c1.7656,2.457,4.2733,4.4922,6.9297,6.6445
		c5.7461,4.6641,12.2617,9.9453,12.2617,20.7305C112.3828,131.2383,98.625,144.9961,81.7148,144.9961z"/>
	<path fill="#D8D8D8" d="M125.4922,82.0312c-8.2031-6.6562-16.6875-13.5352-23.0508-22.4219
		C91.3438,44.125,85.1328,30.0156,81.7148,19.9453c-3.418,10.0703-9.6289,24.1797-20.7266,39.6641
		C54.625,68.4961,46.1406,75.375,37.9375,82.0312C22.5391,94.5156,8,106.3086,8,130.2812c0,40.6445,33.0664,73.7148,73.7148,73.7148
		s73.7148-33.0703,73.7148-73.7148C155.4297,106.3086,140.8906,94.5156,125.4922,82.0312z M81.7148,179.9961
		c-31.6133,0-57.332-25.7188-57.332-57.332c0-19.668,12.2422-29.5977,23.043-38.3555c5.5273-4.4805,10.7461-8.7148,14.5859-14.0742
		C75.4609,51.4609,77.7266,35.6289,77.75,35.4688C78.0195,33.4844,79.7109,32,81.7148,32c0.0039,0,0.0039,0,0.0078,0
		c2.0078,0.0039,3.6992,1.4922,3.957,3.4805c0.0234,0.1484,2.2891,15.9805,15.7383,34.7578
		c3.8398,5.3555,9.0586,9.5898,14.5859,14.0703c10.8008,8.7578,23.043,18.6875,23.043,38.3555
		C139.0469,154.2773,113.3281,179.9961,81.7148,179.9961z"/>
	<path fill="#535353" d="M116.0039,84.3086c-5.5273-4.4805-10.7461-8.7148-14.5859-14.0703
		C87.9688,51.4609,85.7031,35.6289,85.6797,35.4805c-0.2578-1.9883-1.9492-3.4766-3.957-3.4805c-0.0039,0-0.0039,0-0.0078,0
		c-2.0039,0-3.6953,1.4844-3.9648,3.4688c-0.0234,0.1602-2.2891,15.9922-15.7383,34.7656
		c-3.8398,5.3594-9.0586,9.5938-14.5859,14.0742c-10.8008,8.7578-23.043,18.6875-23.043,38.3555
		c0,31.6133,25.7188,57.332,57.332,57.332s57.332-25.7188,57.332-57.332C139.0469,102.9961,126.8047,93.0664,116.0039,84.3086z
		 M81.7148,171.9961c-27.2031,0-49.332-22.1289-49.332-49.332c0-15.8555,9.3047-23.4023,20.0819-32.1445
		c5.6954-4.6172,11.5821-9.3906,16.047-15.625c6.5547-9.1484,10.6602-17.625,13.2031-24.2734
		c2.543,6.6484,6.6484,15.125,13.2031,24.2773c4.4648,6.2305,10.3516,11.0039,16.0468,15.6211
		c10.7774,8.7422,20.0821,16.2891,20.0821,32.1445C131.0469,149.8672,108.918,171.9961,81.7148,171.9961z"/>
	<path fill="#535353" d="M130.5312,75.8164c-8.1484-6.6094-15.8477-12.8555-21.5898-20.8633
		C89.0352,27.1641,85.7109,3.707,85.6797,3.4727C85.4141,1.4844,83.7188,0,81.7148,0c0,0-0.0039,0-0.0078,0
		c-2.0039,0.0039-3.6992,1.4883-3.957,3.4805c-0.0312,0.2305-3.2578,23.5508-23.2617,51.4727
		c-5.7422,8.0078-13.4414,14.2539-21.5898,20.8633C16.7227,88.9336,0,102.4961,0,130.2812
		c0,45.0586,36.6562,81.7148,81.7148,81.7148s81.7148-36.6562,81.7148-81.7148C163.4297,102.4961,146.707,88.9336,130.5312,75.8164z
		 M81.7148,203.9961C41.0664,203.9961,8,170.9258,8,130.2812c0-23.9727,14.5391-35.7656,29.9375-48.25
		c8.2031-6.6562,16.6875-13.5352,23.0508-22.4219C72.0859,44.125,78.2969,30.0156,81.7148,19.9453
		c3.418,10.0703,9.6289,24.1797,20.7266,39.6641c6.3633,8.8867,14.8477,15.7656,23.0508,22.4219
		c15.3984,12.4844,29.9375,24.2773,29.9375,48.25C155.4297,170.9258,122.3633,203.9961,81.7148,203.9961z"/>
	<path fill="#535353" d="M100.1211,93.5977c-2.6563-2.1523-5.1641-4.1875-6.9297-6.6445
		c-6.3906-8.9258-7.5039-16.418-7.5117-16.4727c-0.2578-1.9844-1.9453-3.4648-3.9453-3.4727c-0.0078,0-0.0156,0-0.0195,0
		c-1.9961,0-3.6875,1.4766-3.9648,3.4531c-0.0078,0.0742-1.1211,7.5664-7.5117,16.4883c-1.7656,2.4609-4.2735,4.4961-6.9297,6.6484
		c-5.7461,4.6641-12.2617,9.9453-12.2617,20.7305c0,16.9102,13.7578,30.668,30.668,30.668s30.668-13.7578,30.668-30.668
		C112.3828,103.543,105.8672,98.2617,100.1211,93.5977z M81.7148,136.9961c-12.5,0-22.668-10.168-22.668-22.668
		c0-6.9727,4.1055-10.3008,9.3008-14.5156c2.9492-2.3906,6-4.8672,8.3906-8.2031c2.1094-2.9414,3.7305-5.7617,4.9766-8.3125
		c1.2461,2.5508,2.8672,5.3711,4.9766,8.3164c2.3906,3.332,5.4414,5.8086,8.3906,8.1992c5.1953,4.2148,9.3008,7.543,9.3008,14.5156
		C104.3828,126.8281,94.2148,136.9961,81.7148,136.9961z"/>
</g>
</svg>
