<?xml version="1.0" encoding="utf-8"?>
<!-- Generator: Adobe Illustrator 19.2.0, SVG Export Plug-In . SVG Version: 6.00 Build 0)  -->
<svg version="1.1" id="heightcone" xmlns="http://www.w3.org/2000/svg" xmlns:xlink="http://www.w3.org/1999/xlink" x="0px" y="0px"
	 viewBox="0 0 198.6289 213.2559" enable-background="new 0 0 198.6289 213.2559" xml:space="preserve">
<g>
	<path fill="#D8D8D8" d="M62,146.6289c19.2083,0,35.8035,3.5737,46.9949,9.3809L62,26.3652L15.0051,156.0098
		C26.1965,150.2026,42.7917,146.6289,62,146.6289z"/>
	<path fill="#D8D8D8" d="M113.865,169.4453c-6.248-7.752-25.8132-14.8164-51.865-14.8164s-45.6169,7.0645-51.865,14.8164
		l-2.0623,5.6885C8.8403,184.46,30.7393,194.6289,62,194.6289s53.1597-10.1689,53.9272-19.4951L113.865,169.4453z"/>
	<path fill="#535353" d="M121.0513,165.7886L65.7617,13.2656c-0.5742-1.582-2.0781-2.6367-3.7617-2.6367
		s-3.1875,1.0547-3.7617,2.6367L2.9487,165.7886C1.0474,168.5479,0,171.5098,0,174.6289c0,0.0469,0.0142,0.0918,0.0146,0.1392
		c0.0022,0.064,0.0139,0.123,0.0193,0.1865C0.3989,190.7529,26.8967,202.6289,62,202.6289s61.6011-11.876,61.9661-27.6743
		c0.0054-0.0635,0.0171-0.1226,0.0193-0.1865c0.0005-0.0474,0.0146-0.0923,0.0146-0.1392
		C124,171.5098,122.9526,168.5479,121.0513,165.7886z M62,26.3652l46.9949,129.6445c-11.1914-5.8071-27.7866-9.3809-46.9949-9.3809
		s-35.8035,3.5737-46.9949,9.3809L62,26.3652z M62,194.6289c-31.2607,0-53.1597-10.1689-53.9272-19.4951l2.0623-5.6885
		c6.248-7.752,25.8132-14.8164,51.865-14.8164s45.6169,7.0645,51.865,14.8164l2.0623,5.6885
		C115.1597,184.46,93.2607,194.6289,62,194.6289z"/>
	<path fill="#535353" d="M152.1992,29.457L168,13.6562v76.9727c0,2.209,1.7891,4,4,4s4-1.791,4-4V13.6562l15.8008,15.8008
		c0.7812,0.7812,1.8047,1.1719,2.8281,1.1719s2.0469-0.3906,2.8281-1.1719c1.5625-1.5625,1.5625-4.0938,0-5.6562L174.8281,1.1719
		c-1.5625-1.5625-4.0938-1.5625-5.6562,0L146.543,23.8008c-1.5625,1.5625-1.5625,4.0938,0,5.6562S150.6367,31.0195,152.1992,29.457z
		"/>
	<path fill="#535353" d="M191.8008,183.8008L176,199.6001v-76.9712c0-2.209-1.7891-4-4-4s-4,1.791-4,4v76.9712l-15.8008-15.7993
		c-1.5625-1.5625-4.0938-1.5625-5.6562,0s-1.5625,4.0938,0,5.6562l22.6289,22.627c0.7812,0.7812,1.8047,1.1719,2.8281,1.1719
		s2.0469-0.3906,2.8281-1.1719l22.6289-22.627c1.5625-1.5625,1.5625-4.0938,0-5.6562S193.3633,182.2383,191.8008,183.8008z"/>
</g>
</svg>
