<?xml version="1.0" encoding="utf-8"?>
<!-- Generator: Adobe Illustrator 19.2.0, SVG Export Plug-In . SVG Version: 6.00 Build 0)  -->
<svg version="1.1" id="hexagonalstructure" xmlns="http://www.w3.org/2000/svg" xmlns:xlink="http://www.w3.org/1999/xlink" x="0px"
	 y="0px" viewBox="0 0 196 220" enable-background="new 0 0 196 220" xml:space="preserve">
<g>
	<path fill="#D8D8D8" d="M36,66c0-7.7188-6.2812-14-14-14S8,58.2812,8,66s6.2812,14,14,14S36,73.7188,36,66z"/>
	<path fill="#D8D8D8" d="M98,36c7.7188,0,14-6.2812,14-14S105.7188,8,98,8s-14,6.2812-14,14S90.2812,36,98,36z"/>
	<path fill="#D8D8D8" d="M174,80c7.7188,0,14-6.2812,14-14s-6.2812-14-14-14s-14,6.2812-14,14S166.2812,80,174,80z"/>
	<path fill="#D8D8D8" d="M98,184c-7.7188,0-14,6.2812-14,14s6.2812,14,14,14s14-6.2812,14-14S105.7188,184,98,184z"/>
	<path fill="#D8D8D8" d="M22,140c-7.7188,0-14,6.2812-14,14s6.2812,14,14,14s14-6.2812,14-14S29.7188,140,22,140z"/>
	<path fill="#D8D8D8" d="M174,140c-7.7188,0-14,6.2812-14,14s6.2812,14,14,14s14-6.2812,14-14S181.7188,140,174,140z"/>
	<path fill="#D8D8D8" d="M98,88c-12.1309,0-22,9.8691-22,22s9.8691,22,22,22s22-9.8691,22-22S110.1309,88,98,88z"/>
	<path fill="#535353" d="M98,80c-16.543,0-30,13.457-30,30s13.457,30,30,30s30-13.457,30-30S114.543,80,98,80z M98,132
		c-12.1309,0-22-9.8691-22-22s9.8691-22,22-22s22,9.8691,22,22S110.1309,132,98,132z"/>
	<path fill="#535353" d="M179.8792,132.8218c0.0085-0.1069,0.0623-0.1987,0.0623-0.3081V87.1621C189.1912,84.561,196,76.0698,196,66
		c0-12.1309-9.8691-22-22-22c-6.0271,0-11.4927,2.4395-15.4702,6.3789c-6.4087-3.7197-13.2925-7.7822-20.0317-11.7637
		c-6.8135-4.0264-13.4182-7.9233-19.1838-11.2637C119.7456,25.6348,120,23.8486,120,22c0-12.1309-9.8691-22-22-22S76,9.8691,76,22
		c0,2.0029,0.2925,3.9351,0.7964,5.7803L37.4414,50.353C33.4663,46.4297,28.0132,44,22,44C9.8691,44,0,53.8691,0,66
		c0,10.0698,6.8088,18.561,16.0586,21.1621v45.2812c0,0.1328,0.063,0.2451,0.0757,0.375C6.8462,135.3945,0,143.9028,0,154
		c0,12.1309,9.8691,22,22,22c5.9314,0,11.3123-2.3701,15.2729-6.2002c6.6313,3.835,13.8274,8.0176,20.8813,12.1201
		c6.5415,3.8022,12.8879,7.4922,18.5249,10.7539C76.252,194.3828,76,196.1602,76,198c0,12.1309,9.8691,22,22,22s22-9.8691,22-22
		c0-1.9531-0.2808-3.8374-0.7605-5.6416c6.4934-3.7417,13.6865-7.8652,20.7234-11.8955
		c6.7043-3.8423,13.1687-7.5474,18.6909-10.7295C162.6211,173.6035,168.033,176,174,176c12.1309,0,22-9.8691,22-22
		C196,143.9077,189.1604,135.4023,179.8792,132.8218z M174,52c7.7188,0,14,6.2812,14,14s-6.2812,14-14,14s-14-6.2812-14-14
		S166.2812,52,174,52z M98,8c7.7188,0,14,6.2812,14,14s-6.2812,14-14,14s-14-6.2812-14-14S90.2812,8,98,8z M8,66
		c0-7.7188,6.2812-14,14-14s14,6.2812,14,14s-6.2812,14-14,14S8,73.7188,8,66z M22,168c-7.7188,0-14-6.2812-14-14s6.2812-14,14-14
		s14,6.2812,14,14S29.7188,168,22,168z M98,212c-7.7188,0-14-6.2812-14-14s6.2812-14,14-14s14,6.2812,14,14S105.7188,212,98,212z
		 M135.9844,173.5215c-6.8452,3.9219-13.8372,7.9297-20.1931,11.5898C111.7893,179.6025,105.3149,176,98,176
		c-7.4275,0-13.9941,3.71-17.9797,9.3633c-5.4661-3.1631-11.5657-6.709-17.8445-10.3594
		c-6.8276-3.9712-13.7861-8.0156-20.2437-11.752C43.2454,160.4346,44,157.3076,44,154c0-11.436-8.7732-20.8535-19.9414-21.8955
		v-44.209C35.2268,86.8535,44,77.436,44,66c0-3.229-0.7168-6.2881-1.9719-9.0532L80.2922,35C84.3008,40.4453,90.7351,44,98,44
		c7.418,0,13.9766-3.7007,17.9636-9.3418c5.5942,3.2451,11.927,6.9834,18.4641,10.8438c6.5637,3.877,13.2622,7.8291,19.5303,11.4736
		C152.7114,59.7334,152,62.7822,152,66c0,11.436,8.7732,20.8535,19.9414,21.8955v44.209C160.7732,133.1465,152,142.564,152,154
		c0,3.2734,0.7383,6.3711,2.0261,9.166C148.6467,166.2646,142.4282,169.8281,135.9844,173.5215z M174,168c-7.7188,0-14-6.2812-14-14
		s6.2812-14,14-14s14,6.2812,14,14S181.7188,168,174,168z"/>
</g>
</svg>
