<?xml version="1.0" encoding="utf-8"?>
<!-- Generator: Adobe Illustrator 19.2.0, SVG Export Plug-In . SVG Version: 6.00 Build 0)  -->
<svg version="1.1" id="hourglass" xmlns="http://www.w3.org/2000/svg" xmlns:xlink="http://www.w3.org/1999/xlink" x="0px" y="0px"
	 viewBox="0 0 120 224" enable-background="new 0 0 120 224" xml:space="preserve">
<g>
	<path fill="#D8D8D8" d="M112,8H8v50c0,27.5703,22.4434,50,50.0312,50h3.9375C89.5566,108,112,85.5703,112,58V8z M84,88H36
		c-2.209,0-4-1.791-4-4s1.791-4,4-4h48c2.209,0,4,1.791,4,4S86.209,88,84,88z M100,68H20c-2.209,0-4-1.791-4-4s1.791-4,4-4h80
		c2.209,0,4,1.791,4,4S102.209,68,100,68z M100,48H20c-2.209,0-4-1.791-4-4s1.791-4,4-4h80c2.209,0,4,1.791,4,4S102.209,48,100,48z
		 M100,28H20c-2.209,0-4-1.791-4-4s1.791-4,4-4h80c2.209,0,4,1.791,4,4S102.209,28,100,28z"/>
	<path fill="#D8D8D8" d="M8,166v50h104v-50c0-27.5703-22.4434-50-50.0312-50h-3.9375C30.4434,116,8,138.4297,8,166z M100,204H20
		c-2.209,0-4-1.791-4-4s1.791-4,4-4h80c2.209,0,4,1.791,4,4S102.209,204,100,204z M100,184H20c-2.209,0-4-1.791-4-4s1.791-4,4-4h80
		c2.209,0,4,1.791,4,4S102.209,184,100,184z M100,156c2.209,0,4,1.791,4,4s-1.791,4-4,4H20c-2.209,0-4-1.791-4-4s1.791-4,4-4H100z
		 M84,136c2.209,0,4,1.791,4,4s-1.791,4-4,4H36c-2.209,0-4-1.791-4-4s1.791-4,4-4H84z"/>
	<path fill="#535353" d="M120,58V0H0v58c0,24.5637,15.3835,45.5588,37.0066,54C15.3835,120.4412,0,141.4363,0,166v58h120v-58
		c0-24.5637-15.3835-45.5588-37.0066-54C104.6165,103.5588,120,82.5637,120,58z M112,166v50H8v-50c0-27.5703,22.4434-50,50.0312-50
		h3.9375C89.5566,116,112,138.4297,112,166z M61.9688,108h-3.9375C30.4434,108,8,85.5703,8,58V8h104v50
		C112,85.5703,89.5566,108,61.9688,108z"/>
	<path fill="#535353" d="M100,20H20c-2.209,0-4,1.791-4,4s1.791,4,4,4h80c2.209,0,4-1.791,4-4S102.209,20,100,20z"/>
	<path fill="#535353" d="M100,40H20c-2.209,0-4,1.791-4,4s1.791,4,4,4h80c2.209,0,4-1.791,4-4S102.209,40,100,40z"/>
	<path fill="#535353" d="M100,60H20c-2.209,0-4,1.791-4,4s1.791,4,4,4h80c2.209,0,4-1.791,4-4S102.209,60,100,60z"/>
	<path fill="#535353" d="M84,80H36c-2.209,0-4,1.791-4,4s1.791,4,4,4h48c2.209,0,4-1.791,4-4S86.209,80,84,80z"/>
	<path fill="#535353" d="M100,196H20c-2.209,0-4,1.791-4,4s1.791,4,4,4h80c2.209,0,4-1.791,4-4S102.209,196,100,196z"/>
	<path fill="#535353" d="M100,176H20c-2.209,0-4,1.791-4,4s1.791,4,4,4h80c2.209,0,4-1.791,4-4S102.209,176,100,176z"/>
	<path fill="#535353" d="M16,160c0,2.209,1.791,4,4,4h80c2.209,0,4-1.791,4-4s-1.791-4-4-4H20C17.791,156,16,157.791,16,160z"/>
	<path fill="#535353" d="M32,140c0,2.209,1.791,4,4,4h48c2.209,0,4-1.791,4-4s-1.791-4-4-4H36C33.791,136,32,137.791,32,140z"/>
</g>
</svg>
