<?xml version="1.0" encoding="utf-8"?>
<!-- Generator: Adobe Illustrator 19.2.0, SVG Export Plug-In . SVG Version: 6.00 Build 0)  -->
<svg version="1.1" id="lifesignal" xmlns="http://www.w3.org/2000/svg" xmlns:xlink="http://www.w3.org/1999/xlink" x="0px" y="0px"
	 viewBox="0 0 224.0019 159.9995" enable-background="new 0 0 224.0019 159.9995" xml:space="preserve">
<g>
	<path fill="#D8D8D8" d="M200.0019,59.9995c-8.8242,0-16,7.1777-16,16s7.1758,16,16,16s16-7.1777,16-16
		S208.8261,59.9995,200.0019,59.9995z"/>
	<path fill="#535353" d="M200.0019,51.9995c-12.0046,0-21.9485,8.8672-23.6985,20.3906h-17.325l-16.0586-49.8438
		c-0.5391-1.6699-2.1641-2.7637-3.8555-2.7734c-1.7539,0.0215-3.2891,1.1816-3.7891,2.8633L117.2675,83.394l-16.2344-44.2227
		c-0.6055-1.6465-2.1133-2.7266-3.9727-2.6152c-1.7539,0.0957-3.2422,1.3262-3.6641,3.0332l-23.25,93.918L55.2441,3.5444
		c-0.2148-1.9004-1.7461-3.3789-3.6523-3.5312c-1.8984-0.1543-3.6562,1.0605-4.1719,2.9043L19.1855,103.4292L7.8418,64.6382
		c-0.6211-2.1211-2.8359-3.3418-4.9609-2.7168c-2.1211,0.6211-3.3398,2.8418-2.7188,4.9629l15.2617,52.1836
		c0.5,1.7051,2.0625,2.877,3.8398,2.877c0.0078,0,0.0156,0,0.0195,0c1.7852-0.0098,3.3477-1.1992,3.832-2.918l26.5-94.3438
		l15.1094,131.7715c0.2188,1.9238,1.7852,3.4121,3.7148,3.5371c0.0859,0.0059,0.1758,0.0078,0.2617,0.0078
		c1.8242,0,3.4336-1.2441,3.8789-3.0391L98.0254,54.187l15.8945,43.2949c0.5938,1.6191,2.2266,2.7461,3.8828,2.6191
		c1.7227-0.0547,3.2148-1.209,3.707-2.8613l17.7617-59.9277l12.9844,40.3047c0.5352,1.6523,2.0703,2.7734,3.8086,2.7734h20.3586
		c2.0708,11.1421,11.8457,19.6094,23.5789,19.6094c13.2344,0,24-10.7656,24-24S213.2363,51.9995,200.0019,51.9995z
		 M200.0019,91.9995c-8.8242,0-16-7.1777-16-16s7.1758-16,16-16s16,7.1777,16,16S208.8261,91.9995,200.0019,91.9995z"/>
</g>
</svg>
