<?xml version="1.0" encoding="utf-8"?>
<!-- Generator: Adobe Illustrator 19.2.0, SVG Export Plug-In . SVG Version: 6.00 Build 0)  -->
<svg version="1.1" id="magnet" xmlns="http://www.w3.org/2000/svg" xmlns:xlink="http://www.w3.org/1999/xlink" x="0px" y="0px"
	 viewBox="0 0 229.7563 233.0293" enable-background="new 0 0 229.7563 233.0293" xml:space="preserve">
<g>
	<path fill="#D8D8D8" d="M199.5762,95.3184l-65.041-65.041l-19.7988,19.7988l62.2148,62.2168
		c17.7676,17.7676,18.6758,46.1074,2.7227,64.9473l22.6699,22.6719C229.1875,170.1113,228.2656,124.0098,199.5762,95.3184z"/>
	<path fill="#FFFFFF" d="M143.0273,194.2402c-0.0039,0-0.0078,0-0.0117,0c-12.8223,0-24.877-4.9961-33.9473-14.0664L46.8535,117.959
		l-19.7988,19.8008l65.041,65.0391c28.6914,28.6836,74.793,29.6172,104.5918,2.7695l-22.6699-22.668
		C165.3652,190.2402,154.5039,194.2402,143.0273,194.2402z"/>
	<path fill="#535353" d="M205.2324,89.6621l-70.6973-70.6973l-31.1113,31.1113l67.8711,67.875
		c15.6016,15.6016,15.6055,40.9805,0.0098,56.5781c-7.5527,7.5547-17.5938,11.7109-28.2773,11.7109h-0.0098
		c-10.6855,0-20.7344-4.1641-28.293-11.7227l-67.8711-67.8711l-31.1113,31.1133l70.6973,70.6953
		c16.3828,16.3828,37.8984,24.5742,59.416,24.5742c20.2537,0,40.4531-7.3562,56.4192-21.8738l0.1433,0.1433l2.8281-2.8281
		l2.8281-2.8281l-0.1433-0.1433C237.8743,172.5713,237.0374,121.4651,205.2324,89.6621z M176.9512,112.293l-62.2148-62.2168
		l19.7988-19.7988l65.041,65.041c28.6895,28.6914,29.6113,74.793,2.7676,104.5938l-22.6699-22.6719
		C195.627,158.4004,194.7188,130.0605,176.9512,112.293z M92.0957,202.7988l-65.041-65.0391l19.7988-19.8008l62.2148,62.2148
		c9.0703,9.0703,21.125,14.0664,33.9473,14.0664c0.0039,0,0.0078,0,0.0117,0c11.4766,0,22.3379-4,30.9902-11.3398l22.6699,22.668
		C166.8887,232.416,120.7871,231.4824,92.0957,202.7988z"/>
	<path fill="#535353" d="M118.3379,14.0801c0.7812,0.7812,1.8047,1.1719,2.8281,1.1719s2.0469-0.3906,2.8281-1.1719
		c1.5625-1.5625,1.5625-4.0938,0-5.6563l-7.252-7.252c-1.5625-1.5625-4.0938-1.5625-5.6562,0s-1.5625,4.0938,0,5.6562
		L118.3379,14.0801z"/>
	<path fill="#535353" d="M98.9336,39.9316c0.7812,0.7812,1.8047,1.1719,2.8281,1.1719s2.0469-0.3906,2.8281-1.1719
		c1.5625-1.5605,1.5625-4.0938,0-5.6562l-7.252-7.2539c-1.5625-1.5625-4.0938-1.5625-5.6562,0
		c-1.5625,1.5605-1.5625,4.0938,0,5.6562L98.9336,39.9316z"/>
	<path fill="#535353" d="M105.0176,17.7305c0.7812,0.7812,1.8047,1.1719,2.8281,1.1719s2.0469-0.3906,2.8281-1.1719
		c1.5625-1.5625,1.5625-4.0938,0-5.6562l-7.252-7.252c-1.5625-1.5625-4.0938-1.5625-5.6562,0s-1.5625,4.0938,0,5.6562
		L105.0176,17.7305z"/>
	<path fill="#535353" d="M33.4863,98.9336c0.7812,0.7812,1.8047,1.1719,2.8281,1.1719s2.0469-0.3906,2.8281-1.1719
		c1.5625-1.5625,1.5625-4.0957,0-5.6562l-7.2539-7.252c-1.5625-1.5625-4.0938-1.5625-5.6562,0s-1.5625,4.0957,0,5.6562
		L33.4863,98.9336z"/>
	<path fill="#535353" d="M6.8281,117.5332c-1.5625-1.5625-4.0938-1.5625-5.6562,0s-1.5625,4.0938,0,5.6562l7.252,7.25
		c0.7812,0.7812,1.8047,1.1719,2.8281,1.1719s2.0469-0.3906,2.8281-1.1719c1.5625-1.5625,1.5625-4.0938,0-5.6562L6.8281,117.5332z"
		/>
	<path fill="#535353" d="M17.3379,105.4121c0.7812,0.7812,1.8047,1.1719,2.8281,1.1719s2.0469-0.3906,2.8281-1.1719
		c1.5625-1.5625,1.5625-4.0957,0-5.6562l-7.2539-7.252c-1.5625-1.5625-4.0938-1.5625-5.6562,0s-1.5625,4.0957,0,5.6562
		L17.3379,105.4121z"/>
</g>
</svg>
