<?xml version="1.0" encoding="utf-8"?>
<!-- Generator: Adobe Illustrator 19.2.0, SVG Export Plug-In . SVG Version: 6.00 Build 0)  -->
<svg version="1.1" id="malescientist" xmlns="http://www.w3.org/2000/svg" xmlns:xlink="http://www.w3.org/1999/xlink" x="0px"
	 y="0px" viewBox="0 0 200 222" enable-background="new 0 0 200 222" xml:space="preserve">
<g>
	<path fill="#D8D8D8" d="M130.7305,93.0977l-15.8945,1.9531c-1.0664,0.1328-2.0117,0.6641-2.6641,1.5039
		c-0.6562,0.8438-0.9414,1.9023-0.8125,2.9766l1.457,11.8633c0.2734,2.2383,2.2148,3.7539,4.4531,3.5078l15.8945-1.9492
		c2.2227-0.2734,3.75-2.2461,3.4766-4.4844l-1.457-11.8633C134.9062,94.3633,132.9375,92.8516,130.7305,93.0977z"/>
	<path fill="#D8D8D8" d="M85.168,95.0508l-15.8984-1.9531c-0.1719-0.0195-0.3398-0.0312-0.5078-0.0312
		c-2.0039,0-3.6914,1.4727-3.9453,3.5391l-1.457,11.8633c-0.2734,2.2383,1.2539,4.2109,3.4766,4.4844l15.8945,1.9492
		c2.2422,0.2656,4.1797-1.2695,4.4531-3.5078l1.457-11.8633c0.1289-1.0742-0.1562-2.1328-0.8125-2.9766
		C87.1758,95.7148,86.2305,95.1836,85.168,95.0508z"/>
	<path fill="#FFFFFF" d="M74.4062,53.1328c-6.9297,9.4805-16.2812,13.0938-25.3672,16.6016
		c-2.5818,0.9985-5.217,2.0342-7.8574,3.1973c0.1191,1.4924,0.2283,2.9888,0.4512,4.4707C46.9414,112.5,65.207,150,100.5508,150
		c29.9951,0,53.0632-28.3159,58.8462-72.1555C153.6472,79.2285,147.7903,80,141.8711,80
		C117.0742,80,91.5781,77.8125,74.4062,53.1328z M144.5781,107.4922c0.8086,6.582-3.875,12.5938-10.4375,13.3984l-15.8945,1.9492
		c-0.4962,0.0625-0.9844,0.0938-1.4688,0.0938c-5.9648,0-11.1484-4.4766-11.8984-10.5625L104.5876,110h-9.1753l-0.2913,2.3711
		c-0.7461,6.0859-5.9336,10.5586-11.8984,10.5586c-0.4844,0-0.9766-0.0273-1.4688-0.0898l-15.8945-1.9492
		c-6.5625-0.8047-11.2461-6.8164-10.4375-13.3984l1.457-11.8633c0.8086-6.582,6.8008-11.3086,13.3672-10.4688l15.8945,1.9531
		c3.1953,0.3906,6.0391,2,8.0078,4.5391c1.957,2.5234,2.8203,5.668,2.4297,8.8555L96.3948,102h7.2104l-0.1833-1.4922
		c-0.3906-3.1875,0.4727-6.332,2.4297-8.8555c1.9688-2.5391,4.8125-4.1484,8.0117-4.5391l15.8906-1.9531
		c6.5273-0.8438,12.5547,3.8867,13.3672,10.4688L144.5781,107.4922z"/>
	<path fill="#D8D8D8" d="M70.7812,43.75c0.6641-1.3165,1.9961-2.1602,3.4687-2.1993c0.0352,0,0.0665,0,0.1016,0
		c1.4336,0,2.7617,0.7695,3.4766,2.0195C91.4531,67.4688,110.8477,72,141.8711,72c6.8474,0,13.6179-1.083,20.1875-3.1533
		c0.3357-0.1841,0.6826-0.3049,1.0625-0.3816V50.5547C163.1211,27.0898,142.2499,8,116.5977,8H84.5039
		C58.8516,8,37.9805,27.0898,37.9805,50.5547V65.582c2.7734-1.2227,5.5-2.2773,8.1758-3.3086
		C56.7539,58.1797,65.1289,54.9453,70.7812,43.75z"/>
	<path fill="#535353" d="M31.9297,75.4023c0.4744,0.2837,0.9946,0.429,1.5222,0.5002c0.1023,0.9001,0.1387,1.8022,0.2747,2.6951
		C41.1328,127.5742,66.7383,158,100.5508,158c34.3516,0,60.5859-31.1992,66.8398-79.4883c0.134-1.0498,0.1841-2.0813,0.2742-3.1211
		c0.2881-0.1047,0.5833-0.1768,0.8704-0.2852c1.5547-0.5859,2.5859-2.0781,2.5859-3.7422V50.5547
		C171.1211,22.6797,146.6602,0,116.5977,0H84.5039C54.4414,0,29.9805,22.6797,29.9805,50.5547v21.4141
		C29.9805,73.3789,30.7227,74.6836,31.9297,75.4023z M100.5508,150c-35.3438,0-53.6094-37.5-58.918-72.5977
		c-0.2229-1.4819-0.332-2.9783-0.4512-4.4707c2.6404-1.1631,5.2756-2.1987,7.8574-3.1973
		c9.0859-3.5078,18.4375-7.1211,25.3672-16.6016C91.5781,77.8125,117.0742,80,141.8711,80c5.9192,0,11.7761-0.7715,17.5259-2.1555
		C153.614,121.6841,130.5459,150,100.5508,150z M37.9805,50.5547C37.9805,27.0898,58.8516,8,84.5039,8h32.0938
		c25.6523,0,46.5234,19.0898,46.5234,42.5547v17.9104c-0.3799,0.0767-0.7268,0.1975-1.0625,0.3816
		C155.489,70.917,148.7185,72,141.8711,72c-31.0234,0-50.418-4.5312-64.043-28.4297c-0.7148-1.25-2.043-2.0195-3.4766-2.0195
		c-0.0352,0-0.0664,0-0.1016,0c-1.4726,0.0391-2.8046,0.8828-3.4687,2.1993c-5.6523,11.1953-14.0273,14.4296-24.625,18.5234
		c-2.6758,1.0312-5.4023,2.0859-8.1758,3.3086V50.5547z"/>
	<path fill="#535353" d="M129.7539,85.1602l-15.8906,1.9531c-3.1992,0.3906-6.043,2-8.0117,4.5391
		c-1.957,2.5234-2.8203,5.668-2.4297,8.8555L103.6052,102h-7.2104l0.1833-1.4922c0.3906-3.1875-0.4727-6.332-2.4297-8.8555
		c-1.9688-2.5391-4.8125-4.1484-8.0078-4.5391l-15.8945-1.9531c-6.5664-0.8398-12.5586,3.8867-13.3672,10.4688l-1.457,11.8633
		c-0.8086,6.582,3.875,12.5938,10.4375,13.3984l15.8945,1.9492c0.4922,0.0625,0.9844,0.0898,1.4688,0.0898
		c5.9648,0,11.1523-4.4727,11.8984-10.5586L95.4124,110h9.1753l0.2913,2.3711c0.75,6.0859,5.9336,10.5625,11.8984,10.5625
		c0.4844,0,0.9726-0.0312,1.4688-0.0938l15.8945-1.9492c6.5625-0.8047,11.2461-6.8164,10.4375-13.3984l-1.457-11.8633
		C142.3086,89.0469,136.2812,84.3164,129.7539,85.1602z M87.1836,111.3945c-0.2734,2.2383-2.2109,3.7734-4.4531,3.5078
		l-15.8945-1.9492c-2.2227-0.2734-3.75-2.2461-3.4766-4.4844l1.457-11.8633c0.2539-2.0664,1.9414-3.5391,3.9453-3.5391
		c0.168,0,0.3359,0.0117,0.5078,0.0312l15.8984,1.9531c1.0625,0.1328,2.0078,0.6641,2.6602,1.5039
		c0.6562,0.8438,0.9414,1.9023,0.8125,2.9766L87.1836,111.3945z M133.1641,112.9531l-15.8945,1.9492
		c-2.2383,0.2461-4.1797-1.2695-4.4531-3.5078l-1.457-11.8633c-0.1289-1.0742,0.1562-2.1328,0.8125-2.9766
		c0.6523-0.8398,1.5977-1.3711,2.6641-1.5039l15.8945-1.9531c2.207-0.2461,4.1758,1.2656,4.4531,3.5078l1.457,11.8633
		C136.9141,110.707,135.3867,112.6797,133.1641,112.9531z"/>
	<path fill="#535353" d="M175.9961,146H148c-1.3008,0-2.5195,0.6328-3.2695,1.6914L100,211.0625l-44.7305-63.3711
		C54.5195,146.6328,53.3008,146,52,146H24.0039C10.7695,146,0,156.7656,0,169.9961c0,2.2109,1.7891,4,4,4s4-1.7891,4-4
		C8,161.1758,15.1797,154,24.0039,154h25.9219l46.8047,66.3086C97.4805,221.3672,98.6992,222,100,222s2.5195-0.6328,3.2695-1.6914
		L150.0742,154h25.9219C184.8203,154,192,161.1758,192,169.9961c0,2.2109,1.7891,4,4,4s4-1.7891,4-4
		C200,156.7656,189.2305,146,175.9961,146z"/>
</g>
</svg>
