<?xml version="1.0" encoding="utf-8"?>
<!-- Generator: Adobe Illustrator 19.2.0, SVG Export Plug-In . SVG Version: 6.00 Build 0)  -->
<svg version="1.1" id="measuringcup" xmlns="http://www.w3.org/2000/svg" xmlns:xlink="http://www.w3.org/1999/xlink" x="0px"
	 y="0px" viewBox="0 0 158.3178 188" enable-background="new 0 0 158.3178 188" xml:space="preserve">
<g>
	<path fill="#D8D8D8" d="M9.396,15.4453c1.6738,2.0195,6.1035,4.2891,9.6621,6.1133C25.3491,24.7812,30.3178,27.3281,30.3178,32v148
		h120V8H8.7241C7.9624,9.8672,7.2885,12.9062,9.396,15.4453z M38.3178,56h28v8h-28V56z M38.3178,76h28v8h-28V76z M38.3178,96h28v8
		h-28V96z M38.3178,116h28v8h-28V116z"/>
	<path fill="#535353" d="M154.3178,0h-148C5.0014,0,3.771,0.6484,3.0249,1.7305c-2.418,3.5078-5.4844,11.957,0.2148,18.8242
		c2.7227,3.2812,7.5254,5.7422,12.1699,8.1211c2.3477,1.207,5.7969,2.9727,6.9082,4.0234V184c0,2.2109,1.791,4,4,4h128
		c2.209,0,4-1.7891,4-4V4C158.3178,1.7891,156.5268,0,154.3178,0z M150.3178,180h-120V32c0-4.6719-4.9688-7.2188-11.2598-10.4414
		c-3.5586-1.8242-7.9883-4.0938-9.6621-6.1133C7.2885,12.9062,7.9624,9.8672,8.7241,8h141.5938V180z"/>
	<rect x="38.3178" y="76" fill="#535353" width="28" height="8"/>
	<rect x="38.3178" y="56" fill="#535353" width="28" height="8"/>
	<rect x="38.3178" y="96" fill="#535353" width="28" height="8"/>
	<rect x="38.3178" y="116" fill="#535353" width="28" height="8"/>
</g>
</svg>
