<?xml version="1.0" encoding="utf-8"?>
<!-- Generator: Adobe Illustrator 19.2.0, SVG Export Plug-In . SVG Version: 6.00 Build 0)  -->
<svg version="1.1" id="mechanics" xmlns="http://www.w3.org/2000/svg" xmlns:xlink="http://www.w3.org/1999/xlink" x="0px" y="0px"
	 viewBox="0 0 212 216" enable-background="new 0 0 212 216" xml:space="preserve">
<g>
	<path fill="#D8D8D8" d="M152,44c-11.7808,0-22.2258,5.7136-28.7976,14.488l-4.9968,9.2251C116.8042,71.5542,116,75.6799,116,80
		c0,19.8516,16.1504,36,36,36s36-16.1484,36-36S171.8496,44,152,44z"/>
	<polygon fill="#D8D8D8" points="140,184 140,208 164,208 164,184 156,184 148,184 	"/>
	<path fill="#D8D8D8" d="M44,128c-11.0273,0-20,8.9727-20,20s8.9727,20,20,20s20-8.9727,20-20S55.0273,128,44,128z"/>
	<path fill="#D8D8D8" d="M200.0039,8H11.9961C9.793,8,8,9.8047,8,12.0195v3.9609C8,18.1953,9.793,20,11.9961,20h188.0078
		C202.207,20,204,18.1953,204,15.9805v-3.9609C204,9.8047,202.207,8,200.0039,8z"/>
	<path fill="#535353" d="M200.0039,0H11.9961C5.3809,0,0,5.3906,0,12.0195v3.9609C0,22.6094,5.3809,28,11.9961,28H16v120
		c0,15.4375,12.5605,28,28,28c13.439,0,24.688-9.5212,27.3796-22.1685l0.1379,0.0747l36.9058-68.1338
		c2.6694,20.2329,19.1016,36.1687,39.5767,38.0249V176h-16v40h40v-40h-16v-52.2026C177.072,121.887,193.887,105.072,195.7974,84H196
		V28h4.0039C206.6191,28,212,22.6094,212,15.9805v-3.9609C212,5.3906,206.6191,0,200.0039,0z M164,184v24h-24v-24h8h8H164z M44,168
		c-11.0273,0-20-8.9727-20-20s8.9727-20,20-20s20,8.9727,20,20S55.0273,168,44,168z M152,116c-19.8496,0-36-16.1484-36-36
		c0-4.3201,0.8042-8.4458,2.2056-12.2869l4.9968-9.2251C129.7742,49.7136,140.2192,44,152,44c19.8496,0,36,16.1484,36,36
		S171.8496,116,152,116z M188,54.781C180.033,43.4429,166.8794,36,152,36c-14.5771,0-27.4836,7.1553-35.4949,18.106l-0.0227-0.0122
		l-0.0835,0.1543c-2.2424,3.0911-4.0847,6.4771-5.47,10.0981l-40.4392,74.6572C66.731,127.9705,56.2893,120,44,120
		c-7.8318,0-14.9133,3.2415-20,8.4421V28h164V54.781z M204,15.9805C204,18.1953,202.207,20,200.0039,20H11.9961
		C9.793,20,8,18.1953,8,15.9805v-3.9609C8,9.8047,9.793,8,11.9961,8h188.0078C202.207,8,204,9.8047,204,12.0195V15.9805z"/>
</g>
</svg>
