<?xml version="1.0" encoding="utf-8"?>
<!-- Generator: Adobe Illustrator 19.2.0, SVG Export Plug-In . SVG Version: 6.00 Build 0)  -->
<svg version="1.1" id="medicalcrosscircles" xmlns="http://www.w3.org/2000/svg" xmlns:xlink="http://www.w3.org/1999/xlink"
	 x="0px" y="0px" viewBox="0 0 196 220" enable-background="new 0 0 196 220" xml:space="preserve">
<g>
	<path fill="#D8D8D8" d="M84,40c6.6172,0,12-5.3828,12-12s-5.3828-12-12-12s-12,5.3828-12,12S77.3828,40,84,40z"/>
	<path fill="#D8D8D8" d="M52,188c-6.6172,0-12,5.3828-12,12s5.3828,12,12,12s12-5.3828,12-12S58.6172,188,52,188z"/>
	<path fill="#D8D8D8" d="M168,48c11.0273,0,20-8.9727,20-20s-8.9727-20-20-20s-20,8.9727-20,20S156.9727,48,168,48z"/>
	<path fill="#D8D8D8" d="M16,108c-4.4121,0-8,3.5879-8,8c0,4.4102,3.5879,8,8,8s8-3.5898,8-8C24,111.5879,20.4121,108,16,108z"/>
	<path fill="#D8D8D8" d="M132,76c-30.8789,0-56,25.1211-56,56s25.1211,56,56,56s56-25.1211,56-56S162.8789,76,132,76z M172,144h-28
		v28h-24v-28H92v-24h28V92h24v28h28V144z"/>
	<polygon fill="#FFFFFF" points="136,100 128,100 128,128 100,128 100,136 128,136 128,164 136,164 136,136 164,136 164,128 
		136,128 	"/>
	<path fill="#535353" d="M132,68c-35.2891,0-64,28.7109-64,64s28.7109,64,64,64s64-28.7109,64-64S167.2891,68,132,68z M132,188
		c-30.8789,0-56-25.1211-56-56s25.1211-56,56-56s56,25.1211,56,56S162.8789,188,132,188z"/>
	<path fill="#535353" d="M168,56c15.4395,0,28-12.5605,28-28S183.4395,0,168,0s-28,12.5605-28,28S152.5605,56,168,56z M168,8
		c11.0273,0,20,8.9727,20,20s-8.9727,20-20,20s-20-8.9727-20-20S156.9727,8,168,8z"/>
	<path fill="#535353" d="M84,48c11.0273,0,20-8.9727,20-20S95.0273,8,84,8s-20,8.9727-20,20S72.9727,48,84,48z M84,16
		c6.6172,0,12,5.3828,12,12s-5.3828,12-12,12s-12-5.3828-12-12S77.3828,16,84,16z"/>
	<path fill="#535353" d="M52,180c-11.0273,0-20,8.9727-20,20s8.9727,20,20,20s20-8.9727,20-20S63.0273,180,52,180z M52,212
		c-6.6172,0-12-5.3828-12-12s5.3828-12,12-12s12,5.3828,12,12S58.6172,212,52,212z"/>
	<path fill="#535353" d="M16,100c-8.8223,0-16,7.1777-16,16c0,8.8242,7.1777,16,16,16s16-7.1758,16-16
		C32,107.1777,24.8223,100,16,100z M16,124c-4.4121,0-8-3.5898-8-8c0-4.4121,3.5879-8,8-8s8,3.5879,8,8
		C24,120.4102,20.4121,124,16,124z"/>
	<path fill="#535353" d="M144,92h-24v28H92v24h28v28h24v-28h28v-24h-28V92z M164,128v8h-28v28h-8v-28h-28v-8h28v-28h8v28H164z"/>
</g>
</svg>
