<?xml version="1.0" encoding="utf-8"?>
<!-- Generator: Adobe Illustrator 19.2.0, SVG Export Plug-In . SVG Version: 6.00 Build 0)  -->
<svg version="1.1" id="meteor" xmlns="http://www.w3.org/2000/svg" xmlns:xlink="http://www.w3.org/1999/xlink" x="0px" y="0px"
	 viewBox="0 0 204.1074 204.0762" enable-background="new 0 0 204.1074 204.0762" xml:space="preserve">
<g>
	<path fill="#FFFFFF" d="M162.3906,139.7676c1.5117-1.5117,2.3438-3.5215,2.3438-5.6582s-0.832-4.1445-2.3438-5.6562
		c-3.0234-3.0234-8.291-3.0234-11.3145,0c-3.1172,3.1191-3.1172,8.1934,0,11.3145
		C154.1973,142.8848,159.2695,142.8848,162.3906,139.7676z"/>
	
		<ellipse transform="matrix(0.707 -0.7072 0.7072 0.707 -45.6914 118.3362)" fill="#FFFFFF" cx="119.9639" cy="114.3091" rx="4.001" ry="4.0003"/>
	<path fill="#FFFFFF" d="M111.4805,151.0762c1.5586-1.5586,1.5586-4.0957-0.002-5.6562c-0.7793-0.7793-1.8027-1.1699-2.8281-1.1699
		c-1.0234,0-2.0488,0.3906-2.8281,1.1699c-1.5586,1.5605-1.5586,4.0977,0,5.6582
		C107.3809,152.6367,109.9219,152.6387,111.4805,151.0762z"/>
	<path fill="#D8D8D8" d="M134.1074,182.1074c12.8203,0,24.875-4.9941,33.9414-14.0605c18.7148-18.7148,18.7148-49.166,0-67.8828
		c-9.3574-9.3555-21.6523-14.0352-33.9414-14.0352c-12.293,0-24.582,4.6777-33.9414,14.0352
		c-9.0664,9.0664-14.0605,21.1211-14.0605,33.9414c0,12.8223,4.9941,24.875,14.0605,33.9414S121.2852,182.1074,134.1074,182.1074z
		 M145.4199,122.7969c6.043-6.0469,16.584-6.0469,22.627,0c3.0234,3.0215,4.6875,7.0391,4.6875,11.3125
		s-1.6641,8.293-4.6875,11.3145c-3.1191,3.1191-7.2148,4.6777-11.3125,4.6777s-8.1953-1.5586-11.3145-4.6777
		C139.1816,139.1836,139.1816,129.0332,145.4199,122.7969z M111.4766,105.8242c4.6758-4.6797,12.2891-4.6836,16.9727,0
		c4.6797,4.6777,4.6797,12.293,0,16.9707c-2.3398,2.3379-5.4121,3.5078-8.4863,3.5078c-3.0723,0-6.1445-1.168-8.4844-3.5059
		l-0.002-0.002C106.8008,118.1152,106.8008,110.5039,111.4766,105.8242z M100.166,139.7637
		c4.6758-4.6797,12.291-4.6777,16.9707-0.002c4.6777,4.6816,4.6777,12.293,0.002,16.9727c-2.3418,2.3379-5.416,3.5078-8.4883,3.5078
		c-3.0742,0-6.1465-1.168-8.4844-3.5078C95.4863,152.0566,95.4863,144.4414,100.166,139.7637z"/>
	<path fill="#535353" d="M134.1074,190.1074c14.957,0,29.0195-5.8262,39.5977-16.4043c21.834-21.834,21.834-57.3594,0-79.1953
		c-21.8359-21.8379-57.3633-21.8301-79.1953,0c-10.5781,10.5781-16.4043,24.6406-16.4043,39.5977
		c0,14.959,5.8262,29.0215,16.4043,39.5977C105.0859,184.2812,119.1484,190.1074,134.1074,190.1074z M100.166,100.1641
		c9.3594-9.3574,21.6484-14.0352,33.9414-14.0352c12.2891,0,24.584,4.6797,33.9414,14.0352
		c18.7148,18.7168,18.7148,49.168,0,67.8828c-9.0664,9.0664-21.1211,14.0605-33.9414,14.0605
		c-12.8223,0-24.875-4.9941-33.9414-14.0605s-14.0605-21.1191-14.0605-33.9414C86.1055,121.2852,91.0996,109.2305,100.166,100.1641z
		"/>
	<path fill="#535353" d="M183.6035,84.6113c-1.5625-1.5625-4.0938-1.5625-5.6562,0s-1.5625,4.0938,0,5.6562
		c11.7109,11.7109,18.1602,27.2812,18.1602,43.8418s-6.4492,32.1289-18.1602,43.8398c-24.1777,24.1738-63.5078,24.1699-87.6816,0
		c-1.5625-1.5625-4.0938-1.5625-5.6562,0s-1.5625,4.0938,0,5.6562c13.6484,13.6484,31.5703,20.4707,49.498,20.4707
		c17.9219,0,35.8516-6.8262,49.4961-20.4707c13.2227-13.2207,20.5039-30.7988,20.5039-49.4961S196.8262,97.832,183.6035,84.6113z"/>
	<path fill="#535353" d="M156.7344,150.1016c4.0977,0,8.1934-1.5586,11.3125-4.6777c3.0234-3.0215,4.6875-7.041,4.6875-11.3145
		s-1.6641-8.291-4.6875-11.3125c-6.043-6.0469-16.584-6.0469-22.627,0c-6.2383,6.2363-6.2383,16.3867,0,22.627
		C148.5391,148.543,152.6367,150.1016,156.7344,150.1016z M151.0762,128.4531c3.0234-3.0234,8.291-3.0234,11.3145,0
		c1.5117,1.5117,2.3438,3.5195,2.3438,5.6562s-0.832,4.1465-2.3438,5.6582c-3.1211,3.1172-8.1934,3.1172-11.3145,0
		C147.959,136.6465,147.959,131.5723,151.0762,128.4531z"/>
	<path fill="#535353" d="M111.4785,122.7969c2.3398,2.3379,5.4121,3.5059,8.4844,3.5059c3.0742,0,6.1465-1.1699,8.4863-3.5078
		c4.6797-4.6777,4.6797-12.293,0-16.9707c-4.6836-4.6836-12.2969-4.6797-16.9727,0s-4.6758,12.291,0,16.9707L111.4785,122.7969z
		 M117.1348,111.4805c1.5566-1.5586,4.0977-1.5586,5.6582,0c1.5586,1.5605,1.5586,4.0977,0,5.6562
		c-1.5566,1.5605-4.0938,1.5625-5.6582,0.002C115.5762,115.5781,115.5762,113.0391,117.1348,111.4805z"/>
	<path fill="#535353" d="M108.6504,160.2422c3.0723,0,6.1465-1.1699,8.4883-3.5078c4.6758-4.6797,4.6758-12.291-0.002-16.9727
		c-4.6797-4.6758-12.2949-4.6777-16.9707,0.002c-4.6797,4.6777-4.6797,12.293,0,16.9707
		C102.5039,159.0742,105.5762,160.2422,108.6504,160.2422z M105.8223,145.4199c0.7793-0.7793,1.8047-1.1699,2.8281-1.1699
		c1.0254,0,2.0488,0.3906,2.8281,1.1699c1.5605,1.5605,1.5605,4.0977,0.002,5.6562c-1.5586,1.5625-4.0996,1.5605-5.6582,0.002
		C104.2637,149.5176,104.2637,146.9805,105.8223,145.4199z"/>
	<path fill="#535353" d="M124.207,67.6387c0.7812,0.7812,1.8047,1.1719,2.8281,1.1719s2.0469-0.3906,2.8281-1.1719
		c1.5625-1.5625,1.5625-4.0938,0-5.6562L70.4668,2.5859c-1.5625-1.5625-4.0938-1.5625-5.6562,0s-1.5625,4.0938,0,5.6562
		L124.207,67.6387z"/>
	<path fill="#535353" d="M66.2246,32.2832c-1.5625,1.5625-1.5625,4.0938,0,5.6562l35.3555,35.3555
		c0.7812,0.7812,1.8047,1.1719,2.8281,1.1719s2.0469-0.3906,2.8281-1.1719c1.5625-1.5625,1.5625-4.0938,0-5.6562L71.8809,32.2832
		C70.3184,30.7207,67.7871,30.7207,66.2246,32.2832z"/>
	<path fill="#535353" d="M78.9531,84.6094c0.7812,0.7812,1.8047,1.1719,2.8281,1.1719s2.0469-0.3906,2.8281-1.1719
		c1.5625-1.5625,1.5625-4.0938,0-5.6562L6.8281,1.1719c-1.5625-1.5625-4.0938-1.5625-5.6562,0s-1.5625,4.0938,0,5.6562
		L78.9531,84.6094z"/>
	<path fill="#535353" d="M35.1113,63.4004c-1.5625,1.5625-1.5625,4.0938,0,5.6562l26.8711,26.8691
		c0.7812,0.7812,1.8047,1.1719,2.8281,1.1719s2.0469-0.3906,2.8281-1.1719c1.5625-1.5625,1.5625-4.0938,0-5.6562L40.7676,63.4004
		C39.2051,61.8379,36.6738,61.8379,35.1113,63.4004z"/>
	<path fill="#535353" d="M19.5547,51.8398c1.0234,0,2.0469-0.3906,2.8281-1.1719c1.5625-1.5605,1.5625-4.0938,0-5.6562
		L6.8281,29.4551c-1.5625-1.5625-4.0938-1.5625-5.6562,0c-1.5625,1.5605-1.5625,4.0938,0,5.6562L16.7266,50.668
		C17.5078,51.4492,18.5312,51.8398,19.5547,51.8398z"/>
	<path fill="#535353" d="M11.0703,61.9824c-1.5625-1.5625-4.0938-1.5625-5.6562,0s-1.5625,4.0938,0,5.6562l59.3965,59.3965
		c0.7812,0.7812,1.8047,1.1719,2.8281,1.1719s2.0469-0.3906,2.8281-1.1719c1.5625-1.5625,1.5625-4.0938,0-5.6562L11.0703,61.9824z"
		/>
</g>
</svg>
