<?xml version="1.0" encoding="utf-8"?>
<!-- Generator: Adobe Illustrator 19.2.0, SVG Export Plug-In . SVG Version: 6.00 Build 0)  -->
<svg version="1.1" id="microscopeview" xmlns="http://www.w3.org/2000/svg" xmlns:xlink="http://www.w3.org/1999/xlink" x="0px"
	 y="0px" viewBox="0 0 216 116" enable-background="new 0 0 216 116" xml:space="preserve">
<g>
	<path fill="#D8D8D8" d="M154.0391,37.2461c0.707-0.8125,1.0547-1.8438,0.9805-2.9023s-0.5625-2.0273-1.3711-2.7305l-6.0508-5.2617
		c-0.7266-0.6328-1.6445-0.9727-2.6055-0.9727c-0.0938,0-0.1914,0-0.2852,0.0078c-1.0703,0.0742-2.043,0.5586-2.7422,1.3672
		c-0.7109,0.8125-1.0586,1.8438-0.9844,2.9023s0.5586,2.0273,1.3711,2.7305l6.0508,5.2617
		C150.0586,39.0977,152.5938,38.9062,154.0391,37.2461z"/>
	<circle fill="#D8D8D8" cx="112" cy="52" r="4"/>
	<path fill="#D8D8D8" d="M32,44c0-4.4102-3.5898-8-8-8s-8,3.5898-8,8s3.5898,8,8,8S32,48.4102,32,44z"/>
	<path fill="#D8D8D8" d="M52.4102,72.2383c0.3125,1.0156,1.0078,1.8555,1.957,2.3594c1.9805,1.0508,4.3555,0.3281,5.4062-1.6484
		l7.5195-14.1406c1.0312-1.9453,0.2891-4.3711-1.6602-5.4062c-1.9844-1.0469-4.3555-0.3203-5.4062,1.6523L52.707,69.1953
		C52.2031,70.1445,52.0977,71.2227,52.4102,72.2383z"/>
	<rect fill="#535353" width="216" height="8"/>
	<polygon fill="#535353" points="200,92 184,92 176,92 160,92 152,92 136,92 128,92 112,92 104,92 88,92 80,92 64,92 56,92 40,92 
		32,92 16,92 8,92 0,92 0,100 8,100 8,116 16,116 16,100 32,100 32,116 40,116 40,100 56,100 56,116 64,116 64,100 80,100 80,116 
		88,116 88,100 104,100 104,116 112,116 112,100 128,100 128,116 136,116 136,100 152,100 152,116 160,116 160,100 176,100 176,116 
		184,116 184,100 200,100 200,116 208,116 208,100 216,100 216,92 208,92 	"/>
	<path fill="#535353" d="M40,44c0-8.8242-7.1758-16-16-16S8,35.1758,8,44s7.1758,16,16,16S40,52.8242,40,44z M16,44
		c0-4.4102,3.5898-8,8-8s8,3.5898,8,8s-3.5898,8-8,8S16,48.4102,16,44z"/>
	<path fill="#535353" d="M112,40c-6.6172,0-12,5.3828-12,12s5.3828,12,12,12s12-5.3828,12-12S118.6172,40,112,40z M112,56
		c-2.207,0-4-1.793-4-4s1.793-4,4-4s4,1.793,4,4S114.207,56,112,56z"/>
	<path fill="#535353" d="M188,76c0,4.4102,3.5898,8,8,8s8-3.5898,8-8s-3.5898-8-8-8S188,71.5898,188,76z"/>
	<path fill="#535353" d="M45.6445,65.4375c-1.5117,2.8398-1.8242,6.0898-0.8828,9.1562c0.9414,3.0508,3.0195,5.5625,5.8516,7.0664
		c1.7891,0.9531,3.7109,1.4023,5.6094,1.4023c4.2969,0,8.457-2.3086,10.6133-6.3555l7.5195-14.1445
		c3.1055-5.8398,0.875-13.1172-4.9688-16.2227c-5.832-3.1055-13.1172-0.875-16.2227,4.957L45.6445,65.4375z M60.2266,55.0547
		c1.0508-1.9727,3.4219-2.6992,5.4062-1.6523c1.9492,1.0352,2.6914,3.4609,1.6602,5.4062l-7.5195,14.1406
		c-1.0508,1.9766-3.4258,2.6992-5.4062,1.6484c-0.9492-0.5039-1.6445-1.3438-1.957-2.3594s-0.207-2.0938,0.2969-3.043
		L60.2266,55.0547z"/>
	<path fill="#535353" d="M151.0078,46.6211c3.3555,0,6.6953-1.3984,9.0703-4.125c2.1094-2.4297,3.1484-5.5234,2.9219-8.7188
		c-0.2266-3.1875-1.6836-6.1016-4.1016-8.2031l-6.0508-5.2617c-2.418-2.0977-5.4922-3.1289-8.7031-2.9062
		c-3.1992,0.2266-6.1172,1.6797-8.2148,4.0977c-2.1133,2.4219-3.1523,5.5156-2.9297,8.707s1.6797,6.1094,4.1016,8.2148
		l6.0508,5.2617C145.418,45.6562,148.2188,46.6211,151.0078,46.6211z M140.9805,29.6562c-0.0742-1.0586,0.2734-2.0898,0.9844-2.9023
		c0.6992-0.8086,1.6719-1.293,2.7422-1.3672c0.0938-0.0078,0.1914-0.0078,0.2852-0.0078c0.9609,0,1.8789,0.3398,2.6055,0.9727
		l6.0508,5.2617c0.8086,0.7031,1.2969,1.6719,1.3711,2.7305s-0.2734,2.0898-0.9805,2.9023
		c-1.4453,1.6602-3.9805,1.8516-5.6367,0.4023l-6.0508-5.2617C141.5391,31.6836,141.0547,30.7148,140.9805,29.6562z"/>
	<path fill="#535353" d="M58.3555,23.9844c4.9102-0.4258,19.4141-0.0273,21.8516,7.2812C80.7656,32.9414,82.3242,34,84,34
		c0.418,0,0.8438-0.0664,1.2656-0.207c2.0938-0.6953,3.2266-2.9609,2.5273-5.0586c-4.9453-14.8398-29.125-12.8086-30.1562-12.7188
		c-2.1953,0.1992-3.8164,2.1445-3.6172,4.3398C54.2109,22.5586,56.1875,24.2148,58.3555,23.9844z"/>
	<path fill="#535353" d="M194.1211,34.6094c-1.8789-1.1758-4.3438-0.6016-5.5117,1.2695l-10,16
		c-1.1719,1.875-0.6016,4.3438,1.2695,5.5117C180.5391,57.8047,181.2734,58,181.9961,58c1.332,0,2.6367-0.6641,3.3945-1.8789l10-16
		C196.5625,38.2461,195.9922,35.7773,194.1211,34.6094z"/>
	<path fill="#535353" d="M120.0625,74.6953C120.4023,76.6367,122.0898,78,123.9961,78c0.2305,0,0.4648-0.0195,0.6992-0.0625l34-6
		c2.1758-0.3828,3.6289-2.457,3.2422-4.6328c-0.3828-2.1758-2.457-3.6484-4.6328-3.2422l-34,6
		C121.1289,70.4453,119.6758,72.5195,120.0625,74.6953z"/>
</g>
</svg>
