<?xml version="1.0" encoding="utf-8"?>
<!-- Generator: Adobe Illustrator 19.2.0, SVG Export Plug-In . SVG Version: 6.00 Build 0)  -->
<svg version="1.1" id="microorganism" xmlns="http://www.w3.org/2000/svg" xmlns:xlink="http://www.w3.org/1999/xlink" x="0px"
	 y="0px" viewBox="0 0 239.9621 237.8921" enable-background="new 0 0 239.9621 237.8921" xml:space="preserve">
<g>
	<path fill="#D8D8D8" d="M135.4693,71.0249c11.373,2.8828,22.1133,5.6055,31.9141,1.5469
		c4.9238-2.0391,10.8281-5.3828,10.9961-9.7461c0.1973-5.1016-6.9316-11.1445-11.8105-13.6211
		C140.61,36.021,118.6041,29.4272,99.8854,29.4272c-18.375,0-33.5801,6.3477-46.2734,19.0391
		c-1.7126,1.7129-3.2942,3.5059-4.8169,5.3313c-0.0269,0.0339-0.032,0.0767-0.0601,0.1101
		c-0.0356,0.0422-0.0891,0.0554-0.126,0.0959c-25.73,31.0649-24.0796,77.3159,5.0029,106.4001l1.416,1.4336
		c5.7285,5.8438,23.1406,23.7656,34.5391,23.1055c2.4199-0.1094,4.3047-1.0859,5.9277-3.0742
		c4.0254-4.9297-1.8926-19.7266-7.6152-34.0391c-9.2363-23.1016-20.7324-51.8476-3.7402-68.8398
		C100.8736,62.2515,119.2565,66.9077,135.4693,71.0249z"/>
	<path fill="#D8D8D8" d="M194.0084,138.1851c-9.8594-9.1953-22.7246-13.9805-36.1777-13.5273h-0.002l-1.3301,0.0391
		c-13.9668,0.3516-22.541,2.2812-25.4824,5.7383c-0.7676,0.8984-1.0332,1.8672-0.8613,3.1328
		c0.4531,3.3242,11.082,7.4453,18.8418,10.457c15.5703,6.0391,34.9473,13.5586,35.5293,30.1953
		c0.5684,16.2773-10.2246,23.2266-19.748,29.3594c-6.2617,4.0352-12.1758,7.8438-14.4512,13.9219
		c-1.4844,3.9688-1.6934,7.0195-0.5566,8.1641c1.6172,1.6367,6.7988,1.4023,10.3477,0.1016
		c6.0034-2.1936,11.3853-4.4905,16.2556-6.8916c0.7061-0.8059,1.6509-1.2666,2.6577-1.3457
		c21.9238-11.4861,31.647-25.5476,30.9949-44.1963C209.5572,159.8608,203.8678,147.3804,194.0084,138.1851z"/>
	<path fill="#535353" d="M133.5045,78.7788c12.1348,3.0781,24.6855,6.25,36.9375,1.1836
		c10.3047-4.2617,15.6641-9.9258,15.9316-16.8242c0.3867-9.9688-10.418-18.1406-16.1836-21.0664
		c-1.9131-0.9717-3.8818-1.9468-5.8862-2.9177l9.1538-16.4768c1.0742-1.9297,0.377-4.3633-1.5527-5.4375
		c-1.9336-1.082-4.3672-0.375-5.4395,1.5547l-9.4241,16.9631c-8.7473-3.936-18.1438-7.5718-27.8418-10.2158l8.2581-14.8645
		c1.0742-1.9297,0.377-4.3633-1.5527-5.4375c-1.9355-1.082-4.3711-0.3789-5.4395,1.5547l-9.3379,16.8081
		c-5.9717-1.2383-12.0161-2.0317-18.0591-2.2307L99.901,3.3101c-0.3828-2.1758-2.4531-3.6289-4.6309-3.25
		c-2.1758,0.3828-3.6309,2.457-3.248,4.6328l2.9441,16.7878c-9.6501,0.5906-19.2002,2.8914-28.3293,7.5703L63.901,13.4507
		c-0.3809-2.1758-2.4531-3.6211-4.6309-3.25c-2.1758,0.3828-3.6309,2.457-3.248,4.6328l3.2593,18.5859
		c-3.8804,2.6309-7.667,5.7314-11.3257,9.3906c-0.9524,0.9524-1.7798,1.9797-2.6787,2.9646L32.485,35.021
		c-1.6895-1.418-4.2148-1.1992-5.6367,0.4883c-1.4199,1.6914-1.2031,4.2148,0.4883,5.6367L40.149,51.9168
		c-3.7534,4.957-6.8975,10.2158-9.4495,15.6987l-16.9685-6.196c-2.0703-0.75-4.3711,0.3086-5.1289,2.3867
		c-0.7578,2.0742,0.3105,4.3711,2.3867,5.1289l16.6672,6.0859c-2.8948,8.104-4.5525,16.5312-4.9771,25.0322l-18.5359-0.665
		c-2.1543-0.0742-4.0586,1.6484-4.1406,3.8516c-0.0781,2.207,1.6465,4.0625,3.8555,4.1406l18.7847,0.6738
		c0.2253,5.4622,0.9573,10.8926,2.2017,16.2419l-18.3418,8.1467c-2.0195,0.8984-2.9297,3.2617-2.0332,5.2812
		c0.6621,1.4883,2.125,2.375,3.6582,2.375c0.543,0,1.0938-0.1094,1.6211-0.3438l17.2886-7.679
		c2.3635,7.0979,5.5757,13.9734,9.8118,20.3843l-17.9714,7.9822c-2.0195,0.8984-2.9297,3.2617-2.0332,5.2812
		c0.6621,1.4883,2.125,2.375,3.6582,2.375c0.543,0,1.0938-0.1094,1.6211-0.3438l18.8203-8.3594
		c0.2559-0.1138,0.4377-0.3091,0.6567-0.4663c1.9744,2.4595,4.0745,4.8499,6.355,7.1304l1.3613,1.3789
		c2.3428,2.3894,4.823,4.8418,7.3896,7.241l-11.6514,14.884c-1.3613,1.7383-1.0547,4.2539,0.6855,5.6133
		c0.7305,0.5742,1.5996,0.8516,2.4629,0.8516c1.1875,0,2.3633-0.5273,3.1523-1.5352l11.3477-14.4956
		c8.6665,7.2532,17.9397,12.9565,26.3906,12.9565c0.2793,0,0.5586-0.0078,0.834-0.0195c4.6582-0.2109,8.7246-2.2891,11.7617-6.0039
		c7.0098-8.582,0.8047-24.1016-6.3828-42.0742c-8.7988-22.0039-18.7734-46.9492-5.5117-60.2109
		C103.3131,71.1343,117.9772,74.8413,133.5045,78.7788z M87.8795,147.8296c5.7227,14.3125,11.6406,29.1094,7.6152,34.0391
		c-1.623,1.9883-3.5078,2.9648-5.9277,3.0742c-11.3984,0.6602-28.8106-17.2617-34.5391-23.1055l-1.416-1.4336
		C24.5294,131.3196,22.879,85.0686,48.609,54.0037c0.0369-0.0405,0.0903-0.0537,0.126-0.0959
		c0.0281-0.0334,0.0332-0.0762,0.0601-0.1101c1.5227-1.8254,3.1042-3.6184,4.8169-5.3313
		c12.6934-12.6914,27.8984-19.0391,46.2734-19.0391c18.7188,0,40.7246,6.5938,66.6836,19.7773
		c4.8789,2.4766,12.0078,8.5195,11.8105,13.6211c-0.168,4.3633-6.0723,7.707-10.9961,9.7461
		c-9.8008,4.0586-20.541,1.3359-31.9141-1.5469c-16.2129-4.1172-34.5957-8.7734-51.3301,7.9648
		C67.1471,95.9819,78.6432,124.728,87.8795,147.8296z"/>
	<path fill="#535353" d="M236.1041,169.9546l-18.3967-0.6599c-0.8232-8.3591-3.3372-16.3303-7.4697-23.4624l15.8762-6.7214
		c2.0352-0.8633,2.9863-3.207,2.125-5.2422s-3.2148-2.9844-5.2422-2.125l-17.396,7.3647c-1.8696-2.3806-3.8792-4.6709-6.1353-6.7749
		c-3.4934-3.2563-7.3442-5.9824-11.4104-8.2671l10.6467-11.397c1.5078-1.6133,1.4219-4.1445-0.1934-5.6523
		s-4.1406-1.4258-5.6543,0.1914l-12.3718,13.2434c-4.7236-1.8145-9.6863-2.9541-14.7712-3.4705l-0.2847-17.2417
		c-0.0371-2.2148-1.8848-3.9258-4.0664-3.9336c-2.209,0.0352-3.9688,1.8555-3.9336,4.0664l0.2771,16.7944
		c-0.051,0.002-0.1011-0.0034-0.1521-0.0015l-1.2539,0.0352c-11.4648,0.2852-25.3906,1.5195-31.373,8.5469
		c-2.2422,2.6328-3.1738,5.8828-2.6953,9.3984c1.0879,8,11.6484,12.0938,23.873,16.8359
		c14.0762,5.4609,30.0312,11.6523,30.4277,23.0195c0.4102,11.7305-7.2324,16.6523-16.082,22.3516
		c-7.084,4.5625-14.4082,9.2812-17.6133,17.8438c-2.7676,7.3906-2.3438,12.9805,1.2578,16.6055
		c2.623,2.6445,6.3867,3.5039,10.0059,3.5039c3.4141,0,6.6973-0.7656,8.7676-1.5234c5.2314-1.9121,10.8245-4.1787,16.3728-6.8691
		l14.1292,10.6699c0.7207,0.5469,1.5684,0.8086,2.4062,0.8086c1.2129,0,2.4102-0.5469,3.1953-1.5898
		c1.332-1.7617,0.9824-4.2695-0.7812-5.6016l-11.1389-8.4116c7.0217-4.0842,13.5906-9.0623,18.8899-15.1445l14.2607,10.7671
		c0.7207,0.5469,1.5684,0.8086,2.4062,0.8086c1.2129,0,2.4102-0.5469,3.1953-1.5898c1.332-1.7617,0.9824-4.2695-0.7812-5.6016
		l-14.2517-10.7603c4.1631-6.5933,6.7651-14.3623,7.1553-23.4639l17.8953,0.6421c0.0488,0.0039,0.0957,0.0039,0.1445,0.0039
		c2.1426,0,3.918-1.6992,3.9961-3.8555C240.0377,171.8882,238.3131,170.0327,236.1041,169.9546z M179.0311,217.5298
		c-1.0068,0.0791-1.9517,0.5398-2.6577,1.3457c-4.8704,2.4011-10.2522,4.698-16.2556,6.8916
		c-3.5488,1.3008-8.7305,1.5352-10.3477-0.1016c-1.1367-1.1445-0.9277-4.1953,0.5566-8.1641
		c2.2754-6.0781,8.1895-9.8867,14.4512-13.9219c9.5234-6.1328,20.3164-13.082,19.748-29.3594
		c-0.582-16.6367-19.959-24.1562-35.5293-30.1953c-7.7598-3.0117-18.3887-7.1328-18.8418-10.457
		c-0.1719-1.2656,0.0938-2.2344,0.8613-3.1328c2.9414-3.457,11.5156-5.3867,25.4824-5.7383l1.3301-0.0391h0.002
		c13.4531-0.4531,26.3184,4.332,36.1777,13.5273s15.5488,21.6758,16.0176,35.1484
		C210.6781,191.9822,200.9549,206.0437,179.0311,217.5298z"/>
</g>
</svg>
