<?xml version="1.0" encoding="utf-8"?>
<!-- Generator: Adobe Illustrator 19.2.0, SVG Export Plug-In . SVG Version: 6.00 Build 0)  -->
<svg version="1.1" id="microscopebacteria" xmlns="http://www.w3.org/2000/svg" xmlns:xlink="http://www.w3.org/1999/xlink" x="0px"
	 y="0px" viewBox="0 0 220.0843 215.4976" enable-background="new 0 0 220.0843 215.4976" xml:space="preserve">
<g>
	<path fill="#D8D8D8" d="M85.9663,63.5054c3.6133,0.9688,7.3945,0.4805,10.6367-1.3945l48.4766-27.9922
		c3.2344-1.8672,5.5547-4.8867,6.5234-8.5c0.9727-3.6172,0.4805-7.3945-1.3907-10.6289c-2.5898-4.4844-7.3047-6.9922-12.1484-6.9922
		c-2.375,0-4.7812,0.6016-6.9844,1.875L82.603,37.8609c-3.2344,1.8672-5.5547,4.8867-6.5234,8.5039
		c-0.9727,3.6172-0.4805,7.3906,1.3906,10.625C79.3335,60.2242,82.353,62.5367,85.9663,63.5054z"/>
	<path fill="#D8D8D8" d="M83.3804,162.7788c-1.7344-0.4922-3.5195-0.293-5.0625,0.5664L48.0132,180.146
		c-3.2109,1.7773-4.3672,5.8516-2.5781,9.0782c1.7891,3.2187,5.8516,4.3984,9.0664,2.6171l30.3008-16.7969
		c3.2109-1.7812,4.3672-5.8516,2.5781-9.0742C86.5171,164.4077,85.0952,163.2749,83.3804,162.7788z"/>
	<path fill="#D8D8D8" d="M122.5249,122.0249c-0.3984-1.7383-1.4453-3.2109-2.9492-4.1484L90.189,99.5132
		c-1.0664-0.668-2.2734-1.0078-3.5039-1.0078c-0.5039,0-1.0156,0.0547-1.5195,0.1719c-1.7383,0.4062-3.2148,1.4609-4.1602,2.9766
		c-1.957,3.1289-1.0156,7.2578,2.0977,9.207l29.3828,18.3594c3.1133,1.9414,7.2305,0.9844,9.1914-2.1484
		C122.6226,125.5601,122.9233,123.7671,122.5249,122.0249z"/>
	<path fill="#D8D8D8" d="M194.5093,126.4038c-4.5469,0-8.4297,3.4766-8.832,8.0703l-3.4961,39.9609
		c-0.4258,4.8594,3.1953,9.1562,8.0703,9.5859c4.8984,0.457,9.1836-3.1797,9.6094-8.0391l3.4961-39.957
		c0.4258-4.8594-3.1953-9.1562-8.0664-9.5859C195.0288,126.4156,194.7671,126.4038,194.5093,126.4038z"/>
	<path fill="#535353" d="M14.1108,92.8296l14.0508-8.1133l14.9688,11.6836c0.7188,0.5625,1.5898,0.8477,2.4609,0.8477
		c0.7695,0,1.543-0.2227,2.2148-0.668c1.4336-0.957,2.0977-2.7227,1.6445-4.3828l-8.1367-29.875l13.0352,10.0586
		c1.2891,0.9844,3.0391,1.1055,4.4453,0.2969l14.2295-8.2158c2.8433,3.2676,6.5886,5.6245,10.8721,6.7705
		c1.8984,0.5117,3.8281,0.7617,5.7422,0.7617c3.8125,0,7.5742-0.9961,10.9648-2.9531l48.4766-27.9922
		c5.0859-2.9336,8.7266-7.6758,10.25-13.3555c1.5273-5.6836,0.75-11.6172-2.1875-16.7031
		c-6.0664-10.5039-19.5625-14.1094-30.0625-8.0469L78.603,30.9312c-5.0859,2.9375-8.7266,7.6797-10.25,13.3555
		c-1.196,4.4507-0.9316,9.0378,0.6294,13.269l-11.8677,6.8521L36.771,48.7085c-1.3633-1.0508-3.2461-1.1172-4.6719-0.1562
		c-1.4258,0.957-2.0859,2.7188-1.6328,4.375l8.1055,29.7656l-7.6133-5.9414c-1.2812-1.0078-3.0508-1.1289-4.4609-0.3125
		l-16.3867,9.4609c-1.9141,1.1055-2.5703,3.5508-1.4648,5.4648C9.7515,93.2827,12.2007,93.9273,14.1108,92.8296z M76.0796,46.3648
		c0.9688-3.6172,3.2891-6.6367,6.5234-8.5039l48.4766-27.9883c2.2031-1.2734,4.6094-1.875,6.9844-1.875
		c4.8438,0,9.5586,2.5078,12.1484,6.9922c1.8711,3.2344,2.3633,7.0117,1.3907,10.6289c-0.9688,3.6133-3.2891,6.6328-6.5234,8.5
		L96.603,62.1109c-3.2422,1.875-7.0234,2.3633-10.6367,1.3945s-6.6328-3.2812-8.4961-6.5156
		C75.5991,53.7554,75.1069,49.982,76.0796,46.3648z"/>
	<path fill="#535353" d="M217.4351,98.3609l-17.5391-6.3008l3.3281-1.0195c1.5586-0.4766,2.6719-1.8516,2.8125-3.4766
		l1.1797-13.4844c0.1914-2.1992-1.4336-4.1406-3.6367-4.332c-2.168-0.2148-4.1367,1.4375-4.332,3.6367l-0.9453,10.7969l-12.25,3.75
		c-1.6445,0.5039-2.7852,2.0078-2.8281,3.7266c-0.0391,1.7227,1.0273,3.2812,2.6484,3.8633l17.6484,6.3398l-8.0039,2.5039
		c-1.5508,0.4805-2.6523,1.8516-2.793,3.4688l-0.9521,10.8657c-7.374,1.2427-13.3816,7.28-14.0635,15.0796l-3.4961,39.9609
		c-0.8125,9.25,6.0703,17.4375,15.3438,18.25c0.4961,0.043,0.9922,0.0664,1.4844,0.0664c8.6445,0,16.0234-6.6211,16.7891-15.3789
		l3.4961-39.957c0.6938-7.9387-4.2925-15.0605-11.5747-17.4436l0.7075-8.0759l16.8164-5.2578
		c1.6406-0.5117,2.7734-2.0156,2.8086-3.7305C220.1187,100.4937,219.0522,98.9429,217.4351,98.3609z M203.3569,136.0249
		l-3.4961,39.957c-0.4258,4.8594-4.7109,8.4961-9.6094,8.0391c-4.875-0.4297-8.4961-4.7266-8.0703-9.5859l3.4961-39.9609
		c0.4023-4.5938,4.2851-8.0703,8.832-8.0703c0.2578,0,0.5195,0.0117,0.7812,0.0352
		C200.1616,126.8687,203.7827,131.1656,203.3569,136.0249z"/>
	<path fill="#535353" d="M161.2124,150.314l-7.4961-4.6875l1.6914-10.1055c0.2812-1.6875-0.543-3.3711-2.0469-4.1836
		c-1.5117-0.8086-3.3672-0.5703-4.6211,0.5938l-10.1602,9.4375l0.8398-5.2109c0.2578-1.5898-0.4648-3.1758-1.8281-4.0273
		l-7.4963-4.6846c0.6509-2.3296,0.782-4.782,0.2268-7.2061c-0.875-3.8281-3.1875-7.0781-6.5078-9.1484L94.4312,92.732
		c-3.3203-2.0781-7.2539-2.7461-11.0781-1.8438c-3.8125,0.8867-7.0586,3.2031-9.1328,6.5273
		c-4.293,6.8672-2.2148,15.9375,4.6406,20.2266l29.3867,18.3633c2.4023,1.5,5.082,2.2148,7.7305,2.2148
		c3.6565,0,7.2542-1.3672,10.0029-3.9131l5.1182,3.1982l-2.2695,14.0742c-0.2734,1.6875,0.5586,3.3594,2.0625,4.1641
		c1.5039,0.8008,3.3594,0.5625,4.6094-0.5977l10.0781-9.3594l-0.1953,1.1562c-0.2656,1.5938,0.4531,3.1953,1.8242,4.0508
		l9.7617,6.1016c0.6602,0.4141,1.3945,0.6094,2.1172,0.6094c1.3321,0,2.6367-0.6641,3.3946-1.8789
		C163.6538,153.9507,163.0835,151.482,161.2124,150.314z M112.4858,129.2202L83.103,110.8609
		c-3.1133-1.9492-4.0547-6.0781-2.0977-9.207c0.9453-1.5156,2.4219-2.5703,4.1602-2.9766c0.5039-0.1172,1.0156-0.1719,1.5195-0.1719
		c1.2305,0,2.4375,0.3398,3.5039,1.0078l29.3867,18.3633c1.5039,0.9375,2.5508,2.4102,2.9492,4.1484
		c0.3984,1.7422,0.0977,3.5352-0.8477,5.0469C119.7163,130.2046,115.5991,131.1617,112.4858,129.2202z"/>
	<path fill="#535353" d="M85.5991,155.0913c-3.7695-1.0742-7.7344-0.6406-11.1602,1.2578L44.1382,173.146
		c-5.8992,3.2659-8.5916,10.0332-7.0647,16.3037l-5.3298,2.9541l-11.2148-8.8047c-1.3438-1.0625-3.207-1.1445-4.6406-0.2148
		c-1.4336,0.9258-2.1211,2.6602-1.7109,4.3203l3.3008,13.3477l-0.9141-0.7266c-1.2695-1.0117-3.0156-1.1602-4.4297-0.3711
		L2.064,205.5327c-1.9336,1.0703-2.6328,3.5039-1.5625,5.4375c1.0703,1.9375,3.5078,2.6289,5.4375,1.5625l7.7344-4.2852
		l8.0156,6.3789c0.7266,0.5781,1.6094,0.8711,2.4922,0.8711c0.75,0,1.5-0.2109,2.1602-0.6328
		c1.4414-0.9258,2.1328-2.6641,1.7227-4.3281l-3.3281-13.4648l4.1562,3.2617c1.2617,0.9961,3,1.1367,4.4062,0.3555l7.6794-4.2559
		c2.7744,2.7334,6.5078,4.2363,10.3284,4.2363c2.3984,0,4.832-0.5898,7.0703-1.8281l30.3047-16.8008
		c7.0664-3.918,9.625-12.8711,5.6992-19.9492C92.4819,158.6656,89.3608,156.1812,85.5991,155.0913z M84.8022,175.0445
		l-30.3008,16.7969c-3.2148,1.7812-7.2773,0.6016-9.0664-2.6171c-1.7891-3.2266-0.6328-7.3008,2.5781-9.0782l30.3047-16.8008
		c1.543-0.8594,3.3281-1.0586,5.0625-0.5664c1.7148,0.4961,3.1367,1.6289,4,3.1914
		C89.1694,169.1929,88.0132,173.2632,84.8022,175.0445z"/>
</g>
</svg>
