<?xml version="1.0" encoding="utf-8"?>
<!-- Generator: Adobe Illustrator 19.2.0, SVG Export Plug-In . SVG Version: 6.00 Build 0)  -->
<svg version="1.1" id="microscopestructure" xmlns="http://www.w3.org/2000/svg" xmlns:xlink="http://www.w3.org/1999/xlink"
	 x="0px" y="0px" viewBox="0 0 196.9946 212" enable-background="new 0 0 196.9946 212" xml:space="preserve">
<g>
	<path fill="#FFFFFF" d="M84,108c-8.8242,0-16,7.1758-16,16s7.1758,16,16,16s16-7.1758,16-16S92.8242,108,84,108z"/>
	<path fill="#D8D8D8" d="M32,84c0-6.6172-5.3828-12-12-12S8,77.3828,8,84s5.3828,12,12,12S32,90.6172,32,84z"/>
	<path fill="#D8D8D8" d="M116,188c-4.4102,0-8,3.5898-8,8s3.5898,8,8,8s8-3.5898,8-8S120.4102,188,116,188z"/>
	<path fill="#D8D8D8" d="M152,24c4.4102,0,8-3.5898,8-8s-3.5898-8-8-8s-8,3.5898-8,8S147.5898,24,152,24z"/>
	<path fill="#D8D8D8" d="M179.3984,32.7031c-3.2031-1.0977-10.9531,10.8711-15.1602,17.332
		c-7.5898,11.6641-14.1133,21.793-22.3242,20.6797c-6.4922-0.8477-9.6758-8.3711-11.5078-13.957
		c-5.8906-17.9688-11.1953-27.8398-16.2266-30.168c-2.6758-1.2305-5.6211-0.4375-10.8242,1.6758
		c-3.3438,1.3633-4.2734,3.6055-5.7578,7.7852c-1.9023,5.3594-4.5078,12.6953-16.418,15.3516
		c-9.0312,2.0156-14.2227-0.7188-18.3945-2.9062c-2.5508-1.3359-4.7266-2.4805-7.7344-2.4805c-2.6523,0-5.957,0.8867-10.7383,3.3047
		c-1.6367,0.8242-1.957,1.3672-1.957,1.3711c0.2773,1.0938,4.3438,4.6289,7.0352,6.9727
		c7.1484,6.2188,16.043,13.957,15.3086,24.7344c-0.5781,8.4648-7.1211,16.6797-20,25.1094
		c-12.5195,8.1914-19.1406,15.2383-19.6758,20.9414c-0.4609,4.9023,3.793,9,8.2969,13.3398
		c5.1641,4.9727,12.2344,11.7852,6.7305,20.0977c-3.7227,5.625-4.3359,11.8516-1.7344,17.5312
		c3.543,7.7227,12.2344,13,23.8477,14.4727c8.5117,1.0859,12.6016-6.1836,18.418-18.2539
		c5.8906-12.2305,13.2422-27.4375,31.293-19.6289c30.9727,13.4258,55.8789,19.2773,64.9766,15.2656
		c2.1445-0.9414,2.793-2.2148,3.0938-3.0898c1.5-4.3438-2.1016-7.207-10.6719-12.7031c-8-5.1289-17.9531-11.5117-16.8359-22.8906
		c1.082-11.0195,11.1211-12.543,19.1914-13.7656c10.9492-1.6641,17.1445-3.1641,17.1445-14.6641
		c0-3.7266,0.0508-7.7031,0.1016-11.8125C189.1562,70.0859,189.582,36.4492,179.3984,32.7031z M84,148c-13.2344,0-24-10.7656-24-24
		s10.7656-24,24-24s24,10.7656,24,24S97.2344,148,84,148z M160,100c-6.6172,0-12-5.3828-12-12s5.3828-12,12-12s12,5.3828,12,12
		S166.6172,100,160,100z"/>
	<circle fill="#FFFFFF" cx="160" cy="88" r="4"/>
	<path fill="#535353" d="M182.1562,25.1953c-9.1328-3.3516-16.6523,8.2227-24.6211,20.4766
		c-3.9141,6.0156-11.1406,17.1211-14.4102,17.1211c-0.0586,0-0.1172-0.0039-0.1758-0.0117
		c-0.0898-0.0117-2.2773-0.3867-4.9414-8.5156c-6.8945-21.0352-13.0156-31.4844-20.4688-34.9336
		c-6.2891-2.9141-12.3438-0.457-17.207,1.5273c-6.8125,2.7773-8.7305,8.1758-10.2734,12.5156
		c-1.7578,4.9492-3.0273,8.5273-10.6211,10.2227c-6.1602,1.3633-9.1484-0.1953-12.9375-2.1836
		c-5.5781-2.9375-11.9141-6.2578-25.7969,0.7656c-3.7656,1.9062-5.8633,4.3711-6.2344,7.332
		c-0.6484,5.2109,4.1328,9.3711,9.6719,14.1875c6.1133,5.3203,13.043,11.3477,12.5781,18.1562
		c-0.3906,5.7109-5.9102,12.0898-16.4023,18.957c-15.0703,9.8633-22.4609,18.4062-23.2578,26.8906
		c-0.8203,8.7383,5.5742,14.8984,10.7148,19.8477c6.1133,5.8906,7.1094,7.6523,5.6055,9.9219
		c-5.2266,7.8984-6.0781,17.1133-2.332,25.2812c4.7188,10.293,15.6953,17.2422,30.1094,19.0742
		c0.9297,0.1172,1.8242,0.1758,2.6914,0.1758c12.9141,0,18.9961-12.625,23.9414-22.8945
		c7.0352-14.5938,10.8984-20.0938,20.9062-15.7578c19.9531,8.6445,55.7578,22.1172,71.3828,15.2461
		c3.6562-1.6133,6.2227-4.3086,7.4297-7.8047c3.707-10.7461-6.0664-17.0117-13.918-22.0469
		c-8.3516-5.3594-13.7852-9.3242-13.1914-15.375c0.4102-4.1914,3.168-5.2344,12.4297-6.6406
		c9.5352-1.4453,23.9453-3.6328,23.9453-22.5703c0-3.6953,0.0508-7.6367,0.1016-11.7109
		C197.2578,62.1875,197.6523,30.8945,182.1562,25.1953z M188.875,92.3477c-0.0508,4.1094-0.1016,8.0859-0.1016,11.8125
		c0,11.5-6.1953,13-17.1445,14.6641c-8.0703,1.2227-18.1094,2.7461-19.1914,13.7656c-1.1172,11.3789,8.8359,17.7617,16.8359,22.8906
		c8.5703,5.4961,12.1719,8.3594,10.6719,12.7031c-0.3008,0.875-0.9492,2.1484-3.0938,3.0898
		c-9.0977,4.0117-34.0039-1.8398-64.9766-15.2656c-18.0508-7.8086-25.4023,7.3984-31.293,19.6289
		c-5.8164,12.0703-9.9062,19.3398-18.418,18.2539c-11.6133-1.4727-20.3047-6.75-23.8477-14.4727
		c-2.6016-5.6797-1.9883-11.9062,1.7344-17.5312c5.5039-8.3125-1.5664-15.125-6.7305-20.0977
		c-4.5039-4.3398-8.7578-8.4375-8.2969-13.3398c0.5352-5.7031,7.1562-12.75,19.6758-20.9414
		c12.8789-8.4297,19.4219-16.6445,20-25.1094c0.7344-10.7773-8.1602-18.5156-15.3086-24.7344
		c-2.6914-2.3438-6.7578-5.8789-7.0352-6.9727c0-0.0039,0.3203-0.5469,1.957-1.3711c4.7812-2.418,8.0859-3.3047,10.7383-3.3047
		c3.0078,0,5.1836,1.1445,7.7344,2.4805c4.1719,2.1875,9.3633,4.9219,18.3945,2.9062c11.9102-2.6562,14.5156-9.9922,16.418-15.3516
		c1.4844-4.1797,2.4141-6.4219,5.7578-7.7852c5.2031-2.1133,8.1484-2.9062,10.8242-1.6758
		c5.0312,2.3281,10.3359,12.1992,16.2266,30.168c1.832,5.5859,5.0156,13.1094,11.5078,13.957
		c8.2109,1.1133,14.7344-9.0156,22.3242-20.6797c4.207-6.4609,11.957-18.4297,15.1602-17.332
		C189.582,36.4492,189.1562,70.0859,188.875,92.3477z"/>
	<path fill="#535353" d="M40,84c0-11.0273-8.9727-20-20-20S0,72.9727,0,84s8.9727,20,20,20S40,95.0273,40,84z M8,84
		c0-6.6172,5.3828-12,12-12s12,5.3828,12,12s-5.3828,12-12,12S8,90.6172,8,84z"/>
	<path fill="#535353" d="M84,100c-13.2344,0-24,10.7656-24,24s10.7656,24,24,24s24-10.7656,24-24S97.2344,100,84,100z M84,140
		c-8.8242,0-16-7.1758-16-16s7.1758-16,16-16s16,7.1758,16,16S92.8242,140,84,140z"/>
	<path fill="#535353" d="M152,32c8.8242,0,16-7.1758,16-16s-7.1758-16-16-16s-16,7.1758-16,16S143.1758,32,152,32z M152,8
		c4.4102,0,8,3.5898,8,8s-3.5898,8-8,8s-8-3.5898-8-8S147.5898,8,152,8z"/>
	<path fill="#535353" d="M160,76c-6.6172,0-12,5.3828-12,12s5.3828,12,12,12s12-5.3828,12-12S166.6172,76,160,76z M160,92
		c-2.207,0-4-1.793-4-4s1.793-4,4-4s4,1.793,4,4S162.207,92,160,92z"/>
	<path fill="#535353" d="M116,180c-8.8242,0-16,7.1758-16,16s7.1758,16,16,16s16-7.1758,16-16S124.8242,180,116,180z M116,204
		c-4.4102,0-8-3.5898-8-8s3.5898-8,8-8s8,3.5898,8,8S120.4102,204,116,204z"/>
</g>
</svg>
