<?xml version="1.0" encoding="utf-8"?>
<!-- Generator: Adobe Illustrator 19.2.0, SVG Export Plug-In . SVG Version: 6.00 Build 0)  -->
<svg version="1.1" id="microscope" xmlns="http://www.w3.org/2000/svg" xmlns:xlink="http://www.w3.org/1999/xlink" x="0px" y="0px"
	 viewBox="0 0 204 210.4948" enable-background="new 0 0 204 210.4948" xml:space="preserve">
<g>
	<rect x="24" y="174.4948" fill="#D8D8D8" width="76" height="8"/>
	
		<rect x="32.0009" y="46.4966" transform="matrix(0.5 -0.866 0.866 0.5 -12.1241 103.9912)" fill="#D8D8D8" width="103.9981" height="31.9984"/>
	<polygon fill="#D8D8D8" points="104,190.4948 20,190.4948 8,190.4948 8,202.4948 176,202.4948 176,190.4948 	"/>
	<circle fill="#D8D8D8" cx="172" cy="94.4948" r="8"/>
	<path fill="#535353" d="M180,182.4948h-30.5483c32.1094-14.373,54.5483-46.6055,54.5483-84c0-50.7285-41.2715-92-92-92
		c-1.1294,0-2.1396,0.4761-2.8669,1.229L96.6797,0.5339c-0.918-0.5273-2.0078-0.6719-3.0352-0.3984
		c-1.0254,0.2734-1.8984,0.9453-2.4297,1.8633l-56,96.9941c-1.1035,1.9141-0.4492,4.3594,1.4648,5.4648l34.6406,20
		c0.6133,0.3535,1.3047,0.5352,2,0.5352c0.3477,0,0.6953-0.0449,1.0352-0.1367c1.0254-0.2734,1.8984-0.9453,2.4297-1.8633
		l56-96.9941c1.1035-1.9141,0.4492-4.3594-1.4648-5.4648l-9.3333-5.3887C163.6067,20.1071,196,55.5612,196,98.4948
		c0,46.3184-37.6816,84-84,84h-4v-12c0-2.209-1.791-4-4-4H20c-2.209,0-4,1.791-4,4v12H4c-2.209,0-4,1.791-4,4v20
		c0,2.209,1.791,4,4,4h176c2.209,0,4-1.791,4-4v-20C184,184.2858,182.209,182.4948,180,182.4948z M71.8555,115.528l-27.7109-16
		l52-90.0645l27.7109,16L71.8555,115.528z M24,174.4948h76v8H24V174.4948z M176,202.4948H8v-12h12h84h72V202.4948z"/>
	
		<rect x="43.9995" y="104.6058" transform="matrix(0.4472 -0.8944 0.8944 0.4472 -86.6066 112.8571)" fill="#535353" width="8.0009" height="43.778"/>
	<path fill="#535353" d="M188,94.4948c0-8.8223-7.1777-16-16-16s-16,7.1777-16,16s7.1777,16,16,16S188,103.3171,188,94.4948z
		 M164,94.4948c0-4.4121,3.5879-8,8-8s8,3.5879,8,8s-3.5879,8-8,8S164,98.9069,164,94.4948z"/>
</g>
</svg>
