<?xml version="1.0" encoding="utf-8"?>
<!-- Generator: Adobe Illustrator 19.2.0, SVG Export Plug-In . SVG Version: 6.00 Build 0)  -->
<svg version="1.1" id="moonclouds" xmlns="http://www.w3.org/2000/svg" xmlns:xlink="http://www.w3.org/1999/xlink" x="0px" y="0px"
	 viewBox="0 0 232 196" enable-background="new 0 0 232 196" xml:space="preserve">
<g>
	<path fill="#D8D8D8" d="M85.0195,36c1.2969,0,2.5156,0.6289,3.2656,1.6875s0.9375,2.418,0.5078,3.6406
		C88.2656,42.8203,88,44.3945,88,46c0,7.7188,6.2891,14,14.0156,14h103.9688C213.7109,60,220,53.7188,220,46s-6.2891-14-14.0156-14
		h-27.0078c-1.3008,0-2.5156-0.6289-3.2656-1.6914s-0.9375-2.418-0.5039-3.6445C175.7344,25.1758,176,23.6094,176,22
		c0-7.7188-6.2891-14-14.0156-14H58.0156C50.2891,8,44,14.2812,44,22s6.2891,14,14.0156,14H85.0195z"/>
	<path fill="#D8D8D8" d="M97.3906,122.8008c0-1.0507-0.1758-2.0859-0.5234-3.0664c-0.4336-1.2266-0.2461-2.582,0.5039-3.6445
		s1.9648-1.6914,3.2656-1.6914h18.1289c5.0938,0,9.2344-4.125,9.2344-9.1992S123.8594,96,118.7656,96H47.8438
		c-5.0938,0-9.2344,4.125-9.2344,9.1992c0,1.0508,0.1758,2.0859,0.5234,3.0664c0.4336,1.2266,0.2461,2.582-0.5039,3.6445
		s-1.9648,1.6914-3.2656,1.6914H17.2344c-5.0938,0-9.2344,4.125-9.2344,9.1992S12.1406,132,17.2344,132h70.9219
		C93.2499,132,97.3906,127.875,97.3906,122.8008z"/>
	<path fill="#D8D8D8" d="M214.7656,169.6016h-20.1562c-2.2109,0-4-1.7891-4-4c0-5.0742-4.1445-9.2031-9.2383-9.2031h-70.918
		c-5.0938,0-9.2344,4.1289-9.2344,9.2031s4.1406,9.1992,9.2344,9.1992h20.1562c2.2109,0,4,1.7891,4,4
		c0,5.0742,4.1405,9.1992,9.2344,9.1992h70.9219c5.0938,0,9.2344-4.125,9.2344-9.1992S219.8594,169.6016,214.7656,169.6016z"/>
	<path fill="#FFFFFF" d="M110.4531,148.3984h60.2007c0.2429-0.4343,0.5596-0.8367,0.9712-1.168
		C189.6562,132.7109,200,111.1211,200,88c0-6.7913-0.9333-13.5054-2.7002-20h-95.2842C89.875,68,80,58.1289,80,46
		c0-0.6719,0.0312-1.3359,0.0898-2H62.0327C52.8586,56.9014,48,72.1045,48,88h70.7656C128.2695,88,136,95.7148,136,105.1992
		s-7.7305,17.1992-17.2344,17.1992h-13.3789c0.0039,0.1328,0.0039,0.2695,0.0039,0.4023c0,9.4844-7.7305,17.1992-17.2344,17.1992
		H68.6206c7.3928,7.8726,16.3691,14.0857,26.3354,18.2126C97.7366,152.4312,103.6096,148.3984,110.4531,148.3984z"/>
	<path fill="#535353" d="M214.7656,161.6016h-16.625c-1.7449-7.2805-8.1567-12.7266-15.8811-13.1265
		C198.6877,132.6724,208,111.0354,208,88c0-6.7766-0.8538-13.478-2.4495-20h0.4338C218.125,68,228,58.1289,228,46
		s-9.875-22-22.0156-22h-22.0742C183.9688,23.3398,184,22.6719,184,22c0-12.1289-9.875-22-22.0156-22H58.0156
		C45.875,0,36,9.8711,36,22c0,10.3584,7.2117,19.0474,16.8767,21.3701C44.4624,56.7332,40,72.0457,40,88
		c0,0.6306,0.1755,1.2065,0.4348,1.7368c-5.7893,2.7759-9.8254,8.6353-9.8254,15.4624c0,0.1328,0,0.2695,0.0039,0.4023H17.2344
		C7.7305,105.6016,0,113.3164,0,122.8008S7.7305,140,17.2344,140h40.7947c9.2456,11.7153,21.4265,20.7588,35.2495,26.1914
		c0.3198,9.2061,7.873,16.6094,17.1746,16.6094h16.625C128.8906,190.3633,135.7188,196,143.8438,196h70.9219
		C224.2695,196,232,188.2852,232,178.8008S224.2695,161.6016,214.7656,161.6016z M44,22c0-7.7188,6.2891-14,14.0156-14h103.9688
		C169.7109,8,176,14.2812,176,22c0,1.6094-0.2656,3.1758-0.793,4.6641c-0.4336,1.2266-0.2461,2.582,0.5039,3.6445
		S177.6758,32,178.9766,32h27.0078C213.7109,32,220,38.2812,220,46s-6.2891,14-14.0156,14H102.0156C94.2891,60,88,53.7188,88,46
		c0-1.6055,0.2656-3.1797,0.793-4.6719c0.4297-1.2227,0.2422-2.582-0.5078-3.6406S86.3164,36,85.0195,36H58.0156
		C50.2891,36,44,29.7188,44,22z M8,122.8008c0-5.0742,4.1406-9.1992,9.2344-9.1992h18.1289c1.3008,0,2.5156-0.6289,3.2656-1.6914
		s0.9375-2.418,0.5039-3.6445c-0.3477-0.9805-0.5234-2.0156-0.5234-3.0664c0-5.0742,4.1405-9.1992,9.2344-9.1992h70.9219
		c5.0938,0,9.2344,4.125,9.2344,9.1992s-4.1406,9.1992-9.2344,9.1992h-18.1289c-1.3008,0-2.5156,0.6289-3.2656,1.6914
		s-0.9375,2.418-0.5039,3.6445c0.3477,0.9805,0.5234,2.0157,0.5234,3.0664c0,5.0742-4.1407,9.1992-9.2344,9.1992H17.2344
		C12.1406,132,8,127.875,8,122.8008z M68.6206,140h19.5356c9.5039,0,17.2344-7.7148,17.2344-17.1992
		c0-0.1328,0-0.2695-0.0039-0.4023h13.3789c9.5039,0,17.2344-7.7148,17.2344-17.1992S128.2695,88,118.7656,88H48
		c0-15.8955,4.8586-31.0986,14.0327-44h18.0571C80.0312,44.6641,80,45.3281,80,46c0,12.1289,9.875,22,22.0156,22h95.2842
		C199.0667,74.4946,200,81.2087,200,88c0,23.1211-10.3438,44.7109-28.375,59.2305c-0.4116,0.3313-0.7283,0.7336-0.9712,1.168
		h-60.2007c-6.8435,0-12.7166,4.0327-15.4971,9.8142C84.9897,154.0857,76.0134,147.8726,68.6206,140z M214.7656,188h-70.9219
		c-5.0938,0-9.2344-4.125-9.2344-9.1992c0-2.2109-1.7891-4-4-4h-20.1562c-5.0938,0-9.2344-4.125-9.2344-9.1992
		s4.1406-9.2031,9.2344-9.2031h70.918c5.0938,0,9.2383,4.1289,9.2383,9.2031c0,2.2109,1.7891,4,4,4h20.1562
		c5.0938,0,9.2344,4.125,9.2344,9.1992S219.8594,188,214.7656,188z"/>
</g>
</svg>
