<?xml version="1.0" encoding="utf-8"?>
<!-- Generator: Adobe Illustrator 19.2.0, SVG Export Plug-In . SVG Version: 6.00 Build 0)  -->
<svg version="1.1" id="moonrevolution" xmlns="http://www.w3.org/2000/svg" xmlns:xlink="http://www.w3.org/1999/xlink" x="0px"
	 y="0px" viewBox="0 0 211.0268 212" enable-background="new 0 0 211.0268 212" xml:space="preserve">
<g>
	<path fill="#D8D8D8" d="M57.0268,16c-16.543,0-30,13.457-30,30s13.457,30,30,30s30-13.457,30-30S73.5698,16,57.0268,16z
		 M42.6284,54.1094c-1.7305,1.9238-3.4062,3.8965-5.0273,5.918c-0.7891,0.9863-1.9531,1.498-3.125,1.498
		c-0.875,0-1.7617-0.2871-2.5-0.8789c-1.7227-1.3828-2-3.9004-0.6172-5.623c1.7148-2.1387,3.4922-4.2285,5.3242-6.2656
		c1.4766-1.6387,4.0078-1.7715,5.6484-0.2988C43.9721,49.9375,44.1088,52.4668,42.6284,54.1094z M72.2846,29.1562
		c-2.1953,1.3789-4.3555,2.8184-6.4688,4.3164c-0.7031,0.498-1.5117,0.7363-2.3086,0.7363c-1.2539,0-2.4883-0.5879-3.2695-1.6875
		c-1.2773-1.8027-0.8477-4.3008,0.9531-5.5762c2.2383-1.584,4.5156-3.1055,6.8437-4.5664c1.8672-1.1758,4.3398-0.6094,5.5117,1.2617
		C74.7221,25.5117,74.1557,27.9805,72.2846,29.1562z"/>
	<path fill="#D8D8D8" d="M126.1088,159.9727c-0.957-0.8613-3.3321-2.5254-9.0508-4.6133
		c-8.4844-3.1016-18.0781-9.1641-19.5742-16.8828c-0.7461-3.8457,0.668-7.6055,3.9766-10.5859
		c2.4141-2.1758,3.6562-4.0977,3.6836-5.7109c0.0352-1.9004-1.5625-4.3496-5.0312-7.7129
		c-4.9658-4.8145-11.5803-8.9277-14.0239-10.3804C79.1142,114.334,75.0268,126.6968,75.0268,140
		c0,6.6797,1.0369,13.1206,2.9443,19.1792C98.0471,161.4727,120.2436,162.2246,126.1088,159.9727z"/>
	<path fill="#D8D8D8" d="M174.9956,175.8477c-0.6484-2.4922-0.8047-4.9883-0.9531-7.4004
		c-0.3242-5.2344-0.6289-10.1797-5.5508-16.3887c-2.8594-3.6094-6.3242-5.623-9.6758-7.5723
		c-5.2812-3.0703-11.2656-6.5508-11.3516-15.7695c-0.0156-1.5977-0.0781-2.9512-0.1328-4.1191
		c-0.4844-10.2637,1.9922-11.3828,15.7266-17.6016c10.99-4.9746,14.4148-13.791,15.3767-17.3193
		C167.5578,81.1396,153.8938,76,139.0268,76c-19.093,0-36.2119,8.4492-47.9482,21.7529c3.2268,1.9688,9.5693,6.0908,14.6045,10.9717
		c3.7461,3.6309,7.5625,8.0879,7.4609,13.6016c-0.0742,3.9727-2.1445,7.7383-6.332,11.5098
		c-1.7695,1.5938-1.5625,2.6641-1.4727,3.1191c0.5664,2.9219,5.8281,7.7324,14.4648,10.8906
		c6.3633,2.3242,14.832,6.166,14.9141,12.666c0.0195,1.8301-0.7656,3.5508-2.2188,4.8477
		c-3.3906,3.0312-12.2695,4.0234-22.4336,4.0234c-9.5952,0-20.3228-0.8838-28.687-1.7705
		C91.7138,189.0967,113.6345,204,139.0268,204c16.6006,0,31.6958-6.4072,43.0811-16.8101
		C179.6567,184.8823,176.3376,180.9902,174.9956,175.8477z"/>
	<path fill="#D8D8D8" d="M184.8786,95.4473c-2.3181,5.6348-7.4458,13.8218-18.5237,18.8379
		c-11.2617,5.0977-11.2617,5.0977-11.0312,9.9375c0.0586,1.252,0.125,2.7051,0.1406,4.4199
		c0.043,4.4863,2.1602,5.8965,7.3711,8.9277c3.6211,2.1055,8.1289,4.7246,11.9297,9.5195
		c6.4766,8.1777,6.9141,15.2109,7.2617,20.8633c0.1367,2.2188,0.2578,4.1348,0.7109,5.875c0.8833,3.3857,3.2678,6.082,4.9468,7.6382
		c9.5432-11.1812,15.3423-25.6489,15.3423-41.4663C203.0268,122.6855,196.0878,106.9805,184.8786,95.4473z"/>
	<path fill="#535353" d="M139.0268,68c-39.6992,0-72,32.2988-72,72s32.3008,72,72,72s72-32.2988,72-72S178.726,68,139.0268,68z
		 M86.0888,104.0864c2.4436,1.4526,9.0581,5.5659,14.0239,10.3804c3.4688,3.3633,5.0664,5.8125,5.0312,7.7129
		c-0.0273,1.6133-1.2695,3.5352-3.6836,5.7109c-3.3086,2.9805-4.7227,6.7402-3.9766,10.5859
		c1.4961,7.7188,11.0898,13.7812,19.5742,16.8828c5.7187,2.0879,8.0938,3.752,9.0508,4.6133
		c-5.8652,2.252-28.0618,1.5-48.1377-0.7935c-1.9075-6.0586-2.9443-12.4995-2.9443-19.1792
		C75.0268,126.6968,79.1142,114.334,86.0888,104.0864z M81.3789,167.6123c8.3643,0.8867,19.0918,1.7705,28.687,1.7705
		c10.1641,0,19.043-0.9922,22.4336-4.0234c1.4531-1.2969,2.2383-3.0176,2.2188-4.8477c-0.082-6.5-8.5508-10.3418-14.9141-12.666
		c-8.6367-3.1582-13.8984-7.9688-14.4648-10.8906c-0.0898-0.4551-0.2969-1.5254,1.4727-3.1191
		c4.1875-3.7715,6.2578-7.5371,6.332-11.5098c0.1016-5.5137-3.7148-9.9707-7.4609-13.6016
		c-5.0352-4.8809-11.3777-9.0029-14.6045-10.9717C102.8149,84.4492,119.9338,76,139.0268,76c14.8669,0,28.531,5.1396,39.408,13.6768
		c-0.9619,3.5283-4.3867,12.3447-15.3767,17.3193c-13.7344,6.2188-16.2109,7.3379-15.7266,17.6016
		c0.0547,1.168,0.1172,2.5215,0.1328,4.1191c0.0859,9.2188,6.0703,12.6992,11.3516,15.7695
		c3.3516,1.9492,6.8164,3.9629,9.6758,7.5723c4.9219,6.209,5.2266,11.1543,5.5508,16.3887
		c0.1484,2.4121,0.3047,4.9082,0.9531,7.4004c1.342,5.1426,4.6611,9.0347,7.1123,11.3423
		C170.7226,197.5928,155.6274,204,139.0268,204C113.6345,204,91.7138,189.0967,81.3789,167.6123z M187.6845,181.4663
		c-1.679-1.5562-4.0635-4.2524-4.9468-7.6382c-0.4531-1.7402-0.5742-3.6562-0.7109-5.875
		c-0.3477-5.6523-0.7852-12.6855-7.2617-20.8633c-3.8008-4.7949-8.3086-7.4141-11.9297-9.5195
		c-5.2109-3.0312-7.3281-4.4414-7.3711-8.9277c-0.0156-1.7148-0.082-3.168-0.1406-4.4199
		c-0.2305-4.8398-0.2305-4.8398,11.0312-9.9375c11.0779-5.0161,16.2056-13.2031,18.5237-18.8379
		c11.2092,11.5332,18.1482,27.2383,18.1482,44.5527C203.0268,155.8174,197.2277,170.2852,187.6845,181.4663z"/>
	<path fill="#535353" d="M95.0268,46c0-20.9531-17.0469-38-38-38s-38,17.0469-38,38s17.0469,38,38,38S95.0268,66.9531,95.0268,46z
		 M57.0268,76c-16.543,0-30-13.457-30-30s13.457-30,30-30s30,13.457,30,30S73.5698,76,57.0268,76z"/>
	<path fill="#535353" d="M36.6831,48.7578c-1.832,2.0371-3.6094,4.127-5.3242,6.2656c-1.3828,1.7227-1.1055,4.2402,0.6172,5.623
		c0.7383,0.5918,1.625,0.8789,2.5,0.8789c1.1719,0,2.3359-0.5117,3.125-1.498c1.6211-2.0215,3.2969-3.9941,5.0273-5.918
		c1.4805-1.6426,1.3438-4.1719-0.2969-5.6504C40.6909,46.9863,38.1596,47.1191,36.6831,48.7578z"/>
	<path fill="#535353" d="M98.9409,15.9395c0.4375,0,0.8828-0.0742,1.3203-0.2266c2.4375-0.8516,4.9062-1.6348,7.4023-2.3496
		c2.125-0.6094,3.3516-2.8242,2.7422-4.9473c-0.6055-2.127-2.832-3.3477-4.9453-2.7441c-2.6445,0.7578-5.2617,1.5879-7.8398,2.4902
		c-2.0859,0.7285-3.1836,3.0098-2.457,5.0957C95.7417,14.9062,97.2885,15.9395,98.9409,15.9395z"/>
	<path fill="#535353" d="M5.8237,118.4531c-2.1641-0.3691-4.25,1.082-4.625,3.2578c-0.4648,2.6895-0.8594,5.4043-1.1719,8.1406
		c-0.2539,2.1953,1.3242,4.1777,3.5156,4.4297c0.1562,0.0176,0.3086,0.0254,0.4609,0.0254c2.0078,0,3.7383-1.5039,3.9688-3.5449
		c0.2969-2.584,0.668-5.1465,1.1094-7.6836C9.4604,120.9004,7.9995,118.8301,5.8237,118.4531z"/>
	<path fill="#535353" d="M19.1401,80.8848c-2.0039-0.9746-4.3789-0.1387-5.3516,1.8438c-1.1953,2.457-2.3242,4.9531-3.3828,7.4824
		c-0.8516,2.0391,0.1094,4.3828,2.1484,5.2344c0.5039,0.2109,1.0273,0.3105,1.543,0.3105c1.5625,0,3.0508-0.9258,3.6914-2.459
		c0.9961-2.3887,2.0625-4.7441,3.1953-7.0645C21.9487,84.2461,21.1245,81.8516,19.1401,80.8848z"/>
	<path fill="#535353" d="M68.0346,22.3789c-2.3281,1.4609-4.6055,2.9824-6.8437,4.5664c-1.8008,1.2754-2.2305,3.7734-0.9531,5.5762
		c0.7812,1.0996,2.0156,1.6875,3.2695,1.6875c0.7969,0,1.6055-0.2383,2.3086-0.7363c2.1133-1.498,4.2734-2.9375,6.4688-4.3164
		c1.8711-1.1758,2.4375-3.6445,1.2617-5.5156C72.3745,21.7695,69.9018,21.2031,68.0346,22.3789z"/>
	<path fill="#535353" d="M138.0346,8.2188c0.0742,0,0.1484-0.002,0.2227-0.0059C140.8315,8.0723,143.4252,8,146.0346,8
		c2.2109,0,4-1.791,4-4s-1.7891-4-4-4c-2.7579,0-5.4922,0.0762-8.2148,0.2246c-2.2031,0.1211-3.8945,2.0059-3.7734,4.2129
		C134.1596,6.5684,135.9252,8.2188,138.0346,8.2188z"/>
</g>
</svg>
