<?xml version="1.0" encoding="utf-8"?>
<!-- Generator: Adobe Illustrator 19.2.0, SVG Export Plug-In . SVG Version: 6.00 Build 0)  -->
<svg version="1.1" id="mouse" xmlns="http://www.w3.org/2000/svg" xmlns:xlink="http://www.w3.org/1999/xlink" x="0px" y="0px"
	 viewBox="0 0 188.6219 192.0234" enable-background="new 0 0 188.6219 192.0234" xml:space="preserve">
<g>
	<circle fill="#D8D8D8" cx="36" cy="155.3828" r="4"/>
	<path fill="#D8D8D8" d="M103.7285,112.0234c-11.2441,0-24.2227,2.6172-37.5332,7.5664l-3.8691,1.4375l-1.3164-3.9102
		c-2.709-8.0547-8.7773-13.5352-14.6348-13.5352c-0.5859,0-1.168,0.0547-1.7461,0.168c-3.3867,0.6562-6.2812,3.1797-8.1523,7.0977
		c-2.0645,4.3203-2.6172,9.707-1.5566,15.1641c0.3164,1.6328,0.7754,3.2344,1.3613,4.7578l1.1543,3l-2.6816,1.7734
		C16.2734,147.7578,8,159.1953,8,165.1094c0,16.9531,45.041,18.9141,78.9219,18.9141c46.6719,0,73.0781-1.1484,73.0781-24.7461
		C160,137.7188,150.2383,112.0234,103.7285,112.0234z M36,167.3828c-6.6172,0-12-5.3828-12-12s5.3828-12,12-12s12,5.3828,12,12
		S42.6172,167.3828,36,167.3828z"/>
	<path fill="#535353" d="M36,143.3828c-6.6172,0-12,5.3828-12,12s5.3828,12,12,12s12-5.3828,12-12S42.6172,143.3828,36,143.3828z
		 M36,159.3828c-2.2051,0-4-1.793-4-4s1.7949-4,4-4s4,1.793,4,4S38.2051,159.3828,36,159.3828z"/>
	<path fill="#535353" d="M166.5098,74.8008c-17.4473-19.707-23.6836-36.7539-18.0332-49.3008c5.5-12.2148,21.041-17.5,27.7559-17.5
		c2.209,0,4-1.7891,4-4s-1.791-4-4-4c-10.1016,0-28.2266,7.0586-35.0508,22.2148c-4.9082,10.8984-5.5371,29.7891,19.3398,57.8906
		c16.0176,18.0938,22.6621,32.7578,19.2188,42.4102c-3.1958,8.9551-14.5386,11.5852-16.5266,11.9836
		c-6.9363-15.8833-23.1794-30.4758-59.4851-30.4758c-11.1348,0-23.7383,2.3281-36.6582,6.7578
		c-4.9941-10.5703-14.5996-16.707-23.9668-14.8828c-5.9375,1.1523-10.8555,5.2344-13.8457,11.5
		c-2.7988,5.8594-3.5762,13.0117-2.1914,20.1367c0.1992,1.0273,0.4434,2.0508,0.7305,3.0547C10.334,142.6523,0,155.4375,0,165.1094
		c0,23.6523,41.7773,26.9141,86.9219,26.9141c43.5059,0,81.0781,0,81.0781-32.7461c0-5.1116-0.5159-11.0813-2.1365-17.1697
		c4.6174-1.0891,17.1472-5.062,21.3904-16.8459C191.8457,112.5117,184.8652,95.5352,166.5098,74.8008z M86.9219,184.0234
		C53.041,184.0234,8,182.0625,8,165.1094c0-5.9141,8.2734-17.3516,26.7539-29.5664l2.6816-1.7734l-1.1543-3
		c-0.5859-1.5234-1.0449-3.125-1.3613-4.7578c-1.0605-5.457-0.5078-10.8438,1.5566-15.1641
		c1.8711-3.918,4.7656-6.4414,8.1523-7.0977c0.5781-0.1133,1.1602-0.168,1.7461-0.168c5.8574,0,11.9258,5.4805,14.6348,13.5352
		l1.3164,3.9102l3.8691-1.4375c13.3105-4.9492,26.2891-7.5664,37.5332-7.5664c46.5098,0,56.2715,25.6953,56.2715,47.2539
		C160,182.875,133.5938,184.0234,86.9219,184.0234z"/>
</g>
</svg>
