<?xml version="1.0" encoding="utf-8"?>
<!-- Generator: Adobe Illustrator 19.2.0, SVG Export Plug-In . SVG Version: 6.00 Build 0)  -->
<svg version="1.1" id="network" xmlns="http://www.w3.org/2000/svg" xmlns:xlink="http://www.w3.org/1999/xlink" x="0px" y="0px"
	 viewBox="0 0 216 200" enable-background="new 0 0 216 200" xml:space="preserve">
<g>
	<path fill="#D8D8D8" d="M84,176c-4.4102,0-8,3.5898-8,8s3.5898,8,8,8s8-3.5898,8-8S88.4102,176,84,176z"/>
	<path fill="#FFFFFF" d="M64,44c0-15.4375-12.5625-28-28-28S8,28.5625,8,44s12.5625,28,28,28S64,59.4375,64,44z M28,56
		c-8.8242,0-16-7.1758-16-16s7.1758-16,16-16s16,7.1758,16,16S36.8242,56,28,56z"/>
	<path fill="#D8D8D8" d="M28,32c-4.4102,0-8,3.5898-8,8s3.5898,8,8,8s8-3.5898,8-8S32.4102,32,28,32z"/>
	<path fill="#FFFFFF" d="M164,8c-24.2617,0-44,19.7383-44,44s19.7383,44,44,44s44-19.7383,44-44S188.2617,8,164,8z M152,68
		c-13.2344,0-24-10.7656-24-24s10.7656-24,24-24s24,10.7656,24,24S165.2344,68,152,68z"/>
	<path fill="#D8D8D8" d="M152,28c-8.8242,0-16,7.1758-16,16s7.1758,16,16,16s16-7.1758,16-16S160.8242,28,152,28z"/>
	<path fill="#535353" d="M28,24c-8.8242,0-16,7.1758-16,16s7.1758,16,16,16s16-7.1758,16-16S36.8242,24,28,24z M28,48
		c-4.4102,0-8-3.5898-8-8s3.5898-8,8-8s8,3.5898,8,8S32.4102,48,28,48z"/>
	<path fill="#535353" d="M164,0c-24.5359,0-45.1072,17.1038-50.5464,40H71.7642C69.7664,22.0261,54.4983,8,36,8
		C16.1484,8,0,24.1484,0,44s16.1484,36,36,36c1.0525,0,2.0881-0.0691,3.1179-0.158l33.0911,93.4329
		C69.6206,176.1184,68,179.8599,68,184c0,8.8242,7.1758,16,16,16s16-7.1758,16-16c0-3.5049-1.165-6.7222-3.0828-9.3606
		c0.0823-0.0901,0.199-0.1265,0.2742-0.2253l54.4553-71.9587C155.6145,103.4277,159.7368,104,164,104c28.6719,0,52-23.3281,52-52
		S192.6719,0,164,0z M8,44c0-15.4375,12.5625-28,28-28s28,12.5625,28,28S51.4375,72,36,72S8,59.4375,8,44z M84,192
		c-4.4102,0-8-3.5898-8-8s3.5898-8,8-8s8,3.5898,8,8S88.4102,192,84,192z M90.8132,169.5798C88.7385,168.5952,86.4458,168,84,168
		c-1.7114,0-3.3296,0.3408-4.8765,0.8403L47.0403,78.252C60.2803,73.9741,70.1824,62.231,71.7642,48h40.4385
		C112.1011,49.3245,112,50.6499,112,52c0,21.4346,13.042,39.8745,31.603,47.822L90.8132,169.5798z M164,96
		c-24.2617,0-44-19.7383-44-44s19.7383-44,44-44s44,19.7383,44,44S188.2617,96,164,96z"/>
	<path fill="#535353" d="M152,20c-13.2344,0-24,10.7656-24,24s10.7656,24,24,24s24-10.7656,24-24S165.2344,20,152,20z M152,60
		c-8.8242,0-16-7.1758-16-16s7.1758-16,16-16s16,7.1758,16,16S160.8242,60,152,60z"/>
</g>
</svg>
