<?xml version="1.0" encoding="utf-8"?>
<!-- Generator: Adobe Illustrator 19.2.0, SVG Export Plug-In . SVG Version: 6.00 Build 0)  -->
<svg version="1.1" id="nuclearfactory" xmlns="http://www.w3.org/2000/svg" xmlns:xlink="http://www.w3.org/1999/xlink" x="0px"
	 y="0px" viewBox="0 0 216.1699 212" enable-background="new 0 0 216.1699 212" xml:space="preserve">
<g>
	<path fill="#D8D8D8" d="M112.207,60H31.793c0.6211,8.1211,0.9336,16.3398,0.9336,24.5c0,41.1484-7.7832,81.3242-23.1445,119.5
		H134.418c-15.3613-38.1758-23.1445-78.3516-23.1445-119.5C111.2734,76.3398,111.5859,68.1211,112.207,60z M72,168
		c-17.6445,0-32-14.3555-32-32s14.3555-32,32-32s32,14.3555,32,32S89.6445,168,72,168z"/>
	<path fill="#FFFFFF" d="M72,112c-13.2344,0-24,10.7656-24,24s10.7656,24,24,24s24-10.7656,24-24S85.2344,112,72,112z
		 M81.4648,146.4648l-9.7949-5.6545l-9.7949,5.6545l-4-6.9297L68,133.6899V124h8v10.071l9.4648,5.4641L81.4648,146.4648z"/>
	<polygon fill="#D8D8D8" points="175.8359,20 168.1699,204 207.8301,204 200.1641,20 	"/>
	<path fill="#535353" d="M119.2734,84.5c0-9.3828,0.4258-18.8516,1.2637-28.1406L120.9297,52H23.0703l0.3926,4.3594
		c0.8379,9.2891,1.2637,18.7578,1.2637,28.1406c0,41.7344-8.2148,82.4453-24.4141,121.0039L0,206.25V212h144v-5.75l-0.3125-0.7461
		C127.4883,166.9453,119.2734,126.2344,119.2734,84.5z M9.582,204c15.3613-38.1758,23.1445-78.3516,23.1445-119.5
		c0-8.1602-0.3125-16.3789-0.9336-24.5h80.4141c-0.6211,8.1211-0.9336,16.3398-0.9336,24.5c0,41.1484,7.7832,81.3242,23.1445,119.5
		H9.582z"/>
	<rect x="24" y="36" fill="#535353" width="96" height="8"/>
	<rect x="168" fill="#535353" width="40" height="8"/>
	<path fill="#535353" d="M207.8359,12h-39.6719l-8.334,200h56.3398L207.8359,12z M168.1699,204l7.666-184h24.3281l7.666,184
		H168.1699z"/>
	<path fill="#535353" d="M72,104c-17.6445,0-32,14.3555-32,32s14.3555,32,32,32s32-14.3555,32-32S89.6445,104,72,104z M72,160
		c-13.2344,0-24-10.7656-24-24s10.7656-24,24-24s24,10.7656,24,24S85.2344,160,72,160z"/>
	<polygon fill="#535353" points="76,124 68,124 68,133.6899 57.875,139.5352 61.875,146.4648 71.6699,140.8103 81.4648,146.4648 
		85.4648,139.5352 76,134.071 	"/>
</g>
</svg>
