<?xml version="1.0" encoding="utf-8"?>
<!-- Generator: Adobe Illustrator 19.2.0, SVG Export Plug-In . SVG Version: 6.00 Build 0)  -->
<svg version="1.1" id="oillamp" xmlns="http://www.w3.org/2000/svg" xmlns:xlink="http://www.w3.org/1999/xlink" x="0px" y="0px"
	 viewBox="0 0 128 229.7046" enable-background="new 0 0 128 229.7046" xml:space="preserve">
<g>
	<path fill="#D8D8D8" d="M64,65.6954c11.0273,0,20-8.9727,20-20c0-7.6777-10.6602-24.3398-18.9922-35.3652
		C55.8281,21.3379,44,38.0626,44,45.6954C44,56.7227,52.9727,65.6954,64,65.6954z"/>
	<path fill="#D8D8D8" d="M81.7734,115.6641C80.6641,114.9219,80,113.6739,80,112.3399V85.6954h-9.7175
		c-9.177,14.7788-5.4033,27.7529-1.3723,41.459c5.1211,17.4199,10.9258,37.1641-16.4531,57.3359l-4.7422-6.4414
		c22.8633-16.8477,18.7422-30.877,13.5195-48.6387c-3.825-13.0132-8.0706-27.5869-0.1021-43.7148H48v26.6445
		c0,1.334-0.6641,2.582-1.7734,3.3242C24.3477,130.3126,8,168.9415,8,193.6954c0,8.8926,2.0547,15.2676,6.2812,19.4883
		c8.5586,8.5547,26.0508,8.5527,46.5234,8.5137L64,221.6954l3.1953,0.002c20.4297,0.0371,37.9609,0.041,46.5234-8.5137
		C117.9453,208.963,120,202.588,120,193.6954C120,168.9415,103.6523,130.3126,81.7734,115.6641z"/>
	<path fill="#535353" d="M88,110.2559V81.6954c0-2.209-1.7891-4-4-4H44c-2.2109,0-4,1.791-4,4v28.5605
		c-23.6641,17.2383-40,57.2676-40,83.4395c0,11.125,2.8203,19.3516,8.625,25.1484c10.9141,10.9004,29.9961,10.9102,52.1875,10.8535
		L64,229.6954l3.1875,0.002c1.0469,0.002,2.0859,0.002,3.1211,0.002c20.8164,0,38.6719-0.4707,49.0664-10.8555
		c5.8047-5.7969,8.625-14.0234,8.625-25.1484C128,167.5235,111.6641,127.4942,88,110.2559z M113.7188,213.1837
		c-8.5625,8.5547-26.0938,8.5508-46.5234,8.5137L64,221.6954l-3.1953,0.002c-20.4727,0.0391-37.9648,0.041-46.5234-8.5137
		C10.0547,208.963,8,202.588,8,193.6954c0-24.7539,16.3477-63.3828,38.2266-78.0312C47.3359,114.9219,48,113.6739,48,112.3399
		V85.6954h13.1323c-7.9685,16.1279-3.7229,30.7017,0.1021,43.7148c5.2227,17.7617,9.3438,31.791-13.5195,48.6387l4.7422,6.4414
		c27.3789-20.1719,21.5742-39.916,16.4531-57.3359c-4.031-13.7061-7.8047-26.6802,1.3723-41.459H80v26.6445
		c0,1.334,0.6641,2.582,1.7734,3.3242C103.6523,130.3126,120,168.9415,120,193.6954C120,202.588,117.9453,208.963,113.7188,213.1837
		z"/>
	<path fill="#535353" d="M64,73.6954c15.4375,0,28-12.5606,28-28c0-14.25-21.293-41.166-23.7227-44.1895
		c-0.7383-0.918-1.8438-1.4648-3.0234-1.4922c-1.1719-0.1113-2.3086,0.4648-3.0898,1.3477C59.4883,4.3868,36,31.3399,36,45.6954
		C36,61.1348,48.5625,73.6954,64,73.6954z M65.0078,10.3301C73.3398,21.3555,84,38.0176,84,45.6954c0,11.0273-8.9727,20-20,20
		s-20-8.9727-20-20C44,38.0626,55.8281,21.3379,65.0078,10.3301z"/>
</g>
</svg>
