<?xml version="1.0" encoding="utf-8"?>
<!-- Generator: Adobe Illustrator 19.2.0, SVG Export Plug-In . SVG Version: 6.00 Build 0)  -->
<svg version="1.1" id="particlemovement" xmlns="http://www.w3.org/2000/svg" xmlns:xlink="http://www.w3.org/1999/xlink" x="0px"
	 y="0px" viewBox="0 0 202.5574 204.9276" enable-background="new 0 0 202.5574 204.9276" xml:space="preserve">
<g>
	<path fill="#D8D8D8" d="M18.876,143.2049c-0.9395-0.3594-1.9062-0.5312-2.8574-0.5312c-3.2188,0-6.2578,1.9531-7.4785,5.1328
		c-1.5801,4.1172,0.4824,8.7539,4.6016,10.3359c4.1152,1.5742,8.7559-0.4844,10.3359-4.6016S22.9951,144.787,18.876,143.2049z"/>
	<path fill="#D8D8D8" d="M71.6299,21.3456c1.4297-1.5898,2.1562-3.6367,2.0449-5.7695c-0.1113-2.1367-1.0488-4.0977-2.6348-5.5273
		c-1.5898-1.4297-3.6465-2.1836-5.7734-2.043c-2.1348,0.1094-4.0957,1.0469-5.5254,2.6328
		c-1.4297,1.5898-2.1562,3.6406-2.0449,5.7734c0.1113,2.1367,1.0488,4.0977,2.6348,5.5273
		C63.6104,24.8885,68.6768,24.6268,71.6299,21.3456z"/>
	<path fill="#D8D8D8" d="M157.749,30.6737c1.834,1.1016,3.9883,1.4297,6.0547,0.9023h0.002
		c2.0723-0.5156,3.8203-1.8086,4.9199-3.6406c1.1016-1.832,1.4238-3.9844,0.9062-6.0547c-0.5176-2.0742-1.8105-3.8203-3.6426-4.9219
		c-1.2598-0.7578-2.6699-1.1445-4.1035-1.1445c-0.6504,0-1.3047,0.0781-1.9512,0.2422c-2.0742,0.5156-3.8223,1.8086-4.9219,3.6406
		c-1.1016,1.8281-1.4238,3.9805-0.9062,6.0547S155.917,29.5721,157.749,30.6737z"/>
	<path fill="#D8D8D8" d="M191.5928,182.7206c-1.4395-1.168-3.1973-1.7852-5.0234-1.7852c-0.2812,0-0.5645,0.0156-0.8496,0.043
		c-2.125,0.2227-4.0371,1.2617-5.3809,2.9219l-0.002,0.0039c-2.7754,3.4258-2.2441,8.4727,1.1855,11.25
		c3.4258,2.7734,8.4746,2.2422,11.25-1.1836c1.3457-1.6602,1.9629-3.7461,1.7402-5.8711
		C194.2881,185.9745,193.251,184.0643,191.5928,182.7206z"/>
	<path fill="#D8D8D8" d="M61.8487,98.9354c-1.3105-0.8516-2.8105-1.293-4.3379-1.293c-0.5586,0-1.1211,0.0586-1.6816,0.1797
		c-2.0898,0.4414-3.8828,1.6719-5.0449,3.4648c-1.1641,1.793-1.5605,3.9297-1.1172,6.0195
		c0.4453,2.0898,1.6758,3.8828,3.4688,5.0469c1.7891,1.1602,3.9238,1.5586,6.0195,1.1133c2.0918-0.4414,3.8828-1.6719,5.0469-3.4648
		c1.1641-1.793,1.5586-3.9297,1.1152-6.0195C64.8721,101.8924,63.6416,100.0995,61.8487,98.9354z"/>
	<path fill="#535353" d="M35.6807,78.9081l-0.418-7.9922l-14.324,0.7507l37.3923-41.53c2.3086,1.1982,4.8191,1.8496,7.3457,1.8496
		c4.3809,0,8.7441-1.7852,11.8965-5.2852c2.8613-3.1758,4.3145-7.2773,4.0898-11.543c-0.2227-4.2695-2.0957-8.1953-5.2715-11.0547
		s-7.2852-4.2578-11.543-4.0898c-4.2676,0.2227-8.1934,2.0977-11.0527,5.2734s-4.3125,7.2773-4.0879,11.543
		c0.1511,2.8958,1.116,5.6023,2.6768,7.9561L14.9939,66.3146l-0.7507-14.3245L6.2549,52.412l1.4648,27.957L35.6807,78.9081z
		 M59.7412,10.6385c1.4297-1.5859,3.3906-2.5234,5.5254-2.6328c2.127-0.1406,4.1836,0.6133,5.7734,2.043
		c1.5859,1.4297,2.5234,3.3906,2.6348,5.5273c0.1113,2.1328-0.6152,4.1797-2.0449,5.7695
		c-2.9531,3.2812-8.0195,3.543-11.2988,0.5938c-1.5859-1.4297-2.5234-3.3906-2.6348-5.5273
		C57.585,14.2792,58.3115,12.2284,59.7412,10.6385z"/>
	<path fill="#535353" d="M153.6299,37.5331c2.4893,1.4934,5.2749,2.2634,8.106,2.282l13.5029,54.1631l-12.2925-7.3865
		l-4.1211,6.8594l24.002,14.418l14.4199-24l-6.8555-4.1172l-7.3889,12.293l-13.5178-54.2217
		c2.4829-1.3457,4.6052-3.2817,6.0981-5.7666c2.2012-3.6641,2.8457-7.9648,1.8105-12.1132
		c-1.0332-4.1446-3.6211-7.6407-7.2832-9.8438c-3.6641-2.1953-7.9629-2.8359-12.1113-1.8086
		c-4.1465,1.0352-7.6426,3.6211-9.8438,7.2852c-2.2012,3.6602-2.8457,7.9648-1.8105,12.1133
		C147.3779,31.8338,149.9658,35.3299,153.6299,37.5331z M155.0127,19.6971c1.0996-1.832,2.8477-3.125,4.9219-3.6406
		c0.6465-0.1641,1.3008-0.2422,1.9512-0.2422c1.4336,0,2.8438,0.3867,4.1035,1.1445c1.832,1.1016,3.125,2.8477,3.6426,4.9219
		c0.5176,2.0703,0.1953,4.2227-0.9062,6.0547c-1.0996,1.832-2.8477,3.125-4.9199,3.6406h-0.002
		c-2.0664,0.5273-4.2207,0.1992-6.0547-0.9023c-1.832-1.1016-3.125-2.8477-3.6426-4.9219S153.9111,21.5252,155.0127,19.6971z"/>
	<path fill="#535353" d="M202.4678,187.2635c-0.4453-4.25-2.5215-8.0742-5.8418-10.7617s-7.4922-3.9219-11.7422-3.4805
		c-2.8835,0.3047-5.5364,1.4106-7.8066,3.0945l-43.4275-35.1697l14.2673-1.499l-0.8359-7.9531l-27.8477,2.9258l2.9258,27.8477
		l7.957-0.8359l-1.499-14.27l43.4285,35.1704c-2.9404,6.4734-1.3354,14.3611,4.4436,19.041
		c2.9551,2.3906,6.5137,3.5547,10.0488,3.5547c4.666,0,9.2949-2.0234,12.4512-5.9219
		C201.6787,195.6815,202.9151,191.5135,202.4678,187.2635z M192.7725,193.9706c-2.7754,3.4258-7.8242,3.957-11.25,1.1836
		c-3.4297-2.7773-3.9609-7.8242-1.1855-11.25l0.002-0.0039c1.3438-1.6602,3.2559-2.6992,5.3809-2.9219
		c0.2852-0.0273,0.5684-0.043,0.8496-0.043c1.8262,0,3.584,0.6172,5.0234,1.7852c1.6582,1.3438,2.6953,3.2539,2.9199,5.3789
		C194.7354,190.2245,194.1182,192.3104,192.7725,193.9706z"/>
	<path fill="#535353" d="M71.7554,98.5213c-1.2581-2.5288-3.1187-4.718-5.5493-6.2969c-3.584-2.3242-7.8574-3.1133-12.0391-2.2305
		c-4.1797,0.8867-7.7656,3.3516-10.0938,6.9375c-2.3262,3.582-3.1191,7.8594-2.2305,12.0391
		c0.8867,4.1797,3.3516,7.7656,6.9355,10.0938c2.625,1.7031,5.623,2.5859,8.6797,2.5859c1.1172,0,2.2422-0.1172,3.3594-0.3555
		c4.1816-0.8867,7.7656-3.3515,10.0937-6.9375c1.5793-2.4297,2.3896-5.1868,2.5098-8.0088l54.6577-11.6167l-7.812,12.0278
		l6.7109,4.3594l15.25-23.4844l-23.4824-15.2539l-4.3594,6.7109l12.0337,7.8152L71.7554,98.5213z M64.2022,110.0018
		c-1.1641,1.793-2.9551,3.0234-5.0469,3.4648c-2.0957,0.4453-4.2305,0.0469-6.0195-1.1133c-1.793-1.1641-3.0234-2.957-3.4688-5.0469
		c-0.4434-2.0898-0.0469-4.2266,1.1172-6.0195c1.1621-1.793,2.9551-3.0234,5.0449-3.4648c0.5605-0.1211,1.123-0.1797,1.6816-0.1797
		c1.5273,0,3.0273,0.4414,4.3379,1.293c1.793,1.1641,3.0234,2.957,3.4687,5.0469
		C65.7608,106.0721,65.3662,108.2088,64.2022,110.0018z"/>
	<path fill="#535353" d="M78.1846,159.3924l5.8335,13.1038l-52.1667-20.0237c0.3228-2.8062-0.0461-5.6567-1.2253-8.3066
		c-1.7383-3.9062-4.8926-6.8984-8.8828-8.4297c-3.9941-1.5352-8.3418-1.418-12.2422,0.3203
		c-3.9043,1.7383-6.8984,4.8945-8.4297,8.8828s-1.418,8.3359,0.3203,12.2422s4.8926,6.8984,8.8828,8.4297
		c1.8633,0.7148,3.8027,1.0703,5.7402,1.0703c2.2129,0,4.4199-0.4648,6.502-1.3906c2.6477-1.1787,4.8281-3.0498,6.4663-5.3501
		l52.1714,20.0254l-13.1045,5.8364l3.2539,7.3047l25.5781-11.3867l-11.3887-25.5781L78.1846,159.3924z M13.1416,158.1424
		c-4.1191-1.582-6.1816-6.2188-4.6016-10.3359c1.2207-3.1797,4.2598-5.1328,7.4785-5.1328c0.9512,0,1.918,0.1719,2.8574,0.5312
		c4.1191,1.582,6.1816,6.2188,4.6016,10.3359S17.2569,159.7166,13.1416,158.1424z"/>
</g>
</svg>
