<?xml version="1.0" encoding="utf-8"?>
<!-- Generator: Adobe Illustrator 19.2.0, SVG Export Plug-In . SVG Version: 6.00 Build 0)  -->
<svg version="1.1" id="pendulum" xmlns="http://www.w3.org/2000/svg" xmlns:xlink="http://www.w3.org/1999/xlink" x="0px" y="0px"
	 viewBox="0 0 212 188" enable-background="new 0 0 212 188" xml:space="preserve">
<g>
	<path fill="#D8D8D8" d="M12,168c0,6.6172,5.3828,12,12,12s12-5.3828,12-12s-5.3828-12-12-12S12,161.3828,12,168z"/>
	<path fill="#D8D8D8" d="M60,168c0,6.6172,5.3828,12,12,12s12-5.3828,12-12s-5.3828-12-12-12S60,161.3828,60,168z"/>
	<path fill="#D8D8D8" d="M108,168c0,6.6172,5.3828,12,12,12s12-5.3828,12-12s-5.3828-12-12-12S108,161.3828,108,168z"/>
	<path fill="#D8D8D8" d="M184,16c0-4.4102-3.5898-8-8.002-8H16.002C11.5898,8,8,11.5898,8,16s3.5898,8,8.002,8H175.998
		C180.4102,24,184,20.4102,184,16z"/>
	<path fill="#D8D8D8" d="M192,152c-6.6172,0-12,5.3828-12,12s5.3828,12,12,12s12-5.3828,12-12S198.6172,152,192,152z"/>
	<path fill="#535353" d="M192.0618,144.0063L172.4116,32h3.5864C184.8223,32,192,24.8242,192,16s-7.1777-16-16.002-16H16.002
		C7.1777,0,0,7.1758,0,16s7.1777,16,16.002,16H20v116.4043C10.8828,150.2629,4,158.3423,4,168c0,11.0273,8.9727,20,20,20
		s20-8.9727,20-20c0-9.6577-6.8828-17.7371-16-19.5957V32h40v116.4043c-9.1172,1.8586-16,9.938-16,19.5957
		c0,11.0273,8.9727,20,20,20s20-8.9727,20-20c0-9.6577-6.8828-17.7371-16-19.5957V32h40v116.4043
		c-9.1172,1.8586-16,9.938-16,19.5957c0,11.0273,8.9727,20,20,20s20-8.9727,20-20c0-9.6577-6.8828-17.7371-16-19.5957V32h40.2903
		l19.9258,113.5779C177.0439,148.6199,172,155.7322,172,164c0,11.0273,8.9727,20,20,20s20-8.9727,20-20
		C212,152.9939,203.0598,144.041,192.0618,144.0063z M36,168c0,6.6172-5.3828,12-12,12s-12-5.3828-12-12s5.3828-12,12-12
		S36,161.3828,36,168z M84,168c0,6.6172-5.3828,12-12,12s-12-5.3828-12-12s5.3828-12,12-12S84,161.3828,84,168z M132,168
		c0,6.6172-5.3828,12-12,12s-12-5.3828-12-12s5.3828-12,12-12S132,161.3828,132,168z M8,16c0-4.4102,3.5898-8,8.002-8H175.998
		c4.4121,0,8.002,3.5898,8.002,8s-3.5898,8-8.002,8H16.002C11.5898,24,8,20.4102,8,16z M192,176c-6.6172,0-12-5.3828-12-12
		s5.3828-12,12-12s12,5.3828,12,12S198.6172,176,192,176z"/>
</g>
</svg>
