<?xml version="1.0" encoding="utf-8"?>
<!-- Generator: Adobe Illustrator 19.2.0, SVG Export Plug-In . SVG Version: 6.00 Build 0)  -->
<svg version="1.1" id="plantflask" xmlns="http://www.w3.org/2000/svg" xmlns:xlink="http://www.w3.org/1999/xlink" x="0px" y="0px"
	 viewBox="0 0 115.551 227.4291" enable-background="new 0 0 115.551 227.4291" xml:space="preserve">
<g>
	<path fill="#D8D8D8" d="M24,143.4291h12v8H24v12h12v8H24v26.0195c0,12.1211,9.8691,21.9805,22,21.9805s22-9.8594,22-21.9805
		v-66.0195H24V143.4291z"/>
	<rect x="24" y="107.4291" fill="#FFFFFF" width="44" height="16"/>
	<path fill="#D8D8D8" d="M65.3105,23.39h0.002c1.4531,0.8477,3.2441,0.2734,4.1816-0.1445
		c2.0195-0.8945,3.9375-2.7266,5.2598-5.0195c1.5195-2.6289,0.4102-7.0234-0.7148-9.9531c-3.0957,0.4922-7.457,1.7266-8.9766,4.3594
		c-1.3242,2.293-1.9512,4.8672-1.7188,7.0625C63.4512,20.7142,63.8496,22.5463,65.3105,23.39z"/>
	<path fill="#D8D8D8" d="M41.3945,57.5892c-4.9824-4.8125-15.0488-4.2695-20.6797-3.2969
		c-0.7676,5.6719-0.9492,15.7695,4.0098,20.5586c7.0176,6.7812,16.7695,8.5508,21.2832,3.875
		c0.0034-0.0037,0.0056-0.0088,0.009-0.0125c0.4399-3.5159,0.9709-7.2678,1.6079-11.1318
		C46.5647,64.0255,44.4475,60.537,41.3945,57.5892z"/>
	<path fill="#D8D8D8" d="M77.9902,43.0502c-6.9238,1.8555-12.8711,5.5156-16.748,10.3086
		c-3.5762,4.418-4.9043,9.2539-3.7363,13.6094s4.7344,7.8789,10.041,9.918c5.7539,2.2148,12.7266,2.4102,19.6562,0.5547
		c10.9297-2.9297,17.4844-17.8164,19.6836-23.7031c-4.2227-3.4844-14.7266-11.2344-24.5898-11.2344
		C80.8398,42.5033,79.3984,42.6752,77.9902,43.0502z"/>
	<path fill="#535353" d="M114.2988,49.5814c-0.8281-0.7852-20.4414-19.0742-38.3789-14.2578
		c-5.1438,1.3779-9.8669,3.6123-13.8982,6.4917c1.073-3.0823,2.2512-5.9871,3.5564-8.5972
		c0.2471-0.4944,0.3823-1.0154,0.4153-1.5342c0.3535,0.031,0.6902,0.1318,1.0496,0.1318c1.8711,0,3.8105-0.418,5.7012-1.2578
		c3.582-1.5938,6.7559-4.5508,8.9395-8.332c4.625-8.0117-1.0039-18.9102-1.6602-20.125c-0.7188-1.3281-2.0996-2.1602-3.6328-2.0977
		c-1.3809,0.0391-13.6309,0.6133-18.2559,8.6289c-2.1836,3.7773-3.1582,8.0039-2.7461,11.9023
		c0.3472,3.2874,1.6973,6.1287,3.782,8.1458c-0.28,0.2878-0.5593,0.5811-0.7488,0.9597c-3.6313,7.2627-6.364,16.3521-8.4216,25.5935
		c-0.9346-1.1814-1.9377-2.3286-3.0491-3.4021c-10.2266-9.8711-29.877-4.9805-30.709-4.7695
		c-1.4629,0.375-2.5918,1.543-2.9141,3.0156c-0.1855,0.8398-4.3906,20.6484,5.8379,30.5313
		c5.9199,5.7148,13.2578,8.6914,19.8867,8.6914c2.0686,0,4.0381-0.3584,5.9036-0.946c-0.4756,5.0034-0.7339,8.9102-0.8574,11.075H20
		H0v8h16v20v16v8v12v8v26.0195c0,16.5312,13.457,29.9805,30,29.9805s30-13.4492,30-29.9805v-70.0195v-20h16v-8H72H52.1177
		c0.1992-3.2166,0.6741-9.7354,1.6213-17.71c0.6482-1.0203,1.1821-2.1082,1.5938-3.2617c2.4797,2.4536,5.6184,4.4646,9.345,5.8975
		c4.0527,1.5586,8.541,2.3438,13.1914,2.3438c3.7441,0,7.5938-0.5078,11.4043-1.5312
		c17.9453-4.8086,25.7852-30.4453,26.1094-31.5352C115.8164,52.183,115.3965,50.6166,114.2988,49.5814z M68,197.4486
		c0,12.1211-9.8691,21.9805-22,21.9805s-22-9.8594-22-21.9805v-26.0195h12v-8H24v-12h12v-8H24v-12h44V197.4486z M68,123.4291H24v-16
		h44V123.4291z M65.0625,12.6322c1.5195-2.6328,5.8809-3.8672,8.9766-4.3594c1.125,2.9297,2.2344,7.3242,0.7148,9.9531
		c-1.3223,2.293-3.2402,4.125-5.2598,5.0195c-0.9375,0.418-2.7285,0.9922-4.1816,0.1445h-0.002
		c-1.4609-0.8438-1.8594-2.6758-1.9668-3.6953C63.1113,17.4994,63.7383,14.9252,65.0625,12.6322z M46.0078,78.726
		c-4.5137,4.6758-14.2656,2.9062-21.2832-3.875c-4.959-4.7891-4.7773-14.8867-4.0098-20.5586
		c5.6309-0.9727,15.6973-1.5156,20.6797,3.2969c3.053,2.9478,5.1702,6.4363,6.2302,9.9924c-0.637,3.864-1.168,7.616-1.6079,11.1318
		C46.0134,78.7172,46.0112,78.7223,46.0078,78.726z M87.2031,77.4408c-6.9297,1.8555-13.9023,1.6602-19.6562-0.5547
		c-5.3066-2.0391-8.873-5.5625-10.041-9.918s0.1602-9.1914,3.7363-13.6094c3.877-4.793,9.8242-8.4531,16.748-10.3086
		c1.4082-0.375,2.8496-0.5469,4.3066-0.5469c9.8633,0,20.3672,7.75,24.5898,11.2344
		C104.6875,59.6244,98.1328,74.5111,87.2031,77.4408z"/>
</g>
</svg>
