<?xml version="1.0" encoding="utf-8"?>
<!-- Generator: Adobe Illustrator 19.2.0, SVG Export Plug-In . SVG Version: 6.00 Build 0)  -->
<svg version="1.1" id="planetarysystem" xmlns="http://www.w3.org/2000/svg" xmlns:xlink="http://www.w3.org/1999/xlink" x="0px"
	 y="0px" viewBox="0 0 212 212" enable-background="new 0 0 212 212" xml:space="preserve">
<g>
	<path fill="#D8D8D8" d="M106,82c-13.2344,0-24,10.7656-24,24s10.7656,24,24,24s24-10.7656,24-24S119.2344,82,106,82z"/>
	<path fill="#D8D8D8" d="M150,84c0,5.5137,4.4863,10,10,10s10-4.4863,10-10s-4.4863-10-10-10S150,78.4863,150,84z"/>
	<path fill="#D8D8D8" d="M158,170c-8.8223,0-16,7.1777-16,16s7.1777,16,16,16s16-7.1777,16-16S166.8223,170,158,170z"/>
	<path fill="#535353" d="M106,6C50.8594,6,6,50.8594,6,106s44.8594,100,100,100c11.7424,0,22.5078-1.8877,32.8616-5.5781
		C143.2461,206.2256,150.1816,210,158,210c13.2344,0,24-10.7656,24-24c0-4.2305-1.1096-8.2021-3.0386-11.6572
		C196.4001,155.748,206,131.5859,206,106C206,50.8594,161.1406,6,106,6z M106,198c-50.7285,0-92-41.2715-92-92s41.2715-92,92-92
		s92,41.2715,92,92c0,23.1626-8.613,45.0112-24.1711,62.0063C169.5986,164.2808,164.0671,162,158,162c-13.2344,0-24,10.7656-24,24
		c0,2.5259,0.3975,4.959,1.124,7.2471C125.9595,196.3789,116.4099,198,106,198z M158,202c-8.8223,0-16-7.1777-16-16s7.1777-16,16-16
		s16,7.1777,16,16S166.8223,202,158,202z"/>
	<path fill="#535353" d="M170,106c0-2.7891-0.1914-4.5137-0.532-6.7578C174.5701,96.0615,178,90.4424,178,84
		c0-9.9258-8.0742-18-18-18c-1.3606,0-2.6746,0.1807-3.9497,0.4678c-0.1475-0.3584-0.2913-0.7207-0.5503-1.0361
		C143.2832,50.541,125.2402,42,106,42c-35.2891,0-64,28.7109-64,64s28.7109,64,64,64S170,141.2891,170,106z M170,84
		c0,5.5137-4.4863,10-10,10s-10-4.4863-10-10s4.4863-10,10-10S170,78.4863,170,84z M106,162c-30.8789,0-56-25.1211-56-56
		s25.1211-56,56-56c16.6001,0,32.1577,7.293,42.8411,19.9873C144.7058,73.2881,142,78.3096,142,84c0,9.9258,8.0742,18,18,18
		c0.5994,0,1.1655-0.1196,1.75-0.1768c0.1626,1.2783,0.25,2.4463,0.25,4.1768C162,136.8789,136.8789,162,106,162z"/>
	<path fill="#535353" d="M106,74c-17.6445,0-32,14.3555-32,32s14.3555,32,32,32s32-14.3555,32-32S123.6445,74,106,74z M106,130
		c-13.2344,0-24-10.7656-24-24s10.7656-24,24-24s24,10.7656,24,24S119.2344,130,106,130z"/>
	<path fill="#535353" d="M210.8281,1.1719c-1.5625-1.5625-4.0938-1.5625-5.6562,0l-24,24c-1.5625,1.5625-1.5625,4.0938,0,5.6562
		C181.9531,31.6094,182.9766,32,184,32s2.0469-0.3906,2.8281-1.1719l24-24C212.3906,5.2656,212.3906,2.7344,210.8281,1.1719z"/>
	<path fill="#535353" d="M25.1719,181.1719l-24,24c-1.5625,1.5625-1.5625,4.0938,0,5.6562C1.9531,211.6094,2.9766,212,4,212
		s2.0469-0.3906,2.8281-1.1719l24-24c1.5625-1.5625,1.5625-4.0938,0-5.6562S26.7344,179.6094,25.1719,181.1719z"/>
</g>
</svg>
