<?xml version="1.0" encoding="utf-8"?>
<!-- Generator: Adobe Illustrator 19.2.0, SVG Export Plug-In . SVG Version: 6.00 Build 0)  -->
<svg version="1.1" id="planetsmovement" xmlns="http://www.w3.org/2000/svg" xmlns:xlink="http://www.w3.org/1999/xlink" x="0px"
	 y="0px" viewBox="0 0 216.35 210.0391" enable-background="new 0 0 216.35 210.0391" xml:space="preserve">
<g>
	<path fill="#D8D8D8" d="M36,22c0-7.7188-6.2812-14-14-14S8,14.2812,8,22s6.2812,14,14,14S36,29.7188,36,22z"/>
	<path fill="#D8D8D8" d="M86,112c14.3359,0,26-11.6641,26-26s-11.6641-26-26-26S60,71.6641,60,86S71.6641,112,86,112z"/>
	<path fill="#535353" d="M139.291,35.1602c0.7676,0,1.543-0.2188,2.2266-0.6797c4.5371-3.0469,9.0215-5.8594,13.3301-8.3594
		c1.9102-1.1094,2.5605-3.5586,1.4512-5.4688c-1.1133-1.9102-3.5566-2.5664-5.4668-1.4531
		c-4.459,2.5898-9.0938,5.4961-13.7754,8.6406c-1.834,1.2305-2.3223,3.7188-1.0898,5.5508
		C136.7383,34.5391,138.0039,35.1602,139.291,35.1602z"/>
	<path fill="#535353" d="M197.3926,11.4023c3.5547,0.2812,6.2988,1.3711,8.1602,3.2344c0.6875,0.6875,1.2695,1.4922,1.7324,2.3945
		c0.709,1.3789,2.1094,2.1719,3.5625,2.1719c0.6152,0,1.2383-0.1406,1.8242-0.4414c1.9648-1.0117,2.7402-3.4219,1.7305-5.3867
		c-0.8438-1.6406-1.918-3.1211-3.1895-4.3906c-3.2402-3.25-7.6758-5.1172-13.1836-5.5586
		c-2.2617-0.1914-4.1289,1.4727-4.3066,3.6719C193.5469,9.2969,195.1914,11.2266,197.3926,11.4023z"/>
	<path fill="#535353" d="M167.0059,19.2266c0.5645,0,1.1348-0.1172,1.6797-0.3711c5.1445-2.3828,9.9746-4.2344,14.3555-5.4961
		c2.123-0.6133,3.3477-2.8281,2.7363-4.9531c-0.6152-2.1211-2.8398-3.3477-4.9512-2.7344
		c-4.7734,1.375-9.9883,3.3711-15.5039,5.9258c-2.0039,0.9297-2.877,3.3047-1.9473,5.3125
		C164.0508,18.3672,165.4961,19.2266,167.0059,19.2266z"/>
	<path fill="#535353" d="M113.6836,54.3438c0.8965,0,1.7969-0.3008,2.541-0.9141c4.1426-3.4141,8.3242-6.707,12.4297-9.7891
		c1.7656-1.3281,2.123-3.8359,0.7949-5.6016c-1.3223-1.7656-3.8301-2.1211-5.5996-0.7969
		c-4.2012,3.1562-8.4766,6.5234-12.7109,10.0156c-1.7051,1.4023-1.9492,3.9258-0.5449,5.6289
		C111.3848,53.8477,112.5293,54.3438,113.6836,54.3438z"/>
	<path fill="#535353" d="M36.3262,201.6875c-5.6035,0.7773-10,0.2578-12.9844-1.5078c-1.9023-1.1172-4.3574-0.4922-5.4785,1.4102
		c-1.125,1.9023-0.4941,4.3555,1.4082,5.4805c3.334,1.9688,7.4785,2.9688,12.3184,2.9688c1.8242,0,3.7871-0.1445,5.8379-0.4297
		c2.1875-0.3008,3.7148-2.3242,3.4121-4.5117C40.5332,202.9102,38.5098,201.3516,36.3262,201.6875z"/>
	<path fill="#535353" d="M91.6641,174.6211c-4.4414,3.1562-8.8496,6.1055-13.1055,8.7695
		c-1.8711,1.1719-2.4395,3.6406-1.2676,5.5117c0.7598,1.2148,2.0625,1.8789,3.3945,1.8789c0.7246,0,1.459-0.1953,2.1191-0.6094
		c4.3848-2.7461,8.9258-5.7852,13.4922-9.0273c1.8008-1.2812,2.2246-3.7773,0.9453-5.5781
		C95.9609,173.7695,93.4668,173.3398,91.6641,174.6211z"/>
	<path fill="#535353" d="M64.9648,191.2344c-4.9551,2.5938-9.707,4.7656-14.123,6.4609c-2.0645,0.7891-3.0938,3.1055-2.3027,5.168
		c0.6094,1.5898,2.127,2.5664,3.7344,2.5664c0.4765,0,0.9609-0.0859,1.4316-0.2656c4.7051-1.8047,9.7422-4.1055,14.9707-6.8438
		c1.957-1.0234,2.7129-3.4414,1.6895-5.3984C69.3418,190.9688,66.9277,190.2031,64.9648,191.2344z"/>
	<path fill="#535353" d="M139.8008,133.5508c-3.7578,3.75-7.6016,7.4492-11.4258,10.9961
		c-1.6191,1.5039-1.7148,4.0352-0.2129,5.6523c0.7891,0.8516,1.8594,1.2812,2.9336,1.2812c0.9746,0,1.9492-0.3516,2.7207-1.0664
		c3.8945-3.6133,7.8086-7.3789,11.6367-11.1992c1.5625-1.5625,1.5664-4.0938,0.0059-5.6562
		C143.9004,131.9883,141.3672,131.9961,139.8008,133.5508z"/>
	<path fill="#535353" d="M116.5508,155.0938c-4.0547,3.4766-8.1699,6.8594-12.2324,10.0547
		c-1.7363,1.3672-2.0371,3.8828-0.6719,5.6172c0.791,1.0039,1.9629,1.5273,3.1465,1.5273c0.8672,0,1.7383-0.2812,2.4707-0.8555
		c4.1504-3.2656,8.3535-6.7188,12.4941-10.2656c1.6758-1.4375,1.8711-3.9648,0.4336-5.6406
		C120.7539,153.8477,118.2324,153.6602,116.5508,155.0938z"/>
	<path fill="#535353" d="M203.0859,57.1875c-1.9512-1.0391-4.375-0.2891-5.4062,1.6641c-2.3066,4.3555-4.9629,8.9219-7.8945,13.5703
		c-1.1797,1.8672-0.6191,4.3359,1.248,5.5156c0.6621,0.418,1.4004,0.6172,2.1309,0.6172c1.3281,0,2.627-0.6602,3.3867-1.8672
		c3.0391-4.8164,5.7969-9.5586,8.1992-14.0938C205.7832,60.6406,205.0391,58.2227,203.0859,57.1875z"/>
	<path fill="#535353" d="M180.9766,85.5c-2.9551,4.1328-6.1523,8.3867-9.5078,12.6367c-1.3672,1.7344-1.0723,4.25,0.6621,5.6172
		c0.7344,0.5781,1.6074,0.8594,2.4766,0.8594c1.1816,0,2.3535-0.5234,3.1425-1.5234c3.4317-4.3477,6.7071-8.6992,9.7344-12.9336
		c1.2852-1.8008,0.8691-4.2969-0.9277-5.582C184.7559,83.2852,182.2617,83.707,180.9766,85.5z"/>
	<path fill="#535353" d="M161.3887,110.3438c-3.4043,3.9492-6.9609,7.9219-10.5723,11.8008
		c-1.5059,1.6172-1.4141,4.1484,0.2031,5.6562c0.7695,0.7148,1.748,1.0703,2.7246,1.0703c1.0703,0,2.1406-0.4297,2.9277-1.2734
		c3.6816-3.957,7.3066-8.0039,10.7793-12.0352c1.4414-1.6719,1.2539-4.1992-0.4199-5.6406
		C165.3594,108.4844,162.834,108.6719,161.3887,110.3438z"/>
	<path fill="#535353" d="M212.9707,26.9102c-2.1738-0.3125-4.2266,1.1484-4.5723,3.332c-0.6738,4.2852-2.0781,9.168-4.1738,14.5117
		c-0.8066,2.0586,0.209,4.3789,2.2656,5.1836c0.4785,0.1875,0.9727,0.2773,1.457,0.2773c1.5977,0,3.1074-0.9648,3.7266-2.5391
		c2.3066-5.8867,3.8633-11.3359,4.627-16.1914C216.6445,29.3008,215.1523,27.2539,212.9707,26.9102z"/>
	<path fill="#535353" d="M18.1562,188.5977c0-3.7305,0.7559-8.1445,2.248-13.125c0.6328-2.1172-0.5684-4.3477-2.6836-4.9805
		c-2.1074-0.625-4.3438,0.5664-4.9805,2.6836c-1.7148,5.7266-2.584,10.9141-2.584,15.4375c0.002,0.5625,0.0156,1.1094,0.041,1.6484
		c0.1055,2.1406,1.873,3.8047,3.9922,3.8047c0.0664,0,0.1328,0,0.1992-0.0039c2.207-0.1094,3.9082-1.9844,3.8008-4.1914
		C18.168,189.4492,18.1582,189.0195,18.1562,188.5977z"/>
	<path fill="#535353" d="M31.9199,141.8516c-1.9141-1.1211-4.3594-0.4766-5.4727,1.4336c-2.9238,4.9922-5.502,9.8555-7.6641,14.4492
		c-0.9414,2-0.082,4.3828,1.916,5.3242c0.5508,0.2578,1.1289,0.3789,1.7012,0.3789c1.5,0,2.9395-0.8477,3.6211-2.2969
		c2.0605-4.3789,4.5273-9.0273,7.3281-13.8164C34.4668,145.418,33.8262,142.9688,31.9199,141.8516z"/>
	<path fill="#535353" d="M36.2031,135.0938c0.6875,0.4648,1.4668,0.6875,2.2383,0.6875c1.2832,0,2.543-0.6172,3.3164-1.7578
		c2.8457-4.207,5.9395-8.5273,9.1973-12.8398c1.3301-1.7617,0.9805-4.2734-0.7832-5.6016
		c-1.7656-1.3438-4.2773-0.9844-5.6035,0.7812c-3.3379,4.4219-6.5137,8.8555-9.4355,13.1758
		C33.8945,131.3711,34.375,133.8555,36.2031,135.0938z"/>
	<path fill="#535353" d="M102.1152,143.4961c-4.0918,3.5547-8.1855,6.9688-12.1621,10.1562
		c-1.7246,1.3789-2.0039,3.8984-0.623,5.6211c0.791,0.9883,1.9531,1.5,3.125,1.5c0.877,0,1.7598-0.2852,2.498-0.8789
		c4.0605-3.25,8.2344-6.7344,12.4082-10.3594c1.668-1.4492,1.8457-3.9727,0.3965-5.6406
		C106.3086,142.2227,103.7852,142.0391,102.1152,143.4961z"/>
	<path fill="#535353" d="M66.4355,179.3828c0.7109,0,1.4336-0.1914,2.084-0.5898c4.2324-2.5898,8.791-5.6406,13.5469-9.0703
		c1.791-1.293,2.1973-3.793,0.9043-5.5859c-1.2891-1.793-3.7891-2.1914-5.584-0.9062c-4.5938,3.3164-8.9824,6.2539-13.043,8.7422
		c-1.8848,1.1523-2.4766,3.6133-1.3242,5.5C63.7754,178.7031,65.0898,179.3828,66.4355,179.3828z"/>
	<path fill="#535353" d="M160.6016,93.3438c1.1543,0,2.3008-0.4961,3.0918-1.4609c3.5703-4.3438,6.9355-8.625,10.002-12.7305
		c1.3242-1.7695,0.9609-4.2773-0.8086-5.5977c-1.7715-1.3281-4.2754-0.9609-5.5977,0.8086
		c-2.9941,4.0078-6.2832,8.1914-9.7754,12.4414c-1.4023,1.707-1.1562,4.2266,0.5508,5.6289
		C158.8086,93.0469,159.707,93.3438,160.6016,93.3438z"/>
	<path fill="#535353" d="M168.0703,38.2812c1.9336-1.0664,2.6367-3.5,1.5684-5.4336c-1.0703-1.9336-3.5059-2.6406-5.4355-1.5664
		c-4.2812,2.3633-8.959,5.2734-13.9043,8.6562c-1.8242,1.2461-2.291,3.7344-1.0449,5.5586
		c0.7754,1.1328,2.0293,1.7422,3.3066,1.7422c0.7773,0,1.5625-0.2266,2.2539-0.6992
		C159.5488,43.3047,164.0098,40.5234,168.0703,38.2812z"/>
	<path fill="#535353" d="M55.9688,181.2812c-0.8457-2.0391-3.1855-3.0117-5.2246-2.1641
		c-7.8438,3.2422-10.3496,2.7109-11.3711,1.9375c-1.7578-1.3477-4.2695-1.0039-5.6055,0.7539
		c-1.3398,1.7578-1.002,4.2656,0.7539,5.6055c1.834,1.3984,4.1895,2.1094,7.0059,2.1094c3.3691-0.0039,7.3848-0.9922,12.2754-3.0156
		C55.8438,185.6641,56.8145,183.3242,55.9688,181.2812z"/>
	<path fill="#535353" d="M65.1191,125.7031c-1.7285-1.3711-4.2461-1.0938-5.6211,0.6406
		c-3.5273,4.4336-6.8145,8.7852-9.7715,12.9336c-1.2812,1.7969-0.8633,4.293,0.9355,5.5781c0.7051,0.5,1.5156,0.7422,2.3184,0.7422
		c1.25,0,2.4805-0.582,3.2617-1.6797c2.875-4.0312,6.0781-8.2695,9.5176-12.5977
		C67.1348,129.5938,66.8477,127.0781,65.1191,125.7031z"/>
	<path fill="#535353" d="M35.4863,172.9297c0.4766,0.1836,0.9648,0.2695,1.4453,0.2695c1.6035,0,3.1152-0.9688,3.7305-2.5547
		c1.5098-3.9023,3.8438-8.4922,6.9355-13.6406c1.1367-1.8945,0.5234-4.3516-1.3711-5.4883
		c-1.8965-1.1406-4.3516-0.5273-5.4883,1.3711c-3.3262,5.5391-5.8613,10.543-7.5371,14.8672
		C32.4043,169.8164,33.4277,172.1328,35.4863,172.9297z"/>
	<path fill="#535353" d="M184.1152,48.0508c-1.9824,4.0195-4.6016,8.5391-7.7852,13.4297
		c-1.2031,1.8516-0.6797,4.3281,1.1719,5.5312c0.6738,0.4375,1.4297,0.6484,2.1777,0.6484c1.3086,0,2.5898-0.6406,3.3574-1.8203
		c3.3535-5.1523,6.1309-9.9492,8.2539-14.25c0.9766-1.9805,0.1641-4.3789-1.8184-5.3555
		C187.4863,45.25,185.0938,46.0664,184.1152,48.0508z"/>
	<path fill="#535353" d="M139.375,117.2891c1.0586,0,2.1152-0.418,2.9023-1.2461c3.7949-4.0039,7.4375-7.9727,10.9141-11.8867
		c1.4648-1.6523,1.3164-4.1797-0.3359-5.6484c-1.6543-1.4648-4.1836-1.3164-5.6484,0.3359
		c-3.418,3.8516-7.002,7.7578-10.7344,11.6914c-1.5195,1.6055-1.4531,4.1367,0.1504,5.6562
		C137.3965,116.9258,138.3867,117.2891,139.375,117.2891z"/>
	<path fill="#535353" d="M142.7969,50.2188c-1.3516-1.7461-3.8652-2.0625-5.6094-0.7227c-4.0996,3.1641-8.332,6.5859-12.582,10.168
		c-1.6895,1.4258-1.9043,3.9492-0.4805,5.6367c0.791,0.9375,1.9219,1.4219,3.0605,1.4219c0.9102,0,1.8262-0.3086,2.5762-0.9414
		c4.1621-3.5078,8.3047-6.8555,12.3125-9.9492C143.8242,54.4805,144.1465,51.9688,142.7969,50.2188z"/>
	<path fill="#535353" d="M125.3652,121.8828c-3.8359,3.8008-7.6621,7.4727-11.4551,11.0039
		c-1.6152,1.5039-1.707,4.0352-0.2012,5.6523c0.7871,0.8438,1.8574,1.2734,2.9277,1.2734c0.9766,0,1.9551-0.3555,2.7266-1.0742
		c3.8516-3.5859,7.7363-7.3125,11.6309-11.168c1.5703-1.5547,1.582-4.0898,0.0273-5.6602
		C129.4707,120.3438,126.9355,120.3359,125.3652,121.8828z"/>
	<path fill="#535353" d="M179.8184,24.6055c-2.1406,0.543-3.4375,2.7188-2.8945,4.8594c0.541,2.1406,2.707,3.4375,4.8594,2.8984
		c2.9863-0.7578,5.4199-0.7109,6.1113-0.0273c0.3594,0.3633,0.5566,1.1602,0.5566,2.332c0,2.2109,1.791,3.9609,4,3.9609
		s4-1.832,4-4.043c0-3.3164-0.9746-5.9766-2.9004-7.9062C190.627,23.7617,186.0254,23.043,179.8184,24.6055z"/>
	<path fill="#535353" d="M86,120c18.748,0,34-15.2539,34-34s-15.252-34-34-34S52,67.2539,52,86S67.252,120,86,120z M86,60
		c14.3359,0,26,11.6641,26,26s-11.6641,26-26,26s-26-11.6641-26-26S71.6641,60,86,60z"/>
	<path fill="#535353" d="M44,22C44,9.8711,34.1309,0,22,0S0,9.8711,0,22s9.8691,22,22,22S44,34.1289,44,22z M8,22
		c0-7.7188,6.2812-14,14-14s14,6.2812,14,14s-6.2812,14-14,14S8,29.7188,8,22z"/>
</g>
</svg>
