<?xml version="1.0" encoding="utf-8"?>
<!-- Generator: Adobe Illustrator 19.2.0, SVG Export Plug-In . SVG Version: 6.00 Build 0)  -->
<svg version="1.1" id="radiationcontainer" xmlns="http://www.w3.org/2000/svg" xmlns:xlink="http://www.w3.org/1999/xlink" x="0px"
	 y="0px" viewBox="0 0 224 188" enable-background="new 0 0 224 188" xml:space="preserve">
<g>
	<rect x="44" y="28" fill="#D8D8D8" width="24" height="8"/>
	<rect x="160" y="168" fill="#D8D8D8" width="20" height="12"/>
	<rect x="44" y="168" fill="#D8D8D8" width="20" height="12"/>
	<rect x="156" y="28" fill="#D8D8D8" width="24" height="8"/>
	<path fill="#D8D8D8" d="M204.0078,36H188v8h-40v-8h-4H80h-4v8H36v-8H19.9922C13.3789,36,8,40.9688,8,47.0781v101.8438
		C8,155.0312,13.3691,160,19.9707,160H36h36h80h36h16.0293C210.6309,160,216,155.0312,216,148.9219V47.0781
		C216,40.9688,210.6211,36,204.0078,36z M112,136c-17.6445,0-32-14.3555-32-32s14.3555-32,32-32s32,14.3555,32,32
		S129.6445,136,112,136z"/>
	<path fill="#D8D8D8" d="M112,80c-13.2344,0-24,10.7656-24,24s10.7656,24,24,24s24-10.7656,24-24S125.2344,80,112,80z
		 M121.4648,114.4648l-9.7949-5.6545l-9.7949,5.6545l-4-6.9297L108,101.6899V92h8v10.071l9.4648,5.4641L121.4648,114.4648z"/>
	<path fill="#535353" d="M204.0078,28H188v-8h-40v8h-4V0H80v28h-4v-8H36v8H19.9922C8.9688,28,0,36.5586,0,47.0781v101.8438
		C0,159.4414,8.959,168,19.9707,168H36v20h36v-20h80v20h36v-20h16.0293C215.041,168,224,159.4414,224,148.9219V47.0781
		C224,36.5586,215.0312,28,204.0078,28z M180,28v8h-24v-8H180z M88,8h48v20H88V8z M44,28h24v8H44V28z M64,180H44v-12h20V180z
		 M180,180h-20v-12h20V180z M216,148.9219C216,155.0312,210.6309,160,204.0293,160H188h-36H72H36H19.9707
		C13.3691,160,8,155.0312,8,148.9219V47.0781C8,40.9688,13.3789,36,19.9922,36H36v8h40v-8h4h64h4v8h40v-8h16.0078
		C210.6211,36,216,40.9688,216,47.0781V148.9219z"/>
	<path fill="#535353" d="M112,72c-17.6445,0-32,14.3555-32,32s14.3555,32,32,32s32-14.3555,32-32S129.6445,72,112,72z M112,128
		c-13.2344,0-24-10.7656-24-24s10.7656-24,24-24s24,10.7656,24,24S125.2344,128,112,128z"/>
	<polygon fill="#535353" points="116,92 108,92 108,101.6899 97.875,107.5352 101.875,114.4648 111.6699,108.8103 
		121.4648,114.4648 125.4648,107.5352 116,102.071 	"/>
</g>
</svg>
