<?xml version="1.0" encoding="utf-8"?>
<!-- Generator: Adobe Illustrator 19.2.0, SVG Export Plug-In . SVG Version: 6.00 Build 0)  -->
<svg version="1.1" id="radiationsign" xmlns="http://www.w3.org/2000/svg" xmlns:xlink="http://www.w3.org/1999/xlink" x="0px"
	 y="0px" viewBox="0 0 232 232" enable-background="new 0 0 232 232" xml:space="preserve">
<g>
	<path fill="#D8D8D8" d="M116,104c-6.6172,0-12,5.3828-12,12s5.3828,12,12,12s12-5.3828,12-12S122.6172,104,116,104z"/>
	<path fill="#D8D8D8" d="M32.4766,88.8652C29.5039,97.5703,28,106.6797,28,116s1.5039,18.4297,4.4766,27.1348l44.375-18.4883
		C76.2852,121.8145,76,118.918,76,116s0.2852-5.8145,0.8516-8.6465L32.4766,88.8652z"/>
	<path fill="#D8D8D8" d="M107.3516,155.1484l-18.4844,44.375c17.4062,5.9453,36.8594,5.9453,54.2656,0l-18.4883-44.373
		C118.9727,156.2793,113.0234,156.2812,107.3516,155.1484z"/>
	<path fill="#D8D8D8" d="M124.6445,76.8496l18.4883-44.373c-17.4062-5.9453-36.8594-5.9453-54.2656,0l18.4844,44.375
		C113.0234,75.7188,118.9727,75.7207,124.6445,76.8496z"/>
	<path fill="#D8D8D8" d="M155.1484,107.3535C155.7148,110.1855,156,113.082,156,116s-0.2852,5.8145-0.8516,8.6465l44.375,18.4883
		C202.4961,134.4297,204,125.3203,204,116s-1.5039-18.4297-4.4766-27.1348L155.1484,107.3535z"/>
	<path fill="#FFFFFF" d="M116,8C56.4492,8,8,56.4492,8,116s48.4492,108,108,108s108-48.4492,108-108S175.5508,8,116,8z
		 M79.8867,28.6133c0.4141-0.9883,1.2109-1.7676,2.207-2.1641c21.5859-8.5586,46.2266-8.5586,67.8125,0
		c0.9961,0.3965,1.793,1.1758,2.207,2.1641c0.418,0.9883,0.4219,2.1035,0.0078,3.0938l-21.4062,51.3711
		c-0.7812,1.8711-2.8398,2.8613-4.793,2.3066c-6.4141-1.8359-13.4258-1.8359-19.8477,0c-0.3672,0.1055-0.7383,0.1543-1.1016,0.1543
		c-1.5781,0-3.0586-0.9395-3.6914-2.4609L79.8789,31.707C79.4648,30.7168,79.4688,29.6016,79.8867,28.6133z M136,116
		c0,11.0273-8.9727,20-20,20s-20-8.9727-20-20s8.9727-20,20-20S136,104.9727,136,116z M31.707,152.1211
		c-0.4922,0.2051-1.0156,0.3086-1.5391,0.3086c-0.5273,0-1.0586-0.1055-1.5547-0.3145c-0.9883-0.418-1.7695-1.2129-2.1641-2.2109
		C22.1719,139.1152,20,127.707,20,116s2.1719-23.1152,6.4492-33.9043c0.3945-0.998,1.1758-1.793,2.1641-2.2109
		s2.1055-0.4238,3.0938-0.0059l51.3711,21.4043c1.875,0.7793,2.8672,2.8418,2.3047,4.793C84.4648,109.2812,84,112.6191,84,116
		s0.4648,6.7188,1.3828,9.9238c0.5625,1.9512-0.4297,4.0137-2.3047,4.793L31.707,152.1211z M152.1133,203.3867
		c-0.4141,0.9883-1.2109,1.7676-2.207,2.1641C139.1133,209.8301,127.707,212,116,212s-23.1133-2.1699-33.9062-6.4492
		c-0.9961-0.3965-1.793-1.1758-2.207-2.1641c-0.418-0.9883-0.4219-2.1035-0.0078-3.0938l21.4023-51.3711
		c0.7773-1.873,2.8281-2.873,4.793-2.3066c6.4219,1.8359,13.4336,1.8359,19.8477,0c1.9609-0.5586,4.0156,0.4336,4.793,2.3066
		l21.4062,51.3711C152.5352,201.2832,152.5312,202.3984,152.1133,203.3867z M203.3867,152.1152
		c-0.4961,0.209-1.0273,0.3145-1.5547,0.3145c-0.5234,0-1.0469-0.1016-1.5391-0.3086l-51.3711-21.4043
		c-1.875-0.7793-2.8672-2.8418-2.3047-4.793C147.5352,122.7188,148,119.3809,148,116s-0.4648-6.7188-1.3828-9.9238
		c-0.5625-1.9512,0.4297-4.0137,2.3047-4.793l51.3711-21.4043c0.9883-0.4102,2.1055-0.4102,3.0938,0.0059
		c0.9883,0.418,1.7695,1.2129,2.1641,2.2109C209.8281,92.8848,212,104.293,212,116s-2.1719,23.1152-6.4492,33.9043
		C205.1562,150.9023,204.375,151.6973,203.3867,152.1152z"/>
	<path fill="#535353" d="M116,0C52.0391,0,0,52.0371,0,116s52.0391,116,116,116s116-52.0371,116-116S179.9609,0,116,0z M116,224
		C56.4492,224,8,175.5508,8,116S56.4492,8,116,8s108,48.4492,108,108S175.5508,224,116,224z"/>
	<path fill="#535353" d="M130.7148,148.9219c-0.7774-1.873-2.832-2.8652-4.793-2.3066c-6.4141,1.8359-13.4258,1.8359-19.8477,0
		c-1.9648-0.5664-4.0156,0.4336-4.793,2.3066L79.8789,200.293c-0.4141,0.9902-0.4102,2.1055,0.0078,3.0938
		c0.4141,0.9883,1.2109,1.7676,2.207,2.1641C92.8867,209.8301,104.293,212,116,212s23.1133-2.1699,33.9062-6.4492
		c0.9961-0.3965,1.793-1.1758,2.207-2.1641c0.418-0.9883,0.4219-2.1035,0.0078-3.0938L130.7148,148.9219z M88.8672,199.5234
		l18.4844-44.375c5.6719,1.1328,11.6211,1.1309,17.293,0.002l18.4883,44.373C125.7266,205.4688,106.2734,205.4688,88.8672,199.5234z
		"/>
	<path fill="#535353" d="M116,96c-11.0273,0-20,8.9727-20,20s8.9727,20,20,20s20-8.9727,20-20S127.0273,96,116,96z M116,128
		c-6.6172,0-12-5.3828-12-12s5.3828-12,12-12s12,5.3828,12,12S122.6172,128,116,128z"/>
	<path fill="#535353" d="M101.2812,83.0781c0.6328,1.5215,2.1133,2.4609,3.6914,2.4609c0.3633,0,0.7344-0.0488,1.1016-0.1543
		c6.4219-1.8359,13.4336-1.8359,19.8477,0c1.9531,0.5547,4.0117-0.4355,4.793-2.3066l21.4062-51.3711
		c0.4141-0.9902,0.4102-2.1055-0.0078-3.0938c-0.4141-0.9883-1.2109-1.7676-2.207-2.1641c-21.5859-8.5586-46.2266-8.5586-67.8125,0
		c-0.9961,0.3965-1.793,1.1758-2.207,2.1641c-0.418,0.9883-0.4219,2.1035-0.0078,3.0938L101.2812,83.0781z M143.1328,32.4766
		l-18.4883,44.373c-5.6719-1.1289-11.6211-1.1309-17.293,0.002l-18.4844-44.375C106.2734,26.5312,125.7266,26.5312,143.1328,32.4766
		z"/>
	<path fill="#535353" d="M205.5508,82.0957c-0.3945-0.998-1.1758-1.793-2.1641-2.2109c-0.9883-0.416-2.1055-0.416-3.0938-0.0059
		l-51.3711,21.4043c-1.875,0.7793-2.8672,2.8418-2.3047,4.793C147.5352,109.2812,148,112.6191,148,116s-0.4648,6.7188-1.3828,9.9238
		c-0.5625,1.9512,0.4297,4.0137,2.3047,4.793l51.3711,21.4043c0.4922,0.207,1.0156,0.3086,1.5391,0.3086
		c0.5273,0,1.0586-0.1055,1.5547-0.3145c0.9883-0.418,1.7695-1.2129,2.1641-2.2109C209.8281,139.1152,212,127.707,212,116
		S209.8281,92.8848,205.5508,82.0957z M199.5234,143.1348l-44.375-18.4883C155.7148,121.8145,156,118.918,156,116
		s-0.2852-5.8145-0.8516-8.6465l44.375-18.4883C202.4961,97.5703,204,106.6797,204,116S202.4961,134.4297,199.5234,143.1348z"/>
	<path fill="#535353" d="M85.3828,125.9238C84.4648,122.7188,84,119.3809,84,116s0.4648-6.7188,1.3828-9.9238
		c0.5625-1.9512-0.4297-4.0137-2.3047-4.793L31.707,79.8789c-0.9883-0.418-2.1055-0.4121-3.0938,0.0059
		s-1.7695,1.2129-2.1641,2.2109C22.1719,92.8848,20,104.293,20,116s2.1719,23.1152,6.4492,33.9043
		c0.3945,0.998,1.1758,1.793,2.1641,2.2109c0.4961,0.209,1.0273,0.3145,1.5547,0.3145c0.5234,0,1.0469-0.1035,1.5391-0.3086
		l51.3711-21.4043C84.9531,129.9375,85.9453,127.875,85.3828,125.9238z M76.8516,124.6465l-44.375,18.4883
		C29.5039,134.4297,28,125.3203,28,116s1.5039-18.4297,4.4766-27.1348l44.375,18.4883C76.2852,110.1855,76,113.082,76,116
		S76.2852,121.8145,76.8516,124.6465z"/>
</g>
</svg>
