<?xml version="1.0" encoding="utf-8"?>
<!-- Generator: Adobe Illustrator 19.2.0, SVG Export Plug-In . SVG Version: 6.00 Build 0)  -->
<svg version="1.1" id="raygun" xmlns="http://www.w3.org/2000/svg" xmlns:xlink="http://www.w3.org/1999/xlink" x="0px" y="0px"
	 viewBox="0 0 224.0005 180" enable-background="new 0 0 224.0005 180" xml:space="preserve">
<g>
	<path fill="#D8D8D8" d="M47.3274,130.2585L24.7153,172h33.6484l3.3958-35.6643C56.7329,134.7146,51.9077,132.6414,47.3274,130.2585
		z"/>
	<path fill="#D8D8D8" d="M68.0242,24h36.0115c4.3926,0,7.9648-3.5898,7.9648-8s-3.5723-8-7.9648-8H31.9653
		c-4.3926,0-7.9648,3.5898-7.9648,8s3.5723,8,7.9648,8h28.0996"/>
	<path fill="#FFFFFF" d="M84.0005,44C47.8657,44,16.9458,78.4961,9.1157,87.9961C16.9536,97.4961,47.9224,132,84.0005,132
		c36.1348,0,67.0547-34.4961,74.8848-43.9961C151.0474,78.5039,120.0786,44,84.0005,44z M116.9849,81.4727l-28,16
		c-1.2402,0.7031-2.7598,0.6992-3.9922-0.0117c-1.2324-0.7188-1.9922-2.0352-1.9922-3.4609v-8.6484l-27.8262,18.0078
		C54.5024,103.793,53.7485,104,53.0044,104c-1.3125,0-2.5957-0.6445-3.3613-1.8281c-1.2012-1.8555-0.6699-4.3281,1.1836-5.5312
		l34-22c1.2324-0.793,2.7969-0.8555,4.0859-0.1562c1.2871,0.7031,2.0879,2.0508,2.0879,3.5156v9.1055l22.0156-12.5781
		c1.918-1.1016,4.3633-0.4297,5.457,1.4883C119.5688,77.9336,118.9028,80.375,116.9849,81.4727z"/>
	<path fill="#535353" d="M113.0161,74.5273L91.0005,87.1055V78c0-1.4648-0.8008-2.8125-2.0879-3.5156
		c-1.2891-0.6992-2.8535-0.6367-4.0859,0.1562l-34,22c-1.8535,1.2031-2.3848,3.6758-1.1836,5.5312
		C50.4087,103.3555,51.6919,104,53.0044,104c0.7441,0,1.498-0.207,2.1699-0.6406l27.8262-18.0078V94
		c0,1.4258,0.7598,2.7422,1.9922,3.4609c1.2324,0.7109,2.752,0.7148,3.9922,0.0117l28-16c1.918-1.0977,2.584-3.5391,1.4883-5.457
		C117.3794,74.0977,114.9341,73.4258,113.0161,74.5273z"/>
	<path fill="#535353" d="M212.0005,76c-5.2078,0-9.6064,3.354-11.2629,8h-4.8386c-0.3972-8.7856-2.355-28-11.8984-28
		s-11.5012,19.2144-11.8984,28h-6.1438c-6.8674-8.6458-40.4233-48-81.9578-48c-4.949,0-9.7759,0.5862-14.4668,1.5854L68.9131,32
		h35.1226c8.8027,0,15.9648-7.1758,15.9648-16s-7.1621-16-15.9648-16H31.9653c-8.8027,0-15.9648,7.1758-15.9648,16
		s7.1621,16,15.9648,16h28.9004l0.853,7.6777C27.1125,50.8589,2.0491,83.926,0.7954,85.6094c-1.0605,1.418-1.0605,3.3633,0,4.7812
		c0.9771,1.312,16.4233,21.6938,39.5701,35.9202l-25.8826,47.783c-0.6719,1.2422-0.6406,2.7422,0.0801,3.9531
		C15.2856,179.2578,16.5903,180,18.0005,180h44c2.0625,0,3.7871-1.5664,3.9824-3.6211l3.1416-32.9875l11.7178,15.0657
		c0.7891,1.0117,1.9688,1.543,3.1602,1.543c0.8594,0,1.7246-0.2734,2.4531-0.8438c1.7441-1.3555,2.0586-3.8672,0.7031-5.6133
		l-10.8975-14.011c2.5466,0.2944,5.125,0.468,7.7393,0.468c41.5344,0,75.0903-39.3542,81.9578-48h6.1438
		c0.3972,8.7856,2.355,28,11.8984,28s11.5012-19.2144,11.8984-28h4.8389c1.6565,4.646,6.0549,8,11.2627,8c6.6172,0,12-5.3828,12-12
		S218.6177,76,212.0005,76z M60.0649,24H31.9653c-4.3926,0-7.9648-3.5898-7.9648-8s3.5723-8,7.9648-8h72.0703
		c4.3926,0,7.9648,3.5898,7.9648,8s-3.5723,8-7.9648,8H68.0242H60.0649z M184.0005,64.6836
		c1.4771,2.3955,3.4785,9.0603,3.9077,19.3164h-7.8154C180.522,73.7439,182.5234,67.0791,184.0005,64.6836z M24.7153,172
		l22.6121-41.7415c4.5803,2.3828,9.4055,4.4561,14.4321,6.0771L58.3638,172H24.7153z M84.0005,132
		c-36.0781,0-67.0469-34.5039-74.8848-44.0039C16.9458,78.4961,47.8657,44,84.0005,44c36.0781,0,67.0469,34.5039,74.8848,44.0039
		C151.0552,97.5039,120.1353,132,84.0005,132z M184.0005,111.3164c-1.4771-2.3955-3.4785-9.0603-3.9077-19.3164h7.8154
		C187.479,102.2561,185.4775,108.9209,184.0005,111.3164z M212.0005,92c-2.2051,0-4-1.793-4-4s1.7949-4,4-4s4,1.793,4,4
		S214.2056,92,212.0005,92z"/>
</g>
</svg>
