<?xml version="1.0" encoding="utf-8"?>
<!-- Generator: Adobe Illustrator 19.2.0, SVG Export Plug-In . SVG Version: 6.00 Build 0)  -->
<svg version="1.1" id="robot" xmlns="http://www.w3.org/2000/svg" xmlns:xlink="http://www.w3.org/1999/xlink" x="0px" y="0px"
	 viewBox="0 0 164 230" enable-background="new 0 0 164 230" xml:space="preserve">
<g>
	<rect x="104" y="148" fill="#FFFFFF" width="8" height="20"/>
	<rect x="52" y="148" fill="#FFFFFF" width="8" height="20"/>
	<path fill="#D8D8D8" d="M124,16c0-4.4121-3.5898-8-8-8s-8,3.5879-8,8s3.5898,8,8,8S124,20.4121,124,16z"/>
	<rect x="68" y="148" fill="#FFFFFF" width="28" height="20"/>
	<path fill="#D8D8D8" d="M140.0039,60H23.9961C15.1758,60,8,67.1758,8,75.9941v96.0117C8,180.8242,15.1758,188,23.9961,188h116.0078
		C148.8242,188,156,180.8242,156,172.0059V75.9941C156,67.1758,148.8242,60,140.0039,60z M120,172c0,2.209-1.7891,4-4,4H48
		c-2.2109,0-4-1.791-4-4v-28c0-2.209,1.7891-4,4-4h68c2.2109,0,4,1.791,4,4V172z M48,112v-8h24v8H48z M92,112v-8h24v8H92z M138,96
		H26v-8h112V96z"/>
	<path fill="#535353" d="M140.0039,52H120V31.4321c6.8821-1.7886,12-7.9985,12-15.4321c0-8.8223-7.1758-16-16-16s-16,7.1777-16,16
		c0,7.4336,5.1179,13.6436,12,15.4321V52H23.9961C10.7656,52,0,62.7637,0,75.9941v96.0117C0,185.2363,10.7656,196,23.9961,196H64v34
		h8v-34h20v34h8v-34h40.0039C153.2344,196,164,185.2363,164,172.0059V75.9941C164,62.7637,153.2344,52,140.0039,52z M108,16
		c0-4.4121,3.5898-8,8-8s8,3.5879,8,8s-3.5898,8-8,8S108,20.4121,108,16z M156,172.0059C156,180.8242,148.8242,188,140.0039,188
		H23.9961C15.1758,188,8,180.8242,8,172.0059V75.9941C8,67.1758,15.1758,60,23.9961,60h116.0078
		C148.8242,60,156,67.1758,156,75.9941V172.0059z"/>
	<path fill="#535353" d="M116,140H48c-2.2109,0-4,1.791-4,4v28c0,2.209,1.7891,4,4,4h68c2.2109,0,4-1.791,4-4v-28
		C120,141.791,118.2109,140,116,140z M96,148v20H68v-20H96z M52,148h8v20h-8V148z M112,168h-8v-20h8V168z"/>
	<rect x="26" y="88" fill="#535353" width="112" height="8"/>
	<rect x="48" y="104" fill="#535353" width="24" height="8"/>
	<rect x="92" y="104" fill="#535353" width="24" height="8"/>
</g>
</svg>
