<?xml version="1.0" encoding="utf-8"?>
<!-- Generator: Adobe Illustrator 19.2.0, SVG Export Plug-In . SVG Version: 6.00 Build 0)  -->
<svg version="1.1" id="rocketship" xmlns="http://www.w3.org/2000/svg" xmlns:xlink="http://www.w3.org/1999/xlink" x="0px" y="0px"
	 viewBox="0 0 193.4332 220" enable-background="new 0 0 193.4332 220" xml:space="preserve">
<g>
	<polygon fill="#D8D8D8" points="66.3436,122.5605 14.6072,168.0469 66.7166,168.0469 66.7166,149.2104 	"/>
	<path fill="#FFFFFF" d="M106.7127,33.6914C106.5487,28.3203,102.1268,24,96.7166,24s-9.832,4.3203-9.9961,9.6914
		c0.8535,0.7852,4.416,2.1074,9.9961,2.1074S105.8592,34.4766,106.7127,33.6914z"/>
	<path fill="#D8D8D8" d="M75.0369,171.9902c0.0071,0.5547-0.1101,1.0938-0.3203,1.5957V184h44v-10.4141
		c-0.2102-0.502-0.3274-1.041-0.3203-1.5957l0.3203-22.8984V29.9727c0-12.1152-9.8691-21.9727-22-21.9727s-22,9.8574-22,21.9727
		v119.1191L75.0369,171.9902z M96.7166,16c9.9258,0,18,8.0742,18,18c0,6.0449-6.8965,9.7988-18,9.7988
		c-4.127,0-8.0371-0.6016-11.0078-1.6953c-6.084-2.2402-6.9922-6.0391-6.9922-8.1035C78.7166,24.0742,86.7908,16,96.7166,16z"/>
	<polygon fill="#D8D8D8" points="113.1893,212 128.244,212 120.7166,196.9434 	"/>
	<polygon fill="#D8D8D8" points="65.1893,212 80.244,212 72.7166,196.9434 	"/>
	<polygon fill="#D8D8D8" points="126.7166,149.2104 126.7166,168.0469 178.826,168.0469 127.0897,122.5605 	"/>
	<path fill="#535353" d="M192.074,169.043l-65.3574-57.4619V29.9727c0-16.5273-13.457-29.9727-30-29.9727s-30,13.4453-30,29.9727
		v81.6084L1.3592,169.043c-1.25,1.0996-1.6895,2.8574-1.1016,4.416c0.5859,1.5566,2.0781,2.5879,3.7422,2.5879h62.7168V188
		c0,0.7129,0.2371,1.3477,0.564,1.9268l-12.1421,24.2842c-0.6191,1.2402-0.5527,2.7129,0.1758,3.8926
		C56.0428,219.2812,57.3299,220,58.7166,220h28c1.3867,0,2.6738-0.7188,3.4023-1.8965c0.7285-1.1797,0.7949-2.6523,0.1758-3.8926
		L79.1893,192h35.0547l-11.1055,22.2109c-0.6191,1.2402-0.5527,2.7129,0.1758,3.8926c0.7285,1.1777,2.0156,1.8965,3.4023,1.8965h28
		c1.3867,0,2.6738-0.7188,3.4023-1.8965c0.7285-1.1797,0.7949-2.6523,0.1758-3.8926l-12.1421-24.2842
		c0.3269-0.5791,0.564-1.2139,0.564-1.9268v-11.9531h62.7168c1.6641,0,3.1562-1.0312,3.7422-2.5879
		C193.7635,171.9004,193.324,170.1426,192.074,169.043z M96.7166,8c12.1309,0,22,9.8574,22,21.9727v119.1191l-0.3203,22.8984
		c-0.0071,0.5547,0.1101,1.0938,0.3203,1.5957V184h-44v-10.4141c0.2102-0.502,0.3274-1.041,0.3203-1.5957l-0.3203-22.8984V29.9727
		C74.7166,17.8574,84.5858,8,96.7166,8z M14.6072,168.0469l51.7363-45.4863l0.373,26.6499v18.8364H14.6072z M65.1893,212
		l7.5273-15.0566L80.244,212H65.1893z M113.1893,212l7.5273-15.0566L128.244,212H113.1893z M126.7166,168.0469v-18.8364
		l0.373-26.6499l51.7363,45.4863H126.7166z"/>
	<path fill="#535353" d="M85.7088,42.1035c2.9707,1.0938,6.8809,1.6953,11.0078,1.6953c11.1035,0,18-3.7539,18-9.7988
		c0-9.9258-8.0742-18-18-18s-18,8.0742-18,18C78.7166,36.0645,79.6248,39.8633,85.7088,42.1035z M96.7166,24
		c5.4102,0,9.832,4.3203,9.9961,9.6914c-0.8535,0.7852-4.416,2.1074-9.9961,2.1074s-9.1426-1.3223-9.9961-2.1074
		C86.8846,28.3203,91.3065,24,96.7166,24z"/>
</g>
</svg>
