<?xml version="1.0" encoding="utf-8"?>
<!-- Generator: Adobe Illustrator 19.2.0, SVG Export Plug-In . SVG Version: 6.00 Build 0)  -->
<svg version="1.1" id="satellitedish" xmlns="http://www.w3.org/2000/svg" xmlns:xlink="http://www.w3.org/1999/xlink" x="0px"
	 y="0px" viewBox="0 0 217.6562 219.6562" enable-background="new 0 0 217.6562 219.6562" xml:space="preserve">
<g>
	<path fill="#FFFFFF" d="M83.8438,85.873c-8.3328,8.3362-9.5159,21.0144-3.4363,30.0554l33.4946-33.4946
		C104.8613,76.354,92.1838,77.5381,83.8438,85.873z"/>
	<path fill="#D8D8D8" d="M160.3086,47.3379L45.3125,162.3359c31.9102,28.9609,81.4414,28.0391,112.2383-2.7578
		S189.2695,79.252,160.3086,47.3379z"/>
	<path fill="#535353" d="M39.6992,121.0117c0.4102,0,0.8281-0.0625,1.2383-0.1953c2.1016-0.6836,3.25-2.9414,2.5664-5.043
		c-1.8633-5.7188-2.8086-11.6992-2.8086-17.7734c0-31.5977,25.707-57.3047,57.3047-57.3047c5.9531,0,11.8242,0.9082,17.4414,2.7012
		c2.0938,0.6758,4.3555-0.4922,5.0273-2.5938c0.668-2.1055-0.4922-4.3555-2.5977-5.0273
		c-6.4062-2.043-13.0898-3.0801-19.8711-3.0801c-36.0078,0-65.3047,29.2949-65.3047,65.3047c0,6.918,1.0781,13.7305,3.1992,20.2501
		C36.4453,119.9414,38.0117,121.0117,39.6992,121.0117z"/>
	<path fill="#535353" d="M8,98C8,48.373,48.375,8,98,8c9.0703,0,18.0234,1.3438,26.6055,3.9961
		c2.0977,0.6504,4.3516-0.5332,5-2.6406c0.6523-2.1113-0.5273-4.3516-2.6406-5.0039C117.6172,1.4648,107.8711,0,98,0
		C43.9609,0,0,43.9629,0,98c0,8.8086,1.168,17.543,3.4727,25.9609c0.4883,1.7734,2.0977,2.9414,3.8555,2.9414
		c0.3516,0,0.707-0.0469,1.0586-0.1406c2.1328-0.5859,3.3867-2.7852,2.8047-4.918C9.0742,114.1172,8,106.0938,8,98z"/>
	<path fill="#535353" d="M212,174.3438l-16,16l-29.1458-29.1458c31.0696-35.0742,29.9194-88.8481-3.6472-122.4128l-2.8281-2.8281
		l-40.7397,40.7397c-12.2109-9.1716-29.9746-7.95-41.4517,3.52c-11.4734,11.4751-12.6909,29.2356-3.5171,41.4487l-40.7407,40.7407
		l2.8281,2.8281c17.4297,17.4297,40.3281,26.1484,63.2227,26.1484c22.0938,0,44.1384-8.1995,61.3201-24.426L190.3438,196l-18,18
		L178,219.6562L217.6562,180L212,174.3438z M83.8438,85.873c8.3401-8.335,21.0176-9.519,30.0583-3.4392l-33.4946,33.4946
		C74.3279,106.8875,75.511,94.2092,83.8438,85.873z M45.3125,162.3359l114.9961-114.998
		c28.9609,31.9141,28.0391,81.4434-2.7578,112.2402S77.2227,191.2969,45.3125,162.3359z"/>
</g>
</svg>
