<?xml version="1.0" encoding="utf-8"?>
<!-- Generator: Adobe Illustrator 19.2.0, SVG Export Plug-In . SVG Version: 6.00 Build 0)  -->
<svg version="1.1" id="saturnplanets" xmlns="http://www.w3.org/2000/svg" xmlns:xlink="http://www.w3.org/1999/xlink" x="0px"
	 y="0px" viewBox="0 0 225.7767 216" enable-background="new 0 0 225.7767 216" xml:space="preserve">
<g>
	<path fill="#D8D8D8" d="M68.9911,191.8706c17.6892-6.2671,38.1338-15.6089,59.8704-28.1577
		c19.1111-11.0332,36.5193-23.0586,50.9783-35.0332C174.4239,96.5649,146.493,72,112.8614,72c-37.4961,0-68,30.5039-68,68
		C44.8614,160.7808,54.2547,179.3877,68.9911,191.8706z M52.8614,144c-2.209,0-4-1.791-4-4c0-35.2891,28.7109-64,64-64
		c2.209,0,4,1.791,4,4s-1.791,4-4,4c-30.8789,0-56,25.1211-56,56C56.8614,142.209,55.0704,144,52.8614,144z"/>
	<path fill="#D8D8D8" d="M36.8614,64c15.4395,0,28-12.5605,28-28s-12.5605-28-28-28s-28,12.5605-28,28S21.422,64,36.8614,64z"/>
	<path fill="#D8D8D8" d="M76.7076,197.4897C87.1949,204.1089,99.5692,208,112.8614,208c37.4961,0,68-30.5039,68-68
		c0-0.5889-0.0735-1.1592-0.0884-1.7441c-13.9431,11.125-30.2446,22.1855-47.9116,32.3867
		C114.5343,181.2241,95.0108,190.5942,76.7076,197.4897z"/>
	<path fill="#535353" d="M112.8614,84c2.209,0,4-1.791,4-4s-1.791-4-4-4c-35.2891,0-64,28.7109-64,64c0,2.209,1.791,4,4,4
		s4-1.791,4-4C56.8614,109.1211,81.9825,84,112.8614,84z"/>
	<path fill="#535353" d="M223.713,72c-10.7266-18.582-53.9404-5.2188-73.3718,1.9668C139.2672,67.6558,126.4935,64,112.8614,64
		c-41.9062,0-76,34.0938-76,76c0,0.1382,0.02,0.2715,0.0208,0.4097C7.4415,165.6758-5.2741,187.3799,2.0099,200
		c3.7988,6.5762,11.9629,9.4512,22.9609,9.4512c11.6111,0,26.3809-3.207,42.4976-8.6411C80.1527,210.3037,95.8353,216,112.8614,216
		c41.9063,0,76-34.0938,76-76c0-2.7275-0.1594-5.4175-0.4409-8.0713c5.8745-5.0264,11.2717-10.0361,15.9897-14.9541
		C222.8985,97.7012,229.5724,82.1504,223.713,72z M112.8614,72c33.6316,0,61.5625,24.5649,66.9783,56.6797
		c-14.459,11.9746-31.8672,24-50.9783,35.0332c-21.7366,12.5488-42.1812,21.8906-59.8704,28.1577
		C54.2547,179.3877,44.8614,160.7808,44.8614,140C44.8614,102.5039,75.3653,72,112.8614,72z M8.9396,196
		c-3.8411-6.6528,3.7434-23.146,28.7151-45.626c2.384,17.3457,10.5999,32.8271,22.6553,44.3984
		C32.7359,203.3994,13.3692,203.6714,8.9396,196z M180.8614,140c0,37.4961-30.5039,68-68,68
		c-13.2922,0-25.6665-3.8911-36.1538-10.5103c18.3032-6.8955,37.8267-16.2656,56.1538-26.8472
		c17.667-10.2012,33.9685-21.2617,47.9116-32.3867C180.7879,138.8408,180.8614,139.4111,180.8614,140z M186.8028,122.7173
		c-4.0969-17.521-14.2556-32.6904-28.1555-43.2334c34.5603-11.9575,54.0461-10.5767,58.136-3.4839
		c3.7285,6.457-3.0547,19.7051-18.1465,35.4355C195.0743,115.1489,191.0685,118.9243,186.8028,122.7173z"/>
	<path fill="#535353" d="M36.8614,72c19.8496,0,36-16.1504,36-36s-16.1504-36-36-36s-36,16.1504-36,36S17.0118,72,36.8614,72z
		 M36.8614,8c15.4395,0,28,12.5605,28,28s-12.5605,28-28,28s-28-12.5605-28-28S21.422,8,36.8614,8z"/>
</g>
</svg>
