<?xml version="1.0" encoding="utf-8"?>
<!-- Generator: Adobe Illustrator 19.2.0, SVG Export Plug-In . SVG Version: 6.00 Build 0)  -->
<svg version="1.1" id="scale" xmlns="http://www.w3.org/2000/svg" xmlns:xlink="http://www.w3.org/1999/xlink" x="0px" y="0px"
	 viewBox="0 0 228.0011 196" enable-background="new 0 0 228.0011 196" xml:space="preserve">
<g>
	<path fill="#D8D8D8" d="M190.0006,120c15.4395,0,28-12.5625,28-28s-12.5605-28-28-28s-28,12.5625-28,28S174.5611,120,190.0006,120z
		 M175.858,99.6562l8.071-8.0703l-6.657-6.6562c-1.5625-1.5625-1.5625-4.0938,0-5.6562s4.0938-1.5625,5.6562,0l6.6572,6.6565
		l6.0713-6.0706c1.5625-1.5625,4.0937-1.5625,5.6562,0c1.5625,1.5625,1.5625,4.0938,0,5.6562l-6.071,6.0703l7.4851,7.4844
		c1.5625,1.5625,1.5625,4.0938,0,5.6562c-0.7812,0.7812-1.8047,1.1719-2.8281,1.1719s-2.0469-0.3906-2.8281-1.1719l-7.4854-7.4846
		l-8.0713,8.0706c-0.7812,0.7812-1.8047,1.1719-2.8281,1.1719s-2.0469-0.3906-2.8281-1.1719
		C174.2955,103.7501,174.2955,101.2188,175.858,99.6562z"/>
	<polygon fill="#D8D8D8" points="66.0006,180.0391 66.0006,187.9609 166.0279,188 166.0006,180.0391 65.9732,180 	"/>
	<path fill="#D8D8D8" d="M42.0006,48c11.0273,0,20-8.9727,20-20s-8.9727-20-20-20s-20,8.9727-20,20S30.9732,48,42.0006,48z"/>
	<path fill="#535353" d="M224.7154,158.0664l-220-40c-2.1895-0.418-4.2539,1.0469-4.6504,3.2188
		c-0.3945,2.1719,1.0469,4.2539,3.2207,4.6484l105.8706,19.2493L84.5741,172H65.9732c-4.3965,0-7.9727,3.6055-7.9727,8.0391v7.9219
		c0,4.4336,3.5762,8.0391,7.9727,8.0391h100.0547c4.3965,0,7.9727-3.6055,7.9727-8.0391v-7.9219
		c0-4.4336-3.5762-8.0391-7.9727-8.0391h-18.6008l-21.8445-23.8306l97.7031,17.7642c0.2422,0.0469,0.4824,0.0664,0.7188,0.0664
		c1.8965,0,3.5801-1.3516,3.9316-3.2852C228.3307,160.543,226.8893,158.4609,224.7154,158.0664z M166.0279,188l-100.0274-0.0391
		v-7.9219L65.9732,180l100.0274,0.0391L166.0279,188z M95.4283,172l20.5723-22.4453L136.5728,172H95.4283z"/>
	<path fill="#535353" d="M42.0006,56c15.4395,0,28-12.5625,28-28s-12.5605-28-28-28s-28,12.5625-28,28S26.5611,56,42.0006,56z
		 M42.0006,8c11.0273,0,20,8.9727,20,20s-8.9727,20-20,20s-20-8.9727-20-20S30.9732,8,42.0006,8z"/>
	<path fill="#535353" d="M190.0006,128c19.8496,0,36-16.1484,36-36s-16.1504-36-36-36s-36,16.1484-36,36S170.151,128,190.0006,128z
		 M190.0006,64c15.4395,0,28,12.5625,28,28s-12.5605,28-28,28s-28-12.5625-28-28S174.5611,64,190.0006,64z"/>
	<path fill="#535353" d="M178.6861,106.4844c1.0234,0,2.0469-0.3906,2.8281-1.1719l8.0713-8.0706l7.4854,7.4846
		c0.7812,0.7812,1.8047,1.1719,2.8281,1.1719s2.0469-0.3906,2.8281-1.1719c1.5625-1.5625,1.5625-4.0938,0-5.6562l-7.4851-7.4844
		l6.071-6.0703c1.5625-1.5625,1.5625-4.0938,0-5.6562c-1.5625-1.5625-4.0938-1.5625-5.6562,0l-6.0713,6.0706l-6.6572-6.6565
		c-1.5625-1.5625-4.0938-1.5625-5.6562,0s-1.5625,4.0938,0,5.6562l6.657,6.6562l-8.071,8.0703
		c-1.5625,1.5625-1.5625,4.0938,0,5.6562C176.6393,106.0938,177.6627,106.4844,178.6861,106.4844z"/>
</g>
</svg>
