<?xml version="1.0" encoding="utf-8"?>
<!-- Generator: Adobe Illustrator 19.2.0, SVG Export Plug-In . SVG Version: 6.00 Build 0)  -->
<svg version="1.1" id="scientistavatar" xmlns="http://www.w3.org/2000/svg" xmlns:xlink="http://www.w3.org/1999/xlink" x="0px"
	 y="0px" viewBox="0 0 196.1163 204" enable-background="new 0 0 196.1163 204" xml:space="preserve">
<g>
	<path fill="#D8D8D8" d="M68.9307,11.9814C64.5413,9.4624,59.472,8,54.0582,8c-16.543,0-30,13.457-30,30
		c0,3.0059,0.4558,5.9053,1.2822,8.6455L68.9307,11.9814z"/>
	<path fill="#D8D8D8" d="M140.0875,96H56.0933c-13.2539,0-24.0352,10.7656-24.0352,24v8.5957
		c4.084,0.2266,8.6387,1.0449,13.8281,2.2246C49.5543,122.0371,58.3199,116,68.0543,116h60.0078
		c9.9102,0,18.541,5.9238,22.1836,14.8164c5.1817-1.1777,9.7344-1.9941,13.8125-2.2207V120
		C164.0582,106.7656,153.3043,96,140.0875,96z"/>
	<path fill="#D8D8D8" d="M74.6734,17.6367l-45.876,36.4819C34.1331,62.4512,43.45,68,54.0582,68c16.543,0,30-13.457,30-30
		c0-8.2383-3.3406-15.709-8.7346-21.1357C75.1226,17.1328,74.9481,17.418,74.6734,17.6367z"/>
	<path fill="#D8D8D8" d="M129.3316,154.791c-8.6504,2.1484-18.4551,4.582-29.2734,4.582s-20.623-2.4336-29.2734-4.582
		c-5.9102-1.4668-11.2832-2.8008-15.1621-2.8008c-1.9648,0-3.5449,0.3418-4.6172,1.1816
		c-1.9551,1.5293-2.9473,5.2988-2.9473,11.2031c0,18.9824,8.8438,31.625,52,31.625s52-12.6426,52-31.625
		c0-5.9043-0.9922-9.6738-2.9473-11.2031C145.9195,150.6738,138.2339,152.584,129.3316,154.791z"/>
	<path fill="#D8D8D8" d="M162.6734,17.6367l-45.876,36.4819C122.1331,62.4512,131.45,68,142.0582,68c16.543,0,30-13.457,30-30
		c0-8.2383-3.3406-15.709-8.7346-21.1357C163.1226,17.1328,162.9481,17.418,162.6734,17.6367z"/>
	<path fill="#D8D8D8" d="M113.3404,46.6455l43.5903-34.6641C152.5413,9.4624,147.472,8,142.0582,8c-16.543,0-30,13.457-30,30
		C112.0582,41.0059,112.514,43.9053,113.3404,46.6455z"/>
	<path fill="#535353" d="M120.0582,136c2.209,0,4-1.791,4-4s-1.791-4-4-4H77.773c-2.209,0-4,1.791-4,4s1.791,4,4,4H120.0582z"/>
	<path fill="#535353" d="M195.2066,17.1016c-1.4043-1.707-3.9238-1.959-5.6289-0.5508l-11.4941,9.4434
		C173.0428,10.9131,158.813,0,142.0582,0c-16.0066,0-29.7048,9.9619-35.294,24H89.3521C83.763,9.9619,70.0648,0,54.0582,0
		C37.3033,0,23.0735,10.9131,18.0328,25.9941L6.5386,16.5508c-1.7051-1.4043-4.2285-1.1582-5.6289,0.5508
		c-1.4023,1.707-1.1562,4.2266,0.5508,5.6289l13.8594,11.3867c0.2791,0.23,0.595,0.3716,0.9089,0.5137
		c-0.0984,1.1123-0.1707,2.2319-0.1707,3.3691c0,20.9531,17.0469,38,38,38s38-17.0469,38-38c0-2.0464-0.208-4.0405-0.521-6h13.042
		c-0.313,1.9595-0.521,3.9536-0.521,6c0,20.9531,17.0469,38,38,38s38-17.0469,38-38c0-1.1372-0.0723-2.2568-0.1707-3.3691
		c0.314-0.1421,0.6299-0.2837,0.9089-0.5137l13.8594-11.3867C196.3629,21.3281,196.6089,18.8086,195.2066,17.1016z M54.0582,8
		c5.4138,0,10.4832,1.4624,14.8726,3.9814L25.3404,46.6455C24.514,43.9053,24.0582,41.0059,24.0582,38
		C24.0582,21.457,37.5152,8,54.0582,8z M54.0582,68c-10.6082,0-19.925-5.5488-25.2607-13.8813l45.876-36.4819
		c0.2747-0.2188,0.4492-0.5039,0.6501-0.7725C80.7176,22.291,84.0582,29.7617,84.0582,38C84.0582,54.543,70.6011,68,54.0582,68z
		 M142.0582,8c5.4138,0,10.4832,1.4624,14.8726,3.9814l-43.5903,34.6641c-0.8264-2.7402-1.2822-5.6396-1.2822-8.6455
		C112.0582,21.457,125.5152,8,142.0582,8z M142.0582,68c-10.6082,0-19.9251-5.5488-25.2607-13.8813l45.876-36.4819
		c0.2747-0.2188,0.4492-0.5039,0.6501-0.7725c5.394,5.4268,8.7346,12.8975,8.7346,21.1357C172.0582,54.543,158.6011,68,142.0582,68z
		"/>
	<path fill="#535353" d="M140.0875,88H56.0933c-17.6641,0-32.0352,14.3555-32.0352,32v12.584c0,1.1035,0.4551,2.1582,1.2598,2.9141
		c0.8027,0.7539,1.8398,1.1406,2.9844,1.0781c4.9629-0.3203,11.3164,0.9277,19.3086,2.8691
		c1.0371,0.2578,2.1406,0.0781,3.0488-0.4863c0.9121-0.5645,1.5586-1.4688,1.7949-2.5137C54.0933,129.2344,60.6539,124,68.0543,124
		h60.0078c7.4023,0,13.9629,5.2324,15.5996,12.4434c0.2363,1.0449,0.8828,1.9512,1.793,2.5156
		c0.6387,0.3945,1.3691,0.5996,2.1074,0.5996c0.3164,0,0.6328-0.0371,0.9434-0.1133c7.9941-1.9395,14.3418-3.1855,19.3086-2.8691
		c1.1367,0.082,2.1816-0.3223,2.9844-1.0781c0.8047-0.7559,1.2598-1.8105,1.2598-2.9141V120
		C172.0582,102.3555,157.7164,88,140.0875,88z M164.0582,128.5957c-4.0781,0.2266-8.6309,1.043-13.8125,2.2207
		C146.6031,121.9238,137.9722,116,128.0621,116H68.0543c-9.7344,0-18.5,6.0371-22.168,14.8203
		c-5.1895-1.1797-9.7441-1.998-13.8281-2.2246V120c0-13.2344,10.7812-24,24.0352-24h83.9941c13.2168,0,23.9707,10.7656,23.9707,24
		V128.5957z"/>
	<path fill="#535353" d="M154.0406,146.8711c-6.2695-4.9023-15.2539-2.6699-26.6348,0.1562
		c-8.207,2.0371-17.5078,4.3457-27.3477,4.3457s-19.1406-2.3086-27.3477-4.3457c-11.377-2.8262-20.3691-5.0566-26.6348-0.1562
		c-4.1055,3.2109-6.0176,8.7734-6.0176,17.5039c0,34.918,30.3301,39.625,60,39.625s60-4.707,60-39.625
		C160.0582,155.6445,158.1461,150.082,154.0406,146.8711z M100.0582,196c-43.1562,0-52-12.6426-52-31.625
		c0-5.9043,0.9922-9.6738,2.9473-11.2031c1.0723-0.8398,2.6523-1.1816,4.6172-1.1816c3.8789,0,9.252,1.334,15.1621,2.8008
		c8.6504,2.1484,18.4551,4.582,29.2734,4.582s20.623-2.4336,29.2734-4.582c8.9023-2.207,16.5879-4.1172,19.7793-1.6191
		c1.9551,1.5293,2.9473,5.2988,2.9473,11.2031C152.0582,183.3574,143.2144,196,100.0582,196z"/>
</g>
</svg>
