<?xml version="1.0" encoding="utf-8"?>
<!-- Generator: Adobe Illustrator 19.2.0, SVG Export Plug-In . SVG Version: 6.00 Build 0)  -->
<svg version="1.1" id="searchmagnify" xmlns="http://www.w3.org/2000/svg" xmlns:xlink="http://www.w3.org/1999/xlink" x="0px"
	 y="0px" viewBox="0 0 218.082 222.084" enable-background="new 0 0 218.082 222.084" xml:space="preserve">
<g>
	<path fill="#FFFFFF" d="M144.082,24c-27.5703,0-50,22.4297-50,50s22.4297,50,50,50s50-22.4297,50-50S171.6523,24,144.082,24z
		 M126.6289,96.4746c-0.1992,2.0684-1.9375,3.6172-3.9766,3.6172c-0.1289,0-0.2578-0.0059-0.3867-0.0176
		c-2.1992-0.2129-3.8086-2.166-3.5977-4.3652c1.3594-14.1465-12.6562-20.8242-13.2539-21.1035c-2-0.9277-2.875-3.3008-1.957-5.3027
		c0.9219-2.0039,3.2812-2.8867,5.2891-1.9688C109.5547,67.7031,128.543,76.5977,126.6289,96.4746z M151.9375,97.4473
		c-2.8125,9.8398-14.4531,16.3008-14.9492,16.5703c-0.6094,0.332-1.2656,0.4902-1.9102,0.4902c-1.4141,0-2.7812-0.75-3.5117-2.0762
		c-1.0625-1.9336-0.3516-4.3652,1.5781-5.4297c2.5625-1.4121,9.5469-6.2812,11.1055-11.7715
		c0.6055-2.1211,0.3281-4.1621-0.8438-6.2383c-1.0859-1.9238-0.4062-4.3633,1.5195-5.4492
		c1.9297-1.0879,4.3672-0.4023,5.4492,1.5195C152.6211,89.0488,153.1484,93.2148,151.9375,97.4473z M151.7109,48.0371
		c-7.7344-7.4902-19.8867,1.9648-20.0117,2.0586c-1.7344,1.377-4.2461,1.0781-5.6172-0.6543s-1.0781-4.248,0.6562-5.6191
		c6.1094-4.8418,20.3672-11.3926,30.543-1.5273c2.582,2.5039,4.2266,3.5586,5.1211,4c0.7969-1.373,2.3516-2.2148,4.0547-1.9453
		c2.1836,0.3262,3.6875,2.3633,3.3633,4.5469c-0.2812,1.8828-1.6055,4.416-4.4062,5.3633
		c-0.7188,0.2422-1.4453,0.3516-2.1758,0.3516C159.0391,54.6113,154.7461,50.9805,151.7109,48.0371z M187.0703,75.1543
		c-3.9609,1.5137-14.1953,6.9473-14.0195,13.8086c0.0547,2.209-1.6875,4.0449-3.8984,4.1016
		c-0.0352,0.002-0.0703,0.002-0.1016,0.002c-2.1641,0-3.9414-1.7246-4-3.8965c-0.3555-13.9375,18.3828-21.1934,19.1797-21.4941
		c2.0586-0.7871,4.3672,0.252,5.1523,2.3184C190.168,72.0566,189.1328,74.3672,187.0703,75.1543z"/>
	
		<rect x="8.0404" y="188.0419" transform="matrix(0.7072 -0.707 0.707 0.7072 -128.9819 76.6435)" fill="#D8D8D8" width="40.0013" height="12.0001"/>
	<path fill="#D8D8D8" d="M144.082,8c-36.3906,0-66,29.6074-66,66s29.6094,66,66,66s66-29.6074,66-66S180.4727,8,144.082,8z
		 M144.082,132c-31.9805,0-58-26.0195-58-58s26.0195-58,58-58s58,26.0195,58,58S176.0625,132,144.082,132z"/>
	<path fill="#535353" d="M144.082,0c-40.8047,0-74,33.1953-74,74c0,19.6885,7.7781,37.5591,20.3606,50.8301l-45.1091,46.9062
		l-4.564-4.5645c-0.75-0.75-1.7656-1.1719-2.8281-1.1719s-2.0781,0.4219-2.8281,1.1719L1.1719,201.1133
		c-1.5625,1.5625-1.5625,4.0938,0,5.6562l14.1406,14.1426c0.75,0.75,1.7656,1.1719,2.8281,1.1719s2.0781-0.4219,2.8281-1.1719
		l33.9414-33.9414c1.5625-1.5625,1.5625-4.0938,0-5.6562l-3.9197-3.9199l45.2427-47.0449C109.1475,141.333,125.8396,148,144.082,148
		c40.8047,0,74-33.1953,74-74S184.8867,0,144.082,0z M18.1406,212.4277l-8.4844-8.4863l28.2852-28.2852l8.4844,8.4863
		L18.1406,212.4277z M144.082,140c-36.3906,0-66-29.6074-66-66s29.6094-66,66-66s66,29.6074,66,66S180.4727,140,144.082,140z"/>
	<path fill="#535353" d="M144.082,16c-31.9805,0-58,26.0195-58,58s26.0195,58,58,58s58-26.0195,58-58S176.0625,16,144.082,16z
		 M144.082,124c-27.5703,0-50-22.4297-50-50s22.4297-50,50-50s50,22.4297,50,50S171.6523,124,144.082,124z"/>
	<path fill="#535353" d="M169.8203,48.8965c0.3242-2.1836-1.1797-4.2207-3.3633-4.5469c-1.7031-0.2695-3.2578,0.5723-4.0547,1.9453
		c-0.8945-0.4414-2.5391-1.4961-5.1211-4c-10.1758-9.8652-24.4336-3.3145-30.543,1.5273c-1.7344,1.3711-2.0273,3.8867-0.6562,5.6191
		s3.8828,2.0312,5.6172,0.6543c0.125-0.0938,12.2773-9.5488,20.0117-2.0586c3.0352,2.9434,7.3281,6.5742,11.5273,6.5742
		c0.7305,0,1.457-0.1094,2.1758-0.3516C168.2148,53.3125,169.5391,50.7793,169.8203,48.8965z"/>
	<path fill="#535353" d="M189.3828,69.9941c-0.7852-2.0664-3.0938-3.1055-5.1523-2.3184
		c-0.7969,0.3008-19.5352,7.5566-19.1797,21.4941c0.0586,2.1719,1.8359,3.8965,4,3.8965c0.0312,0,0.0664,0,0.1016-0.002
		c2.2109-0.0566,3.9531-1.8926,3.8984-4.1016c-0.1758-6.8613,10.0586-12.2949,14.0195-13.8086
		C189.1328,74.3672,190.168,72.0566,189.3828,69.9941z"/>
	<path fill="#535353" d="M108.7461,67.334c-2.0078-0.918-4.3672-0.0352-5.2891,1.9688c-0.918,2.002-0.043,4.375,1.957,5.3027
		c0.5977,0.2793,14.6133,6.957,13.2539,21.1035c-0.2109,2.1992,1.3984,4.1523,3.5977,4.3652
		c0.1289,0.0117,0.2578,0.0176,0.3867,0.0176c2.0391,0,3.7773-1.5488,3.9766-3.6172
		C128.543,76.5977,109.5547,67.7031,108.7461,67.334z"/>
	<path fill="#535353" d="M144.9258,83.543c-1.9258,1.0859-2.6055,3.5254-1.5195,5.4492c1.1719,2.0762,1.4492,4.1172,0.8438,6.2383
		c-1.5586,5.4902-8.543,10.3594-11.1055,11.7715c-1.9297,1.0645-2.6406,3.4961-1.5781,5.4297
		c0.7305,1.3262,2.0977,2.0762,3.5117,2.0762c0.6445,0,1.3008-0.1582,1.9102-0.4902c0.4961-0.2695,12.1367-6.7305,14.9492-16.5703
		c1.2109-4.2324,0.6836-8.3984-1.5625-12.3848C149.293,83.1406,146.8555,82.4551,144.9258,83.543z"/>
</g>
</svg>
