<?xml version="1.0" encoding="utf-8"?>
<!-- Generator: Adobe Illustrator 19.2.0, SVG Export Plug-In . SVG Version: 6.00 Build 0)  -->
<svg version="1.1" id="skull" xmlns="http://www.w3.org/2000/svg" xmlns:xlink="http://www.w3.org/1999/xlink" x="0px" y="0px"
	 viewBox="0 0 192 220" enable-background="new 0 0 192 220" xml:space="preserve">
<g>
	<path fill="#FFFFFF" d="M134.5,83.7578c-4.5352-0.8809-9.6758,0.4785-14.1133,3.7441c-4.4336,3.2637-7.5117,7.8867-8.4453,12.6797
		c-1.0859,5.5879,1.1328,9.6348,3.1875,12.0469c2.918,3.4297,7.3594,5.8691,12.5,6.8691c6.207,1.2051,12.668,2.2441,17.9336,1.7441
		c6.4531-0.623,7.8125-3.2168,8.2891-5.6719c0.8945-4.5996-1.2188-11.9805-5.3828-18.8027
		C144.3047,89.5488,138.8203,84.5996,134.5,83.7578z"/>
	<path fill="#FFFFFF" d="M71.6133,87.502c-3.5508-2.6094-7.5547-4.0059-11.3359-4.0059c-0.9453,0-1.8711,0.0859-2.7773,0.2617
		c-4.3203,0.8418-9.8047,5.791-13.9688,12.6094c-4.1641,6.8223-6.2773,14.2031-5.3828,18.8008
		c0.4766,2.457,1.8359,5.0508,8.2891,5.6738c5.2656,0.5039,11.7266-0.5391,17.9336-1.7441c5.1406-1,9.582-3.4395,12.5-6.8691
		c2.0547-2.4121,4.2734-6.459,3.1875-12.0449C79.125,95.3887,76.0469,90.7656,71.6133,87.502z"/>
	<path fill="#D8D8D8" d="M96,8C47.4766,8,8,46.5801,8,94c0,32.7676,19.5117,63.1699,49.7109,77.4551
		C59.1094,172.1152,60,173.5234,60,175.0703V212h76v-38.9414c0-1.4766,0.8125-2.834,2.1172-3.5293
		C166.418,154.4238,184,125.4824,184,94C184,46.5801,144.5234,8,96,8z M80,204c0,2.209-1.7891,4-4,4s-4-1.791-4-4v-20
		c0-2.209,1.7891-4,4-4s4,1.791,4,4V204z M65.8945,126.9492c-5.5078,1.0723-11.25,2.0234-16.5703,2.0234
		c-1.2422,0-2.4648-0.0527-3.6523-0.168c-10.9688-1.0586-14.418-7.1699-15.375-12.1113c-1.293-6.6445,1.1016-15.8027,6.4102-24.4941
		c2.6094-4.2812,9.7188-14.4375,19.2695-16.293c6.7109-1.3086,14.1484,0.5703,20.375,5.1523
		c6.0352,4.4414,10.25,10.8555,11.5586,17.5996c1.3242,6.7949-0.4336,13.457-4.9453,18.7559
		C78.875,122.2188,72.8125,125.6055,65.8945,126.9492z M84,132h8v16h-8V132z M100,204c0,2.209-1.7891,4-4,4s-4-1.791-4-4v-20
		c0-2.209,1.7891-4,4-4s4,1.791,4,4V204z M108,148h-8v-16h8V148z M120,204c0,2.209-1.7891,4-4,4s-4-1.791-4-4v-20
		c0-2.209,1.7891-4,4-4s4,1.791,4,4V204z M146.3281,128.8047c-1.1875,0.1152-2.4102,0.168-3.6523,0.168
		c-5.3203,0-11.0625-0.9512-16.5703-2.0234c-6.918-1.3438-12.9805-4.7305-17.0703-9.5352
		c-4.5117-5.2988-6.2695-11.9609-4.9453-18.7578c1.3086-6.7422,5.5234-13.1562,11.5586-17.5977
		c6.2266-4.582,13.6602-6.4688,20.375-5.1523c9.5508,1.8555,16.6602,12.0117,19.2695,16.293
		c5.3086,8.6914,7.7031,17.8496,6.4102,24.4961C160.7461,121.6348,157.2969,127.7461,146.3281,128.8047z"/>
	<path fill="#535353" d="M96,0C43.0664,0,0,42.168,0,94c0,35.0098,20.3242,67.5332,52,83.5664V216c0,2.209,1.7891,4,4,4h84
		c2.2109,0,4-1.791,4-4v-40.5762c29.6719-16.7949,48-47.7734,48-81.4238C192,42.168,148.9336,0,96,0z M138.1172,169.5293
		c-1.3047,0.6953-2.1172,2.0527-2.1172,3.5293V212H60v-36.9297c0-1.5469-0.8906-2.9551-2.2891-3.6152
		C27.5117,157.1699,8,126.7676,8,94C8,46.5801,47.4766,8,96,8s88,38.5801,88,86C184,125.4824,166.418,154.4238,138.1172,169.5293z"
		/>
	<path fill="#535353" d="M87.9102,98.6582C86.6016,91.9141,82.3867,85.5,76.3516,81.0586
		c-6.2266-4.582-13.6641-6.4609-20.375-5.1523c-9.5508,1.8555-16.6602,12.0117-19.2695,16.293
		c-5.3086,8.6914-7.7031,17.8496-6.4102,24.4941c0.957,4.9414,4.4062,11.0527,15.375,12.1113
		c1.1875,0.1152,2.4102,0.168,3.6523,0.168c5.3203,0,11.0625-0.9512,16.5703-2.0234c6.918-1.3438,12.9805-4.7305,17.0703-9.5352
		C87.4766,112.1152,89.2344,105.4531,87.9102,98.6582z M76.8711,112.2285c-2.918,3.4297-7.3594,5.8691-12.5,6.8691
		c-6.207,1.2051-12.668,2.248-17.9336,1.7441c-6.4531-0.623-7.8125-3.2168-8.2891-5.6738
		c-0.8945-4.5977,1.2188-11.9785,5.3828-18.8008c4.1641-6.8184,9.6484-11.7676,13.9688-12.6094
		c0.9062-0.1758,1.832-0.2617,2.7773-0.2617c3.7812,0,7.7852,1.3965,11.3359,4.0059c4.4336,3.2637,7.5117,7.8867,8.4453,12.6816
		C81.1445,105.7695,78.9258,109.8164,76.8711,112.2285z"/>
	<path fill="#535353" d="M155.293,92.1992c-2.6094-4.2812-9.7188-14.4375-19.2695-16.293
		c-6.7148-1.3164-14.1484,0.5703-20.375,5.1523c-6.0352,4.4414-10.25,10.8555-11.5586,17.5977
		c-1.3242,6.7969,0.4336,13.459,4.9453,18.7578c4.0898,4.8047,10.1523,8.1914,17.0703,9.5352
		c5.5078,1.0723,11.25,2.0234,16.5703,2.0234c1.2422,0,2.4648-0.0527,3.6523-0.168c10.9688-1.0586,14.418-7.1699,15.375-12.1094
		C162.9961,110.0488,160.6016,100.8906,155.293,92.1992z M153.8516,115.1699c-0.4766,2.4551-1.8359,5.0488-8.2891,5.6719
		c-5.2656,0.5-11.7266-0.5391-17.9336-1.7441c-5.1406-1-9.582-3.4395-12.5-6.8691c-2.0547-2.4121-4.2734-6.459-3.1875-12.0469
		c0.9336-4.793,4.0117-9.416,8.4453-12.6797c4.4375-3.2656,9.5781-4.625,14.1133-3.7441c4.3203,0.8418,9.8047,5.791,13.9688,12.6094
		C152.6328,103.1895,154.7461,110.5703,153.8516,115.1699z"/>
	<path fill="#535353" d="M76,180c-2.2109,0-4,1.791-4,4v20c0,2.209,1.7891,4,4,4s4-1.791,4-4v-20C80,181.791,78.2109,180,76,180z"/>
	<path fill="#535353" d="M116,180c-2.2109,0-4,1.791-4,4v20c0,2.209,1.7891,4,4,4s4-1.791,4-4v-20C120,181.791,118.2109,180,116,180
		z"/>
	<path fill="#535353" d="M96,180c-2.2109,0-4,1.791-4,4v20c0,2.209,1.7891,4,4,4s4-1.791,4-4v-20C100,181.791,98.2109,180,96,180z"
		/>
	<rect x="84" y="132" fill="#535353" width="8" height="16"/>
	<rect x="100" y="132" fill="#535353" width="8" height="16"/>
</g>
</svg>
