<?xml version="1.0" encoding="utf-8"?>
<!-- Generator: Adobe Illustrator 19.2.0, SVG Export Plug-In . SVG Version: 6.00 Build 0)  -->
<svg version="1.1" id="skullbottle" xmlns="http://www.w3.org/2000/svg" xmlns:xlink="http://www.w3.org/1999/xlink" x="0px"
	 y="0px" viewBox="0 0 136 216" enable-background="new 0 0 136 216" xml:space="preserve">
<g>
	<circle fill="#D8D8D8" cx="84" cy="120" r="4"/>
	<path fill="#D8D8D8" d="M68,88c-19.8516,0-36,16.1504-36,36c0,12.8125,6.8984,24.7637,18.0039,31.1855
		C51.2383,155.9004,52,157.2207,52,158.6484V176h12v-10h8v10h12v-17.3516c0-1.4277,0.7617-2.748,1.9961-3.4629
		C97.1016,148.7637,104,136.8125,104,124C104,104.1504,87.8516,88,68,88z M52,132c-6.6172,0-12-5.3828-12-12s5.3828-12,12-12
		s12,5.3828,12,12S58.6172,132,52,132z M84,132c-6.6172,0-12-5.3828-12-12s5.3828-12,12-12s12,5.3828,12,12S90.6172,132,84,132z"/>
	<circle fill="#D8D8D8" cx="52" cy="120" r="4"/>
	<polygon fill="#D8D8D8" points="92,28 116,28 116,8 20,8 20,28 44,28 	"/>
	<path fill="#FFFFFF" d="M88.1797,36H47.8203C45.9141,57.0781,29.0781,73.9121,8,75.8203V208h120V75.8203
		C106.9219,73.9121,90.0859,57.0781,88.1797,36z M92,160.8828V180c0,2.209-1.7891,4-4,4H72h-8H48c-2.2109,0-4-1.791-4-4v-19.1172
		C31.6055,152.7988,24,138.875,24,124c0-24.2617,19.7383-44,44-44s44,19.7383,44,44C112,138.875,104.3945,152.7988,92,160.8828z"/>
	<path fill="#535353" d="M68,80c-24.2617,0-44,19.7383-44,44c0,14.875,7.6055,28.7988,20,36.8828V180c0,2.209,1.7891,4,4,4h16h8h16
		c2.2109,0,4-1.791,4-4v-19.1172c12.3945-8.084,20-22.0078,20-36.8828C112,99.7383,92.2617,80,68,80z M85.9961,155.1855
		C84.7617,155.9004,84,157.2207,84,158.6484V176H72v-10h-8v10H52v-17.3516c0-1.4277-0.7617-2.748-1.9961-3.4629
		C38.8984,148.7637,32,136.8125,32,124c0-19.8496,16.1484-36,36-36s36,16.1504,36,36
		C104,136.8125,97.1016,148.7637,85.9961,155.1855z"/>
	<path fill="#535353" d="M52,108c-6.6172,0-12,5.3828-12,12s5.3828,12,12,12s12-5.3828,12-12S58.6172,108,52,108z M52,124
		c-2.207,0-4-1.7949-4-4s1.793-4,4-4s4,1.7949,4,4S54.207,124,52,124z"/>
	<path fill="#535353" d="M84,108c-6.6172,0-12,5.3828-12,12s5.3828,12,12,12s12-5.3828,12-12S90.6172,108,84,108z M84,124
		c-2.207,0-4-1.7949-4-4s1.793-4,4-4s4,1.7949,4,4S86.207,124,84,124z"/>
	<path fill="#535353" d="M132,68c-18.498,0-33.7661-14.0283-35.7639-32H120c2.2109,0,4-1.791,4-4V4c0-2.209-1.7891-4-4-4H16
		c-2.2109,0-4,1.791-4,4v28c0,2.209,1.7891,4,4,4h23.7639C37.7661,53.9717,22.498,68,4,68c-2.2109,0-4,1.791-4,4v140
		c0,2.209,1.7891,4,4,4h128c2.2109,0,4-1.791,4-4V72C136,69.791,134.2109,68,132,68z M20,8h96v20H92H44H20V8z M128,208H8V75.8203
		C29.0781,73.9121,45.9141,57.0781,47.8203,36h40.3594C90.0859,57.0781,106.9219,73.9121,128,75.8203V208z"/>
</g>
</svg>
