<?xml version="1.0" encoding="utf-8"?>
<!-- Generator: Adobe Illustrator 19.2.0, SVG Export Plug-In . SVG Version: 6.00 Build 0)  -->
<svg version="1.1" id="smallorganism" xmlns="http://www.w3.org/2000/svg" xmlns:xlink="http://www.w3.org/1999/xlink" x="0px"
	 y="0px" viewBox="0 0 224 224" enable-background="new 0 0 224 224" xml:space="preserve">
<g>
	<path fill="#FFFFFF" d="M138,104c-12.1289,0-22,9.8691-22,22s9.8711,22,22,22s22-9.8691,22-22S150.1289,104,138,104z"/>
	<path fill="#FFFFFF" d="M120,76c0-4.4121-3.5898-8-8-8s-8,3.5879-8,8s3.5898,8,8,8S120,80.4121,120,76z"/>
	<path fill="#FFFFFF" d="M74,112c-7.7188,0-14,6.2812-14,14s6.2812,14,14,14s14-6.2812,14-14S81.7188,112,74,112z"/>
	<path fill="#D8D8D8" d="M208.0234,104h-20.9648c-1.9688,0-3.6406-1.4297-3.9492-3.373
		c-1.7617-11.082-6.1836-21.7539-12.793-30.8613c-1.1523-1.5918-0.9805-3.7871,0.4102-5.1777l14.8281-14.8301
		c1.5039-1.5039,2.332-3.5078,2.3281-5.6426c-0.0039-2.1367-0.8359-4.1445-2.3438-5.6543
		c-3.1211-3.1211-8.1914-3.127-11.2969-0.0176l-14.8281,14.8301c-1.3867,1.3926-3.5859,1.5664-5.1758,0.4102
		c-9.1094-6.6094-19.7812-11.0332-30.8672-12.791C121.4297,40.584,120,38.9082,120,36.9414V15.9766C120,11.5781,116.4102,8,112,8
		s-8,3.5781-8,7.9766v20.9648c0,1.9668-1.4297,3.6426-3.3711,3.9512c-11.0859,1.7578-21.7578,6.1816-30.8672,12.791
		c-1.5859,1.1562-3.7852,0.9824-5.1758-0.4102L49.7578,38.4434c-1.5-1.5-3.5-2.3262-5.6328-2.3262c-0.0039,0-0.0078,0-0.0117,0
		c-2.1367,0.002-4.1445,0.834-5.6523,2.3438c-1.5117,1.5117-2.3438,3.5195-2.3438,5.6582
		c-0.0039,2.1328,0.8242,4.1348,2.3281,5.6367l14.8281,14.832c1.3906,1.3906,1.5625,3.5859,0.4102,5.1777
		c-6.6094,9.1074-11.0312,19.7793-12.793,30.8613C40.582,102.5703,38.9102,104,36.9414,104H15.9766C11.5781,104,8,107.5879,8,112
		s3.5781,8,7.9766,8h20.9648c1.9688,0,3.6406,1.4297,3.9492,3.373c1.7617,11.082,6.1836,21.7539,12.793,30.8613
		c1.1523,1.5918,0.9805,3.7871-0.4102,5.1777l-14.8281,14.8301c-1.5039,1.5039-2.332,3.5078-2.3281,5.6426
		c0.0039,2.1367,0.8359,4.1445,2.3438,5.6543c3.1172,3.1172,8.1875,3.123,11.2969,0.0176l14.8281-14.8301
		c0.7734-0.7754,1.7969-1.1719,2.8281-1.1719c0.8203,0,1.6445,0.25,2.3477,0.7617c9.1094,6.6094,19.7812,11.0332,30.8672,12.791
		c1.9414,0.3086,3.3711,1.9844,3.3711,3.9512v20.9648c0,4.3984,3.5898,7.9766,8,7.9766s8-3.5781,8-7.9766v-20.9648
		c0-1.9668,1.4297-3.6426,3.3711-3.9512c11.0859-1.7578,21.7578-6.1816,30.8672-12.791c1.5898-1.1504,3.7891-0.9805,5.1758,0.4102
		l14.8281,14.8301c1.5,1.5,3.5,2.3262,5.6328,2.3262c0.0039,0,0.0078,0,0.0117,0c2.1367-0.002,4.1445-0.834,5.6523-2.3438
		c1.5117-1.5117,2.3438-3.5195,2.3438-5.6582c0.0039-2.1328-0.8242-4.1348-2.3281-5.6367l-14.8281-14.832
		c-1.3906-1.3906-1.5625-3.5859-0.4102-5.1777c6.6094-9.1074,11.0312-19.7793,12.793-30.8613
		c0.3086-1.9434,1.9805-3.373,3.9492-3.373h20.9648c4.3984,0,7.9766-3.5879,7.9766-8S212.4219,104,208.0234,104z M74,148
		c-12.1289,0-22-9.8691-22-22s9.8711-22,22-22s22,9.8691,22,22S86.1289,148,74,148z M96,76c0-8.8223,7.1758-16,16-16
		s16,7.1777,16,16s-7.1758,16-16,16S96,84.8223,96,76z M138,156c-16.543,0-30-13.457-30-30s13.457-30,30-30s30,13.457,30,30
		S154.543,156,138,156z"/>
	<path fill="#535353" d="M128,76c0-8.8223-7.1758-16-16-16s-16,7.1777-16,16s7.1758,16,16,16S128,84.8223,128,76z M104,76
		c0-4.4121,3.5898-8,8-8s8,3.5879,8,8s-3.5898,8-8,8S104,80.4121,104,76z"/>
	<path fill="#535353" d="M138,96c-16.543,0-30,13.457-30,30s13.457,30,30,30s30-13.457,30-30S154.543,96,138,96z M138,148
		c-12.1289,0-22-9.8691-22-22s9.8711-22,22-22s22,9.8691,22,22S150.1289,148,138,148z"/>
	<path fill="#535353" d="M208.0234,96h-17.625c-2.0391-9.9883-6.0195-19.5957-11.6562-28.1172l12.4688-12.4668
		c3.0195-3.0176,4.6797-7.0352,4.6719-11.3125c-0.0039-4.2695-1.6719-8.2832-4.6875-11.2988
		c-6.2344-6.2383-16.3828-6.2441-22.6094-0.0176l-12.4688,12.4688c-8.5195-5.6348-18.1289-9.6172-28.1172-11.6543v-17.625
		C128,7.168,120.8242,0,112,0S96,7.168,96,15.9766v17.625c-9.9883,2.0371-19.5977,6.0195-28.1172,11.6543L55.4141,32.7871
		c-3.0117-3.0117-7.0195-4.6699-11.2891-4.6699c-0.0078,0-0.0156,0-0.0195,0c-4.2734,0.0059-8.2852,1.6699-11.3008,4.6875
		c-3.0195,3.0195-4.6875,7.0352-4.6875,11.3086c-0.0039,4.2734,1.6562,8.2871,4.6719,11.3008l12.4688,12.4688
		C39.6211,76.4043,35.6406,86.0117,33.6016,96h-17.625C7.168,96,0,103.1777,0,112s7.168,16,15.9766,16h17.625
		c2.0391,9.9883,6.0195,19.5957,11.6562,28.1172L32.7891,168.584c-3.0195,3.0176-4.6797,7.0352-4.6719,11.3125
		c0.0039,4.2695,1.6719,8.2832,4.6875,11.2988c6.2383,6.2422,16.3867,6.248,22.6094,0.0176l12.4688-12.4688
		c8.5195,5.6348,18.1289,9.6172,28.1172,11.6543v17.625C96,216.832,103.1758,224,112,224s16-7.168,16-15.9766v-17.625
		c9.9883-2.0371,19.5977-6.0195,28.1172-11.6543l12.4688,12.4688c3.0117,3.0117,7.0195,4.6699,11.2891,4.6699
		c0.0078,0,0.0156,0,0.0195,0c4.2734-0.0059,8.2852-1.6699,11.3008-4.6875c3.0195-3.0195,4.6875-7.0352,4.6875-11.3086
		c0.0039-4.2734-1.6562-8.2871-4.6719-11.3008l-12.4688-12.4688c5.6367-8.5215,9.6172-18.1289,11.6562-28.1172h17.625
		C216.832,128,224,120.8223,224,112S216.832,96,208.0234,96z M208.0234,120h-20.9648c-1.9688,0-3.6406,1.4297-3.9492,3.373
		c-1.7617,11.082-6.1836,21.7539-12.793,30.8613c-1.1523,1.5918-0.9805,3.7871,0.4102,5.1777l14.8281,14.832
		c1.5039,1.502,2.332,3.5039,2.3281,5.6367c0,2.1387-0.832,4.1465-2.3438,5.6582c-1.5078,1.5098-3.5156,2.3418-5.6523,2.3438
		c-0.0039,0-0.0078,0-0.0117,0c-2.1328,0-4.1328-0.8262-5.6328-2.3262l-14.8281-14.8301c-1.3867-1.3906-3.5859-1.5605-5.1758-0.4102
		c-9.1094,6.6094-19.7812,11.0332-30.8672,12.791c-1.9414,0.3086-3.3711,1.9844-3.3711,3.9512v20.9648
		c0,4.3984-3.5898,7.9766-8,7.9766s-8-3.5781-8-7.9766v-20.9648c0-1.9668-1.4297-3.6426-3.3711-3.9512
		c-11.0859-1.7578-21.7578-6.1816-30.8672-12.791c-0.7031-0.5117-1.5273-0.7617-2.3477-0.7617
		c-1.0312,0-2.0547,0.3965-2.8281,1.1719l-14.8281,14.8301c-3.1094,3.1055-8.1797,3.0996-11.2969-0.0176
		c-1.5078-1.5098-2.3398-3.5176-2.3438-5.6543c-0.0039-2.1348,0.8242-4.1387,2.3281-5.6426l14.8281-14.8301
		c1.3906-1.3906,1.5625-3.5859,0.4102-5.1777c-6.6094-9.1074-11.0312-19.7793-12.793-30.8613
		C40.582,121.4297,38.9102,120,36.9414,120H15.9766C11.5781,120,8,116.4121,8,112s3.5781-8,7.9766-8h20.9648
		c1.9688,0,3.6406-1.4297,3.9492-3.373c1.7617-11.082,6.1836-21.7539,12.793-30.8613c1.1523-1.5918,0.9805-3.7871-0.4102-5.1777
		l-14.8281-14.832c-1.5039-1.502-2.332-3.5039-2.3281-5.6367c0-2.1387,0.832-4.1465,2.3438-5.6582
		c1.5078-1.5098,3.5156-2.3418,5.6523-2.3438c0.0039,0,0.0078,0,0.0117,0c2.1328,0,4.1328,0.8262,5.6328,2.3262l14.8281,14.8301
		c1.3906,1.3926,3.5898,1.5664,5.1758,0.4102c9.1094-6.6094,19.7812-11.0332,30.8672-12.791
		C102.5703,40.584,104,38.9082,104,36.9414V15.9766C104,11.5781,107.5898,8,112,8s8,3.5781,8,7.9766v20.9648
		c0,1.9668,1.4297,3.6426,3.3711,3.9512c11.0859,1.7578,21.7578,6.1816,30.8672,12.791c1.5898,1.1562,3.7891,0.9824,5.1758-0.4102
		l14.8281-14.8301c3.1055-3.1094,8.1758-3.1035,11.2969,0.0176c1.5078,1.5098,2.3398,3.5176,2.3438,5.6543
		c0.0039,2.1348-0.8242,4.1387-2.3281,5.6426l-14.8281,14.8301c-1.3906,1.3906-1.5625,3.5859-0.4102,5.1777
		c6.6094,9.1074,11.0312,19.7793,12.793,30.8613c0.3086,1.9434,1.9805,3.373,3.9492,3.373h20.9648c4.3984,0,7.9766,3.5879,7.9766,8
		S212.4219,120,208.0234,120z"/>
	<path fill="#535353" d="M74,104c-12.1289,0-22,9.8691-22,22s9.8711,22,22,22s22-9.8691,22-22S86.1289,104,74,104z M74,140
		c-7.7188,0-14-6.2812-14-14s6.2812-14,14-14s14,6.2812,14,14S81.7188,140,74,140z"/>
</g>
</svg>
