<?xml version="1.0" encoding="utf-8"?>
<!-- Generator: Adobe Illustrator 19.2.0, SVG Export Plug-In . SVG Version: 6.00 Build 0)  -->
<svg version="1.1" id="squarestructure" xmlns="http://www.w3.org/2000/svg" xmlns:xlink="http://www.w3.org/1999/xlink" x="0px"
	 y="0px" viewBox="0 0 228 228" enable-background="new 0 0 228 228" xml:space="preserve">
<g>
	<path fill="#D8D8D8" d="M124,204c0,8.8223,7.1758,16,16,16s16-7.1777,16-16s-7.1758-16-16-16S124,195.1777,124,204z"/>
	<path fill="#D8D8D8" d="M40,88c0-8.8223-7.1758-16-16-16S8,79.1777,8,88s7.1758,16,16,16S40,96.8223,40,88z"/>
	<path fill="#D8D8D8" d="M24,188c-8.8242,0-16,7.1777-16,16s7.1758,16,16,16s16-7.1777,16-16S32.8242,188,24,188z"/>
	<path fill="#D8D8D8" d="M104,24c0-8.8223-7.1758-16-16-16s-16,7.1777-16,16s7.1758,16,16,16S104,32.8223,104,24z"/>
	<path fill="#D8D8D8" d="M204,40c8.8242,0,16-7.1777,16-16s-7.1758-16-16-16s-16,7.1777-16,16S195.1758,40,204,40z"/>
	<path fill="#D8D8D8" d="M72,140c0,8.8223,7.1758,16,16,16s16-7.1777,16-16s-7.1758-16-16-16S72,131.1777,72,140z"/>
	<path fill="#D8D8D8" d="M204,124c-8.8242,0-16,7.1777-16,16s7.1758,16,16,16s16-7.1777,16-16S212.8242,124,204,124z"/>
	<path fill="#D8D8D8" d="M156,88c0-8.8223-7.1758-16-16-16s-16,7.1777-16,16s7.1758,16,16,16S156,96.8223,156,88z"/>
	<path fill="#535353" d="M208,116.3613V47.6387C219.3325,45.7256,228,35.8691,228,24c0-13.2344-10.7656-24-24-24
		c-11.8689,0-21.7253,8.6675-23.6387,20h-68.7227C109.7253,8.6675,99.8689,0,88,0C74.7656,0,64,10.7656,64,24
		c0,11.8691,8.6675,21.7256,20,23.6387V84H47.6387C45.7253,72.6675,35.8689,64,24,64C10.7656,64,0,74.7656,0,88
		c0,11.8691,8.6675,21.7256,20,23.6387v68.7227C8.6675,182.2744,0,192.1309,0,204c0,13.2344,10.7656,24,24,24
		c11.8689,0,21.7253-8.6675,23.6387-20h68.7227c1.9133,11.3325,11.7698,20,23.6387,20c13.2344,0,24-10.7656,24-24
		c0-11.8691-8.6675-21.7256-20-23.6387V144h36.3613c1.9133,11.3325,11.7698,20,23.6387,20c13.2344,0,24-10.7656,24-24
		C228,128.1309,219.3325,118.2744,208,116.3613z M204,8c8.8242,0,16,7.1777,16,16s-7.1758,16-16,16s-16-7.1777-16-16
		S195.1758,8,204,8z M72,24c0-8.8223,7.1758-16,16-16s16,7.1777,16,16s-7.1758,16-16,16S72,32.8223,72,24z M8,88
		c0-8.8223,7.1758-16,16-16s16,7.1777,16,16s-7.1758,16-16,16S8,96.8223,8,88z M24,220c-8.8242,0-16-7.1777-16-16s7.1758-16,16-16
		s16,7.1777,16,16S32.8242,220,24,220z M156,204c0,8.8223-7.1758,16-16,16s-16-7.1777-16-16s7.1758-16,16-16S156,195.1777,156,204z
		 M136,180.3613c-10.0286,1.6934-17.9456,9.6104-19.6387,19.6387H47.6387C45.9456,189.9717,38.0286,182.0547,28,180.3613v-68.7227
		C38.0286,109.9453,45.9456,102.0283,47.6387,92H84v24.3613C72.6675,118.2744,64,128.1309,64,140c0,13.2344,10.7656,24,24,24
		c11.8689,0,21.7253-8.6675,23.6387-20H136V180.3613z M116.3613,92c1.6931,10.0283,9.6101,17.9453,19.6387,19.6387V136h-24.3613
		c-1.6931-10.0283-9.6101-17.9453-19.6387-19.6387V92H116.3613z M140,104c-8.8242,0-16-7.1777-16-16s7.1758-16,16-16
		s16,7.1777,16,16S148.8242,104,140,104z M88,124c8.8242,0,16,7.1777,16,16s-7.1758,16-16,16s-16-7.1777-16-16S79.1758,124,88,124z
		 M180.3613,136H144v-24.3613c11.3325-1.9131,20-11.7695,20-23.6387c0-13.2344-10.7656-24-24-24
		c-11.8689,0-21.7253,8.6675-23.6387,20H92V47.6387c10.0286-1.6934,17.9456-9.6104,19.6387-19.6387h68.7227
		c1.6931,10.0283,9.6101,17.9453,19.6387,19.6387v68.7227C189.9714,118.0547,182.0544,125.9717,180.3613,136z M204,156
		c-8.8242,0-16-7.1777-16-16s7.1758-16,16-16s16,7.1777,16,16S212.8242,156,204,156z"/>
</g>
</svg>
