<?xml version="1.0" encoding="utf-8"?>
<!-- Generator: Adobe Illustrator 19.2.0, SVG Export Plug-In . SVG Version: 6.00 Build 0)  -->
<svg version="1.1" id="starconstelation" xmlns="http://www.w3.org/2000/svg" xmlns:xlink="http://www.w3.org/1999/xlink" x="0px"
	 y="0px" viewBox="0 0 232.9375 229.0547" enable-background="new 0 0 232.9375 229.0547" xml:space="preserve">
<g>
	<path fill="#D8D8D8" d="M97.418,37.1875l2.4648,8.4785l2.4648-8.4785c0.3789-1.3145,1.4102-2.3418,2.7227-2.7246L113.5508,32
		l-8.4805-2.4629c-1.3125-0.3828-2.3438-1.4102-2.7227-2.7246l-2.4648-8.4785l-2.4648,8.4785
		c-0.3789,1.3145-1.4102,2.3418-2.7227,2.7246L86.2148,32l8.4805,2.4629C96.0078,34.8457,97.0391,35.873,97.418,37.1875z"/>
	<path fill="#D8D8D8" d="M99.5195,159.752l-2.4648-8.4785l-2.4648,8.4785c-0.3789,1.3145-1.4102,2.3418-2.7227,2.7246
		l-8.4805,2.4648l8.4805,2.4629c1.3125,0.3828,2.3438,1.4102,2.7227,2.7246l2.4648,8.4785l2.4648-8.4785
		c0.3789-1.3145,1.4102-2.3418,2.7227-2.7246l8.4805-2.4629l-8.4805-2.4648C100.9297,162.0938,99.8984,161.0664,99.5195,159.752z"/>
	<path fill="#D8D8D8" d="M37.1875,102.3477l8.4805-2.4629l-8.4805-2.4629c-1.3125-0.3828-2.3438-1.4102-2.7227-2.7246L32,86.2188
		l-2.4648,8.4785c-0.3789,1.3145-1.4102,2.3418-2.7227,2.7246l-8.4805,2.4629l8.4805,2.4629
		c1.3125,0.3828,2.3438,1.4102,2.7227,2.7246L32,113.5508l2.4648-8.4785C34.8438,103.7578,35.875,102.7305,37.1875,102.3477z"/>
	<path fill="#D8D8D8" d="M203.4023,191.8672l-2.4648-8.4785l-2.4648,8.4785c-0.3789,1.3145-1.4102,2.3418-2.7227,2.7246
		l-8.4805,2.4629l8.4805,2.4629c1.3125,0.3828,2.3438,1.4102,2.7227,2.7246l2.4648,8.4785l2.4648-8.4785
		c0.3789-1.3145,1.4102-2.3418,2.7227-2.7246l8.4805-2.4629l-8.4805-2.4629C204.8125,194.209,203.7812,193.1816,203.4023,191.8672z"
		/>
	<path fill="#D8D8D8" d="M170.125,94.5918c-1.3125-0.3828-2.3438-1.4102-2.7227-2.7246l-2.4648-8.4785l-2.4648,8.4785
		c-0.3789,1.3145-1.4102,2.3418-2.7227,2.7246l-8.4805,2.4629l8.4805,2.4629c1.3125,0.3828,2.3438,1.4102,2.7227,2.7246
		l2.4648,8.4785l2.4648-8.4785c0.3789-1.3145,1.4102-2.3418,2.7227-2.7246l8.4805-2.4629L170.125,94.5918z"/>
	<path fill="#535353" d="M194.0547,100.8965c1.707-0.498,2.8828-2.0625,2.8828-3.8418s-1.1758-3.3438-2.8828-3.8418l-19.5859-5.6914
		l-5.6914-19.584c-0.4961-1.707-2.0625-2.8828-3.8398-2.8828s-3.3438,1.1758-3.8398,2.8828l-4.4182,15.2031l-42.8826-42.8809
		L129,35.8418c1.707-0.498,2.8828-2.0625,2.8828-3.8418S130.707,28.6562,129,28.1582l-19.5859-5.6914l-5.6914-19.584
		C103.2266,1.1758,101.6602,0,99.8828,0s-3.3438,1.1758-3.8398,2.8828l-5.6914,19.584l-19.5859,5.6914
		c-1.707,0.498-2.8828,2.0625-2.8828,3.8418s1.1758,3.3438,2.8828,3.8418l15.2139,4.4209L40.2576,85.9688l-4.4177-15.2012
		c-0.4961-1.707-2.0625-2.8828-3.8398-2.8828s-3.3438,1.1758-3.8398,2.8828l-5.6914,19.584L2.8828,96.043
		C1.1758,96.541,0,98.1055,0,99.8848s1.1758,3.3438,2.8828,3.8418l19.5859,5.6914l5.6914,19.584
		c0.4961,1.707,2.0625,2.8828,3.8398,2.8828s3.3438-1.1758,3.8398-2.8828l4.4177-15.2017l42.8843,42.8813l-15.2043,4.418
		c-1.707,0.498-2.8828,2.0625-2.8828,3.8418s1.1758,3.3438,2.8828,3.8418l19.5859,5.6914l5.6914,19.584
		c0.4961,1.707,2.0625,2.8828,3.8398,2.8828s3.3438-1.1758,3.8398-2.8828l5.6914-19.584l19.5859-5.6914
		c1.707-0.498,2.8828-2.0625,2.8828-3.8418s-1.1758-3.3438-2.8828-3.8418l-15.2021-4.4175l45.7141-45.6978l4.4138,15.1875
		c0.4961,1.707,2.0625,2.8828,3.8398,2.8828s3.3438-1.1758,3.8398-2.8828l5.6914-19.584L194.0547,100.8965z M135.8203,100.8965
		l15.2153,4.4214l-45.7234,45.7075l-4.4177-15.2012c-0.4961-1.707-2.0625-2.8828-3.8398-2.8828s-3.3438,1.1758-3.8398,2.8828
		l-4.4175,15.2002l-42.8831-42.8799l15.2029-4.418c1.707-0.498,2.8828-2.0625,2.8828-3.8418s-1.1758-3.3438-2.8828-3.8418
		L45.915,91.6255l45.7136-45.6978l4.4143,15.1895C96.5391,62.8242,98.1055,64,99.8828,64s3.3438-1.1758,3.8398-2.8828
		l4.4177-15.2012l42.8816,42.8794l-15.2017,4.4175c-1.707,0.498-2.8828,2.0625-2.8828,3.8418S134.1133,100.3984,135.8203,100.8965z
		 M94.6953,29.5371c1.3125-0.3828,2.3438-1.4102,2.7227-2.7246l2.4648-8.4785l2.4648,8.4785
		c0.3789,1.3145,1.4102,2.3418,2.7227,2.7246L113.5508,32l-8.4805,2.4629c-1.3125,0.3828-2.3438,1.4102-2.7227,2.7246
		l-2.4648,8.4785l-2.4648-8.4785c-0.3789-1.3145-1.4102-2.3418-2.7227-2.7246L86.2148,32L94.6953,29.5371z M32,113.5508
		l-2.4648-8.4785c-0.3789-1.3145-1.4102-2.3418-2.7227-2.7246l-8.4805-2.4629l8.4805-2.4629
		c1.3125-0.3828,2.3438-1.4102,2.7227-2.7246L32,86.2188l2.4648,8.4785c0.3789,1.3145,1.4102,2.3418,2.7227,2.7246l8.4805,2.4629
		l-8.4805,2.4629c-1.3125,0.3828-2.3438,1.4102-2.7227,2.7246L32,113.5508z M102.2422,167.4043
		c-1.3125,0.3828-2.3438,1.4102-2.7227,2.7246l-2.4648,8.4785l-2.4648-8.4785c-0.3789-1.3145-1.4102-2.3418-2.7227-2.7246
		l-8.4805-2.4629l8.4805-2.4648c1.3125-0.3828,2.3438-1.4102,2.7227-2.7246l2.4648-8.4785l2.4648,8.4785
		c0.3789,1.3145,1.4102,2.3418,2.7227,2.7246l8.4805,2.4648L102.2422,167.4043z M167.4023,102.2422l-2.4648,8.4785l-2.4648-8.4785
		c-0.3789-1.3145-1.4102-2.3418-2.7227-2.7246l-8.4805-2.4629l8.4805-2.4629c1.3125-0.3828,2.3438-1.4102,2.7227-2.7246
		l2.4648-8.4785l2.4648,8.4785c0.3789,1.3145,1.4102,2.3418,2.7227,2.7246l8.4805,2.4629l-8.4805,2.4629
		C168.8125,99.9004,167.7812,100.9277,167.4023,102.2422z"/>
	<path fill="#535353" d="M230.0547,193.2129l-19.5859-5.6914l-5.6914-19.584c-0.4961-1.707-2.0625-2.8828-3.8398-2.8828
		s-3.3438,1.1758-3.8398,2.8828l-5.6914,19.584l-19.5859,5.6914c-1.707,0.498-2.8828,2.0625-2.8828,3.8418
		s1.1758,3.3438,2.8828,3.8418l19.5859,5.6914l5.6914,19.584c0.4961,1.707,2.0625,2.8828,3.8398,2.8828s3.3438-1.1758,3.8398-2.8828
		l5.6914-19.584l19.5859-5.6914c1.707-0.498,2.8828-2.0625,2.8828-3.8418S231.7617,193.7109,230.0547,193.2129z M206.125,199.5176
		c-1.3125,0.3828-2.3438,1.4102-2.7227,2.7246l-2.4648,8.4785l-2.4648-8.4785c-0.3789-1.3145-1.4102-2.3418-2.7227-2.7246
		l-8.4805-2.4629l8.4805-2.4629c1.3125-0.3828,2.3438-1.4102,2.7227-2.7246l2.4648-8.4785l2.4648,8.4785
		c0.3789,1.3145,1.4102,2.3418,2.7227,2.7246l8.4805,2.4629L206.125,199.5176z"/>
</g>
</svg>
