<?xml version="1.0" encoding="utf-8"?>
<!-- Generator: Adobe Illustrator 19.2.0, SVG Export Plug-In . SVG Version: 6.00 Build 0)  -->
<svg version="1.1" id="star" xmlns="http://www.w3.org/2000/svg" xmlns:xlink="http://www.w3.org/1999/xlink" x="0px" y="0px"
	 viewBox="0 0 224 224" enable-background="new 0 0 224 224" xml:space="preserve">
<g>
	<path fill="#D8D8D8" d="M112,8C54.6543,8,8,54.6523,8,112s46.6543,104,104,104s104-46.6523,104-104S169.3457,8,112,8z
		 M134.7754,83.5664l36.4512-36.4492c1.5625-1.5625,4.0938-1.5625,5.6562,0s1.5625,4.0938,0,5.6562l-36.4512,36.4492
		c-0.7812,0.7812-1.8047,1.1719-2.8281,1.1719s-2.0469-0.3906-2.8281-1.1719C133.2129,87.6602,133.2129,85.1289,134.7754,83.5664z
		 M28,112c0,2.2109-1.791,4-4,4s-4-1.7891-4-4c0-50.7305,41.2715-92,92-92c2.209,0,4,1.7891,4,4s-1.791,4-4,4
		C65.6816,28,28,65.6836,28,112z M84.2246,147.8281l-32.3203,32.3203c-0.7812,0.7812-1.8047,1.1719-2.8281,1.1719
		s-2.0469-0.3906-2.8281-1.1719c-1.5625-1.5625-1.5625-4.0938,0-5.6562l32.3203-32.3203c1.5625-1.5625,4.0938-1.5625,5.6562,0
		S85.7871,146.2656,84.2246,147.8281z M76.7773,100.5547l24.3379-3.5391L112,74.9609l10.8848,22.0547l24.3379,3.5391
		l-17.6113,17.168l4.1582,24.2422L112,130.5195l-21.7695,11.4453l4.1582-24.2422L76.7773,100.5547z M114,208c-2.209,0-4-1.7891-4-4
		s1.791-4,4-4c47.4199,0,86-38.5781,86-86c0-2.2109,1.791-4,4-4s4,1.7891,4,4C208,165.832,165.832,208,114,208z"/>
	<polygon fill="#FFFFFF" points="100.8555,127.3398 112,121.4805 123.1445,127.3398 121.0156,114.9336 130.0352,106.1406 
		117.5723,104.3281 112,93.0391 106.4277,104.3281 93.9648,106.1406 102.9844,114.9336 	"/>
	<path fill="#535353" d="M112,0C50.2422,0,0,50.2422,0,112s50.2422,112,112,112s112-50.2422,112-112S173.7578,0,112,0z M112,216
		C54.6543,216,8,169.3477,8,112S54.6543,8,112,8s104,46.6523,104,104S169.3457,216,112,216z"/>
	<path fill="#535353" d="M112,130.5195l21.7695,11.4453l-4.1582-24.2422l17.6113-17.168l-24.3379-3.5391L112,74.9609
		l-10.8848,22.0547l-24.3379,3.5391l17.6113,17.168l-4.1582,24.2422L112,130.5195z M93.9648,106.1406l12.4629-1.8125L112,93.0391
		l5.5723,11.2891l12.4629,1.8125l-9.0195,8.793l2.1289,12.4062L112,121.4805l-11.1445,5.8594l2.1289-12.4062L93.9648,106.1406z"/>
	<path fill="#535353" d="M204,110c-2.209,0-4,1.7891-4,4c0,47.4219-38.5801,86-86,86c-2.209,0-4,1.7891-4,4s1.791,4,4,4
		c51.832,0,94-42.168,94-94C208,111.7891,206.209,110,204,110z"/>
	<path fill="#535353" d="M112,28c2.209,0,4-1.7891,4-4s-1.791-4-4-4c-50.7285,0-92,41.2695-92,92c0,2.2109,1.791,4,4,4s4-1.7891,4-4
		C28,65.6836,65.6816,28,112,28z"/>
	<path fill="#535353" d="M137.6035,90.3945c1.0234,0,2.0469-0.3906,2.8281-1.1719l36.4512-36.4492
		c1.5625-1.5625,1.5625-4.0938,0-5.6562s-4.0938-1.5625-5.6562,0l-36.4512,36.4492c-1.5625,1.5625-1.5625,4.0938,0,5.6562
		C135.5566,90.0039,136.5801,90.3945,137.6035,90.3945z"/>
	<path fill="#535353" d="M78.5684,142.1719L46.248,174.4922c-1.5625,1.5625-1.5625,4.0938,0,5.6562
		c0.7812,0.7812,1.8047,1.1719,2.8281,1.1719s2.0469-0.3906,2.8281-1.1719l32.3203-32.3203c1.5625-1.5625,1.5625-4.0938,0-5.6562
		S80.1309,140.6094,78.5684,142.1719z"/>
</g>
</svg>
