<?xml version="1.0" encoding="utf-8"?>
<!-- Generator: Adobe Illustrator 19.2.0, SVG Export Plug-In . SVG Version: 6.00 Build 0)  -->
<svg version="1.1" id="stars" xmlns="http://www.w3.org/2000/svg" xmlns:xlink="http://www.w3.org/1999/xlink" x="0px" y="0px"
	 viewBox="0 0 196 220" enable-background="new 0 0 196 220" xml:space="preserve">
<g>
	<path fill="#D8D8D8" d="M25.1758,56.2852L24,52.7344l-1.1758,3.5508c-0.3984,1.1992-1.3398,2.1406-2.5391,2.5391L16.7344,60
		l3.5508,1.1758c1.1992,0.3984,2.1406,1.3398,2.5391,2.5391L24,67.2656l1.1758-3.5508c0.3984-1.1992,1.3398-2.1406,2.5391-2.5391
		L31.2656,60l-3.5508-1.1758C26.5156,58.4258,25.5742,57.4844,25.1758,56.2852z"/>
	<path fill="#D8D8D8" d="M85.1758,192.2852L84,188.7344l-1.1758,3.5508c-0.3984,1.1992-1.3398,2.1406-2.5391,2.5391L76.7344,196
		l3.5508,1.1758c1.1992,0.3984,2.1406,1.3398,2.5391,2.5391L84,203.2656l1.1758-3.5508c0.3984-1.1992,1.3398-2.1406,2.5391-2.5391
		L91.2656,196l-3.5508-1.1758C86.5156,194.4258,85.5742,193.4844,85.1758,192.2852z"/>
	<path fill="#D8D8D8" d="M108.6445,110.8164L104,96.7852l-4.6445,14.0312c-0.3984,1.1992-1.3398,2.1406-2.5391,2.5391L82.7852,118
		l14.0312,4.6445c1.1992,0.3984,2.1406,1.3398,2.5391,2.5391L104,139.2148l4.6445-14.0312
		c0.3984-1.1992,1.3398-2.1406,2.5391-2.5391L125.2148,118l-14.0312-4.6445C109.9844,112.957,109.043,112.0156,108.6445,110.8164z"
		/>
	<path fill="#D8D8D8" d="M62.8242,27.7148L64,31.2656l1.1758-3.5508c0.3984-1.1992,1.3398-2.1406,2.5391-2.5391L71.2656,24
		l-3.5508-1.1758c-1.1992-0.3984-2.1406-1.3398-2.5391-2.5391L64,16.7344l-1.1758,3.5508
		c-0.3984,1.1992-1.3398,2.1406-2.5391,2.5391L56.7344,24l3.5508,1.1758C61.4844,25.5742,62.4258,26.5156,62.8242,27.7148z"/>
	<path fill="#D8D8D8" d="M167.168,50.293L164,40.7266l-3.168,9.5664c-0.3984,1.1992-1.3398,2.1406-2.5391,2.5391L148.7266,56
		l9.5664,3.168c1.1992,0.3984,2.1406,1.3398,2.5391,2.5391L164,71.2734l3.168-9.5664c0.3984-1.1992,1.3398-2.1406,2.5391-2.5391
		L179.2734,56l-9.5664-3.168C168.5078,52.4336,167.5664,51.4922,167.168,50.293z"/>
	<path fill="#535353" d="M64,48c1.7266,0,3.2539-1.1055,3.7969-2.7422l4.3398-13.1211l13.1211-4.3398
		C86.8945,27.2539,88,25.7266,88,24s-1.1055-3.2539-2.7422-3.7969l-13.1211-4.3398L67.7969,2.7422C67.2539,1.1055,65.7266,0,64,0
		s-3.2539,1.1055-3.7969,2.7422l-4.3398,13.1211l-13.1211,4.3398C41.1055,20.7461,40,22.2734,40,24s1.1055,3.2539,2.7422,3.7969
		l13.1211,4.3398l4.3398,13.1211C60.7461,46.8945,62.2734,48,64,48z M60.2852,22.8242c1.1992-0.3984,2.1406-1.3398,2.5391-2.5391
		L64,16.7344l1.1758,3.5508c0.3984,1.1992,1.3398,2.1406,2.5391,2.5391L71.2656,24l-3.5508,1.1758
		c-1.1992,0.3984-2.1406,1.3398-2.5391,2.5391L64,31.2656l-1.1758-3.5508c-0.3984-1.1992-1.3398-2.1406-2.5391-2.5391L56.7344,24
		L60.2852,22.8242z"/>
	<path fill="#535353" d="M45.2578,56.2031l-13.1211-4.3398l-4.3398-13.1211C27.2539,37.1055,25.7266,36,24,36
		s-3.2539,1.1055-3.7969,2.7422l-4.3398,13.1211L2.7422,56.2031C1.1055,56.7461,0,58.2734,0,60s1.1055,3.2539,2.7422,3.7969
		l13.1211,4.3398l4.3398,13.1211C20.7461,82.8945,22.2734,84,24,84s3.2539-1.1055,3.7969-2.7422l4.3398-13.1211l13.1211-4.3398
		C46.8945,63.2539,48,61.7266,48,60S46.8945,56.7461,45.2578,56.2031z M27.7148,61.1758c-1.1992,0.3984-2.1406,1.3398-2.5391,2.5391
		L24,67.2656l-1.1758-3.5508c-0.3984-1.1992-1.3398-2.1406-2.5391-2.5391L16.7344,60l3.5508-1.1758
		c1.1992-0.3984,2.1406-1.3398,2.5391-2.5391L24,52.7344l1.1758,3.5508c0.3984,1.1992,1.3398,2.1406,2.5391,2.5391L31.2656,60
		L27.7148,61.1758z"/>
	<path fill="#535353" d="M105.2578,192.2031l-13.1211-4.3398l-4.3398-13.1211C87.2539,173.1055,85.7266,172,84,172
		s-3.2539,1.1055-3.7969,2.7422l-4.3398,13.1211l-13.1211,4.3398C61.1055,192.7461,60,194.2734,60,196s1.1055,3.2539,2.7422,3.7969
		l13.1211,4.3398l4.3398,13.1211C80.7461,218.8945,82.2734,220,84,220s3.2539-1.1055,3.7969-2.7422l4.3398-13.1211l13.1211-4.3398
		C106.8945,199.2539,108,197.7266,108,196S106.8945,192.7461,105.2578,192.2031z M87.7148,197.1758
		c-1.1992,0.3984-2.1406,1.3398-2.5391,2.5391L84,203.2656l-1.1758-3.5508c-0.3984-1.1992-1.3398-2.1406-2.5391-2.5391L76.7344,196
		l3.5508-1.1758c1.1992-0.3984,2.1406-1.3398,2.5391-2.5391L84,188.7344l1.1758,3.5508c0.3984,1.1992,1.3398,2.1406,2.5391,2.5391
		L91.2656,196L87.7148,197.1758z"/>
	<path fill="#535353" d="M193.2578,52.2031l-19.1289-6.332l-6.332-19.1289C167.2539,25.1055,165.7266,24,164,24
		s-3.2539,1.1055-3.7969,2.7422l-6.332,19.1289l-19.1289,6.332C133.1055,52.7461,132,54.2734,132,56s1.1055,3.2539,2.7422,3.7969
		l19.1289,6.332l6.332,19.1289C160.7461,86.8945,162.2734,88,164,88s3.2539-1.1055,3.7969-2.7422l6.332-19.1289l19.1289-6.332
		C194.8945,59.2539,196,57.7266,196,56S194.8945,52.7461,193.2578,52.2031z M169.707,59.168
		c-1.1992,0.3984-2.1406,1.3398-2.5391,2.5391L164,71.2734l-3.168-9.5664c-0.3984-1.1992-1.3398-2.1406-2.5391-2.5391L148.7266,56
		l9.5664-3.168c1.1992-0.3984,2.1406-1.3398,2.5391-2.5391L164,40.7266l3.168,9.5664c0.3984,1.1992,1.3398,2.1406,2.5391,2.5391
		L179.2734,56L169.707,59.168z"/>
	<path fill="#535353" d="M139.1992,114.2031l-23.5938-7.8086l-7.8086-23.5938c-0.543-1.6367-2.0703-2.7422-3.7969-2.7422
		s-3.2539,1.1055-3.7969,2.7422l-7.8086,23.5938l-23.5938,7.8086c-1.6367,0.543-2.7422,2.0703-2.7422,3.7969
		s1.1055,3.2539,2.7422,3.7969l23.5938,7.8086l7.8086,23.5938c0.543,1.6367,2.0703,2.7422,3.7969,2.7422
		s3.2539-1.1055,3.7969-2.7422l7.8086-23.5938l23.5938-7.8086c1.6367-0.543,2.7422-2.0703,2.7422-3.7969
		S140.8359,114.7461,139.1992,114.2031z M111.1836,122.6445c-1.1992,0.3984-2.1406,1.3398-2.5391,2.5391L104,139.2148
		l-4.6445-14.0312c-0.3984-1.1992-1.3398-2.1406-2.5391-2.5391L82.7852,118l14.0312-4.6445
		c1.1992-0.3984,2.1406-1.3398,2.5391-2.5391L104,96.7852l4.6445,14.0312c0.3984,1.1992,1.3398,2.1406,2.5391,2.5391L125.2148,118
		L111.1836,122.6445z"/>
</g>
</svg>
