<?xml version="1.0" encoding="utf-8"?>
<!-- Generator: Adobe Illustrator 19.2.0, SVG Export Plug-In . SVG Version: 6.00 Build 0)  -->
<svg version="1.1" id="structure" xmlns="http://www.w3.org/2000/svg" xmlns:xlink="http://www.w3.org/1999/xlink" x="0px" y="0px"
	 viewBox="0 0 224 232" enable-background="new 0 0 224 232" xml:space="preserve">
<g>
	<path fill="#D8D8D8" d="M112,200c-6.6172,0-12,5.3828-12,12s5.3828,12,12,12s12-5.3828,12-12S118.6172,200,112,200z"/>
	<path fill="#D8D8D8" d="M204,44c-6.6172,0-12,5.3828-12,12s5.3828,12,12,12s12-5.3828,12-12S210.6172,44,204,44z"/>
	<path fill="#D8D8D8" d="M20,44c-6.6172,0-12,5.3828-12,12s5.3828,12,12,12s12-5.3828,12-12S26.6172,44,20,44z"/>
	<path fill="#535353" d="M31.8008,142.9102c-1.9219-1.1055-4.3594-0.4453-5.4648,1.4648L18.4688,158
		c-0.7129,1.2383-0.7129,2.7617,0,4c0.7148,1.2383,2.0352,2,3.4648,2h0.2656c1.8359,0,3.2891-1.2344,3.7305-2.9219l7.3359-12.7031
		C34.3691,146.4609,33.7148,144.0156,31.8008,142.9102z"/>
	<path fill="#535353" d="M58.1992,156h-16c-2.209,0-4,1.7891-4,4s1.791,4,4,4h16c2.209,0,4-1.7891,4-4S60.4082,156,58.1992,156z"/>
	<path fill="#535353" d="M130.1992,164c2.209,0,4-1.7891,4-4s-1.791-4-4-4h-16c-2.209,0-4,1.7891-4,4s1.791,4,4,4H130.1992z"/>
	<path fill="#535353" d="M91.8008,38.9883c0.6289,0.3633,1.3184,0.5352,1.9961,0.5352c1.3828,0,2.7266-0.7148,3.4688-2l8-13.8555
		c1.1035-1.9141,0.4492-4.3594-1.4648-5.4648c-1.916-1.1055-4.3633-0.4531-5.4648,1.4648l-8,13.8555
		C89.2324,35.4375,89.8867,37.8828,91.8008,38.9883z"/>
	<path fill="#535353" d="M116.5352,19.8555c0.7422,1.2852,2.0859,2,3.4688,2c0.6777,0,1.3672-0.1719,1.9961-0.5352
		c1.9141-1.1055,2.5684-3.5508,1.4648-5.4648l-8-13.8555c-0.7148-1.2383-2.0332-2-3.4609-2c-0.002,0-0.002,0-0.002,0
		c-1.4277,0-2.748,0.7617-3.4629,1.9961l-0.1992,0.3438c-0.957,1.6523-0.5254,3.5742,0.8438,4.7812L116.5352,19.8555z"/>
	<path fill="#535353" d="M192.0039,146.5625c0.6777,0,1.3672-0.1719,1.9961-0.5352c1.9141-1.1055,2.5684-3.5508,1.4648-5.4648
		l-8-13.8555c-1.1055-1.918-3.5547-2.5742-5.4648-1.4648c-1.9141,1.1055-2.5684,3.5508-1.4648,5.4648l8,13.8555
		C189.2773,145.8477,190.6211,146.5625,192.0039,146.5625z"/>
	<path fill="#535353" d="M156.0039,84.2109c0.6777,0,1.3672-0.1719,1.9961-0.5352c1.9141-1.1055,2.5684-3.5508,1.4648-5.4648
		l-8-13.8555c-1.1074-1.918-3.5586-2.5742-5.4648-1.4648c-1.9141,1.1055-2.5684,3.5508-1.4648,5.4648l8,13.8555
		C153.2773,83.4961,154.6211,84.2109,156.0039,84.2109z"/>
	<path fill="#535353" d="M57.7969,101.875c1.3828,0,2.7266-0.7148,3.4688-2l8-13.8555c1.1035-1.9141,0.4492-4.3594-1.4648-5.4648
		c-1.9121-1.1055-4.3613-0.4531-5.4648,1.4648l-8,13.8555c-1.1035,1.9141-0.4492,4.3594,1.4648,5.4648
		C56.4297,101.7031,57.1191,101.875,57.7969,101.875z"/>
	<path fill="#535353" d="M205.4805,157.9102c-0.8652-1.5234-2.5645-2.2344-4.1758-1.9102h-15.1055c-2.209,0-4,1.7891-4,4
		s1.791,4,4,4h15.8672c1.4238,0,2.7402-0.7578,3.4551-1.9844c0.7168-1.2305,0.7266-2.75,0.0254-3.9883L205.4805,157.9102z"/>
	<path fill="#535353" d="M204,36c-9.6577,0-17.7371,6.8828-19.5957,16h-43.8379c1.4153-1.2312,1.8706-3.2783,0.8984-4.9648
		l-8-13.8594c-1.1074-1.9102-3.5508-2.5742-5.4648-1.4648c-1.9121,1.1055-2.5684,3.5508-1.4648,5.4648l8,13.8594
		c0.2185,0.3774,0.5005,0.689,0.8091,0.9648h-47.666c-0.231-1.0635-0.8604-2.0337-1.8774-2.6211
		c-1.9141-1.1055-4.3594-0.4531-5.4648,1.4648L79.6682,52H39.5957C37.7371,42.8828,29.6577,36,20,36C8.9727,36,0,44.9727,0,56
		s8.9727,20,20,20c9.6577,0,17.7371-6.8828,19.5957-16h35.4536l-2.7134,4.6992c-1.1035,1.9141-0.4492,4.3594,1.4648,5.4648
		c0.6289,0.3633,1.3184,0.5352,1.9961,0.5352c1.3828,0,2.7266-0.7148,3.4688-2L84.2886,60h100.1157
		c0.8262,4.053,2.9036,7.6387,5.7812,10.3999l-17.7922,30.2034l-2.9285-5.072c-1.1094-1.918-3.5547-2.5742-5.4648-1.4648
		c-1.9141,1.1055-2.5684,3.5508-1.4648,5.4648l5.1924,8.9929L117.96,193.0088C116.0652,192.4116,114.0891,192,112,192
		c-2.4514,0-4.7734,0.5049-6.9458,1.3157L87.7861,164h6.4131c2.209,0,4-1.7891,4-4s-1.791-4-4-4H83.0737L33.334,71.5586
		l-6.8945,4.0625l21.0068,35.6626c-1.2512,0.1145-2.4351,0.7424-3.1104,1.9116l-8,13.8594
		c-1.1035,1.9141-0.4473,4.3594,1.4648,5.4648c0.6309,0.3633,1.3184,0.5352,1.9961,0.5352c1.3828,0,2.7266-0.7188,3.4688-2
		l7.8333-13.5703l23.7942,40.395c-0.4016,0.6235-0.6938,1.3232-0.6938,2.1206c0,2.2109,1.791,4,4,4h0.2993l19.7576,33.5417
		C94.4219,201.188,92,206.3042,92,212c0,11.0273,8.9727,20,20,20s20-8.9727,20-20c0-6.0613-2.7681-11.4353-7.041-15.1062
		l21.366-36.2708c0.3103,1.9016,1.8862,3.377,3.8743,3.377h16c2.209,0,4-1.7891,4-4s-1.791-4-4-4h-16
		c-0.4631,0-0.8921,0.1187-1.3059,0.2634l24.1521-41.0005c0.313,0.0769,0.634,0.1238,0.9585,0.1238
		c0.6777,0,1.3672-0.1719,1.9961-0.5352c1.9141-1.1055,2.5684-3.5508,1.4648-5.4648l-0.4741-0.821l19.9749-33.9089
		C199.1621,75.4883,201.5161,76,204,76c11.0273,0,20-8.9727,20-20S215.0273,36,204,36z M20,68c-6.6172,0-12-5.3828-12-12
		s5.3828-12,12-12s12,5.3828,12,12S26.6172,68,20,68z M112,224c-6.6172,0-12-5.3828-12-12s5.3828-12,12-12s12,5.3828,12,12
		S118.6172,224,112,224z M204,68c-6.6172,0-12-5.3828-12-12s5.3828-12,12-12s12,5.3828,12,12S210.6172,68,204,68z"/>
</g>
</svg>
