<?xml version="1.0" encoding="utf-8"?>
<!-- Generator: Adobe Illustrator 19.2.0, SVG Export Plug-In . SVG Version: 6.00 Build 0)  -->
<svg version="1.1" id="structurechemical" xmlns="http://www.w3.org/2000/svg" xmlns:xlink="http://www.w3.org/1999/xlink" x="0px"
	 y="0px" viewBox="0 0 216 224" enable-background="new 0 0 216 224" xml:space="preserve">
<g>
	<circle fill="#FFFFFF" cx="98" cy="118" r="6"/>
	<path fill="#D8D8D8" d="M128,28c0-11.0273-8.9727-20-20-20s-20,8.9727-20,20s8.9727,20,20,20S128,39.0273,128,28z M100,28
		c0,2.209-1.791,4-4,4s-4-1.791-4-4c0-8.8223,7.1777-16,16-16c2.209,0,4,1.791,4,4s-1.791,4-4,4C103.5879,20,100,23.5879,100,28z"/>
	<path fill="#D8D8D8" d="M108,96c-17.6445,0-32,14.3555-32,32s14.3555,32,32,32s32-14.3555,32-32S125.6445,96,108,96z M98,132
		c-7.7188,0-14-6.2812-14-14s6.2812-14,14-14s14,6.2812,14,14S105.7188,132,98,132z"/>
	<path fill="#D8D8D8" d="M188,176c-5.4873,0-10.4609,2.2266-14.0784,5.8179l-0.1958,0.2153C170.1943,185.6416,168,190.5645,168,196
		c0,11.0273,8.9727,20,20,20s20-8.9727,20-20S199.0273,176,188,176z M188,188c-4.4121,0-8,3.5879-8,8c0,2.209-1.791,4-4,4
		s-4-1.791-4-4c0-8.8223,7.1777-16,16-16c2.209,0,4,1.791,4,4S190.209,188,188,188z"/>
	<path fill="#D8D8D8" d="M28,176c-11.0273,0-20,8.9727-20,20s8.9727,20,20,20s20-8.9727,20-20S39.0273,176,28,176z M28,188
		c-4.4121,0-8,3.5879-8,8c0,2.209-1.791,4-4,4s-4-1.791-4-4c0-8.8223,7.1777-16,16-16c2.209,0,4,1.791,4,4S30.209,188,28,188z"/>
	<path fill="#535353" d="M98,104c-7.7188,0-14,6.2812-14,14s6.2812,14,14,14s14-6.2812,14-14S105.7188,104,98,104z M98,124
		c-3.3086,0-6-2.6914-6-6s2.6914-6,6-6s6,2.6914,6,6S101.3086,124,98,124z"/>
	<path fill="#535353" d="M188,168c-6.6646,0-12.7859,2.3486-17.5989,6.251l-28.1841-25.6406C145.8621,142.5815,148,135.5444,148,128
		c0-20.7065-15.8147-37.7837-36-39.7974v-32.522C125.5464,53.7295,136,42.0781,136,28c0-15.4395-12.5605-28-28-28S80,12.5605,80,28
		c0,14.0781,10.4536,25.7295,24,27.6807v32.522C83.8147,90.2163,68,107.2935,68,128c0,7.542,2.1365,14.5781,5.7798,20.6055
		l-27.9463,25.8262C40.9866,170.417,34.7708,168,28,168c-15.4395,0-28,12.5605-28,28s12.5605,28,28,28s28-12.5605,28-28
		c0-5.79-1.7666-11.1753-4.7891-15.645l27.396-25.3179C85.9221,162.9834,96.373,168,108,168
		c11.6272,0,22.0784-5.0166,29.3936-12.9634l27.5713,25.0835C161.8413,184.6367,160,190.1045,160,196c0,15.4395,12.5605,28,28,28
		s28-12.5605,28-28S203.4395,168,188,168z M28,216c-11.0273,0-20-8.9727-20-20s8.9727-20,20-20s20,8.9727,20,20S39.0273,216,28,216z
		 M88,28c0-11.0273,8.9727-20,20-20s20,8.9727,20,20s-8.9727,20-20,20S88,39.0273,88,28z M108,160c-17.6445,0-32-14.3555-32-32
		s14.3555-32,32-32s32,14.3555,32,32S125.6445,160,108,160z M188,216c-11.0273,0-20-8.9727-20-20
		c0-5.4355,2.1943-10.3584,5.7258-13.9668l0.1958-0.2153C177.5391,178.2266,182.5127,176,188,176c11.0273,0,20,8.9727,20,20
		S199.0273,216,188,216z"/>
	<path fill="#535353" d="M188,180c-8.8223,0-16,7.1777-16,16c0,2.209,1.791,4,4,4s4-1.791,4-4c0-4.4121,3.5879-8,8-8
		c2.209,0,4-1.791,4-4S190.209,180,188,180z"/>
	<path fill="#535353" d="M28,180c-8.8223,0-16,7.1777-16,16c0,2.209,1.791,4,4,4s4-1.791,4-4c0-4.4121,3.5879-8,8-8
		c2.209,0,4-1.791,4-4S30.209,180,28,180z"/>
	<path fill="#535353" d="M112,16c0-2.209-1.791-4-4-4c-8.8223,0-16,7.1777-16,16c0,2.209,1.791,4,4,4s4-1.791,4-4
		c0-4.4121,3.5879-8,8-8C110.209,20,112,18.209,112,16z"/>
</g>
</svg>
