<?xml version="1.0" encoding="utf-8"?>
<!-- Generator: Adobe Illustrator 19.2.0, SVG Export Plug-In . SVG Version: 6.00 Build 0)  -->
<svg version="1.1" id="sun" xmlns="http://www.w3.org/2000/svg" xmlns:xlink="http://www.w3.org/1999/xlink" x="0px" y="0px"
	 viewBox="0 0 180.4922 214" enable-background="new 0 0 180.4922 214" xml:space="preserve">
<g>
	<path fill="#FFFFFF" d="M110,74c-6.6172,0-12,5.3828-12,12s5.3828,12,12,12s12-5.3828,12-12S116.6172,74,110,74z"/>
	<circle fill="#FFFFFF" cx="72" cy="136" r="6"/>
	<path fill="#FFFFFF" d="M54,90c-4.4102,0-8,3.5898-8,8s3.5898,8,8,8s8-3.5898,8-8S58.4102,90,54,90z"/>
	<path fill="#D8D8D8" d="M90,38c-35.2891,0-64,28.7109-64,64s28.7109,64,64,64s64-28.7109,64-64S125.2891,38,90,38z M38,98
		c0-8.8242,7.1758-16,16-16s16,7.1758,16,16s-7.1758,16-16,16S38,106.8242,38,98z M72,150c-7.7188,0-14-6.2812-14-14
		s6.2812-14,14-14s14,6.2812,14,14S79.7188,150,72,150z M110,106c-11.0273,0-20-8.9727-20-20s8.9727-20,20-20s20,8.9727,20,20
		S121.0273,106,110,106z"/>
	<path fill="#535353" d="M110,66c-11.0273,0-20,8.9727-20,20s8.9727,20,20,20s20-8.9727,20-20S121.0273,66,110,66z M110,98
		c-6.6172,0-12-5.3828-12-12s5.3828-12,12-12s12,5.3828,12,12S116.6172,98,110,98z"/>
	<path fill="#535353" d="M72,122c-7.7188,0-14,6.2812-14,14s6.2812,14,14,14s14-6.2812,14-14S79.7188,122,72,122z M72,142
		c-3.3086,0-6-2.6914-6-6s2.6914-6,6-6s6,2.6914,6,6S75.3086,142,72,142z"/>
	<path fill="#535353" d="M70,98c0-8.8242-7.1758-16-16-16s-16,7.1758-16,16s7.1758,16,16,16S70,106.8242,70,98z M54,106
		c-4.4102,0-8-3.5898-8-8s3.5898-8,8-8s8,3.5898,8,8S58.4102,106,54,106z"/>
	<path fill="#535353" d="M176.4922,94h-14.9641c-1.9556-17.5879-10.2966-33.2366-22.6155-44.6821l29.2007-29.2046
		c1.5625-1.5625,1.5625-4.0938,0-5.6562s-4.0938-1.5625-5.6562,0l-29.7263,29.73C121.771,36.0645,108.4612,31.0032,94,30.2026V4
		c0-2.2109-1.7891-4-4-4s-4,1.7891-4,4v26.2026c-15.8806,0.8792-30.4221,6.8447-41.9319,16.4055
		c-0.1345-0.1936-0.2158-0.4121-0.3884-0.5847L32.0156,34.3594c-1.5625-1.5625-4.0938-1.5625-5.6562,0s-1.5625,4.0938,0,5.6562
		l11.6641,11.6641c0.1057,0.1057,0.2439,0.1465,0.3579,0.2378C27.5435,63.0845,20.2817,77.7219,18.4719,94H4c-2.2109,0-4,1.7891-4,4
		s1.7891,4,4,4h14c0,18.4126,7.0073,35.1792,18.4194,47.9243L17.875,168.4688c-1.5625,1.5625-1.5625,4.0938,0,5.6562
		c0.7812,0.7812,1.8047,1.1719,2.8281,1.1719s2.0468-0.3906,2.8281-1.1719l18.5444-18.5444
		C53.8862,166.1558,69.166,172.8655,86,173.7974V210c0,2.2109,1.7891,4,4,4s4-1.7891,4-4v-36.2026
		c17.9016-0.9912,34.0764-8.4905,46.1553-20.2449c0.1614,0.2629,0.2849,0.5439,0.5127,0.7717l11.6641,11.6641
		c0.7812,0.7812,1.8047,1.1719,2.8281,1.1719s2.0469-0.3906,2.8281-1.1719c1.5625-1.5625,1.5625-4.0938,0-5.6562l-11.6641-11.6641
		c-0.2947-0.2947-0.6477-0.4797-0.9985-0.6633C155.7261,135.5186,162,119.4814,162,102h14.4922c2.2109,0,4-1.7891,4-4
		S178.7031,94,176.4922,94z M90,166c-35.2891,0-64-28.7109-64-64s28.7109-64,64-64s64,28.7109,64,64S125.2891,166,90,166z"/>
</g>
</svg>
