<?xml version="1.0" encoding="utf-8"?>
<!-- Generator: Adobe Illustrator 19.2.0, SVG Export Plug-In . SVG Version: 6.00 Build 0)  -->
<svg version="1.1" id="telescope" xmlns="http://www.w3.org/2000/svg" xmlns:xlink="http://www.w3.org/1999/xlink" x="0px" y="0px"
	 viewBox="0 0 236.5866 201.1774" enable-background="new 0 0 236.5866 201.1774" xml:space="preserve">
<g>
	<polygon fill="#D8D8D8" points="63.1803,22.6363 63.1813,22.6339 64.0124,18.7242 17.0631,8.7457 8.7467,47.8727 55.696,57.8512 
		57.6095,48.8478 	"/>
	<polygon fill="#D8D8D8" points="136.442,62.7438 139.7702,47.0934 139.7704,47.0924 140.6022,43.1813 70.1776,28.2125 
		65.1872,51.6901 135.61,66.6578 136.442,62.7452 	"/>
	<path fill="#D8D8D8" d="M118.5006,111.1774c6.6172,0,12-5.3828,12-12s-5.3828-12-12-12s-12,5.3828-12,12
		S111.8835,111.1774,118.5006,111.1774z"/>
	<polygon fill="#D8D8D8" points="146.7663,52.6695 145.1022,60.4957 223.3522,77.1285 224.1842,73.2154 225.016,69.3024 	"/>
	<path fill="#535353" d="M228.7585,51.6969l-2.0793,9.7817l-78.252-16.6343l0.8313-3.9111c0.457-2.1621-0.9219-4.2852-3.082-4.7441
		L71.841,20.3883l0.8315-3.9121c0.2188-1.0371,0.0195-2.1211-0.5586-3.0098c-0.5781-0.8906-1.4844-1.5137-2.5234-1.7344
		L14.8131,0.0895c-2.1562-0.4629-4.2851,0.916-4.7461,3.0801L0.0866,50.1207c-0.2188,1.0371-0.0195,2.1211,0.5586,3.0098
		c0.5781,0.8906,1.4844,1.5137,2.5234,1.7344L57.946,66.5074c0.2812,0.0605,0.5586,0.0879,0.8359,0.0879
		c1.8477,0,3.5078-1.2871,3.9102-3.168l0.832-3.9141L137.86,75.3141c0.2773,0.0586,0.5547,0.0879,0.832,0.0879
		c0.7656,0,1.5234-0.2207,2.1797-0.6445c0.8867-0.5781,1.5117-1.4863,1.7344-2.5234l0.8318-3.9141l78.2512,16.6328L219.61,94.734
		l7.8281,1.6641l9.1485-43.0371L228.7585,51.6969z M8.7467,47.8727l8.3164-39.127l46.9492,9.9785l-0.8311,3.9097l-0.001,0.0024
		l-5.5708,26.2114l-1.9136,9.0034L8.7467,47.8727z M65.1872,51.6901l4.9905-23.4775l70.4246,14.9687l-0.8318,3.9111l-0.0002,0.001
		l-3.3281,15.6504v0.0015l-0.832,3.9126L65.1872,51.6901z M223.3522,77.1285l-78.25-16.6328l1.6641-7.8262l78.2498,16.6328
		l-0.8318,3.9131L223.3522,77.1285z"/>
	<path fill="#535353" d="M132.9118,112.9781c3.4431-3.5942,5.5889-8.4424,5.5889-13.8008c0-11.0273-8.9727-20-20-20
		s-20,8.9727-20,20c0,5.3584,2.1458,10.2065,5.5889,13.8008l-42.0107,80.1992H45.36v8h21.5625l43.7805-83.5855
		c1.21,0.5142,2.4802,0.9126,3.7976,1.1812v80.4043h8v-80.4043c1.3174-0.2686,2.5876-0.667,3.7976-1.1812l43.7805,83.5855h21.5625
		v-8h-16.7188L132.9118,112.9781z M118.5006,87.1774c6.6172,0,12,5.3828,12,12s-5.3828,12-12,12s-12-5.3828-12-12
		S111.8835,87.1774,118.5006,87.1774z"/>
</g>
</svg>
