<?xml version="1.0" encoding="utf-8"?>
<!-- Generator: Adobe Illustrator 19.2.0, SVG Export Plug-In . SVG Version: 6.00 Build 0)  -->
<svg version="1.1" id="testflask" xmlns="http://www.w3.org/2000/svg" xmlns:xlink="http://www.w3.org/1999/xlink" x="0px" y="0px"
	 viewBox="0 0 151.2033 199.207" enable-background="new 0 0 151.2033 199.207" xml:space="preserve">
<g>
	
		<rect x="63.9893" y="54.2217" transform="matrix(0.5 -0.866 0.866 0.5 -22.2843 109.8425)" fill="#FFFFFF" width="39.9963" height="39.998"/>
	<path fill="#D8D8D8" d="M52.6676,88.469l-41.9858,72.7224c-5.5215,9.5625-2.2441,21.8281,7.3066,27.3438
		c9.5469,5.5195,21.8125,2.2188,27.332-7.3438l41.9863-72.7231L52.6676,88.469z"/>
	<path fill="#FFFFFF" d="M43.2033,36c4.4121,0,8-3.5898,8-8s-3.5879-8-8-8s-8,3.5898-8,8S38.7912,36,43.2033,36z"/>
	<path fill="#FFFFFF" d="M113.2033,80c-0.0701,0-0.1282-0.0361-0.1973-0.0398l-12.1335,21.0144
		c0.1667,0.1785,0.3689,0.3118,0.5046,0.5254c2.5879,4.0703,7.0098,6.5,11.8262,6.5c7.7188,0,14-6.2812,14-14
		S120.922,80,113.2033,80z"/>
	<circle fill="#FFFFFF" cx="139.2033" cy="12" r="4"/>
	<circle fill="#FFFFFF" cx="131.2033" cy="44" r="4"/>
	<path fill="#535353" d="M43.2033,44c8.8223,0,16-7.1758,16-16s-7.1777-16-16-16s-16,7.1758-16,16S34.381,44,43.2033,44z
		 M43.2033,20c4.4121,0,8,3.5898,8,8s-3.5879,8-8,8s-8-3.5898-8-8S38.7912,20,43.2033,20z"/>
	<path fill="#535353" d="M131.2033,32c-6.6172,0-12,5.3828-12,12s5.3828,12,12,12c6.6172,0,12-5.3828,12-12S137.8204,32,131.2033,32
		z M131.2033,48c-2.2051,0-4-1.793-4-4s1.7949-4,4-4s4,1.793,4,4S133.4083,48,131.2033,48z"/>
	<path fill="#535353" d="M139.2033,0c-6.6172,0-12,5.3828-12,12s5.3828,12,12,12s12-5.3828,12-12S145.8204,0,139.2033,0z
		 M139.2033,16c-2.2051,0-4-1.793-4-4s1.7949-4,4-4s4,1.793,4,4S141.4083,16,139.2033,16z"/>
	<path fill="#535353" d="M117.3671,72.4072l2.8694-4.9697c0.5293-0.918,0.6738-2.0117,0.3984-3.0352
		c-0.2734-1.0234-0.9453-1.8984-1.8633-2.4297l-41.5684-24c-1.9199-1.1055-4.3613-0.4531-5.4648,1.4648l-24,41.5664L3.7521,157.1914
		c-7.7266,13.3828-3.1348,30.5508,10.2363,38.2734c4.3945,2.5352,9.1973,3.7422,13.9414,3.7422
		c9.6914,0,19.1328-5.0312,24.3203-14.0156l43.9863-76.1875l0.3533-0.6118c4.1472,4.8027,10.145,7.6079,16.6135,7.6079
		c12.1309,0,22-9.8711,22-22C135.2033,83.2954,127.5119,74.3606,117.3671,72.4072z M76.6681,46.9023l34.6387,20l-20,34.6367
		l-34.6387-20L76.6681,46.9023z M45.3205,181.1914c-5.5195,9.5625-17.7852,12.8633-27.332,7.3438
		c-9.5508-5.5156-12.8281-17.7812-7.3066-27.3438L52.6676,88.469l34.6392,19.9993L45.3205,181.1914z M113.2033,108
		c-4.8164,0-9.2383-2.4297-11.8262-6.5c-0.1357-0.2136-0.3379-0.3469-0.5046-0.5254l12.1335-21.0144
		C113.0751,79.9639,113.1332,80,113.2033,80c7.7188,0,14,6.2812,14,14S120.922,108,113.2033,108z"/>
</g>
</svg>
