<?xml version="1.0" encoding="utf-8"?>
<!-- Generator: Adobe Illustrator 19.2.0, SVG Export Plug-In . SVG Version: 6.00 Build 0)  -->
<svg version="1.1" id="testtubes" xmlns="http://www.w3.org/2000/svg" xmlns:xlink="http://www.w3.org/1999/xlink" x="0px" y="0px"
	 viewBox="0 0 232 168" enable-background="new 0 0 232 168" xml:space="preserve">
<g>
	<rect x="28" y="8" fill="#FFFFFF" width="36" height="20"/>
	<path fill="#D8D8D8" d="M64,36H28v105.9805C28,151.916,36.0742,160,46,160s18-8.084,18-18.0195V72v-8V36z"/>
	<rect x="100" y="8" fill="#FFFFFF" width="36" height="20"/>
	<path fill="#D8D8D8" d="M208,36h-36v28v8v69.9805C172,151.916,180.0742,160,190,160s18-8.084,18-18.0195V72v-8V36z"/>
	<path fill="#D8D8D8" d="M136,36h-36v28v8v69.9805C100,151.916,108.0742,160,118,160s18-8.084,18-18.0195V72v-8V36z"/>
	<rect x="172" y="8" fill="#FFFFFF" width="36" height="20"/>
	<path fill="#535353" d="M232,64h-16V32V8h8V0h-12h-44h-12v8h8v24v32h-20V32V8h8V0h-12H96H84v8h8v24v32H72V32V8h8V0H68H24H12v8h8v24
		v32H0v8h20v69.9805C20,156.3281,31.6641,168,46,168s26-11.6719,26-26.0195V72h20v69.9805C92,156.3281,103.6641,168,118,168
		s26-11.6719,26-26.0195V72h20v69.9805C164,156.3281,175.6641,168,190,168s26-11.6719,26-26.0195V72h16V64z M64,8v20H28V8H64z
		 M64,141.9805C64,151.916,55.9258,160,46,160s-18-8.084-18-18.0195V36h36v28v8V141.9805z M136,8v20h-36V8H136z M136,141.9805
		C136,151.916,127.9258,160,118,160s-18-8.084-18-18.0195V72v-8V36h36v28v8V141.9805z M208,8v20h-36V8H208z M208,141.9805
		C208,151.916,199.9258,160,190,160s-18-8.084-18-18.0195V72v-8V36h36v28v8V141.9805z"/>
</g>
</svg>
