<?xml version="1.0" encoding="utf-8"?>
<!-- Generator: Adobe Illustrator 19.2.0, SVG Export Plug-In . SVG Version: 6.00 Build 0)  -->
<svg version="1.1" id="testtube" xmlns="http://www.w3.org/2000/svg" xmlns:xlink="http://www.w3.org/1999/xlink" x="0px" y="0px"
	 viewBox="0 0 195.085 228.4997" enable-background="new 0 0 195.085 228.4997" xml:space="preserve">
<g>
	<circle fill="#D8D8D8" cx="12" cy="105.4157" r="4"/>
	<circle fill="#FFFFFF" cx="112" cy="153.4157" r="4"/>
	<circle fill="#D8D8D8" cx="12" cy="145.4157" r="4"/>
	<circle fill="#FFFFFF" cx="136" cy="137.4157" r="4"/>
	<circle fill="#FFFFFF" cx="128" cy="201.4157" r="4"/>
	<circle fill="#FFFFFF" cx="166" cy="159.4157" r="6"/>
	<path fill="#D8D8D8" d="M171.8828,131.7575c-17.1582-17.1601-44.4141-20.1191-64.8105-7.0332
		c-1.5859,1.0176-3.6621,0.7891-4.9883-0.5391L57.5547,79.656l-17.8083,4.8203l9.0994,9.0996
		c0.0132,0.0132,0.0168,0.0317,0.03,0.0449l41.8918,41.8809c1.3301,1.3281,1.5547,3.4043,0.5391,4.9883
		c-13.084,20.3926-10.123,47.6484,7.0371,64.8086c20.2734,20.2734,53.2656,20.2734,73.5391,0
		C192.1562,185.0231,192.1562,152.0329,171.8828,131.7575z M100,153.4157c0-6.6172,5.3828-12,12-12s12,5.3828,12,12
		s-5.3828,12-12,12S100,160.0329,100,153.4157z M128,213.4157c-6.6172,0-12-5.3828-12-12s5.3828-12,12-12s12,5.3828,12,12
		S134.6172,213.4157,128,213.4157z M136,149.4157c-6.6172,0-12-5.3828-12-12s5.3828-12,12-12s12,5.3828,12,12
		S142.6172,149.4157,136,149.4157z M166,173.4157c-7.7188,0-14-6.2812-14-14s6.2812-14,14-14s14,6.2812,14,14
		S173.7188,173.4157,166,173.4157z"/>
	<path fill="#535353" d="M177.5391,126.1013c-19.0312-19.0312-48.8242-22.918-72.0117-9.7852L65.8169,76.6037l-0.0005-0.0005
		l-1.3811-1.3809l-2.8611-2.8613l-0.0012-0.001L44.6016,55.3903c-1.5625-1.5625-4.0938-1.5625-5.6562,0s-1.5625,4.0938,0,5.6562
		l12.0874,12.0859l-17.8098,4.8203l-5.5901-5.5898c-1.5625-1.5625-4.0938-1.5625-5.6562,0s-1.5625,4.0938,0,5.6562l7.1487,7.1484
		c0.0247,0.0264,0.0388,0.0586,0.0642,0.084l53.709,53.6934c-13.1348,23.1836-9.2422,52.9785,9.7891,72.0098
		c11.6973,11.6973,27.0606,17.5449,42.4258,17.5449s30.7285-5.8477,42.4258-17.5449
		C200.9336,187.5603,200.9336,149.4939,177.5391,126.1013z M171.8828,205.2985c-20.2734,20.2734-53.2656,20.2734-73.5391,0
		c-17.1602-17.1602-20.1211-44.416-7.0371-64.8086c1.0156-1.584,0.791-3.6602-0.5391-4.9883L48.8757,93.6208
		c-0.0132-0.0132-0.0168-0.0317-0.03-0.0449l-9.0994-9.0996l17.8083-4.8203l44.5293,44.5293
		c1.3262,1.3281,3.4023,1.5566,4.9883,0.5391c20.3965-13.0859,47.6523-10.127,64.8105,7.0332
		C192.1562,152.0329,192.1562,185.0231,171.8828,205.2985z"/>
	<path fill="#535353" d="M166,145.4157c-7.7188,0-14,6.2812-14,14s6.2812,14,14,14s14-6.2812,14-14S173.7188,145.4157,166,145.4157z
		 M166,165.4157c-3.3086,0-6-2.6914-6-6s2.6914-6,6-6s6,2.6914,6,6S169.3086,165.4157,166,165.4157z"/>
	<path fill="#535353" d="M128,189.4157c-6.6172,0-12,5.3828-12,12s5.3828,12,12,12s12-5.3828,12-12S134.6172,189.4157,128,189.4157z
		 M128,205.4157c-2.2051,0-4-1.7949-4-4s1.7949-4,4-4s4,1.7949,4,4S130.2051,205.4157,128,205.4157z"/>
	<path fill="#535353" d="M124,153.4157c0-6.6172-5.3828-12-12-12s-12,5.3828-12,12s5.3828,12,12,12S124,160.0329,124,153.4157z
		 M112,157.4157c-2.2051,0-4-1.7949-4-4s1.7949-4,4-4s4,1.7949,4,4S114.2051,157.4157,112,157.4157z"/>
	<path fill="#535353" d="M136,125.4157c-6.6172,0-12,5.3828-12,12s5.3828,12,12,12s12-5.3828,12-12S142.6172,125.4157,136,125.4157z
		 M136,141.4157c-2.2051,0-4-1.7949-4-4s1.7949-4,4-4s4,1.7949,4,4S138.2051,141.4157,136,141.4157z"/>
	<path fill="#535353" d="M12,93.4157c-6.6172,0-12,5.3828-12,12s5.3828,12,12,12s12-5.3828,12-12S18.6172,93.4157,12,93.4157z
		 M12,109.4157c-2.2051,0-4-1.7949-4-4s1.7949-4,4-4s4,1.7949,4,4S14.2051,109.4157,12,109.4157z"/>
	<path fill="#535353" d="M12,133.4157c-6.6172,0-12,5.3828-12,12s5.3828,12,12,12s12-5.3828,12-12S18.6172,133.4157,12,133.4157z
		 M12,149.4157c-2.2051,0-4-1.7949-4-4s1.7949-4,4-4s4,1.7949,4,4S14.2051,149.4157,12,149.4157z"/>
	<path fill="#535353" d="M22.4727,52.2243c0.7676,1.1719,2.0449,1.8086,3.3496,1.8086c0.752,0,1.5117-0.2109,2.1875-0.6543
		c1.8477-1.209,2.3652-3.6895,1.1543-5.5371c-7.4746-11.416-4.8906-14.5137-1.3125-18.8008
		c5.125-6.1406,8.9453-12.8438-0.4863-27.2324c-1.2109-1.8477-3.6934-2.3652-5.5391-1.1523
		c-1.8477,1.2109-2.3633,3.6914-1.1523,5.5391c6.9629,10.6191,4.6055,13.4434,1.0352,17.7207
		C16.4609,30.2048,12.5703,37.1013,22.4727,52.2243z"/>
</g>
</svg>
