<?xml version="1.0" encoding="utf-8"?>
<!-- Generator: Adobe Illustrator 19.2.0, SVG Export Plug-In . SVG Version: 6.00 Build 0)  -->
<svg version="1.1" id="tubeflask" xmlns="http://www.w3.org/2000/svg" xmlns:xlink="http://www.w3.org/1999/xlink" x="0px" y="0px"
	 viewBox="0 0 148.0011 232" enable-background="new 0 0 148.0011 232" xml:space="preserve">
<g>
	<circle fill="#D8D8D8" cx="62" cy="42" r="6"/>
	<path fill="#D8D8D8" d="M20,8C13.3828,8,8,13.3828,8,20s5.3828,12,12,12s12-5.3828,12-12S26.6172,8,20,8z"/>
	<path fill="#D8D8D8" d="M92,184v-8h24v-16h-12v-8h12v-16H92v-8h24v-12H60v79.9961C60,211.4375,72.5625,224,88,224
		s28-12.5625,28-28.0039V184H92z"/>
	<path fill="#FFFFFF" d="M42.4727,80H56c2.2109,0,4,1.791,4,4v24h56V84c0-2.209,1.7891-4,4-4h13.5273l4-8H38.4727L42.4727,80z"/>
	<path fill="#535353" d="M147.4023,65.8965C146.6719,64.7188,145.3867,64,144,64H32c-1.3867,0-2.6719,0.7188-3.4023,1.8965
		c-0.7305,1.1797-0.7969,2.6523-0.1758,3.8926l8,16C37.1016,87.1445,38.4844,88,40,88h12v24v83.9961C52,215.8496,68.1484,232,88,232
		s36-16.1504,36-36.0039V112V88h12c1.5156,0,2.8984-0.8555,3.5781-2.2109l8-16C148.1992,68.5488,148.1328,67.0762,147.4023,65.8965z
		 M88,224c-15.4375,0-28-12.5625-28-28.0039V116h56v12H92v8h24v16h-12v8h12v16H92v8h24v11.9961C116,211.4375,103.4375,224,88,224z
		 M133.5273,80H120c-2.2109,0-4,1.791-4,4v24H60V84c0-2.209-1.7891-4-4-4H42.4727l-4-8h99.0547L133.5273,80z"/>
	<path fill="#535353" d="M40,20C40,8.9727,31.0273,0,20,0S0,8.9727,0,20s8.9727,20,20,20S40,31.0273,40,20z M20,32
		c-6.6172,0-12-5.3828-12-12S13.3828,8,20,8s12,5.3828,12,12S26.6172,32,20,32z"/>
	<path fill="#535353" d="M62,56c7.7188,0,14-6.2812,14-14s-6.2812-14-14-14s-14,6.2812-14,14S54.2812,56,62,56z M62,36
		c3.3086,0,6,2.6914,6,6s-2.6914,6-6,6s-6-2.6914-6-6S58.6914,36,62,36z"/>
</g>
</svg>
