<?xml version="1.0" encoding="utf-8"?>
<!-- Generator: Adobe Illustrator 19.2.0, SVG Export Plug-In . SVG Version: 6.00 Build 0)  -->
<svg version="1.1" id="adjustmentlines" xmlns="http://www.w3.org/2000/svg" xmlns:xlink="http://www.w3.org/1999/xlink" x="0px"
	 y="0px" viewBox="0 0 204.1445 176" enable-background="new 0 0 204.1445 176" xml:space="preserve">
<g>
	<path fill="none" d="M121.1944,37.3736L48.072,79.5888c-1.0028,6.0392-0.9408,12.2564,0.136,18.3952l88.9165-51.3348
		C132.3376,42.6364,126.9384,39.5276,121.1944,37.3736z"/>
	<path fill="none" d="M101.8828,33.84c-9.2656,0-18.6524,2.3552-27.2383,7.3124c-11.1613,6.4444-19.1605,16.2704-23.5181,27.434
		l59.0476-34.09C107.436,34.078,104.6672,33.84,101.8828,33.84z"/>
	<path fill="none" d="M156.5172,90.8768c0.2616-5.7688-0.4036-11.6024-2.0212-17.3044L62.7928,126.516
		c4.13,4.2524,8.8508,7.7464,13.9792,10.404L156.5172,90.8768z"/>
	<path fill="none" d="M151.7472,65.92c-0.7304-1.6084-1.534-3.1988-2.4347-4.76c-1.824-3.1592-3.9265-6.0576-6.2449-8.7028
		l-92.8428,53.6012c1.1317,3.3308,2.5877,6.6024,4.4117,9.762c0.9011,1.5608,1.8767,3.052,2.9043,4.4888L151.7472,65.92z"/>
	<path fill="none" d="M86.1732,140.7308c13.9576,4.2172,29.5404,2.9436,43.1313-4.9028
		c13.5947-7.8472,22.4887-20.706,25.8139-34.904L86.1732,140.7308z"/>
	<path d="M102.082,151.1368c10.6208,0,21.3828-2.6992,31.2225-8.3788c29.9179-17.2736,40.2111-55.672,22.9375-85.598
		c-7.9332-13.7404-20.3415-23.2808-34.3192-27.9728l-0.6376-1.1052l-1.0044,0.58c-16.0472-4.9044-33.9888-3.472-49.6363,5.5608
		c-15.6437,9.0328-25.8565,23.854-29.6341,40.204l-1.0068,0.5812l0.6392,1.1072c-2.9248,14.4496-0.8684,29.964,7.064,43.7052
		C59.3008,139.9024,80.406,151.1368,102.082,151.1368z M62.7928,126.516l91.7032-52.9436
		c1.6176,5.702,2.2828,11.5356,2.0212,17.3044L76.772,136.92C71.6436,134.2624,66.9228,130.7684,62.7928,126.516z M129.3045,135.828
		c-13.5909,7.8464-29.1737,9.12-43.1313,4.9028l68.9452-39.8068C151.7932,115.122,142.8992,127.9808,129.3045,135.828z
		 M48.072,79.5888l73.1224-42.2152c5.744,2.154,11.1432,5.2628,15.9301,9.2756L48.208,97.984
		C47.1312,91.8452,47.0692,85.628,48.072,79.5888z M74.6445,41.1524c8.5859-4.9572,17.9727-7.3124,27.2383-7.3124
		c2.7844,0,5.5532,0.238,8.2912,0.6564l-59.0476,34.09C55.484,57.4228,63.4832,47.5968,74.6445,41.1524z M50.2248,106.0584
		l92.8428-53.6012c2.3184,2.6452,4.4209,5.5436,6.2449,8.7028c0.9007,1.5612,1.7043,3.1516,2.4347,4.76l-94.2064,54.3892
		c-1.0276-1.4368-2.0032-2.928-2.9043-4.4888C52.8125,112.6608,51.3565,109.3892,50.2248,106.0584z"/>
	<rect x="0.1445" width="204" height="8"/>
	<rect x="148" y="28" width="56.1445" height="8"/>
	<rect x="148" y="140" width="56.1445" height="8"/>
	<rect y="28" width="56.1445" height="8"/>
	<rect x="168.1445" y="56" width="36" height="8"/>
	<rect x="168.1445" y="112" width="36" height="8"/>
	<rect x="0.1445" y="56" width="36" height="8"/>
	<rect x="172.1445" y="84" width="32" height="8"/>
	<rect x="0.1445" y="168" width="204" height="8"/>
	<rect x="0.1445" y="140" width="56.1407" height="8"/>
	<rect x="0.1445" y="112" width="36" height="8"/>
	<rect x="0.1445" y="84" width="32" height="8"/>
</g>
</svg>
