<?xml version="1.0" encoding="utf-8"?>
<!-- Generator: Adobe Illustrator 19.2.0, SVG Export Plug-In . SVG Version: 6.00 Build 0)  -->
<svg version="1.1" id="alienship3" xmlns="http://www.w3.org/2000/svg" xmlns:xlink="http://www.w3.org/1999/xlink" x="0px" y="0px"
	 viewBox="0 0 232 182.1076" enable-background="new 0 0 232 182.1076" xml:space="preserve">
<g>
	<path fill="none" d="M132,64c0,7.9032-5.774,14.4428-13.3164,15.7284V84h13.3556C140.84,84,148,76.8204,148,67.996V48h-32
		C124.8224,48,132,55.1776,132,64z"/>
	<path fill="none" d="M84,67.996C84,76.8204,91.16,84,99.9608,84h10.7228v-4.9776C104.4808,76.8184,100,70.9492,100,64
		c0-8.8224,7.1776-16,16-16H84V67.996z"/>
	<circle fill="none" cx="116" cy="64" r="8"/>
	<path fill="none" d="M175.8828,71.2752v14.8324c0,2.2088-1.7912,4-4,4s-4-1.7912-4-4V62.5724c0-0.206,0.0872-0.3828,0.1172-0.5804
		V44.0252C168,24.16,151.8672,8,132.0392,8H99.9608C80.1328,8,64,24.16,64,44.0252v22.1292c0,0.2392-0.0764,0.4568-0.1172,0.6864
		v19.2668c0,2.2088-1.7912,4-4,4c-2.2088,0-4-1.7912-4-4V71.3348C26.6288,79.202,8,92.5568,8,106c0,20.2832,43.3964,42,108,42
		s108-21.7168,108-42C224,92.5208,205.27,79.1336,175.8828,71.2752z M156,67.996C156,81.2324,145.252,92,132.0392,92H99.9608
		C86.748,92,76,81.2324,76,67.996V44c0-2.2088,1.7912-4,4-4h72c2.2088,0,4,1.7912,4,4V67.996z"/>
	<path d="M232,106c0-18.078-20.8632-34.0312-56-42.9804V44.0252C176,19.75,156.2792,0,132.0392,0H99.9608
		C75.7208,0,56,19.75,56,44.0252V61.992c-0.03,0.1976-0.1172,0.3744-0.1172,0.5804v0.4792C20.8188,72.0068,0,87.9424,0,106
		c0,25.674,42.7348,46.2412,99.8828,49.5284v22.5792c0,2.2088,1.7912,4,4,4c2.2088,0,4-1.7912,4-4v-22.2368
		C110.5652,155.9472,113.2648,156,116,156c4.018,0,7.9812-0.0848,11.8828-0.2492v22.3568c0,2.2088,1.7912,4,4,4s4-1.7912,4-4
		v-22.8228C191.1308,151.328,232,131.1064,232,106z M116,148C51.3964,148,8,126.2832,8,106
		c0-13.4432,18.6288-26.798,47.8828-34.6652v14.7728c0,2.2088,1.7912,4,4,4c2.2088,0,4-1.7912,4-4V66.8408
		C63.9236,66.6112,64,66.3936,64,66.1544V44.0252C64,24.16,80.1328,8,99.9608,8h32.0784C151.8672,8,168,24.16,168,44.0252V61.992
		c-0.03,0.1976-0.1172,0.3744-0.1172,0.5804v23.5352c0,2.2088,1.7912,4,4,4s4-1.7912,4-4V71.2752
		C205.27,79.1336,224,92.5208,224,106C224,126.2832,180.6036,148,116,148z"/>
	<path d="M152,40H80c-2.2088,0-4,1.7912-4,4v23.996C76,81.2324,86.748,92,99.9608,92h32.0784C145.252,92,156,81.2324,156,67.996V44
		C156,41.7912,154.2088,40,152,40z M116,72c-4.412,0-8-3.588-8-8s3.588-8,8-8s8,3.588,8,8S120.412,72,116,72z M148,67.996
		C148,76.8204,140.84,84,132.0392,84h-13.3556v-4.2716C126.226,78.4428,132,71.9032,132,64c0-8.8224-7.1776-16-16-16
		c-8.8224,0-16,7.1776-16,16c0,6.9492,4.4808,12.8184,10.6836,15.0224V84H99.9608C91.16,84,84,76.8204,84,67.996V48h32h32V67.996z"
		/>
</g>
</svg>
