<?xml version="1.0" encoding="utf-8"?>
<!-- Generator: Adobe Illustrator 19.2.0, SVG Export Plug-In . SVG Version: 6.00 Build 0)  -->
<svg version="1.1" id="alienmonster" xmlns="http://www.w3.org/2000/svg" xmlns:xlink="http://www.w3.org/1999/xlink" x="0px"
	 y="0px" viewBox="0 0 176 235.9004" enable-background="new 0 0 176 235.9004" xml:space="preserve">
<g>
	<path fill="none" d="M104,72c0-0.038-0.0108-0.0728-0.0112-0.1104C100.3392,76.7824,94.5588,80,88,80
		s-12.3392-3.2176-15.9888-8.1104C72.0108,71.9272,72,71.962,72,72c0,8.8224,7.1776,16,16,16S104,80.8224,104,72z"/>
	<path fill="none" d="M88,8C43.8888,8,8,42.0936,8,84v88.002C8,180.8244,15.1776,188,24,188s16-7.1756,16-15.998V152.16
		c0-1.4336,0.7676-2.7576,2.0116-3.4704c1.25-0.7132,2.7812-0.7032,4.012,0.0212c7.0996,4.164,14.7988,7.2308,22.8828,9.1116
		C70.7188,158.244,72,159.8592,72,161.7188v34.2576C72,204.8124,79.1776,212,88,212s16-7.1876,16-16.0236v-34.2576
		c0-1.8596,1.2812-3.4748,3.0936-3.8964c8.084-1.8808,15.7832-4.9476,22.8828-9.1116c0.6232-0.3672,1.3244-0.5508,2.0236-0.5508
		c0.6856,0,1.3712,0.176,1.9884,0.5296c1.244,0.7128,2.0116,2.0368,2.0116,3.4704v59.7168c0,8.836,7.1776,16.0236,16,16.0236
		c8.8224,0,16-7.1876,16-16.0236V84C168,42.0936,132.1112,8,88,8z M64,72c0-13.2344,10.7656-24,24-24s24,10.7656,24,24
		s-10.7656,24-24,24S64,85.2344,64,72z M123.4588,105.7208c-2.488,9.2888-8.4452,17.0508-16.7732,21.8592
		c-5.5468,3.2032-11.7032,4.838-17.9416,4.838c-3.1268,0-6.2732-0.41-9.3748-1.2424c-2.1348-0.572-3.4004-2.7656-2.828-4.8984
		c0.57-2.1348,2.7656-3.4004,4.8984-2.828c7.2284,1.9356,14.7712,0.9432,21.246-2.7968c6.4764-3.7404,11.1112-9.7776,13.0468-17.002
		c0.5704-2.1328,2.7596-3.4044,4.8984-2.828C122.7656,101.3944,124.0312,103.588,123.4588,105.7208z M120,72c-2.2088,0-4-1.7912-4-4
		c0-15.4396-12.5604-28-28-28S60,52.5604,60,68c0,2.2088-1.7912,4-4,4s-4-1.7912-4-4c0-19.8496,16.1504-36,36-36s36,16.1504,36,36
		C124,70.2088,122.2088,72,120,72z"/>
	<path fill="none" d="M88,72c6.1508,0,11.1756-4.6676,11.8624-10.6372C96.9308,58.0968,92.7236,56,88,56
		s-8.9308,2.0968-11.8624,5.3628C76.8244,67.3324,81.8492,72,88,72z"/>
	<path d="M88,0C39.4764,0,0,37.6816,0,84v88.002C0,185.2344,10.7656,196,24,196s24-10.7656,24-23.998v-13.1604
		c5.1152,2.4964,10.4688,4.502,16,5.9964v31.1384C64,209.2228,74.7656,220,88,220s24-10.7772,24-24.0236V164.838
		c5.5312-1.4944,10.8848-3.5,16-5.9964v53.0352c0,13.2464,10.7656,24.0236,24,24.0236c13.2344,0,24-10.7772,24-24.0236V84
		C176,37.6816,136.5236,0,88,0z M168,211.8768c0,8.836-7.1776,16.0236-16,16.0236c-8.8224,0-16-7.1876-16-16.0236V152.16
		c0-1.4336-0.7676-2.7576-2.0116-3.4704c-0.6172-0.3536-1.3028-0.5296-1.9884-0.5296c-0.6992,0-1.4004,0.1836-2.0236,0.5508
		c-7.0996,4.164-14.7988,7.2308-22.8828,9.1116c-1.8124,0.4216-3.0936,2.0368-3.0936,3.8964v34.2576
		C104,204.8124,96.8224,212,88,212s-16-7.1876-16-16.0236v-34.2576c0-1.8596-1.2812-3.4748-3.0936-3.8964
		c-8.084-1.8808-15.7832-4.9476-22.8828-9.1116c-1.2308-0.7244-2.762-0.7344-4.012-0.0212C40.7676,149.4024,40,150.7264,40,152.16
		v19.842C40,180.8244,32.8224,188,24,188s-16-7.1756-16-15.998V84C8,42.0936,43.8888,8,88,8s80,34.0936,80,76V211.8768z"/>
	<path d="M88,32c-19.8496,0-36,16.1504-36,36c0,2.2088,1.7912,4,4,4s4-1.7912,4-4c0-15.4396,12.5604-28,28-28s28,12.5604,28,28
		c0,2.2088,1.7912,4,4,4s4-1.7912,4-4C124,48.1504,107.8496,32,88,32z"/>
	<path d="M112,72c0-13.2344-10.7656-24-24-24S64,58.7656,64,72s10.7656,24,24,24S112,85.2344,112,72z M88,56
		c4.7236,0,8.9308,2.0968,11.8624,5.3628C99.1756,67.3324,94.1508,72,88,72s-11.1756-4.6676-11.8624-10.6372
		C79.0692,58.0968,83.2764,56,88,56z M72,72c0-0.038,0.0108-0.0728,0.0112-0.1104C75.6608,76.7824,81.4412,80,88,80
		s12.3392-3.2176,15.9888-8.1104C103.9892,71.9272,104,71.962,104,72c0,8.8224-7.1776,16-16,16S72,80.8224,72,72z"/>
	<path d="M120.6308,100.8224c-2.1388-0.5764-4.328,0.6952-4.8984,2.828c-1.9356,7.2244-6.5704,13.2616-13.0468,17.002
		c-6.4748,3.74-14.0176,4.7324-21.246,2.7968c-2.1328-0.5724-4.3284,0.6932-4.8984,2.828c-0.5724,2.1328,0.6932,4.3264,2.828,4.8984
		c3.1016,0.8324,6.248,1.2424,9.3748,1.2424c6.2384,0,12.3948-1.6348,17.9416-4.838c8.328-4.8084,14.2852-12.5704,16.7732-21.8592
		C124.0312,103.588,122.7656,101.3944,120.6308,100.8224z"/>
</g>
</svg>
