<?xml version="1.0" encoding="utf-8"?>
<!-- Generator: Adobe Illustrator 19.2.0, SVG Export Plug-In . SVG Version: 6.00 Build 0)  -->
<svg version="1.1" id="alienship" xmlns="http://www.w3.org/2000/svg" xmlns:xlink="http://www.w3.org/1999/xlink" x="0px" y="0px"
	 viewBox="0 0 224 200" enable-background="new 0 0 224 200" xml:space="preserve">
<g>
	<polygon fill="none" points="128,136 136,136 140,136 140,124 128,124 	"/>
	<polygon fill="none" points="128,144 120,144 104,144 96,144 89.5779,144 38.1483,192 185.8515,192 134.4219,144 	"/>
	<path fill="none" d="M112,20c2.2107,0,4,1.7892,4,4c0,2.2108-1.7893,4-4,4c-31.736,0-57.7233,24.7804-59.7973,56h139.5944
		C189.6927,41.7504,154.7631,8,112,8C69.2367,8,34.3071,41.7504,32.2027,84h12C46.2907,48.3688,75.8539,20,112,20z"/>
	<polygon fill="none" points="84,136 88,136 96,136 96,124 84,124 	"/>
	<rect x="104" y="124" fill="none" width="16" height="12"/>
	<path fill="none" d="M204.0271,92H19.9687C13.3711,92,8,97.3828,8,104c0,6.6172,5.3711,12,11.9687,12H80h16h8h16h8h16h60.0271
		C210.6287,116,216,110.6172,216,104C216,97.3828,210.6287,92,204.0271,92z M40,108H24v-8h16V108z M72,108H56v-8h16V108z M104,108
		H88v-8h16V108z M136,108h-16v-8h16V108z M168,108h-16v-8h16V108z M200,108h-16v-8h16V108z"/>
	<path d="M204.0271,84h-4.1288C197.7987,37.3268,159.1819,0,112,0C64.8179,0,26.2011,37.3268,24.1015,84h-4.1328
		C8.9571,84,0,92.9728,0,104c0,11.0272,8.9571,20,19.9687,20H76v16c0,1.5936,0.9463,2.942,2.2931,3.5856l-53.0236,49.4888
		c-1.1992,1.1208-1.594,2.8632-0.9924,4.3944C24.8827,198.996,26.3555,200,28,200h168c1.6443,0,3.1171-1.004,3.7227-2.5312
		c0.6016-1.5312,0.2068-3.2736-0.9924-4.3944l-53.0236-49.4888C147.0535,142.942,148,141.5936,148,140v-16h56.0271
		C215.0391,124,224,115.0272,224,104C224,92.9728,215.0391,84,204.0271,84z M112,8c42.7631,0,77.6927,33.7504,79.7971,76H52.2027
		C54.2767,52.7804,80.264,28,112,28c2.2107,0,4-1.7892,4-4c0-2.2108-1.7893-4-4-4c-36.1461,0-65.7093,28.3688-67.7973,64h-12
		C34.3071,41.7504,69.2367,8,112,8z M96,136h-8h-4v-12h12V136z M104,124h16v12h-16V124z M38.1483,192l51.4296-48H96h8h16h8h6.4219
		l51.4296,48H38.1483z M140,136h-4h-8v-12h12V136z M204.0271,116H144h-16h-8h-16h-8H80H19.9687C13.3711,116,8,110.6172,8,104
		c0-6.6172,5.3711-12,11.9687-12h184.0584C210.6287,92,216,97.3828,216,104C216,110.6172,210.6287,116,204.0271,116z"/>
	<rect x="24" y="100" width="16" height="8"/>
	<rect x="184" y="100" width="16" height="8"/>
	<rect x="152" y="100" width="16" height="8"/>
	<rect x="120" y="100" width="16" height="8"/>
	<rect x="88" y="100" width="16" height="8"/>
	<rect x="56" y="100" width="16" height="8"/>
</g>
</svg>
