<?xml version="1.0" encoding="utf-8"?>
<!-- Generator: Adobe Illustrator 19.2.0, SVG Export Plug-In . SVG Version: 6.00 Build 0)  -->
<svg version="1.1" id="alienship2" xmlns="http://www.w3.org/2000/svg" xmlns:xlink="http://www.w3.org/1999/xlink" x="0px" y="0px"
	 viewBox="0 0 224.3611 216.9416" enable-background="new 0 0 224.3611 216.9416" xml:space="preserve">
<g>
	<circle fill="none" cx="112.1814" cy="58" r="6"/>
	<path fill="none" d="M60.1814,68c5.5155,0,10-4.4864,10-10s-4.4845-10-10-10c-5.5157,0-10,4.4864-10,10S54.6657,68,60.1814,68z"/>
	<path fill="none" d="M164.1814,68c5.5155,0,10-4.4864,10-10s-4.4845-10-10-10c-5.5157,0-10,4.4864-10,10S158.6657,68,164.1814,68z"
		/>
	<path fill="none" d="M98.1814,84h24h62.008c14.332,0,25.992-11.664,25.992-26s-11.66-26-25.992-26h-70.008h-8h-66.008
		c-14.332,0-25.992,11.664-25.992,26s11.66,26,25.992,26H98.1814z M164.1814,40c9.9255,0,18,8.0744,18,18s-8.0745,18-18,18
		c-9.9257,0-18-8.0744-18-18S154.2557,40,164.1814,40z M112.1814,44c7.7187,0,14,6.2812,14,14s-6.2813,14-14,14
		c-7.7189,0-14-6.2812-14-14S104.4625,44,112.1814,44z M60.1814,40c9.9255,0,18,8.0744,18,18s-8.0745,18-18,18
		c-9.9257,0-18-8.0744-18-18S50.2557,40,60.1814,40z"/>
	<path fill="none" d="M184.1894,92h-10.308l31.7727,75.6192l-17.7296-75.8356C186.6965,91.9188,185.4525,92,184.1894,92z"/>
	<path fill="none" d="M36.5765,91.8048L18.8297,167.328L50.4814,92h-10.308C38.9581,92,37.7593,91.9296,36.5765,91.8048z"/>
	<polygon fill="none" points="110.1814,170.4728 117.7749,92 102.5877,92 	"/>
	<path d="M164.1814,76c9.9255,0,18-8.0744,18-18s-8.0745-18-18-18c-9.9257,0-18,8.0744-18,18S154.2557,76,164.1814,76z M164.1814,48
		c5.5155,0,10,4.4864,10,10s-4.4845,10-10,10c-5.5157,0-10-4.4864-10-10S158.6657,48,164.1814,48z"/>
	<path d="M60.1814,76c9.9255,0,18-8.0744,18-18s-8.0745-18-18-18c-9.9257,0-18,8.0744-18,18S50.2557,76,60.1814,76z M60.1814,48
		c5.5155,0,10,4.4864,10,10s-4.4845,10-10,10c-5.5157,0-10-4.4864-10-10S54.6657,48,60.1814,48z"/>
	<path d="M112.1814,72c7.7187,0,14-6.2812,14-14s-6.2813-14-14-14c-7.7189,0-14,6.2812-14,14S104.4625,72,112.1814,72z M112.1814,52
		c3.3083,0,6,2.6916,6,6s-2.6917,6-6,6c-3.3085,0-6-2.6916-6-6S108.8729,52,112.1814,52z"/>
	<path d="M224.2557,212.0312l-28.546-122.0844c13.0808-4.736,22.4717-17.2484,22.4717-31.9468c0-18.748-15.2501-34-33.992-34
		h-70.008V0h-8v24h-66.008c-18.7421,0-33.992,15.252-33.992,34c0,14.7472,9.4527,27.2948,22.6019,31.994L0.1069,212.0272
		c-0.4764,2.0236,0.68,4.0744,2.6564,4.7188c0.4101,0.1328,0.828,0.1956,1.2384,0.1956c1.5704,0,3.0508-0.93,3.6877-2.4512
		L59.1577,92h35.3928l11.6504,120.3848c0.1992,2.0508,1.922,3.6152,3.9805,3.6152c2.0583,0,3.7811-1.5644,3.9803-3.6152L125.8121,92
		h39.3928l51.4685,122.4904c0.6367,1.5212,2.1171,2.4512,3.6875,2.4512c0.4104,0,0.8245-0.0628,1.2344-0.1956
		C223.5721,216.1056,224.7281,214.0548,224.2557,212.0312z M14.1814,58c0-14.336,11.66-26,25.992-26h66.008h8h70.008
		c14.332,0,25.992,11.664,25.992,26s-11.66,26-25.992,26h-62.008h-24h-58.008C25.8414,84,14.1814,72.336,14.1814,58z
		 M18.8297,167.328l17.7468-75.5232C37.7593,91.9296,38.9581,92,40.1734,92h10.308L18.8297,167.328z M110.1814,170.4728L102.5877,92
		h15.1872L110.1814,170.4728z M173.8814,92h10.308c1.2631,0,2.5071-0.0812,3.7351-0.2164l17.7296,75.8356L173.8814,92z"/>
</g>
</svg>
