<?xml version="1.0" encoding="utf-8"?>
<!-- Generator: Adobe Illustrator 19.2.0, SVG Export Plug-In . SVG Version: 6.00 Build 0)  -->
<svg version="1.1" id="analysischart" xmlns="http://www.w3.org/2000/svg" xmlns:xlink="http://www.w3.org/1999/xlink" x="0px"
	 y="0px" viewBox="0 0 172 224" enable-background="new 0 0 172 224" xml:space="preserve">
<g>
	<path fill="none" d="M16,212.0117C16,214.2109,17.7988,216,20.0096,216h131.9808c2.2108,0,4.0096-1.7891,4.0096-3.9883V64H16
		V212.0117z M36.7616,155.2773l12.336-46.1308c0.4084-1.5332,1.6856-2.6796,3.254-2.92c1.582-0.244,3.1308,0.4668,3.9844,1.8068
		l14.7988,23.254L87.584,87.9825c0.6388-1.6816,2.2832-2.7208,4.1016-2.5644c1.7872,0.1619,3.246,1.4939,3.5724,3.2596
		l14.992,81.2832l12.8028-58.834c0.4688-2.16,2.6092-3.5312,4.7576-3.0584c2.1604,0.4688,3.5296,2.5995,3.0588,4.7576
		l-17.0352,78.2832c-0.4004,1.842-2.0292,3.1504-3.9084,3.1504c-0.0212,0-0.0428,0-0.0644,0
		c-1.904-0.0312-3.5232-1.4004-3.8692-3.2752l-16.0076-86.7912L75.7812,141.584c-0.5392,1.416-1.828,2.4065-3.334,2.5585
		c-1.5231,0.176-2.9708-0.5545-3.7812-1.832L54.4728,120.008l-9.9844,37.3357c-0.5684,2.1312-2.762,3.4003-4.8968,2.8304
		C37.4572,159.6037,36.1896,157.412,36.7616,155.2773z"/>
	<path fill="none" d="M88,8c-8.8224,0-16,7.1777-16,16h32C104,15.1777,96.8224,8,88,8z"/>
	<rect x="8" y="32" fill="none" width="156" height="24"/>
	<path d="M172,24h-60c0-13.2343-10.7656-24-24-24C74.7656,0,64,10.7657,64,24H0v40h8v148.0117C8,218.6233,13.3868,224,20.0096,224
		h131.9808C158.6132,224,164,218.6233,164,212.0117V64h8V24z M88,8c8.8224,0,16,7.1777,16,16H72C72,15.1777,79.1776,8,88,8z
		 M156,212.0117c0,2.1992-1.7988,3.9883-4.0096,3.9883H20.0096C17.7988,216,16,214.2109,16,212.0117V64h140V212.0117z M164,56H8V32
		h156V56z"/>
	<path d="M39.5916,160.1741c2.1348,0.5699,4.3284-0.6992,4.8968-2.8304l9.9844-37.3357l14.1932,22.3025
		c0.8104,1.2775,2.258,2.008,3.7812,1.832c1.506-0.152,2.7948-1.1425,3.334-2.5585l14.2032-37.3907l16.0076,86.7912
		c0.346,1.8748,1.9652,3.244,3.8692,3.2752c0.0216,0,0.0432,0,0.0644,0c1.8792,0,3.508-1.3084,3.9084-3.1504l17.0352-78.2832
		c0.4708-2.1581-0.8984-4.2888-3.0588-4.7576c-2.1484-0.4728-4.2888,0.8984-4.7576,3.0584l-12.8028,58.834L95.258,88.6777
		c-0.3264-1.7657-1.7852-3.0977-3.5724-3.2596c-1.8184-0.1564-3.4628,0.8828-4.1016,2.5644l-16.4492,43.3048l-14.7988-23.254
		c-0.8536-1.34-2.4024-2.0508-3.9844-1.8068c-1.5684,0.2404-2.8456,1.3868-3.254,2.92l-12.336,46.1308
		C36.1896,157.412,37.4572,159.6037,39.5916,160.1741z"/>
</g>
</svg>
