<?xml version="1.0" encoding="utf-8"?>
<!-- Generator: Adobe Illustrator 19.2.0, SVG Export Plug-In . SVG Version: 6.00 Build 0)  -->
<svg version="1.1" id="animaltest" xmlns="http://www.w3.org/2000/svg" xmlns:xlink="http://www.w3.org/1999/xlink" x="0px" y="0px"
	 viewBox="0 0 188.6213 216.6408" enable-background="new 0 0 188.6213 216.6408" xml:space="preserve">
<g>
	<polygon fill="none" points="108,108 108,36 76,36 76,48 88,48 88,56 76,56 76,64 88,64 88,72 76,72 76,80 88,80 88,88 76,88 
		76,108 	"/>
	<circle fill="none" cx="36" cy="180" r="4"/>
	<path fill="none" d="M103.7303,136.6408c-2.4924,0-5.0823,0.1496-7.7303,0.4036V152c0,2.2108-1.7893,4-4,4c-2.2109,0-4-1.7892-4-4
		v-13.8368c-7.0037,1.2588-14.3457,3.2708-21.8049,6.044l-3.8708,1.4372l-1.3163-3.914
		c-2.7073-8.0508-8.7737-13.5312-14.6329-13.5312c-0.586,0-1.172,0.0548-1.75,0.168c-3.3832,0.6564-6.2776,3.1796-8.1488,7.0976
		c-2.0664,4.3204-2.6172,9.7072-1.5584,15.164c0.3204,1.6328,0.7772,3.2344,1.3632,4.754l1.1604,3.004l-2.6836,1.7732
		C16.2735,172.3748,8,183.8124,8,189.7264c0,16.9532,45.0427,18.9144,78.9219,18.9144c46.6716,0,73.0781-1.1488,73.0781-24.7464
		C160,162.336,150.2383,136.6408,103.7303,136.6408z M36,192c-6.6173,0-12-5.3828-12-12c0-6.6172,5.3827-12,12-12
		c6.6171,0,12,5.3828,12,12C48,186.6172,42.6171,192,36,192z"/>
	<path d="M36,168c-6.6173,0-12,5.3828-12,12c0,6.6172,5.3827,12,12,12c6.6171,0,12-5.3828,12-12C48,173.3828,42.6171,168,36,168z
		 M36,184c-2.2073,0-4-1.7928-4-4c0-2.2072,1.7927-4,4-4c2.2071,0,4,1.7928,4,4C40,182.2072,38.2071,184,36,184z"/>
	<path d="M166.5115,99.418c-17.4492-19.7072-23.6835-36.754-18.0352-49.3008c5.5-12.2148,21.0432-17.5,27.758-17.5
		c2.2108,0,4-1.7892,4-4c0-2.2108-1.7892-4-4-4c-10.1016,0-28.2263,7.0584-35.0508,22.2148
		c-4.91,10.8984-5.5392,29.7892,19.336,57.8908c16.0196,18.0936,22.664,32.7576,19.2188,42.41
		c-3.1928,8.9524-14.5308,11.5832-16.5244,11.9832c-6.936-15.8831-23.1779-30.4752-59.4836-30.4752
		c-2.4996,0-5.0952,0.1564-7.7303,0.3884V116h20V36h12c2.2107,0,4-1.7892,4-4c0-2.2108-1.7893-4-4-4h-12H96V8h32
		c2.2107,0,4-1.7892,4-4c0-2.2108-1.7893-4-4-4H56c-2.2109,0-4,1.7892-4,4c0,2.2108,1.7891,4,4,4h32v20H68H56
		c-2.2109,0-4,1.7892-4,4c0,2.2108,1.7891,4,4,4h12v80h20v14.0848c-6.7597,1.126-13.7805,2.8628-20.9297,5.3136
		c-4.996-10.5664-14.6096-16.7068-23.9688-14.8828c-5.9375,1.1524-10.8556,5.2344-13.8436,11.5
		c-2.8008,5.8592-3.5784,13.0116-2.1916,20.1408c0.1992,1.0272,0.4452,2.0508,0.7304,3.0508C10.332,167.2737,0,180.0548,0,189.7264
		c0,23.6524,41.7771,26.9144,86.9219,26.9144c43.5036,0,81.0781,0,81.0781-32.7464c0-5.1116-0.5157-11.0812-2.136-17.1696
		c4.6175-1.0896,17.1455-5.0628,21.3899-16.846C191.8435,137.1288,184.8671,120.1524,166.5115,99.418z M76,88h12v-8H76v-8h12v-8H76
		v-8h12v-8H76V36h32v72H76V88z M86.9219,208.6408C53.0427,208.6408,8,206.6796,8,189.7264c0-5.914,8.2735-17.3516,26.7579-29.5664
		l2.6836-1.7732l-1.1604-3.004c-0.586-1.5196-1.0428-3.1212-1.3632-4.754c-1.0588-5.4568-0.508-10.8436,1.5584-15.164
		c1.8712-3.918,4.7656-6.4412,8.1488-7.0976c0.578-0.1132,1.164-0.168,1.75-0.168c5.8592,0,11.9256,5.4804,14.6329,13.5312
		l1.3163,3.914l3.8708-1.4372c7.4592-2.7732,14.8012-4.7852,21.8049-6.044V152c0,2.2108,1.7891,4,4,4c2.2107,0,4-1.7892,4-4
		v-14.9556c2.648-0.254,5.2379-0.4036,7.7303-0.4036c46.508,0,56.2697,25.6952,56.2697,47.2536
		C160,207.492,133.5935,208.6408,86.9219,208.6408z"/>
</g>
</svg>
