<?xml version="1.0" encoding="utf-8"?>
<!-- Generator: Adobe Illustrator 19.2.0, SVG Export Plug-In . SVG Version: 6.00 Build 0)  -->
<svg version="1.1" id="applethrow" xmlns="http://www.w3.org/2000/svg" xmlns:xlink="http://www.w3.org/1999/xlink" x="0px" y="0px"
	 viewBox="0 0 183.6119 193.0643" enable-background="new 0 0 183.6119 193.0643" xml:space="preserve">
<g>
	<path fill="none" d="M72.7521,68.1855c-10.5432,4.2656-17.7308,15.4336-19.2268,29.8788l-0.4608,4.4295l-4.3556-0.9335
		c-3.4295-0.734-6.7852-1.0936-9.996-1.0936c-10.09,0-18.8164,3.5431-24.3632,10.1524c-12.758,15.2072-5.9532,42,15.164,59.7227
		c10.3984,8.7225,22.6328,13.9217,34.4492,14.6365c11.4024,0.7384,20.9608-2.8904,26.9885-10.078l0.0035-0.004
		c2.6956-3.2068,7.418-8.2616,7.6172-8.4764l0.5276-0.5664l0.6992-0.328c0.2656-0.1212,6.5272-3.0472,10.414-4.6172
		c8.7032-3.5156,15.0705-11.5276,17.9296-22.5548c2.9689-11.4608,1.8049-24.7072-3.2772-37.2892
		C114.5409,75.5018,91.1817,60.7715,72.7521,68.1855z"/>
	<path fill="none" d="M32.3185,76.4275c5.7969-5.1716,8.75-12.4372,7.9724-19.8592c-0.7812-7.422-5.1835-13.918-11.9256-17.7696
		c-5.7968,5.172-8.7459,12.4336-7.9688,19.8596C21.1777,66.0799,25.5761,72.5723,32.3185,76.4275z"/>
	<path d="M69.7557,60.7715c-12.2344,4.9452-20.8592,16.824-23.5936,32.2223c-15.4804-2.1755-29.4532,2.3673-37.9416,12.4845
		c-15.5896,18.586-8.3476,50.4336,16.1524,70.9884c11.6992,9.8204,25.59,15.6796,39.1056,16.5
		c1.0976,0.0664,2.1796,0.0976,3.246,0.0976c12.5664,0,23.258-4.5625,30.3596-13.0232c2.0508-2.4416,5.496-6.18,6.8044-7.594
		c1.75-0.8084,6.3672-2.9256,9.3204-4.1248c11.1132-4.4845,19.168-14.418,22.676-27.9612
		c3.3985-13.1132,2.1172-28.1328-3.6055-42.2968C120.2989,68.4159,92.2481,51.6815,69.7557,60.7715z M128.1425,138.3535
		c-2.8591,11.0272-9.2264,19.0392-17.9296,22.5548c-3.8868,1.57-10.1484,4.496-10.414,4.6172l-0.6992,0.328l-0.5276,0.5664
		c-0.1992,0.2148-4.9216,5.2696-7.6172,8.4764l-0.0035,0.004c-6.0277,7.1876-15.5861,10.8164-26.9885,10.078
		c-11.8164-0.7148-24.0508-5.914-34.4492-14.6365c-21.1172-17.7227-27.922-44.5155-15.164-59.7227
		c5.5468-6.6093,14.2732-10.1524,24.3632-10.1524c3.2108,0,6.5665,0.3596,9.996,1.0936l4.3556,0.9335l0.4608-4.4295
		c1.496-14.4452,8.6836-25.6132,19.2268-29.8788c18.4296-7.414,41.7888,7.3163,52.1132,32.8788
		C129.9473,113.6463,131.1113,126.8927,128.1425,138.3535z"/>
	<path d="M31.1581,84.8143l2.1448,0.9768l1.8944-1.4024c9.332-6.9104,14.2068-17.6252,13.0468-28.6564
		c-1.16-11.0352-8.1564-20.5-18.7188-25.3204l-2.1444-0.9764l-1.8944,1.4023c-9.3284,6.9101-14.2031,17.6213-13.0431,28.656
		C13.6033,70.5291,20.5997,79.9938,31.1581,84.8143z M28.3653,38.7987c6.7421,3.8516,11.1444,10.3476,11.9256,17.7696
		c0.7776,7.422-2.1755,14.6876-7.9724,19.8592c-6.7424-3.8552-11.1408-10.3476-11.922-17.7692
		C19.6193,51.2323,22.5685,43.9707,28.3653,38.7987z"/>
	<path d="M99.6153,44.0018c0.8903,0,1.7851-0.2967,2.5271-0.9023l44-36c1.7108-1.4024,1.9649-3.922,0.5664-5.6288
		c-1.406-1.7148-3.922-1.9649-5.6288-0.5664l-44,36c-1.7108,1.4024-1.9647,3.922-0.5664,5.6288
		C97.3065,43.5018,98.4549,44.0018,99.6153,44.0018z"/>
	<path d="M132.5137,42.5331c0.7928,0.9687,1.9412,1.4687,3.1017,1.4687c0.8903,0,1.7851-0.2967,2.5271-0.9023l44-36
		c1.7108-1.4024,1.9649-3.922,0.5664-5.6288c-1.4024-1.7148-3.922-1.9649-5.6288-0.5664l-44,36
		C131.3693,38.3067,131.1153,40.8263,132.5137,42.5331z"/>
	<path d="M177.0801,28.9043l-44,36c-1.7108,1.4024-1.9647,3.922-0.5664,5.6288c0.7928,0.9687,1.9412,1.4687,3.1017,1.4687
		c0.8903,0,1.7851-0.2967,2.5271-0.9023l44-36c1.7108-1.4024,1.9649-3.922,0.5664-5.6288
		C181.3065,27.7559,178.7869,27.5058,177.0801,28.9043z"/>
</g>
</svg>
