<?xml version="1.0" encoding="utf-8"?>
<!-- Generator: Adobe Illustrator 19.2.0, SVG Export Plug-In . SVG Version: 6.00 Build 0)  -->
<svg version="1.1" id="applefall" xmlns="http://www.w3.org/2000/svg" xmlns:xlink="http://www.w3.org/1999/xlink" x="0px" y="0px"
	 viewBox="0 0 137.9439 222.1956" enable-background="new 0 0 137.9439 222.1956" xml:space="preserve">
<g>
	<path fill="none" d="M85.632,29.5391c3.7307-6.4647,3.9883-14.3047,0.7971-21.3827c-7.7268,0.7772-14.3868,4.918-18.1171,11.3827
		c-3.7309,6.4649-3.9885,14.3049-0.7973,21.3829C75.2415,40.1448,81.9015,36.004,85.632,29.5391z"/>
	<path fill="none" d="M105.0655,58.0276c-11.0388-2.7656-23.414,2.0544-33.1172,12.8632l-2.9763,3.3163l-2.9765-3.3163
		C58.0971,62.086,48.4171,57.262,39.136,57.262c-2.1133,0-4.2069,0.2536-6.2577,0.7656
		c-9.1096,2.2696-16.5276,9.3124-20.8948,19.836c-4.5352,10.9372-5.2264,24.2148-1.9412,37.3828
		c3.2812,13.1716,10.1248,24.57,19.2657,32.0976c8.7967,7.246,18.6483,9.9804,27.7575,7.7068
		c4.0705-1.0117,10.8636-2.324,11.1484-2.3788l0.7581-0.1484l0.7579,0.1484c0.2848,0.0548,7.0781,1.3671,11.1484,2.3788
		c9.078,2.2736,18.9568-0.4608,27.7577-7.7068c9.1407-7.5276,15.9843-18.926,19.2655-32.0976
		c3.2852-13.168,2.594-26.4456-1.9412-37.3828C121.5931,67.34,114.1751,60.2972,105.0655,58.0276z"/>
	<path d="M133.3471,74.8008c-5.3596-12.9257-14.7151-21.6404-26.344-24.5388c-12.8048-3.1836-26.7656,1.3516-38.0311,12.1992
		C57.7063,51.6056,43.7531,47.0704,30.9407,50.262C19.312,53.1604,9.9563,61.8751,4.5971,74.8008
		c-5.1916,12.508-6.016,27.5588-2.3204,42.3828c3.6953,14.8204,11.488,27.7268,21.9452,36.336
		c10.8008,8.8908,23.1484,12.1835,34.7812,9.2968c3.094-0.7733,8.082-1.7693,9.9689-2.1444
		c1.8907,0.3751,6.8751,1.3711,9.9687,2.1444c2.75,0.6836,5.5428,1.0236,8.3436,1.0236c9.0432,0,18.1917-3.5312,26.4376-10.3204
		c10.4572-8.6092,18.2501-21.5156,21.9452-36.336C139.3627,102.3596,138.5383,87.3088,133.3471,74.8008z M127.9015,115.2464
		c-3.2812,13.1716-10.1248,24.57-19.2655,32.0976c-8.8009,7.246-18.6797,9.9804-27.7577,7.7068
		c-4.0703-1.0117-10.8636-2.324-11.1484-2.3788l-0.7579-0.1484l-0.7581,0.1484c-0.2848,0.0548-7.0779,1.3671-11.1484,2.3788
		c-9.1092,2.2736-18.9608-0.4608-27.7575-7.7068c-9.1409-7.5276-15.9845-18.926-19.2657-32.0976
		c-3.2852-13.168-2.594-26.4456,1.9412-37.3828c4.3672-10.5236,11.7852-17.5664,20.8948-19.836
		c2.0508-0.512,4.1444-0.7656,6.2577-0.7656c9.2811,0,18.9611,4.824,26.8595,13.6288l2.9765,3.3163l2.9763-3.3163
		c9.7032-10.8088,22.0784-15.6288,33.1172-12.8632c9.1096,2.2696,16.5276,9.3124,20.8948,19.836
		C130.4955,88.8008,131.1867,102.0784,127.9015,115.2464z"/>
	<path d="M62.808,49.0784l2.3555-0.0236c11.6052-0.1056,21.8476-5.9064,27.3984-15.5157
		c5.5468-9.6091,5.4492-21.3787-0.2656-31.4843L91.136,0l-2.3557,0.0236C77.1751,0.1292,66.9327,5.93,61.3819,15.5391
		c-5.5468,9.6093-5.4492,21.3789,0.2656,31.4845L62.808,49.0784z M68.312,19.5391c3.7303-6.4647,10.3903-10.6055,18.1171-11.3827
		c3.1912,7.078,2.9336,14.918-0.7971,21.3827C81.9015,36.004,75.2415,40.1448,67.5147,40.922
		C64.3235,33.844,64.5811,26.004,68.312,19.5391z"/>
	<polygon points="90.2843,189.5704 72.972,206.8828 72.972,174.5391 64.972,174.5391 64.972,206.8828 47.6595,189.5704 
		42.0031,195.2268 64.972,218.1956 64.972,218.762 65.5383,218.762 68.972,222.1956 72.4055,218.762 72.972,218.762 
		72.972,218.1956 95.9407,195.2268 	"/>
</g>
</svg>
