<?xml version="1.0" encoding="utf-8"?>
<!-- Generator: Adobe Illustrator 19.2.0, SVG Export Plug-In . SVG Version: 6.00 Build 0)  -->
<svg version="1.1" id="areafiftyone" xmlns="http://www.w3.org/2000/svg" xmlns:xlink="http://www.w3.org/1999/xlink" x="0px"
	 y="0px" viewBox="0 0 216 200" enable-background="new 0 0 216 200" xml:space="preserve">
<g>
	<rect x="96" y="152" fill="none" width="24" height="40"/>
	<path fill="none" d="M156,44c-17.6444,0-32,14.3556-32,32s14.3556,32,32,32s32-14.3556,32-32S173.6444,44,156,44z
		 M168.7284,94.3848l-13.1436-13.1436l-13.7272,13.7276l-5.6564-5.6564l13.7276-13.7276l-12.3136-12.3132l5.6564-5.6564
		l12.3132,12.3136l11.7296-11.7296l5.6564,5.6564l-11.7296,11.7292l13.1436,13.1436L168.7284,94.3848z"/>
	<path fill="none" d="M191.9608,8H24.0392C15.1952,8,8,15.1876,8,24.0236v103.9528C8,136.8124,15.1952,144,24.0392,144H92h32
		h67.9608c8.844,0,16.0392-7.1876,16.0392-16.0236V24.0236C208,15.1876,200.8048,8,191.9608,8z M64,60H40v12h16h8v8v12v8h-8H32v-8
		h24V80H40h-8v-8V60v-8h8h24V60z M92,60v40h-8V60h-8v-8h8h8V60z M156,116c-22.0568,0-40-17.9432-40-40s17.9432-40,40-40
		s40,17.9432,40,40S178.0568,116,156,116z"/>
	<path d="M191.9608,0H24.0392C10.7832,0,0,10.7772,0,24.0236v103.9528C0,141.2228,10.7832,152,24.0392,152H88v44
		c0,2.2088,1.7912,4,4,4h32c2.2088,0,4-1.7912,4-4v-44h63.9608C205.2168,152,216,141.2228,216,127.9764V24.0236
		C216,10.7772,205.2168,0,191.9608,0z M120,192H96v-40h24V192z M208,127.9764c0,8.836-7.1952,16.0236-16.0392,16.0236H124H92
		H24.0392C15.1952,144,8,136.8124,8,127.9764V24.0236C8,15.1876,15.1952,8,24.0392,8h167.9216C200.8048,8,208,15.1876,208,24.0236
		V127.9764z"/>
	<path d="M156,36c-22.0568,0-40,17.9432-40,40s17.9432,40,40,40s40-17.9432,40-40S178.0568,36,156,36z M156,108
		c-17.6444,0-32-14.3556-32-32s14.3556-32,32-32s32,14.3556,32,32S173.6444,108,156,108z"/>
	<polygon points="32,52 32,60 32,72 32,80 40,80 56,80 56,92 32,92 32,100 56,100 64,100 64,92 64,80 64,72 56,72 40,72 40,60 
		64,60 64,52 40,52 	"/>
	<polygon points="76,52 76,60 84,60 84,100 92,100 92,60 92,52 84,52 	"/>
	<polygon points="172.9708,63.8556 167.3144,58.1992 155.5848,69.9288 143.2716,57.6152 137.6152,63.2716 149.9288,75.5848 
		136.2012,89.3124 141.8576,94.9688 155.5848,81.2412 168.7284,94.3848 174.3848,88.7284 161.2412,75.5848 	"/>
</g>
</svg>
