<?xml version="1.0" encoding="utf-8"?>
<!-- Generator: Adobe Illustrator 19.2.0, SVG Export Plug-In . SVG Version: 6.00 Build 0)  -->
<svg version="1.1" id="astronautmoon" xmlns="http://www.w3.org/2000/svg" xmlns:xlink="http://www.w3.org/1999/xlink" x="0px"
	 y="0px" viewBox="0 0 212 220" enable-background="new 0 0 212 220" xml:space="preserve">
<g>
	<path fill="none" d="M105.2547,136H88v32.0325l25.2627-15.788C109.492,147.5497,106.7351,142.0265,105.2547,136z"/>
	<circle fill="none" cx="70" cy="106" r="6"/>
	<path fill="none" d="M88,128V90h8v38h8.1019c-0.032-0.6699-0.1019-1.3299-0.1019-2.008v-7.984C104,94.8437,122.84,76,146,76
		c1.9795,0,3.9123,0.1853,5.82,0.4517C149.952,38.4033,118.5015,8,80,8C40.3007,8,8,40.2989,8,80c0,39.6993,32.3007,72,72,72v-24H88
		z M76,24c11.0271,0,20,8.9729,20,20c0,11.0273-8.9729,20-20,20c-11.0273,0-20-8.9727-20-20C56,32.9729,64.9727,24,76,24z M34,100
		c-7.7189,0-14-6.2811-14-14c0-7.7187,6.2811-14,14-14c7.7187,0,14,6.2813,14,14C48,93.7189,41.7187,100,34,100z M70,120
		c-7.7189,0-14-6.2811-14-14c0-7.7187,6.2811-14,14-14c7.7187,0,14,6.2813,14,14C84,113.7189,77.7187,120,70,120z"/>
	<path fill="none" d="M76,56c6.6171,0,12-5.3827,12-12c0-6.6171-5.3829-12-12-12c-6.6173,0-12,5.3829-12,12
		C64,50.6173,69.3827,56,76,56z"/>
	<circle fill="none" cx="34" cy="86" r="6"/>
	<path fill="none" d="M180,125.992v-7.984C180,99.256,164.7459,84,146,84c-18.7461,0-34,15.256-34,34.008v7.984
		C112,144.7461,127.2539,160,146,160C164.7459,160,180,144.7461,180,125.992z M146,140.5157c-15.5509,0-26-9.0468-26-22.5157
		c0-18.5623,18.8907-18.5623,26-18.5623c7.1091,0,26,0,26,18.5623C172,131.4689,161.5507,140.5157,146,140.5157z"/>
	<path fill="none" d="M186.7451,136c-1.4804,6.0265-4.2372,11.5497-8.008,16.2445L204,168.0325V136H186.7451z"/>
	<path fill="none" d="M146,107.4377c-14.9885,0-18,4.0428-18,10.5623c0,10.7033,9.2967,14.5157,18,14.5157
		c8.7031,0,18-3.8124,18-14.5157C164,111.4805,160.9883,107.4377,146,107.4377z"/>
	<path d="M146,99.4377c-7.1093,0-26,0-26,18.5623c0,13.4689,10.4491,22.5157,26,22.5157c15.5507,0,26-9.0468,26-22.5157
		C172,99.4377,153.1091,99.4377,146,99.4377z M146,132.5157c-8.7033,0-18-3.8124-18-14.5157c0-6.5195,3.0115-10.5623,18-10.5623
		c14.9883,0,18,4.0428,18,10.5623C164,128.7033,154.7031,132.5157,146,132.5157z"/>
	<path d="M187.8979,128c0.032-0.6699,0.1021-1.3299,0.1021-2.008v-7.984c0-18.2787-11.7517-33.8247-28.08-39.5867
		C159.0671,35.0429,123.5803,0,80,0C35.8867,0,0,35.8889,0,80c0,44.1133,35.8867,80,80,80v60h8v-42.5339l30.98-19.3604
		C126.2903,164.2685,135.7127,168,146,168c10.2871,0,19.7095-3.7315,27.02-9.8943L204,177.4661V220h8v-92H187.8979z M8,80
		C8,40.2989,40.3007,8,80,8c38.5015,0,69.952,30.4033,71.82,68.4517C149.9123,76.1853,147.9795,76,146,76
		c-23.16,0-42,18.8437-42,42.008v7.984c0,0.6781,0.0699,1.3381,0.1019,2.008H96V90h-8v38h-8v24C40.3007,152,8,119.6993,8,80z
		 M88,136h17.2547c1.4804,6.0265,4.2373,11.5497,8.008,16.2445L88,168.0325V136z M112,125.992v-7.984C112,99.256,127.2539,84,146,84
		c18.7459,0,34,15.256,34,34.008v7.984C180,144.7461,164.7459,160,146,160C127.2539,160,112,144.7461,112,125.992z
		 M178.7371,152.2445c3.7709-4.6948,6.5276-10.218,8.008-16.2445H204v32.0325L178.7371,152.2445z"/>
	<path d="M76,64c11.0271,0,20-8.9727,20-20c0-11.0271-8.9729-20-20-20c-11.0273,0-20,8.9729-20,20C56,55.0273,64.9727,64,76,64z
		 M76,32c6.6171,0,12,5.3829,12,12c0,6.6173-5.3829,12-12,12c-6.6173,0-12-5.3827-12-12C64,37.3829,69.3827,32,76,32z"/>
	<path d="M34,72c-7.7189,0-14,6.2813-14,14c0,7.7189,6.2811,14,14,14c7.7187,0,14-6.2811,14-14C48,78.2813,41.7187,72,34,72z M34,92
		c-3.3085,0-6-2.6915-6-6c0-3.3083,2.6915-6,6-6c3.3083,0,6,2.6917,6,6C40,89.3085,37.3083,92,34,92z"/>
	<path d="M70,92c-7.7189,0-14,6.2813-14,14c0,7.7189,6.2811,14,14,14c7.7187,0,14-6.2811,14-14C84,98.2813,77.7187,92,70,92z
		 M70,112c-3.3085,0-6-2.6915-6-6c0-3.3083,2.6915-6,6-6c3.3083,0,6,2.6917,6,6C76,109.3085,73.3083,112,70,112z"/>
</g>
</svg>
