<?xml version="1.0" encoding="utf-8"?>
<!-- Generator: Adobe Illustrator 19.2.0, SVG Export Plug-In . SVG Version: 6.00 Build 0)  -->
<svg version="1.1" id="astronauthelmet" xmlns="http://www.w3.org/2000/svg" xmlns:xlink="http://www.w3.org/1999/xlink" x="0px"
	 y="0px" viewBox="0 0 192.4844 220.4845" enable-background="new 0 0 192.4844 220.4845" xml:space="preserve">
<g>
	<path fill="none" d="M44,136.4845c11.8687,0,21.7251,8.6676,23.6387,20H76v-17.2616l62.88-74.8788
		c-8.5677-4.9676-18.4821-7.8596-29.0793-7.8596H66.1991C34.1091,56.4845,8,82.5821,8,114.6601v41.8244h12.3611
		C22.2747,145.1521,32.1311,136.4845,44,136.4845z"/>
	<path fill="none" d="M44,176.4845c8.8243,0,16-7.1756,16-16c0-8.8244-7.1757-16-16-16c-8.8245,0-16,7.1756-16,16
		C28,169.3089,35.1755,176.4845,44,176.4845z"/>
	<path fill="none" d="M168,188.4845v-73.8244c0-2.1408-0.1353-4.2628-0.3665-6.3644c-0.0664-0.6096-0.1904-1.2012-0.276-1.8048
		c-0.21-1.4808-0.4444-2.956-0.766-4.408c-0.1584-0.7152-0.3612-1.4128-0.546-2.118c-0.3392-1.2972-0.7052-2.586-1.1316-3.8528
		c-0.26-0.7696-0.5459-1.526-0.8368-2.2808c-0.4392-1.1432-0.9152-2.2704-1.4248-3.3824c-0.3728-0.8096-0.752-1.6152-1.1603-2.4044
		c-0.5073-0.9844-1.0629-1.9428-1.6257-2.8972c-0.4983-0.8416-0.9852-1.6912-1.524-2.5048
		c-0.5372-0.8136-1.132-1.5888-1.7103-2.3756c-2.4397-3.3104-5.212-6.3484-8.2829-9.0728c-0.642-0.5696-1.266-1.1544-1.9352-1.6968
		c-0.28-0.2272-0.5824-0.4256-0.8664-0.648L84,142.1369v14.3476v8v6.3124l18.1483,17.6876H168z"/>
	<path fill="none" d="M76,174.1721v-9.6876h-8.3613c-1.9136,11.3324-11.77,20-23.6387,20c-11.8689,0-21.7253-8.6676-23.6389-20H8v48
		h160v-16H98.8983L76,174.1721z"/>
	<path d="M175.5803,107.4009c-0.206-1.8696-0.4883-3.7216-0.85-5.554c-0.0868-0.44-0.1892-0.8728-0.2848-1.3096
		c-0.3744-1.7132-0.8032-3.41-1.31-5.0808c-0.0584-0.1916-0.1032-0.3888-0.1632-0.5796c-0.5704-1.82-1.2432-3.6008-1.9664-5.36
		c-0.1436-0.348-0.2844-0.696-0.4339-1.0412c-0.7701-1.7856-1.6097-3.5384-2.5333-5.2484c-0.046-0.0844-0.0956-0.166-0.1416-0.25
		c-4.928-9.0312-11.9464-16.9344-20.694-22.9304l-2.9924-2.0508l-0.1328,0.158c-10.0136-6.0936-21.7212-9.6696-34.2772-9.6696
		H66.1991C29.6951,48.4845,0,78.1721,0,114.6601v41.8244v8v56h176v-24v-81.8244c0-2.0236-0.1233-4.0292-0.3053-6.0236
		C175.6571,108.2241,175.6255,107.8109,175.5803,107.4009z M84,164.4845v-8v-14.3476l61.5475-73.2876
		c0.284,0.2224,0.5864,0.4208,0.8664,0.648c0.6692,0.5424,1.2932,1.1272,1.9352,1.6968c3.0709,2.7244,5.8432,5.7624,8.2829,9.0728
		c0.5783,0.7868,1.1731,1.562,1.7103,2.3756c0.5388,0.8136,1.0257,1.6632,1.524,2.5048c0.5628,0.9544,1.1184,1.9128,1.6257,2.8972
		c0.4083,0.7892,0.7875,1.5948,1.1603,2.4044c0.5096,1.112,0.9856,2.2392,1.4248,3.3824c0.2909,0.7548,0.5768,1.5112,0.8368,2.2808
		c0.4264,1.2668,0.7924,2.5556,1.1316,3.8528c0.1848,0.7052,0.3876,1.4028,0.546,2.118c0.3216,1.452,0.556,2.9272,0.766,4.408
		c0.0856,0.6036,0.2096,1.1952,0.276,1.8048c0.2312,2.1016,0.3665,4.2236,0.3665,6.3644v73.8244h-65.8517L84,170.7969V164.4845z
		 M8,114.6601c0-32.078,26.1091-58.1756,58.1991-58.1756h43.6016c10.5972,0,20.5116,2.892,29.0793,7.8596L76,139.2229v17.2616
		h-8.3613c-1.9136-11.3324-11.77-20-23.6387-20c-11.8689,0-21.7253,8.6676-23.6389,20H8V114.6601z M44,144.4845
		c8.8243,0,16,7.1756,16,16c0,8.8244-7.1757,16-16,16c-8.8245,0-16-7.1756-16-16C28,151.6601,35.1755,144.4845,44,144.4845z
		 M168,212.4845H8v-48h12.3611c1.9136,11.3324,11.77,20,23.6389,20c11.8687,0,21.7251-8.6676,23.6387-20H76v9.6876l22.8983,22.3124
		H168V212.4845z"/>
	<path d="M8.6875,43.7969c0.7812,0.7812,1.8045,1.172,2.828,1.172c1.0236,0,2.0468-0.3908,2.828-1.172L20,38.1409l5.6563,5.656
		c0.7812,0.7812,1.8044,1.172,2.828,1.172c1.0237,0,2.0468-0.3908,2.828-1.172c1.5628-1.5624,1.5628-4.0936,0-5.656l-5.656-5.6564
		l5.656-5.6564c1.5628-1.5624,1.5628-4.0936,0-5.656c-1.5624-1.5628-4.0936-1.5628-5.656,0L20,26.8281l-5.6565-5.656
		c-1.5624-1.5628-4.0936-1.5628-5.656,0c-1.5624,1.5624-1.5624,4.0936,0,5.656l5.656,5.6564l-5.656,5.6564
		C7.1251,39.7033,7.1251,42.2345,8.6875,43.7969z"/>
	<path d="M128.6875,23.7969c0.7812,0.7812,1.8045,1.172,2.828,1.172c1.0236,0,2.0468-0.3908,2.828-1.172L140,18.1409l5.6563,5.656
		c0.7812,0.7812,1.8044,1.172,2.828,1.172c1.0237,0,2.0468-0.3908,2.828-1.172c1.5628-1.5624,1.5628-4.0936,0-5.656l-5.656-5.6564
		l5.656-5.6564c1.5628-1.5624,1.5628-4.0936,0-5.656c-1.5624-1.5628-4.0936-1.5628-5.656,0L140,6.8281l-5.6565-5.656
		c-1.5624-1.5628-4.0936-1.5628-5.656,0c-1.5624,1.5624-1.5624,4.0936,0,5.656l5.656,5.6564l-5.656,5.6564
		C127.1251,19.7033,127.1251,22.2345,128.6875,23.7969z"/>
	<path d="M185.6563,52.4845l5.656-5.6564c1.5628-1.5624,1.5628-4.0936,0-5.656c-1.5624-1.5628-4.0936-1.5628-5.656,0L180,46.8281
		l-5.6565-5.656c-1.5624-1.5628-4.0936-1.5628-5.656,0c-1.5624,1.5624-1.5624,4.0936,0,5.656l5.656,5.6564l-5.656,5.6564
		c-1.5624,1.5624-1.5624,4.0936,0,5.656c0.7812,0.7812,1.8045,1.172,2.828,1.172c1.0236,0,2.0468-0.3908,2.828-1.172L180,58.1409
		l5.6563,5.656c0.7812,0.7812,1.8044,1.172,2.828,1.172c1.0237,0,2.0468-0.3908,2.828-1.172c1.5628-1.5624,1.5628-4.0936,0-5.656
		L185.6563,52.4845z"/>
</g>
</svg>
