<?xml version="1.0" encoding="utf-8"?>
<!-- Generator: Adobe Illustrator 19.2.0, SVG Export Plug-In . SVG Version: 6.00 Build 0)  -->
<svg version="1.1" id="astronout" xmlns="http://www.w3.org/2000/svg" xmlns:xlink="http://www.w3.org/1999/xlink" x="0px" y="0px"
	 viewBox="0 0 232 216" enable-background="new 0 0 232 216" xml:space="preserve">
<g>
	<path fill="none" d="M116,40c-42.6816,0-72.4904,26.1797-72.4904,63.664c0,17.8089,6.4416,34.9025,18.176,48.336h108.6288
		c11.7344-13.4335,18.176-30.5271,18.176-48.336C188.4904,66.1797,158.6815,40,116,40z M65.998,110
		c-0.8904,0-1.7872-0.2967-2.5312-0.9023c-1.7088-1.4004-1.9608-3.92-0.5624-5.6308l36-44c1.4004-1.7088,3.918-1.9589,5.6288-0.5624
		c1.7088,1.3984,1.9608,3.918,0.5624,5.6288l-36,43.998C68.3048,109.5,67.1564,110,65.998,110z M115.0956,74.5333l-18,22
		C96.3048,97.5,95.1564,98,93.998,98c-0.8904,0-1.7872-0.2967-2.5312-0.9043c-1.7088-1.3984-1.9608-3.918-0.5624-5.6288l18-22
		c1.3984-1.7109,3.918-1.9589,5.6288-0.5624C116.242,70.3029,116.494,72.8225,115.0956,74.5333z"/>
	<path fill="none" d="M116.0312,19.1193c12.8668,0,25.2316-1.5548,35.8268-4.4448C140.7184,10.3793,128.6351,8,116,8
		c-12.6212,0-24.692,2.3741-35.8212,6.66C90.7836,17.5557,103.1608,19.1193,116.0312,19.1193z"/>
	<path fill="none" d="M162.6284,19.5749c-12.9848,4.8564-29.4,7.5444-46.5972,7.5444c-17.2,0-33.65-2.6928-46.6376-7.5556
		C37.6728,36.3489,16,69.6829,16,108c0,55.1409,44.8592,100,100,100c55.1407,0,100-44.8591,100-100
		C216,69.6917,194.3376,36.3637,162.6284,19.5749z M144,188.7461H84c-2.2088,0-4-1.7888-4-4c0-2.2108,1.7912-4,4-4h60
		c2.2088,0,4,1.7892,4,4C148,186.9573,146.2088,188.7461,144,188.7461z M156,176.7461H72c-2.2088,0-4-1.7888-4-4
		c0-2.2108,1.7912-4,4-4h84c2.2088,0,4,1.7892,4,4C160,174.9573,158.2088,176.7461,156,176.7461z M175.0547,158.6993L173.8652,160
		H58.1348l-1.1896-1.3007c-13.822-15.0976-21.4356-34.6444-21.4356-55.0353C35.5096,61.4689,68.6092,32,116,32
		c47.3907,0,80.4904,29.4689,80.4904,71.664C196.4904,124.0549,188.8768,143.6017,175.0547,158.6993z"/>
	<path d="M116,0C56.4492,0,8,48.4493,8,108c0,59.5509,48.4492,108,108,108c59.5508,0,108-48.4491,108-108
		C224,48.4493,175.5508,0,116,0z M151.858,14.6745c-10.5952,2.89-22.96,4.4448-35.8268,4.4448
		c-12.8704,0-25.2476-1.5636-35.8524-4.4593C91.308,10.3741,103.3788,8,116,8C128.6351,8,140.7184,10.3793,151.858,14.6745z
		 M116,208c-55.1408,0-100-44.8591-100-100c0-38.3171,21.6728-71.6511,53.3936-88.4363
		c12.9876,4.8628,29.4376,7.5556,46.6376,7.5556c17.1972,0,33.6124-2.688,46.5972-7.5444C194.3376,36.3637,216,69.6917,216,108
		C216,163.1409,171.1407,208,116,208z"/>
	<path d="M116,32c-47.3908,0-80.4904,29.4689-80.4904,71.664c0,20.3909,7.6136,39.9377,21.4356,55.0353L58.1348,160h115.7304
		l1.1896-1.3007c13.822-15.0976,21.4356-34.6444,21.4356-55.0353C196.4904,61.4689,163.3907,32,116,32z M170.3143,152H61.6856
		c-11.7344-13.4335-18.176-30.5271-18.176-48.336C43.5096,66.1797,73.3184,40,116,40c42.6815,0,72.4904,26.1797,72.4904,63.664
		C188.4904,121.4729,182.0488,138.5665,170.3143,152z"/>
	<path d="M156,168.7461H72c-2.2088,0-4,1.7892-4,4c0,2.2112,1.7912,4,4,4h84c2.2088,0,4-1.7888,4-4
		C160,170.5353,158.2088,168.7461,156,168.7461z"/>
	<path d="M144,180.7461H84c-2.2088,0-4,1.7892-4,4c0,2.2112,1.7912,4,4,4h60c2.2088,0,4-1.7888,4-4
		C148,182.5353,146.2088,180.7461,144,180.7461z"/>
	<path d="M200,184v8c13.2343,0,24,10.7657,24,24h8C232,198.3557,217.6443,184,200,184z"/>
	<path d="M0,216h8c0-13.2343,10.7656-24,24-24v-8C14.3556,184,0,198.3557,0,216z"/>
	<path d="M104.5332,58.9045c-1.7108-1.3965-4.2284-1.1464-5.6288,0.5624l-36,44c-1.3984,1.7108-1.1464,4.2304,0.5624,5.6308
		C64.2108,109.7033,65.1076,110,65.998,110c1.1584,0,2.3068-0.5,3.0976-1.4687l36-43.998
		C106.494,62.8225,106.242,60.3029,104.5332,58.9045z"/>
	<path d="M108.9044,69.4669l-18,22c-1.3984,1.7108-1.1464,4.2304,0.5624,5.6288C92.2108,97.7033,93.1076,98,93.998,98
		c1.1584,0,2.3068-0.5,3.0976-1.4667l18-22c1.3984-1.7108,1.1464-4.2304-0.5624-5.6288
		C112.8224,67.508,110.3028,67.756,108.9044,69.4669z"/>
</g>
</svg>
