<?xml version="1.0" encoding="utf-8"?>
<!-- Generator: Adobe Illustrator 19.2.0, SVG Export Plug-In . SVG Version: 6.00 Build 0)  -->
<svg version="1.1" id="atom" xmlns="http://www.w3.org/2000/svg" xmlns:xlink="http://www.w3.org/1999/xlink" x="0px" y="0px"
	 viewBox="0 0 216 216" enable-background="new 0 0 216 216" xml:space="preserve">
<g>
	<path fill="none" d="M124.3299,68.5692C118.9991,68.2012,113.5471,68,108,68c-5.5349,0-10.9753,0.2008-16.2949,0.5664
		c-4.0516,3.538-8.068,7.2264-11.9904,11.1484c-3.9404,3.9404-7.626,7.9644-11.15,12.0128C68.2,97.04,68,102.4728,68,108
		c0,5.5264,0.2,10.958,0.5647,16.2704c3.524,4.048,7.2096,8.0724,11.15,12.0128c3.9232,3.9228,7.9404,7.6112,11.9928,11.1504
		C97.0263,147.8,102.4659,148,108,148c5.5351,0,10.9751-0.2008,16.2951-0.5664c4.0516-3.538,8.0676-7.2264,11.99-11.1484
		c3.9404-3.9404,7.626-7.9644,11.15-12.0128C147.8,118.96,148,113.5272,148,108c0-5.528-0.2-10.9608-0.5653-16.2744
		c-3.5236-4.0484-7.2096-8.0724-11.1496-12.0128C132.3611,75.7892,128.3611,72.08,124.3299,68.5692z M108,124
		c-8.8245,0-16-7.1776-16-16s7.1755-16,16-16c8.8243,0,16,7.1776,16,16S116.8243,124,108,124z"/>
	<path fill="none" d="M72.5395,62.5664c5.1336-0.7696,10.4504-1.3732,15.9232-1.8008c4.1404-3.534,8.3264-6.8228,12.5296-9.9268
		c-7.4344-4.8536-14.716-8.8584-21.6056-11.9032C76.676,45.9432,74.3615,53.9024,72.5395,62.5664z"/>
	<path fill="none" d="M137.5587,69.8612c1.462,1.3948,2.932,2.7452,4.3828,4.1956c1.4508,1.4512,2.8025,2.9216,4.1972,4.384
		c-0.326-2.5364-0.7-5.024-1.1048-7.4748C142.5831,70.5616,140.0955,70.1876,137.5587,69.8612z"/>
	<path fill="none" d="M108,60c2.0123,0,4.0075,0.0268,5.9895,0.0728c-2.0012-1.5436-4.0015-3.0376-5.9975-4.4672
		c-2.0181,1.448-4.0369,2.9116-6.0489,4.4696C103.9475,60.028,105.9647,60,108,60z"/>
	<path fill="none" d="M60,108c0-2.0108,0.0267-4.0052,0.0727-5.9864c-1.5407,1.9972-2.9988,3.9932-4.4264,5.9856
		c1.4276,1.992,2.8852,3.9876,4.426,5.9848C60.0267,112.004,60,110.0104,60,108z"/>
	<path fill="none" d="M74.0583,74.0584c1.44-1.4396,2.9124-2.8032,4.3732-4.1956c-2.5336,0.3256-5.0176,0.6988-7.4656,1.1032
		c-0.4048,2.452-0.7792,4.9392-1.1052,7.4772C71.256,76.9804,72.6075,75.5096,74.0583,74.0584z"/>
	<path fill="none" d="M50.8347,100.962c3.074-4.1584,6.378-8.3224,9.9296-12.4796c0.4277-5.4796,1.032-10.8028,1.802-15.9424
		c-8.6588,1.8208-16.6132,4.1332-23.618,6.842C41.9899,86.2648,45.988,93.5348,50.8347,100.962z"/>
	<path fill="none" d="M127.5371,155.2344c-4.1464,3.5392-8.3388,6.8328-12.5488,9.9412c7.3272,4.7804,14.5928,8.756,21.6444,11.838
		c2.7024-6.996,5.01-14.9364,6.8276-23.58C138.3263,154.2032,133.0103,154.8068,127.5371,155.2344z"/>
	<path fill="none" d="M62.5663,143.46c-0.77-5.1408-1.3743-10.4644-1.8023-15.9448c-3.5513-4.1568-6.8553-8.3208-9.9293-12.4792
		c-4.8472,7.428-8.8456,14.6984-11.8872,21.5812C45.9527,139.326,53.9071,141.6392,62.5663,143.46z"/>
	<path fill="none" d="M108,100c-4.4101,0-8,3.588-8,8s3.5899,8,8,8c4.4099,0,8-3.588,8-8S112.4099,100,108,100z"/>
	<path fill="none" d="M180.0367,71.9648c5.4172-15.2804,5.4433-27.9068-1.326-34.6756c-3.4296-3.43-8.6092-5.1428-15.1092-5.1428
		c-5.608,0-12.24,1.3496-19.5372,3.8964c3.2444,8.2572,5.9208,17.674,7.9128,27.9792
		C162.3151,66.02,171.7607,68.7072,180.0367,71.9648z"/>
	<path fill="none" d="M127.5183,60.7648c5.4796,0.4276,10.802,1.0316,15.942,1.8016c-1.8176-8.644-4.126-16.5848-6.8283-23.5816
		c-7.0461,3.0792-14.3053,7.0512-21.6265,11.8268C119.1751,53.8916,123.3499,57.2036,127.5183,60.7648z"/>
	<path fill="none" d="M88.4651,155.2344c-5.4736-0.4276-10.7908-1.0312-15.9256-1.8008c1.8176,8.644,4.126,16.5848,6.8285,23.5816
		c7.052-3.082,14.3183-7.0592,21.6459-11.8396C96.804,162.0672,92.612,158.774,88.4651,155.2344z"/>
	<path fill="none" d="M144.0635,179.9588c15.756,5.5016,28.2576,5.1416,34.6472-1.25c6.7688-6.7684,6.7432-19.3944,1.3264-34.674
		c-8.276,3.258-17.7216,5.9452-28.06,7.9432C149.9851,162.284,147.3083,171.7016,144.0635,179.9588z"/>
	<path fill="none" d="M35.9631,144.0352c-5.4172,15.2804-5.4431,27.9068,1.326,34.6756c6.386,6.3884,18.8884,6.7472,34.6472,1.2492
		c-3.2448-8.258-5.9216-17.676-7.9136-27.982C53.6843,149.98,44.2391,147.2928,35.9631,144.0352z"/>
	<path fill="none" d="M71.9595,35.9804c-7.214-2.5556-13.8552-3.9492-19.5456-3.9492c-6.3556,0-11.5548,1.6856-15.1248,5.256
		c-6.7696,6.7696-6.7432,19.3964-1.3251,34.6776c8.2755-3.2584,17.7207-5.9452,28.0587-7.9428
		C66.0195,53.6916,68.7043,44.252,71.9595,35.9804z"/>
	<path fill="none" d="M31.6291,82.5128C16.96,89.4912,8,98.4152,8,108s8.96,18.5088,23.6287,25.4868
		c3.55-8.1708,8.2944-16.7464,14.2036-25.4876C39.9235,99.2588,35.1795,90.6836,31.6291,82.5128z"/>
	<path fill="none" d="M108.0015,170.1216c-8.6048,5.816-17.1815,10.6188-25.4904,14.2464C89.4895,199.0392,98.4139,208,108,208
		c9.5863,0,18.5111-8.962,25.4895-23.6328C125.1811,180.7392,116.6051,175.9364,108.0015,170.1216z"/>
	<path fill="none" d="M74.0583,141.9396c-1.4508-1.4512-2.8028-2.922-4.198-4.3848c0.3264,2.538,0.7004,5.0268,1.1056,7.4792
		c2.4484,0.4044,4.9336,0.778,7.468,1.1036C76.9727,144.744,75.4991,143.38,74.0583,141.9396z"/>
	<path fill="none" d="M184.3711,82.5132c-3.55,8.1704-8.2936,16.7456-14.202,25.486c5.9088,8.7404,10.6528,17.3164,14.2029,25.4872
		C199.0403,126.5084,208,117.5848,208,108S199.04,89.4912,184.3711,82.5132z"/>
	<path fill="none" d="M153.4335,72.54c0.7696,5.1392,1.3736,10.4608,1.8016,15.9404c3.5524,4.1572,6.8569,8.3224,9.9312,12.4816
		c4.8464-7.4268,8.8444-14.6968,11.886-21.5792C170.0471,76.674,162.0927,74.3608,153.4335,72.54z"/>
	<path fill="none" d="M141.9415,141.9416c-1.44,1.4396-2.9124,2.8032-4.3732,4.1956c2.5336-0.3256,5.0176-0.6988,7.4656-1.1032
		c0.4048-2.452,0.7792-4.9392,1.1052-7.4772C144.744,139.0196,143.3923,140.4904,141.9415,141.9416z"/>
	<path fill="none" d="M133.4887,31.632C126.5103,16.9608,117.5859,8,108,8c-9.5857,0-18.5093,8.96-25.4873,23.6284
		c8.1816,3.5552,16.7692,8.306,25.522,14.226C116.6271,40.05,125.1915,35.2548,133.4887,31.632z"/>
	<path fill="none" d="M108,156c-2.0341,0-4.0505-0.028-6.0541-0.0752c2.0144,1.5596,4.0348,3.0248,6.0552,4.4748
		c2.0204-1.4504,4.0412-2.9152,6.0556-4.4748C112.0523,155.972,110.0351,156,108,156z"/>
	<path fill="none" d="M165.1663,115.036c-3.0743,4.1592-6.3783,8.3232-9.9308,12.4816c-0.4275,5.4796-1.032,10.8028-1.802,15.9424
		c8.6596-1.8208,16.6145-4.134,23.6196-6.8428C174.0115,129.7344,170.0131,122.464,165.1663,115.036z"/>
	<path fill="none" d="M156,108c0,2.0108-0.0269,4.0052-0.0729,5.9864c1.5412-1.998,2.9996-3.9944,4.4276-5.9872
		c-1.428-1.9932-2.8864-3.9896-4.4276-5.9876C155.9731,103.9932,156,105.9884,156,108z"/>
	<path d="M216,108c0-12.8472-10.8257-24.358-28.7089-32.8896c6.5736-18.632,6.1424-34.4112-2.924-43.4776
		c-8.8492-8.8524-24.222-9.7792-43.4804-2.9276C132.3555,10.8244,120.8451,0,108,0C95.1539,0,83.6431,10.8252,75.112,28.7088
		c-18.6349-6.576-34.4157-6.1452-43.4793,2.922c-9.0668,9.0668-9.4976,24.8472-2.9236,43.4796C10.8255,83.6416,0,95.1524,0,108
		c0,12.8472,10.8255,24.358,28.7087,32.8896c-6.5736,18.632-6.1424,34.4112,2.924,43.4776c4.996,4.998,12.0548,7.502,20.7228,7.502
		c6.6836,0,14.3728-1.5824,22.7612-4.5664C83.648,205.1792,95.1563,216,108,216c12.844,0,24.3527-10.8212,32.8835-28.6992
		c8.3885,2.9844,16.0772,4.5664,22.7608,4.5664c8.668,0,15.7268-2.504,20.7228-7.502c9.066-9.0664,9.4976-24.8448,2.9249-43.476
		C205.1751,132.358,216,120.8468,216,108z M163.6015,32.1464c6.5,0,11.6796,1.7128,15.1092,5.1428
		c6.7693,6.7688,6.7432,19.3952,1.326,34.6756c-8.276-3.2576-17.7216-5.9448-28.0596-7.9428
		c-1.992-10.3052-4.6684-19.722-7.9128-27.9792C151.3615,33.496,157.9935,32.1464,163.6015,32.1464z M136.6327,177.0136
		c-7.0516-3.082-14.3172-7.0576-21.6444-11.838c4.21-3.1084,8.4024-6.402,12.5488-9.9412
		c5.4732-0.4276,10.7892-1.0312,15.9232-1.8008C141.6427,162.0772,139.3351,170.0176,136.6327,177.0136z M72.5395,153.4336
		c5.1348,0.7696,10.452,1.3732,15.9256,1.8008c4.1469,3.5396,8.3389,6.8328,12.5488,9.9412
		c-7.3276,4.7804-14.5939,8.7576-21.6459,11.8396C76.6655,170.0184,74.3571,162.0776,72.5395,153.4336z M143.4603,62.5664
		c-5.14-0.77-10.4624-1.374-15.942-1.8016c-4.1684-3.5612-8.3432-6.8732-12.5128-9.9532
		c7.3212-4.7756,14.5804-8.7476,21.6265-11.8268C139.3343,45.9816,141.6427,53.9224,143.4603,62.5664z M148,108
		c0,5.5272-0.2,10.96-0.5649,16.2724c-3.524,4.0484-7.2096,8.0724-11.15,12.0128c-3.9224,3.922-7.9384,7.6104-11.99,11.1484
		C118.9751,147.7992,113.5351,148,108,148c-5.5341,0-10.9737-0.2-16.2925-0.5664c-4.0524-3.5392-8.0696-7.2276-11.9928-11.1504
		c-3.9404-3.9404-7.626-7.9648-11.15-12.0128C68.2,118.958,68,113.5264,68,108c0-5.5272,0.2-10.96,0.5647-16.2724
		c3.524-4.0484,7.2096-8.0724,11.15-12.0128c3.9224-3.922,7.9388-7.6104,11.9904-11.1484C97.0247,68.2008,102.4651,68,108,68
		c5.5471,0,10.9991,0.2012,16.3299,0.5692c4.0312,3.5108,8.0312,7.22,11.9552,11.1436c3.94,3.9404,7.626,7.9644,11.1496,12.0128
		C147.8,97.0392,148,102.472,148,108z M141.9415,74.0568c-1.4508-1.4504-2.9208-2.8008-4.3828-4.1956
		c2.5368,0.3264,5.0244,0.7004,7.4752,1.1048c0.4048,2.4508,0.7788,4.9384,1.1048,7.4748
		C144.744,76.9784,143.3923,75.508,141.9415,74.0568z M113.9895,60.0728C112.0075,60.0268,110.0123,60,108,60
		c-2.0353,0-4.0525,0.028-6.0569,0.0752c2.012-1.558,4.0308-3.0216,6.0489-4.4696
		C109.988,57.0352,111.9883,58.5292,113.9895,60.0728z M88.4627,60.7656c-5.4728,0.4276-10.7896,1.0312-15.9232,1.8008
		c1.822-8.664,4.1365-16.6232,6.8472-23.6308c6.8896,3.0448,14.1712,7.0496,21.6056,11.9032
		C96.7891,53.9428,92.6031,57.2316,88.4627,60.7656z M78.4315,69.8628c-1.4608,1.3924-2.9332,2.756-4.3732,4.1956
		c-1.4508,1.4512-2.8023,2.922-4.1976,4.3848c0.326-2.538,0.7004-5.0252,1.1052-7.4772
		C73.4139,70.5616,75.8979,70.1884,78.4315,69.8628z M60.7643,88.4824c-3.5516,4.1572-6.8556,8.3212-9.9296,12.4796
		c-4.8467-7.4272-8.8448-14.6972-11.8864-21.58c7.0048-2.7088,14.9592-5.0212,23.618-6.842
		C61.7963,77.6796,61.192,83.0028,60.7643,88.4824z M60.0727,102.0136C60.0267,103.9948,60,105.9892,60,108
		c0,2.0104,0.0267,4.004,0.0723,5.984c-1.5408-1.9972-2.9984-3.9928-4.426-5.9848
		C57.0739,106.0068,58.532,104.0108,60.0727,102.0136z M60.764,127.5152c0.428,5.4804,1.0323,10.804,1.8023,15.9448
		c-8.6592-1.8208-16.6136-4.134-23.6188-6.8428c3.0416-6.8828,7.04-14.1532,11.8872-21.5812
		C53.9087,119.1944,57.2127,123.3584,60.764,127.5152z M69.8603,137.5548c1.3952,1.4628,2.7472,2.9336,4.198,4.3848
		c1.4408,1.4404,2.9144,2.8044,4.3756,4.198c-2.5344-0.3256-5.0196-0.6992-7.468-1.1036
		C70.5607,142.5816,70.1867,140.0928,69.8603,137.5548z M101.9459,155.9248C103.9495,155.972,105.9659,156,108,156
		c2.0351,0,4.0523-0.028,6.0567-0.0752c-2.0144,1.5596-4.0352,3.0244-6.0556,4.4748
		C105.9807,158.9496,103.9603,157.4844,101.9459,155.9248z M137.5683,146.1372c1.4608-1.3924,2.9332-2.756,4.3732-4.1956
		c1.4508-1.4512,2.8025-2.922,4.1976-4.3848c-0.326,2.538-0.7004,5.0252-1.1052,7.4772
		C142.5859,145.4384,140.1019,145.8116,137.5683,146.1372z M155.2355,127.5176c3.5525-4.1584,6.8565-8.3224,9.9308-12.4816
		c4.8468,7.428,8.8452,14.6984,11.8868,21.5812c-7.0051,2.7088-14.96,5.022-23.6196,6.8428
		C154.2035,138.3204,154.808,132.9972,155.2355,127.5176z M155.9271,113.9864C155.9731,112.0052,156,110.0108,156,108
		c0-2.0116-0.0269-4.0068-0.0729-5.9884c1.5412,1.998,2.9996,3.9944,4.4276,5.9876
		C158.9267,109.992,157.4683,111.9884,155.9271,113.9864z M155.2351,88.4804c-0.428-5.4796-1.032-10.8012-1.8016-15.9404
		c8.6592,1.8208,16.6136,4.134,23.6188,6.8428c-3.0416,6.8824-7.0396,14.1524-11.886,21.5792
		C162.092,96.8028,158.7875,92.6376,155.2351,88.4804z M108,8c9.5859,0,18.5103,8.9608,25.4887,23.632
		c-8.2972,3.6228-16.8616,8.418-25.454,14.2224c-8.7528-5.92-17.3404-10.6708-25.522-14.226C89.4907,16.96,98.4143,8,108,8z
		 M37.2891,37.2872c3.57-3.5704,8.7692-5.256,15.1248-5.256c5.6904,0,12.3316,1.3936,19.5456,3.9492
		c-3.2552,8.2716-5.94,17.7112-7.9368,28.0416c-10.338,1.9976-19.7832,4.6844-28.0587,7.9428
		C30.5459,56.6836,30.5195,44.0568,37.2891,37.2872z M8,108c0-9.5848,8.96-18.5088,23.6291-25.4872
		c3.5504,8.1708,8.2944,16.746,14.2032,25.4864c-5.9092,8.7412-10.6536,17.3168-14.2036,25.4876C16.96,126.5088,8,117.5848,8,108z
		 M37.2891,178.7108c-6.7691-6.7688-6.7432-19.3952-1.326-34.6756c8.276,3.2576,17.7212,5.9448,28.0596,7.9428
		c1.992,10.306,4.6688,19.724,7.9136,27.982C56.1775,185.458,43.6751,185.0992,37.2891,178.7108z M108,208
		c-9.5861,0-18.5105-8.9608-25.4889-23.632c8.3089-3.6276,16.8856-8.4304,25.4904-14.2464
		c8.6036,5.8148,17.1796,10.6176,25.488,14.2456C126.5111,199.038,117.5863,208,108,208z M178.7107,178.7088
		c-6.3896,6.3916-18.8912,6.7516-34.6472,1.25c3.2448-8.2572,5.9216-17.6748,7.9136-27.9808
		c10.3384-1.998,19.784-4.6852,28.06-7.9432C185.4539,159.3144,185.4795,171.9404,178.7107,178.7088z M184.372,133.4864
		c-3.5501-8.1708-8.2941-16.7468-14.2029-25.4872c5.9084-8.7404,10.652-17.3156,14.202-25.486C199.04,89.4912,208,98.4152,208,108
		S199.0403,126.5084,184.372,133.4864z"/>
	<path d="M108,92c-8.8245,0-16,7.1776-16,16s7.1755,16,16,16c8.8243,0,16-7.1776,16-16S116.8243,92,108,92z M108,116
		c-4.4101,0-8-3.588-8-8s3.5899-8,8-8c4.4099,0,8,3.588,8,8S112.4099,116,108,116z"/>
</g>
</svg>
