<?xml version="1.0" encoding="utf-8"?>
<!-- Generator: Adobe Illustrator 19.2.0, SVG Export Plug-In . SVG Version: 6.00 Build 0)  -->
<svg version="1.1" id="bomb" xmlns="http://www.w3.org/2000/svg" xmlns:xlink="http://www.w3.org/1999/xlink" x="0px" y="0px"
	 viewBox="0 0 226.0325 215.2928" enable-background="new 0 0 226.0325 215.2928" xml:space="preserve">
<g>
	<path fill="none" d="M149.8848,71.2732c-11.5292,0-23.2032,2.93-33.8848,9.098c-15.7304,9.082-26.9824,23.746-31.6836,41.2888
		c-4.7012,17.5452-2.2872,35.8712,6.7948,51.5996c9.0804,15.7304,23.7444,26.9824,41.2892,31.6836
		c17.5412,4.6936,35.8652,2.2872,51.5996-6.7948c15.7304-9.08,26.9824-23.744,31.6836-41.2892
		c4.7012-17.5448,2.2872-35.8692-6.7948-51.5996C196.3084,83.4708,173.4024,71.2732,149.8848,71.2732z M125,95.9588
		c-23.8768,13.7852-32.086,44.424-18.3008,68.3008c1.1036,1.914,0.4492,4.3596-1.4648,5.4648
		c-0.6288,0.3636-1.3184,0.5352-1.996,0.5352c-1.3828,0-2.7268-0.7168-3.4688-2C83.7792,140.5624,93.3028,105.0216,121,89.0292
		c1.9064-1.1076,4.3576-0.4492,5.4648,1.4648C127.5684,92.408,126.914,94.8536,125,95.9588z"/>
	
		<rect x="94.0007" y="65.9795" transform="matrix(0.8659 -0.5001 0.5001 0.8659 -20.2529 64.3965)" fill="none" width="31.9986" height="7.9977"/>
	<path d="M215.8184,101.2596C199.06,72.2348,165.922,58.5,134.7568,64.8572l-7.9716-13.8064
		c-1.1076-1.914-3.5588-2.5704-5.4648-1.4648l-13.96,8.0596C100.5616,47.08,90.272,39.4852,78.0528,36.2108
		c-13.0216-3.49-26.6212-1.7012-38.3028,5.0412c-1.914,1.1052-2.5684,3.5508-1.4648,5.4648c1.1036,1.91,3.5468,2.5664,5.4648,1.4648
		c9.826-5.674,21.2716-7.1776,32.2324-4.244c10.1552,2.7216,18.7272,8.99,24.4488,17.7088L86.6796,69.586
		c-0.918,0.5312-1.5896,1.404-1.8632,2.4296c-0.2752,1.0252-0.1308,2.1172,0.3984,3.0352l7.9624,13.79
		C85.424,97.5624,79.698,107.99,76.59,119.5896c-5.254,19.6096-2.5588,40.09,7.5916,57.67
		c10.1504,17.58,26.5392,30.1564,46.1484,35.4104c6.5468,1.7556,13.1916,2.6228,19.7932,2.6228
		c13.168,0,26.166-3.4548,37.8768-10.2148c17.58-10.1504,30.1564-26.5392,35.41-46.1484
		C228.664,139.322,225.9688,118.8396,215.8184,101.2596z M121.8556,58.5156l4,6.9256l-27.7112,16l-4-6.9256L121.8556,58.5156z
		 M215.6836,156.8592c-4.7012,17.5452-15.9532,32.2092-31.6836,41.2892c-15.7344,9.082-34.0584,11.4884-51.5996,6.7948
		c-17.5448-4.7012-32.2088-15.9532-41.2892-31.6836c-9.082-15.7284-11.496-34.0544-6.7948-51.5996
		C89.0176,104.1172,100.2696,89.4532,116,80.3712c10.6816-6.168,22.3556-9.098,33.8848-9.098
		c23.5176,0,46.4236,12.1976,59.004,33.9864C217.9708,120.99,220.3848,139.3144,215.6836,156.8592z"/>
	<path d="M121,89.0292c-27.6972,15.9924-37.2208,51.5332-21.2304,79.2304c0.742,1.2832,2.086,2,3.4688,2
		c0.6776,0,1.3672-0.1716,1.996-0.5352c1.914-1.1052,2.5684-3.5508,1.4648-5.4648C92.914,140.3828,101.1232,109.744,125,95.9588
		c1.914-1.1052,2.5684-3.5508,1.4648-5.4648C125.3576,88.58,122.9064,87.9216,121,89.0292z"/>
	<rect x="16.0001" y="-4.8752" transform="matrix(0.5547 -0.832 0.832 0.5547 -2.3657 22.6732)" width="7.9997" height="36.8441"/>
	<rect x="-0.1243" y="67.547" transform="matrix(0.4961 -0.8682 0.8682 0.4961 -52.043 53.4154)" width="40.2486" height="7.9995"/>
	<rect y="31.5468" width="28" height="8"/>
</g>
</svg>
