<?xml version="1.0" encoding="utf-8"?>
<!-- Generator: Adobe Illustrator 19.2.0, SVG Export Plug-In . SVG Version: 6.00 Build 0)  -->
<svg version="1.1" id="cheesemoon" xmlns="http://www.w3.org/2000/svg" xmlns:xlink="http://www.w3.org/1999/xlink" x="0px" y="0px"
	 viewBox="0 0 224 224" enable-background="new 0 0 224 224" xml:space="preserve">
<g>
	<path fill="none" d="M90,144c-9.9256,0-18,8.0744-18,18s8.0744,18,18,18c9.9256,0,18-8.0744,18-18S99.9256,144,90,144z"/>
	<path fill="none" d="M176,120c-6.6172,0-12,5.3828-12,12s5.3828,12,12,12c6.6172,0,12-5.3828,12-12S182.6172,120,176,120z"/>
	<circle fill="none" cx="54" cy="94" r="6"/>
	<path fill="none" d="M118,44c-5.5136,0-10,4.4864-10,10s4.4864,10,10,10c5.5136,0,10-4.4864,10-10S123.5136,44,118,44z"/>
	<path fill="none" d="M204.2128,63.8652C203.4823,63.9552,202.742,64,202,64c-9.9256,0-18-8.0744-18-18
		c0-2.6076,0.5527-5.1388,1.6152-7.4648C165.9747,18.8184,139.9492,8,112,8C54.6544,8,8,54.6544,8,112
		c0,2.0156,0.0584,4.0488,0.174,6.0704C17.6172,122.1056,24,131.5744,24,142c0,5.7872-1.8924,11.3164-5.3788,15.8416
		C36.0428,193.256,72.414,216,112,216c14.0352,0,27.5995-2.7324,40.3752-8.1252C152.1252,206.6076,152,205.3124,152,204
		c0-11.0272,8.9727-20,20-20c4.162,0,8.1112,1.252,11.4355,3.582C204.174,167.9688,216,140.6192,216,112
		C216,95.2148,211.9335,78.6368,204.2128,63.8652z M54,108c-7.7188,0-14-6.2812-14-14s6.2812-14,14-14c7.7188,0,14,6.2812,14,14
		S61.7188,108,54,108z M90,188c-14.336,0-26-11.664-26-26s11.664-26,26-26s26,11.664,26,26S104.336,188,90,188z M118,72
		c-9.9256,0-18-8.0744-18-18s8.0744-18,18-18c9.9256,0,18,8.0744,18,18S127.9256,72,118,72z M176,152c-11.0273,0-20-8.9728-20-20
		s8.9727-20,20-20c11.0271,0,20,8.9728,20,20S187.0271,152,176,152z"/>
	<path d="M209.7948,57.3732c-0.9316-1.666-2.908-2.4396-4.7188-1.8536C204.088,55.838,203.0527,56,202,56c-5.5136,0-10-4.4864-10-10
		c0-2.088,0.6348-4.086,1.838-5.7772c1.1036-1.5548,0.9568-3.674-0.3516-5.0608C172.0975,12.4864,143.1584,0,112,0
		C50.242,0,0,50.242,0,112c0,3.08,0.1268,6.1952,0.3768,9.2596c0.1328,1.6408,1.256,3.0316,2.832,3.506
		C10.7404,127.0372,16,134.1232,16,142c0,4.662-1.7752,9.084-4.998,12.4472c-1.1368,1.1876-1.4316,2.9512-0.7424,4.4436
		C28.5196,198.4432,68.4552,224,112,224c16.3632,0,32.1387-3.4512,46.8848-10.256c1.9492-0.9004,2.8416-3.1796,2.0196-5.162
		C160.3047,207.1308,160,205.59,160,204c0-6.6172,5.3828-12,12-12c3.2948,0,6.3672,1.3084,8.6524,3.6836
		c1.4864,1.5488,3.9256,1.6408,5.5332,0.2248C210.2168,174.6464,224,144.0624,224,112C224,92.8632,219.088,73.9728,209.7948,57.3732
		z M183.4355,187.582C180.1112,185.252,176.162,184,172,184c-11.0273,0-20,8.9728-20,20c0,1.3124,0.1252,2.6076,0.3752,3.8748
		C139.5995,213.2676,126.0352,216,112,216c-39.586,0-75.9572-22.744-93.3788-58.1584C22.1076,153.3164,24,147.7872,24,142
		c0-10.4256-6.3828-19.8944-15.826-23.9296C8.0584,116.0488,8,114.0156,8,112C8,54.6544,54.6544,8,112,8
		c27.9492,0,53.9747,10.8184,73.6152,30.5352C184.5527,40.8612,184,43.3924,184,46c0,9.9256,8.0744,18,18,18
		c0.742,0,1.4823-0.0448,2.2128-0.1348C211.9335,78.6368,216,95.2148,216,112C216,140.6192,204.174,167.9688,183.4355,187.582z"/>
	<path d="M118,36c-9.9256,0-18,8.0744-18,18s8.0744,18,18,18c9.9256,0,18-8.0744,18-18S127.9256,36,118,36z M118,64
		c-5.5136,0-10-4.4864-10-10s4.4864-10,10-10c5.5136,0,10,4.4864,10,10S123.5136,64,118,64z"/>
	<path d="M176,112c-11.0273,0-20,8.9728-20,20s8.9727,20,20,20c11.0271,0,20-8.9728,20-20S187.0271,112,176,112z M176,144
		c-6.6172,0-12-5.3828-12-12s5.3828-12,12-12c6.6172,0,12,5.3828,12,12S182.6172,144,176,144z"/>
	<path d="M90,136c-14.336,0-26,11.664-26,26s11.664,26,26,26s26-11.664,26-26S104.336,136,90,136z M90,180
		c-9.9256,0-18-8.0744-18-18s8.0744-18,18-18c9.9256,0,18,8.0744,18,18S99.9256,180,90,180z"/>
	<path d="M54,80c-7.7188,0-14,6.2812-14,14s6.2812,14,14,14c7.7188,0,14-6.2812,14-14S61.7188,80,54,80z M54,100
		c-3.3084,0-6-2.6916-6-6s2.6916-6,6-6c3.3084,0,6,2.6916,6,6S57.3084,100,54,100z"/>
</g>
</svg>
