<?xml version="1.0" encoding="utf-8"?>
<!-- Generator: Adobe Illustrator 19.2.0, SVG Export Plug-In . SVG Version: 6.00 Build 0)  -->
<svg version="1.1" id="circlesradiant" xmlns="http://www.w3.org/2000/svg" xmlns:xlink="http://www.w3.org/1999/xlink" x="0px"
	 y="0px" viewBox="0 0 224 200" enable-background="new 0 0 224 200" xml:space="preserve">
<g>
	<path fill="none" d="M112,112c8.8243,0,16-7.1756,16-16s-7.1757-16-16-16c-8.8245,0-16,7.1756-16,16S103.1755,112,112,112z"/>
	<path fill="none" d="M60,68c4.4099,0,8-3.59,8-8s-3.5901-8-8-8c-4.4101,0-8,3.59-8,8S55.5899,68,60,68z"/>
	<path fill="none" d="M112,56c4.4099,0,8-3.59,8-8c0-4.41-3.5901-8-8-8c-4.4101,0-8,3.59-8,8C104,52.41,107.5899,56,112,56z"/>
	<path fill="none" d="M16,80c-4.4101,0-8,3.59-8,8s3.5899,8,8,8c4.4099,0,8-3.59,8-8S20.4099,80,16,80z"/>
	<path fill="none" d="M164,68c4.4099,0,8-3.59,8-8s-3.5901-8-8-8c-4.4101,0-8,3.59-8,8S159.5899,68,164,68z"/>
	<circle fill="none" cx="112" cy="12" r="4"/>
	<circle fill="none" cx="184" cy="28" r="4"/>
	<circle fill="none" cx="36" cy="28" r="4"/>
	<path fill="none" d="M52,104c-8.8245,0-16,7.1756-16,16s7.1755,16,16,16c8.8243,0,16-7.1756,16-16S60.8243,104,52,104z"/>
	<path fill="none" d="M172,104c-8.8245,0-16,7.1756-16,16s7.1755,16,16,16c8.8243,0,16-7.1756,16-16S180.8243,104,172,104z"/>
	<path fill="none" d="M112,136c-15.4377,0-28,12.5624-28,28s12.5623,28,28,28c15.4375,0,28-12.5624,28-28S127.4375,136,112,136z"/>
	<path fill="none" d="M208,80c-4.4101,0-8,3.59-8,8s3.5899,8,8,8c4.4099,0,8-3.59,8-8S212.4099,80,208,80z"/>
	<path d="M112,128c-19.8517,0-36,16.1484-36,36s16.1483,36,36,36c19.8515,0,36-16.1484,36-36S131.8515,128,112,128z M112,192
		c-15.4377,0-28-12.5624-28-28s12.5623-28,28-28c15.4375,0,28,12.5624,28,28S127.4375,192,112,192z"/>
	<path d="M112,120c13.2343,0,24-10.7656,24-24s-10.7657-24-24-24c-13.2345,0-24,10.7656-24,24S98.7655,120,112,120z M112,80
		c8.8243,0,16,7.1756,16,16s-7.1757,16-16,16c-8.8245,0-16-7.1756-16-16S103.1755,80,112,80z"/>
	<path d="M172,96c-13.2345,0-24,10.7656-24,24s10.7655,24,24,24c13.2343,0,24-10.7656,24-24S185.2343,96,172,96z M172,136
		c-8.8245,0-16-7.1756-16-16s7.1755-16,16-16c8.8243,0,16,7.1756,16,16S180.8243,136,172,136z"/>
	<path d="M52,96c-13.2345,0-24,10.7656-24,24s10.7655,24,24,24c13.2343,0,24-10.7656,24-24S65.2343,96,52,96z M52,136
		c-8.8245,0-16-7.1756-16-16s7.1755-16,16-16c8.8243,0,16,7.1756,16,16S60.8243,136,52,136z"/>
	<path d="M112,64c8.8243,0,16-7.1756,16-16c0-8.8244-7.1757-16-16-16c-8.8245,0-16,7.1756-16,16C96,56.8244,103.1755,64,112,64z
		 M112,40c4.4099,0,8,3.59,8,8c0,4.41-3.5901,8-8,8c-4.4101,0-8-3.59-8-8C104,43.59,107.5899,40,112,40z"/>
	<path d="M164,76c8.8243,0,16-7.1756,16-16c0-8.8244-7.1757-16-16-16c-8.8245,0-16,7.1756-16,16C148,68.8244,155.1755,76,164,76z
		 M164,52c4.4099,0,8,3.59,8,8s-3.5901,8-8,8c-4.4101,0-8-3.59-8-8S159.5899,52,164,52z"/>
	<path d="M60,76c8.8243,0,16-7.1756,16-16c0-8.8244-7.1757-16-16-16c-8.8245,0-16,7.1756-16,16C44,68.8244,51.1755,76,60,76z M60,52
		c4.4099,0,8,3.59,8,8s-3.5901,8-8,8c-4.4101,0-8-3.59-8-8S55.5899,52,60,52z"/>
	<path d="M112,24c6.6171,0,12-5.3828,12-12c0-6.6172-5.3829-12-12-12c-6.6173,0-12,5.3828-12,12C100,18.6172,105.3827,24,112,24z
		 M112,8c2.2071,0,4,1.7928,4,4c0,2.2072-1.7929,4-4,4c-2.2073,0-4-1.7928-4-4C108,9.7928,109.7927,8,112,8z"/>
	<path d="M36,40c6.6171,0,12-5.3828,12-12c0-6.6172-5.3829-12-12-12c-6.6173,0-12,5.3828-12,12C24,34.6172,29.3827,40,36,40z M36,24
		c2.2071,0,4,1.7928,4,4c0,2.2072-1.7929,4-4,4c-2.2073,0-4-1.7928-4-4C32,25.7928,33.7927,24,36,24z"/>
	<path d="M184,40c6.6171,0,12-5.3828,12-12c0-6.6172-5.3829-12-12-12c-6.6173,0-12,5.3828-12,12C172,34.6172,177.3827,40,184,40z
		 M184,24c2.2071,0,4,1.7928,4,4c0,2.2072-1.7929,4-4,4c-2.2073,0-4-1.7928-4-4C180,25.7928,181.7927,24,184,24z"/>
	<path d="M208,72c-8.8245,0-16,7.1756-16,16s7.1755,16,16,16c8.8243,0,16-7.1756,16-16S216.8243,72,208,72z M208,96
		c-4.4101,0-8-3.59-8-8s3.5899-8,8-8c4.4099,0,8,3.59,8,8S212.4099,96,208,96z"/>
	<path d="M16,72C7.1755,72,0,79.1756,0,88s7.1755,16,16,16c8.8243,0,16-7.1756,16-16S24.8243,72,16,72z M16,96c-4.4101,0-8-3.59-8-8
		s3.5899-8,8-8c4.4099,0,8,3.59,8,8S20.4099,96,16,96z"/>
</g>
</svg>
