<?xml version="1.0" encoding="utf-8"?>
<!-- Generator: Adobe Illustrator 19.2.0, SVG Export Plug-In . SVG Version: 6.00 Build 0)  -->
<svg version="1.1" id="containerradiation" xmlns="http://www.w3.org/2000/svg" xmlns:xlink="http://www.w3.org/1999/xlink" x="0px"
	 y="0px" viewBox="0 0 164 204" enable-background="new 0 0 164 204" xml:space="preserve">
<g>
	<rect x="28" y="168" fill="none" width="108" height="12"/>
	<polygon fill="none" points="8,152 8,160 156,160 156,152 144,152 20,152 	"/>
	<rect x="8" y="8" fill="none" width="148" height="8"/>
	<path fill="none" d="M84,128c13.2343,0,24-10.7655,24-24c0-13.2343-10.7657-24-24-24c-13.2345,0-24,10.7657-24,24
		C60,117.2345,70.7655,128,84,128z M80,92h8v10.0713l9.4647,5.464l-4,6.9296l-9.7948-5.6544l-9.7948,5.6544l-4-6.9296L80,101.6901
		V92z"/>
	<rect x="8" y="188" fill="none" width="148" height="8"/>
	<rect x="28" y="24" fill="none" width="108" height="12"/>
	<polygon fill="none" points="8,52 20,52 144,52 156,52 156,44 8,44 	"/>
	<path fill="none" d="M28,144h108V60H28V144z M84,72c17.6443,0,32,14.3557,32,32c0,17.6445-14.3557,32-32,32
		c-17.6445,0-32-14.3555-32-32C52,86.3557,66.3555,72,84,72z"/>
	<path d="M164,24V0H0v24h20v12H0v24h20v84H0v24h20v12H0v24h164v-24h-20v-12h20v-24h-20V60h20V36h-20V24H164z M8,8h148v8H8V8z
		 M156,196H8v-8h148V196z M136,180H28v-12h108V180z M156,152v8H8v-8h12h124H156z M136,144H28V60h108V144z M156,52h-12H20H8v-8h148
		V52z M136,36H28V24h108V36z"/>
	<path d="M84,136c17.6443,0,32-14.3555,32-32c0-17.6443-14.3557-32-32-32c-17.6445,0-32,14.3557-32,32
		C52,121.6445,66.3555,136,84,136z M84,80c13.2343,0,24,10.7657,24,24c0,13.2345-10.7657,24-24,24c-13.2345,0-24-10.7655-24-24
		C60,90.7657,70.7655,80,84,80z"/>
	<polygon points="73.8751,114.4649 83.6699,108.8105 93.4647,114.4649 97.4647,107.5353 88,102.0713 88,92 80,92 80,101.6901 
		69.8751,107.5353 	"/>
</g>
</svg>
