<?xml version="1.0" encoding="utf-8"?>
<!-- Generator: Adobe Illustrator 19.2.0, SVG Export Plug-In . SVG Version: 6.00 Build 0)  -->
<svg version="1.1" id="cube" xmlns="http://www.w3.org/2000/svg" xmlns:xlink="http://www.w3.org/1999/xlink" x="0px" y="0px"
	 viewBox="0 0 212.0398 212" enable-background="new 0 0 212.0398 212" xml:space="preserve">
<g>
	<polygon fill="none" points="68.0398,8 68.0398,60 146.2185,60 198.3645,8 	"/>
	<polygon fill="none" points="60.0398,60 60.0398,13.6372 13.5469,60 	"/>
	<polygon fill="none" points="60.0398,68 8.0398,68 8.0398,198.1952 60.0398,146.3408 	"/>
	<rect x="68.0398" y="68" fill="none" width="76" height="76"/>
	<polygon fill="none" points="152.0398,144 204.0398,144 204.0398,13.6372 152.0398,65.492 	"/>
	<polygon fill="none" points="144.0398,152 65.6929,152 13.5469,204 144.0398,204 	"/>
	<polygon fill="none" points="152.0398,152 152.0398,198.1952 198.3645,152 	"/>
	<path d="M212.0105,3.8564c-0.0176-0.47-0.096-0.9384-0.278-1.38c-0.2004-0.4852-0.49-0.9228-0.8536-1.29
		c-0.0031-0.0028-0.004-0.0076-0.0071-0.0108h-0.0005c-0.3684-0.3696-0.81-0.6628-1.2992-0.866
		c-0.4888-0.2032-1.0076-0.3088-1.5288-0.3088L208.0398,0h-144c-0.0537,0-0.0981,0.0284-0.1509,0.0304
		c-0.468,0.0184-0.934,0.096-1.3736,0.2772c-0.4776,0.1972-0.9064,0.4844-1.2696,0.8408c-0.0092,0.0088-0.0216,0.0108-0.0304,0.0196
		l-0.0012,0.0008c-0.002,0.0024-0.0036,0.004-0.006,0.0064L1.1141,61.1016c-0.92,0.9152-1.2328,2.1572-1.0743,3.3504v142.9572
		c-0.1593,1.1908,0.1527,2.4316,1.0663,3.3488c0.0304,0.03,0.072,0.0392,0.1032,0.0688C1.9333,211.5516,2.9333,212,4.0398,212h144
		c1.3291,0,2.4487-0.6904,3.1763-1.6864l59.648-59.4816l0.0004-0.0008c0.3692-0.3684,0.6628-0.8096,0.866-1.2984
		c0.2028-0.4888,0.3084-1.0084,0.3088-1.53c0-0.0008,0.0005-0.002,0.0005-0.002V4C212.0398,3.9492,212.0125,3.9068,212.0105,3.8564z
		 M68.0398,68h76v76h-76V68z M146.2185,60H68.0398V8h130.3247L146.2185,60z M60.0398,60H13.5469l46.4929-46.3628V60z M8.0398,68h52
		v78.3408l-52,51.8544V68z M65.6929,152h78.3469v52H13.5469L65.6929,152z M152.0398,152h46.3247l-46.3247,46.1952V152z
		 M204.0398,144h-52V65.492l52-51.8548V144z"/>
</g>
</svg>
