<?xml version="1.0" encoding="utf-8"?>
<!-- Generator: Adobe Illustrator 19.2.0, SVG Export Plug-In . SVG Version: 6.00 Build 0)  -->
<svg version="1.1" id="drugspills" xmlns="http://www.w3.org/2000/svg" xmlns:xlink="http://www.w3.org/1999/xlink" x="0px" y="0px"
	 viewBox="0 0 224.1506 199.5399" enable-background="new 0 0 224.1506 199.5399" xml:space="preserve">
<g>
	<path fill="none" d="M198.2707,137.2039l-10.598-16.9608c-3.7928-6.0628-10.324-9.3948-16.996-9.3948
		c-3.6211,0-7.2811,0.9808-10.5664,3.0316c-9.3516,5.8436-12.2032,18.2068-6.3632,27.5584l10.6016,16.9608L198.2707,137.2039z"/>
	<path fill="none" d="M67.4996,45.0763l-7.4789-5.0444l-11.18,16.582c-2.9844,4.418-4.0664,9.7424-3.0468,14.9924
		c1.0156,5.25,4.0156,9.7852,8.4417,12.7696c9.1327,6.164,21.5975,3.746,27.7655-5.3984l11.1816-16.576L67.4996,45.0763z"/>
	<path fill="none" d="M103.4423,11.4227c-4.418-2.9804-9.7264-4.0664-14.992-3.0468c-5.25,1.0156-9.7852,4.0156-12.7696,8.4412
		L64.4975,33.3987l16.5796,11.184l16.58,11.1836l11.1836-16.582c2.9844-4.4216,4.0664-9.746,3.0472-14.992
		C110.8683,18.9422,107.8683,14.4071,103.4423,11.4227z"/>
	<path fill="none" d="M202.5087,143.9891l-33.9216,21.1952l10.5936,16.9648c5.8436,9.34,18.2032,12.2032,27.5624,6.3596
		c4.5236-2.8284,7.676-7.25,8.8828-12.4572c1.2032-5.2108,0.3088-10.574-2.5196-15.1016L202.5087,143.9891z"/>
	<path d="M219.8879,156.7079l-12.7152-20.3516l-12.7184-20.3556c-8.18-13.086-25.4808-17.0936-38.586-8.9025
		c-13.09,8.18-17.086,25.4844-8.9024,38.582l12.7188,20.3516c0.0029,0.0048,0.0072,0.008,0.01,0.0128l12.7049,20.3428
		c5.3047,8.4884,14.4451,13.1524,23.7891,13.1524c5.0664,0,10.1912-1.3712,14.7968-4.25
		c6.332-3.9572,10.7461-10.1484,12.4336-17.4376C225.1063,170.5595,223.8527,163.0475,219.8879,156.7079z M160.1103,113.8799
		c3.2853-2.0508,6.9453-3.0316,10.5664-3.0316c6.672,0,13.2032,3.332,16.996,9.3948l10.598,16.9608l-33.922,21.1952
		l-10.6016-16.9608C147.9071,132.0867,150.7587,119.7235,160.1103,113.8799z M215.6259,176.0515
		c-1.2068,5.2072-4.3592,9.6288-8.8828,12.4572c-9.3592,5.8436-21.7188,2.9804-27.5624-6.3596l-10.5936-16.9648l33.9216-21.1952
		l10.5976,16.9608C215.9347,165.4775,216.8291,170.8407,215.6259,176.0515z"/>
	<path d="M119.7391,22.6687c-1.4256-7.3476-5.6248-13.6992-11.82-17.8788c-6.1915-4.176-13.6328-5.6916-20.9924-4.2696
		c-7.3476,1.426-13.6991,5.6252-17.8788,11.8244l-13.422,19.8944l-13.418,19.8984c-4.1756,6.1916-5.6912,13.6444-4.2692,20.9924
		c1.4256,7.3476,5.6249,13.6992,11.82,17.8788c4.7932,3.2304,10.2304,4.7772,15.6172,4.7772c9.004,0,17.8557-4.324,23.258-12.332
		l13.418-19.8944l13.4216-19.8984C119.6495,37.4655,121.1651,30.0127,119.7391,22.6687z M82.0011,78.9775
		c-6.168,9.1444-18.6328,11.5624-27.7655,5.3984c-4.4261-2.9844-7.4261-7.5196-8.4417-12.7696
		c-1.0196-5.25,0.0624-10.5744,3.0468-14.9924l11.18-16.582l7.4789,5.0444l25.6831,17.3252L82.0011,78.9775z M108.8407,39.1843
		l-11.1836,16.582l-16.58-11.1836l-16.5796-11.184l11.1832-16.5816c2.9844-4.4256,7.5196-7.4256,12.7696-8.4412
		c5.2656-1.0196,10.574,0.0664,14.992,3.0468c4.426,2.9844,7.426,7.5196,8.4456,12.7696
		C112.9071,29.4382,111.8251,34.7627,108.8407,39.1843z"/>
	<path d="M96.6183,143.4695l-7.7267,2.0704l-2.0701-7.7268c-0.5704-2.1364-2.7579-3.3984-4.8988-2.828
		c-2.1328,0.5704-3.3984,2.7656-2.828,4.8984l2.0704,7.7268l-7.7264,2.07c-2.1332,0.5704-3.3988,2.766-2.8284,4.8988
		c0.4768,1.7888,2.094,2.9648,3.8596,2.9648c0.3436,0,0.6912-0.0432,1.0388-0.1368l7.7269-2.0704l2.0699,7.7264
		c0.4768,1.7892,2.0941,2.9652,3.8596,2.9652c0.3436,0,0.6912-0.0432,1.0392-0.1368c2.1328-0.5704,3.3984-2.7656,2.828-4.8984
		l-2.0704-7.7268l7.7268-2.07c2.1328-0.5704,3.3984-2.766,2.828-4.8988C100.9463,144.1611,98.7587,142.9031,96.6183,143.4695z"/>
	<path d="M174.6103,58.2975c-0.5704,2.1328,0.6952,4.3284,2.8284,4.8988l7.7264,2.07l-2.0704,7.7269
		c-0.5704,2.1328,0.6952,4.328,2.828,4.8984c0.348,0.0936,0.6956,0.1368,1.0392,0.1368c1.7657,0,3.3828-1.176,3.8596-2.9652
		l2.0701-7.7264l7.7267,2.0704c0.3476,0.0936,0.6952,0.1368,1.0388,0.1368c1.7656,0,3.3828-1.176,3.8596-2.9648
		c0.5704-2.1329-0.6952-4.3284-2.828-4.8988l-7.7268-2.07l2.0704-7.7268c0.5704-2.1328-0.6952-4.328-2.828-4.8984
		c-2.1252-0.5704-4.3284,0.6916-4.8988,2.828l-2.0699,7.7268l-7.7269-2.0704C177.3839,54.8991,175.1807,56.1647,174.6103,58.2975z"
		/>
	<path d="M21.9463,72.5475l-6.7064,4.3556l-4.356-6.7068c-1.2032-1.8516-3.672-2.3832-5.5352-1.176
		c-1.8516,1.2032-2.3788,3.6796-1.176,5.5352l4.3556,6.7064l-6.7068,4.356c-1.8516,1.2032-2.3792,3.6796-1.176,5.5352
		c0.7656,1.1796,2.0508,1.8204,3.3596,1.8204c0.746,0,1.5-0.2072,2.1756-0.6444l6.7064-4.3556l4.356,6.7068
		c0.7656,1.18,2.0508,1.8204,3.3596,1.8204c0.746,0,1.5-0.2068,2.1756-0.6444c1.8516-1.2032,2.3788-3.6796,1.176-5.5352
		l-4.3556-6.7064l6.7068-4.356c1.8516-1.2032,2.3792-3.6796,1.176-5.5352C26.2783,71.8719,23.8055,71.3407,21.9463,72.5475z"/>
	<path d="M118.0636,102.4382c2.2107,0,4-1.7892,4-4c0-8.8244,7.1755-16,16-16c2.2107,0,4-1.7892,4-4c0-2.2108-1.7893-4-4-4
		c-13.2345,0-24,10.7656-24,24C114.0636,100.6491,115.8527,102.4382,118.0636,102.4382z"/>
	<path d="M135.0907,180.6335c-5.6756,6.758-15.7852,7.6484-22.5468,1.9728c-1.6952-1.422-4.2148-1.1876-5.6368,0.496
		c-1.418,1.6916-1.1952,4.2148,0.4965,5.6368c4.488,3.7616,9.9607,5.6016,15.4059,5.6016c6.8556,0,13.668-2.914,18.4064-8.5664
		c1.422-1.6916,1.1992-4.2148-0.4923-5.6328C139.0283,178.7195,136.5051,178.9422,135.0907,180.6335z"/>
	<path d="M145.0831,28.8991c3.2732,1.5276,6.7148,2.2464,10.1056,2.2464c9.0429,0,17.7224-5.1328,21.7888-13.8516
		c0.9336-2.004,0.0664-4.3828-1.9336-5.3164c-2-0.922-4.3788-0.0664-5.3163,1.9336c-3.7265,7.992-13.2617,11.4688-21.2617,7.738
		c-2.004-0.9256-4.3788-0.0664-5.3164,1.9336C142.2159,25.5867,143.0831,27.9655,145.0831,28.8991z"/>
</g>
</svg>
