<?xml version="1.0" encoding="utf-8"?>
<!-- Generator: Adobe Illustrator 19.2.0, SVG Export Plug-In . SVG Version: 6.00 Build 0)  -->
<svg version="1.1" id="earthstars" xmlns="http://www.w3.org/2000/svg" xmlns:xlink="http://www.w3.org/1999/xlink" x="0px" y="0px"
	 viewBox="0 0 192.9687 204.9689" enable-background="new 0 0 192.9687 204.9689" xml:space="preserve">
<g>
	<path d="M76.4843,36.4844c-39.6993,0-72,32.3009-72,72c0,39.6993,32.3007,72,72,72c39.6991,0,72-32.3007,72-72
		C148.4843,68.7853,116.1834,36.4844,76.4843,36.4844z M23.5458,72.5709c2.4436,1.4532,9.0585,5.5672,14.0244,10.3784
		c3.4688,3.3631,5.0664,5.8164,5.0312,7.7148c-0.0272,1.6132-1.2696,3.5352-3.6836,5.7112
		c-3.3084,2.9804-4.7228,6.738-3.9764,10.5856c1.492,7.7152,11.0896,13.7776,19.57,16.8828c5.7228,2.09,8.098,3.75,9.0548,4.6136
		c-5.8724,2.2572-28.0692,1.5004-48.1376-0.7932c-1.9076-6.0588-2.9443-12.4997-2.9443-19.1796
		C12.4843,95.1813,16.5714,82.8189,23.5458,72.5709z M18.8363,136.0969c8.3631,0.8868,19.0911,1.7704,28.6831,1.7704
		c10.168,0,19.0468-0.992,22.4376-4.0236c1.4528-1.2968,2.238-3.0193,2.2188-4.8476c-0.0824-6.496-8.5508-10.3397-14.9144-12.668
		c-8.6404-3.156-13.902-7.9688-14.4648-10.8864c-0.0896-0.4573-0.2968-1.5276,1.4728-3.1213
		c4.1876-3.7735,6.2576-7.5351,6.332-11.508c0.1016-5.5155-3.7148-9.9723-7.4608-13.6051
		c-5.0356-4.8784-11.378-9.0008-14.6048-10.9696c11.7365-13.304,28.8552-21.7533,47.9485-21.7533
		c14.8651,0,28.528,5.1393,39.4043,13.6741c-0.9568,3.4904-4.384,12.3464-15.3732,17.3219
		c-13.7344,6.2189-16.2108,7.34-15.7264,17.6017c0.0544,1.168,0.1172,2.5236,0.1328,4.1212
		c0.086,9.2148,6.0705,12.6952,11.3516,15.7656c3.3516,1.9492,6.8164,3.9648,9.6756,7.574
		c4.922,6.2112,5.2268,11.1524,5.5508,16.3868c0.1485,2.414,0.3048,4.9064,0.9532,7.3984c1.3396,5.1456,4.6604,9.0384,7.1124,11.346
		c-11.3851,10.4032-26.4808,16.8103-43.0811,16.8103C51.0918,172.4844,29.1714,157.5817,18.8363,136.0969z M125.141,149.9517
		c-1.6756-1.5532-4.0632-4.2508-4.946-7.6393c-0.4528-1.7419-0.574-3.66-0.7107-5.8747
		c-0.3477-5.6524-0.7853-12.6836-7.2617-20.8632c-3.8008-4.7932-8.3088-7.4144-11.93-9.5196
		c-5.2108-3.0312-7.328-4.4416-7.3708-8.9296c-0.0156-1.7112-0.082-3.1644-0.1408-4.418c-0.2304-4.84-0.2304-4.84,11.0313-9.9376
		c11.0783-5.014,16.2059-13.202,18.524-18.838c11.2091,11.5332,18.148,27.2384,18.148,44.5527
		C140.4843,124.3025,134.685,138.7705,125.141,149.9517z"/>
	<path d="M12.4843,30.1409l5.6563,5.656c0.7812,0.7812,1.8044,1.172,2.828,1.172c1.0237,0,2.0468-0.3908,2.828-1.172
		c1.5628-1.5624,1.5628-4.0936,0-5.656l-5.656-5.6565l5.656-5.6563c1.5628-1.5624,1.5628-4.0936,0-5.656
		c-1.5624-1.5628-4.0936-1.5628-5.656,0l-5.6563,5.656l-5.6565-5.656c-1.5624-1.5628-4.0936-1.5628-5.656,0
		c-1.5624,1.5624-1.5624,4.0936,0,5.656l5.656,5.6563l-5.656,5.6565c-1.5624,1.5624-1.5624,4.0936,0,5.656
		c0.7812,0.7812,1.8045,1.172,2.828,1.172c1.0236,0,2.0468-0.3908,2.828-1.172L12.4843,30.1409z"/>
	<path d="M151.7966,1.1721c-1.5624-1.5628-4.0936-1.5628-5.656,0l-5.6563,5.656l-5.6565-5.656c-1.5624-1.5628-4.0936-1.5628-5.656,0
		c-1.5624,1.5624-1.5624,4.0936,0,5.656l5.656,5.6563l-5.656,5.6565c-1.5624,1.5624-1.5624,4.0936,0,5.656
		c0.7812,0.7812,1.8045,1.172,2.828,1.172c1.0236,0,2.0468-0.3908,2.828-1.172l5.6565-5.656l5.6563,5.656
		c0.7812,0.7812,1.8044,1.172,2.828,1.172c1.0237,0,2.0468-0.3908,2.828-1.172c1.5628-1.5624,1.5628-4.0936,0-5.656l-5.656-5.6565
		l5.656-5.6563C153.3594,5.2657,153.3594,2.7345,151.7966,1.1721z"/>
	<path d="M186.1406,52.4844l5.656-5.6563c1.5628-1.5624,1.5628-4.0936,0-5.656c-1.5624-1.5628-4.0936-1.5628-5.656,0l-5.6563,5.656
		l-5.6565-5.656c-1.5624-1.5628-4.0936-1.5628-5.656,0c-1.5624,1.5624-1.5624,4.0936,0,5.656l5.656,5.6563l-5.656,5.6565
		c-1.5624,1.5624-1.5624,4.0936,0,5.656c0.7812,0.7812,1.8045,1.172,2.828,1.172c1.0236,0,2.0468-0.3908,2.828-1.172l5.6565-5.656
		l5.6563,5.656c0.7812,0.7812,1.8044,1.172,2.828,1.172c1.0237,0,2.0468-0.3908,2.828-1.172c1.5628-1.5624,1.5628-4.0936,0-5.656
		L186.1406,52.4844z"/>
	<path d="M151.7966,181.1721c-1.5624-1.5628-4.0936-1.5628-5.656,0l-5.6563,5.656l-5.6565-5.656
		c-1.5624-1.5628-4.0936-1.5628-5.656,0c-1.5624,1.5624-1.5624,4.0936,0,5.656l5.656,5.6563l-5.656,5.6565
		c-1.5624,1.5624-1.5624,4.0936,0,5.656c0.7812,0.7812,1.8045,1.172,2.828,1.172c1.0236,0,2.0468-0.3908,2.828-1.172l5.6565-5.656
		l5.6563,5.656c0.7812,0.7812,1.8044,1.172,2.828,1.172c1.0237,0,2.0468-0.3908,2.828-1.172c1.5628-1.5624,1.5628-4.0936,0-5.656
		l-5.656-5.6565l5.656-5.6563C153.3594,185.2657,153.3594,182.7345,151.7966,181.1721z"/>
</g>
</svg>
