<?xml version="1.0" encoding="utf-8"?>
<!-- Generator: Adobe Illustrator 19.2.0, SVG Export Plug-In . SVG Version: 6.00 Build 0)  -->
<svg version="1.1" id="electricitymeasure" xmlns="http://www.w3.org/2000/svg" xmlns:xlink="http://www.w3.org/1999/xlink" x="0px"
	 y="0px" viewBox="0 0 220 221.3007" enable-background="new 0 0 220 221.3007" xml:space="preserve">
<g>
	<path fill="none" d="M112.0391,101.3007c32.3052,0,58.7604,24.7805,60.8716,56h16.562c-2.1328-40.0547-36.0472-72-77.4336-72
		c-41.3868,0-75.3008,31.9453-77.4336,72h16.5616C53.2783,126.0812,79.7339,101.3007,112.0391,101.3007z"/>
	<path fill="none" d="M44,177.3007c-6.6173,0-12,5.3829-12,12c0,6.6173,5.3827,12,12,12c6.6171,0,12-5.3827,12-12
		C56,182.6836,50.6171,177.3007,44,177.3007z"/>
	<path fill="none" d="M164.9607,157.3007c-0.818-10.4967-4.8644-20.1043-11.1192-27.9431l-12.6695,12.6696l-5.6564-5.656
		l12.7264-12.7268l5.0296,5.0296c-8.9572-10.8432-22.2376-18.0908-37.2715-19.186v15.8127h-8v-15.8091
		c-13.1365,0.9756-24.9245,6.6524-33.6637,15.3176l11.562,11.562l-5.6564,5.656l-11.176-11.176
		c-5.5912,7.5528-9.1824,16.6156-9.9488,26.4495H164.9607z"/>
	<path fill="none" d="M204,24.3712c4.4099,0,8-3.59,8-8c0-4.4105-3.5901-8-8-8c-4.4101,0-8,3.5895-8,8
		C196,20.7812,199.5899,24.3712,204,24.3712z"/>
	<path fill="none" d="M28,17.3007c0-4.4099-3.5901-8-8-8c-4.4101,0-8,3.5901-8,8c0,4.4101,3.5899,8,8,8
		C24.4099,25.3007,28,21.7108,28,17.3007z"/>
	<path fill="none" d="M171.1523,177.3007c-6.7852,0-12.3048,5.3829-12.3048,12c0,6.6173,5.5196,12,12.3048,12
		s12.3084-5.3827,12.3084-12C183.4607,182.6836,177.9375,177.3007,171.1523,177.3007z"/>
	<path fill="none" d="M195.9607,165.3007h-22.8436H50.9607H26.5h-2.4609c-8.844,0-16.0391,7.168-16.0391,15.9805v16.0392
		c0,8.8123,7.1951,15.9803,16.0391,15.9803h171.9216c8.844,0,16.0393-7.168,16.0393-15.9803v-16.0392
		C212,172.4687,204.8047,165.3007,195.9607,165.3007z M44,209.3007c-11.0273,0-20-8.9727-20-20c0-11.0271,8.9727-20,20-20
		c11.0271,0,20,8.9729,20,20C64,200.328,55.0271,209.3007,44,209.3007z M171.1523,209.3007c-11.1952,0-20.3048-8.9727-20.3048-20
		c0-11.0271,9.1096-20,20.3048-20c11.1992,0,20.3084,8.9729,20.3084,20C191.4607,200.328,182.3515,209.3007,171.1523,209.3007z"/>
	<path d="M197.3755,157.3724c-1.4132-29.7844-18.6136-55.5548-43.6332-69.3428l42.3944-57.8092
		c2.332,1.3296,4.9913,2.1508,7.8633,2.1508c8.8243,0,16-7.176,16-16c0-8.8244-7.1757-16-16-16c-8.8245,0-16,7.1756-16,16
		c0,3.0172,0.8883,5.8108,2.3455,8.222L146.4463,84.454c-10.5404-4.5693-22.1648-7.1533-34.4072-7.1533
		c-12.4652,0-24.2808,2.6933-34.9711,7.4205L33.6543,25.5228C35.1115,23.112,36,20.318,36,17.3007c0-8.8243-7.1757-16-16-16
		c-8.8245,0-16,7.1757-16,16c0,8.8245,7.1755,16,16,16c2.872,0,5.5311-0.8211,7.8631-2.1507l41.944,57.1952
		c-24.7084,13.8488-41.674,39.416-43.1008,68.9555h-2.6672C10.7851,157.3007,0,168.0588,0,181.2812v16.0392
		c0,13.2224,10.7851,23.9803,24.0391,23.9803h171.9216c13.254,0,24.0393-10.7579,24.0393-23.9803v-16.0392
		C220,168.5348,209.9695,158.1092,197.3755,157.3724z M204,8.3712c4.4099,0,8,3.5895,8,8c0,4.41-3.5901,8-8,8c-4.4101,0-8-3.59-8-8
		C196,11.9607,199.5899,8.3712,204,8.3712z M12,17.3007c0-4.4099,3.5899-8,8-8c4.4099,0,8,3.5901,8,8c0,4.4101-3.5901,8-8,8
		C15.5899,25.3007,12,21.7108,12,17.3007z M112.0391,85.3007c41.3864,0,75.3009,31.9453,77.4336,72h-16.562
		c-2.1112-31.2195-28.5664-56-60.8716-56s-58.7608,24.7805-60.872,56H34.6055C36.7383,117.246,70.6523,85.3007,112.0391,85.3007z
		 M69.0659,130.8512l11.176,11.176l5.6564-5.656l-11.562-11.562c8.7392-8.6652,20.5272-14.342,33.6637-15.3176v15.8091h8V109.488
		c15.0339,1.0952,28.3143,8.3428,37.2715,19.186l-5.0296-5.0296l-12.7264,12.7268l5.6564,5.656l12.6695-12.6696
		c6.2548,7.8388,10.3012,17.4464,11.1192,27.9431H59.1171C59.8835,147.4668,63.4747,138.404,69.0659,130.8512z M212,197.3204
		c0,8.8123-7.1953,15.9803-16.0393,15.9803H24.0391c-8.844,0-16.0391-7.168-16.0391-15.9803v-16.0392
		c0-8.8125,7.1951-15.9805,16.0391-15.9805H26.5h24.4607h122.1564h22.8436c8.844,0,16.0393,7.168,16.0393,15.9805V197.3204z"/>
	<path d="M171.1523,169.3007c-11.1952,0-20.3048,8.9729-20.3048,20c0,11.0273,9.1096,20,20.3048,20
		c11.1992,0,20.3084-8.9727,20.3084-20C191.4607,178.2736,182.3515,169.3007,171.1523,169.3007z M171.1523,201.3007
		c-6.7852,0-12.3048-5.3827-12.3048-12c0-6.6171,5.5196-12,12.3048-12s12.3084,5.3829,12.3084,12
		C183.4607,195.918,177.9375,201.3007,171.1523,201.3007z"/>
	<path d="M44,169.3007c-11.0273,0-20,8.9729-20,20c0,11.0273,8.9727,20,20,20c11.0271,0,20-8.9727,20-20
		C64,178.2736,55.0271,169.3007,44,169.3007z M44,201.3007c-6.6173,0-12-5.3827-12-12c0-6.6171,5.3827-12,12-12
		c6.6171,0,12,5.3829,12,12C56,195.918,50.6171,201.3007,44,201.3007z"/>
	<polygon points="77.4023,11.4376 108.6171,65.6212 130.0351,21.6916 153.2459,50.0624 178.3827,24.6407 172.6951,19.0156 
		153.8083,38.1172 128.3163,6.9572 108.0311,48.5744 80.0427,0 43.8787,24.414 48.3555,31.0468 	"/>
</g>
</svg>
