<?xml version="1.0" encoding="utf-8"?>
<!-- Generator: Adobe Illustrator 19.2.0, SVG Export Plug-In . SVG Version: 6.00 Build 0)  -->
<svg version="1.1" id="eyedropper" xmlns="http://www.w3.org/2000/svg" xmlns:xlink="http://www.w3.org/1999/xlink" x="0px" y="0px"
	 viewBox="0 0 189.9784 223.9804" enable-background="new 0 0 189.9784 223.9804" xml:space="preserve">
<g>
	<path fill="none" d="M16,191.9804c-4.412,0-8,3.25-8,7.244c0,2.3184,3.59,8.5352,7.6896,14.262
		C20.1112,207.75,24,201.5136,24,199.2244C24,195.2304,20.412,191.9804,16,191.9804z"/>
	<path fill="none" d="M44.8496,122.502c-4.496,4.496-5.9024,11.2344-3.584,17.166c0.58,1.4804,0.2264,3.162-0.8964,4.2852
		l-18.1524,18.152l5.6584,5.6564l18.1484-18.1484c1.1228-1.1248,2.8084-1.4784,4.2868-0.8964
		c5.9316,2.332,12.666,0.912,17.168-3.588l65.048-65.048L109.8996,57.454L44.8496,122.502z"/>
	<path fill="none" d="M174.9532,15.0272C170.422,10.496,164.3944,8,157.9804,8h-0.002c-6.41,0-12.4276,2.4884-16.9492,7.0096
		l-31.1308,31.1308l2.8244,2.8244c0.0016,0.002,0.004,0.002,0.004,0.002l28.2848,28.2852c0,0,0.0024,0.0036,0.004,0.0056
		l2.8244,2.8244l31.1308-31.1308c4.5252-4.5256,7.0136-10.5488,7.0076-16.9628C181.9748,25.576,179.4784,19.5528,174.9532,15.0272z"
		/>
	<path d="M189.9784,31.9804c-0.0056-8.5448-3.334-16.5744-9.3692-22.6092C174.5684,3.328,166.5332,0,157.9824,0
		c-0.002,0-0.004,0-0.004,0c-8.5448,0-16.574,3.3204-22.6052,9.3536L104.242,40.4844l-2.828-2.8284
		c-1.5624-1.5624-4.0936-1.5624-5.656,0c-1.5628,1.5628-1.5628,4.094,0,5.6564l5.656,5.6564l2.8292,2.8288l-65.05,65.048
		c-6.1052,6.1056-8.414,14.9648-6.2148,23.1856l-19.246,19.246c-0.75,0.75-1.172,1.7676-1.172,2.828
		c0,1.0608,0.422,2.0784,1.172,2.8284l11.3144,11.3124c0.7812,0.7812,1.8048,1.172,2.8284,1.172c1.0232,0,2.0468-0.3908,2.828-1.172
		l19.242-19.2404c8.2188,2.1976,17.08-0.1092,23.1896-6.2204l65.048-65.048l2.8288,2.8292l5.6584,5.658
		c0.7812,0.7812,1.8048,1.172,2.828,1.172c1.0236,0,2.0468-0.3908,2.828-1.172c1.5628-1.5624,1.5628-4.0936,0-5.656l-2.83-2.83
		l31.1308-31.1312C186.666,48.5704,189.9864,40.5352,189.9784,31.9804z M67.4784,145.1288c-4.502,4.5-11.2364,5.92-17.168,3.588
		c-1.4784-0.582-3.164-0.2284-4.2868,0.8964l-18.1484,18.1484l-5.6584-5.6564l18.1524-18.152
		c1.1228-1.1232,1.4764-2.8048,0.8964-4.2852c-2.3184-5.9316-0.912-12.67,3.584-17.166l65.05-65.048l22.6268,22.6268
		L67.4784,145.1288z M143.84,80.082l-2.8244-2.8244c-0.0016-0.002-0.002-0.0036-0.002-0.0036l-28.2852-28.2852
		c0,0-0.004-0.002-0.0056-0.004l-2.8244-2.8244l31.1308-31.1308C145.5508,10.4884,151.5684,8,157.9784,8h0.002
		c6.414,0,12.4416,2.496,16.9728,7.0272c4.5252,4.5256,7.0216,10.5488,7.0252,16.9612c0.006,6.414-2.4824,12.4372-7.0076,16.9628
		L143.84,80.082z"/>
	<path d="M16,183.9804c-8.8224,0-16,6.838-16,15.244c0,7.0588,9.5272,19.5784,12.4452,23.2464
		c0.7444,0.9352,1.8672,1.488,3.0608,1.5096c0.0232,0,0.0468,0,0.07,0c1.17,0,2.2816-0.5116,3.0412-1.4024
		C21.758,218.9024,32,206.3552,32,199.2244C32,190.8184,24.8224,183.9804,16,183.9804z M15.6896,213.4864
		C11.59,207.7596,8,201.5428,8,199.2244c0-3.994,3.588-7.244,8-7.244s8,3.25,8,7.244C24,201.5136,20.1112,207.75,15.6896,213.4864z"
		/>
</g>
</svg>
