<?xml version="1.0" encoding="utf-8"?>
<!-- Generator: Adobe Illustrator 19.2.0, SVG Export Plug-In . SVG Version: 6.00 Build 0)  -->
<svg version="1.1" id="femalescientist" xmlns="http://www.w3.org/2000/svg" xmlns:xlink="http://www.w3.org/1999/xlink" x="0px"
	 y="0px" viewBox="0 0 200 222" enable-background="new 0 0 200 222" xml:space="preserve">
<g>
	<path fill="none" d="M74.4064,53.1328c-6.928,9.4804-16.2796,13.0936-25.3692,16.6016c-2.582,0.9988-5.2172,2.0344-7.8576,3.1976
		c0.1208,1.494,0.2312,2.9924,0.4552,4.4704C46.9416,112.5,65.2072,150,100.5508,150c29.9972,0,53.0652-28.3164,58.8484-72.1564
		C153.6492,79.2284,147.7916,80,141.8712,80C117.0744,80,91.578,77.8124,74.4064,53.1328z M110,138H88c-2.2088,0-4-1.7892-4-4
		c0-2.2108,1.7912-4,4-4h22c2.2088,0,4,1.7892,4,4C114,136.2108,112.2088,138,110,138z M144.58,107.492
		c0.3908,3.1876-0.4724,6.3324-2.4316,8.8556c-1.9688,2.5392-4.8124,4.1484-8.0096,4.5392L118.246,122.84
		c-0.5,0.0624-1,0.0936-1.494,0.0936c-2.662,0-5.2268-0.8788-7.3496-2.5352c-2.5256-1.9728-4.1308-4.824-4.5256-8.0272L104.5856,110
		h-9.1712l-0.2912,2.3712c-0.3948,3.2032-2,6.0544-4.5256,8.0272c-2.1228,1.6564-4.6876,2.5352-7.3496,2.5352
		c-0.496,0-0.994-0.0312-1.494-0.0936l-15.8964-1.9532c-3.1936-0.3908-6.0372-2-8.006-4.5392
		c-1.9592-2.5232-2.8224-5.668-2.4316-8.8556l1.4568-11.8632c0.3948-3.2032,2-6.0544,4.5256-8.0272
		c2.5196-1.9648,5.664-2.8476,8.8436-2.4416l15.8964,1.9532c3.1936,0.3908,6.0372,2,8.006,4.5392
		c1.9592,2.5232,2.8224,5.668,2.4316,8.8556L96.3968,102h7.2064l-0.1832-1.492c-0.3908-3.1876,0.4724-6.3324,2.4316-8.8556
		c1.9688-2.5392,4.8124-4.1484,8.0096-4.5392L129.754,85.16c3.1912-0.3984,6.326,0.4768,8.8436,2.4416
		c2.5256,1.9728,4.1308,4.824,4.5256,8.0272L144.58,107.492z"/>
	<path fill="none" d="M85.17,95.0508l-15.9004-1.9532c-0.168-0.0196-0.336-0.0312-0.502-0.0312c-0.8868,0-1.7384,0.2928-2.4416,0.84
		c-0.8396,0.656-1.3748,1.6172-1.5076,2.6992l-1.4572,11.8632c-0.1328,1.074,0.1564,2.1328,0.8108,2.9764
		c0.6504,0.84,1.5956,1.3712,2.658,1.504l15.9004,1.9532c1.0724,0.1328,2.1096-0.1564,2.9436-0.8088
		c0.8396-0.656,1.3748-1.6172,1.5076-2.6992l1.4572-11.8632c0.1328-1.074-0.1564-2.1328-0.8108-2.9764
		C87.1776,95.7148,86.2324,95.1836,85.17,95.0508z"/>
	<path fill="none" d="M133.674,93.9064c-0.834-0.6484-1.8692-0.9336-2.9436-0.8088l-15.8964,1.9532
		c-1.0664,0.1328-2.0116,0.664-2.662,1.504c-0.6544,0.8436-0.9436,1.9024-0.8108,2.9764l1.4572,11.8632
		c0.1328,1.082,0.668,2.0432,1.5076,2.6992c0.834,0.6524,1.8848,0.9376,2.9436,0.8088l15.8964-1.9532
		c1.0664-0.1328,2.0116-0.664,2.662-1.504c0.6544-0.8436,0.9436-1.9024,0.8108-2.9764l-1.4572-11.8632
		C135.0488,95.5236,134.5136,94.5624,133.674,93.9064z"/>
	<path fill="none" d="M170.6172,128.1172c7.9668,1.168,16.2088,2.3748,18.172,0.1288c0.578-0.66,1.6736-3.0664-0.6348-11.1484
		c-6.7332-23.5608-22.2844-23.2344-23.622-23.1284c-2.9188,12.2436-7.2544,23.0548-12.7728,32.15
		C158.5112,126.39,164.8976,127.2796,170.6172,128.1172z"/>
	<path fill="none" d="M30.9432,126.3828c5.428-0.7948,11.4516-1.6464,17.8204-1.9648c-5.25-9.1244-9.4068-19.9504-12.3356-32.1876
		c-3.3476,0.026-16.8596,1.5652-23.0216,23.1328c-2.3088,8.082-1.2132,10.4884-0.6348,11.1484
		C14.7384,128.7616,22.9804,127.5508,30.9432,126.3828z"/>
	<path fill="none" d="M70.7832,43.746c0.664-1.3124,1.996-2.156,3.4688-2.1952c0.0352,0,0.0684,0,0.1016,0
		c1.4336,0,2.7616,0.7696,3.4744,2.0196C91.4512,67.4688,110.8456,72,141.8712,72c6.88,0,13.6828-1.0904,20.282-3.1808
		c0.3088-0.1592,0.6248-0.2632,0.968-0.3372V50.5548C163.1212,27.09,142.25,8,116.5956,8H84.506
		C58.8516,8,37.9804,27.09,37.9804,50.5548V65.582c2.7756-1.2228,5.502-2.2772,8.176-3.3084
		C56.756,58.1796,65.1288,54.9452,70.7832,43.746z"/>
	<path d="M138.5976,87.6016c-2.5176-1.9648-5.6524-2.84-8.8436-2.4416l-15.8928,1.9532c-3.1972,0.3908-6.0408,2-8.0096,4.5392
		c-1.9592,2.5232-2.8224,5.668-2.4316,8.8556l0.1832,1.492h-7.2064l0.1832-1.492c0.3908-3.1876-0.4724-6.3324-2.4316-8.8556
		c-1.9688-2.5392-4.8124-4.1484-8.006-4.5392L70.246,85.16c-3.1796-0.406-6.324,0.4768-8.8436,2.4416
		c-2.5256,1.9728-4.1308,4.824-4.5256,8.0272L55.42,107.492c-0.3908,3.1876,0.4724,6.3324,2.4316,8.8556
		c1.9688,2.5392,4.8124,4.1484,8.006,4.5392L81.754,122.84c0.5,0.0624,0.998,0.0936,1.494,0.0936
		c2.662,0,5.2268-0.8788,7.3496-2.5352c2.5256-1.9728,4.1308-4.824,4.5256-8.0272L95.4144,110h9.1712l0.2912,2.3712
		c0.3948,3.2032,2,6.0544,4.5256,8.0272c2.1228,1.6564,4.6876,2.5352,7.3496,2.5352c0.494,0,0.994-0.0312,1.494-0.0936
		l15.8928-1.9532c3.1972-0.3908,6.0408-2,8.0096-4.5392c1.9592-2.5232,2.8224-5.668,2.4316-8.8556l-1.4568-11.8632
		C142.7284,92.4256,141.1232,89.5744,138.5976,87.6016z M87.1816,111.3944c-0.1328,1.082-0.668,2.0432-1.5076,2.6992
		c-0.834,0.6524-1.8712,0.9416-2.9436,0.8088L66.83,112.9492c-1.0624-0.1328-2.0076-0.664-2.658-1.504
		c-0.6544-0.8436-0.9436-1.9024-0.8108-2.9764l1.4572-11.8632c0.1328-1.082,0.668-2.0432,1.5076-2.6992
		c0.7032-0.5472,1.5548-0.84,2.4416-0.84c0.166,0,0.334,0.0116,0.502,0.0312L85.17,95.0508c1.0624,0.1328,2.0076,0.664,2.658,1.504
		c0.6544,0.8436,0.9436,1.9024,0.8108,2.9764L87.1816,111.3944z M135.828,111.4452c-0.6504,0.84-1.5956,1.3712-2.662,1.504
		l-15.8964,1.9532c-1.0588,0.1288-2.1096-0.1564-2.9436-0.8088c-0.8396-0.656-1.3748-1.6172-1.5076-2.6992l-1.4572-11.8632
		c-0.1328-1.074,0.1564-2.1328,0.8108-2.9764c0.6504-0.84,1.5956-1.3712,2.662-1.504l15.8964-1.9532
		c1.0744-0.1248,2.1096,0.1604,2.9436,0.8088c0.8396,0.656,1.3748,1.6172,1.5076,2.6992l1.4572,11.8632
		C136.7716,109.5428,136.4824,110.6016,135.828,111.4452z"/>
	<path d="M175.996,146H148c-1.2988,0-2.5176,0.6328-3.2676,1.6916L100,211.0624l-44.7324-63.3708
		C54.5176,146.6328,53.2988,146,52,146H24.004C10.7676,146,0,156.7656,0,169.996c0,2.2112,1.7912,4,4,4s4-1.7888,4-4
		C8,161.1756,15.1796,154,24.004,154h25.9236l46.8048,66.3084C97.4824,221.3672,98.7012,222,100,222s2.5176-0.6328,3.2676-1.6916
		L150.0724,154h25.9236c8.8244,0,16.004,7.1756,16.004,15.996c0,2.2112,1.7912,4,4,4c2.2088,0,4-1.7888,4-4
		C200,156.7656,189.2324,146,175.996,146z"/>
	<path d="M18.0684,135.758c4.0584,0,8.7948-0.6916,14.0352-1.4612c6.5056-0.9532,13.8788-2.0312,21.4568-2.0312
		c0.0904,0,0.1652-0.0452,0.254-0.0512C65.792,148.714,81.9132,158,100.5508,158c18.2184,0,34.1124-8.846,45.9952-24.2936
		C146.9984,133.8844,147.484,134,148,134c7.578,0,14.9512,1.078,21.4572,2.0312c5.24,0.7696,9.9764,1.4608,14.0348,1.4608
		c4.8244,0,8.6936-0.9804,11.3164-3.9764c4.2952-4.9064,2.6488-12.9728,1.0372-18.6132
		c-7.0648-24.7292-23.3348-28.388-29.6524-28.8496c0.4444-2.4712,0.8628-4.9668,1.1956-7.5372
		c0.136-1.0516,0.186-2.0844,0.2764-3.126c0.2876-0.1044,0.5816-0.176,0.868-0.284c1.5584-0.586,2.588-2.0784,2.588-3.7424V50.5548
		C171.1212,22.6796,146.66,0,116.5956,0H84.506C54.4416,0,29.9804,22.6796,29.9804,50.5548v21.414
		c0,1.41,0.7404,2.7148,1.9512,3.4336c0.4704,0.2836,0.9908,0.4288,1.5188,0.5c0.102,0.8992,0.1396,1.8048,0.2744,2.6952
		c0.2984,1.9744,0.6744,3.868,1.0316,5.7812c-6.6912,0.6508-22.1884,4.8-29.0416,28.7892
		c-1.6112,5.6404-3.2576,13.7068,1.0372,18.6132C9.3752,134.7772,13.244,135.758,18.0684,135.758z M188.1544,117.0976
		c2.3084,8.082,1.2128,10.4884,0.6348,11.1484c-1.9632,2.246-10.2052,1.0392-18.172-0.1288
		c-5.7196-0.8376-12.106-1.7272-18.8576-1.998c5.5184-9.0952,9.854-19.9064,12.7728-32.15
		C165.87,93.8632,181.4212,93.5368,188.1544,117.0976z M100.5508,150c-35.3436,0-53.6092-37.5-58.916-72.5976
		c-0.224-1.478-0.3344-2.9764-0.4552-4.4704c2.6404-1.1632,5.2756-2.1988,7.8576-3.1976
		c9.0896-3.508,18.4412-7.1212,25.3692-16.6016C91.578,77.8124,117.0744,80,141.8712,80c5.9204,0,11.778-0.7716,17.528-2.1564
		C153.616,121.6836,130.548,150,100.5508,150z M37.9804,50.5548C37.9804,27.09,58.8516,8,84.506,8h32.0896
		c25.6544,0,46.5256,19.09,46.5256,42.5548V68.482c-0.3432,0.074-0.6592,0.178-0.968,0.3372
		C155.554,70.9096,148.7512,72,141.8712,72c-31.0256,0-50.42-4.5312-64.0432-28.4296c-0.7128-1.25-2.0408-2.0196-3.4744-2.0196
		c-0.0332,0-0.0664,0-0.1016,0c-1.4728,0.0392-2.8048,0.8828-3.4688,2.1952C65.1288,54.9452,56.756,58.1796,46.1564,62.2736
		c-2.674,1.0312-5.4004,2.0856-8.176,3.3084V50.5548z M13.4064,115.3632c6.162-21.5676,19.674-23.1068,23.0216-23.1328
		c2.9288,12.2372,7.0856,23.0632,12.3356,32.1876c-6.3688,0.3184-12.3924,1.17-17.8204,1.9648
		c-7.9628,1.168-16.2048,2.3788-18.1716,0.1288C12.1932,125.8516,11.0976,123.4452,13.4064,115.3632z"/>
	<path d="M110,130H88c-2.2088,0-4,1.7892-4,4c0,2.2108,1.7912,4,4,4h22c2.2088,0,4-1.7892,4-4C114,131.7892,112.2088,130,110,130z"
		/>
</g>
</svg>
