<?xml version="1.0" encoding="utf-8"?>
<!-- Generator: Adobe Illustrator 19.2.0, SVG Export Plug-In . SVG Version: 6.00 Build 0)  -->
<svg version="1.1" id="flagstarplanet" xmlns="http://www.w3.org/2000/svg" xmlns:xlink="http://www.w3.org/1999/xlink" x="0px"
	 y="0px" viewBox="0 0 173.4296 234.3107" enable-background="new 0 0 173.4296 234.3107" xml:space="preserve">
<g>
	<path fill="none" d="M145.9804,198.3107c-4.41,0-8,3.5901-8,8c0,4.4101,3.59,8,8,8c4.4105,0,8-3.5899,8-8
		C153.9804,201.9008,150.3909,198.3107,145.9804,198.3107z"/>
	<path fill="none" d="M88.1604,47.508l-0.6484,3.7932l3.402-1.7912c1.172-0.6132,2.5588-0.6132,3.7228,0l3.4064,1.7912
		L97.3949,47.51c-0.2229-1.2988,0.2067-2.6233,1.1483-3.5428l2.7576-2.6856l-3.8084-0.5528c-1.3048-0.1896-2.43-1.008-3.012-2.1896
		L92.7776,35.09l-1.7032,3.4492c-0.582,1.1816-1.7072,2-3.012,2.1896l-3.8084,0.5528l2.758,2.6876
		C87.9532,44.8867,88.3829,46.2112,88.1604,47.508z"/>
	<path fill="none" d="M89.9804,174.3107c-6.6172,0-12,5.3829-12,12c0,6.6173,5.3828,12,12,12c6.6172,0,12-5.3827,12-12
		C101.9804,179.6936,96.5976,174.3107,89.9804,174.3107z"/>
	<path fill="none" d="M49.9804,210.3107c-4.41,0-8,3.5901-8,8c0,4.4101,3.59,8,8,8c4.4105,0,8-3.5899,8-8
		C57.9804,213.9008,54.3909,210.3107,49.9804,210.3107z"/>
	<path fill="none" d="M95.3244,76.5724c14.6836-12.7752,41.7068-8.3497,54.156-5.3868l-13.496-61.3709
		c-7.992-1.58-35.0232-5.4843-57.406,8.2657c-16.1212,9.9023-26.09,12.9004-32.098,13.3416l14.9884,56.6016
		C67.4492,88.2208,82.7424,87.512,95.3244,76.5724z M71.8556,37.2524c0.4728-1.4476,1.7228-2.504,3.2304-2.7228l9.746-1.416
		l4.3596-8.832c1.3436-2.7304,5.828-2.7304,7.1716,0l4.3597,8.832l9.7499,1.416c1.5076,0.2188,2.7576,1.2752,3.2304,2.7228
		c0.4688,1.4492,0.078,3.0388-1.0116,4.1012l-7.0588,6.8752l1.668,9.7068c0.2581,1.502-0.3592,3.0176-1.5896,3.9144
		c-1.2308,0.8984-2.8712,1.0136-4.2112,0.3044l-8.7224-4.584l-8.7152,4.584c-0.5856,0.3068-1.2264,0.4592-1.8632,0.4592
		c-0.828,0-1.6523-0.258-2.3516-0.7636C78.6172,60.9552,78,59.4376,78.258,57.9376l1.664-9.7088l-7.0548-6.8768
		C71.7776,40.2892,71.3869,38.6996,71.8556,37.2524z"/>
	<path fill="none" d="M33.5196,15.2092l-3.8632,1.0352l35.5025,132.4983c1.2647-0.428,2.5331-0.844,3.8131-1.2223L33.5196,15.2092z"
		/>
	<path d="M150.0352,157.7912c-22.8803-13.7485-49.0528-17.374-73.3052-12.2248L63.4676,96.0716
		c8.19-0.0276,23.7356-1.8312,37.1068-13.464c15.7032-13.6524,52.6445-2.1464,53.0196-2.0292
		c1.3592,0.4316,2.8552,0.1056,3.906-0.8592c1.0549-0.9632,1.5196-2.4165,1.2112-3.8128L143.25,5.602
		c-0.3204-1.4612-1.4296-2.6212-2.8788-3.006c-1.4763-0.3944-36.5352-9.416-65.9803,8.668
		C54.9076,23.2284,46.5292,23.6928,44.0016,23.4232L40.2112,9.2756c-0.2736-1.0252-0.9456-1.8984-1.8636-2.4296
		c-0.9216-0.5313-2.0192-0.6776-3.0352-0.3984L23.7229,9.5528c-2.1329,0.5724-3.3985,2.7659-2.828,4.8988l36.7547,137.1728
		c-18.8928,8.1048-35.5147,21.9648-46.8876,40.8936C6.0664,200.3264,2.4452,208.7052,0,217.4164l7.7032,2.164
		c2.25-8.0236,5.59-15.7424,9.918-22.9417c12.8592-21.4059,33.2892-36.5231,57.5196-42.5663
		c24.2381-6.0388,49.3632-2.2852,70.7772,10.5783c8.082,4.8553,15.336,10.8437,21.5508,17.7929l5.9608-5.336
		C166.6796,169.5608,158.8088,163.0648,150.0352,157.7912z M78.5784,18.0804c22.3828-13.75,49.414-9.8457,57.406-8.2657
		l13.496,61.3709c-12.4492-2.9629-39.4724-7.3884-54.156,5.3868C82.7424,87.512,67.4492,88.2208,61.4688,88.0236L46.4804,31.422
		C52.4884,30.9808,62.4572,27.9827,78.5784,18.0804z M29.6564,16.2444l3.8632-1.0352L68.972,147.5204
		c-1.28,0.3783-2.5484,0.7943-3.8131,1.2223L29.6564,16.2444z"/>
	<path d="M145.9804,190.3107c-8.824,0-16,7.1757-16,16c0,8.8245,7.176,16,16,16c8.8244,0,16-7.1755,16-16
		C161.9804,197.4864,154.8048,190.3107,145.9804,190.3107z M145.9804,214.3107c-4.41,0-8-3.5899-8-8c0-4.4099,3.59-8,8-8
		c4.4105,0,8,3.5901,8,8C153.9804,210.7208,150.3909,214.3107,145.9804,214.3107z"/>
	<path d="M89.9804,166.3107c-11.0272,0-20,8.9729-20,20c0,11.0273,8.9728,20,20,20c11.0276,0,20-8.9727,20-20
		C109.9804,175.2836,101.008,166.3107,89.9804,166.3107z M89.9804,198.3107c-6.6172,0-12-5.3827-12-12c0-6.6171,5.3828-12,12-12
		c6.6172,0,12,5.3829,12,12C101.9804,192.928,96.5976,198.3107,89.9804,198.3107z"/>
	<path d="M49.9804,202.3107c-8.824,0-16,7.1757-16,16c0,8.8245,7.176,16,16,16c8.8244,0,16-7.1755,16-16
		C65.9804,209.4864,58.8048,202.3107,49.9804,202.3107z M49.9804,226.3107c-4.41,0-8-3.5899-8-8c0-4.4099,3.59-8,8-8
		c4.4105,0,8,3.5901,8,8C57.9804,222.7208,54.3909,226.3107,49.9804,226.3107z"/>
	<path d="M79.922,48.2288l-1.664,9.7088c-0.258,1.5,0.3592,3.0176,1.5896,3.9124c0.6993,0.5056,1.5236,0.7636,2.3516,0.7636
		c0.6368,0,1.2776-0.1524,1.8632-0.4592l8.7152-4.584l8.7224,4.584c1.34,0.7092,2.9804,0.594,4.2112-0.3044
		c1.2304-0.8968,1.8477-2.4124,1.5896-3.9144l-1.668-9.7068l7.0588-6.8752c1.0896-1.0624,1.4804-2.652,1.0116-4.1012
		c-0.4728-1.4476-1.7228-2.504-3.2304-2.7228l-9.7499-1.416l-4.3597-8.832c-1.3436-2.7304-5.828-2.7304-7.1716,0l-4.3596,8.832
		l-9.746,1.416c-1.5076,0.2188-2.7576,1.2752-3.2304,2.7228c-0.4687,1.4472-0.078,3.0368,1.0116,4.0996L79.922,48.2288z
		 M88.0624,40.7288c1.3048-0.1896,2.43-1.008,3.012-2.1896l1.7032-3.4492l1.7028,3.4492c0.582,1.1816,1.7072,2,3.012,2.1896
		l3.8084,0.5528l-2.7576,2.6856c-0.9416,0.9195-1.3712,2.244-1.1483,3.5428l0.6483,3.7912L94.6368,49.51
		c-1.164-0.6132-2.5508-0.6132-3.7228,0l-3.402,1.7912l0.6484-3.7932c0.2225-1.2968-0.2072-2.6213-1.1484-3.5388l-2.758-2.6876
		L88.0624,40.7288z"/>
</g>
</svg>
