<?xml version="1.0" encoding="utf-8"?>
<!-- Generator: Adobe Illustrator 19.2.0, SVG Export Plug-In . SVG Version: 6.00 Build 0)  -->
<svg version="1.1" id="galaxy" xmlns="http://www.w3.org/2000/svg" xmlns:xlink="http://www.w3.org/1999/xlink" x="0px" y="0px"
	 viewBox="0 0 209.236 206.6848" enable-background="new 0 0 209.236 206.6848" xml:space="preserve">
<g>
	<path fill="none" d="M94.1565,152.1719c1.4416-1.6836,3.9628-1.8672,5.6408-0.4372c1.5112,1.2956,3.0344,2.5608,4.5568,3.8256
		c2.5916-2.1468,5.2012-4.3584,7.8328-6.6596c-1.0656-0.9072-2.1272-1.794-3.1944-2.7208c-1.668-1.4492-1.8456-3.9728-0.3964-5.6408
		c1.4432-1.6716,3.9688-1.8552,5.6424-0.3984c1.3264,1.1524,2.648,2.262,3.9708,3.382c4.8132-4.3828,9.6712-9.006,14.5508-13.886
		c25.0664-25.0664,45.578-51.6092,57.7616-74.738c11.1464-21.1604,14.0256-37.5664,7.7032-43.8908
		c-2.2108-2.2108-5.6584-3.2968-10.1076-3.2968c-8.2732,0-20.0232,3.754-33.7832,11
		c-23.1288,12.1836-49.6696,32.6952-74.736,57.7616c-9.9316,9.9324-18.8308,19.7796-26.6848,29.3224
		c0.7636,0.1964,1.4928,0.548,2.046,1.1896c1.72,1.9956,3.48,3.9964,5.2652,5.9888c2.2704-2.6704,4.5552-5.2976,6.8296-7.86
		c-1.3108-1.4404-2.6244-2.882-3.8916-4.3088c-1.4648-1.652-1.3164-4.1796,0.336-5.6484c1.656-1.4648,4.1836-1.3124,5.6484,0.336
		c1.0724,1.2084,2.1892,2.4308,3.294,3.6488c5.156-5.6284,10.1308-10.8136,14.5712-15.2544
		c27.66-27.66,83.9824-75.9648,99.1348-60.8004c6.0956,6.0976,2.656,18.902-10.5156,39.156
		c-11.6312,17.8828-29.4884,39.1836-50.2852,59.9768c-20.7952,20.7968-42.096,38.656-59.9788,50.2888
		c-13.8008,8.9768-24.1444,13.4336-31.2616,13.4336c-3.33,0-5.9532-0.9764-7.8944-2.918
		c-10.022-10.0216,7.692-38.0268,28.8396-63.8512c-2.0868-2.3168-4.15-4.6424-6.154-6.9692c-0.2208-0.256-0.332-0.5588-0.4768-0.848
		c-31.7368,40.1628-44.106,73.9236-34.2868,83.7428c9.8416,9.834,43.6704-2.576,83.8952-34.4008
		c-1.1472-0.9604-2.2984-1.908-3.4384-2.8844C92.9145,156.3751,92.7189,153.8479,94.1565,152.1719z"/>
	<circle fill="none" cx="104.0081" cy="104.6447" r="4"/>
	<path fill="none" d="M31.8673,177.3675c1.2444,1.25,8.9044,1.5936,29.1368-11.5664c7.4568-4.8496,15.5576-10.8796,23.9624-17.7288
		c-0.876-0.0628-1.742-0.3696-2.4348-1.0136c-3.9024-3.6212-7.8164-7.3904-11.6348-11.1992
		c-1.5628-1.5624-1.5664-4.0936-0.006-5.6564c1.5568-1.57,4.09-1.57,5.6584-0.0076c3.748,3.742,7.5936,7.4412,11.4236,10.996
		c0.9912,0.9204,1.3384,2.2176,1.1708,3.4636c3.1792-2.666,6.4028-5.482,9.6424-8.3672c-0.646-0.156-1.2716-0.4136-1.7916-0.8972
		c-3.8536-3.586-7.7404-7.3164-11.6348-11.1716c-1.5704-1.5548-1.582-4.09-0.0272-5.6604c1.5524-1.5704,4.0876-1.574,5.656-0.0272
		c3.836,3.8008,7.6604,7.4688,11.4552,11c0.7044,0.6568,1.0636,1.5164,1.1832,2.4012c5.3384-4.8892,10.714-10.0212,16.0628-15.37
		c20.414-20.414,37.8984-41.254,49.2364-58.6836c13.158-20.2304,12.8084-27.8908,11.5644-29.1368
		c-0.4708-0.4688-1.2636-0.7108-2.3572-0.7108c-9.5744,0-42.3128,18.3632-85.4652,61.5116
		c-5.3328,5.3336-10.2256,10.478-14.8136,15.4692c0.6792,0.7248,1.3372,1.4448,2.0268,2.1716
		c1.5192,1.6052,1.4528,4.1364-0.1504,5.656c-0.7736,0.7344-1.764,1.0976-2.752,1.0976c-1.0588,0-2.1152-0.418-2.9024-1.246
		c-0.5444-0.574-1.0612-1.1416-1.5992-1.714c-2.4016,2.7068-4.6916,5.3504-6.8688,7.9328c1.3988,1.62,1.2996,4.0584-0.28,5.5312
		c-0.7696,0.7148-1.748,1.0704-2.7248,1.0704c-0.6912,0-1.3512-0.2444-1.9664-0.5988
		C36.9745,154.1783,28.5073,174.0059,31.8673,177.3675z M104.0081,92.6447c6.6172,0,12,5.3828,12,12c0,6.6172-5.3828,12-12,12
		c-6.6172,0-12-5.3828-12-12C92.0081,98.0275,97.3909,92.6447,104.0081,92.6447z"/>
	<path d="M177.9105,132.4259c0.7716,0,1.5508-0.2228,2.2384-0.6876c1.828-1.238,2.3084-3.7224,1.07-5.5544
		c-2.906-4.2932-6.08-8.7268-9.4356-13.176c-1.328-1.7616-3.8356-2.1212-5.6012-0.7812c-1.764,1.328-2.1156,3.836-0.7852,5.6016
		c3.2732,4.336,6.3672,8.6564,9.1972,12.84C175.3673,131.8087,176.6273,132.4259,177.9105,132.4259z"/>
	<path d="M3.6625,15.3947c0.5896,0.3048,1.2188,0.4492,1.8376,0.4492c1.4476,0,2.844-0.7852,3.5548-2.16
		c0.4784-0.922,1.0488-1.7072,1.7444-2.4024c1.8592-1.8632,4.6052-2.9532,8.16-3.2344c2.2012-0.176,3.8456-2.1056,3.67-4.3048
		c-0.176-2.2068-2.0996-3.8476-4.3068-3.672c-5.506,0.4416-9.9412,2.3088-13.1816,5.5548c-1.2656,1.2656-2.338,2.7384-3.1876,4.3788
		C0.9357,11.9651,1.7013,14.3791,3.6625,15.3947z"/>
	<path d="M193.9533,160.0823c0.5704,0,1.1504-0.1212,1.7012-0.3792c1.998-0.9412,2.8576-3.324,1.916-5.324
		c-2.164-4.6016-4.744-9.4648-7.666-14.4532c-1.1192-1.9024-3.5684-2.5468-5.4724-1.4296c-1.9064,1.1172-2.5472,3.5704-1.43,5.4764
		c2.8008,4.7812,5.2676,9.43,7.3304,13.8128C191.0141,159.2347,192.4533,160.0823,193.9533,160.0823z"/>
	<path d="M110.7809,160.7847c2.5236-2.132,5.084-4.3696,7.6644-6.6624c0.9852,0.8052,1.9816,1.6372,2.9552,2.4168
		c0.7384,0.594,1.6212,0.8792,2.4984,0.8792c1.1716,0,2.334-0.512,3.1248-1.5c1.3808-1.7228,1.1016-4.2424-0.6232-5.6212
		c-0.6488-0.5204-1.3164-1.0812-1.9712-1.6132c4.594-4.2368,9.2428-8.6468,13.9872-13.3908
		c63.4608-63.4608,81.0936-114.3124,65.4648-129.9412c-13.0476-13.0528-50.6604-2.8864-99.656,37.7544
		c-3.926-3.2132-7.8652-6.3216-11.7252-9.2156c-1.7636-1.3204-4.2752-0.9648-5.5996,0.7968
		c-1.326,1.7696-0.9684,4.2776,0.7992,5.6016c3.3928,2.5464,6.852,5.2744,10.31,8.0796c-2.5244,2.1844-5.0764,4.4504-7.654,6.7932
		c-3.7804-3.158-7.542-6.2032-11.1932-9.0212c-1.7444-1.3396-4.258-1.0232-5.6096,0.7228c-1.3496,1.75-1.0272,4.2616,0.7228,5.6132
		c3.3124,2.5568,6.7248,5.318,10.1564,8.1692c-3.4572,3.2568-6.9508,6.6312-10.4904,10.1708
		c-5.058,5.0584-9.7928,10.026-14.2748,14.9128c-0.0532-0.8052-0.2776-1.6052-0.8288-2.2764
		c-3.492-4.25-6.7812-8.4336-9.7752-12.4412c-1.3224-1.7696-3.8264-2.1368-5.5976-0.8088c-1.7696,1.3204-2.1328,3.8284-0.8088,5.598
		c3.0664,4.1052,6.4316,8.3864,10.002,12.7304c0.7912,0.9648,1.9376,1.4608,3.0916,1.4608c0.0212,0,0.0416-0.0104,0.0628-0.0108
		c-48.5812,54.3836-61.354,96.7564-47.336,110.7724c3.5216,3.5236,8.83,5.3556,15.672,5.3556
		c17.8696,0,46.196-12.5492,80.3308-40.126c0.8684,0.6956,1.74,1.4144,2.6044,2.0948c0.7324,0.5744,1.6036,0.8556,2.4708,0.8556
		c1.1836,0,2.3556-0.5236,3.1464-1.5276c1.3652-1.7344,1.0648-4.25-0.6716-5.6172
		C111.6149,161.4631,111.1965,161.1147,110.7809,160.7847z M14.1333,195.0979c-9.8192-9.8192,2.55-43.58,34.2868-83.7428
		c0.1448,0.2892,0.256,0.592,0.4768,0.848c2.004,2.3268,4.0672,4.6524,6.154,6.9692
		c-21.1476,25.8244-38.8616,53.8296-28.8396,63.8512c1.9412,1.9416,4.5644,2.918,7.8944,2.918
		c7.1172,0,17.4608-4.4568,31.2616-13.4336c17.8828-11.6328,39.1836-29.492,59.9788-50.2888
		c20.7968-20.7932,38.654-42.094,50.2852-59.9768c13.1716-20.254,16.6112-33.0584,10.5156-39.156
		c-15.1524-15.1644-71.4748,33.1404-99.1348,60.8004c-4.4404,4.4408-9.4152,9.626-14.5712,15.2544
		c-1.1048-1.218-2.2216-2.4404-3.294-3.6488c-1.4648-1.6484-3.9924-1.8008-5.6484-0.336c-1.6524,1.4688-1.8008,3.9964-0.336,5.6484
		c1.2672,1.4268,2.5808,2.8684,3.8916,4.3088c-2.2744,2.5624-4.5592,5.1896-6.8296,7.86c-1.7852-1.9924-3.5452-3.9932-5.2652-5.9888
		c-0.5532-0.6416-1.2824-0.9932-2.046-1.1896c7.854-9.5428,16.7532-19.39,26.6848-29.3224
		c25.0664-25.0664,51.6072-45.578,74.736-57.7616c13.76-7.246,25.51-11,33.7832-11c4.4492,0,7.8968,1.086,10.1076,3.2968
		c6.3224,6.3244,3.4432,22.7304-7.7032,43.8908c-12.1836,23.1288-32.6952,49.6716-57.7616,74.738
		c-4.8796,4.88-9.7376,9.5032-14.5508,13.886c-1.3228-1.12-2.6444-2.2296-3.9708-3.382c-1.6736-1.4568-4.1992-1.2732-5.6424,0.3984
		c-1.4492,1.668-1.2716,4.1916,0.3964,5.6408c1.0672,0.9268,2.1288,1.8136,3.1944,2.7208
		c-2.6316,2.3012-5.2412,4.5128-7.8328,6.6596c-1.5224-1.2648-3.0456-2.53-4.5568-3.8256c-1.678-1.43-4.1992-1.2464-5.6408,0.4372
		c-1.4376,1.676-1.242,4.2032,0.4336,5.6408c1.14,0.9764,2.2912,1.924,3.4384,2.8844
		C57.8037,192.5219,23.9749,204.9319,14.1333,195.0979z M62.6037,125.5119c0.9768,0,1.9552-0.3556,2.7248-1.0704
		c1.5796-1.4728,1.6788-3.9112,0.28-5.5312c2.1772-2.5824,4.4672-5.226,6.8688-7.9328c0.538,0.5724,1.0548,1.14,1.5992,1.714
		c0.7872,0.828,1.8436,1.246,2.9024,1.246c0.988,0,1.9784-0.3632,2.752-1.0976c1.6032-1.5196,1.6696-4.0508,0.1504-5.656
		c-0.6896-0.7268-1.3476-1.4468-2.0268-2.1716c4.588-4.9912,9.4808-10.1356,14.8136-15.4692
		c43.1524-43.1484,75.8908-61.5116,85.4652-61.5116c1.0936,0,1.8864,0.242,2.3572,0.7108c1.244,1.246,1.5936,8.9064-11.5644,29.1368
		c-11.338,17.4296-28.8224,38.2696-49.2364,58.6836c-5.3488,5.3488-10.7244,10.4808-16.0628,15.37
		c-0.1196-0.8848-0.4788-1.7444-1.1832-2.4012c-3.7948-3.5312-7.6192-7.1992-11.4552-11c-1.5684-1.5468-4.1036-1.5432-5.656,0.0272
		c-1.5548,1.5704-1.5432,4.1056,0.0272,5.6604c3.8944,3.8552,7.7812,7.5856,11.6348,11.1716
		c0.52,0.4836,1.1456,0.7412,1.7916,0.8972c-3.2396,2.8852-6.4632,5.7012-9.6424,8.3672c0.1676-1.246-0.1796-2.5432-1.1708-3.4636
		c-3.83-3.5548-7.6756-7.254-11.4236-10.996c-1.5684-1.5624-4.1016-1.5624-5.6584,0.0076c-1.5604,1.5628-1.5568,4.094,0.006,5.6564
		c3.8184,3.8088,7.7324,7.578,11.6348,11.1992c0.6928,0.644,1.5588,0.9508,2.4348,1.0136
		c-8.4048,6.8492-16.5056,12.8792-23.9624,17.7288c-20.2324,13.16-27.8924,12.8164-29.1368,11.5664
		c-3.36-3.3616,5.1072-23.1892,28.77-52.4544C61.2525,125.2675,61.9125,125.5119,62.6037,125.5119z"/>
	<path d="M198.6313,167.1367c-2.1152,0.6328-3.3164,2.8636-2.6836,4.9808c1.492,4.9804,2.248,9.3944,2.248,13.1248
		c0,0.4296-0.01,0.8556-0.0312,1.2736c-0.1076,2.2068,1.5936,4.082,3.8008,4.1912c0.0664,0.004,0.1328,0.004,0.1992,0.004
		c2.1188,0,3.8864-1.664,3.992-3.8048c0.0256-0.5428,0.0392-1.1016,0.0392-1.664c0-4.5076-0.8692-9.6952-2.584-15.422
		C202.9769,167.7031,200.7465,166.5195,198.6313,167.1367z"/>
	<path d="M137.7893,180.0355c-4.256-2.6644-8.664-5.6136-13.1056-8.7696c-1.8044-1.2812-4.2968-0.8556-5.578,0.9452
		c-1.2792,1.8008-0.8556,4.2968,0.9452,5.578c4.5664,3.2424,9.1076,6.2812,13.4924,9.0276c0.66,0.414,1.3944,0.6092,2.1192,0.6092
		c1.332,0,2.6348-0.664,3.3944-1.8788C140.2289,183.6759,139.6605,181.2071,137.7893,180.0355z"/>
	<path d="M193.0081,196.8243c-2.086,1.2344-4.8612,1.8596-8.258,1.8596c-1.5-0.1212-3.0408-0.1136-4.7184-0.3516
		c-2.1544-0.3008-4.2092,1.2188-4.5196,3.4024c-0.3088,2.1872,1.2148,4.2108,3.4024,4.5192c2.0252,0.2852,3.9688,0.43,5.7676,0.43
		c4.828,0.0352,9.0448-0.9884,12.3964-2.9688c1.9024-1.1252,2.5332-3.5784,1.408-5.4804
		C197.3617,196.3363,194.9065,195.7071,193.0081,196.8243z"/>
	<path d="M165.5061,194.3363c-4.416-1.6956-9.168-3.8672-14.1228-6.4612c-1.9612-1.0312-4.3772-0.2656-5.4004,1.6876
		c-1.0236,1.9568-0.2676,4.3748,1.6892,5.3984c5.2284,2.7384,10.2656,5.0392,14.9708,6.8436
		c0.4708,0.18,0.9552,0.2656,1.4316,0.2656c1.6076,0,3.1252-0.9764,3.7344-2.5664
		C168.5997,197.4415,167.5705,195.1251,165.5061,194.3363z"/>
	<path d="M8.4025,46.8595c0.4844,0,0.9788-0.09,1.4572-0.2772c2.0568-0.8048,3.0724-3.1252,2.2656-5.1836
		c-2.0956-5.344-3.5-10.2268-4.174-14.512c-0.3456-2.1836-2.3944-3.6484-4.572-3.332c-2.1816,0.344-3.674,2.3908-3.33,4.5744
		c0.7636,4.8556,2.32,10.3048,4.6268,16.1912C5.2953,45.8987,6.8029,46.8595,8.4025,46.8595z"/>
	<path d="M13.2641,53.8323c-1.9532,1.0352-2.6976,3.4532-1.6644,5.406c2.4024,4.5352,5.1604,9.2776,8.1996,14.094
		c0.7596,1.2068,2.0584,1.8672,3.3864,1.8672c0.7288,0,1.4688-0.1992,2.1308-0.6172c1.8672-1.1796,2.428-3.6484,1.2484-5.5156
		c-2.9316-4.6484-5.588-9.2148-7.8948-13.5704C17.6369,53.5431,15.2189,52.8011,13.2641,53.8323z"/>
	<path d="M33.3089,10.0079c4.3808,1.2616,9.2108,3.1132,14.3556,5.496c0.5448,0.254,1.1152,0.3712,1.6796,0.3712
		c1.5096,0,2.9552-0.8592,3.6308-2.3164c0.9296-2.0076,0.0568-4.3828-1.9472-5.3124c-5.5156-2.5548-10.7304-4.5508-15.504-5.926
		c-2.1212-0.6092-4.34,0.6136-4.9512,2.7344C29.9613,7.1799,31.1857,9.3947,33.3089,10.0079z"/>
	<path d="M61.5061,22.7695c4.3088,2.5,8.7932,5.3128,13.33,8.3596c0.6856,0.4608,1.4592,0.6796,2.2268,0.6796
		c1.2868,0,2.5528-0.6212,3.324-1.7696c1.2324-1.832,0.7444-4.32-1.0896-5.5508c-4.6816-3.1444-9.3164-6.0508-13.7756-8.6404
		c-1.912-1.1056-4.3552-0.4532-5.4668,1.4532C58.9457,19.2111,59.5961,21.6603,61.5061,22.7695z"/>
	<path d="M29.7933,81.2151c-1.7968,1.2852-2.2128,3.7812-0.9276,5.582c3.0272,4.2344,6.3024,8.586,9.734,12.9336
		c0.7892,1,1.9612,1.5232,3.1428,1.5232c0.8692,0,1.742-0.2812,2.4764-0.8592c1.7344-1.3672,2.0296-3.8828,0.6624-5.6172
		c-3.3556-4.25-6.5528-8.504-9.508-12.6368C34.0881,80.3479,31.5901,79.9299,29.7933,81.2151z"/>
	<path d="M182.5765,178.4375c-1.3516-1.75-3.8596-2.078-5.6096-0.7344c-1.0036,0.7696-3.5644,1.2852-11.3572-1.9372
		c-2.0448-0.8476-4.3828,0.1248-5.2248,2.164c-0.8456,2.0428,0.1252,4.3828,2.166,5.2264c4.8928,2.0276,8.9104,3.012,12.2796,3.012
		c2.822,0,5.1816-0.7152,7.0116-2.1212C183.5941,182.6995,183.9221,180.1875,182.5765,178.4375z"/>
	<path d="M175.6917,167.2891c0.6152,1.586,2.1268,2.5548,3.7304,2.5548c0.4804,0,0.9708-0.086,1.4452-0.2696
		c2.0588-0.7968,3.0824-3.1132,2.2852-5.1756c-1.6756-4.3244-4.2108-9.3284-7.5368-14.8672
		c-1.1368-1.8948-3.594-2.504-5.4884-1.3712c-1.8944,1.1368-2.508,3.5936-1.3712,5.4884
		C171.8481,158.7971,174.1821,163.3867,175.6917,167.2891z"/>
	<path d="M46.7113,29.4923c-1.0684,1.9336-0.3652,4.3672,1.5684,5.4336c4.0604,2.2424,8.5212,5.0236,13.2556,8.258
		c0.6916,0.4724,1.4768,0.6992,2.254,0.6992c1.2772,0,2.5312-0.6096,3.3068-1.7424c1.246-1.824,0.7792-4.3124-1.0452-5.5584
		c-4.9452-3.3828-9.6228-6.2932-13.904-8.6564C50.2133,26.8519,47.7797,27.5627,46.7113,29.4923z"/>
	<path d="M138.9653,159.8751c-1.7892-1.2852-4.2932-0.8788-5.584,0.9064c-1.2932,1.7928-0.8868,4.2928,0.904,5.586
		c4.756,3.4296,9.3144,6.4804,13.5472,9.07c0.6504,0.3988,1.3728,0.59,2.084,0.59c1.3456,0,2.66-0.6796,3.416-1.91
		c1.152-1.8868,0.5604-4.348-1.3244-5.5C147.9477,166.1291,143.5589,163.1915,138.9653,159.8751z"/>
	<path d="M163.3713,142.2423c0.8028,0,1.6132-0.242,2.3184-0.742c1.7988-1.2852,2.2168-3.7812,0.9356-5.5784
		c-2.9628-4.156-6.252-8.5076-9.7736-12.9372c-1.3788-1.7308-3.8904-2.0156-5.6208-0.6368
		c-1.7288,1.3748-2.0156,3.8904-0.6408,5.6212c3.4356,4.3164,6.6388,8.5544,9.5196,12.5936
		C160.8909,141.6603,162.1213,142.2423,163.3713,142.2423z"/>
	<path d="M32.2385,44.6955c-0.9764-1.9804-3.3728-2.7968-5.3572-1.8164c-1.9824,0.9764-2.7952,3.3748-1.8184,5.3556
		c2.1248,4.3084,4.904,9.1016,8.2576,14.2536c0.7656,1.176,2.0468,1.8164,3.3556,1.8164c0.748,0,1.506-0.2108,2.1776-0.6484
		c1.8516-1.2032,2.3752-3.6836,1.17-5.5352C36.8421,53.2347,34.2229,48.7191,32.2385,44.6955z"/>
	<path d="M23.9005,35.2735c2.2092,0,4-1.832,4-4.0428c0-1.09,0.1976-1.8868,0.5508-2.2424c0.7072-0.7028,3.1312-0.742,6.1136,0.0156
		c2.1504,0.5352,4.3164-0.7576,4.8592-2.8944c0.5428-2.1444-0.752-4.3204-2.8944-4.8632
		c-6.2012-1.5664-10.7952-0.8476-13.7324,2.086c-1.922,1.9216-2.8968,4.582-2.8968,7.9804
		C19.9005,33.5235,21.6917,35.2735,23.9005,35.2735z"/>
	<path d="M104.0081,116.6447c6.6172,0,12-5.3828,12-12c0-6.6172-5.3828-12-12-12c-6.6172,0-12,5.3828-12,12
		C92.0081,111.2619,97.3909,116.6447,104.0081,116.6447z M104.0081,100.6447c2.2052,0,4,1.7928,4,4c0,2.2072-1.7948,4-4,4
		c-2.2052,0-4-1.7928-4-4C100.0081,102.4375,101.8029,100.6447,104.0081,100.6447z"/>
</g>
</svg>
