<?xml version="1.0" encoding="utf-8"?>
<!-- Generator: Adobe Illustrator 19.2.0, SVG Export Plug-In . SVG Version: 6.00 Build 0)  -->
<svg version="1.1" id="heatnucleus" xmlns="http://www.w3.org/2000/svg" xmlns:xlink="http://www.w3.org/1999/xlink" x="0px"
	 y="0px" viewBox="0 0 151.0624 222.4587" enable-background="new 0 0 151.0624 222.4587" xml:space="preserve">
<g>
	<path fill="none" d="M89.1504,80.7672l-3.25-0.664l0.0664-4.7088c0-27.0412-16.25-51.2968-40.498-61.9044
		c3.668,9.008,5.578,18.7072,5.578,28.5236c0,21.4491-14.16,42.0196-24.502,57.0408c-1.6112,2.342-3.1504,4.5763-4.5508,6.6896
		C12.7852,117.8084,8,131.9744,8,146.9276c0,37.2364,30.2948,67.5311,67.5312,67.5311c18.0392,0,34.998-7.0251,47.752-19.7791
		c12.754-12.756,19.7792-29.7148,19.7792-47.752C143.0624,114.986,120.3888,87.162,89.1504,80.7672z M75.5312,206.4587
		c-19.8496,0-36-16.1503-36-36c0-19.8495,16.1504-36,36-36c19.8496,0,36,16.1505,36,36
		C111.5312,190.3084,95.3808,206.4587,75.5312,206.4587z"/>
	<path fill="none" d="M75.5312,142.4587c-15.4396,0-28,12.5605-28,28c0,15.4397,12.5604,28,28,28c15.4396,0,28-12.5603,28-28
		C103.5312,155.0192,90.9708,142.4587,75.5312,142.4587z"/>
	<path d="M93.9472,73.656C93.1836,40.5488,70.67,11.4824,38.67,2.6052L29.2792,0l4.8516,8.4507
		c5.832,10.1605,8.916,21.7677,8.916,33.5629c0,18.9608-12.8028,37.5604-23.09,52.5036c-1.6404,2.3832-3.2048,4.6564-4.4744,6.586
		C5.3536,114.3572,0,130.2027,0,146.9276c0,41.6484,33.8828,75.5311,75.5312,75.5311c20.1776,0,39.1444-7.8575,53.4084-22.1231
		c14.2656-14.2656,22.1228-33.2324,22.1228-53.408C151.0624,112.3004,127.2344,82,93.9472,73.656z M123.2832,194.6796
		c-12.754,12.754-29.7128,19.7791-47.752,19.7791C38.2948,214.4587,8,184.164,8,146.9276c0-14.9532,4.7852-29.1192,13.994-41.1836
		c1.4004-2.1133,2.9396-4.3476,4.5508-6.6896c10.342-15.0212,24.502-35.5917,24.502-57.0408c0-9.8164-1.91-19.5156-5.578-28.5236
		c24.248,10.6076,40.498,34.8632,40.498,61.9044l-0.0664,4.7088l3.25,0.664c31.2384,6.3948,53.912,34.2188,53.912,66.1604
		C143.0624,164.9648,136.0372,181.9236,123.2832,194.6796z"/>
	<path d="M75.5312,134.4587c-19.8496,0-36,16.1505-36,36c0,19.8497,16.1504,36,36,36c19.8496,0,36-16.1503,36-36
		C111.5312,150.6092,95.3808,134.4587,75.5312,134.4587z M75.5312,198.4587c-15.4396,0-28-12.5603-28-28c0-15.4395,12.5604-28,28-28
		c15.4396,0,28,12.5605,28,28C103.5312,185.8984,90.9708,198.4587,75.5312,198.4587z"/>
</g>
</svg>
