<?xml version="1.0" encoding="utf-8"?>
<!-- Generator: Adobe Illustrator 19.2.0, SVG Export Plug-In . SVG Version: 6.00 Build 0)  -->
<svg version="1.1" id="heatfirelamp" xmlns="http://www.w3.org/2000/svg" xmlns:xlink="http://www.w3.org/1999/xlink" x="0px"
	 y="0px" viewBox="0 0 200 219.9478" enable-background="new 0 0 200 219.9478" xml:space="preserve">
<g>
	<path fill="none" d="M136,171.9478h-22v-8h21.2611c-1.66-4.6459-6.0676-8-11.2848-8H108h-8H80.0235
		c-6.6292,0-12.0235,5.3829-12.0235,12v12h68V171.9478z"/>
	<path fill="none" d="M128,107.9478v-20H80v20c0,11.0273,8.9687,20,19.992,20h8.016C119.0311,127.9478,128,118.9751,128,107.9478z"
		/>
	<path fill="none" d="M103.7383,62.0063c11.0544,0,20.0508-8.994,20.0508-20.0505c0-7.6115-11.3244-22.5859-20.0508-32.1663
		c-8.7268,9.5804-20.0468,24.5548-20.0468,32.1663C83.6915,53.0123,92.6835,62.0063,103.7383,62.0063z"/>
	<polygon fill="none" points="64,187.9478 8,187.9478 8,211.9478 192,211.9478 192,187.9478 140,187.9478 	"/>
	<path d="M103.7383,70.0063c15.4688,0,28.0508-12.5836,28.0508-28.0505c0-14.4883-22.6056-38.1467-25.1836-40.7971
		c-1.512-1.5469-4.2304-1.5429-5.7344,0c-2.5784,2.6504-25.1796,26.3108-25.1796,40.7971
		C75.6915,57.4227,88.2735,70.0063,103.7383,70.0063z M103.7383,9.7895c8.7264,9.5804,20.0508,24.5548,20.0508,32.1663
		c0,11.0565-8.9964,20.0505-20.0508,20.0505c-11.0548,0-20.0468-8.994-20.0468-20.0505
		C83.6915,34.3443,95.0115,19.3699,103.7383,9.7895z"/>
	<path d="M196,179.9478h-52v-8h36v-2v-6v-26.3299h-8v26.3299h-28.4053c-1.8608-9.1171-9.9504-16-19.6184-16H108v-12h0.008
		c15.4335,0,27.992-12.5603,27.992-28v-24c0-2.2087-1.7893-4-4-4H76c-2.2109,0-4,1.7913-4,4v24c0,15.4397,12.5583,28,27.992,28H100
		v12H80.0235c-11.0392,0-20.0235,8.9729-20.0235,20v12H4c-2.2109,0-4,1.7913-4,4v32c0,2.2089,1.7891,4,4,4h192
		c2.2107,0,4-1.7911,4-4v-32C200,181.7391,198.2107,179.9478,196,179.9478z M80,107.9478v-20h48v20c0,11.0273-8.9689,20-19.992,20
		h-8.016C88.9687,127.9478,80,118.9751,80,107.9478z M68,167.9478c0-6.6171,5.3943-12,12.0235-12H100h8h15.9763
		c5.2172,0,9.6248,3.3541,11.2848,8H114v8h22v8H68V167.9478z M192,211.9478H8v-24h56h76h52V211.9478z"/>
</g>
</svg>
