<?xml version="1.0" encoding="utf-8"?>
<!-- Generator: Adobe Illustrator 19.2.0, SVG Export Plug-In . SVG Version: 6.00 Build 0)  -->
<svg version="1.1" id="heatflask" xmlns="http://www.w3.org/2000/svg" xmlns:xlink="http://www.w3.org/1999/xlink" x="0px" y="0px"
	 viewBox="0 0 216 168" enable-background="new 0 0 216 168" xml:space="preserve">
<g>
	<circle fill="none" cx="144" cy="104" r="4"/>
	<path fill="none" d="M128,125.9764C128,144.7384,143.2539,160,162,160c18.7459,0,34-15.2616,34-34.0236V80h-68V125.9764z M172,142
		c0,5.5156-4.4845,10-10,10c-5.5157,0-10-4.4844-10-10s4.4843-10,10-10C167.5155,132,172,136.4844,172,142z M144,92
		c6.6171,0,12,5.3828,12,12s-5.3829,12-12,12c-6.6173,0-12-5.3828-12-12S137.3827,92,144,92z"/>
	<circle fill="none" cx="162" cy="142" r="2"/>
	<polygon fill="none" points="8,44 8,50.7148 120,63.5156 120,44 	"/>
	<path fill="none" d="M180,40c0,2.2108-1.7893,4-4,4h-48v24v4h68V24h-16V40z M184,60c0,4.41-3.5901,8-8,8c-4.4101,0-8-3.59-8-8
		s3.5899-8,8-8C180.4099,52,184,55.59,184,60z"/>
	<polygon fill="none" points="168,16 176,16 200,16 208,16 208,8 168,8 	"/>
	<path d="M212,0h-48c-2.2109,0-4,1.7892-4,4v16c0,2.2108,1.7891,4,4,4h8v12h-48H4c-2.2109,0-4,1.7892-4,4v14.2852
		c0,2.0352,1.5271,3.742,3.5467,3.9728L120,71.5672V76v49.9764C120,149.1484,138.84,168,162,168s42-18.8516,42-42.0236V76V24h8
		c2.2107,0,4-1.7892,4-4V4C216,1.7892,214.2107,0,212,0z M8,50.7148V44h112v19.5156L8,50.7148z M196,125.9764
		C196,144.7384,180.7459,160,162,160c-18.7461,0-34-15.2616-34-34.0236V80h68V125.9764z M196,72h-68v-4V44h48c2.2107,0,4-1.7892,4-4
		V24h16V72z M208,16h-8h-24h-8V8h40V16z"/>
	<path d="M144,116c6.6171,0,12-5.3828,12-12s-5.3829-12-12-12c-6.6173,0-12,5.3828-12,12S137.3827,116,144,116z M144,100
		c2.2071,0,4,1.7928,4,4s-1.7929,4-4,4c-2.2073,0-4-1.7928-4-4S141.7927,100,144,100z"/>
	<path d="M152,142c0,5.5156,4.4843,10,10,10c5.5155,0,10-4.4844,10-10s-4.4845-10-10-10C156.4843,132,152,136.4844,152,142z
		 M162,140c1.1015,0,2,0.8984,2,2s-0.8985,2-2,2c-1.1017,0-2-0.8984-2-2S160.8983,140,162,140z"/>
	<path d="M168,60c0,4.41,3.5899,8,8,8c4.4099,0,8-3.59,8-8s-3.5901-8-8-8C171.5899,52,168,55.59,168,60z"/>
</g>
</svg>
