<?xml version="1.0" encoding="utf-8"?>
<!-- Generator: Adobe Illustrator 19.2.0, SVG Export Plug-In . SVG Version: 6.00 Build 0)  -->
<svg version="1.1" id="heatflasklab" xmlns="http://www.w3.org/2000/svg" xmlns:xlink="http://www.w3.org/1999/xlink" x="0px"
	 y="0px" viewBox="0 0 156 220" enable-background="new 0 0 156 220" xml:space="preserve">
<g>
	<path fill="none" d="M78.168,180c5.914,0,10.7264-4.8123,10.7264-10.7263c0-3.758-5.5916-11.5352-10.7264-17.3752
		c-5.1348,5.84-10.7264,13.6172-10.7264,17.3752C67.4416,175.1877,72.254,180,78.168,180z"/>
	<polygon fill="none" points="92,60.9453 92,20 64,20 64,60.9453 38.4728,112 117.5272,112 	"/>
	<path fill="none" d="M64,206c0,3.3085,2.7032,6,6.0272,6h15.9456c3.324,0,6.0272-2.6915,6.0272-6v-6H64V206z"/>
	<polygon fill="none" points="25.5272,120 8,120 8,128 148,128 148,120 130.4727,120 	"/>
	<path d="M156,112h-29.5272L100,59.0549V12H56v47.0549L29.5272,112H0v24h32v84h8v-84h76v84h8v-84h32V112z M64,60.9453V20h28v40.9453
		L117.5272,112H38.4728L64,60.9453z M148,128H8v-8h17.5272h104.9456H148V128z"/>
	<path d="M78.168,188c10.326,0,18.7264-8.4023,18.7264-18.7263c0-9.2852-13.2108-23.34-15.8592-26.0628
		c-1.504-1.5469-4.2304-1.5469-5.7344,0c-2.6484,2.7228-15.8592,16.7776-15.8592,26.0628C59.4416,179.5977,67.8416,188,78.168,188z
		 M78.168,151.8985c5.1348,5.84,10.7264,13.6172,10.7264,17.3752c0,5.914-4.8124,10.7263-10.7264,10.7263
		c-5.914,0-10.7264-4.8123-10.7264-10.7263C67.4416,165.5157,73.0332,157.7385,78.168,151.8985z"/>
	<path d="M96,192H60c-2.2088,0-4,1.7893-4,4v10c0,7.7189,6.2928,14,14.0272,14h15.9456C93.7072,220,100,213.7189,100,206v-10
		C100,193.7893,98.2088,192,96,192z M92,206c0,3.3085-2.7032,6-6.0272,6H70.0272C66.7032,212,64,209.3085,64,206v-6h28V206z"/>
	<rect x="60" width="36" height="8"/>
</g>
</svg>
