<?xml version="1.0" encoding="utf-8"?>
<!-- Generator: Adobe Illustrator 19.2.0, SVG Export Plug-In . SVG Version: 6.00 Build 0)  -->
<svg version="1.1" id="heightcone" xmlns="http://www.w3.org/2000/svg" xmlns:xlink="http://www.w3.org/1999/xlink" x="0px" y="0px"
	 viewBox="0 0 198.6289 213.2558" enable-background="new 0 0 198.6289 213.2558" xml:space="preserve">
<g>
	<path fill="none" d="M62,146.629c19.2083,0,35.8035,3.5736,46.9947,9.3808L62,26.3654L15.0051,156.0098
		C26.1963,150.2026,42.7915,146.629,62,146.629z"/>
	<path fill="none" d="M113.8647,169.4454c-6.248-7.752-25.8132-14.8164-51.8647-14.8164c-26.0517,0-45.6169,7.0644-51.8649,14.8164
		l-2.0624,5.6884C8.8403,184.4602,30.7391,194.629,62,194.629c31.2607,0,53.1595-10.1688,53.9271-19.4952L113.8647,169.4454z"/>
	<path d="M121.0511,165.7886L65.7615,13.2658c-0.574-1.582-2.078-2.6368-3.7615-2.6368c-1.6837,0-3.1877,1.0548-3.7617,2.6368
		L2.9487,165.7886C1.0471,168.5478,0,171.5098,0,174.629c0,0.0468,0.0139,0.0916,0.0147,0.1392
		c0.002,0.064,0.0136,0.1232,0.0192,0.1864C0.3987,190.753,26.8967,202.629,62,202.629c35.1031,0,61.6011-11.876,61.9659-27.6744
		c0.0056-0.0632,0.0172-0.1224,0.0192-0.1864c0.0008-0.0476,0.0149-0.0924,0.0149-0.1392
		C124,171.5098,122.9527,168.5478,121.0511,165.7886z M62,26.3654l46.9947,129.6444C97.8035,150.2026,81.2083,146.629,62,146.629
		c-19.2085,0-35.8037,3.5736-46.9949,9.3808L62,26.3654z M62,194.629c-31.2609,0-53.1597-10.1688-53.9273-19.4952l2.0624-5.6884
		c6.248-7.752,25.8132-14.8164,51.8649-14.8164c26.0515,0,45.6167,7.0644,51.8647,14.8164l2.0624,5.6884
		C115.1595,184.4602,93.2607,194.629,62,194.629z"/>
	<path d="M152.1991,29.457L168,13.6562V90.629c0,2.2088,1.7891,4,4,4c2.2107,0,4-1.7912,4-4V13.6562l15.8007,15.8008
		c0.7812,0.7812,1.8048,1.172,2.828,1.172c1.0236,0,2.0468-0.3908,2.8284-1.172c1.5624-1.5624,1.5624-4.0936,0-5.656L174.828,1.1718
		c-1.5625-1.5624-4.0937-1.5624-5.656,0L146.5427,23.801c-1.5624,1.5624-1.5624,4.0936,0,5.656
		C148.1055,31.0198,150.6367,31.0198,152.1991,29.457z"/>
	<path d="M191.8007,183.801L176,199.6002V122.629c0-2.2088-1.7893-4-4-4c-2.2109,0-4,1.7912-4,4v76.9712l-15.8009-15.7992
		c-1.5624-1.5628-4.0936-1.5628-5.6564,0c-1.5624,1.5624-1.5624,4.0936,0,5.656l22.6293,22.6272
		c0.7811,0.7812,1.8043,1.1716,2.828,1.1716c1.0235,0,2.0467-0.3904,2.828-1.1716l22.6291-22.6272
		c1.5624-1.5624,1.5624-4.0936,0-5.656C195.8943,182.2382,193.3631,182.2382,191.8007,183.801z"/>
</g>
</svg>
