<?xml version="1.0" encoding="utf-8"?>
<!-- Generator: Adobe Illustrator 19.2.0, SVG Export Plug-In . SVG Version: 6.00 Build 0)  -->
<svg version="1.1" id="hourglass" xmlns="http://www.w3.org/2000/svg" xmlns:xlink="http://www.w3.org/1999/xlink" x="0px" y="0px"
	 viewBox="0 0 120 224" enable-background="new 0 0 120 224" xml:space="preserve">
<g>
	<path fill="none" d="M112,8H8v50c0,27.5705,22.4432,50,50.0312,50h3.9376C89.5568,108,112,85.5705,112,58V8z M84,88H36
		c-2.2088,0-4-1.7911-4-4c0-2.2087,1.7912-4,4-4h48c2.2088,0,4,1.7913,4,4C88,86.2089,86.2088,88,84,88z M100,68H20
		c-2.2088,0-4-1.7911-4-4c0-2.2087,1.7912-4,4-4h80c2.2088,0,4,1.7913,4,4C104,66.2089,102.2088,68,100,68z M100,48H20
		c-2.2088,0-4-1.7911-4-4c0-2.2087,1.7912-4,4-4h80c2.2088,0,4,1.7913,4,4C104,46.2089,102.2088,48,100,48z M100,28H20
		c-2.2088,0-4-1.7911-4-4c0-2.2087,1.7912-4,4-4h80c2.2088,0,4,1.7913,4,4C104,26.2089,102.2088,28,100,28z"/>
	<path fill="none" d="M8,166v50h104v-50c0-27.5703-22.4432-50-50.0312-50h-3.9376C30.4432,116,8,138.4297,8,166z M100,204H20
		c-2.2088,0-4-1.7911-4-4c0-2.2087,1.7912-4,4-4h80c2.2088,0,4,1.7913,4,4C104,202.2089,102.2088,204,100,204z M100,184H20
		c-2.2088,0-4-1.7911-4-4c0-2.2087,1.7912-4,4-4h80c2.2088,0,4,1.7913,4,4C104,182.2089,102.2088,184,100,184z M100,156
		c2.2088,0,4,1.7913,4,4c0,2.2089-1.7912,4-4,4H20c-2.2088,0-4-1.7911-4-4c0-2.2087,1.7912-4,4-4H100z M84,136
		c2.2088,0,4,1.7913,4,4c0,2.2089-1.7912,4-4,4H36c-2.2088,0-4-1.7911-4-4c0-2.2087,1.7912-4,4-4H84z"/>
	<path d="M120,58V0H0v58c0,24.5637,15.3836,45.5589,37.0064,54C15.3836,120.4413,0,141.4365,0,166v58h120v-58
		c0-24.5635-15.3836-45.5587-37.0064-54C104.6164,103.5589,120,82.5637,120,58z M112,166v50H8v-50c0-27.5703,22.4432-50,50.0312-50
		h3.9376C89.5568,116,112,138.4297,112,166z M61.9688,108h-3.9376C30.4432,108,8,85.5705,8,58V8h104v50
		C112,85.5705,89.5568,108,61.9688,108z"/>
	<path d="M100,20H20c-2.2088,0-4,1.7913-4,4c0,2.2089,1.7912,4,4,4h80c2.2088,0,4-1.7911,4-4C104,21.7913,102.2088,20,100,20z"/>
	<path d="M100,40H20c-2.2088,0-4,1.7913-4,4c0,2.2089,1.7912,4,4,4h80c2.2088,0,4-1.7911,4-4C104,41.7913,102.2088,40,100,40z"/>
	<path d="M100,60H20c-2.2088,0-4,1.7913-4,4c0,2.2089,1.7912,4,4,4h80c2.2088,0,4-1.7911,4-4C104,61.7913,102.2088,60,100,60z"/>
	<path d="M84,80H36c-2.2088,0-4,1.7913-4,4c0,2.2089,1.7912,4,4,4h48c2.2088,0,4-1.7911,4-4C88,81.7913,86.2088,80,84,80z"/>
	<path d="M100,196H20c-2.2088,0-4,1.7913-4,4c0,2.2089,1.7912,4,4,4h80c2.2088,0,4-1.7911,4-4C104,197.7913,102.2088,196,100,196z"
		/>
	<path d="M100,176H20c-2.2088,0-4,1.7913-4,4c0,2.2089,1.7912,4,4,4h80c2.2088,0,4-1.7911,4-4C104,177.7913,102.2088,176,100,176z"
		/>
	<path d="M16,160c0,2.2089,1.7912,4,4,4h80c2.2088,0,4-1.7911,4-4c0-2.2087-1.7912-4-4-4H20C17.7912,156,16,157.7913,16,160z"/>
	<path d="M32,140c0,2.2089,1.7912,4,4,4h48c2.2088,0,4-1.7911,4-4c0-2.2087-1.7912-4-4-4H36C33.7912,136,32,137.7913,32,140z"/>
</g>
</svg>
