<?xml version="1.0" encoding="utf-8"?>
<!-- Generator: Adobe Illustrator 19.2.0, SVG Export Plug-In . SVG Version: 6.00 Build 0)  -->
<svg version="1.1" id="magnet" xmlns="http://www.w3.org/2000/svg" xmlns:xlink="http://www.w3.org/1999/xlink" x="0px" y="0px"
	 viewBox="0 0 229.7563 233.0293" enable-background="new 0 0 229.7563 233.0293" xml:space="preserve">
<g>
	<path fill="none" d="M199.5761,95.3185l-65.0408-65.0412l-19.7988,19.7988l62.2148,62.2168
		c17.7676,17.7676,18.6756,46.1076,2.7228,64.9476l22.6696,22.6716C229.1877,170.1113,228.2657,124.0096,199.5761,95.3185z"/>
	<path fill="none" d="M143.0273,194.2405c-0.0036,0-0.0076,0-0.0116,0c-12.8224,0-24.8768-4.9964-33.9472-14.0664l-62.2148-62.2148
		l-19.7988,19.8004l65.0408,65.0392c28.6916,28.6836,74.7932,29.6172,104.592,2.7696l-22.67-22.668
		C165.3653,190.2405,154.5041,194.2405,143.0273,194.2405z"/>
	<path d="M205.2325,89.6621l-70.6972-70.6972l-31.1112,31.1112l67.8708,67.8752c15.6016,15.6016,15.6056,40.9804,0.01,56.578
		c-7.5528,7.5548-17.594,11.7112-28.2776,11.7112h-0.0096c-10.6856,0-20.7344-4.1644-28.2932-11.7229l-67.8708-67.8711
		l-31.1116,31.1132l70.6976,70.6956c16.3828,16.3828,37.8984,24.574,59.416,24.574c20.2536,0,40.4528-7.356,56.4192-21.8736
		l0.1432,0.1432l2.828-2.828l2.828-2.8284l-0.1432-0.1432C237.8745,172.5713,237.0373,121.4653,205.2325,89.6621z
		 M176.9513,112.2929l-62.2148-62.2168l19.7988-19.7988l65.0408,65.0412c28.6896,28.6911,29.6116,74.7928,2.7676,104.5936
		l-22.6696-22.6716C195.6269,158.4005,194.7189,130.0605,176.9513,112.2929z M92.0957,202.7989l-65.0408-65.0392l19.7988-19.8004
		l62.2148,62.2148c9.0704,9.07,21.1248,14.0664,33.9472,14.0664c0.004,0,0.008,0,0.0116,0c11.4768,0,22.338-4,30.9904-11.34
		l22.67,22.668C166.8889,232.4161,120.7873,231.4825,92.0957,202.7989z"/>
	<path d="M118.3381,14.0801c0.7812,0.7812,1.8044,1.172,2.828,1.172c1.0236,0,2.0468-0.3908,2.828-1.172
		c1.5628-1.5625,1.5628-4.0936,0-5.656l-7.252-7.252c-1.5624-1.5628-4.0936-1.5628-5.656,0c-1.5624,1.5624-1.5624,4.0935,0,5.656
		L118.3381,14.0801z"/>
	<path d="M98.9337,39.9317c0.7812,0.7812,1.8048,1.172,2.828,1.172c1.0236,0,2.0468-0.3908,2.8284-1.172
		c1.5624-1.5604,1.5624-4.0936,0-5.656l-7.252-7.2541c-1.5628-1.5623-4.094-1.5623-5.6564,0c-1.5624,1.5605-1.5624,4.0937,0,5.656
		L98.9337,39.9317z"/>
	<path d="M105.0177,17.7305c0.7812,0.7812,1.8048,1.172,2.828,1.172c1.0236,0,2.0468-0.3908,2.8284-1.172
		c1.5624-1.5624,1.5624-4.0936,0-5.656l-7.252-7.252c-1.5628-1.5628-4.094-1.5628-5.6564,0c-1.5624,1.5624-1.5624,4.0936,0,5.656
		L105.0177,17.7305z"/>
	<path d="M33.4865,98.9336c0.7812,0.7813,1.8044,1.172,2.828,1.172c1.0236,0,2.0468-0.3907,2.828-1.172
		c1.5628-1.5623,1.5628-4.0955,0-5.6563l-7.2536-7.2517c-1.5628-1.5627-4.094-1.5627-5.6564,0c-1.5624,1.5625-1.5624,4.0957,0,5.656
		L33.4865,98.9336z"/>
	<path d="M6.8281,117.5333c-1.5624-1.5624-4.0936-1.5624-5.656,0c-1.5628,1.5624-1.5628,4.0936,0,5.6563l7.252,7.2501
		c0.7812,0.7812,1.8044,1.1716,2.828,1.1716c1.0232,0,2.0468-0.3904,2.828-1.1716c1.5624-1.5628,1.5624-4.0941,0-5.6564
		L6.8281,117.5333z"/>
	<path d="M17.3381,105.4121c0.7812,0.7812,1.8044,1.172,2.828,1.172s2.0468-0.3908,2.828-1.172c1.5628-1.5625,1.5628-4.0956,0-5.656
		l-7.2536-7.252c-1.5628-1.5625-4.094-1.5625-5.6564,0c-1.5624,1.5624-1.5624,4.0956,0,5.656L17.3381,105.4121z"/>
</g>
</svg>
