<?xml version="1.0" encoding="utf-8"?>
<!-- Generator: Adobe Illustrator 19.2.0, SVG Export Plug-In . SVG Version: 6.00 Build 0)  -->
<svg version="1.1" id="malescientist" xmlns="http://www.w3.org/2000/svg" xmlns:xlink="http://www.w3.org/1999/xlink" x="0px"
	 y="0px" viewBox="0 0 200 222" enable-background="new 0 0 200 222" xml:space="preserve">
<g>
	<path fill="none" d="M130.7303,93.0976l-15.8943,1.9532c-1.0665,0.1328-2.0117,0.664-2.664,1.504
		c-0.6565,0.8436-0.9417,1.9024-0.8129,2.9764l1.4572,11.8632c0.2736,2.2384,2.2148,3.754,4.4532,3.508l15.8945-1.9492
		c2.2227-0.2736,3.7499-2.246,3.4767-4.4844l-1.4572-11.8632C134.9063,94.3632,132.9375,92.8516,130.7303,93.0976z"/>
	<path fill="none" d="M85.168,95.0508l-15.8985-1.9532c-0.172-0.0196-0.34-0.0312-0.508-0.0312
		c-2.0036,0-3.6912,1.4728-3.9452,3.5392l-1.4572,11.8632c-0.2732,2.2384,1.254,4.2108,3.4769,4.4844l15.8943,1.9492
		c2.2424,0.2656,4.1796-1.2696,4.4532-3.508l1.4572-11.8632c0.1288-1.074-0.1564-2.1328-0.8127-2.9764
		C87.1755,95.7148,86.2303,95.1836,85.168,95.0508z"/>
	<path fill="none" d="M74.4063,53.1328c-6.93,9.4804-16.2812,13.0936-25.3672,16.6016c-2.582,0.9984-5.2172,2.034-7.8576,3.1972
		c0.1192,1.4924,0.2284,2.9888,0.4512,4.4708C46.9415,112.5,65.2071,150,100.5507,150c29.9952,0,53.0632-28.316,58.846-72.1556
		C153.6471,79.2284,147.7903,80,141.8711,80C117.0743,80,91.5779,77.8124,74.4063,53.1328z M144.5779,107.492
		c0.8088,6.5825-3.8748,12.594-10.4372,13.3988l-15.8948,1.9492c-0.496,0.0624-0.9844,0.0937-1.4688,0.0937
		c-5.9648,0-11.1484-4.4764-11.8984-10.5624L104.5875,110h-9.1752l-0.2912,2.3712c-0.746,6.086-5.9336,10.5584-11.8984,10.5584
		c-0.4844,0-0.9768-0.0272-1.4688-0.0896l-15.8948-1.9492c-6.5624-0.8048-11.246-6.8164-10.4372-13.3988l1.4568-11.8632
		c0.8088-6.582,6.8008-11.3084,13.3672-10.4688l15.8948,1.9532c3.1953,0.3908,6.0388,2,8.0076,4.5392
		c1.9572,2.5232,2.8204,5.668,2.4296,8.8556L96.3947,102h7.2104l-0.1832-1.492c-0.3908-3.1876,0.4724-6.3324,2.4296-8.8556
		c1.9688-2.5392,4.8125-4.1484,8.0116-4.5392l15.8908-1.9532c6.5272-0.8436,12.5544,3.8868,13.3672,10.4688L144.5779,107.492z"/>
	<path fill="none" d="M70.7811,43.75c0.664-1.3164,1.996-2.16,3.4688-2.1992c0.0352,0,0.0664,0,0.1016,0
		c1.4336,0,2.7616,0.7696,3.4765,2.0196C91.4531,67.4688,110.8475,72,141.8711,72c6.8472,0,13.618-1.0832,20.1872-3.1532
		c0.336-0.1844,0.6828-0.3052,1.0628-0.3816V50.5548C163.1211,27.09,142.2499,8,116.5975,8H84.504
		C58.8515,8,37.9803,27.09,37.9803,50.5548V65.582c2.7736-1.2228,5.5-2.2772,8.176-3.3084
		C56.7539,58.1796,65.1287,54.9452,70.7811,43.75z"/>
	<path d="M31.9295,75.4024c0.4745,0.2836,0.9948,0.4288,1.5225,0.5c0.1019,0.9004,0.1383,1.8024,0.2743,2.6952
		C41.1327,127.5744,66.7383,158,100.5507,158c34.3516,0,60.586-31.1992,66.84-79.4884c0.134-1.0496,0.184-2.0812,0.274-3.1208
		c0.288-0.1048,0.5833-0.1768,0.8704-0.2852c1.5548-0.586,2.586-2.0784,2.586-3.7424V50.5548C171.1211,22.6796,146.66,0,116.5975,0
		H84.504C54.4415,0,29.9803,22.6796,29.9803,50.5548v21.414C29.9803,73.3788,30.7227,74.6836,31.9295,75.4024z M100.5507,150
		c-35.3436,0-53.6092-37.5-58.918-72.5976c-0.2228-1.482-0.332-2.9784-0.4512-4.4708c2.6404-1.1632,5.2756-2.1988,7.8576-3.1972
		c9.086-3.508,18.4372-7.1212,25.3672-16.6016C91.5779,77.8124,117.0743,80,141.8711,80c5.9192,0,11.776-0.7716,17.5256-2.1556
		C153.6139,121.684,130.5459,150,100.5507,150z M37.9803,50.5548C37.9803,27.09,58.8515,8,84.504,8h32.0935
		c25.6524,0,46.5236,19.09,46.5236,42.5548v17.9104c-0.38,0.0764-0.7268,0.1972-1.0628,0.3816
		c-6.5692,2.07-13.34,3.1532-20.1872,3.1532c-31.0236,0-50.418-4.5312-64.0431-28.4296c-0.7149-1.25-2.0429-2.0196-3.4765-2.0196
		c-0.0352,0-0.0664,0-0.1016,0c-1.4728,0.0392-2.8048,0.8828-3.4688,2.1992c-5.6524,11.1952-14.0272,14.4296-24.6248,18.5236
		c-2.676,1.0312-5.4024,2.0856-8.176,3.3084V50.5548z"/>
	<path d="M129.7539,85.16l-15.8908,1.9532c-3.1991,0.3908-6.0428,2-8.0116,4.5392c-1.9572,2.5232-2.8204,5.668-2.4296,8.8556
		l0.1832,1.492h-7.2104l0.1832-1.492c0.3908-3.1876-0.4724-6.3324-2.4296-8.8556c-1.9688-2.5392-4.8123-4.1484-8.0076-4.5392
		L70.2459,85.16c-6.5664-0.8396-12.5584,3.8868-13.3672,10.4688l-1.4568,11.8632c-0.8088,6.5825,3.8748,12.594,10.4372,13.3988
		l15.8948,1.9492c0.492,0.0624,0.9844,0.0896,1.4688,0.0896c5.9648,0,11.1524-4.4724,11.8984-10.5584L95.4123,110h9.1752
		l0.2912,2.3712c0.75,6.086,5.9336,10.5624,11.8984,10.5624c0.4844,0,0.9728-0.0312,1.4688-0.0937l15.8948-1.9492
		c6.5624-0.8048,11.246-6.8164,10.4372-13.3988l-1.4568-11.8632C142.3083,89.0468,136.2811,84.3164,129.7539,85.16z
		 M87.1835,111.3944c-0.2736,2.2384-2.2108,3.7736-4.4532,3.508l-15.8943-1.9492c-2.2229-0.2736-3.7501-2.246-3.4769-4.4844
		l1.4572-11.8632c0.254-2.0664,1.9416-3.5392,3.9452-3.5392c0.168,0,0.336,0.0116,0.508,0.0312l15.8985,1.9532
		c1.0623,0.1328,2.0075,0.664,2.66,1.504c0.6563,0.8436,0.9415,1.9024,0.8127,2.9764L87.1835,111.3944z M133.164,112.9532
		l-15.8945,1.9492c-2.2384,0.246-4.1796-1.2696-4.4532-3.508l-1.4572-11.8632c-0.1288-1.074,0.1564-2.1328,0.8129-2.9764
		c0.6523-0.84,1.5975-1.3712,2.664-1.504l15.8943-1.9532c2.2072-0.246,4.176,1.2656,4.4532,3.508l1.4572,11.8632
		C136.9139,110.7072,135.3867,112.6796,133.164,112.9532z"/>
	<path d="M175.996,146H148c-1.3009,0-2.5197,0.6328-3.2697,1.6917L100,211.0624l-44.7305-63.3708
		C54.5195,146.6328,53.3007,146,52,146H24.004C10.7695,146,0,156.7656,0,169.996c0,2.2112,1.7891,4,4,4c2.2107,0,4-1.7888,4-4
		C8,161.1756,15.1795,154,24.004,154h25.9215l46.8048,66.3084C97.4803,221.3672,98.6991,222,100,222
		c1.3007,0,2.5195-0.6328,3.2695-1.6916L150.0743,154h25.9217c8.8243,0,16.004,7.1756,16.004,15.996c0,2.2112,1.7891,4,4,4
		c2.2107,0,4-1.7888,4-4C200,156.7656,189.2303,146,175.996,146z"/>
</g>
</svg>
