<?xml version="1.0" encoding="utf-8"?>
<!-- Generator: Adobe Illustrator 19.2.0, SVG Export Plug-In . SVG Version: 6.00 Build 0)  -->
<svg version="1.1" id="measuringcup" xmlns="http://www.w3.org/2000/svg" xmlns:xlink="http://www.w3.org/1999/xlink" x="0px"
	 y="0px" viewBox="0 0 158.3177 188" enable-background="new 0 0 158.3177 188" xml:space="preserve">
<g>
	<path fill="none" d="M9.3957,15.4452c1.674,2.0196,6.1036,4.2892,9.6624,6.1132C25.3489,24.7812,30.3177,27.328,30.3177,32v148h120
		V8H8.7241C7.9621,9.8672,7.2885,12.9064,9.3957,15.4452z M38.3177,56h28v8h-28V56z M38.3177,76h28v8h-28V76z M38.3177,96h28v8h-28
		V96z M38.3177,116h28v8h-28V116z"/>
	<path d="M154.3177,0h-148C5.0013,0,3.7709,0.6484,3.0249,1.7304c-2.418,3.508-5.4844,11.9572,0.2148,18.8244
		c2.7224,3.2812,7.5252,5.742,12.1696,8.1208c2.348,1.2072,5.7972,2.9728,6.9084,4.0236V184c0,2.2108,1.7912,4,4,4h128
		c2.2088,0,4-1.7892,4-4V4C158.3177,1.7892,156.5265,0,154.3177,0z M150.3177,180h-120V32c0-4.672-4.9688-7.2188-11.2596-10.4416
		c-3.5588-1.824-7.9884-4.0936-9.6624-6.1132C7.2885,12.9064,7.9621,9.8672,8.7241,8h141.5936V180z"/>
	<rect x="38.3177" y="76" width="28" height="8"/>
	<rect x="38.3177" y="56" width="28" height="8"/>
	<rect x="38.3177" y="96" width="28" height="8"/>
	<rect x="38.3177" y="116" width="28" height="8"/>
</g>
</svg>
