<?xml version="1.0" encoding="utf-8"?>
<!-- Generator: Adobe Illustrator 19.2.0, SVG Export Plug-In . SVG Version: 6.00 Build 0)  -->
<svg version="1.1" id="mechanics" xmlns="http://www.w3.org/2000/svg" xmlns:xlink="http://www.w3.org/1999/xlink" x="0px" y="0px"
	 viewBox="0 0 212 216" enable-background="new 0 0 212 216" xml:space="preserve">
<g>
	<path fill="none" d="M152,44c-11.7808,0-22.226,5.7136-28.7976,14.488l-4.9968,9.2253C116.804,71.554,116,75.68,116,80
		c0,19.8516,16.1504,36,36,36c19.8496,0,36-16.1484,36-36C188,60.1484,171.8496,44,152,44z"/>
	<polygon fill="none" points="140,184 140,208 164,208 164,184 156,184 148,184 	"/>
	<path fill="none" d="M44,128c-11.0272,0-20,8.9728-20,20c0,11.0272,8.9728,20,20,20c11.0272,0,20-8.9728,20-20
		C64,136.9728,55.0272,128,44,128z"/>
	<path fill="none" d="M200.004,8H11.996C9.7928,8,8,9.8048,8,12.0196v3.9608C8,18.1952,9.7928,20,11.996,20h188.008
		c2.2032,0,3.996-1.8048,3.996-4.0196v-3.9608C204,9.8048,202.2072,8,200.004,8z"/>
	<path fill="none" d="M24,128.442C29.0868,123.2416,36.1684,120,44,120c12.2892,0,22.7308,7.9704,26.4896,19.0036l40.4392-74.6576
		c1.3856-3.6208,3.2276-7.0068,5.47-10.098l0.0836-0.1544l0.0228,0.0124C124.5164,43.1552,137.4228,36,152,36
		c14.8792,0,28.0328,7.4428,36,18.7812V28H24V128.442z"/>
	<path d="M200.004,0H11.996C5.3808,0,0,5.3908,0,12.0196v3.9608C0,22.6092,5.3808,28,11.996,28H16v120c0,15.4376,12.5604,28,28,28
		c13.4388,0,24.688-9.5211,27.3796-22.1684l0.138,0.0748l36.9056-68.134c2.6696,20.2328,19.1016,36.1688,39.5768,38.0248V176h-16v40
		h40v-40h-16v-52.2028c21.072-1.9104,37.8868-18.7252,39.7972-39.7972H196V28h4.004C206.6192,28,212,22.6092,212,15.9804v-3.9608
		C212,5.3908,206.6192,0,200.004,0z M164,184v24h-24v-24h8h8H164z M44,168c-11.0272,0-20-8.9728-20-20c0-11.0272,8.9728-20,20-20
		c11.0272,0,20,8.9728,20,20C64,159.0272,55.0272,168,44,168z M152,116c-19.8496,0-36-16.1484-36-36
		c0-4.32,0.804-8.446,2.2056-12.2868l4.9968-9.2253C129.774,49.7136,140.2192,44,152,44c19.8496,0,36,16.1484,36,36
		C188,99.8516,171.8496,116,152,116z M188,54.7812C180.0328,43.4428,166.8792,36,152,36c-14.5772,0-27.4836,7.1552-35.4948,18.106
		l-0.0228-0.0124l-0.0836,0.1544c-2.2424,3.0912-4.0844,6.4772-5.47,10.098l-40.4392,74.6576C66.7308,127.9704,56.2892,120,44,120
		c-7.8316,0-14.9132,3.2416-20,8.442V28h164V54.7812z M204,15.9804C204,18.1952,202.2072,20,200.004,20H11.996
		C9.7928,20,8,18.1952,8,15.9804v-3.9608C8,9.8048,9.7928,8,11.996,8h188.008C202.2072,8,204,9.8048,204,12.0196V15.9804z"/>
</g>
</svg>
