<?xml version="1.0" encoding="utf-8"?>
<!-- Generator: Adobe Illustrator 19.2.0, SVG Export Plug-In . SVG Version: 6.00 Build 0)  -->
<svg version="1.1" id="medicalcrosscircles" xmlns="http://www.w3.org/2000/svg" xmlns:xlink="http://www.w3.org/1999/xlink"
	 x="0px" y="0px" viewBox="0 0 196 220" enable-background="new 0 0 196 220" xml:space="preserve">
<g>
	<path fill="none" d="M84,40c6.6172,0,12-5.3827,12-12c0-6.6171-5.3828-12-12-12c-6.6172,0-12,5.3829-12,12
		C72,34.6173,77.3828,40,84,40z"/>
	<path fill="none" d="M52,188c-6.6172,0-12,5.3829-12,12c0,6.6173,5.3828,12,12,12c6.6172,0,12-5.3827,12-12
		C64,193.3829,58.6172,188,52,188z"/>
	<path fill="none" d="M168,48c11.0272,0,20-8.9727,20-20c0-11.0271-8.9728-20-20-20c-11.0272,0-20,8.9729-20,20
		C148,39.0273,156.9728,48,168,48z"/>
	<path fill="none" d="M16,108c-4.412,0-8,3.588-8,8c0,4.4101,3.588,8,8,8s8-3.5899,8-8C24,111.588,20.412,108,16,108z"/>
	<path fill="none" d="M132,76c-30.8788,0-56,25.1213-56,56c0,30.8789,25.1212,56,56,56c30.8788,0,56-25.1211,56-56
		C188,101.1213,162.8788,76,132,76z M172,144h-28v28h-24v-28H92v-24h28V92h24v28h28V144z"/>
	<polygon fill="none" points="136,100 128,100 128,128 100,128 100,136 128,136 128,164 136,164 136,136 164,136 164,128 136,128 	
		"/>
	<path d="M132,68c-35.2892,0-64,28.7109-64,64c0,35.2893,28.7108,64,64,64c35.2892,0,64-28.7107,64-64
		C196,96.7109,167.2892,68,132,68z M132,188c-30.8788,0-56-25.1211-56-56c0-30.8787,25.1212-56,56-56c30.8788,0,56,25.1213,56,56
		C188,162.8789,162.8788,188,132,188z"/>
	<path d="M168,56c15.4396,0,28-12.5603,28-28c0-15.4395-12.5604-28-28-28c-15.4396,0-28,12.5605-28,28
		C140,43.4397,152.5604,56,168,56z M168,8c11.0272,0,20,8.9729,20,20c0,11.0273-8.9728,20-20,20c-11.0272,0-20-8.9727-20-20
		C148,16.9729,156.9728,8,168,8z"/>
	<path d="M84,48c11.0272,0,20-8.9727,20-20c0-11.0271-8.9728-20-20-20c-11.0272,0-20,8.9729-20,20C64,39.0273,72.9728,48,84,48z
		 M84,16c6.6172,0,12,5.3829,12,12c0,6.6173-5.3828,12-12,12c-6.6172,0-12-5.3827-12-12C72,21.3829,77.3828,16,84,16z"/>
	<path d="M52,180c-11.0272,0-20,8.9729-20,20c0,11.0273,8.9728,20,20,20c11.0272,0,20-8.9727,20-20C72,188.9729,63.0272,180,52,180z
		 M52,212c-6.6172,0-12-5.3827-12-12c0-6.6171,5.3828-12,12-12c6.6172,0,12,5.3829,12,12C64,206.6173,58.6172,212,52,212z"/>
	<path d="M16,100c-8.8224,0-16,7.1777-16,16c0,8.8245,7.1776,16,16,16c8.8224,0,16-7.1755,16-16C32,107.1777,24.8224,100,16,100z
		 M16,124c-4.412,0-8-3.5899-8-8c0-4.412,3.588-8,8-8s8,3.588,8,8C24,120.4101,20.412,124,16,124z"/>
	<path d="M144,92h-24v28H92v24h28v28h24v-28h28v-24h-28V92z M164,128v8h-28v28h-8v-28h-28v-8h28v-28h8v28H164z"/>
</g>
</svg>
