<?xml version="1.0" encoding="utf-8"?>
<!-- Generator: Adobe Illustrator 19.2.0, SVG Export Plug-In . SVG Version: 6.00 Build 0)  -->
<svg version="1.1" id="meteor" xmlns="http://www.w3.org/2000/svg" xmlns:xlink="http://www.w3.org/1999/xlink" x="0px" y="0px"
	 viewBox="0 0 204.1074 204.0762" enable-background="new 0 0 204.1074 204.0762" xml:space="preserve">
<g>
	<path fill="none" d="M162.3906,139.7674c1.5116-1.5116,2.3436-3.5212,2.3436-5.658c0-2.1368-0.832-4.1448-2.3436-5.6564
		c-3.0236-3.0232-8.2912-3.0232-11.3144,0c-3.1172,3.1192-3.1172,8.1936,0,11.3144
		C154.197,142.8846,159.2694,142.8846,162.3906,139.7674z"/>
	
		<ellipse transform="matrix(0.707 -0.7073 0.7073 0.707 -45.6913 118.3427)" fill="none" cx="119.9638" cy="114.3091" rx="4.001" ry="4.0002"/>
	<path fill="none" d="M111.4802,151.0762c1.5588-1.5588,1.5588-4.0956-0.0016-5.6564c-0.7796-0.7792-1.8028-1.17-2.8284-1.17
		c-1.0232,0-2.0488,0.3908-2.828,1.17c-1.5588,1.5608-1.5588,4.0976,0,5.6584
		C107.3806,152.6366,109.9218,152.6386,111.4802,151.0762z"/>
	<path fill="none" d="M134.1074,182.1074c12.8204,0,24.8748-4.994,33.9412-14.0604c18.7148-18.7152,18.7148-49.166,0-67.8828
		c-9.3572-9.3556-21.6524-14.0352-33.9412-14.0352c-12.2932,0-24.582,4.6776-33.9416,14.0352
		c-9.0664,9.0664-14.0604,21.1208-14.0604,33.9412c0,12.8224,4.994,24.8752,14.0604,33.9416
		C109.2322,177.1134,121.285,182.1074,134.1074,182.1074z M145.4198,122.797c6.0428-6.0472,16.584-6.0472,22.6268,0
		c3.0236,3.0212,4.6876,7.0388,4.6876,11.3124c0,4.2732-1.664,8.2928-4.6876,11.3144c-3.1188,3.1192-7.2148,4.6776-11.3124,4.6776
		c-4.0976,0-8.1952-1.5584-11.3144-4.6776C139.1814,139.1834,139.1814,129.033,145.4198,122.797z M111.4766,105.8242
		c4.6756-4.6796,12.2888-4.6836,16.9724,0c4.68,4.6776,4.68,12.2928,0,16.9708c-2.3396,2.3376-5.412,3.5076-8.4864,3.5076
		c-3.072,0-6.1444-1.168-8.484-3.5056l-0.002-0.002C106.8006,118.115,106.8006,110.5038,111.4766,105.8242z M100.1658,139.7638
		c4.676-4.68,12.2912-4.678,16.9708-0.002c4.6776,4.6816,4.6776,12.2928,0.002,16.9724c-2.342,2.338-5.416,3.508-8.4884,3.508
		c-3.074,0-6.1464-1.168-8.4844-3.508C95.4862,152.0566,95.4862,144.4414,100.1658,139.7638z"/>
	<path d="M134.1074,190.1074c14.9568,0,29.0196-5.8264,39.5976-16.4044c21.834-21.834,21.834-57.3592,0-79.1952
		c-21.836-21.838-57.3632-21.83-79.1952,0c-10.5784,10.578-16.4044,24.6404-16.4044,39.5976
		c0,14.9588,5.826,29.0216,16.4044,39.5976C105.0858,184.281,119.1482,190.1074,134.1074,190.1074z M100.1658,100.1642
		c9.3596-9.3576,21.6484-14.0352,33.9416-14.0352c12.2888,0,24.584,4.6796,33.9412,14.0352
		c18.7148,18.7168,18.7148,49.1676,0,67.8828c-9.0664,9.0664-21.1208,14.0604-33.9412,14.0604
		c-12.8224,0-24.8752-4.994-33.9416-14.0604c-9.0664-9.0664-14.0604-21.1192-14.0604-33.9416
		C86.1054,121.285,91.0994,109.2306,100.1658,100.1642z"/>
	<path d="M183.6034,84.6114c-1.5624-1.5628-4.0936-1.5628-5.6564,0c-1.5624,1.5624-1.5624,4.0936,0,5.656
		c11.7112,11.7112,18.1604,27.2812,18.1604,43.842c0,16.5604-6.4492,32.1288-18.1604,43.8396
		c-24.1776,24.174-63.5076,24.17-87.6816,0c-1.5624-1.5624-4.0936-1.5624-5.656,0c-1.5628,1.5628-1.5628,4.094,0,5.6564
		c13.6484,13.6484,31.57,20.4708,49.498,20.4708c17.9216,0,35.8516-6.8264,49.496-20.4708
		c13.2228-13.2208,20.504-30.7988,20.504-49.496S196.8262,97.8318,183.6034,84.6114z"/>
	<path d="M156.7342,150.1014c4.0976,0,8.1936-1.5584,11.3124-4.6776c3.0236-3.0216,4.6876-7.0412,4.6876-11.3144
		c0-4.2736-1.664-8.2912-4.6876-11.3124c-6.0428-6.0472-16.584-6.0472-22.6268,0c-6.2384,6.236-6.2384,16.3864,0,22.6268
		C148.539,148.543,152.6366,150.1014,156.7342,150.1014z M151.0762,128.453c3.0232-3.0232,8.2908-3.0232,11.3144,0
		c1.5116,1.5116,2.3436,3.5196,2.3436,5.6564c0,2.1368-0.832,4.1464-2.3436,5.658c-3.1212,3.1172-8.1936,3.1172-11.3144,0
		C147.959,136.6466,147.959,131.5722,151.0762,128.453z"/>
	<path d="M111.4786,122.797c2.3396,2.3376,5.412,3.5056,8.484,3.5056c3.0744,0,6.1468-1.17,8.4864-3.5076
		c4.68-4.678,4.68-12.2932,0-16.9708c-4.6836-4.6836-12.2968-4.6796-16.9724,0c-4.676,4.6796-4.676,12.2908,0,16.9708
		L111.4786,122.797z M117.1346,111.4806c1.5568-1.5588,4.0976-1.5588,5.6584,0c1.5584,1.5604,1.5584,4.0976,0,5.656
		c-1.5568,1.5608-4.094,1.5624-5.6584,0.002C115.5762,115.5782,115.5762,113.039,117.1346,111.4806z"/>
	<path d="M108.6502,160.2422c3.0724,0,6.1464-1.17,8.4884-3.508c4.6756-4.6796,4.6756-12.2908-0.002-16.9724
		c-4.6796-4.676-12.2948-4.678-16.9708,0.002c-4.6796,4.6776-4.6796,12.2928,0,16.9704
		C102.5038,159.0742,105.5762,160.2422,108.6502,160.2422z M105.8222,145.4198c0.7792-0.7792,1.8048-1.17,2.828-1.17
		c1.0256,0,2.0488,0.3908,2.8284,1.17c1.5604,1.5608,1.5604,4.0976,0.0016,5.6564c-1.5584,1.5624-4.0996,1.5604-5.658,0.002
		C104.2634,149.5174,104.2634,146.9806,105.8222,145.4198z"/>
	<path d="M124.207,67.6386c0.7812,0.7812,1.8048,1.172,2.828,1.172c1.0236,0,2.0468-0.3908,2.828-1.172
		c1.5628-1.5624,1.5628-4.0936,0-5.6564L70.4666,2.5858c-1.5624-1.5624-4.0936-1.5624-5.656,0c-1.5628,1.5624-1.5628,4.094,0,5.6564
		L124.207,67.6386z"/>
	<path d="M66.2246,32.283c-1.5624,1.5628-1.5624,4.094,0,5.6564l35.3552,35.3556c0.7816,0.7812,1.8048,1.1716,2.8284,1.1716
		c1.0232,0,2.0468-0.3904,2.828-1.1716c1.5624-1.5628,1.5624-4.094,0-5.6564L71.8806,32.283
		C70.3182,30.7206,67.787,30.7206,66.2246,32.283z"/>
	<path d="M78.953,84.6094c0.7812,0.7812,1.8048,1.1716,2.828,1.1716c1.0236,0,2.0472-0.3904,2.8284-1.1716
		c1.5624-1.5624,1.5624-4.094,0-5.6564L6.8282,1.1718c-1.5628-1.5624-4.094-1.5624-5.6564,0c-1.5624,1.5624-1.5624,4.0936,0,5.6564
		L78.953,84.6094z"/>
	<path d="M35.1114,63.4002c-1.5628,1.5628-1.5628,4.094,0,5.6564l26.8708,26.8692c0.7812,0.7812,1.8048,1.172,2.8284,1.172
		c1.0232,0,2.0468-0.3908,2.828-1.172c1.5624-1.5624,1.5624-4.094,0-5.6564L40.7674,63.4002
		C39.205,61.8378,36.6738,61.8378,35.1114,63.4002z"/>
	<path d="M19.5546,51.8398c1.0236,0,2.0468-0.3908,2.828-1.172c1.5628-1.5604,1.5628-4.0936,0-5.656L6.8282,29.455
		c-1.5628-1.5624-4.094-1.5624-5.6564,0c-1.5624,1.5604-1.5624,4.0936,0,5.6564l15.5548,15.5564
		C17.5078,51.449,18.531,51.8398,19.5546,51.8398z"/>
	<path d="M11.0702,61.9822c-1.5624-1.5624-4.0936-1.5624-5.6564,0c-1.5624,1.5628-1.5624,4.094,0,5.6564l59.3968,59.3964
		c0.7812,0.7812,1.8044,1.172,2.828,1.172c1.0236,0,2.0468-0.3908,2.828-1.172c1.5624-1.5624,1.5624-4.0936,0-5.656L11.0702,61.9822
		z"/>
</g>
</svg>
