<?xml version="1.0" encoding="utf-8"?>
<!-- Generator: Adobe Illustrator 19.2.0, SVG Export Plug-In . SVG Version: 6.00 Build 0)  -->
<svg version="1.1" id="microscopebacteria" xmlns="http://www.w3.org/2000/svg" xmlns:xlink="http://www.w3.org/1999/xlink" x="0px"
	 y="0px" viewBox="0 0 220.0844 215.4977" enable-background="new 0 0 220.0844 215.4977" xml:space="preserve">
<g>
	<path fill="none" d="M85.9663,63.5053c3.6132,0.9687,7.3944,0.4804,10.6368-1.3944l48.4764-27.9924
		c3.2345-1.8672,5.5548-4.8864,6.5236-8.5c0.9724-3.6172,0.4804-7.3944-1.3908-10.6288c-2.5896-4.4844-7.3044-6.992-12.1484-6.992
		c-2.3748,0-4.7812,0.6012-6.9844,1.8748L82.6031,37.8609c-3.2344,1.8672-5.5548,4.8868-6.5236,8.504
		c-0.9724,3.6171-0.4804,7.3904,1.3908,10.6248C79.3335,60.2241,82.3531,62.5365,85.9663,63.5053z"/>
	<path fill="none" d="M83.3803,162.7789c-1.7343-0.4924-3.5196-0.2932-5.0623,0.5664L48.0131,180.146
		c-3.2108,1.7773-4.3671,5.8517-2.578,9.078c1.7892,3.2188,5.8516,4.3984,9.0664,2.6172l30.3008-16.7968
		c3.2108-1.7812,4.3672-5.8516,2.578-9.0745C86.5171,164.4077,85.0951,163.2749,83.3803,162.7789z"/>
	<path fill="none" d="M122.5251,122.0249c-0.3988-1.7384-1.4456-3.2109-2.9496-4.1484L90.1891,99.5133
		c-1.0664-0.668-2.2736-1.008-3.504-1.008c-0.504,0-1.0156,0.0548-1.5196,0.172c-1.7384,0.406-3.2148,1.4607-4.16,2.9764
		c-1.9572,3.1288-1.0155,7.258,2.0976,9.2072l29.3829,18.3592c3.1131,1.9416,7.2303,0.9844,9.1911-2.1484
		C122.6227,125.5601,122.9235,123.7669,122.5251,122.0249z"/>
	<path fill="none" d="M194.5091,126.4037c-4.5468,0-8.4296,3.4768-8.832,8.0704l-3.496,39.9608
		c-0.4256,4.8596,3.1952,9.1564,8.0704,9.586c4.8985,0.4572,9.1836-3.1796,9.6092-8.0388l3.4964-39.9572
		c0.4256-4.8592-3.1956-9.1564-8.0664-9.586C195.0287,126.4157,194.7671,126.4037,194.5091,126.4037z"/>
	<path d="M14.1107,92.8297l14.0508-8.1136l14.9688,11.6836c0.7188,0.5628,1.59,0.848,2.4612,0.848
		c0.7692,0,1.5428-0.2228,2.2148-0.668c1.4336-0.9572,2.0976-2.7228,1.6444-4.3828L41.314,62.3217l13.0351,10.0588
		c1.2892,0.9844,3.0392,1.1052,4.4452,0.2968l14.2296-8.216c2.8432,3.2676,6.5888,5.6247,10.872,6.7708
		c1.8984,0.5116,3.8284,0.7616,5.7424,0.7616c3.8124,0,7.574-0.996,10.9648-2.9532l48.4764-27.992
		c5.086-2.9336,8.7268-7.676,10.25-13.3556c1.5276-5.6836,0.75-11.6172-2.1875-16.7032
		c-6.0665-10.504-19.5625-14.1092-30.0625-8.0468L78.6031,30.9313c-5.086,2.9372-8.7268,7.6796-10.25,13.3552
		c-1.196,4.4508-0.9316,9.038,0.6292,13.2692l-11.8676,6.852L36.7711,48.7085c-1.3632-1.0508-3.246-1.1172-4.672-0.1564
		c-1.4256,0.9572-2.086,2.7188-1.6328,4.3752l8.1056,29.7656l-7.6136-5.9416c-1.2812-1.0076-3.0504-1.1288-4.4608-0.3124
		l-16.3868,9.4608c-1.914,1.1056-2.57,3.5508-1.4647,5.4652C9.7515,93.2825,12.2007,93.9273,14.1107,92.8297z M76.0795,46.3649
		c0.9688-3.6172,3.2892-6.6368,6.5236-8.504l48.4764-27.9884c2.2032-1.2736,4.6096-1.8748,6.9844-1.8748
		c4.844,0,9.5588,2.5076,12.1484,6.992c1.8712,3.2344,2.3632,7.0116,1.3908,10.6288c-0.9688,3.6136-3.2891,6.6328-6.5236,8.5
		L96.6031,62.1109c-3.2424,1.8748-7.0236,2.3631-10.6368,1.3944c-3.6132-0.9688-6.6328-3.2812-8.496-6.5156
		C75.5991,53.7553,75.1071,49.982,76.0795,46.3649z"/>
	<path d="M217.4351,98.3609l-17.5392-6.3008l3.3284-1.0196c1.5584-0.4764,2.6716-1.8516,2.8124-3.4764l1.1796-13.4844
		c0.1916-2.1992-1.4336-4.1408-3.6368-4.332c-2.168-0.2152-4.1368,1.4372-4.332,3.6364l-0.9452,10.7972l-12.25,3.75
		c-1.6444,0.5036-2.7852,2.0076-2.828,3.7264c-0.0392,1.7228,1.0272,3.2812,2.6484,3.8632l17.6484,6.34l-8.004,2.504
		c-1.5508,0.4804-2.6524,1.8512-2.7928,3.4684l-0.9524,10.866c-7.3739,1.2424-13.3816,7.28-14.0636,15.0796l-3.496,39.9608
		c-0.8124,9.25,6.0704,17.4376,15.344,18.25c0.496,0.0428,0.992,0.0664,1.4844,0.0664c8.6444,0,16.0232-6.6212,16.7888-15.3788
		l3.496-39.9572c0.694-7.9388-4.2924-15.0604-11.5744-17.4436l0.7072-8.076l16.8168-5.2576
		c1.6404-0.5116,2.7732-2.0156,2.8084-3.7304C220.1187,100.4937,219.0523,98.9429,217.4351,98.3609z M203.3571,136.0249
		l-3.4964,39.9572c-0.4256,4.8593-4.7107,8.496-9.6092,8.0388c-4.8752-0.4296-8.496-4.7264-8.0704-9.586l3.496-39.9608
		c0.4024-4.5936,4.2852-8.0704,8.832-8.0704c0.258,0,0.5196,0.012,0.7816,0.0352
		C200.1615,126.8685,203.7827,131.1657,203.3571,136.0249z"/>
	<path d="M161.2123,150.314l-7.496-4.6875l1.6916-10.1056c0.2812-1.6876-0.5432-3.3712-2.0472-4.1836
		c-1.5116-0.8084-3.3672-0.5704-4.6208,0.594l-10.1604,9.4372l0.84-5.2108c0.2576-1.59-0.4648-3.1757-1.828-4.0272l-7.4964-4.6848
		c0.6509-2.3296,0.782-4.782,0.2269-7.206c-0.8753-3.828-3.1877-7.078-6.508-9.1484L94.4311,92.7321
		c-3.3204-2.0784-7.254-2.7464-11.078-1.844c-3.8124,0.8868-7.0588,3.2032-9.1328,6.5276
		c-4.2932,6.8668-2.2148,15.9372,4.6404,20.2263l29.3868,18.3633c2.4025,1.5,5.082,2.2148,7.7305,2.2148
		c3.6567,0,7.2543-1.3672,10.0031-3.9128l5.118,3.198l-2.2696,14.0744c-0.2732,1.6872,0.5588,3.3592,2.0624,4.164
		c1.504,0.8008,3.3596,0.5623,4.6096-0.5977l10.078-9.3595l-0.1952,1.1564c-0.2656,1.5936,0.4532,3.1951,1.824,4.0508l9.762,6.1016
		c0.66,0.414,1.3944,0.6092,2.1172,0.6092c1.332,0,2.6368-0.664,3.3945-1.8788C163.654,153.9505,163.0835,151.482,161.2123,150.314z
		 M112.486,129.2201l-29.3829-18.3592c-3.1131-1.9492-4.0548-6.0784-2.0976-9.2072c0.9452-1.5157,2.4216-2.5704,4.16-2.9764
		c0.504-0.1172,1.0156-0.172,1.5196-0.172c1.2304,0,2.4376,0.34,3.504,1.008l29.3864,18.3632
		c1.504,0.9375,2.5508,2.41,2.9496,4.1484c0.3984,1.742,0.0976,3.5352-0.848,5.0468
		C119.7163,130.2045,115.5991,131.1617,112.486,129.2201z"/>
	<path d="M85.5991,155.0913c-3.7696-1.0744-7.7344-0.6408-11.16,1.2576L44.1383,173.146
		c-5.8992,3.2657-8.5916,10.0332-7.0648,16.3036l-5.33,2.954l-11.2148-8.8048c-1.3436-1.0624-3.2067-1.1444-4.6404-0.2148
		c-1.4336,0.9259-2.1212,2.6604-1.7112,4.3204l3.3009,13.3476l-0.9141-0.7264c-1.2696-1.0117-3.0156-1.16-4.4296-0.3712
		l-10.0704,5.578c-1.9336,1.0704-2.6328,3.504-1.5624,5.4375c1.0704,1.9377,3.5076,2.6289,5.4376,1.5625l7.7344-4.2848
		l8.0156,6.3788c0.7264,0.578,1.6092,0.8712,2.492,0.8712c0.75,0,1.5-0.2112,2.1604-0.6328
		c1.4412-0.926,2.1328-2.6644,1.7224-4.3284l-3.328-13.4648l4.156,3.2616c1.2621,0.9964,3,1.1367,4.4064,0.3556l7.6797-4.256
		c2.7743,2.7336,6.5075,4.2364,10.3283,4.2364c2.3984,0,4.832-0.5896,7.07-1.828l30.3048-16.8008
		c7.0664-3.918,9.6252-12.8712,5.6992-19.9492C92.482,158.6657,89.3607,156.1813,85.5991,155.0913z M84.8023,175.0445
		l-30.3008,16.7968c-3.2148,1.7812-7.2772,0.6016-9.0664-2.6172c-1.7891-3.2264-0.6328-7.3008,2.578-9.078l30.3049-16.8008
		c1.5427-0.8596,3.328-1.0588,5.0623-0.5664c1.7148,0.496,3.1368,1.6288,4,3.1911
		C89.1695,169.1929,88.0131,173.2633,84.8023,175.0445z"/>
</g>
</svg>
