<?xml version="1.0" encoding="utf-8"?>
<!-- Generator: Adobe Illustrator 19.2.0, SVG Export Plug-In . SVG Version: 6.00 Build 0)  -->
<svg version="1.1" id="microscopeview" xmlns="http://www.w3.org/2000/svg" xmlns:xlink="http://www.w3.org/1999/xlink" x="0px"
	 y="0px" viewBox="0 0 216 116" enable-background="new 0 0 216 116" xml:space="preserve">
<g>
	<path fill="none" d="M154.0391,37.246c0.7068-0.8124,1.0544-1.8436,0.9804-2.9024c-0.0744-1.0584-0.5624-2.0272-1.3712-2.7304
		l-6.0508-5.2616c-0.7264-0.6328-1.6444-0.9728-2.6055-0.9728c-0.0937,0-0.1913,0-0.2849,0.008
		c-1.0704,0.074-2.0431,0.5584-2.7424,1.3672c-0.7108,0.8124-1.0584,1.8436-0.9844,2.9024
		c0.0744,1.0584,0.5588,2.0272,1.3712,2.7304l6.0508,5.2616C150.0583,39.0976,152.5935,38.9064,154.0391,37.246z"/>
	<circle fill="none" cx="112" cy="52" r="4"/>
	<path fill="none" d="M32,44c0-4.41-3.5901-8-8-8c-4.4101,0-8,3.59-8,8c0,4.41,3.5899,8,8,8C28.4099,52,32,48.41,32,44z"/>
	<path fill="none" d="M52.4099,72.2384c0.3128,1.0156,1.008,1.8552,1.9572,2.3592c1.9804,1.0508,4.3556,0.328,5.4064-1.6484
		l7.5192-14.1408c1.0316-1.9452,0.2892-4.3708-1.66-5.406c-1.9844-1.0468-4.3556-0.3204-5.4064,1.6524l-7.5192,14.1404
		C52.2031,70.1444,52.0975,71.2228,52.4099,72.2384z"/>
	<rect width="216" height="8"/>
	<polygon points="200,92 184,92 176,92 160,92 152,92 136,92 128,92 112,92 104,92 88,92 80,92 64,92 56,92 40,92 32,92 16,92 8,92 
		0,92 0,100 8,100 8,116 16,116 16,100 32,100 32,116 40,116 40,100 56,100 56,116 64,116 64,100 80,100 80,116 88,116 88,100 
		104,100 104,116 112,116 112,100 128,100 128,116 136,116 136,100 152,100 152,116 160,116 160,100 176,100 176,116 184,116 
		184,100 200,100 200,116 208,116 208,100 216,100 216,92 208,92 	"/>
	<path d="M40,44c0-8.8244-7.1757-16-16-16c-8.8245,0-16,7.1756-16,16c0,8.8244,7.1755,16,16,16C32.8243,60,40,52.8244,40,44z M16,44
		c0-4.41,3.5899-8,8-8c4.4099,0,8,3.59,8,8c0,4.41-3.5901,8-8,8C19.5899,52,16,48.41,16,44z"/>
	<path d="M112,40c-6.6173,0-12,5.3828-12,12c0,6.6172,5.3827,12,12,12c6.6171,0,12-5.3828,12-12C124,45.3828,118.6171,40,112,40z
		 M112,56c-2.2073,0-4-1.7928-4-4c0-2.2072,1.7927-4,4-4c2.2071,0,4,1.7928,4,4C116,54.2072,114.2071,56,112,56z"/>
	<path d="M188,76c0,4.41,3.5899,8,8,8c4.4099,0,8-3.59,8-8c0-4.41-3.5901-8-8-8C191.5899,68,188,71.59,188,76z"/>
	<path d="M45.6443,65.4376c-1.5116,2.8396-1.824,6.0896-0.8828,9.156c0.9416,3.0508,3.0196,5.5628,5.8516,7.0664
		c1.7892,0.9532,3.7112,1.4024,5.6096,1.4024c4.2968,0,8.4568-2.3084,10.6133-6.3552l7.5195-14.1448
		c3.1052-5.8396,0.8748-13.1172-4.9688-16.2224c-5.832-3.1056-13.1172-0.8752-16.2227,4.9568L45.6443,65.4376z M60.2263,55.0548
		c1.0508-1.9728,3.422-2.6992,5.4064-1.6524c1.9492,1.0352,2.6916,3.4608,1.66,5.406l-7.5192,14.1408
		c-1.0508,1.9764-3.426,2.6992-5.4064,1.6484c-0.9492-0.504-1.6444-1.3436-1.9572-2.3592c-0.3124-1.0156-0.2068-2.094,0.2972-3.0432
		L60.2263,55.0548z"/>
	<path d="M151.008,46.6212c3.3551,0,6.6951-1.3984,9.0699-4.1252c2.1096-2.4296,3.1484-5.5232,2.9221-8.7188
		c-0.2265-3.1872-1.6837-6.1016-4.1017-8.2028l-6.0508-5.262c-2.418-2.0976-5.492-3.1288-8.7032-2.906
		c-3.1992,0.2264-6.1172,1.6796-8.2148,4.0976c-2.1132,2.4216-3.1524,5.5156-2.9295,8.7068
		c0.2227,3.1916,1.6795,6.1096,4.1015,8.2148l6.0508,5.262C145.4179,45.6564,148.2187,46.6212,151.008,46.6212z M140.9803,29.6564
		c-0.074-1.0588,0.2736-2.09,0.9844-2.9024c0.6993-0.8088,1.672-1.2932,2.7424-1.3672c0.0936-0.008,0.1912-0.008,0.2849-0.008
		c0.9611,0,1.8791,0.34,2.6055,0.9728l6.0508,5.2616c0.8088,0.7032,1.2968,1.672,1.3712,2.7304
		c0.074,1.0588-0.2736,2.09-0.9804,2.9024c-1.4456,1.6604-3.9808,1.8516-5.6368,0.4024l-6.0508-5.2616
		C141.5391,31.6836,141.0547,30.7148,140.9803,29.6564z"/>
	<path d="M58.3555,23.9844c4.91-0.426,19.414-0.0272,21.8516,7.2812C80.7655,32.9416,82.3243,34,84,34
		c0.4179,0,0.8435-0.0664,1.2655-0.2072c2.0936-0.6952,3.2265-2.9608,2.5272-5.0584c-4.9452-14.84-29.1247-12.8088-30.156-12.7188
		c-2.1952,0.1992-3.8164,2.1444-3.6172,4.34C54.2107,22.5584,56.1875,24.2148,58.3555,23.9844z"/>
	<path d="M194.1211,34.6092c-1.8792-1.1756-4.344-0.6012-5.512,1.2696l-10,16c-1.1716,1.8752-0.6011,4.344,1.2696,5.512
		C180.5391,57.8048,181.2735,58,181.996,58c1.332,0,2.6367-0.664,3.3947-1.8788l10-16
		C196.5623,38.246,195.992,35.7772,194.1211,34.6092z"/>
	<path d="M120.0623,74.6952c0.34,1.9416,2.0276,3.3048,3.9337,3.3048c0.2303,0,0.4647-0.0196,0.6991-0.0624l34-6
		c2.176-0.3828,3.6292-2.4572,3.2424-4.6328c-0.3828-2.176-2.4572-3.6484-4.6328-3.2424l-34,6
		C121.1287,70.4452,119.6755,72.5196,120.0623,74.6952z"/>
</g>
</svg>
