<?xml version="1.0" encoding="utf-8"?>
<!-- Generator: Adobe Illustrator 19.2.0, SVG Export Plug-In . SVG Version: 6.00 Build 0)  -->
<svg version="1.1" id="microscopestructure" xmlns="http://www.w3.org/2000/svg" xmlns:xlink="http://www.w3.org/1999/xlink"
	 x="0px" y="0px" viewBox="0 0 196.9948 212" enable-background="new 0 0 196.9948 212" xml:space="preserve">
<g>
	<path fill="none" d="M84,108c-8.8245,0-16,7.1757-16,16c0,8.8245,7.1755,16,16,16c8.8243,0,16-7.1755,16-16
		C100,115.1757,92.8243,108,84,108z"/>
	<path fill="none" d="M32,84c0-6.6171-5.3829-12-12-12c-6.6173,0-12,5.3829-12,12c0,6.6173,5.3827,12,12,12
		C26.6171,96,32,90.6173,32,84z"/>
	<path fill="none" d="M116,188c-4.4101,0-8,3.5901-8,8c0,4.41,3.5899,8,8,8c4.4099,0,8-3.59,8-8C124,191.5901,120.4099,188,116,188z
		"/>
	<path fill="none" d="M152,24c4.4099,0,8-3.5899,8-8c0-4.4099-3.5901-8-8-8c-4.4101,0-8,3.5901-8,8C144,20.4101,147.5899,24,152,24z
		"/>
	<path fill="none" d="M179.3983,32.7033c-3.2032-1.0976-10.9532,10.8712-15.16,17.332c-7.59,11.664-14.1132,21.7927-22.3244,20.6796
		c-6.492-0.8476-9.6756-8.3712-11.5076-13.9568c-5.8908-17.9688-11.1956-27.84-16.2268-30.168
		c-2.6755-1.2308-5.6212-0.4376-10.824,1.6756c-3.344,1.3632-4.2736,3.6056-5.758,7.7852
		c-1.9024,5.3592-4.5076,12.6952-16.418,15.3516c-9.0312,2.0156-14.2224-0.7188-18.3944-2.9065
		c-2.5508-1.336-4.7268-2.4803-7.7344-2.4803c-2.6524,0-5.9572,0.8868-10.7384,3.3048c-1.6368,0.824-1.9568,1.3672-1.9568,1.3712
		c0.2772,1.0936,4.3436,4.6288,7.0352,6.9723c7.1484,6.2189,16.0428,13.9573,15.3084,24.7345
		c-0.578,8.4648-7.1212,16.6796-20,25.1095c-12.5196,8.1913-19.1408,15.2381-19.6756,20.9413c-0.4612,4.9024,3.7928,9,8.2968,13.34
		c5.164,4.9724,12.2344,11.7852,6.7304,20.0976c-3.7227,5.6248-4.336,11.8516-1.7344,17.5312
		c3.5428,7.7228,12.2344,13,23.8477,14.4728c8.5115,1.0856,12.6015-6.1836,18.4179-18.254
		c5.8908-12.2304,13.2424-27.4376,31.2932-19.6289c30.9724,13.4257,55.8788,19.2773,64.9764,15.2657
		c2.1445-0.9417,2.7928-2.2152,3.0936-3.09c1.5-4.3437-2.1016-7.2072-10.6716-12.7032c-8-5.1288-17.9532-11.5116-16.836-22.8904
		c1.082-11.0196,11.1208-12.5432,19.1912-13.7656c10.9492-1.6645,17.1448-3.1645,17.1448-14.6645
		c0-3.7263,0.0508-7.7027,0.1016-11.8123C189.1563,70.0861,189.5819,36.4493,179.3983,32.7033z M84,148c-13.2345,0-24-10.7655-24-24
		c0-13.2343,10.7655-24,24-24c13.2343,0,24,10.7657,24,24C108,137.2345,97.2343,148,84,148z M160,100c-6.6173,0-12-5.3827-12-12
		c0-6.6171,5.3827-12,12-12c6.6171,0,12,5.3829,12,12C172,94.6173,166.6171,100,160,100z"/>
	<circle fill="none" cx="160" cy="88" r="4"/>
	<path d="M182.1563,25.1953c-9.1328-3.3516-16.6523,8.2228-24.6212,20.4767c-3.914,6.0157-11.1408,17.1209-14.41,17.1209
		c-0.0588,0-0.1171-0.0036-0.176-0.0116c-0.09-0.0116-2.2771-0.3868-4.9411-8.5156c-6.8949-21.0352-13.016-31.4844-20.4689-34.9337
		c-6.2892-2.9139-12.344-0.4571-17.2071,1.5273c-6.8125,2.7776-8.7305,8.176-10.2737,12.5156
		c-1.7576,4.9496-3.0272,8.5276-10.6208,10.2228c-6.1604,1.3632-9.1484-0.1952-12.9375-2.1836
		c-5.5781-2.9376-11.9141-6.2576-25.7969,0.7656c-3.7656,1.9064-5.8631,4.3712-6.2344,7.332
		c-0.6484,5.2112,4.1328,9.3712,9.672,14.1876c6.1132,5.3204,13.0428,11.3476,12.578,18.1564
		c-0.3907,5.7108-5.9104,12.0896-16.4024,18.9568c-15.0704,9.8632-22.4608,18.4064-23.258,26.8908
		c-0.82,8.7384,5.5744,14.8984,10.7152,19.8476c6.1132,5.8908,7.1092,7.6524,5.6052,9.922
		c-5.2264,7.8984-6.078,17.1132-2.332,25.2812c4.7188,10.2928,15.6952,17.2419,30.1096,19.0739
		c0.9296,0.1172,1.824,0.176,2.6912,0.176c12.914,0,18.996-12.6251,23.9416-22.8947c7.0352-14.5936,10.8984-20.0936,20.906-15.7576
		c19.9532,8.6443,55.758,22.1172,71.3828,15.246c3.6564-1.6132,6.2228-4.3084,7.4301-7.8048
		c3.7067-10.746-6.0665-17.0116-13.9181-22.0468c-8.3516-5.3592-13.7852-9.324-13.1916-15.3748
		c0.41-4.1916,3.168-5.2344,12.4297-6.6408c9.5351-1.4452,23.9455-3.6328,23.9455-22.5704c0-3.6951,0.0508-7.6363,0.1016-11.7107
		C197.2579,62.1877,197.6523,30.8945,182.1563,25.1953z M188.8751,92.3477c-0.0508,4.1096-0.1016,8.086-0.1016,11.8123
		c0,11.5-6.1956,13-17.1448,14.6645c-8.0704,1.2224-18.1092,2.746-19.1912,13.7656c-1.1172,11.3788,8.836,17.7616,16.836,22.8904
		c8.57,5.496,12.1716,8.3595,10.6716,12.7032c-0.3008,0.8748-0.9491,2.1483-3.0936,3.09c-9.0976,4.0116-34.004-1.84-64.9764-15.2657
		c-18.0508-7.8087-25.4024,7.3985-31.2932,19.6289c-5.8164,12.0704-9.9064,19.3396-18.4179,18.254
		c-11.6133-1.4728-20.3049-6.75-23.8477-14.4728c-2.6016-5.6796-1.9883-11.9064,1.7344-17.5312
		c5.504-8.3124-1.5664-15.1252-6.7304-20.0976c-4.504-4.34-8.758-8.4376-8.2968-13.34c0.5348-5.7032,7.156-12.75,19.6756-20.9413
		c12.8788-8.4299,19.422-16.6447,20-25.1095c0.7344-10.7772-8.16-18.5156-15.3084-24.7345
		c-2.6916-2.3435-6.758-5.8787-7.0352-6.9723c0-0.004,0.32-0.5472,1.9568-1.3712c4.7812-2.418,8.086-3.3048,10.7384-3.3048
		c3.0076,0,5.1836,1.1443,7.7344,2.4803c4.172,2.1877,9.3632,4.9221,18.3944,2.9065c11.9104-2.6564,14.5156-9.9924,16.418-15.3516
		c1.4844-4.1796,2.414-6.422,5.758-7.7852c5.2028-2.1132,8.1485-2.9064,10.824-1.6756c5.0312,2.328,10.336,12.1992,16.2268,30.168
		c1.832,5.5856,5.0156,13.1092,11.5076,13.9568c8.2112,1.1131,14.7344-9.0156,22.3244-20.6796
		c4.2068-6.4608,11.9568-18.4296,15.16-17.332C189.5819,36.4493,189.1563,70.0861,188.8751,92.3477z"/>
	<path d="M40,84c0-11.0271-8.9729-20-20-20C8.9727,64,0,72.9729,0,84c0,11.0273,8.9727,20,20,20C31.0271,104,40,95.0273,40,84z
		 M8,84c0-6.6171,5.3827-12,12-12c6.6171,0,12,5.3829,12,12c0,6.6173-5.3829,12-12,12C13.3827,96,8,90.6173,8,84z"/>
	<path d="M84,100c-13.2345,0-24,10.7657-24,24c0,13.2345,10.7655,24,24,24c13.2343,0,24-10.7655,24-24
		C108,110.7657,97.2343,100,84,100z M84,140c-8.8245,0-16-7.1755-16-16c0-8.8243,7.1755-16,16-16c8.8243,0,16,7.1757,16,16
		C100,132.8245,92.8243,140,84,140z"/>
	<path d="M152,32c8.8243,0,16-7.1755,16-16c0-8.8243-7.1757-16-16-16c-8.8245,0-16,7.1757-16,16C136,24.8245,143.1755,32,152,32z
		 M152,8c4.4099,0,8,3.5901,8,8c0,4.4101-3.5901,8-8,8c-4.4101,0-8-3.5899-8-8C144,11.5901,147.5899,8,152,8z"/>
	<path d="M160,76c-6.6173,0-12,5.3829-12,12c0,6.6173,5.3827,12,12,12c6.6171,0,12-5.3827,12-12C172,81.3829,166.6171,76,160,76z
		 M160,92c-2.2073,0-4-1.7927-4-4c0-2.2071,1.7927-4,4-4c2.2071,0,4,1.7929,4,4C164,90.2073,162.2071,92,160,92z"/>
	<path d="M116,180c-8.8245,0-16,7.1757-16,16c0,8.8244,7.1755,16,16,16c8.8243,0,16-7.1756,16-16C132,187.1757,124.8243,180,116,180
		z M116,204c-4.4101,0-8-3.59-8-8c0-4.4099,3.5899-8,8-8c4.4099,0,8,3.5901,8,8C124,200.41,120.4099,204,116,204z"/>
</g>
</svg>
