<?xml version="1.0" encoding="utf-8"?>
<!-- Generator: Adobe Illustrator 19.2.0, SVG Export Plug-In . SVG Version: 6.00 Build 0)  -->
<svg version="1.1" id="microorganism" xmlns="http://www.w3.org/2000/svg" xmlns:xlink="http://www.w3.org/1999/xlink" x="0px"
	 y="0px" viewBox="0 0 239.9619 237.8921" enable-background="new 0 0 239.9619 237.8921" xml:space="preserve">
<g>
	<path fill="none" d="M135.4694,71.0249c11.3728,2.8827,22.1132,5.6052,31.914,1.5467c4.9236-2.0391,10.828-5.3827,10.996-9.7459
		c0.1972-5.1016-6.9316-11.1448-11.8104-13.6212c-25.9592-13.1836-47.9652-19.7772-66.6836-19.7772
		c-18.3752,0-33.5804,6.3476-46.2736,19.0388c-1.7128,1.7128-3.294,3.506-4.8168,5.3312c-0.0268,0.034-0.032,0.0768-0.06,0.1103
		c-0.036,0.0421-0.0892,0.0553-0.126,0.096c-25.73,31.0649-24.0796,77.3157,5.0028,106.4l1.416,1.4337
		c5.7284,5.8436,23.1408,23.7656,34.5392,23.1056c2.4196-0.1096,4.3044-1.086,5.9276-3.0744
		c4.0252-4.9296-1.8924-19.7264-7.6152-34.0392C78.643,124.7277,67.147,95.9817,84.139,78.9897
		C100.8734,62.2513,119.2562,66.9077,135.4694,71.0249z"/>
	<path fill="none" d="M194.0082,138.1849c-9.8592-9.1952-22.7244-13.9804-36.1776-13.5272h-0.002l-1.33,0.0388
		c-13.9668,0.3516-22.5412,2.2812-25.4824,5.7384c-0.7676,0.8984-1.0332,1.8672-0.8616,3.1328
		c0.4532,3.3244,11.082,7.4453,18.842,10.4573c15.5704,6.0387,34.9472,13.5584,35.5292,30.1952
		c0.5684,16.2772-10.2244,23.2264-19.748,29.3592c-6.2616,4.0352-12.1756,7.844-14.4512,13.922
		c-1.4844,3.9688-1.6932,7.0196-0.5568,8.164c1.6172,1.6368,6.7992,1.4023,10.348,0.1016
		c6.0032-2.1936,11.3852-4.4904,16.2556-6.8916c0.706-0.806,1.6508-1.2664,2.6576-1.3456
		c21.924-11.4861,31.6468-25.5476,30.9948-44.1964C209.557,159.8605,203.8678,147.3801,194.0082,138.1849z"/>
	<path d="M133.5042,78.7785c12.1348,3.0784,24.6856,6.25,36.9376,1.1836c10.3048-4.2616,15.664-9.9256,15.9316-16.824
		c0.3868-9.9688-10.418-18.1408-16.1836-21.0665c-1.9128-0.9715-3.8816-1.9467-5.886-2.9175l9.1536-16.4768
		c1.0744-1.93,0.3772-4.3636-1.5528-5.4377c-1.9336-1.0819-4.3672-0.3751-5.4392,1.5545l-9.424,16.9632
		c-8.7476-3.936-18.144-7.5716-27.842-10.2156l8.258-14.8644c1.0744-1.93,0.3772-4.3636-1.5528-5.4377
		c-1.9352-1.0819-4.3708-0.3791-5.4392,1.5545l-9.338,16.8084c-5.9716-1.2384-12.016-2.032-18.0592-2.2309L99.901,3.3101
		c-0.3828-2.176-2.4532-3.6292-4.6312-3.25c-2.1756,0.3828-3.6308,2.4568-3.248,4.6328l2.9444,16.7876
		c-9.6504,0.5908-19.2004,2.8916-28.3296,7.5704L63.901,13.4505c-0.3812-2.1756-2.4532-3.6212-4.6312-3.25
		c-2.1756,0.3828-3.6308,2.4572-3.248,4.6328l3.2596,18.586c-3.8804,2.6308-7.6672,5.7316-11.326,9.3908
		c-0.9524,0.9524-1.7796,1.9796-2.6784,2.9644L32.485,35.0209c-1.6896-1.418-4.2152-1.1992-5.6368,0.4884
		c-1.42,1.6912-1.2032,4.2148,0.4884,5.6364L40.149,51.9165c-3.7536,4.9572-6.8976,10.216-9.4496,15.6988l-16.9684-6.196
		c-2.0704-0.75-4.3712,0.3083-5.1288,2.3868c-0.758,2.074,0.3104,4.3712,2.3864,5.1288l16.6672,6.086
		c-2.8944,8.104-4.5524,16.5312-4.9768,25.032L4.143,99.3881c-2.1544-0.0744-4.0584,1.6484-4.1404,3.8515
		c-0.0784,2.2069,1.6464,4.0625,3.8552,4.1405l18.7848,0.674c0.2252,5.462,0.9572,10.8924,2.2016,16.242l-18.3416,8.1468
		c-2.0196,0.8984-2.93,3.2616-2.0332,5.2812c0.662,1.488,2.1248,2.3748,3.658,2.3748c0.5428,0,1.0936-0.1092,1.6212-0.3436
		l17.2884-7.6792c2.3636,7.098,5.5756,13.9736,9.812,20.3844l-17.9716,7.9824c-2.0196,0.8984-2.9296,3.2616-2.0332,5.2812
		c0.662,1.488,2.1252,2.3748,3.6584,2.3748c0.5428,0,1.0936-0.1092,1.6208-0.3436l18.8204-8.3596
		c0.256-0.1136,0.4376-0.3087,0.6568-0.4659c1.9744,2.4592,4.0744,4.8496,6.3548,7.1304l1.3616,1.3788
		c2.3428,2.3892,4.8228,4.8416,7.3896,7.2408l-11.6516,14.884c-1.3612,1.7384-1.0544,4.254,0.6856,5.6136
		c0.7304,0.574,1.5996,0.8512,2.4628,0.8512c1.1876,0,2.3636-0.5272,3.1524-1.5348l11.3476-14.4956
		c8.6668,7.2528,17.94,12.9564,26.3908,12.9564c0.2792,0,0.5588-0.008,0.834-0.0196c4.6584-0.2108,8.7248-2.2892,11.7616-6.004
		c7.01-8.582,0.8048-24.1016-6.3828-42.074c-8.7988-22.004-18.7732-46.9493-5.5116-60.2112
		C103.313,71.1341,117.977,74.8413,133.5042,78.7785z M87.8794,147.8293c5.7228,14.3128,11.6404,29.1096,7.6152,34.0392
		c-1.6232,1.9884-3.508,2.9648-5.9276,3.0744c-11.3984,0.66-28.8108-17.262-34.5392-23.1056l-1.416-1.4337
		c-29.0824-29.0844-30.7328-75.3351-5.0028-106.4c0.0368-0.0407,0.09-0.0539,0.126-0.096c0.028-0.0335,0.0332-0.0763,0.06-0.1103
		c1.5228-1.8252,3.104-3.6184,4.8168-5.3312C66.305,35.7749,81.5102,29.4273,99.8854,29.4273
		c18.7184,0,40.7244,6.5936,66.6836,19.7772c4.8788,2.4764,12.0076,8.5196,11.8104,13.6212
		c-0.168,4.3632-6.0724,7.7068-10.996,9.7459c-9.8008,4.0585-20.5412,1.336-31.914-1.5467
		c-16.2132-4.1173-34.596-8.7736-51.3304,7.9648C67.147,95.9817,78.643,124.7277,87.8794,147.8293z"/>
	<path d="M236.1038,169.9545l-18.3964-0.66c-0.8232-8.3592-3.3372-16.3304-7.47-23.4624l15.8764-6.7216
		c2.0352-0.8632,2.9864-3.2068,2.1248-5.242c-0.8612-2.0352-3.2148-2.9844-5.242-2.1249l-17.396,7.3645
		c-1.8696-2.3804-3.8792-4.6708-6.1352-6.7748c-3.4936-3.2564-7.3444-5.9824-11.4104-8.2672l10.6468-11.3968
		c1.5076-1.6132,1.4216-4.1444-0.1936-5.6524c-1.6152-1.5076-4.1404-1.4256-5.6544,0.1916l-12.3716,13.2431
		c-4.7236-1.8143-9.6864-2.9539-14.7712-3.4703l-0.2848-17.2417c-0.0372-2.2147-1.8848-3.9259-4.0664-3.9335
		c-2.2088,0.0352-3.9688,1.8552-3.9336,4.0664l0.2772,16.7944c-0.0512,0.002-0.1012-0.0036-0.152-0.0016l-1.254,0.0352
		c-11.4648,0.2852-25.3908,1.5196-31.3732,8.5468c-2.242,2.6328-3.1736,5.8828-2.6952,9.3984
		c1.088,8,11.6484,12.0939,23.8732,16.836c14.076,5.4612,30.0312,11.6524,30.4276,23.0196
		c0.41,11.7303-7.2324,16.6524-16.082,22.3516c-7.084,4.5624-14.4084,9.2812-17.6132,17.8436
		c-2.7676,7.3908-2.344,12.9808,1.2576,16.6056c2.6232,2.6444,6.3868,3.504,10.006,3.504c3.414,0,6.6972-0.7656,8.7676-1.5236
		c5.2312-1.912,10.8244-4.1788,16.3728-6.8692l14.1292,10.67c0.7204,0.5468,1.5684,0.8088,2.406,0.8088
		c1.2128,0,2.4104-0.5472,3.1956-1.59c1.332-1.7616,0.9824-4.2696-0.7816-5.6016l-11.1388-8.4116
		c7.0216-4.0844,13.5908-9.0624,18.89-15.1444l14.2608,10.7668c0.7204,0.5472,1.5684,0.8088,2.406,0.8088
		c1.2132,0,2.4104-0.5468,3.1956-1.59c1.332-1.7616,0.9824-4.2696-0.7816-5.6016l-14.2516-10.76
		c4.1632-6.5932,6.7652-14.3624,7.1552-23.464l17.8956,0.642c0.0488,0.004,0.0956,0.004,0.1444,0.004
		c2.1424,0,3.918-1.6992,3.996-3.8556C240.0374,171.8881,238.313,170.0325,236.1038,169.9545z M179.031,217.5297
		c-1.0068,0.0792-1.9516,0.5396-2.6576,1.3456c-4.8704,2.4012-10.2524,4.698-16.2556,6.8916
		c-3.5488,1.3008-8.7308,1.5352-10.348-0.1016c-1.1364-1.1444-0.9276-4.1952,0.5568-8.164
		c2.2756-6.078,8.1896-9.8868,14.4512-13.922c9.5236-6.1328,20.3164-13.082,19.748-29.3592
		c-0.582-16.6368-19.9588-24.1564-35.5292-30.1952c-7.76-3.012-18.3888-7.1328-18.842-10.4573
		c-0.1716-1.2655,0.094-2.2343,0.8616-3.1328c2.9412-3.4572,11.5156-5.3868,25.4824-5.7384l1.33-0.0388h0.002
		c13.4532-0.4532,26.3184,4.332,36.1776,13.5272c9.8596,9.1952,15.5488,21.6756,16.0176,35.1484
		C210.6778,191.9821,200.955,206.0437,179.031,217.5297z"/>
</g>
</svg>
