<?xml version="1.0" encoding="utf-8"?>
<!-- Generator: Adobe Illustrator 19.2.0, SVG Export Plug-In . SVG Version: 6.00 Build 0)  -->
<svg version="1.1" id="moonrevolution" xmlns="http://www.w3.org/2000/svg" xmlns:xlink="http://www.w3.org/1999/xlink" x="0px"
	 y="0px" viewBox="0 0 211.0268 212" enable-background="new 0 0 211.0268 212" xml:space="preserve">
<g>
	<path fill="none" d="M57.0268,16c-16.5429,0-30,13.4572-30,30s13.4571,30,30,30c16.5427,0,30-13.4572,30-30S73.5696,16,57.0268,16z
		 M42.6284,54.1092c-1.7304,1.924-3.4064,3.8968-5.0272,5.918c-0.7892,0.9864-1.9532,1.498-3.1252,1.498
		c-0.8748,0-1.7616-0.2868-2.5-0.8788c-1.7228-1.3828-2-3.9004-0.6171-5.6228c1.7147-2.1388,3.4923-4.2288,5.3243-6.2656
		c1.4764-1.6388,4.0077-1.7716,5.6484-0.2992C43.972,49.9376,44.1088,52.4668,42.6284,54.1092z M72.2848,29.1564
		c-2.1956,1.3788-4.3556,2.8184-6.4688,4.3164c-0.7032,0.498-1.512,0.736-2.3088,0.736c-1.254,0-2.4883-0.5876-3.2696-1.6872
		c-1.2772-1.8028-0.8476-4.3008,0.9533-5.5764c2.2383-1.584,4.5155-3.1052,6.844-4.5664c1.8671-1.1756,4.3395-0.6092,5.5115,1.262
		C74.722,25.5116,74.1556,27.9804,72.2848,29.1564z"/>
	<path fill="none" d="M126.1088,159.9728c-0.9568-0.8616-3.332-2.5256-9.0508-4.6136c-8.4844-3.1012-18.078-9.164-19.574-16.8828
		c-0.7464-3.8456,0.668-7.6052,3.9764-10.5856c2.414-2.176,3.6564-4.098,3.6836-5.7112c0.0352-1.9004-1.5624-4.3496-5.0312-7.7128
		c-4.9659-4.8144-11.5804-8.9276-14.024-10.3804C79.1144,114.334,75.0268,126.6968,75.0268,140
		c0,6.6796,1.0367,13.1208,2.9443,19.1792C98.0472,161.4728,120.2436,162.2248,126.1088,159.9728z"/>
	<path fill="none" d="M174.9956,175.8476c-0.6484-2.492-0.8047-4.9884-0.9532-7.4004c-0.324-5.2344-0.6288-10.1796-5.5508-16.3888
		c-2.8592-3.6092-6.324-5.6228-9.6756-7.572c-5.2811-3.0704-11.2656-6.5508-11.3516-15.7696
		c-0.0156-1.5976-0.0784-2.9512-0.1328-4.1192c-0.4844-10.2636,1.992-11.3828,15.7264-17.6016
		c10.99-4.9744,14.4148-13.7908,15.3769-17.3192C167.558,81.1396,153.8936,76,139.0268,76c-19.0933,0-36.212,8.4492-47.9485,21.7528
		c3.2268,1.9688,9.5696,6.0908,14.6048,10.972c3.746,3.6308,7.5624,8.0876,7.4608,13.6012c-0.0744,3.9728-2.1444,7.7384-6.332,11.51
		c-1.7696,1.5936-1.5624,2.664-1.4728,3.1192c0.5664,2.9216,5.8284,7.7324,14.4648,10.8904
		c6.3636,2.3244,14.832,6.166,14.9144,12.666c0.0192,1.83-0.766,3.5508-2.2188,4.8476c-3.3908,3.0316-12.2696,4.0236-22.4336,4.0236
		c-9.5951,0-20.3228-0.8836-28.6871-1.7704C91.714,189.0968,113.6344,204,139.0268,204c16.6003,0,31.696-6.4072,43.0811-16.81
		C179.6568,184.8824,176.3376,180.9904,174.9956,175.8476z"/>
	<path fill="none" d="M184.8788,95.4472c-2.3185,5.6348-7.4461,13.822-18.524,18.838c-11.2617,5.0976-11.2617,5.0976-11.0313,9.9376
		c0.0588,1.252,0.1252,2.7048,0.1408,4.4196c0.0428,4.4864,2.16,5.8968,7.3708,8.928c3.6212,2.1052,8.1292,4.7244,11.93,9.5196
		c6.4764,8.1776,6.914,15.2108,7.2617,20.8632c0.1367,2.2188,0.2579,4.1348,0.7107,5.8748c0.8836,3.386,3.268,6.082,4.9468,7.6384
		c9.5432-11.1812,15.3425-25.6492,15.3425-41.4664C203.0268,122.6856,196.088,106.9804,184.8788,95.4472z"/>
	<path d="M139.0268,68c-39.6993,0-72,32.2988-72,72s32.3007,72,72,72c39.6991,0,72-32.2988,72-72S178.726,68,139.0268,68z
		 M86.0888,104.0864c2.4436,1.4528,9.0581,5.566,14.024,10.3804c3.4688,3.3632,5.0664,5.8124,5.0312,7.7128
		c-0.0272,1.6132-1.2696,3.5352-3.6836,5.7112c-3.3084,2.9804-4.7228,6.74-3.9764,10.5856
		c1.496,7.7188,11.0896,13.7816,19.574,16.8828c5.7188,2.088,8.094,3.752,9.0508,4.6136c-5.8652,2.252-28.0616,1.5-48.1376-0.7936
		c-1.9076-6.0584-2.9443-12.4996-2.9443-19.1792C75.0268,126.6968,79.1144,114.334,86.0888,104.0864z M81.3788,167.6124
		c8.3643,0.8868,19.092,1.7704,28.6871,1.7704c10.164,0,19.0428-0.992,22.4336-4.0236c1.4528-1.2968,2.238-3.0176,2.2188-4.8476
		c-0.0824-6.5-8.5508-10.3416-14.9144-12.666c-8.6364-3.158-13.8984-7.9688-14.4648-10.8904
		c-0.0896-0.4552-0.2968-1.5256,1.4728-3.1192c4.1876-3.7716,6.2576-7.5372,6.332-11.51c0.1016-5.5136-3.7148-9.9704-7.4608-13.6012
		c-5.0352-4.8812-11.378-9.0032-14.6048-10.972C102.8148,84.4492,119.9336,76,139.0268,76c14.8667,0,28.5311,5.1396,39.408,13.6768
		c-0.9621,3.5284-4.3869,12.3448-15.3769,17.3192c-13.7344,6.2188-16.2108,7.338-15.7264,17.6016
		c0.0544,1.168,0.1172,2.5216,0.1328,4.1192c0.086,9.2188,6.0705,12.6992,11.3516,15.7696c3.3516,1.9492,6.8164,3.9628,9.6756,7.572
		c4.922,6.2092,5.2268,11.1544,5.5508,16.3888c0.1485,2.412,0.3048,4.9084,0.9532,7.4004c1.342,5.1428,4.6612,9.0348,7.1124,11.3424
		C170.7228,197.5928,155.6272,204,139.0268,204C113.6344,204,91.714,189.0968,81.3788,167.6124z M187.6844,181.4664
		c-1.6788-1.5564-4.0632-4.2524-4.9468-7.6384c-0.4528-1.74-0.574-3.656-0.7107-5.8748
		c-0.3477-5.6524-0.7853-12.6856-7.2617-20.8632c-3.8008-4.7952-8.3088-7.4144-11.93-9.5196
		c-5.2108-3.0312-7.328-4.4416-7.3708-8.928c-0.0156-1.7148-0.082-3.1676-0.1408-4.4196c-0.2304-4.84-0.2304-4.84,11.0313-9.9376
		c11.0779-5.016,16.2055-13.2032,18.524-18.838c11.2091,11.5332,18.148,27.2384,18.148,44.5528
		C203.0268,155.8172,197.2276,170.2852,187.6844,181.4664z"/>
	<path d="M95.0268,46c0-20.9532-17.0469-38-38-38c-20.9533,0-38,17.0468-38,38s17.0467,38,38,38
		C77.98,84,95.0268,66.9532,95.0268,46z M57.0268,76c-16.5429,0-30-13.4572-30-30s13.4571-30,30-30c16.5427,0,30,13.4572,30,30
		S73.5696,76,57.0268,76z"/>
	<path d="M36.6832,48.758c-1.832,2.0368-3.6096,4.1268-5.3243,6.2656c-1.3829,1.7224-1.1057,4.24,0.6171,5.6228
		c0.7384,0.592,1.6252,0.8788,2.5,0.8788c1.172,0,2.336-0.5116,3.1252-1.498c1.6208-2.0212,3.2968-3.994,5.0272-5.918
		c1.4804-1.6424,1.3436-4.1716-0.2968-5.6504C40.6908,46.9864,38.1596,47.1192,36.6832,48.758z"/>
	<path d="M98.9408,15.9396c0.4376,0,0.8828-0.0744,1.3204-0.2268c2.4377-0.8516,4.9064-1.6348,7.4024-2.3496
		c2.1248-0.6092,3.3516-2.824,2.742-4.9472c-0.6052-2.1268-2.832-3.3476-4.9452-2.744c-2.6444,0.7576-5.2615,1.5876-7.84,2.49
		c-2.0855,0.7288-3.1836,3.01-2.4568,5.096C95.7416,14.9064,97.2884,15.9396,98.9408,15.9396z"/>
	<path d="M5.8236,118.4532c-2.164-0.3692-4.25,1.082-4.6247,3.2576c-0.4649,2.6896-0.8597,5.4044-1.172,8.1408
		c-0.2541,2.1952,1.3243,4.1776,3.5155,4.4296c0.1565,0.0176,0.3088,0.0256,0.4608,0.0256c2.008,0,3.7384-1.504,3.9688-3.5452
		c0.2968-2.584,0.668-5.1464,1.1096-7.6836C9.4604,120.9004,7.9996,118.83,5.8236,118.4532z"/>
	<path d="M19.14,80.8848c-2.004-0.9748-4.3788-0.1388-5.3516,1.8436c-1.1952,2.4572-2.324,4.9532-3.3828,7.4824
		c-0.8516,2.0392,0.1096,4.3828,2.1484,5.2344c0.504,0.2112,1.0276,0.3108,1.5432,0.3108c1.5624,0,3.0508-0.926,3.6912-2.4592
		c0.9964-2.3884,2.0628-4.744,3.1956-7.0644C21.9488,84.246,21.1244,81.8516,19.14,80.8848z"/>
	<path d="M68.0348,22.3788c-2.3285,1.4612-4.6057,2.9824-6.844,4.5664c-1.8009,1.2756-2.2305,3.7736-0.9533,5.5764
		c0.7813,1.0996,2.0156,1.6872,3.2696,1.6872c0.7968,0,1.6056-0.238,2.3088-0.736c2.1132-1.498,4.2732-2.9376,6.4688-4.3164
		c1.8708-1.176,2.4372-3.6448,1.2616-5.5156C72.3744,21.7696,69.902,21.2032,68.0348,22.3788z"/>
	<path d="M138.0348,8.2188c0.0739,0,0.1483-0.002,0.2223-0.006C140.8316,8.0724,143.4252,8,146.0348,8c2.2107,0,4-1.7912,4-4
		s-1.7893-4-4-4c-2.7581,0-5.4925,0.076-8.2153,0.2248c-2.2028,0.1208-3.8944,2.0056-3.7732,4.2128
		C134.1596,6.5684,135.9252,8.2188,138.0348,8.2188z"/>
</g>
</svg>
