<?xml version="1.0" encoding="utf-8"?>
<!-- Generator: Adobe Illustrator 19.2.0, SVG Export Plug-In . SVG Version: 6.00 Build 0)  -->
<svg version="1.1" id="mouse" xmlns="http://www.w3.org/2000/svg" xmlns:xlink="http://www.w3.org/1999/xlink" x="0px" y="0px"
	 viewBox="0 0 188.6219 192.0236" enable-background="new 0 0 188.6219 192.0236" xml:space="preserve">
<g>
	<circle fill="none" cx="36" cy="155.3828" r="4"/>
	<path fill="none" d="M103.7284,112.0236c-11.244,0-24.2224,2.6172-37.5332,7.5664l-3.8692,1.4372l-1.3164-3.91
		c-2.7088-8.0548-8.7772-13.5352-14.6344-13.5352c-0.586,0-1.168,0.0548-1.7464,0.168c-3.3868,0.6564-6.2812,3.1796-8.1524,7.0976
		c-2.0644,4.3204-2.6172,9.7072-1.5564,15.164c0.3164,1.6328,0.7752,3.2344,1.3612,4.758l1.1544,3l-2.6816,1.7732
		C16.2736,147.7576,8,159.1952,8,165.1092c0,16.9532,45.0412,18.9144,78.922,18.9144c46.6716,0,73.078-1.1488,73.078-24.7464
		C160,137.7188,150.2384,112.0236,103.7284,112.0236z M36,167.3828c-6.6172,0-12-5.3828-12-12c0-6.6172,5.3828-12,12-12
		c6.6172,0,12,5.3828,12,12C48,162,42.6172,167.3828,36,167.3828z"/>
	<path d="M36,143.3828c-6.6172,0-12,5.3828-12,12c0,6.6172,5.3828,12,12,12c6.6172,0,12-5.3828,12-12
		C48,148.7656,42.6172,143.3828,36,143.3828z M36,159.3828c-2.2052,0-4-1.7928-4-4c0-2.2072,1.7948-4,4-4c2.2052,0,4,1.7928,4,4
		C40,157.59,38.2052,159.3828,36,159.3828z"/>
	<path d="M166.5096,74.8008C149.0623,55.0936,142.826,38.0468,148.4763,25.5c5.5-12.2148,21.0412-17.5,27.756-17.5
		c2.2092,0,4-1.7892,4-4c0-2.2108-1.7908-4-4-4c-10.1016,0-28.2264,7.0584-35.0508,22.2148
		c-4.908,10.8984-5.5372,29.7892,19.34,57.8908c16.0176,18.0936,22.662,32.7576,19.2188,42.41
		c-3.196,8.9552-14.5388,11.5852-16.5268,11.9836c-6.9364-15.8832-23.1796-30.4756-59.4852-30.4756
		c-11.1348,0-23.738,2.328-36.658,6.7576c-4.9944-10.5704-14.5996-16.7068-23.9668-14.8828
		c-5.9376,1.1524-10.8556,5.2344-13.8456,11.5c-2.7992,5.8592-3.5764,13.0116-2.1916,20.1368
		c0.1992,1.0272,0.4432,2.0508,0.7304,3.0548C10.334,142.6524,0,155.4376,0,165.1092c0,23.6524,41.7772,26.9144,86.922,26.9144
		c43.5056,0,81.078,0,81.078-32.7464c0-5.1116-0.516-11.0812-2.1364-17.1696c4.6172-1.0892,17.1472-5.062,21.3904-16.846
		C191.8456,112.5116,184.8652,95.5352,166.5096,74.8008z M86.922,184.0236C53.0412,184.0236,8,182.0624,8,165.1092
		c0-5.914,8.2736-17.3516,26.754-29.5664l2.6816-1.7732l-1.1544-3c-0.586-1.5236-1.0448-3.1252-1.3612-4.758
		c-1.0608-5.4568-0.508-10.8436,1.5564-15.164c1.8712-3.918,4.7656-6.4412,8.1524-7.0976c0.5784-0.1132,1.1604-0.168,1.7464-0.168
		c5.8572,0,11.9256,5.4804,14.6344,13.5352l1.3164,3.91l3.8692-1.4372c13.3108-4.9492,26.2892-7.5664,37.5332-7.5664
		c46.51,0,56.2716,25.6952,56.2716,47.2536C160,182.8748,133.5936,184.0236,86.922,184.0236z"/>
</g>
</svg>
