<?xml version="1.0" encoding="utf-8"?>
<!-- Generator: Adobe Illustrator 19.2.0, SVG Export Plug-In . SVG Version: 6.00 Build 0)  -->
<svg version="1.1" id="network" xmlns="http://www.w3.org/2000/svg" xmlns:xlink="http://www.w3.org/1999/xlink" x="0px" y="0px"
	 viewBox="0 0 216 200" enable-background="new 0 0 216 200" xml:space="preserve">
<g>
	<path fill="none" d="M84,176c-4.4101,0-8,3.59-8,8c0,4.41,3.5899,8,8,8c4.4099,0,8-3.59,8-8C92,179.59,88.4099,176,84,176z"/>
	<path fill="none" d="M112,52c0-1.35,0.1011-2.6756,0.2027-4H71.764c-1.5817,14.2308-11.4837,25.974-24.7237,30.252l32.0832,90.5884
		C80.6703,168.3408,82.2883,168,84,168c2.4459,0,4.7383,0.5952,6.8131,1.58l52.79-69.758C125.0419,91.8744,112,73.4344,112,52z"/>
	<path fill="none" d="M64,44c0-15.4376-12.5625-28-28-28C20.5623,16,8,28.5624,8,44c0,15.4376,12.5623,28,28,28
		C51.4375,72,64,59.4376,64,44z M28,56c-8.8245,0-16-7.1756-16-16c0-8.8244,7.1755-16,16-16c8.8243,0,16,7.1756,16,16
		C44,48.8244,36.8243,56,28,56z"/>
	<path fill="none" d="M28,32c-4.4101,0-8,3.59-8,8c0,4.41,3.5899,8,8,8c4.4099,0,8-3.59,8-8C36,35.59,32.4099,32,28,32z"/>
	<path fill="none" d="M164,8c-24.2617,0-44,19.7384-44,44c0,24.2616,19.7383,44,44,44c24.2615,0,44-19.7384,44-44
		C208,27.7384,188.2615,8,164,8z M152,68c-13.2345,0-24-10.7656-24-24c0-13.2344,10.7655-24,24-24c13.2343,0,24,10.7656,24,24
		C176,57.2344,165.2343,68,152,68z"/>
	<path fill="none" d="M152,28c-8.8245,0-16,7.1756-16,16c0,8.8244,7.1755,16,16,16c8.8243,0,16-7.1756,16-16
		C168,35.1756,160.8243,28,152,28z"/>
	<path d="M28,24c-8.8245,0-16,7.1756-16,16c0,8.8244,7.1755,16,16,16c8.8243,0,16-7.1756,16-16C44,31.1756,36.8243,24,28,24z M28,48
		c-4.4101,0-8-3.59-8-8c0-4.41,3.5899-8,8-8c4.4099,0,8,3.59,8,8C36,44.41,32.4099,48,28,48z"/>
	<path d="M164,0c-24.536,0-45.1073,17.1036-50.5465,40H71.764C69.7663,22.026,54.4983,8,36,8C16.1483,8,0,24.1484,0,44
		c0,19.8516,16.1483,36,36,36c1.0523,0,2.088-0.0692,3.1179-0.158l33.0908,93.4328C69.6207,176.1184,68,179.86,68,184
		c0,8.8244,7.1755,16,16,16c8.8243,0,16-7.1756,16-16c0-3.5048-1.1653-6.722-3.0829-9.3604
		c0.0824-0.0904,0.1992-0.1268,0.2744-0.2256l54.4552-71.9588C155.6143,103.4276,159.7367,104,164,104c28.672,0,52-23.328,52-52
		S192.672,0,164,0z M8,44c0-15.4376,12.5623-28,28-28c15.4375,0,28,12.5624,28,28c0,15.4376-12.5625,28-28,28
		C20.5623,72,8,59.4376,8,44z M84,192c-4.4101,0-8-3.59-8-8c0-4.41,3.5899-8,8-8c4.4099,0,8,3.59,8,8C92,188.41,88.4099,192,84,192z
		 M90.8131,169.58C88.7383,168.5952,86.4459,168,84,168c-1.7117,0-3.3297,0.3408-4.8765,0.8404L47.0403,78.252
		C60.2803,73.974,70.1823,62.2308,71.764,48h40.4387C112.1011,49.3244,112,50.65,112,52c0,21.4344,13.0419,39.8744,31.6031,47.822
		L90.8131,169.58z M164,96c-24.2617,0-44-19.7384-44-44c0-24.2616,19.7383-44,44-44c24.2615,0,44,19.7384,44,44
		C208,76.2616,188.2615,96,164,96z"/>
	<path d="M152,20c-13.2345,0-24,10.7656-24,24c0,13.2344,10.7655,24,24,24c13.2343,0,24-10.7656,24-24
		C176,30.7656,165.2343,20,152,20z M152,60c-8.8245,0-16-7.1756-16-16c0-8.8244,7.1755-16,16-16c8.8243,0,16,7.1756,16,16
		C168,52.8244,160.8243,60,152,60z"/>
</g>
</svg>
