<?xml version="1.0" encoding="utf-8"?>
<!-- Generator: Adobe Illustrator 19.2.0, SVG Export Plug-In . SVG Version: 6.00 Build 0)  -->
<svg version="1.1" id="nuclearfactory" xmlns="http://www.w3.org/2000/svg" xmlns:xlink="http://www.w3.org/1999/xlink" x="0px"
	 y="0px" viewBox="0 0 216.17 212" enable-background="new 0 0 216.17 212" xml:space="preserve">
<g>
	<path fill="none" d="M112.2072,60H31.7928c0.6212,8.1212,0.9336,16.34,0.9336,24.5c0,41.1484-7.7832,81.3244-23.1444,119.5h124.836
		c-15.3612-38.1756-23.1444-78.3516-23.1444-119.5C111.2736,76.34,111.586,68.1212,112.2072,60z M72,168
		c-17.6444,0-32-14.3556-32-32c0-17.6444,14.3556-32,32-32c17.6444,0,32,14.3556,32,32C104,153.6444,89.6444,168,72,168z"/>
	<path fill="none" d="M72,112c-13.2344,0-24,10.7656-24,24c0,13.2345,10.7656,24,24,24c13.2344,0,24-10.7655,24-24
		C96,122.7656,85.2344,112,72,112z M81.4648,146.4648l-9.7948-5.6544l-9.7948,5.6544l-4-6.9296L68,133.69V124h8v10.0712
		l9.4648,5.464L81.4648,146.4648z"/>
	<polygon fill="none" points="175.836,20 168.17,204 207.83,204 200.164,20 	"/>
	<path d="M119.2736,84.5c0-9.3828,0.4256-18.8516,1.2636-28.1408L120.9296,52H23.0704l0.3924,4.3592
		c0.838,9.2892,1.2636,18.758,1.2636,28.1408c0,41.7344-8.2148,82.4452-24.414,121.004L0,206.25V212h144v-5.75l-0.3124-0.746
		C127.4884,166.9452,119.2736,126.2344,119.2736,84.5z M9.582,204c15.3612-38.1756,23.1444-78.3516,23.1444-119.5
		c0-8.16-0.3124-16.3788-0.9336-24.5h80.4144c-0.6212,8.1212-0.9336,16.34-0.9336,24.5c0,41.1484,7.7832,81.3244,23.1444,119.5
		H9.582z"/>
	<rect x="24" y="36" width="96" height="8"/>
	<rect x="168" width="40" height="8"/>
	<path d="M207.836,12h-39.672l-8.334,200h56.34L207.836,12z M168.17,204l7.666-184h24.328l7.666,184H168.17z"/>
	<path d="M72,104c-17.6444,0-32,14.3556-32,32c0,17.6444,14.3556,32,32,32c17.6444,0,32-14.3556,32-32
		C104,118.3556,89.6444,104,72,104z M72,160c-13.2344,0-24-10.7655-24-24c0-13.2344,10.7656-24,24-24c13.2344,0,24,10.7656,24,24
		C96,149.2345,85.2344,160,72,160z"/>
	<polygon points="76,124 68,124 68,133.69 57.8752,139.5352 61.8752,146.4648 71.67,140.8104 81.4648,146.4648 85.4648,139.5352 
		76,134.0712 	"/>
</g>
</svg>
