<?xml version="1.0" encoding="utf-8"?>
<!-- Generator: Adobe Illustrator 19.2.0, SVG Export Plug-In . SVG Version: 6.00 Build 0)  -->
<svg version="1.1" id="oillamp" xmlns="http://www.w3.org/2000/svg" xmlns:xlink="http://www.w3.org/1999/xlink" x="0px" y="0px"
	 viewBox="0 0 128 229.7045" enable-background="new 0 0 128 229.7045" xml:space="preserve">
<g>
	<path fill="none" d="M64,65.6953c11.0271,0,20-8.9728,20-20c0-7.6776-10.66-24.34-18.992-35.3652
		C55.828,21.3377,44,38.0625,44,45.6953C44,56.7225,52.9727,65.6953,64,65.6953z"/>
	<path fill="none" d="M81.7735,115.6641C80.664,114.9217,80,113.6737,80,112.3397V85.6953h-9.7177
		c-9.1768,14.7788-5.4032,27.7528-1.3724,41.4588c5.1212,17.42,10.9261,37.1644-16.4528,57.336l-4.7424-6.4412
		c22.8632-16.8476,18.7424-30.8772,13.5196-48.6388c-3.8248-13.0132-8.0703-27.5868-0.102-43.7148H48v26.6444
		c0,1.334-0.664,2.582-1.7737,3.3244C24.3475,130.3125,8,168.9413,8,193.6953c0,8.8924,2.0547,15.2676,6.2811,19.4884
		c8.5589,8.5544,26.0509,8.5528,46.5236,8.5136L64,221.6953l3.1951,0.002c20.43,0.0372,37.9612,0.0408,46.5236-8.5136
		c4.2264-4.2208,6.2813-10.596,6.2813-19.4884C120,168.9413,103.6523,130.3125,81.7735,115.6641z"/>
	<path d="M88,110.2557V81.6953c0-2.2088-1.7893-4-4-4H44c-2.2109,0-4,1.7912-4,4v28.5604c-23.664,17.2384-40,57.2676-40,83.4396
		c0,11.1248,2.8203,19.3516,8.6251,25.1484c10.914,10.9004,29.996,10.91,52.1872,10.8536L64,229.6953l3.1875,0.002
		c1.0468,0.002,2.086,0.002,3.1208,0.002c20.8168,0,38.672-0.4708,49.0668-10.8556c5.8044-5.7968,8.6249-14.0236,8.6249-25.1484
		C128,167.5233,111.664,127.4941,88,110.2557z M113.7187,213.1837c-8.5624,8.5544-26.0936,8.5508-46.5236,8.5136L64,221.6953
		l-3.1953,0.002c-20.4727,0.0392-37.9647,0.0408-46.5236-8.5136C10.0547,208.9629,8,202.5877,8,193.6953
		c0-24.754,16.3475-63.3828,38.2263-78.0312C47.336,114.9217,48,113.6737,48,112.3397V85.6953h13.1323
		c-7.9683,16.128-3.7228,30.7016,0.102,43.7148c5.2228,17.7616,9.3436,31.7912-13.5196,48.6388l4.7424,6.4412
		c27.3789-20.1716,21.574-39.916,16.4528-57.336c-4.0308-13.706-7.8044-26.68,1.3724-41.4588H80v26.6444
		c0,1.334,0.664,2.582,1.7735,3.3244C103.6523,130.3125,120,168.9413,120,193.6953
		C120,202.5877,117.9451,208.9629,113.7187,213.1837z"/>
	<path d="M64,73.6953c15.4375,0,28-12.5604,28-28c0-14.25-21.2929-41.166-23.7229-44.1896c-0.738-0.918-1.8436-1.4648-3.0232-1.492
		c-1.172-0.1112-2.3088,0.4648-3.0899,1.3476C59.4883,4.3869,36,31.3397,36,45.6953C36,61.1349,48.5623,73.6953,64,73.6953z
		 M65.008,10.3301C73.34,21.3553,84,38.0177,84,45.6953c0,11.0272-8.9729,20-20,20c-11.0273,0-20-8.9728-20-20
		C44,38.0625,55.828,21.3377,65.008,10.3301z"/>
</g>
</svg>
