<?xml version="1.0" encoding="utf-8"?>
<!-- Generator: Adobe Illustrator 19.2.0, SVG Export Plug-In . SVG Version: 6.00 Build 0)  -->
<svg version="1.1" id="particlemovement" xmlns="http://www.w3.org/2000/svg" xmlns:xlink="http://www.w3.org/1999/xlink" x="0px"
	 y="0px" viewBox="0 0 202.5575 204.9275" enable-background="new 0 0 202.5575 204.9275" xml:space="preserve">
<g>
	<path fill="none" d="M18.8759,143.2047c-0.9392-0.3592-1.906-0.5312-2.8572-0.5312c-3.2188,0-6.258,1.9532-7.4788,5.1328
		c-1.58,4.1172,0.4824,8.754,4.6016,10.336c4.1152,1.5744,8.756-0.4844,10.336-4.6016S22.9951,144.7867,18.8759,143.2047z"/>
	<path fill="none" d="M71.6299,21.3455c1.4296-1.59,2.1564-3.6368,2.0448-5.7696c-0.1112-2.1368-1.0488-4.0976-2.6348-5.5272
		c-1.5896-1.43-3.6464-2.1836-5.7732-2.0432c-2.1348,0.1096-4.0956,1.0468-5.5256,2.6328c-1.4296,1.59-2.156,3.6408-2.0448,5.7736
		c0.1112,2.1368,1.0488,4.0976,2.6348,5.5272C63.6103,24.8883,68.6767,24.6267,71.6299,21.3455z"/>
	<path fill="none" d="M157.7491,30.6735c1.834,1.1016,3.9884,1.4296,6.0548,0.9024h0.0016c2.0724-0.5156,3.8204-1.8084,4.92-3.6408
		c1.1016-1.832,1.424-3.984,0.9064-6.0544c-0.5176-2.0744-1.8104-3.8204-3.6428-4.922c-1.2596-0.7576-2.6696-1.1444-4.1032-1.1444
		c-0.6504,0-1.3048,0.078-1.9512,0.242c-2.0744,0.5156-3.8224,1.8088-4.922,3.6408c-1.1016,1.828-1.424,3.9804-0.9064,6.0544
		C154.6239,27.8259,155.9171,29.5719,157.7491,30.6735z"/>
	<path fill="none" d="M191.5927,182.7203c-1.4392-1.168-3.1972-1.7852-5.0232-1.7852c-0.2812,0-0.5644,0.016-0.8496,0.0432
		c-2.1252,0.2227-4.0372,1.2616-5.3812,2.922l-0.0016,0.0036c-2.7756,3.426-2.2444,8.4728,1.1852,11.25
		c3.426,2.7736,8.4748,2.2424,11.25-1.1836c1.346-1.66,1.9632-3.746,1.7404-5.8708
		C194.2883,185.9743,193.2511,184.0643,191.5927,182.7203z"/>
	<path fill="none" d="M61.8487,98.9351c-1.3104-0.8512-2.8104-1.2928-4.338-1.2928c-0.5584,0-1.1212,0.0588-1.6816,0.1796
		c-2.09,0.4416-3.8828,1.672-5.0448,3.4648c-1.164,1.7932-1.5608,3.93-1.1172,6.0196c0.4452,2.09,1.6756,3.8828,3.4688,5.0468
		c1.7888,1.1604,3.9236,1.5588,6.0192,1.1136c2.092-0.4416,3.8832-1.672,5.0472-3.4652c1.164-1.7928,1.5584-3.9296,1.1152-6.0192
		C64.8719,101.8923,63.6415,100.0995,61.8487,98.9351z"/>
	<path d="M35.6807,78.9079l-0.418-7.992l-14.324,0.7504l37.3924-41.53c2.3084,1.1984,4.8192,1.8496,7.3456,1.8496
		c4.3808,0,8.7444-1.7848,11.8964-5.2848c2.8616-3.176,4.3148-7.2776,4.09-11.5432c-0.2228-4.2696-2.0956-8.1952-5.2716-11.0548
		c-3.1756-2.8592-7.2852-4.2576-11.5428-4.0896c-4.2676,0.2224-8.1936,2.0976-11.0528,5.2732
		c-2.8592,3.176-4.3124,7.2776-4.088,11.5432c0.1512,2.8956,1.116,5.6024,2.6768,7.956L14.9939,66.3143l-0.7508-14.3244
		l-7.988,0.422l1.4648,27.9568L35.6807,78.9079z M59.7411,10.6383c1.43-1.586,3.3908-2.5232,5.5256-2.6328
		c2.1268-0.1404,4.1836,0.6132,5.7732,2.0432c1.586,1.4296,2.5236,3.3904,2.6348,5.5272c0.1116,2.1328-0.6152,4.1796-2.0448,5.7696
		c-2.9532,3.2812-8.0196,3.5428-11.2988,0.5936c-1.586-1.4296-2.5236-3.3904-2.6348-5.5272
		C57.5851,14.2791,58.3115,12.2283,59.7411,10.6383z"/>
	<path d="M153.6299,37.5331c2.4892,1.4932,5.2748,2.2632,8.106,2.282l13.5028,54.1628l-12.2924-7.3864l-4.1212,6.8596
		l24.002,14.4176l14.42-24l-6.8556-4.1172l-7.3888,12.2932l-13.518-54.2216c2.4832-1.346,4.6056-3.282,6.0984-5.7668
		c2.2012-3.664,2.8456-7.9648,1.8104-12.1132c-1.0332-4.1444-3.6212-7.6408-7.2832-9.8436
		c-3.664-2.1956-7.9628-2.836-12.1112-1.8088c-4.1464,1.0352-7.6428,3.6212-9.844,7.2852c-2.2008,3.66-2.8456,7.9648-1.8104,12.1132
		C147.3779,31.8339,149.9659,35.3299,153.6299,37.5331z M155.0127,19.6971c1.0996-1.832,2.8476-3.1252,4.922-3.6408
		c0.6464-0.164,1.3008-0.242,1.9512-0.242c1.4336,0,2.8436,0.3868,4.1032,1.1444c1.8324,1.1016,3.1252,2.8476,3.6428,4.922
		c0.5176,2.0704,0.1952,4.2224-0.9064,6.0544c-1.0996,1.8324-2.8476,3.1252-4.92,3.6408h-0.0016
		c-2.0664,0.5272-4.2208,0.1992-6.0548-0.9024c-1.832-1.1016-3.1252-2.8476-3.6428-4.922
		C153.5887,23.6775,153.9111,21.5251,155.0127,19.6971z"/>
	<path d="M202.4679,187.2635c-0.4456-4.25-2.5216-8.0744-5.842-10.762c-3.3204-2.6872-7.492-3.9216-11.742-3.4804
		c-2.8836,0.3048-5.5364,1.4108-7.8068,3.0948l-43.4276-35.17l14.2676-1.4988l-0.836-7.9532l-27.8476,2.9256l2.9256,27.848
		l7.9572-0.836l-1.4992-14.27l43.4284,35.1704c-2.9404,6.4732-1.3352,14.3608,4.4436,19.0408
		c2.9552,2.3908,6.514,3.5548,10.0492,3.5548c4.666,0,9.2948-2.0236,12.4508-5.922
		C201.6787,195.6815,202.9151,191.5135,202.4679,187.2635z M192.7723,193.9703c-2.7752,3.426-7.824,3.9572-11.25,1.1836
		c-3.4296-2.7772-3.9608-7.824-1.1852-11.25l0.0016-0.0036c1.344-1.6604,3.256-2.6992,5.3812-2.922
		c0.2852-0.0272,0.5684-0.0432,0.8496-0.0432c1.826,0,3.584,0.6172,5.0232,1.7852c1.6584,1.344,2.6956,3.254,2.92,5.3792
		C194.7355,190.2243,194.1183,192.3103,192.7723,193.9703z"/>
	<path d="M71.7555,98.5211c-1.258-2.5288-3.1188-4.7179-5.5496-6.2968c-3.584-2.324-7.8572-3.1132-12.0388-2.2304
		c-4.1796,0.8868-7.7656,3.3516-10.094,6.9376c-2.326,3.582-3.1188,7.8592-2.2304,12.0388c0.8868,4.18,3.3516,7.7656,6.9356,10.094
		c2.6252,1.7032,5.6232,2.586,8.6796,2.586c1.1172,0,2.2424-0.1172,3.3596-0.3556c4.1816-0.8868,7.7656-3.3516,10.0936-6.9376
		c1.5792-2.4296,2.3896-5.1868,2.51-8.0088l54.6576-11.6168l-7.812,12.028l6.7108,4.3592l15.25-23.484l-23.4824-15.254
		l-4.3592,6.7108l12.0336,7.8152L71.7555,98.5211z M64.2023,110.0015c-1.164,1.7932-2.9552,3.0236-5.0472,3.4652
		c-2.0956,0.4452-4.2304,0.0468-6.0192-1.1136c-1.7932-1.164-3.0236-2.9568-3.4688-5.0468
		c-0.4436-2.0896-0.0468-4.2264,1.1172-6.0196c1.162-1.7928,2.9548-3.0232,5.0448-3.4648c0.5604-0.1208,1.1232-0.1796,1.6816-0.1796
		c1.5276,0,3.0276,0.4416,4.338,1.2928c1.7928,1.1644,3.0232,2.9572,3.4688,5.0472
		C65.7607,106.0719,65.3663,108.2087,64.2023,110.0015z"/>
	<path d="M78.1847,159.3923l5.8332,13.1036l-52.1664-20.0236c0.3224-2.806-0.0464-5.6568-1.2256-8.3064
		c-1.738-3.9064-4.8924-6.8984-8.8828-8.43c-3.994-1.5349-8.3416-1.418-12.242,0.3204c-3.9044,1.7384-6.8984,4.8948-8.4296,8.8828
		c-1.5316,3.9884-1.418,8.336,0.32,12.2424c1.7384,3.906,4.8928,6.8984,8.8828,8.4296c1.8636,0.7148,3.8028,1.0704,5.7404,1.0704
		c2.2128,0,4.42-0.4648,6.502-1.3908c2.6476-1.1788,4.828-3.0496,6.4664-5.35l52.1712,20.0252l-13.1044,5.8364l3.254,7.3048
		l25.578-11.3868l-11.3888-25.578L78.1847,159.3923z M13.1415,158.1423c-4.1192-1.582-6.1816-6.2188-4.6016-10.336
		c1.2208-3.1796,4.26-5.1328,7.4788-5.1328c0.9512,0,1.918,0.172,2.8572,0.5312c4.1192,1.582,6.1816,6.2188,4.6016,10.336
		S17.2567,159.7167,13.1415,158.1423z"/>
</g>
</svg>
