<?xml version="1.0" encoding="utf-8"?>
<!-- Generator: Adobe Illustrator 19.2.0, SVG Export Plug-In . SVG Version: 6.00 Build 0)  -->
<svg version="1.1" id="pendulum" xmlns="http://www.w3.org/2000/svg" xmlns:xlink="http://www.w3.org/1999/xlink" x="0px" y="0px"
	 viewBox="0 0 212 188" enable-background="new 0 0 212 188" xml:space="preserve">
<g>
	<path fill="none" d="M12,168c0,6.6172,5.3828,12,12,12c6.6172,0,12-5.3828,12-12c0-6.6171-5.3828-12-12-12
		C17.3828,156,12,161.3829,12,168z"/>
	<path fill="none" d="M60,168c0,6.6172,5.3828,12,12,12c6.6172,0,12-5.3828,12-12c0-6.6171-5.3828-12-12-12
		C65.3828,156,60,161.3829,60,168z"/>
	<path fill="none" d="M108,168c0,6.6172,5.3828,12,12,12c6.6172,0,12-5.3828,12-12c0-6.6171-5.3828-12-12-12
		C113.3828,156,108,161.3829,108,168z"/>
	<path fill="none" d="M184,16c0-4.4099-3.59-8-8.002-8H16.002C11.59,8,8,11.5901,8,16c0,4.4101,3.59,8,8.002,8h159.996
		C180.41,24,184,20.4101,184,16z"/>
	<path fill="none" d="M192,152c-6.6172,0-12,5.3829-12,12c0,6.6172,5.3828,12,12,12c6.6172,0,12-5.3828,12-12
		C204,157.3829,198.6172,152,192,152z"/>
	<path d="M192.0616,144.0065L172.4116,32h3.5864C184.8224,32,192,24.8245,192,16c0-8.8243-7.1776-16-16.002-16H16.002
		C7.1776,0,0,7.1757,0,16c0,8.8245,7.1776,16,16.002,16H20v116.4044C10.8828,150.2629,4,158.3425,4,168c0,11.0273,8.9728,20,20,20
		c11.0272,0,20-8.9727,20-20c0-9.6575-6.8828-17.7371-16-19.5956V32h40v116.4044c-9.1172,1.8584-16,9.938-16,19.5956
		c0,11.0273,8.9728,20,20,20c11.0272,0,20-8.9727,20-20c0-9.6575-6.8828-17.7371-16-19.5956V32h40v116.4044
		c-9.1172,1.8584-16,9.938-16,19.5956c0,11.0273,8.9728,20,20,20c11.0272,0,20-8.9727,20-20c0-9.6575-6.8828-17.7371-16-19.5956V32
		h40.2904l19.9256,113.578C177.044,148.62,172,155.732,172,164c0,11.0273,8.9727,20,20,20c11.0271,0,20-8.9727,20-20
		C212,152.994,203.06,144.0413,192.0616,144.0065z M36,168c0,6.6172-5.3828,12-12,12c-6.6172,0-12-5.3828-12-12
		c0-6.6171,5.3828-12,12-12C30.6172,156,36,161.3829,36,168z M84,168c0,6.6172-5.3828,12-12,12c-6.6172,0-12-5.3828-12-12
		c0-6.6171,5.3828-12,12-12C78.6172,156,84,161.3829,84,168z M132,168c0,6.6172-5.3828,12-12,12c-6.6172,0-12-5.3828-12-12
		c0-6.6171,5.3828-12,12-12C126.6172,156,132,161.3829,132,168z M8,16c0-4.4099,3.59-8,8.002-8h159.996C180.41,8,184,11.5901,184,16
		c0,4.4101-3.59,8-8.002,8H16.002C11.59,24,8,20.4101,8,16z M192,176c-6.6172,0-12-5.3828-12-12c0-6.6171,5.3828-12,12-12
		c6.6172,0,12,5.3829,12,12C204,170.6172,198.6172,176,192,176z"/>
</g>
</svg>
