<?xml version="1.0" encoding="utf-8"?>
<!-- Generator: Adobe Illustrator 19.2.0, SVG Export Plug-In . SVG Version: 6.00 Build 0)  -->
<svg version="1.1" id="planetsmovement" xmlns="http://www.w3.org/2000/svg" xmlns:xlink="http://www.w3.org/1999/xlink" x="0px"
	 y="0px" viewBox="0 0 216.35 210.0392" enable-background="new 0 0 216.35 210.0392" xml:space="preserve">
<g>
	<path fill="none" d="M36,22c0-7.7188-6.2812-14-14-14C14.2812,8,8,14.2812,8,22c0,7.7188,6.2812,14,14,14
		C29.7188,36,36,29.7188,36,22z"/>
	<path fill="none" d="M86,112c14.336,0,26-11.664,26-26s-11.664-26-26-26S60,71.664,60,86S71.664,112,86,112z"/>
	<path d="M139.2912,35.16c0.7672,0,1.5428-0.2184,2.2264-0.6796c4.5372-3.0468,9.0216-5.8592,13.33-8.3592
		c1.9104-1.1096,2.5608-3.5588,1.4512-5.4688c-1.1132-1.9104-3.5568-2.5664-5.4668-1.4532c-4.4588,2.59-9.0936,5.496-13.7752,8.6408
		c-1.834,1.2304-2.3224,3.7184-1.09,5.5508C136.7384,34.5392,138.004,35.16,139.2912,35.16z"/>
	<path d="M197.3924,11.4024c3.5548,0.2812,6.2992,1.3712,8.1604,3.2344c0.6876,0.6876,1.2696,1.492,1.7324,2.3944
		c0.7088,1.3788,2.1092,2.172,3.5624,2.172c0.6152,0,1.2384-0.1408,1.8244-0.4416c1.9648-1.0116,2.74-3.4216,1.7304-5.3868
		c-0.844-1.6404-1.918-3.1208-3.1896-4.3904c-3.24-3.25-7.6756-5.1172-13.1836-5.5588c-2.2616-0.1912-4.1288,1.4728-4.3064,3.672
		C193.5468,9.2968,195.1916,11.2264,197.3924,11.4024z"/>
	<path d="M167.006,19.2264c0.5644,0,1.1348-0.1172,1.6796-0.3708c5.1444-2.3828,9.9744-4.2344,14.3556-5.4964
		c2.1228-0.6132,3.3476-2.828,2.736-4.9528c-0.6152-2.1212-2.8396-3.348-4.9512-2.7344c-4.7732,1.3748-9.988,3.3708-15.5036,5.9256
		c-2.004,0.9296-2.8772,3.3048-1.9472,5.3124C164.0508,18.3672,165.496,19.2264,167.006,19.2264z"/>
	<path d="M113.6836,54.3436c0.8964,0,1.7968-0.3008,2.5412-0.914c4.1424-3.414,8.324-6.7068,12.4296-9.7888
		c1.7656-1.3284,2.1228-3.836,0.7948-5.6016c-1.3224-1.7656-3.83-2.1212-5.5996-0.7972c-4.2012,3.1564-8.4764,6.5236-12.7108,10.016
		c-1.7052,1.402-1.9492,3.9256-0.5452,5.6288C111.3848,53.8476,112.5292,54.3436,113.6836,54.3436z"/>
	<path d="M36.326,201.6876c-5.6032,0.7772-10,0.2576-12.9844-1.508c-1.902-1.1172-4.3572-0.492-5.4784,1.4104
		c-1.1248,1.902-0.494,4.3552,1.4084,5.4804c3.334,1.9688,7.4784,2.9688,12.3184,2.9688c1.824,0,3.7868-0.1448,5.8376-0.43
		c2.1876-0.3008,3.7148-2.324,3.4124-4.5116C40.5332,202.91,38.5096,201.3516,36.326,201.6876z"/>
	<path d="M91.664,174.6212c-4.4412,3.156-8.8496,6.1052-13.1056,8.7696c-1.8708,1.1716-2.4392,3.6404-1.2672,5.5116
		c0.7596,1.2148,2.0624,1.8788,3.3944,1.8788c0.7244,0,1.4588-0.1952,2.1192-0.6092c4.3848-2.7464,8.9256-5.7852,13.492-9.0276
		c1.8008-1.2812,2.2248-3.7772,0.9452-5.578C95.9608,173.7696,93.4668,173.34,91.664,174.6212z"/>
	<path d="M64.9648,191.2344c-4.9552,2.5936-9.7068,4.7656-14.1232,6.4608c-2.0644,0.7892-3.0936,3.1056-2.3024,5.168
		c0.6092,1.59,2.1268,2.5664,3.7344,2.5664c0.4764,0,0.9608-0.086,1.4316-0.2656c4.7048-1.8048,9.742-4.1056,14.9704-6.8436
		c1.9572-1.0236,2.7132-3.4416,1.6896-5.3984C69.3416,190.9688,66.9276,190.2032,64.9648,191.2344z"/>
	<path d="M139.8008,133.5508c-3.758,3.75-7.6016,7.4492-11.4256,10.996c-1.6192,1.504-1.7152,4.0352-0.2132,5.6524
		c0.7892,0.8516,1.8596,1.2812,2.9336,1.2812c0.9748,0,1.9492-0.3516,2.7208-1.0664c3.8944-3.6132,7.8088-7.3788,11.6368-11.1992
		c1.5624-1.5624,1.5664-4.0936,0.0056-5.6564C143.9004,131.9884,141.3672,131.996,139.8008,133.5508z"/>
	<path d="M116.5508,155.0936c-4.0548,3.4768-8.17,6.8596-12.2324,10.0548c-1.7364,1.3672-2.0372,3.8828-0.672,5.6172
		c0.7912,1.004,1.9628,1.5272,3.1464,1.5272c0.8672,0,1.7384-0.2812,2.4708-0.8552c4.1504-3.2656,8.3536-6.7188,12.4944-10.2656
		c1.6756-1.4376,1.8708-3.9648,0.4336-5.6408C120.754,153.8476,118.2324,153.66,116.5508,155.0936z"/>
	<path d="M203.086,57.1876c-1.9512-1.0392-4.3752-0.2892-5.4064,1.664c-2.3064,4.3556-4.9628,8.922-7.8944,13.5704
		c-1.1796,1.8672-0.6192,4.336,1.248,5.5156c0.662,0.418,1.4004,0.6172,2.1308,0.6172c1.328,0,2.6272-0.6604,3.3868-1.8672
		c3.0392-4.8164,5.7968-9.5588,8.1992-14.094C205.7832,60.6408,205.0392,58.2228,203.086,57.1876z"/>
	<path d="M180.9764,85.5c-2.9548,4.1328-6.152,8.3868-9.5076,12.6368c-1.3672,1.7344-1.0724,4.25,0.662,5.6172
		c0.7344,0.578,1.6076,0.8592,2.4768,0.8592c1.1816,0,2.3532-0.5232,3.1424-1.5232c3.4316-4.348,6.7072-8.6992,9.7344-12.9336
		c1.2852-1.8008,0.8692-4.2972-0.9276-5.582C184.756,83.2852,182.2616,83.7072,180.9764,85.5z"/>
	<path d="M161.3888,110.3436c-3.4044,3.9492-6.9612,7.922-10.5724,11.8008c-1.506,1.6172-1.414,4.1484,0.2032,5.6564
		c0.7696,0.7148,1.748,1.0704,2.7244,1.0704c1.0704,0,2.1408-0.4296,2.928-1.2736c3.6816-3.9568,7.3064-8.004,10.7792-12.0352
		c1.4412-1.6716,1.254-4.1992-0.42-5.6404C165.3592,108.4844,162.834,108.672,161.3888,110.3436z"/>
	<path d="M212.9708,26.91c-2.174-0.3124-4.2268,1.1484-4.5724,3.332c-0.6736,4.2852-2.078,9.168-4.1736,14.512
		c-0.8068,2.0584,0.2088,4.3788,2.2656,5.1836c0.4784,0.1872,0.9724,0.2772,1.4568,0.2772c1.5976,0,3.1076-0.9648,3.7268-2.5392
		c2.3064-5.8864,3.8632-11.3356,4.6268-16.1912C216.6444,29.3008,215.1524,27.254,212.9708,26.91z"/>
	<path d="M18.1564,188.5976c0-3.7304,0.7556-8.1444,2.248-13.1248c0.6328-2.1172-0.5684-4.348-2.6836-4.9808
		c-2.1076-0.6248-4.344,0.5664-4.9804,2.6836c-1.7152,5.7268-2.584,10.9144-2.584,15.4376c0.002,0.5624,0.0156,1.1096,0.0408,1.6484
		c0.1056,2.1408,1.8732,3.8048,3.9924,3.8048c0.0664,0,0.1328,0,0.1992-0.004c2.2068-0.1092,3.908-1.9844,3.8008-4.1912
		C18.168,189.4492,18.1584,189.0196,18.1564,188.5976z"/>
	<path d="M31.92,141.8516c-1.914-1.1212-4.3596-0.4768-5.4728,1.4336c-2.9236,4.992-5.502,9.8556-7.664,14.4492
		c-0.9416,2-0.082,4.3828,1.916,5.324c0.5508,0.258,1.1288,0.3792,1.7012,0.3792c1.5,0,2.9396-0.8476,3.6212-2.2968
		c2.0604-4.3792,4.5272-9.0276,7.328-13.8164C34.4668,145.418,33.826,142.9688,31.92,141.8516z"/>
	<path d="M36.2032,135.0936c0.6876,0.4648,1.4668,0.6876,2.2384,0.6876c1.2832,0,2.5428-0.6172,3.3164-1.7576
		c2.8456-4.2072,5.9392-8.5276,9.1972-12.84c1.33-1.7616,0.9804-4.2736-0.7832-5.6016c-1.7656-1.3436-4.2776-0.9844-5.6036,0.7812
		c-3.338,4.422-6.5136,8.8556-9.4356,13.176C33.8944,131.3712,34.3752,133.8556,36.2032,135.0936z"/>
	<path d="M102.1152,143.496c-4.0916,3.5548-8.1856,6.9688-12.162,10.1564c-1.7248,1.3788-2.004,3.8984-0.6232,5.6212
		c0.7912,0.988,1.9532,1.5,3.1252,1.5c0.8768,0,1.7596-0.2852,2.498-0.8792c4.0604-3.25,8.2344-6.7344,12.408-10.3592
		c1.668-1.4492,1.846-3.9728,0.3968-5.6408C106.3084,142.2228,103.7852,142.0392,102.1152,143.496z"/>
	<path d="M66.4356,179.3828c0.7108,0,1.4336-0.1912,2.084-0.59c4.2324-2.5896,8.7908-5.6404,13.5468-9.07
		c1.7912-1.2932,2.1972-3.7932,0.9044-5.586c-1.2892-1.7932-3.7892-2.1916-5.584-0.9064c-4.594,3.3164-8.9824,6.254-13.0432,8.7424
		c-1.8848,1.152-2.4764,3.6132-1.324,5.5C63.7752,178.7032,65.09,179.3828,66.4356,179.3828z"/>
	<path d="M160.6016,93.3436c1.1544,0,2.3008-0.496,3.0916-1.4608c3.5704-4.3436,6.9356-8.6248,10.002-12.7304
		c1.3244-1.7696,0.9612-4.2776-0.8084-5.5976c-1.7716-1.3284-4.2756-0.9612-5.5976,0.8084
		c-2.9944,4.008-6.2832,8.1916-9.7756,12.4416c-1.4024,1.7068-1.156,4.2264,0.5508,5.6288
		C158.8084,93.0468,159.7072,93.3436,160.6016,93.3436z"/>
	<path d="M168.0704,38.2812c1.9336-1.0664,2.6368-3.5,1.5684-5.4336c-1.0704-1.9336-3.506-2.6404-5.4356-1.5664
		c-4.2812,2.3632-8.9592,5.2736-13.9044,8.6564c-1.824,1.246-2.2908,3.7344-1.0448,5.5584
		c0.7752,1.1328,2.0292,1.7424,3.3064,1.7424c0.7776,0,1.5628-0.2268,2.254-0.6992
		C159.5488,43.3048,164.0096,40.5236,168.0704,38.2812z"/>
	<path d="M55.9688,181.2812c-0.8456-2.0392-3.1856-3.0116-5.2248-2.164c-7.8436,3.242-10.3496,2.7108-11.3708,1.9376
		c-1.758-1.3476-4.2696-1.004-5.6056,0.7536c-1.34,1.758-1.002,4.266,0.754,5.6056c1.834,1.3984,4.1892,2.1096,7.0056,2.1096
		c3.3692-0.004,7.3848-0.9924,12.2756-3.0156C55.8436,185.664,56.8144,183.3244,55.9688,181.2812z"/>
	<path d="M65.1192,125.7032c-1.7284-1.3712-4.246-1.094-5.6212,0.6404c-3.5272,4.4336-6.8144,8.7852-9.7716,12.9336
		c-1.2812,1.7972-0.8632,4.2932,0.9356,5.5784c0.7052,0.5,1.5156,0.742,2.3184,0.742c1.25,0,2.4804-0.582,3.2616-1.6796
		c2.8752-4.0312,6.0784-8.2696,9.5176-12.5976C67.1348,129.5936,66.8476,127.078,65.1192,125.7032z"/>
	<path d="M35.4864,172.9296c0.4764,0.1836,0.9648,0.2696,1.4452,0.2696c1.6036,0,3.1152-0.9688,3.7304-2.5548
		c1.51-3.9024,3.844-8.492,6.9356-13.6404c1.1368-1.8948,0.5236-4.3516-1.3712-5.4884c-1.8964-1.1408-4.3512-0.5272-5.488,1.3712
		c-3.3264,5.5388-5.8616,10.5428-7.5372,14.8672C32.4044,169.8164,33.4276,172.1328,35.4864,172.9296z"/>
	<path d="M184.1152,48.0508c-1.9824,4.0196-4.6016,8.5392-7.7852,13.4296c-1.2032,1.8516-0.6796,4.328,1.172,5.5312
		c0.6736,0.4376,1.4296,0.6484,2.1776,0.6484c1.3088,0,2.59-0.6404,3.3576-1.82c3.3536-5.1524,6.1308-9.9492,8.254-14.25
		c0.9764-1.9808,0.164-4.3792-1.8184-5.3556C187.4864,45.25,185.0936,46.0664,184.1152,48.0508z"/>
	<path d="M139.3752,117.2892c1.0584,0,2.1152-0.418,2.902-1.2464c3.7952-4.0036,7.4376-7.9724,10.9144-11.8864
		c1.4648-1.6524,1.3164-4.18-0.336-5.6484c-1.6544-1.4652-4.1836-1.3164-5.6484,0.3356c-3.418,3.8516-7.002,7.758-10.7344,11.6916
		c-1.5196,1.6056-1.4532,4.1368,0.1504,5.6564C137.3964,116.9256,138.3868,117.2892,139.3752,117.2892z"/>
	<path d="M142.7968,50.2188c-1.3516-1.746-3.8652-2.0624-5.6092-0.7228c-4.0996,3.164-8.332,6.586-12.582,10.168
		c-1.6896,1.426-1.9044,3.9492-0.4804,5.6368c0.7908,0.9376,1.9216,1.422,3.0604,1.422c0.91,0,1.826-0.3088,2.576-0.9416
		c4.1624-3.5076,8.3048-6.8556,12.3128-9.9492C143.8244,54.4804,144.1464,51.9688,142.7968,50.2188z"/>
	<path d="M125.3652,121.8828c-3.836,3.8008-7.662,7.4728-11.4552,11.004c-1.6152,1.504-1.7068,4.0352-0.2012,5.6524
		c0.7872,0.8436,1.8576,1.2732,2.928,1.2732c0.9764,0,1.9548-0.3552,2.7264-1.074c3.8516-3.586,7.7364-7.3128,11.6308-11.168
		c1.5704-1.5548,1.582-4.09,0.0276-5.6604C129.4708,120.3436,126.9356,120.336,125.3652,121.8828z"/>
	<path d="M179.8184,24.6056c-2.1408,0.5428-3.4376,2.7188-2.8944,4.8592c0.5408,2.1408,2.7068,3.4376,4.8592,2.8984
		c2.9864-0.7576,5.42-0.7108,6.1112-0.0272c0.3596,0.3632,0.5568,1.16,0.5568,2.332c0,2.2108,1.7908,3.9608,4,3.9608
		c2.2088,0,4-1.832,4-4.0428c0-3.3164-0.9748-5.9768-2.9004-7.9064C190.6268,23.7616,186.0252,23.0428,179.8184,24.6056z"/>
	<path d="M86,120c18.748,0,34-15.254,34-34c0-18.746-15.252-34-34-34S52,67.254,52,86C52,104.746,67.252,120,86,120z M86,60
		c14.336,0,26,11.664,26,26s-11.664,26-26,26s-26-11.664-26-26S71.664,60,86,60z"/>
	<path d="M44,22C44,9.8712,34.1308,0,22,0C9.8692,0,0,9.8712,0,22c0,12.1288,9.8692,22,22,22C34.1308,44,44,34.1288,44,22z M8,22
		c0-7.7188,6.2812-14,14-14c7.7188,0,14,6.2812,14,14c0,7.7188-6.2812,14-14,14C14.2812,36,8,29.7188,8,22z"/>
</g>
</svg>
