<?xml version="1.0" encoding="utf-8"?>
<!-- Generator: Adobe Illustrator 19.2.0, SVG Export Plug-In . SVG Version: 6.00 Build 0)  -->
<svg version="1.1" id="plantflask" xmlns="http://www.w3.org/2000/svg" xmlns:xlink="http://www.w3.org/1999/xlink" x="0px" y="0px"
	 viewBox="0 0 115.551 227.4289" enable-background="new 0 0 115.551 227.4289" xml:space="preserve">
<g>
	<path fill="none" d="M24,143.4289h12v8H24v12h12v8H24v26.0196c0,12.1212,9.8692,21.9804,22,21.9804c12.1308,0,22-9.8592,22-21.9804
		v-66.0196H24V143.4289z"/>
	<rect x="24" y="107.4289" fill="none" width="44" height="16"/>
	<path fill="none" d="M65.3104,23.3897h0.002c1.4532,0.8476,3.2444,0.2736,4.1816-0.1444c2.0196-0.8944,3.9376-2.7264,5.26-5.0196
		c1.5196-2.6288,0.41-7.0232-0.7148-9.9532c-3.096,0.4924-7.4572,1.7268-8.9768,4.3596c-1.324,2.2928-1.9512,4.8672-1.7188,7.0624
		C63.4512,20.7141,63.8496,22.5461,65.3104,23.3897z"/>
	<path fill="none" d="M41.3944,57.5889c-4.9824-4.8124-15.0488-4.2692-20.6796-3.2968c-0.7676,5.672-0.9492,15.7696,4.01,20.5588
		c7.0172,6.7812,16.7692,8.5508,21.2832,3.8748c0.0032-0.0036,0.0056-0.0088,0.0088-0.0124c0.44-3.516,0.9708-7.2676,1.608-11.132
		C46.5648,64.0253,44.4476,60.5369,41.3944,57.5889z"/>
	<path fill="none" d="M77.9904,43.0501c-6.924,1.8552-12.8712,5.5156-16.7484,10.3084c-3.576,4.418-4.904,9.254-3.736,13.6096
		c1.168,4.3552,4.7344,7.8788,10.0408,9.918c5.754,2.2148,12.7268,2.41,19.6564,0.5544
		c10.9296-2.9296,17.4844-17.8164,19.6836-23.7032c-4.2228-3.484-14.7268-11.234-24.59-11.234
		C80.84,42.5033,79.3984,42.6749,77.9904,43.0501z"/>
	<path d="M114.2988,49.5813c-0.828-0.7852-20.4412-19.0744-38.3788-14.258c-5.144,1.378-9.8672,3.6124-13.8984,6.492
		c1.0732-3.0824,2.2512-5.9872,3.5564-8.5972c0.2472-0.4944,0.3824-1.0156,0.4156-1.5344c0.3532,0.0312,0.69,0.132,1.0492,0.132
		c1.8712,0,3.8108-0.418,5.7012-1.258c3.582-1.5936,6.756-4.5508,8.9396-8.332c4.6248-8.0116-1.004-18.91-1.66-20.1248
		c-0.7188-1.3284-2.0996-2.1604-3.6328-2.0976c-1.3812,0.0388-13.6312,0.6132-18.256,8.6288
		c-2.1836,3.7772-3.1584,8.004-2.746,11.9024c0.3472,3.2872,1.6972,6.1284,3.782,8.1456c-0.28,0.288-0.5596,0.5812-0.7488,0.9596
		c-3.6316,7.2628-6.364,16.352-8.4216,25.5936c-0.9348-1.1812-1.938-2.3284-3.0492-3.402
		c-10.2264-9.8712-29.8768-4.9804-30.7092-4.7696c-1.4628,0.3752-2.5916,1.5428-2.914,3.0156
		c-0.1856,0.84-4.3904,20.6484,5.838,30.5312c5.92,5.7148,13.258,8.6916,19.8868,8.6916c2.0684,0,4.038-0.3584,5.9036-0.946
		c-0.4756,5.0032-0.734,8.91-0.8576,11.0748H20H0v8h16v20v16v8v12v8v26.0196c0,16.5312,13.4572,29.9804,30,29.9804
		c16.5428,0,30-13.4492,30-29.9804v-70.0196v-20h16v-8H72H52.1176c0.1992-3.2164,0.674-9.7352,1.6216-17.71
		c0.648-1.0204,1.182-2.108,1.5936-3.2616c2.4796,2.4536,5.6184,4.4644,9.3448,5.8972c4.0528,1.5588,8.5412,2.344,13.1916,2.344
		c3.744,0,7.5936-0.508,11.4044-1.5312c17.9452-4.8088,25.7848-30.4456,26.1092-31.5352
		C115.8164,52.1829,115.3964,50.6165,114.2988,49.5813z M68,197.4485c0,12.1212-9.8692,21.9804-22,21.9804
		c-12.1308,0-22-9.8592-22-21.9804v-26.0196h12v-8H24v-12h12v-8H24v-12h44V197.4485z M68,123.4289H24v-16h44V123.4289z
		 M65.0624,12.6321c1.5196-2.6328,5.8808-3.8672,8.9768-4.3596c1.1248,2.93,2.2344,7.3244,0.7148,9.9532
		c-1.3224,2.2932-3.2404,4.1252-5.26,5.0196c-0.9372,0.418-2.7284,0.992-4.1816,0.1444h-0.002
		c-1.4608-0.8436-1.8592-2.6756-1.9668-3.6952C63.1112,17.4993,63.7384,14.9249,65.0624,12.6321z M46.008,78.7257
		c-4.514,4.676-14.266,2.9064-21.2832-3.8748c-4.9592-4.7892-4.7776-14.8868-4.01-20.5588
		c5.6308-0.9724,15.6972-1.5156,20.6796,3.2968c3.0532,2.948,5.1704,6.4364,6.2304,9.9924c-0.6372,3.8644-1.168,7.616-1.608,11.132
		C46.0136,78.7169,46.0112,78.7221,46.008,78.7257z M87.2032,77.4405c-6.9296,1.8556-13.9024,1.6604-19.6564-0.5544
		c-5.3064-2.0392-8.8728-5.5628-10.0408-9.918c-1.168-4.3556,0.16-9.1916,3.736-13.6096
		c3.8772-4.7928,9.8244-8.4532,16.7484-10.3084c1.408-0.3752,2.8496-0.5468,4.3064-0.5468c9.8632,0,20.3672,7.75,24.59,11.234
		C104.6876,59.6241,98.1328,74.5109,87.2032,77.4405z"/>
</g>
</svg>
