<?xml version="1.0" encoding="utf-8"?>
<!-- Generator: Adobe Illustrator 19.2.0, SVG Export Plug-In . SVG Version: 6.00 Build 0)  -->
<svg version="1.1" id="planetarysystem" xmlns="http://www.w3.org/2000/svg" xmlns:xlink="http://www.w3.org/1999/xlink" x="0px"
	 y="0px" viewBox="0 0 212.0002 212.0001" enable-background="new 0 0 212.0002 212.0001" xml:space="preserve">
<g>
	<path fill="none" d="M161.7501,101.8233c-0.5844,0.0572-1.1508,0.1768-1.75,0.1768c-9.9256,0-18-8.0744-18-18
		c0-5.6904,2.706-10.712,6.8412-14.0128c-10.6836-12.6944-26.2412-19.9872-42.8412-19.9872c-30.8788,0-56,25.1212-56,56
		s25.1212,56,56,56s56-25.1212,56-56C162.0001,104.2697,161.9125,103.1017,161.7501,101.8233z M106.0001,138.0001
		c-17.6444,0-32-14.3556-32-32s14.3556-32,32-32s32,14.3556,32,32S123.6445,138.0001,106.0001,138.0001z"/>
	<path fill="none" d="M106.0001,82.0001c-13.2344,0-24,10.7656-24,24s10.7656,24,24,24s24-10.7656,24-24
		S119.2345,82.0001,106.0001,82.0001z"/>
	<path fill="none" d="M150.0001,84.0001c0,5.5136,4.4864,10,10,10c5.5136,0,10-4.4864,10-10c0-5.5136-4.4864-10-10-10
		C154.4865,74.0001,150.0001,78.4865,150.0001,84.0001z"/>
	<path fill="none" d="M158.0001,162.0001c6.0672,0,11.5988,2.2808,15.8288,6.0064c15.558-16.9952,24.1712-38.844,24.1712-62.0064
		c0-50.7284-41.2716-92-92-92s-92,41.2716-92,92s41.2716,92,92,92c10.41,0,19.9596-1.6212,29.124-4.7528
		c-0.7264-2.2884-1.124-4.7212-1.124-7.2472C134.0001,172.7657,144.7657,162.0001,158.0001,162.0001z M42.0001,106.0001
		c0-35.2892,28.7108-64,64-64c19.2404,0,37.2832,8.5412,49.5,23.4316c0.2592,0.3156,0.4028,0.6776,0.5504,1.036
		c1.2752-0.2868,2.5892-0.4676,3.9496-0.4676c9.9256,0,18,8.0744,18,18c0,6.4424-3.43,12.0616-8.532,15.242
		c0.3404,2.2444,0.532,3.9688,0.532,6.758c0,35.2892-28.7108,64-64,64S42.0001,141.2893,42.0001,106.0001z"/>
	<path fill="none" d="M158.0001,170.0001c-8.8224,0-16,7.1776-16,16c0,8.8224,7.1776,16,16,16c8.8224,0,16-7.1776,16-16
		C174.0001,177.1777,166.8225,170.0001,158.0001,170.0001z"/>
	<path d="M106.0001,6.0001c-55.1408,0-100,44.8592-100,100s44.8592,100,100,100c11.7424,0,22.508-1.8876,32.8616-5.578
		c4.3844,5.8036,11.32,9.578,19.1384,9.578c13.2344,0,24-10.7656,24-24c0-4.2304-1.1096-8.202-3.0384-11.6572
		c17.4384-18.5948,27.0384-42.7568,27.0384-68.3428C206.0001,50.8593,161.1409,6.0001,106.0001,6.0001z M106.0001,198.0001
		c-50.7284,0-92-41.2716-92-92s41.2716-92,92-92s92,41.2716,92,92c0,23.1624-8.6132,45.0112-24.1712,62.0064
		c-4.23-3.7256-9.7616-6.0064-15.8288-6.0064c-13.2344,0-24,10.7656-24,24c0,2.526,0.3976,4.9588,1.124,7.2472
		C125.9597,196.3789,116.4101,198.0001,106.0001,198.0001z M158.0001,202.0001c-8.8224,0-16-7.1776-16-16c0-8.8224,7.1776-16,16-16
		c8.8224,0,16,7.1776,16,16C174.0001,194.8225,166.8225,202.0001,158.0001,202.0001z"/>
	<path d="M170.0001,106.0001c0-2.7892-0.1916-4.5136-0.532-6.758c5.102-3.1804,8.532-8.7996,8.532-15.242c0-9.9256-8.0744-18-18-18
		c-1.3604,0-2.6744,0.1808-3.9496,0.4676c-0.1476-0.3584-0.2912-0.7204-0.5504-1.036c-12.2168-14.8904-30.2596-23.4316-49.5-23.4316
		c-35.2892,0-64,28.7108-64,64s28.7108,64,64,64S170.0001,141.2893,170.0001,106.0001z M170.0001,84.0001c0,5.5136-4.4864,10-10,10
		c-5.5136,0-10-4.4864-10-10c0-5.5136,4.4864-10,10-10C165.5137,74.0001,170.0001,78.4865,170.0001,84.0001z M106.0001,162.0001
		c-30.8788,0-56-25.1212-56-56s25.1212-56,56-56c16.6,0,32.1576,7.2928,42.8412,19.9872
		c-4.1352,3.3008-6.8412,8.3224-6.8412,14.0128c0,9.9256,8.0744,18,18,18c0.5992,0,1.1656-0.1196,1.75-0.1768
		c0.1624,1.2784,0.25,2.4464,0.25,4.1768C162.0001,136.8789,136.8789,162.0001,106.0001,162.0001z"/>
	<path d="M106.0001,74.0001c-17.6444,0-32,14.3556-32,32s14.3556,32,32,32s32-14.3556,32-32S123.6445,74.0001,106.0001,74.0001z
		 M106.0001,130.0001c-13.2344,0-24-10.7656-24-24s10.7656-24,24-24s24,10.7656,24,24S119.2345,130.0001,106.0001,130.0001z"/>
	<path d="M210.8281,1.1721c-1.5624-1.5628-4.0936-1.5628-5.656,0l-24,24c-1.5628,1.5624-1.5628,4.0936,0,5.656
		c0.7812,0.7812,1.8044,1.172,2.828,1.172c1.0236,0,2.0468-0.3908,2.828-1.172l24-24
		C212.3909,5.2657,212.3909,2.7345,210.8281,1.1721z"/>
	<path d="M25.1721,181.1721l-24,24c-1.5628,1.5624-1.5628,4.0936,0,5.656c0.7812,0.7812,1.8044,1.172,2.828,1.172
		s2.0468-0.3908,2.828-1.172l24-24c1.5628-1.5624,1.5628-4.0936,0-5.656C29.2657,179.6093,26.7345,179.6093,25.1721,181.1721z"/>
</g>
</svg>
