<?xml version="1.0" encoding="utf-8"?>
<!-- Generator: Adobe Illustrator 19.2.0, SVG Export Plug-In . SVG Version: 6.00 Build 0)  -->
<svg version="1.1" id="radiationcontainer" xmlns="http://www.w3.org/2000/svg" xmlns:xlink="http://www.w3.org/1999/xlink" x="0px"
	 y="0px" viewBox="0 0 224 188" enable-background="new 0 0 224 188" xml:space="preserve">
<g>
	<rect x="44" y="28" fill="none" width="24" height="8"/>
	<rect x="160" y="168" fill="none" width="20" height="12"/>
	<rect x="88" y="8" fill="none" width="48" height="20"/>
	<rect x="44" y="168" fill="none" width="20" height="12"/>
	<rect x="156" y="28" fill="none" width="24" height="8"/>
	<path fill="none" d="M204.008,36H188v8h-40v-8h-4H80h-4v8H36v-8H19.992C13.3788,36,8,40.9689,8,47.0781v101.844
		C8,155.0312,13.3692,160,19.9708,160H36h36h80h36h16.0292C210.6308,160,216,155.0312,216,148.9221V47.0781
		C216,40.9689,210.6212,36,204.008,36z M112,136c-17.6444,0-32-14.3555-32-32c0-17.6443,14.3556-32,32-32s32,14.3557,32,32
		C144,121.6445,129.6444,136,112,136z"/>
	<path fill="none" d="M112,80c-13.2344,0-24,10.7657-24,24c0,13.2345,10.7656,24,24,24s24-10.7655,24-24
		C136,90.7657,125.2344,80,112,80z M121.4648,114.4649l-9.7948-5.6544l-9.7948,5.6544l-4-6.9296L108,101.6901V92h8v10.0713
		l9.4648,5.464L121.4648,114.4649z"/>
	<path d="M204.008,28H188v-8h-40v8h-4V0H80v28h-4v-8H36v8H19.992C8.9688,28,0,36.5585,0,47.0781v101.844
		C0,159.4417,8.9588,168,19.9708,168H36v20h36v-20h80v20h36v-20h16.0292C215.0412,168,224,159.4417,224,148.9221V47.0781
		C224,36.5585,215.0312,28,204.008,28z M180,28v8h-24v-8H180z M88,8h48v20H88V8z M44,28h24v8H44V28z M64,180H44v-12h20V180z
		 M180,180h-20v-12h20V180z M216,148.9221C216,155.0312,210.6308,160,204.0292,160H188h-36H72H36H19.9708
		C13.3692,160,8,155.0312,8,148.9221V47.0781C8,40.9689,13.3788,36,19.992,36H36v8h40v-8h4h64h4v8h40v-8h16.008
		C210.6212,36,216,40.9689,216,47.0781V148.9221z"/>
	<path d="M112,72c-17.6444,0-32,14.3557-32,32c0,17.6445,14.3556,32,32,32s32-14.3555,32-32C144,86.3557,129.6444,72,112,72z
		 M112,128c-13.2344,0-24-10.7655-24-24c0-13.2343,10.7656-24,24-24s24,10.7657,24,24C136,117.2345,125.2344,128,112,128z"/>
	<polygon points="116,92 108,92 108,101.6901 97.8752,107.5353 101.8752,114.4649 111.67,108.8105 121.4648,114.4649 
		125.4648,107.5353 116,102.0713 	"/>
</g>
</svg>
