<?xml version="1.0" encoding="utf-8"?>
<!-- Generator: Adobe Illustrator 19.2.0, SVG Export Plug-In . SVG Version: 6.00 Build 0)  -->
<svg version="1.1" id="raygun" xmlns="http://www.w3.org/2000/svg" xmlns:xlink="http://www.w3.org/1999/xlink" x="0px" y="0px"
	 viewBox="0 0 224.0005 180" enable-background="new 0 0 224.0005 180" xml:space="preserve">
<g>
	<path fill="none" d="M184.0005,64.6836c-1.4772,2.3956-3.4785,9.0604-3.9077,19.3164h7.8152
		C187.4789,73.744,185.4777,67.0792,184.0005,64.6836z"/>
	<path fill="none" d="M47.3273,130.2584L24.7153,172h33.6484l3.396-35.6644C56.7329,134.7144,51.9077,132.6412,47.3273,130.2584z"/>
	<path fill="none" d="M68.0241,24h36.0116c4.3924,0,7.9648-3.59,7.9648-8c0-4.41-3.5724-8-7.9648-8H31.9653
		c-4.3924,0-7.9648,3.59-7.9648,8c0,4.41,3.5724,8,7.9648,8h28.0996"/>
	<circle fill="none" cx="212.0005" cy="88" r="4"/>
	<path fill="none" d="M184.0005,111.3164c1.4771-2.3956,3.4783-9.0604,3.9075-19.3164h-7.8152
		C180.5221,102.256,182.5233,108.9208,184.0005,111.3164z"/>
	<path fill="none" d="M84.0005,44C47.8657,44,16.9457,78.496,9.1157,87.996C16.9537,97.496,47.9225,132,84.0005,132
		c36.1348,0,67.0548-34.496,74.8848-43.996C151.0473,78.504,120.0785,44,84.0005,44z M116.9849,81.4728l-28,16
		c-1.2404,0.7028-2.7596,0.6992-3.9924-0.012c-1.2324-0.7188-1.992-2.0352-1.992-3.4608v-8.6484l-27.826,18.0076
		c-0.672,0.4336-1.426,0.6408-2.17,0.6408c-1.3124,0-2.5956-0.6444-3.3616-1.828c-1.2008-1.8556-0.6696-4.3284,1.1836-5.5312l34-22
		c1.2324-0.7932,2.7972-0.8556,4.086-0.1564c1.2872,0.7032,2.088,2.0508,2.088,3.5156v9.1056l22.0156-12.5784
		c1.918-1.1016,4.3632-0.4296,5.4572,1.4884C119.5689,77.9336,118.9029,80.3748,116.9849,81.4728z"/>
	<path d="M113.0161,74.5272L91.0005,87.1056V78c0-1.4648-0.8008-2.8124-2.088-3.5156c-1.2888-0.6992-2.8536-0.6368-4.086,0.1564
		l-34,22c-1.8532,1.2028-2.3844,3.6756-1.1836,5.5312c0.766,1.1836,2.0492,1.828,3.3616,1.828c0.744,0,1.498-0.2072,2.17-0.6408
		l27.826-18.0076V94c0,1.4256,0.7596,2.742,1.992,3.4608c1.2327,0.7112,2.752,0.7148,3.9924,0.012l28-16
		c1.918-1.098,2.584-3.5392,1.4884-5.4572C117.3793,74.0976,114.9341,73.4256,113.0161,74.5272z"/>
	<path d="M212.0005,76c-5.2077,0-9.6065,3.354-11.2628,8h-4.8388c-0.3972-8.7856-2.3548-28-11.8983-28
		c-9.5437,0-11.5013,19.2144-11.8985,28h-6.144c-6.8672-8.6456-40.4232-48-81.9576-48c-4.9488,0-9.776,0.586-14.4668,1.5856
		L68.9129,32h35.1228c8.8028,0,15.9648-7.1756,15.9648-16c0-8.8244-7.162-16-15.9648-16H31.9653
		c-8.8028,0-15.9648,7.1756-15.9648,16c0,8.8244,7.162,16,15.9648,16h28.9004l0.8532,7.6776
		C27.1125,50.8588,2.0489,83.926,0.7953,85.6092c-1.0604,1.418-1.0604,3.3636,0,4.7816c0.9772,1.312,16.4236,21.6936,39.57,35.92
		l-25.8824,47.7828c-0.672,1.2424-0.6408,2.7424,0.08,3.9532C15.2857,179.258,16.5905,180,18.0005,180h44
		c2.0624,0,3.7872-1.5664,3.9824-3.6212l3.1416-32.9876l11.7176,15.066C81.6313,159.4688,82.8109,160,84.0025,160
		c0.8592,0,1.7244-0.2736,2.4532-0.8436c1.744-1.3556,2.0584-3.8672,0.7032-5.6136L76.2613,139.532
		c2.5464,0.2944,5.1248,0.468,7.7392,0.468c41.5344,0,75.0904-39.3544,81.9576-48h6.144c0.3972,8.7856,2.3548,28,11.8985,28
		c9.5435,0,11.5011-19.2144,11.8983-28h4.8388c1.6564,4.646,6.0552,8,11.2628,8c6.6171,0,12-5.3828,12-12
		C224.0005,81.3828,218.6177,76,212.0005,76z M60.0649,24H31.9653c-4.3924,0-7.9648-3.59-7.9648-8c0-4.41,3.5724-8,7.9648-8h72.0704
		c4.3924,0,7.9648,3.59,7.9648,8c0,4.41-3.5724,8-7.9648,8H68.0241H60.0649z M184.0005,64.6836
		c1.4771,2.3956,3.4783,9.0604,3.9075,19.3164h-7.8152C180.5221,73.744,182.5233,67.0792,184.0005,64.6836z M24.7153,172
		l22.612-41.7416c4.5804,2.3828,9.4056,4.456,14.4324,6.0772L58.3637,172H24.7153z M84.0005,132
		c-36.078,0-67.0468-34.504-74.8848-44.004c7.83-9.5,38.75-43.996,74.8848-43.996c36.078,0,67.0468,34.504,74.8848,44.004
		C151.0553,97.504,120.1353,132,84.0005,132z M184.0005,111.3164c-1.4772-2.3956-3.4785-9.0604-3.9077-19.3164h7.8152
		C187.4789,102.256,185.4777,108.9208,184.0005,111.3164z M212.0005,92c-2.2053,0-4-1.7928-4-4c0-2.2072,1.7947-4,4-4
		c2.2051,0,4,1.7928,4,4C216.0005,90.2072,214.2057,92,212.0005,92z"/>
</g>
</svg>
