<?xml version="1.0" encoding="utf-8"?>
<!-- Generator: Adobe Illustrator 19.2.0, SVG Export Plug-In . SVG Version: 6.00 Build 0)  -->
<svg version="1.1" id="robot" xmlns="http://www.w3.org/2000/svg" xmlns:xlink="http://www.w3.org/1999/xlink" x="0px" y="0px"
	 viewBox="0 0 164 230" enable-background="new 0 0 164 230" xml:space="preserve">
<g>
	<rect x="104" y="148" fill="none" width="8" height="20"/>
	<rect x="52" y="148" fill="none" width="8" height="20"/>
	<path fill="none" d="M124,16c0-4.412-3.5901-8-8-8c-4.4101,0-8,3.588-8,8s3.5899,8,8,8C120.4099,24,124,20.412,124,16z"/>
	<rect x="68" y="148" fill="none" width="28" height="20"/>
	<path fill="none" d="M140.004,60H23.996C15.1755,60,8,67.1756,8,75.994v96.012C8,180.8244,15.1755,188,23.996,188h116.008
		c8.8203,0,15.996-7.1756,15.996-15.994V75.994C156,67.1756,148.8243,60,140.004,60z M120,172c0,2.2088-1.7893,4-4,4H48
		c-2.2109,0-4-1.7912-4-4v-28c0-2.2088,1.7891-4,4-4h68c2.2107,0,4,1.7912,4,4V172z M48,112v-8h24v8H48z M92,112v-8h24v8H92z
		 M138,96H26v-8h112V96z"/>
	<path d="M140.004,52H120V31.432c6.8819-1.7884,12-7.9984,12-15.432c0-8.8224-7.1757-16-16-16c-8.8245,0-16,7.1776-16,16
		c0,7.4336,5.1179,13.6436,12,15.432V52H23.996C10.7655,52,0,62.7636,0,75.994v96.012C0,185.2364,10.7655,196,23.996,196H64v34h8
		v-34h20v34h8v-34h40.004C153.2343,196,164,185.2364,164,172.006V75.994C164,62.7636,153.2343,52,140.004,52z M108,16
		c0-4.412,3.5899-8,8-8c4.4099,0,8,3.588,8,8s-3.5901,8-8,8C111.5899,24,108,20.412,108,16z M156,172.006
		c0,8.8184-7.1757,15.994-15.996,15.994H23.996C15.1755,188,8,180.8244,8,172.006V75.994C8,67.1756,15.1755,60,23.996,60h116.008
		C148.8243,60,156,67.1756,156,75.994V172.006z"/>
	<path d="M116,140H48c-2.2109,0-4,1.7912-4,4v28c0,2.2088,1.7891,4,4,4h68c2.2107,0,4-1.7912,4-4v-28
		C120,141.7912,118.2107,140,116,140z M96,148v20H68v-20H96z M52,148h8v20h-8V148z M112,168h-8v-20h8V168z"/>
	<rect x="26" y="88" width="112" height="8"/>
	<rect x="48" y="104" width="24" height="8"/>
	<rect x="92" y="104" width="24" height="8"/>
</g>
</svg>
