<?xml version="1.0" encoding="utf-8"?>
<!-- Generator: Adobe Illustrator 19.2.0, SVG Export Plug-In . SVG Version: 6.00 Build 0)  -->
<svg version="1.1" id="rocketship" xmlns="http://www.w3.org/2000/svg" xmlns:xlink="http://www.w3.org/1999/xlink" x="0px" y="0px"
	 viewBox="0 0 193.4331 220" enable-background="new 0 0 193.4331 220" xml:space="preserve">
<g>
	<polygon fill="none" points="66.3434,122.5604 14.6074,168.0468 66.7166,168.0468 66.7166,149.2104 	"/>
	<path fill="none" d="M106.7126,33.6916c-0.164-5.3712-4.586-9.6916-9.996-9.6916c-5.41,0-9.832,4.3204-9.996,9.6916
		c0.8536,0.7848,4.416,2.1072,9.996,2.1072C102.2966,35.7988,105.859,34.4764,106.7126,33.6916z"/>
	<path fill="none" d="M75.037,171.9904c0.0068,0.5544-0.11,1.0936-0.3204,1.5956V184h44v-10.414
		c-0.2104-0.502-0.3272-1.0412-0.3204-1.5956l0.3204-22.8988V29.9728c0-12.1152-9.8692-21.9728-22-21.9728
		c-12.1309,0-22,9.8576-22,21.9728v119.1188L75.037,171.9904z M96.7166,16c9.9256,0,18,8.0744,18,18
		c0,6.0448-6.8964,9.7988-18,9.7988c-4.1268,0-8.0372-0.6016-11.008-1.6952c-6.0836-2.2404-6.992-6.0392-6.992-8.1036
		C78.7166,24.0744,86.791,16,96.7166,16z"/>
	<polygon fill="none" points="113.1894,212 128.2438,212 120.7166,196.9432 	"/>
	<polygon fill="none" points="65.1894,212 80.2438,212 72.7166,196.9432 	"/>
	<polygon fill="none" points="126.7166,149.2104 126.7166,168.0468 178.8258,168.0468 127.0898,122.5604 	"/>
	<path d="M192.0742,169.0428l-65.3576-57.4616V29.9728c0-16.5276-13.4573-29.9728-30-29.9728c-16.5428,0-30,13.4452-30,29.9728
		v81.6084L1.359,169.0428c-1.25,1.0996-1.6892,2.8576-1.1012,4.416c0.5856,1.5568,2.078,2.588,3.742,2.588h62.7168V188
		c0,0.7128,0.2372,1.3476,0.564,1.9268l-12.142,24.284c-0.6192,1.2404-0.5528,2.7132,0.1756,3.8928
		C56.0426,219.2812,57.3298,220,58.7166,220h28c1.3867,0,2.674-0.7188,3.4024-1.8964c0.7284-1.1796,0.7948-2.6524,0.1756-3.8928
		L79.1894,192h35.0544l-11.1052,22.2108c-0.6192,1.2404-0.5528,2.7132,0.1756,3.8928c0.7284,1.1776,2.0156,1.8964,3.4025,1.8964h28
		c1.3868,0,2.674-0.7188,3.4024-1.8964c0.7284-1.1796,0.7948-2.6524,0.1756-3.8928l-12.142-24.284
		c0.3268-0.5792,0.564-1.214,0.564-1.9268v-11.9532h62.7167c1.664,0,3.1564-1.0312,3.742-2.588
		C193.7634,171.9004,193.3242,170.1424,192.0742,169.0428z M96.7166,8c12.1308,0,22,9.8576,22,21.9728v119.1188l-0.3204,22.8988
		c-0.0068,0.5544,0.11,1.0936,0.3204,1.5956V184h-44v-10.414c0.2104-0.502,0.3271-1.0412,0.3204-1.5956l-0.3204-22.8988V29.9728
		C74.7166,17.8576,84.5858,8,96.7166,8z M14.6074,168.0468l51.736-45.4864l0.3732,26.65v18.8364H14.6074z M65.1894,212
		l7.5272-15.0568L80.2438,212H65.1894z M113.1894,212l7.5273-15.0568L128.2438,212H113.1894z M126.7166,168.0468v-18.8364
		l0.3732-26.65l51.736,45.4864H126.7166z"/>
	<path d="M85.7086,42.1036c2.9708,1.0936,6.8812,1.6952,11.008,1.6952c11.1036,0,18-3.754,18-9.7988c0-9.9256-8.0744-18-18-18
		c-9.9257,0-18,8.0744-18,18C78.7166,36.0644,79.625,39.8632,85.7086,42.1036z M96.7166,24c5.41,0,9.832,4.3204,9.996,9.6916
		c-0.8536,0.7848-4.416,2.1072-9.996,2.1072c-5.58,0-9.1424-1.3224-9.996-2.1072C86.8846,28.3204,91.3066,24,96.7166,24z"/>
</g>
</svg>
