<?xml version="1.0" encoding="utf-8"?>
<!-- Generator: Adobe Illustrator 19.2.0, SVG Export Plug-In . SVG Version: 6.00 Build 0)  -->
<svg version="1.1" id="satellite" xmlns="http://www.w3.org/2000/svg" xmlns:xlink="http://www.w3.org/1999/xlink" x="0px" y="0px"
	 viewBox="0 0 229.0178 229.0194" enable-background="new 0 0 229.0178 229.0194" xml:space="preserve">
<g>
	<polygon fill="none" points="120.3672,136.9354 92.0824,108.6502 77.9396,122.793 89.254,134.1074 94.9104,139.7634 
		106.2248,151.0782 	"/>
	
		<rect x="29.7559" y="26.1834" transform="matrix(0.7071 -0.7071 0.7071 0.7071 -18.1838 40.466)" fill="none" width="20.0016" height="32.0004"/>
	
		<rect x="50.7272" y="9.2127" transform="matrix(0.7071 -0.7071 0.7071 0.7071 -1.2129 47.4968)" fill="none" width="12.0002" height="31.9997"/>
	
		<rect x="79.0106" y="37.4963" transform="matrix(0.7071 -0.7071 0.7071 0.7071 -12.9284 75.7832)" fill="none" width="12.0012" height="32.0015"/>
	<path fill="none" d="M134.51,122.793l33.9432-33.9436c7.7968-7.7948,7.7952-20.4825-0.002-28.2812
		c-3.7752-3.7752-8.9744-5.7792-14.1484-5.8516c-5.3436,0-10.3612,2.0764-14.1328,5.8476l-33.9452,33.9456L134.51,122.793z"/>
	
		<rect x="58.0402" y="54.4673" transform="matrix(0.7071 -0.7071 0.7071 0.7071 -29.8996 68.7507)" fill="none" width="20.001" height="32.0011"/>
	
		<rect x="176.8348" y="173.26" transform="matrix(0.7071 -0.7071 0.7071 0.7071 -79.1048 187.5502)" fill="none" width="20.0007" height="32.0014"/>
	
		<rect x="148.5495" y="144.9758" transform="matrix(0.7071 -0.7071 0.7071 0.7071 -67.3892 159.2633)" fill="none" width="20.0017" height="32.0012"/>
	
		<rect x="197.8052" y="156.2905" transform="matrix(0.7071 -0.7071 0.7071 0.7071 -62.1345 194.5753)" fill="none" width="12.0001" height="31.9999"/>
	
		<rect x="169.5211" y="128.0051" transform="matrix(0.7071 -0.7071 0.7071 0.7071 -50.42 166.2787)" fill="none" width="12" height="32.0021"/>
	<path d="M69.4552,97.3378c0.7812,0.7811,1.8048,1.172,2.828,1.172c1.0236,0,2.0472-0.3909,2.8284-1.172l16.9708-16.9709
		l5.656-5.656l11.3144-11.3147c1.5628-1.5624,1.5628-4.0936,0-5.656L83.596,32.2829l-5.6564-5.656L52.4844,1.1718
		c-1.5624-1.5624-4.0936-1.5624-5.656,0L35.5148,12.4854l-0.0008-0.0012l-5.6564,5.6564l0.0008,0.0008L12.8868,35.113
		c-1.5624,1.5628-1.5624,4.0939,0,5.6564L69.4552,97.3378z M72.2832,88.8534l-22.6276-22.628L63.798,52.0818l22.628,22.6291
		L72.2832,88.8534z M100.5684,60.5682l-8.486,8.4864L69.454,46.4258l8.486-8.486L100.5684,60.5682z M49.6564,9.6562l22.6272,22.6272
		L63.798,40.769L41.1712,18.1414L49.6564,9.6562z M35.5148,23.7978l22.6268,22.628L43.9992,60.5694l-22.628-22.628L35.5148,23.7978z
		"/>
	<path d="M227.846,176.533l-56.5684-56.5684c-1.5624-1.5624-4.094-1.5624-5.6564,0L131.68,153.9062
		c-0.75,0.75-1.172,1.7676-1.172,2.828c0,1.0607,0.422,2.0784,1.172,2.8284l56.57,56.568c0.75,0.75,1.7676,1.172,2.8284,1.172
		c1.0604,0,2.078-0.422,2.828-1.172l16.9704-16.9712l0.0004,0.0008l5.656-5.6564l-0.0004-0.0009l11.3132-11.3135
		C229.4084,180.6269,229.4084,178.0958,227.846,176.533z M168.4492,128.449l22.6292,22.6292l-8.4856,8.4847l-22.6288-22.6283
		L168.4492,128.449z M154.3076,142.5906l22.6288,22.6283l-14.1436,14.1429l-22.6284-22.6276L154.3076,142.5906z M191.0784,207.6462
		l-22.6292-22.6284l14.1432-14.1424l22.628,22.628L191.0784,207.6462z M210.8764,187.8469l-22.6276-22.6275l8.4856-8.4852
		l22.6272,22.6272L210.8764,187.8469z"/>
	<path d="M134.51,134.1054l39.5996-39.5996c10.916-10.912,10.916-28.676-0.002-39.5936
		c-5.2812-5.2816-12.3084-8.1916-19.7892-8.1956c-0.0056,0-0.0096,0-0.0156,0c-7.4804,0-14.5076,2.9084-19.7888,8.1916
		L94.9124,94.5098L134.51,134.1054z M140.17,60.5642c3.7716-3.7712,8.7892-5.8476,14.1328-5.8476
		c5.174,0.0724,10.3732,2.0764,14.1484,5.8516c7.7972,7.7987,7.7988,20.4864,0.002,28.2812L134.51,122.793l-28.2852-28.2832
		L140.17,60.5642z"/>
	<path d="M131.68,136.9354L92.0824,97.3378L66.6272,122.793l16.9708,16.9708l-31.1328,31.1344l5.656,5.6564l31.1332-31.1344
		l16.9704,16.9704L131.68,136.9354z M89.254,134.1074L77.9396,122.793l14.1428-14.1428l28.2848,28.2852l-14.1424,14.1428
		l-11.3144-11.3148L89.254,134.1074z"/>
	<path d="M27.3128,141.705c-2.2092,0-4,1.7908-4,4c0,33.084,26.916,60,60,60c2.2088,0,4-1.7912,4-4c0-2.2092-1.7912-4-4-4
		c-28.674,0-52-23.3261-52-52C31.3128,143.4958,29.5216,141.705,27.3128,141.705z"/>
	<path d="M84,221.0194c-41.906,0-76-34.0936-76-76c0-2.2088-1.7908-4-4-4c-2.2088,0-4,1.7912-4,4c0,46.3184,37.682,84,84,84
		c2.2092,0,4-1.7908,4-4C88,222.8106,86.2092,221.0194,84,221.0194z"/>
</g>
</svg>
