<?xml version="1.0" encoding="utf-8"?>
<!-- Generator: Adobe Illustrator 19.2.0, SVG Export Plug-In . SVG Version: 6.00 Build 0)  -->
<svg version="1.1" id="satellitedish" xmlns="http://www.w3.org/2000/svg" xmlns:xlink="http://www.w3.org/1999/xlink" x="0px"
	 y="0px" viewBox="0 0 217.6563 219.6565" enable-background="new 0 0 217.6563 219.6565" xml:space="preserve">
<g>
	<path fill="none" d="M83.8435,85.8733c-8.3328,8.336-9.5155,21.0144-3.436,30.0552l33.4944-33.4944
		C104.8611,76.3541,92.184,77.5381,83.8435,85.8733z"/>
	<path fill="none" d="M160.3083,47.3381L45.3123,162.336c31.9104,28.9609,81.4416,28.0389,112.2384-2.7579
		S189.2695,79.252,160.3083,47.3381z"/>
	<path d="M39.6991,121.0117c0.41,0,0.828-0.0624,1.2384-0.1952c2.1016-0.6836,3.25-2.9416,2.5665-5.0428
		c-1.8633-5.7188-2.8089-11.6992-2.8089-17.7737c0-31.5975,25.7072-57.3047,57.3049-57.3047c5.9531,0,11.8243,0.9084,17.4415,2.7012
		c2.0936,0.676,4.3552-0.492,5.0272-2.5936c0.668-2.1056-0.4924-4.3556-2.5976-5.0276c-6.4064-2.0428-13.09-3.08-19.8711-3.08
		c-36.008,0-65.3049,29.2952-65.3049,65.3047c0,6.9181,1.0784,13.7305,3.1992,20.2501
		C36.4451,119.9417,38.0115,121.0117,39.6991,121.0117z"/>
	<path d="M8,98C8,48.3733,48.3751,8,98,8c9.0703,0,18.0235,1.3437,26.6055,3.996c2.0976,0.6505,4.3516-0.5331,5-2.6403
		c0.6524-2.1117-0.5276-4.3517-2.6408-5.004C117.6171,1.4649,107.8711,0,98,0C43.9607,0,0,43.9629,0,98
		c0,8.8085,1.168,17.5429,3.4727,25.9609c0.488,1.7736,2.0976,2.9416,3.8553,2.9416c0.3515,0,0.7071-0.0468,1.0587-0.1408
		c2.1328-0.586,3.3868-2.7852,2.8048-4.918C9.0743,114.1173,8,106.0937,8,98z"/>
	<path d="M212,174.3437l-16,16l-29.1457-29.1456c31.0697-35.0744,29.9192-88.848-3.6472-122.4128l-2.8284-2.828l-40.7396,40.7396
		c-12.2108-9.1716-29.9748-7.95-41.4516,3.52c-11.4736,11.4751-12.6912,29.2356-3.5172,41.4488l-40.7408,40.7408l2.8284,2.828
		c17.4296,17.4295,40.328,26.1484,63.2224,26.1484c22.094,0,44.1384-8.1996,61.32-24.426L190.3435,196l-18,18L178,219.6565
		L217.6563,180L212,174.3437z M83.8435,85.8733c8.3405-8.3352,21.0176-9.5192,30.0584-3.4392l-33.4944,33.4944
		C74.328,106.8877,75.5107,94.2093,83.8435,85.8733z M45.3123,162.336l114.996-114.9979
		c28.9612,31.9139,28.0392,81.4432-2.7576,112.24S77.2227,191.2969,45.3123,162.336z"/>
</g>
</svg>
