<?xml version="1.0" encoding="utf-8"?>
<!-- Generator: Adobe Illustrator 19.2.0, SVG Export Plug-In . SVG Version: 6.00 Build 0)  -->
<svg version="1.1" id="saturnplanets" xmlns="http://www.w3.org/2000/svg" xmlns:xlink="http://www.w3.org/1999/xlink" x="0px"
	 y="0px" viewBox="0 0 225.7768 216" enable-background="new 0 0 225.7768 216" xml:space="preserve">
<g>
	<path fill="none" d="M68.9911,191.8708c17.6892-6.2672,38.134-15.6092,59.8704-28.158
		c19.1112-11.0332,36.5192-23.0584,50.9784-35.0332C174.4239,96.5648,146.4931,72,112.8615,72c-37.496,0-68,30.504-68,68
		C44.8615,160.7808,54.2547,179.3876,68.9911,191.8708z M52.8615,144c-2.2088,0-4-1.7912-4-4c0-35.2892,28.7108-64,64-64
		c2.2088,0,4,1.7912,4,4s-1.7912,4-4,4c-30.8788,0-56,25.1212-56,56C56.8615,142.2088,55.0703,144,52.8615,144z"/>
	<path fill="none" d="M37.6547,150.374C12.6831,172.854,5.0987,189.3472,8.9395,196c4.43,7.6712,23.7964,7.3996,51.3704-1.2276
		C48.2547,183.2012,40.0387,167.7196,37.6547,150.374z"/>
	<path fill="none" d="M36.8615,64c15.4396,0,28-12.5604,28-28s-12.5604-28-28-28c-15.4396,0-28,12.5604-28,28S21.4219,64,36.8615,64
		z"/>
	<path fill="none" d="M216.7835,76c-4.09-7.0928-23.576-8.4736-58.136,3.484c13.8996,10.5428,24.0584,25.7124,28.1556,43.2332
		c4.2656-3.7928,8.2712-7.5684,11.8336-11.2816C213.7287,95.7052,220.5119,82.4572,216.7835,76z"/>
	<path fill="none" d="M76.7075,197.4896C87.1951,204.1088,99.5691,208,112.8615,208c37.496,0,68-30.504,68-68
		c0-0.5888-0.0736-1.1592-0.0884-1.744c-13.9432,11.1248-30.2448,22.1856-47.9116,32.3864
		C114.5343,181.224,95.0111,190.5944,76.7075,197.4896z"/>
	<path d="M112.8615,84c2.2088,0,4-1.7912,4-4s-1.7912-4-4-4c-35.2892,0-64,28.7108-64,64c0,2.2088,1.7912,4,4,4
		c2.2088,0,4-1.7912,4-4C56.8615,109.1212,81.9827,84,112.8615,84z"/>
	<path d="M223.7131,72c-10.7264-18.582-53.9404-5.2188-73.372,1.9668C139.2671,67.6556,126.4935,64,112.8615,64
		c-41.9064,0-76,34.0936-76,76c0,0.138,0.02,0.2716,0.0208,0.4096C7.4415,165.6756-5.2741,187.38,2.0099,200
		c3.7988,6.576,11.9628,9.4512,22.9608,9.4512c11.6112,0,26.3812-3.2072,42.4976-8.6412C80.1527,210.3036,95.8355,216,112.8615,216
		c41.9064,0,76-34.0936,76-76c0-2.7276-0.1596-5.4176-0.4408-8.0712c5.8744-5.0264,11.2716-10.0364,15.9896-14.954
		C222.8987,97.7012,229.5723,82.1504,223.7131,72z M112.8615,72c33.6316,0,61.5624,24.5648,66.9784,56.6796
		c-14.4592,11.9748-31.8672,24-50.9784,35.0332c-21.7364,12.5488-42.1812,21.8908-59.8704,28.158
		C54.2547,179.3876,44.8615,160.7808,44.8615,140C44.8615,102.504,75.3655,72,112.8615,72z M8.9395,196
		c-3.8408-6.6528,3.7436-23.146,28.7152-45.626c2.384,17.3456,10.6,32.8272,22.6552,44.3984
		C32.7359,203.3996,13.3695,203.6712,8.9395,196z M180.8615,140c0,37.496-30.504,68-68,68c-13.2924,0-25.6664-3.8912-36.154-10.5104
		c18.3036-6.8952,37.8268-16.2656,56.154-26.8472c17.6668-10.2008,33.9684-21.2616,47.9116-32.3864
		C180.7879,138.8408,180.8615,139.4112,180.8615,140z M186.8031,122.7172c-4.0972-17.5208-14.256-32.6904-28.1556-43.2332
		c34.56-11.9576,54.046-10.5768,58.136-3.484c3.7284,6.4572-3.0548,19.7052-18.1468,35.4356
		C195.0743,115.1488,191.0687,118.9244,186.8031,122.7172z"/>
	<path d="M36.8615,72c19.8496,0,36-16.1504,36-36s-16.1504-36-36-36c-19.8496,0-36,16.1504-36,36S17.0119,72,36.8615,72z M36.8615,8
		c15.4396,0,28,12.5604,28,28s-12.5604,28-28,28c-15.4396,0-28-12.5604-28-28S21.4219,8,36.8615,8z"/>
</g>
</svg>
