<?xml version="1.0" encoding="utf-8"?>
<!-- Generator: Adobe Illustrator 19.2.0, SVG Export Plug-In . SVG Version: 6.00 Build 0)  -->
<svg version="1.1" id="scale" xmlns="http://www.w3.org/2000/svg" xmlns:xlink="http://www.w3.org/1999/xlink" x="0px" y="0px"
	 viewBox="0 0 228.0012 196" enable-background="new 0 0 228.0012 196" xml:space="preserve">
<g>
	<path fill="none" d="M190.0006,120c15.4396,0,28-12.5623,28-28c0-15.4375-12.5604-28-28-28c-15.4396,0-28,12.5625-28,28
		C162.0006,107.4377,174.561,120,190.0006,120z M175.8582,99.6565l8.0708-8.0704l-6.6568-6.6564
		c-1.5628-1.5624-1.5628-4.0937,0-5.656c1.5624-1.5628,4.0936-1.5628,5.656,0l6.6572,6.6564l6.0716-6.0708
		c1.5624-1.5624,4.0936-1.5624,5.656,0c1.5628,1.5628,1.5628,4.094,0,5.6564l-6.0708,6.0704l7.4848,7.4844
		c1.5628,1.5624,1.5628,4.0935,0,5.656c-0.7812,0.7815-1.8044,1.172-2.828,1.172c-1.0232,0-2.0468-0.3905-2.828-1.172
		l-7.4856-7.4844l-8.0712,8.0704c-0.7812,0.7812-1.8048,1.172-2.828,1.172c-1.0236,0-2.0468-0.3908-2.828-1.172
		C174.2954,103.7501,174.2954,101.2189,175.8582,99.6565z"/>
	<polygon fill="none" points="66.0006,180.0393 66.0006,187.9609 166.0278,188 166.0006,180.0393 65.9734,180 	"/>
	<path fill="none" d="M42.0006,48c11.0272,0,20-8.9727,20-20c0-11.0271-8.9728-20-20-20c-11.0272,0-20,8.9729-20,20
		C22.0006,39.0273,30.9734,48,42.0006,48z"/>
	<polygon fill="none" points="95.4282,172 136.573,172 116.0006,149.5549 	"/>
	<path d="M224.7154,158.0665l-220-40c-2.1896-0.418-4.254,1.0468-4.6504,3.2188c-0.3944,2.172,1.0468,4.254,3.2208,4.6484
		l105.8704,19.2492L84.5742,172H65.9734c-4.3968,0-7.9728,3.6057-7.9728,8.0393v7.9216c0,4.4336,3.576,8.0391,7.9728,8.0391
		h100.0544c4.3968,0,7.9728-3.6055,7.9728-8.0391v-7.9216c0-4.4336-3.576-8.0393-7.9728-8.0393H147.427l-21.8444-23.8303
		l97.7032,17.764c0.242,0.0468,0.4824,0.0663,0.7188,0.0663c1.8964,0,3.58-1.3515,3.9316-3.2851
		C228.3306,160.5429,226.8894,158.4609,224.7154,158.0665z M166.0278,188l-100.0272-0.0391v-7.9216L65.9734,180l100.0272,0.0393
		L166.0278,188z M95.4282,172l20.5724-22.4451L136.573,172H95.4282z"/>
	<path d="M42.0006,56c15.4396,0,28-12.5623,28-28c0-15.4375-12.5604-28-28-28c-15.4396,0-28,12.5625-28,28
		C14.0006,43.4377,26.561,56,42.0006,56z M42.0006,8c11.0272,0,20,8.9729,20,20c0,11.0273-8.9728,20-20,20
		c-11.0272,0-20-8.9727-20-20C22.0006,16.9729,30.9734,8,42.0006,8z"/>
	<path d="M190.0006,128c19.8496,0,36-16.1483,36-36c0-19.8515-16.1504-36-36-36c-19.8496,0-36,16.1485-36,36
		C154.0006,111.8517,170.151,128,190.0006,128z M190.0006,64c15.4396,0,28,12.5625,28,28c0,15.4377-12.5604,28-28,28
		c-15.4396,0-28-12.5623-28-28C162.0006,76.5625,174.561,64,190.0006,64z"/>
	<path d="M178.6862,106.4845c1.0232,0,2.0468-0.3908,2.828-1.172l8.0712-8.0704l7.4856,7.4844
		c0.7812,0.7815,1.8048,1.172,2.828,1.172c1.0236,0,2.0468-0.3905,2.828-1.172c1.5628-1.5625,1.5628-4.0936,0-5.656l-7.4848-7.4844
		l6.0708-6.0704c1.5628-1.5624,1.5628-4.0936,0-5.6564c-1.5624-1.5624-4.0936-1.5624-5.656,0l-6.0716,6.0708l-6.6572-6.6564
		c-1.5624-1.5628-4.0936-1.5628-5.656,0c-1.5628,1.5623-1.5628,4.0936,0,5.656l6.6568,6.6564l-8.0708,8.0704
		c-1.5628,1.5624-1.5628,4.0936,0,5.656C176.6394,106.0937,177.6626,106.4845,178.6862,106.4845z"/>
</g>
</svg>
