<?xml version="1.0" encoding="utf-8"?>
<!-- Generator: Adobe Illustrator 19.2.0, SVG Export Plug-In . SVG Version: 6.00 Build 0)  -->
<svg version="1.1" id="scientistavatar" xmlns="http://www.w3.org/2000/svg" xmlns:xlink="http://www.w3.org/1999/xlink" x="0px"
	 y="0px" viewBox="0 0 196.1164 204" enable-background="new 0 0 196.1164 204" xml:space="preserve">
<g>
	<path fill="none" d="M68.9306,11.9816C64.5414,9.4624,59.4722,8,54.0582,8c-16.5428,0-30,13.4572-30,30
		c0,3.006,0.456,5.9052,1.2824,8.6456L68.9306,11.9816z"/>
	<path fill="none" d="M140.0874,96h-83.994c-13.254,0-24.0352,10.7656-24.0352,24v8.5956c4.084,0.2268,8.6388,1.0452,13.828,2.2248
		C49.5542,122.0372,58.3198,116,68.0542,116h60.008c9.9099,0,18.5407,5.924,22.1835,14.8164
		c5.1816-1.1776,9.7344-1.994,13.8124-2.2208V120C164.0582,106.7656,153.3042,96,140.0874,96z"/>
	<path fill="none" d="M74.6734,17.6368l-45.876,36.482C34.133,62.4512,43.4502,68,54.0582,68c16.5428,0,30-13.4572,30-30
		c0-8.2384-3.3404-15.7088-8.7348-21.1356C75.1226,17.1328,74.9482,17.418,74.6734,17.6368z"/>
	<path fill="none" d="M129.3318,154.7912c-8.6504,2.1484-18.4552,4.582-29.2736,4.582c-10.8184,0-20.6232-2.4336-29.2736-4.582
		c-5.91-1.4668-11.2832-2.8008-15.162-2.8008c-1.9648,0-3.5448,0.3416-4.6172,1.1816c-1.9552,1.5292-2.9472,5.2988-2.9472,11.2028
		c0,18.9828,8.8436,31.6252,52,31.6252c43.1563,0,52-12.6424,52-31.6252c0-5.904-0.992-9.6736-2.9472-11.2028
		C145.9194,150.674,138.2338,152.584,129.3318,154.7912z"/>
	<path fill="none" d="M162.6734,17.6368l-45.876,36.482C122.133,62.4512,131.4502,68,142.0582,68c16.5428,0,30-13.4572,30-30
		c0-8.2384-3.3404-15.7088-8.7348-21.1356C163.1226,17.1328,162.9482,17.418,162.6734,17.6368z"/>
	<path fill="none" d="M113.3406,46.6456l43.59-34.664C152.5414,9.4624,147.4722,8,142.0582,8c-16.5428,0-30,13.4572-30,30
		C112.0582,41.006,112.5142,43.9052,113.3406,46.6456z"/>
	<path d="M120.0582,136c2.2088,0,4-1.7912,4-4s-1.7912-4-4-4H77.773c-2.2088,0-4,1.7912-4,4s1.7912,4,4,4H120.0582z"/>
	<path d="M195.2066,17.1016c-1.4044-1.7072-3.9236-1.9592-5.6288-0.5508l-11.4944,9.4432C173.043,10.9132,158.813,0,142.0582,0
		c-16.0064,0-29.7048,9.962-35.294,24h-17.412C83.763,9.962,70.0646,0,54.0582,0C37.3034,0,23.0734,10.9132,18.033,25.994
		L6.5386,16.5508c-1.7052-1.4044-4.2284-1.1584-5.6288,0.5508c-1.4024,1.7068-1.1564,4.2264,0.5508,5.6288l13.8592,11.3868
		c0.2792,0.23,0.5952,0.3716,0.9092,0.5136c-0.0984,1.1124-0.1708,2.232-0.1708,3.3692c0,20.9532,17.0468,38,38,38
		c20.9532,0,38-17.0468,38-38c0-2.0464-0.208-4.0404-0.5208-6h13.0416c-0.3128,1.9596-0.5208,3.9536-0.5208,6
		c0,20.9532,17.0468,38,38,38c20.9532,0,38-17.0468,38-38c0-1.1372-0.0724-2.2568-0.1708-3.3692
		c0.314-0.142,0.63-0.2836,0.9092-0.5136l13.8592-11.3868C196.363,21.328,196.609,18.8084,195.2066,17.1016z M54.0582,8
		c5.414,0,10.4832,1.4624,14.8724,3.9816l-43.59,34.664C24.5142,43.9052,24.0582,41.006,24.0582,38
		C24.0582,21.4572,37.5154,8,54.0582,8z M54.0582,68c-10.608,0-19.9252-5.5488-25.2608-13.8812l45.876-36.482
		c0.2748-0.2188,0.4492-0.504,0.65-0.7724C80.7178,22.2912,84.0582,29.7616,84.0582,38C84.0582,54.5428,70.601,68,54.0582,68z
		 M142.0582,8c5.414,0,10.4832,1.4624,14.8724,3.9816l-43.59,34.664c-0.8264-2.7404-1.2824-5.6396-1.2824-8.6456
		C112.0582,21.4572,125.5154,8,142.0582,8z M142.0582,68c-10.608,0-19.9252-5.5488-25.2608-13.8812l45.876-36.482
		c0.2748-0.2188,0.4492-0.504,0.65-0.7724c5.3944,5.4268,8.7348,12.8972,8.7348,21.1356C172.0582,54.5428,158.601,68,142.0582,68z"
		/>
	<path d="M140.0874,88h-83.994c-17.664,0-32.0352,14.3556-32.0352,32v12.584c0,1.1036,0.4552,2.158,1.2596,2.914
		c0.8028,0.754,1.84,1.1408,2.9844,1.078c4.9632-0.32,11.3164,0.928,19.3088,2.8692c1.0372,0.258,2.1404,0.0784,3.0488-0.4864
		c0.912-0.5644,1.5584-1.4684,1.7948-2.5136C54.0934,129.2344,60.6538,124,68.0542,124h60.008
		c7.4023,0,13.9628,5.2324,15.5995,12.4432c0.2365,1.0452,0.8828,1.9512,1.7928,2.5156c0.6388,0.3948,1.3692,0.5996,2.1077,0.5996
		c0.3163,0,0.6328-0.0368,0.9431-0.1132c7.9944-1.9392,14.342-3.1856,19.3089-2.8692c1.1364,0.0824,2.1815-0.322,2.9843-1.078
		c0.8044-0.756,1.2596-1.8104,1.2596-2.914V120C172.0582,102.3556,157.7166,88,140.0874,88z M164.0582,128.5956
		c-4.078,0.2268-8.6308,1.0432-13.8124,2.2208C146.603,121.924,137.9722,116,128.0622,116h-60.008
		c-9.7344,0-18.5,6.0372-22.168,14.8204c-5.1892-1.1796-9.744-1.998-13.828-2.2248V120c0-13.2344,10.7812-24,24.0352-24h83.994
		c13.2168,0,23.9708,10.7656,23.9708,24V128.5956z"/>
	<path d="M154.0406,146.8712c-6.2696-4.9024-15.254-2.67-26.6348,0.156c-8.2068,2.0372-17.5076,4.346-27.3476,4.346
		s-19.1408-2.3088-27.3476-4.346c-11.3772-2.826-20.3692-5.0564-26.6348-0.156c-4.1056,3.2108-6.0176,8.7732-6.0176,17.5036
		c0,34.918,30.33,39.6252,60,39.6252c29.67,0,60-4.7072,60-39.6252C160.0582,155.6444,158.1462,150.082,154.0406,146.8712z
		 M100.0582,196c-43.1564,0-52-12.6424-52-31.6252c0-5.904,0.992-9.6736,2.9472-11.2028c1.0724-0.84,2.6524-1.1816,4.6172-1.1816
		c3.8788,0,9.252,1.334,15.162,2.8008c8.6504,2.1484,18.4552,4.582,29.2736,4.582c10.8184,0,20.6232-2.4336,29.2736-4.582
		c8.902-2.2072,16.5876-4.1172,19.7792-1.6192c1.9552,1.5292,2.9472,5.2988,2.9472,11.2028
		C152.0582,183.3576,143.2146,196,100.0582,196z"/>
</g>
</svg>
