<?xml version="1.0" encoding="utf-8"?>
<!-- Generator: Adobe Illustrator 19.2.0, SVG Export Plug-In . SVG Version: 6.00 Build 0)  -->
<svg version="1.1" id="searchmagnify" xmlns="http://www.w3.org/2000/svg" xmlns:xlink="http://www.w3.org/1999/xlink" x="0px"
	 y="0px" viewBox="0 0 218.0822 222.084" enable-background="new 0 0 218.0822 222.084" xml:space="preserve">
<g>
	<path fill="none" d="M144.0822,24c-27.5705,0-50,22.4296-50,50s22.4295,50,50,50c27.5703,0,50-22.4296,50-50
		S171.6525,24,144.0822,24z M126.6289,96.4748c-0.1992,2.068-1.9376,3.6168-3.9764,3.6168c-0.1288,0-0.258-0.0056-0.3868-0.0172
		c-2.1992-0.2132-3.8084-2.166-3.5976-4.3656c1.3592-14.1464-12.6564-20.824-13.2539-21.1032c-2-0.928-2.8749-3.3008-1.9569-5.3028
		c0.9216-2.004,3.2812-2.8868,5.2889-1.9688C109.5549,67.7032,128.5429,76.5976,126.6289,96.4748z M151.9377,97.4472
		c-2.8128,9.84-14.4532,16.3008-14.9492,16.5704c-0.6096,0.332-1.2656,0.4904-1.9103,0.4904c-1.4141,0-2.7813-0.75-3.5117-2.0764
		c-1.0624-1.9336-0.3516-4.3652,1.578-5.4296c2.5628-1.412,9.5468-6.2812,11.1057-11.7716c0.6055-2.1212,0.328-4.162-0.8437-6.2384
		c-1.086-1.9236-0.4064-4.3632,1.5192-5.4492c1.93-1.0876,4.3672-0.402,5.4492,1.5196
		C152.6213,89.0488,153.1485,93.2148,151.9377,97.4472z M151.7109,48.0372c-7.7344-7.4904-19.8868,1.9648-20.0116,2.0584
		c-1.7344,1.3772-4.246,1.0784-5.6171-0.654c-1.3713-1.7328-1.0781-4.2484,0.6563-5.6192
		c6.1092-4.842,20.3672-11.3928,30.5428-1.5276c2.582,2.504,4.2264,3.5588,5.1212,4c0.7968-1.3728,2.3517-2.2148,4.0548-1.9452
		c2.1832,0.326,3.6872,2.3632,3.3632,4.5468c-0.2812,1.8828-1.6056,4.416-4.4063,5.3632c-0.7189,0.2424-1.4453,0.3516-2.1757,0.3516
		C159.0393,54.6112,154.7462,50.9804,151.7109,48.0372z M187.0705,75.1544c-3.9612,1.5136-14.1956,6.9472-14.0196,13.8084
		c0.0548,2.2092-1.6876,4.0452-3.8984,4.1016c-0.0352,0.002-0.0703,0.002-0.1016,0.002c-2.164,0-3.9416-1.7248-4-3.8964
		c-0.3556-13.9376,18.3828-21.1936,19.1796-21.4944c2.0588-0.7868,4.3672,0.252,5.1524,2.3184
		C190.1681,72.0568,189.1329,74.3672,187.0705,75.1544z"/>
	
		<rect x="8.0404" y="188.0421" transform="matrix(0.7072 -0.707 0.707 0.7072 -128.9816 76.6431)" fill="none" width="40.0012" height="11.9997"/>
	<path fill="none" d="M144.0822,8c-36.3909,0-66,29.6076-66,66s29.6091,66,66,66c36.3907,0,66-29.6076,66-66S180.4729,8,144.0822,8z
		 M144.0822,132c-31.9805,0-58-26.0196-58-58s26.0195-58,58-58c31.9803,0,58,26.0196,58,58S176.0625,132,144.0822,132z"/>
	<path d="M144.0822,0c-40.8049,0-74,33.1952-74,74c0,19.6884,7.7779,37.5592,20.3603,50.83l-45.1088,46.9064l-4.564-4.5644
		c-0.75-0.75-1.7656-1.172-2.8284-1.172c-1.0624,0-2.078,0.422-2.828,1.172L1.1721,201.1132c-1.5628,1.5624-1.5628,4.094,0,5.6564
		l14.1404,14.1424c0.75,0.75,1.7657,1.172,2.828,1.172c1.0628,0,2.0784-0.422,2.8284-1.172l33.9413-33.9412
		c1.5627-1.5624,1.5627-4.094,0-5.6564l-3.9197-3.92l45.2428-47.0448C109.1477,141.3332,125.8397,148,144.0822,148
		c40.8047,0,74-33.1952,74-74S184.8869,0,144.0822,0z M18.1405,212.4276l-8.484-8.486l28.2848-28.2852l8.4844,8.486
		L18.1405,212.4276z M144.0822,140c-36.3909,0-66-29.6076-66-66s29.6091-66,66-66c36.3907,0,66,29.6076,66,66
		S180.4729,140,144.0822,140z"/>
	<path d="M144.0822,16c-31.9805,0-58,26.0196-58,58s26.0195,58,58,58c31.9803,0,58-26.0196,58-58S176.0625,16,144.0822,16z
		 M144.0822,124c-27.5705,0-50-22.4296-50-50s22.4295-50,50-50c27.5703,0,50,22.4296,50,50S171.6525,124,144.0822,124z"/>
	<path d="M169.8205,48.8964c0.324-2.1836-1.18-4.2208-3.3632-4.5468c-1.7031-0.2696-3.258,0.5724-4.0548,1.9452
		c-0.8948-0.4412-2.5392-1.496-5.1212-4c-10.1756-9.8652-24.4336-3.3144-30.5428,1.5276c-1.7344,1.3708-2.0276,3.8864-0.6563,5.6192
		c1.3711,1.7324,3.8827,2.0312,5.6171,0.654c0.1248-0.0936,12.2772-9.5488,20.0116-2.0584c3.0353,2.9432,7.3284,6.574,11.5276,6.574
		c0.7304,0,1.4568-0.1092,2.1757-0.3516C168.2149,53.3124,169.5393,50.7792,169.8205,48.8964z"/>
	<path d="M189.3829,69.994c-0.7852-2.0664-3.0936-3.1052-5.1524-2.3184c-0.7968,0.3008-19.5352,7.5568-19.1796,21.4944
		c0.0584,2.1716,1.836,3.8964,4,3.8964c0.0312,0,0.0664,0,0.1016-0.002c2.2108-0.0564,3.9532-1.8924,3.8984-4.1016
		c-0.176-6.8612,10.0584-12.2948,14.0196-13.8084C189.1329,74.3672,190.1681,72.0568,189.3829,69.994z"/>
	<path d="M108.7462,67.334c-2.0077-0.918-4.3673-0.0352-5.2889,1.9688c-0.918,2.002-0.0431,4.3748,1.9569,5.3028
		c0.5975,0.2792,14.6131,6.9568,13.2539,21.1032c-0.2108,2.1996,1.3984,4.1524,3.5976,4.3656
		c0.1288,0.0116,0.258,0.0172,0.3868,0.0172c2.0388,0,3.7772-1.5488,3.9764-3.6168
		C128.5429,76.5976,109.5549,67.7032,108.7462,67.334z"/>
	<path d="M144.9257,83.5428c-1.9256,1.086-2.6052,3.5256-1.5192,5.4492c1.1717,2.0764,1.4492,4.1172,0.8437,6.2384
		c-1.5589,5.4904-8.5429,10.3596-11.1057,11.7716c-1.9296,1.0644-2.6404,3.496-1.578,5.4296
		c0.7304,1.3264,2.0976,2.0764,3.5117,2.0764c0.6447,0,1.3007-0.1584,1.9103-0.4904c0.496-0.2696,12.1364-6.7304,14.9492-16.5704
		c1.2108-4.2324,0.6836-8.3984-1.5628-12.3848C149.2929,83.1408,146.8557,82.4552,144.9257,83.5428z"/>
</g>
</svg>
