<?xml version="1.0" encoding="utf-8"?>
<!-- Generator: Adobe Illustrator 19.2.0, SVG Export Plug-In . SVG Version: 6.00 Build 0)  -->
<svg version="1.1" id="skullbottle" xmlns="http://www.w3.org/2000/svg" xmlns:xlink="http://www.w3.org/1999/xlink" x="0px"
	 y="0px" viewBox="0 0 136 216" enable-background="new 0 0 136 216" xml:space="preserve">
<g>
	<circle fill="none" cx="84" cy="120" r="4"/>
	<path fill="none" d="M68,88c-19.8517,0-36,16.1504-36,36c0,12.8124,6.8983,24.7636,18.004,31.1856
		c1.2343,0.7148,1.996,2.0352,1.996,3.4628V176h12v-10h8v10h12v-17.3516c0-1.4276,0.7615-2.748,1.996-3.4628
		C97.1015,148.7636,104,136.8124,104,124C104,104.1504,87.8515,88,68,88z M52,132c-6.6173,0-12-5.3828-12-12s5.3827-12,12-12
		c6.6171,0,12,5.3828,12,12S58.6171,132,52,132z M84,132c-6.6173,0-12-5.3828-12-12s5.3827-12,12-12c6.6171,0,12,5.3828,12,12
		S90.6171,132,84,132z"/>
	<circle fill="none" cx="52" cy="120" r="4"/>
	<polygon fill="none" points="92,28 116,28 116,8 20,8 20,28 44,28 	"/>
	<path fill="none" d="M88.1795,36H47.8203C45.9139,57.078,29.0779,73.912,8,75.8204V208h120V75.8204
		C106.9219,73.912,90.0859,57.078,88.1795,36z M92,160.8828V180c0,2.2088-1.7893,4-4,4H72h-8H48c-2.2109,0-4-1.7912-4-4v-19.1172
		c-12.3945-8.084-20-22.008-20-36.8828c0-24.2616,19.7383-44,44-44c24.2615,0,44,19.7384,44,44
		C112,138.8748,104.3943,152.7988,92,160.8828z"/>
	<path d="M68,80c-24.2617,0-44,19.7384-44,44c0,14.8748,7.6055,28.7988,20,36.8828V180c0,2.2088,1.7891,4,4,4h16h8h16
		c2.2107,0,4-1.7912,4-4v-19.1172c12.3943-8.084,20-22.008,20-36.8828C112,99.7384,92.2615,80,68,80z M85.996,155.1856
		c-1.2345,0.7148-1.996,2.0352-1.996,3.4628V176H72v-10h-8v10H52v-17.3516c0-1.4276-0.7617-2.748-1.996-3.4628
		C38.8983,148.7636,32,136.8124,32,124c0-19.8496,16.1483-36,36-36c19.8515,0,36,16.1504,36,36
		C104,136.8124,97.1015,148.7636,85.996,155.1856z"/>
	<path d="M52,108c-6.6173,0-12,5.3828-12,12s5.3827,12,12,12c6.6171,0,12-5.3828,12-12S58.6171,108,52,108z M52,124
		c-2.2073,0-4-1.7948-4-4s1.7927-4,4-4c2.2071,0,4,1.7948,4,4S54.2071,124,52,124z"/>
	<path d="M84,108c-6.6173,0-12,5.3828-12,12s5.3827,12,12,12c6.6171,0,12-5.3828,12-12S90.6171,108,84,108z M84,124
		c-2.2073,0-4-1.7948-4-4s1.7927-4,4-4c2.2071,0,4,1.7948,4,4S86.2071,124,84,124z"/>
	<path d="M132,68c-18.4981,0-33.7661-14.0284-35.764-32H120c2.2107,0,4-1.7912,4-4V4c0-2.2088-1.7893-4-4-4H16
		c-2.2109,0-4,1.7912-4,4v28c0,2.2088,1.7891,4,4,4h23.764C37.7659,53.9716,22.4979,68,4,68c-2.2109,0-4,1.7912-4,4v140
		c0,2.2088,1.7891,4,4,4h128c2.2107,0,4-1.7912,4-4V72C136,69.7912,134.2107,68,132,68z M20,8h96v20H92H44H20V8z M128,208H8V75.8204
		C29.0779,73.912,45.9139,57.078,47.8203,36h40.3592C90.0859,57.078,106.9219,73.912,128,75.8204V208z"/>
</g>
</svg>
