<?xml version="1.0" encoding="utf-8"?>
<!-- Generator: Adobe Illustrator 19.2.0, SVG Export Plug-In . SVG Version: 6.00 Build 0)  -->
<svg version="1.1" id="skull" xmlns="http://www.w3.org/2000/svg" xmlns:xlink="http://www.w3.org/1999/xlink" x="0px" y="0px"
	 viewBox="0 0 192 220" enable-background="new 0 0 192 220" xml:space="preserve">
<g>
	<path fill="none" d="M134.5,83.758c-4.5353-0.8812-9.6757,0.4784-14.1133,3.744c-4.4336,3.2636-7.5116,7.8868-8.4452,12.6796
		c-1.086,5.588,1.1328,9.6348,3.1872,12.0468c2.918,3.43,7.3596,5.8692,12.5,6.8692c6.2073,1.2052,12.668,2.244,17.9336,1.744
		c6.4532-0.6228,7.8128-3.2168,8.2892-5.6716c0.8944-4.5996-1.2188-11.9804-5.3828-18.8028
		C144.3047,89.5488,138.8203,84.5996,134.5,83.758z"/>
	<path fill="none" d="M71.6131,87.502c-3.5508-2.6096-7.5548-4.006-11.336-4.006c-0.9451,0-1.8708,0.086-2.7771,0.262
		c-4.3205,0.8416-9.8049,5.7908-13.9689,12.6092c-4.164,6.8224-6.2772,14.2032-5.3828,18.8008
		c0.4768,2.4568,1.836,5.0508,8.2892,5.6736c5.2656,0.504,11.7265-0.5388,17.9336-1.744c5.1404-1,9.582-3.4392,12.5-6.8692
		c2.0544-2.412,4.2732-6.4588,3.1872-12.0448C79.1251,95.3888,76.0467,90.7656,71.6131,87.502z"/>
	<path fill="none" d="M96,8C47.4763,8,8,46.58,8,94c0,32.7676,19.5115,63.17,49.7107,77.4552
		c1.3984,0.66,2.2893,2.0684,2.2893,3.6152V212h76v-38.9416c0-1.4764,0.8123-2.8336,2.1171-3.5292
		C166.4179,154.424,184,125.4824,184,94C184,46.58,144.5235,8,96,8z M80,204c0,2.2088-1.7893,4-4,4c-2.2109,0-4-1.7912-4-4v-20
		c0-2.2088,1.7891-4,4-4c2.2107,0,4,1.7912,4,4V204z M65.8943,126.9492c-5.5076,1.0724-11.25,2.0236-16.57,2.0236
		c-1.2424,0-2.4652-0.0528-3.6523-0.168c-10.9689-1.0588-14.4181-7.17-15.3753-12.1116c-1.2927-6.6444,1.1016-15.8024,6.4104-24.494
		c2.6092-4.2812,9.7184-14.4376,19.2692-16.2928c6.7112-1.3088,14.1488,0.57,20.3752,5.152
		c6.0352,4.4416,10.25,10.8556,11.5584,17.6c1.3244,6.7948-0.4336,13.4568-4.9452,18.7556
		C78.8751,122.2188,72.8123,125.6056,65.8943,126.9492z M84,132h8v16h-8V132z M100,204c0,2.2088-1.7893,4-4,4
		c-2.2109,0-4-1.7912-4-4v-20c0-2.2088,1.7891-4,4-4c2.2107,0,4,1.7912,4,4V204z M108,148h-8v-16h8V148z M120,204
		c0,2.2088-1.7893,4-4,4c-2.2109,0-4-1.7912-4-4v-20c0-2.2088,1.7891-4,4-4c2.2107,0,4,1.7912,4,4V204z M146.328,128.8048
		c-1.1873,0.1152-2.4101,0.168-3.6525,0.168c-5.32,0-11.0624-0.9512-16.57-2.0236c-6.918-1.3436-12.9804-4.7304-17.0704-9.5352
		c-4.5116-5.2988-6.2696-11.9608-4.9452-18.7576c1.3084-6.7424,5.5232-13.1564,11.5584-17.598
		c6.2268-4.582,13.66-6.4684,20.3752-5.152c9.5508,1.8552,16.66,12.0116,19.2692,16.2928
		c5.3088,8.6916,7.7033,17.8496,6.4104,24.496C160.7459,121.6348,157.2967,127.746,146.328,128.8048z"/>
	<path d="M96,0C43.0663,0,0,42.168,0,94c0,35.0096,20.3243,67.5332,52,83.5664V216c0,2.2088,1.7891,4,4,4h84c2.2107,0,4-1.7912,4-4
		v-40.576c29.672-16.7952,48-47.7736,48-81.424C192,42.168,148.9335,0,96,0z M138.1171,169.5292
		c-1.3048,0.6956-2.1171,2.0528-2.1171,3.5292V212H60v-36.9296c0-1.5468-0.8909-2.9552-2.2893-3.6152
		C27.5115,157.17,8,126.7676,8,94C8,46.58,47.4763,8,96,8c48.5235,0,88,38.58,88,86
		C184,125.4824,166.4179,154.424,138.1171,169.5292z"/>
	<path d="M87.9099,98.6584c-1.3084-6.7444-5.5232-13.1584-11.5584-17.6c-6.2264-4.582-13.664-6.4608-20.3752-5.152
		c-9.5508,1.8552-16.66,12.0116-19.2692,16.2928c-5.3088,8.6916-7.7031,17.8496-6.4104,24.494
		c0.9572,4.9416,4.4064,11.0528,15.3753,12.1116c1.1871,0.1152,2.4099,0.168,3.6523,0.168c5.32,0,11.0624-0.9512,16.57-2.0236
		c6.918-1.3436,12.9808-4.7304,17.0704-9.5352C87.4763,112.1152,89.2343,105.4532,87.9099,98.6584z M76.8711,112.2284
		c-2.918,3.43-7.3596,5.8692-12.5,6.8692c-6.2071,1.2052-12.668,2.248-17.9336,1.744c-6.4532-0.6228-7.8124-3.2168-8.2892-5.6736
		c-0.8944-4.5976,1.2188-11.9784,5.3828-18.8008c4.164-6.8184,9.6484-11.7676,13.9689-12.6092
		c0.9063-0.176,1.832-0.262,2.7771-0.262c3.7812,0,7.7852,1.3964,11.336,4.006c4.4336,3.2636,7.512,7.8868,8.4452,12.6816
		C81.1443,105.7696,78.9255,109.8164,76.8711,112.2284z"/>
	<path d="M155.2927,92.1992c-2.6092-4.2812-9.7184-14.4376-19.2692-16.2928c-6.7152-1.3164-14.1484,0.57-20.3752,5.152
		c-6.0352,4.4416-10.25,10.8556-11.5584,17.598c-1.3244,6.7968,0.4336,13.4588,4.9452,18.7576
		c4.09,4.8048,10.1524,8.1916,17.0704,9.5352c5.5076,1.0724,11.25,2.0236,16.57,2.0236c1.2424,0,2.4652-0.0528,3.6525-0.168
		c10.9687-1.0588,14.4179-7.17,15.3751-12.1096C162.996,110.0488,160.6015,100.8908,155.2927,92.1992z M153.8515,115.17
		c-0.4764,2.4548-1.836,5.0488-8.2892,5.6716c-5.2656,0.5-11.7263-0.5388-17.9336-1.744c-5.1404-1-9.582-3.4392-12.5-6.8692
		c-2.0544-2.412-4.2732-6.4588-3.1872-12.0468c0.9336-4.7928,4.0116-9.416,8.4452-12.6796c4.4376-3.2656,9.578-4.6252,14.1133-3.744
		c4.3203,0.8416,9.8047,5.7908,13.9687,12.6092C152.6327,103.1896,154.7459,110.5704,153.8515,115.17z"/>
	<path d="M76,180c-2.2109,0-4,1.7912-4,4v20c0,2.2088,1.7891,4,4,4c2.2107,0,4-1.7912,4-4v-20C80,181.7912,78.2107,180,76,180z"/>
	<path d="M116,180c-2.2109,0-4,1.7912-4,4v20c0,2.2088,1.7891,4,4,4c2.2107,0,4-1.7912,4-4v-20C120,181.7912,118.2107,180,116,180z"
		/>
	<path d="M96,180c-2.2109,0-4,1.7912-4,4v20c0,2.2088,1.7891,4,4,4c2.2107,0,4-1.7912,4-4v-20C100,181.7912,98.2107,180,96,180z"/>
	<rect x="84" y="132" width="8" height="16"/>
	<rect x="100" y="132" width="8" height="16"/>
</g>
</svg>
