<?xml version="1.0" encoding="utf-8"?>
<!-- Generator: Adobe Illustrator 19.2.0, SVG Export Plug-In . SVG Version: 6.00 Build 0)  -->
<svg version="1.1" id="smallorganism" xmlns="http://www.w3.org/2000/svg" xmlns:xlink="http://www.w3.org/1999/xlink" x="0px"
	 y="0px" viewBox="0 0 224 224" enable-background="new 0 0 224 224" xml:space="preserve">
<g>
	<path fill="none" d="M138,104c-12.1289,0-22,9.8692-22,22s9.8711,22,22,22c12.1287,0,22-9.8692,22-22S150.1287,104,138,104z"/>
	<path fill="none" d="M120,76c0-4.412-3.5901-8-8-8c-4.4101,0-8,3.588-8,8s3.5899,8,8,8C116.4099,84,120,80.412,120,76z"/>
	<path fill="none" d="M74,112c-7.7189,0-14,6.2812-14,14s6.2811,14,14,14c7.7187,0,14-6.2812,14-14S81.7187,112,74,112z"/>
	<path fill="none" d="M208.0235,104h-20.9652c-1.9684,0-3.6404-1.4296-3.9492-3.3732c-1.7616-11.082-6.1836-21.7536-12.7928-30.8612
		c-1.1523-1.5916-0.9803-3.7872,0.41-5.1776l14.8284-14.83c1.5036-1.504,2.332-3.508,2.328-5.6428
		c-0.004-2.1368-0.836-4.1444-2.3436-5.6544c-3.1212-3.1208-8.1916-3.1268-11.2972-0.0176l-14.828,14.8304
		c-1.3868,1.3924-3.5859,1.5664-5.1756,0.41c-9.1096-6.6092-19.7812-11.0332-30.8672-12.7912
		C121.4295,40.584,120,38.9084,120,36.9416V15.9764C120,11.578,116.4099,8,112,8c-4.4101,0-8,3.578-8,7.9764v20.9652
		c0,1.9668-1.4297,3.6424-3.3713,3.9508c-11.086,1.758-21.7576,6.182-30.8672,12.7912c-1.586,1.1564-3.7852,0.9824-5.1756-0.41
		l-14.828-14.8304c-1.5-1.5-3.5-2.326-5.6328-2.326c-0.004,0-0.008,0-0.012,0c-2.1368,0.002-4.1444,0.834-5.6524,2.3436
		c-1.5116,1.512-2.3436,3.5196-2.3436,5.6584c-0.004,2.1328,0.8244,4.1348,2.328,5.6368l14.8284,14.832
		c1.3905,1.3904,1.5625,3.586,0.41,5.1776c-6.6092,9.1076-11.0312,19.7792-12.7928,30.8612
		C40.5819,102.5704,38.9099,104,36.9415,104H15.9763C11.5779,104,8,107.588,8,112s3.5779,8,7.9763,8h20.9652
		c1.9684,0,3.6404,1.4296,3.9492,3.3732c1.7616,11.082,6.1836,21.7536,12.7928,30.8612c1.1525,1.5916,0.9805,3.7872-0.41,5.1776
		l-14.8284,14.83c-1.5036,1.504-2.332,3.508-2.328,5.6428c0.004,2.1368,0.836,4.1444,2.3436,5.6544
		c3.1172,3.1172,8.1876,3.1228,11.2972,0.0176l14.828-14.8304c0.7732-0.7752,1.7968-1.1716,2.828-1.1716
		c0.8204,0,1.6444,0.25,2.3476,0.7616c9.1096,6.6092,19.7812,11.0332,30.8672,12.7912c1.9416,0.3084,3.3713,1.984,3.3713,3.9508
		v20.9652c0,4.3984,3.5899,7.9764,8,7.9764c4.4099,0,8-3.578,8-7.9764v-20.9652c0-1.9668,1.4295-3.6424,3.3711-3.9508
		c11.086-1.758,21.7576-6.182,30.8672-12.7912c1.5897-1.1504,3.7888-0.9804,5.1756,0.41l14.828,14.8304
		c1.5,1.5,3.5,2.326,5.6332,2.326c0.0036,0,0.0076,0,0.0116,0c2.1368-0.002,4.1444-0.834,5.6524-2.3436
		c1.5116-1.512,2.3436-3.5196,2.3436-5.6584c0.004-2.1328-0.8244-4.1348-2.328-5.6368l-14.8284-14.832
		c-1.3903-1.3904-1.5623-3.586-0.41-5.1776c6.6092-9.1076,11.0312-19.7792,12.7928-30.8612
		c0.3088-1.9436,1.9808-3.3732,3.9492-3.3732h20.9652c4.3984,0,7.9765-3.588,7.9765-8S212.4219,104,208.0235,104z M74,148
		c-12.1289,0-22-9.8692-22-22s9.8711-22,22-22c12.1287,0,22,9.8692,22,22S86.1287,148,74,148z M96,76c0-8.8224,7.1755-16,16-16
		c8.8243,0,16,7.1776,16,16s-7.1757,16-16,16C103.1755,92,96,84.8224,96,76z M138,156c-16.5429,0-30-13.4572-30-30s13.4571-30,30-30
		c16.5427,0,30,13.4572,30,30S154.5427,156,138,156z"/>
	<path d="M128,76c0-8.8224-7.1757-16-16-16c-8.8245,0-16,7.1776-16,16s7.1755,16,16,16C120.8243,92,128,84.8224,128,76z M104,76
		c0-4.412,3.5899-8,8-8c4.4099,0,8,3.588,8,8s-3.5901,8-8,8C107.5899,84,104,80.412,104,76z"/>
	<path d="M138,96c-16.5429,0-30,13.4572-30,30s13.4571,30,30,30c16.5427,0,30-13.4572,30-30S154.5427,96,138,96z M138,148
		c-12.1289,0-22-9.8692-22-22s9.8711-22,22-22c12.1287,0,22,9.8692,22,22S150.1287,148,138,148z"/>
	<path d="M208.0235,96h-17.6252c-2.0392-9.9884-6.0196-19.5956-11.6564-28.1172l12.4688-12.4668
		c3.0196-3.0176,4.68-7.0352,4.672-11.3124c-0.004-4.2696-1.672-8.2832-4.6876-11.2988
		c-6.2344-6.2384-16.3828-6.2444-22.6092-0.0176L156.1171,45.256c-8.5196-5.6348-18.1288-9.6172-28.1171-11.6544V15.9764
		C128,7.168,120.8243,0,112,0c-8.8245,0-16,7.168-16,15.9764v17.6252c-9.9885,2.0372-19.5977,6.0196-28.1173,11.6544
		L55.4139,32.7872c-3.0116-3.012-7.0196-4.67-11.2888-4.67c-0.008,0-0.016,0-0.0196,0c-4.2735,0.006-8.2852,1.67-11.3008,4.6876
		c-3.0196,3.0196-4.6876,7.0352-4.6876,11.3084c-0.004,4.2736,1.6564,8.2872,4.672,11.3008l12.4688,12.4688
		C39.6211,76.4044,35.6407,86.0116,33.6015,96H15.9763C7.168,96,0,103.1776,0,112s7.168,16,15.9763,16h17.6252
		c2.0392,9.9884,6.0196,19.5956,11.6564,28.1172L32.7891,168.584c-3.0196,3.0176-4.68,7.0352-4.672,11.3124
		c0.004,4.2696,1.672,8.2832,4.6876,11.2988c6.238,6.2424,16.3868,6.248,22.6092,0.0176l12.4688-12.4688
		c8.5196,5.6348,18.1288,9.6172,28.1173,11.6544v17.6252C96,216.832,103.1755,224,112,224c8.8243,0,16-7.168,16-15.9764v-17.6252
		c9.9883-2.0372,19.5975-6.0196,28.1171-11.6544l12.4688,12.4688c3.0116,3.012,7.0196,4.67,11.2892,4.67c0.0076,0,0.0156,0,0.0192,0
		c4.2737-0.006,8.2852-1.67,11.3008-4.6876c3.0196-3.0196,4.6876-7.0352,4.6876-11.3084c0.004-4.2736-1.6564-8.2872-4.672-11.3008
		l-12.4688-12.4688c5.6368-8.5216,9.6172-18.1288,11.6564-28.1172h17.6252C216.832,128,224,120.8224,224,112S216.832,96,208.0235,96
		z M208.0235,120h-20.9652c-1.9684,0-3.6404,1.4296-3.9492,3.3732c-1.7616,11.082-6.1836,21.7536-12.7928,30.8612
		c-1.1523,1.5916-0.9803,3.7872,0.41,5.1776l14.8284,14.832c1.5036,1.502,2.332,3.504,2.328,5.6368
		c0,2.1388-0.832,4.1464-2.3436,5.6584c-1.508,1.5096-3.5156,2.3416-5.6524,2.3436c-0.004,0-0.008,0-0.0116,0
		c-2.1332,0-4.1332-0.826-5.6332-2.326l-14.828-14.8304c-1.3868-1.3904-3.5859-1.5604-5.1756-0.41
		c-9.1096,6.6092-19.7812,11.0332-30.8672,12.7912c-1.9416,0.3084-3.3711,1.984-3.3711,3.9508v20.9652
		c0,4.3984-3.5901,7.9764-8,7.9764c-4.4101,0-8-3.578-8-7.9764v-20.9652c0-1.9668-1.4297-3.6424-3.3713-3.9508
		c-11.086-1.758-21.7576-6.182-30.8672-12.7912c-0.7032-0.5116-1.5272-0.7616-2.3476-0.7616c-1.0312,0-2.0548,0.3964-2.828,1.1716
		l-14.828,14.8304c-3.1096,3.1052-8.18,3.0996-11.2972-0.0176c-1.5076-1.51-2.3396-3.5176-2.3436-5.6544
		c-0.004-2.1348,0.8244-4.1388,2.328-5.6428l14.8284-14.83c1.3905-1.3904,1.5625-3.586,0.41-5.1776
		c-6.6092-9.1076-11.0312-19.7792-12.7928-30.8612C40.5819,121.4296,38.9099,120,36.9415,120H15.9763C11.5779,120,8,116.412,8,112
		s3.5779-8,7.9763-8h20.9652c1.9684,0,3.6404-1.4296,3.9492-3.3732c1.7616-11.082,6.1836-21.7536,12.7928-30.8612
		c1.1525-1.5916,0.9805-3.7872-0.41-5.1776L38.4451,49.756c-1.5036-1.502-2.332-3.504-2.328-5.6368
		c0-2.1388,0.832-4.1464,2.3436-5.6584c1.508-1.5096,3.5156-2.3416,5.6524-2.3436c0.004,0,0.008,0,0.012,0
		c2.1328,0,4.1328,0.826,5.6328,2.326l14.828,14.8304c1.3904,1.3924,3.5896,1.5664,5.1756,0.41
		c9.1096-6.6092,19.7812-11.0332,30.8672-12.7912C102.5703,40.584,104,38.9084,104,36.9416V15.9764C104,11.578,107.5899,8,112,8
		c4.4099,0,8,3.578,8,7.9764v20.9652c0,1.9668,1.4295,3.6424,3.3711,3.9508c11.086,1.758,21.7576,6.182,30.8672,12.7912
		c1.5897,1.1564,3.7888,0.9824,5.1756-0.41l14.828-14.8304c3.1056-3.1092,8.176-3.1032,11.2972,0.0176
		c1.5076,1.51,2.3396,3.5176,2.3436,5.6544c0.004,2.1348-0.8244,4.1388-2.328,5.6428l-14.8284,14.83
		c-1.3903,1.3904-1.5623,3.586-0.41,5.1776c6.6092,9.1076,11.0312,19.7792,12.7928,30.8612
		c0.3088,1.9436,1.9808,3.3732,3.9492,3.3732h20.9652c4.3984,0,7.9765,3.588,7.9765,8S212.4219,120,208.0235,120z"/>
	<path d="M74,104c-12.1289,0-22,9.8692-22,22s9.8711,22,22,22c12.1287,0,22-9.8692,22-22S86.1287,104,74,104z M74,140
		c-7.7189,0-14-6.2812-14-14s6.2811-14,14-14c7.7187,0,14,6.2812,14,14S81.7187,140,74,140z"/>
</g>
</svg>
