<?xml version="1.0" encoding="utf-8"?>
<!-- Generator: Adobe Illustrator 19.2.0, SVG Export Plug-In . SVG Version: 6.00 Build 0)  -->
<svg version="1.1" id="spaceship" xmlns="http://www.w3.org/2000/svg" xmlns:xlink="http://www.w3.org/1999/xlink" x="0px" y="0px"
	 viewBox="0 0 213.5673 202.5057" enable-background="new 0 0 213.5673 202.5057" xml:space="preserve">
<g>
	<path fill="none" d="M59.5705,135.9921c-4.8085,0-9.328,1.8708-12.7265,5.2712c-4.918,4.916-10.4688,24.588-13.6252,39.082
		c14.496-3.158,34.168-8.7128,39.082-13.6248c7.0156-7.0176,7.0156-18.4396,0-25.4572
		C68.8985,137.8629,64.3792,135.9921,59.5705,135.9921z"/>
	<path fill="none" d="M164.332,35.0917c-1.8904,1.8884-2.9296,4.4004-2.9296,7.0704c0,2.6716,1.0391,5.1816,2.9296,7.072
		c3.7852,3.7812,10.3712,3.7776,14.1408,0c1.8908-1.8904,2.9297-4.4004,2.9297-7.072c0-2.67-1.0388-5.182-2.9297-7.0704
		C174.6956,31.3161,168.1172,31.3121,164.332,35.0917z"/>
	<path fill="none" d="M131.8048,63.7693c-4.6092,0-9.2188,1.754-12.7263,5.2616c-3.4025,3.4004-5.2737,7.92-5.2737,12.7288
		c0,4.8084,1.8712,9.328,5.2737,12.7284c3.3983,3.4004,7.9179,5.2716,12.7263,5.2716c4.8088,0,9.328-1.8712,12.7304-5.2716
		c7.0156-7.0176,7.0156-18.4396,0-25.4572C141.0236,65.5233,136.414,63.7693,131.8048,63.7693z"/>
	<path fill="none" d="M203.4105,10.1541c-33.8009-6.9884-68.336,3.2852-92.8205,27.7676
		c-12.2228,12.2244-21.1835,27.41-25.914,43.91c-0.5664,1.9824-2.5704,3.2072-4.5704,2.832c-2.1836-0.404-4.418-0.6288-6.6484-0.666
		c-9.8752-0.1912-19.3867,3.3008-26.7187,9.594c0.668-0.0392,1.34-0.0644,2.008-0.0764
		c18.9647-0.242,35.988,10.2988,44.1091,27.1956c16.8984,8.1188,27.5272,25.2676,27.1952,44.1112
		c-0.0116,0.67-0.0352,1.34-0.074,2.0076c6.2888-7.334,9.7657-16.7692,9.5937-26.7204c-0.0392-2.2324-0.2617-4.4668-0.668-6.6408
		c-0.3748-2.0272,0.8475-4.0096,2.832-4.578c16.512-4.7344,31.6955-13.6972,43.9103-25.916
		C200.1252,78.4941,210.4105,43.9645,203.4105,10.1541z M150.1916,100.1445c-4.9104,4.912-11.4416,7.6152-18.3868,7.6152
		c-6.9452,0-13.4728-2.7032-18.3828-7.6152c-4.91-4.9104-7.6172-11.4396-7.6172-18.3848c0-6.9456,2.7072-13.4748,7.6172-18.3848
		c10.1328-10.1428,26.6288-10.1348,36.7696,0C160.3284,73.5117,160.3284,90.0077,150.1916,100.1445z M184.1292,54.8905
		c-3.3987,3.4004-7.918,5.2716-12.7267,5.2716c-4.8049,0-9.324-1.8712-12.7265-5.2716c-3.4024-3.4004-5.2735-7.92-5.2735-12.7284
		c0-4.8088,1.8711-9.3284,5.2735-12.7268c3.3985-3.4004,7.9216-5.2732,12.7265-5.2732c4.8087,0,9.328,1.8728,12.7267,5.2732
		c3.402,3.3984,5.2733,7.918,5.2733,12.7268C189.4025,46.9705,187.5312,51.4901,184.1292,54.8905z"/>
	<path d="M210.668,5.8925c-0.3476-1.4864-1.5076-2.6468-2.996-2.9924c-37.2812-8.6544-75.6992,2.3284-102.7384,29.3652
		C92.586,44.6169,83.3204,59.7733,78.008,76.2773c-1.4648-0.1604-2.9415-0.254-4.4104-0.2796
		c-16.5468-0.25-31.6716,7.7072-40.7968,21.3848c-0.9412,1.416-0.8903,3.2736,0.1368,4.6308
		c1.0236,1.3536,2.7929,1.916,4.414,1.3988c3.7112-1.1916,7.59-1.8304,11.5352-1.8968c0.2384-0.0036,0.4768-0.0076,0.7108-0.0076
		c15.848,0,30.1564,9.2948,36.5824,23.834c0.406,0.91,1.1328,1.6384,2.0428,2.0408c14.7576,6.5256,24.1132,21.166,23.828,37.3028
		c-0.0664,3.926-0.7032,7.8068-1.8944,11.5352c-0.5196,1.6192,0.0428,3.3888,1.4024,4.412c0.7108,0.5372,1.5584,0.8068,2.406,0.8068
		c0.7737,0,1.5472-0.2228,2.2188-0.672c13.676-9.1248,21.672-24.3748,21.3869-40.7948c-0.0273-1.4748-0.1172-2.9492-0.2773-4.412
		c16.5116-5.3204,31.668-14.584,44.0076-26.93C208.34,81.5937,219.3204,43.1853,210.668,5.8925z M131.7345,128.8905
		c-1.9845,0.5684-3.2068,2.5508-2.832,4.578c0.4063,2.174,0.6288,4.4084,0.668,6.6408c0.172,9.9512-3.3049,19.3864-9.5937,26.7204
		c0.0388-0.6676,0.0624-1.3376,0.074-2.0076c0.332-18.8436-10.2968-35.9924-27.1952-44.1112
		c-8.1211-16.8968-25.1444-27.4376-44.1091-27.1956c-0.668,0.012-1.34,0.0372-2.008,0.0764
		c7.332-6.2932,16.8435-9.7852,26.7187-9.594c2.2304,0.0372,4.4648,0.262,6.6484,0.666c2,0.3752,4.004-0.8496,4.5704-2.832
		c4.7305-16.5,13.6912-31.6856,25.914-43.91c24.4845-24.4824,59.0196-34.756,92.8205-27.7676
		c7,33.8104-3.2853,68.34-27.7657,92.8204C163.43,115.1933,148.2465,124.1561,131.7345,128.8905z"/>
	<path d="M171.4025,24.1621c-4.8049,0-9.328,1.8728-12.7265,5.2732c-3.4024,3.3984-5.2735,7.918-5.2735,12.7268
		c0,4.8084,1.8711,9.328,5.2735,12.7284c3.4025,3.4004,7.9216,5.2716,12.7265,5.2716c4.8087,0,9.328-1.8712,12.7267-5.2716
		c3.402-3.4004,5.2733-7.92,5.2733-12.7284c0-4.8088-1.8713-9.3284-5.2733-12.7268
		C180.7305,26.0349,176.2112,24.1621,171.4025,24.1621z M178.4728,49.2341c-3.7696,3.7776-10.3556,3.7812-14.1408,0
		c-1.8904-1.8904-2.9296-4.4004-2.9296-7.072c0-2.67,1.0391-5.182,2.9296-7.0704c3.7852-3.7796,10.3636-3.7756,14.1408,0
		c1.8908,1.8884,2.9297,4.4004,2.9297,7.0704C181.4025,44.8337,180.3636,47.3437,178.4728,49.2341z"/>
	<path d="M113.422,63.3749c-4.91,4.91-7.6172,11.4392-7.6172,18.3848c0,6.9452,2.7072,13.4744,7.6172,18.3848
		c4.91,4.912,11.4376,7.6152,18.3828,7.6152c6.9452,0,13.4764-2.7032,18.3868-7.6152c10.1368-10.1368,10.1368-26.6328,0-36.7696
		C140.0508,53.2401,123.5548,53.2321,113.422,63.3749z M144.5352,94.4881c-3.4024,3.4004-7.9216,5.2716-12.7304,5.2716
		c-4.8084,0-9.328-1.8712-12.7263-5.2716c-3.4025-3.4004-5.2737-7.92-5.2737-12.7284c0-4.8088,1.8712-9.3284,5.2737-12.7288
		c3.5075-3.5076,8.1171-5.2616,12.7263-5.2616c4.6092,0,9.2188,1.754,12.7304,5.2616
		C151.5508,76.0485,151.5508,87.4705,144.5352,94.4881z"/>
	<path d="M59.5705,127.9921c-6.9453,0-13.4729,2.7048-18.3829,7.6152c-9.1992,9.1952-16.2576,45.0644-17.0352,49.1248
		c-0.2459,1.3008,0.164,2.6428,1.1016,3.5784c0.758,0.7576,1.7772,1.1716,2.828,1.1716c0.25,0,0.5-0.0232,0.75-0.07
		c4.0588-0.7756,39.926-7.838,49.1252-17.0352c10.1368-10.1368,10.1368-26.6328,0-36.7696
		C73.0468,130.6953,66.5156,127.9921,59.5705,127.9921z M72.3008,166.7205c-4.914,4.912-24.586,10.4668-39.082,13.6248
		c3.1564-14.494,8.7072-34.166,13.6252-39.082c3.3985-3.4004,7.918-5.2712,12.7265-5.2712c4.8087,0,9.328,1.8708,12.7303,5.2712
		C79.3164,148.2809,79.3164,159.7029,72.3008,166.7205z"/>
	
		<rect x="-12.2594" y="171.8874" transform="matrix(0.2344 -0.9721 0.9721 0.2344 -164.2289 143.2443)" width="42.1753" height="8.0003"/>
	
		<rect x="52.0236" y="193.3344" transform="matrix(0.9955 -0.0953 0.0953 0.9955 -18.5044 7.0482)" width="25.0898" height="7.9992"/>
</g>
</svg>
