<?xml version="1.0" encoding="utf-8"?>
<!-- Generator: Adobe Illustrator 19.2.0, SVG Export Plug-In . SVG Version: 6.00 Build 0)  -->
<svg version="1.1" id="squarestructure" xmlns="http://www.w3.org/2000/svg" xmlns:xlink="http://www.w3.org/1999/xlink" x="0px"
	 y="0px" viewBox="0 0 228 228" enable-background="new 0 0 228 228" xml:space="preserve">
<g>
	<path fill="none" d="M124,204c0,8.8224,7.1755,16,16,16c8.8243,0,16-7.1776,16-16s-7.1757-16-16-16
		C131.1755,188,124,195.1776,124,204z"/>
	<path fill="none" d="M40,88c0-8.8224-7.1757-16-16-16c-8.8245,0-16,7.1776-16,16s7.1755,16,16,16C32.8243,104,40,96.8224,40,88z"/>
	<path fill="none" d="M24,188c-8.8245,0-16,7.1776-16,16s7.1755,16,16,16c8.8243,0,16-7.1776,16-16S32.8243,188,24,188z"/>
	<path fill="none" d="M104,24c0-8.8224-7.1757-16-16-16c-8.8245,0-16,7.1776-16,16s7.1755,16,16,16C96.8243,40,104,32.8224,104,24z"
		/>
	<path fill="none" d="M88,164c-13.2345,0-24-10.7656-24-24c0-11.8692,8.6675-21.7256,20-23.6388V92H47.6387
		C45.9455,102.0284,38.0283,109.9452,28,111.6388v68.7224c10.0283,1.6936,17.9455,9.6104,19.6387,19.6388h68.7224
		c1.6932-10.0284,9.6104-17.9452,19.6389-19.6388V144h-24.3613C109.7251,155.3324,99.8687,164,88,164z"/>
	<path fill="none" d="M204,40c8.8243,0,16-7.1776,16-16s-7.1757-16-16-16c-8.8245,0-16,7.1776-16,16S195.1755,40,204,40z"/>
	<path fill="none" d="M72,140c0,8.8224,7.1755,16,16,16c8.8243,0,16-7.1776,16-16s-7.1757-16-16-16C79.1755,124,72,131.1776,72,140z
		"/>
	<path fill="none" d="M204,124c-8.8245,0-16,7.1776-16,16s7.1755,16,16,16c8.8243,0,16-7.1776,16-16S212.8243,124,204,124z"/>
	<path fill="none" d="M92,116.3612c10.0283,1.6936,17.9455,9.6104,19.6387,19.6388H136v-24.3612
		c-10.0285-1.6936-17.9457-9.6104-19.6389-19.6388H92V116.3612z"/>
	<path fill="none" d="M200,47.6388C189.9715,45.9452,182.0543,38.0284,180.3611,28h-68.7224
		C109.9455,38.0284,102.0283,45.9452,92,47.6388V84h24.3611c1.9136-11.3324,11.77-20,23.6389-20c13.2343,0,24,10.7656,24,24
		c0,11.8692-8.6677,21.7256-20,23.6388V136h36.3611c1.6932-10.0284,9.6104-17.9452,19.6389-19.6388V47.6388z"/>
	<path fill="none" d="M156,88c0-8.8224-7.1757-16-16-16c-8.8245,0-16,7.1776-16,16s7.1755,16,16,16C148.8243,104,156,96.8224,156,88
		z"/>
	<path d="M208,116.3612V47.6388C219.3323,45.7256,228,35.8692,228,24c0-13.2344-10.7657-24-24-24
		c-11.8689,0-21.7253,8.6676-23.6389,20h-68.7224C109.7251,8.6676,99.8687,0,88,0C74.7655,0,64,10.7656,64,24
		c0,11.8692,8.6675,21.7256,20,23.6388V84H47.6387C45.7251,72.6676,35.8687,64,24,64C10.7655,64,0,74.7656,0,88
		c0,11.8692,8.6675,21.7256,20,23.6388v68.7224C8.6675,182.2744,0,192.1308,0,204c0,13.2344,10.7655,24,24,24
		c11.8687,0,21.7251-8.6676,23.6387-20h68.7224c1.9136,11.3324,11.77,20,23.6389,20c13.2343,0,24-10.7656,24-24
		c0-11.8692-8.6677-21.7256-20-23.6388V144h36.3611c1.9136,11.3324,11.77,20,23.6389,20c13.2343,0,24-10.7656,24-24
		C228,128.1308,219.3323,118.2744,208,116.3612z M204,8c8.8243,0,16,7.1776,16,16s-7.1757,16-16,16c-8.8245,0-16-7.1776-16-16
		S195.1755,8,204,8z M72,24c0-8.8224,7.1755-16,16-16c8.8243,0,16,7.1776,16,16s-7.1757,16-16,16C79.1755,40,72,32.8224,72,24z
		 M8,88c0-8.8224,7.1755-16,16-16c8.8243,0,16,7.1776,16,16s-7.1757,16-16,16C15.1755,104,8,96.8224,8,88z M24,220
		c-8.8245,0-16-7.1776-16-16s7.1755-16,16-16c8.8243,0,16,7.1776,16,16S32.8243,220,24,220z M156,204c0,8.8224-7.1757,16-16,16
		c-8.8245,0-16-7.1776-16-16s7.1755-16,16-16C148.8243,188,156,195.1776,156,204z M136,180.3612
		c-10.0285,1.6936-17.9457,9.6104-19.6389,19.6388H47.6387C45.9455,189.9716,38.0283,182.0548,28,180.3612v-68.7224
		C38.0283,109.9452,45.9455,102.0284,47.6387,92H84v24.3612C72.6675,118.2744,64,128.1308,64,140c0,13.2344,10.7655,24,24,24
		c11.8687,0,21.7251-8.6676,23.6387-20H136V180.3612z M116.3611,92c1.6932,10.0284,9.6104,17.9452,19.6389,19.6388V136h-24.3613
		c-1.6932-10.0284-9.6104-17.9452-19.6387-19.6388V92H116.3611z M140,104c-8.8245,0-16-7.1776-16-16s7.1755-16,16-16
		c8.8243,0,16,7.1776,16,16S148.8243,104,140,104z M88,124c8.8243,0,16,7.1776,16,16s-7.1757,16-16,16c-8.8245,0-16-7.1776-16-16
		S79.1755,124,88,124z M180.3611,136H144v-24.3612c11.3323-1.9132,20-11.7696,20-23.6388c0-13.2344-10.7657-24-24-24
		c-11.8689,0-21.7253,8.6676-23.6389,20H92V47.6388c10.0283-1.6936,17.9455-9.6104,19.6387-19.6388h68.7224
		c1.6932,10.0284,9.6104,17.9452,19.6389,19.6388v68.7224C189.9715,118.0548,182.0543,125.9716,180.3611,136z M204,156
		c-8.8245,0-16-7.1776-16-16s7.1755-16,16-16c8.8243,0,16,7.1776,16,16S212.8243,156,204,156z"/>
</g>
</svg>
