<?xml version="1.0" encoding="utf-8"?>
<!-- Generator: Adobe Illustrator 19.2.0, SVG Export Plug-In . SVG Version: 6.00 Build 0)  -->
<svg version="1.1" id="starconstelation" xmlns="http://www.w3.org/2000/svg" xmlns:xlink="http://www.w3.org/1999/xlink" x="0px"
	 y="0px" viewBox="0 0 232.9376 229.0548" enable-background="new 0 0 232.9376 229.0548" xml:space="preserve">
<g>
	<path fill="none" d="M97.418,37.1876l2.4648,8.4784l2.4648-8.4784c0.3792-1.3144,1.4104-2.342,2.7228-2.7248L113.5508,32
		l-8.4804-2.4628c-1.3124-0.3828-2.3436-1.41-2.7228-2.7248l-2.4648-8.4784l-2.4648,8.4784c-0.3788,1.3148-1.41,2.342-2.7228,2.7248
		L86.2148,32l8.4804,2.4628C96.008,34.8456,97.0392,35.8732,97.418,37.1876z"/>
	<path fill="none" d="M135.8204,93.2128l15.2016-4.4172L108.1404,45.916l-4.4176,15.2012c-0.496,1.7072-2.0624,2.8828-3.84,2.8828
		c-1.7772,0-3.3436-1.1756-3.8396-2.8828L91.6289,45.928L45.9152,91.6256l15.202,4.4176C62.8244,96.5412,64,98.1056,64,99.8848
		c0,1.7792-1.1756,3.344-2.8828,3.842l-15.2028,4.418l42.8832,42.8796l4.4172-15.2c0.496-1.7072,2.0624-2.8828,3.84-2.8828
		c1.7772,0,3.3436,1.1756,3.8396,2.8828l4.418,15.2012l45.7232-45.7076l-15.2152-4.4216c-1.7072-0.498-2.8828-2.0624-2.8828-3.8416
		C132.9376,95.2756,134.1132,93.7112,135.8204,93.2128z"/>
	<path fill="none" d="M99.5196,159.752l-2.4648-8.4784L94.59,159.752c-0.3792,1.3144-1.4104,2.342-2.7228,2.7248l-8.4804,2.4648
		l8.4804,2.4628c1.3124,0.3828,2.3436,1.41,2.7228,2.7248l2.4648,8.4784l2.4648-8.4784c0.3788-1.3148,1.41-2.342,2.7228-2.7248
		l8.4804-2.4628l-8.4804-2.4648C100.9296,162.094,99.8984,161.0664,99.5196,159.752z"/>
	<path fill="none" d="M37.1876,102.3476l8.4804-2.4628l-8.4804-2.4628c-1.3124-0.3828-2.3436-1.41-2.7227-2.7248L32,86.2188
		l-2.4648,8.4784c-0.3788,1.3148-1.41,2.342-2.7228,2.7248l-8.4804,2.4628l8.4804,2.4628c1.3128,0.3828,2.344,1.4104,2.7228,2.7248
		L32,113.5508l2.4649-8.4784C34.844,103.758,35.8752,102.7304,37.1876,102.3476z"/>
	<path fill="none" d="M203.4024,191.8672l-2.4648-8.4784l-2.4647,8.4784c-0.3789,1.3144-1.4105,2.342-2.7229,2.7248l-8.4804,2.4628
		l8.4804,2.4628c1.3124,0.3828,2.344,1.4104,2.7229,2.7248l2.4647,8.4784l2.4648-8.4784c0.3788-1.3144,1.41-2.342,2.7228-2.7248
		l8.4804-2.4628l-8.4804-2.4628C204.8124,194.2092,203.7812,193.1816,203.4024,191.8672z"/>
	<path fill="none" d="M170.1252,94.592c-1.3128-0.3828-2.344-1.4104-2.7228-2.7248l-2.4648-8.4784l-2.4647,8.4784
		c-0.3789,1.3144-1.4105,2.342-2.7229,2.7248l-8.4804,2.4628l8.4804,2.4628c1.3124,0.3828,2.344,1.4104,2.7229,2.7248l2.4647,8.4784
		l2.4648-8.4784c0.3788-1.3144,1.41-2.342,2.7228-2.7248l8.4804-2.4628L170.1252,94.592z"/>
	<path d="M194.0548,100.8964c1.7068-0.498,2.8828-2.0624,2.8828-3.8416c0-1.7792-1.176-3.3436-2.8828-3.842l-19.5859-5.6912
		l-5.6917-19.584c-0.496-1.7072-2.0624-2.8828-3.8396-2.8828c-1.7772,0-3.3436,1.1756-3.84,2.8828l-4.418,15.2032L113.7969,40.26
		L129,35.842c1.7072-0.498,2.8828-2.0628,2.8828-3.842c0-1.7792-1.1756-3.3436-2.8828-3.8416l-19.586-5.6916l-5.6912-19.584
		C103.2268,1.176,101.6604,0,99.8828,0c-1.7772,0-3.3436,1.176-3.8396,2.8828l-5.6916,19.584l-19.586,5.6916
		c-1.7068,0.498-2.8828,2.0624-2.8828,3.8416c0,1.7792,1.176,3.344,2.8828,3.842l15.214,4.4208l-45.722,45.706L35.84,70.7676
		c-0.496-1.7068-2.0628-2.8828-3.84-2.8828c-1.7772,0-3.3436,1.176-3.8396,2.8828l-5.6915,19.584L2.8828,96.0432
		C1.176,96.5412,0,98.1056,0,99.8848c0,1.7792,1.176,3.344,2.8828,3.842l19.5861,5.6912l5.6915,19.584
		c0.496,1.7072,2.0624,2.8828,3.8396,2.8828c1.7772,0,3.344-1.1756,3.84-2.8828l4.4176-15.2016l42.8844,42.8812l-15.2044,4.418
		c-1.7072,0.498-2.8828,2.0628-2.8828,3.842c0,1.7792,1.1756,3.3436,2.8828,3.8416l19.586,5.6916l5.6912,19.584
		c0.496,1.7068,2.0624,2.8828,3.84,2.8828c1.7772,0,3.3436-1.176,3.8396-2.8828l5.6916-19.584l19.586-5.6916
		c1.7068-0.498,2.8828-2.0624,2.8828-3.8416c0-1.7792-1.176-3.344-2.8828-3.842l-15.2024-4.4172l45.7144-45.698l4.4136,15.1876
		c0.4964,1.7072,2.0628,2.8828,3.84,2.8828c1.7772,0,3.3436-1.1756,3.8396-2.8828l5.6917-19.584L194.0548,100.8964z
		 M135.8204,100.8964l15.2152,4.4216l-45.7232,45.7076l-4.418-15.2012c-0.496-1.7072-2.0624-2.8828-3.8396-2.8828
		c-1.7776,0-3.344,1.1756-3.84,2.8828l-4.4172,15.2l-42.8832-42.8796l15.2028-4.418C62.8244,103.2288,64,101.664,64,99.8848
		c0-1.7792-1.1756-3.3436-2.8828-3.8416l-15.202-4.4176L91.6289,45.928l4.4143,15.1892C96.5392,62.8244,98.1056,64,99.8828,64
		c1.7776,0,3.344-1.1756,3.84-2.8828l4.4176-15.2012l42.8816,42.8796l-15.2016,4.4172c-1.7072,0.4984-2.8828,2.0628-2.8828,3.842
		C132.9376,98.834,134.1132,100.3984,135.8204,100.8964z M94.6952,29.5372c1.3128-0.3828,2.344-1.41,2.7228-2.7248l2.4648-8.4784
		l2.4648,8.4784c0.3792,1.3148,1.4104,2.342,2.7228,2.7248L113.5508,32l-8.4804,2.4628c-1.3124,0.3828-2.3436,1.4104-2.7228,2.7248
		l-2.4648,8.4784l-2.4648-8.4784c-0.3788-1.3144-1.41-2.342-2.7228-2.7248L86.2148,32L94.6952,29.5372z M32,113.5508l-2.4648-8.4784
		c-0.3788-1.3144-1.41-2.342-2.7228-2.7248l-8.4804-2.4628l8.4804-2.4628c1.3128-0.3828,2.344-1.41,2.7228-2.7248L32,86.2188
		l2.4649,8.4784c0.3791,1.3148,1.4103,2.342,2.7227,2.7248l8.4804,2.4628l-8.4804,2.4628
		c-1.3124,0.3828-2.3436,1.4104-2.7227,2.7248L32,113.5508z M102.2424,167.4044c-1.3128,0.3828-2.344,1.41-2.7228,2.7248
		l-2.4648,8.4784l-2.4648-8.4784c-0.3792-1.3148-1.4104-2.342-2.7228-2.7248l-8.4804-2.4628l8.4804-2.4648
		c1.3124-0.3828,2.3436-1.4104,2.7228-2.7248l2.4648-8.4784l2.4648,8.4784c0.3788,1.3144,1.41,2.342,2.7228,2.7248l8.4804,2.4648
		L102.2424,167.4044z M167.4024,102.2424l-2.4648,8.4784l-2.4647-8.4784c-0.3789-1.3144-1.4105-2.342-2.7229-2.7248l-8.4804-2.4628
		l8.4804-2.4628c1.3124-0.3828,2.344-1.4104,2.7229-2.7248l2.4647-8.4784l2.4648,8.4784c0.3788,1.3144,1.41,2.342,2.7228,2.7248
		l8.4804,2.4628l-8.4804,2.4628C168.8124,99.9004,167.7812,100.928,167.4024,102.2424z"/>
	<path d="M230.0548,193.2128l-19.5859-5.6912l-5.6917-19.584c-0.496-1.7072-2.0624-2.8828-3.8396-2.8828
		c-1.7772,0-3.3436,1.1756-3.84,2.8828l-5.6912,19.584l-19.586,5.6912c-1.7072,0.4984-2.8828,2.0628-2.8828,3.842
		c0,1.7792,1.1756,3.3436,2.8828,3.8416l19.586,5.6916l5.6912,19.584c0.4964,1.7072,2.0628,2.8828,3.84,2.8828
		c1.7772,0,3.3436-1.1756,3.8396-2.8828l5.6917-19.584l19.5859-5.6916c1.7068-0.498,2.8828-2.0624,2.8828-3.8416
		C232.9376,195.2756,231.7616,193.7112,230.0548,193.2128z M206.1252,199.5176c-1.3128,0.3828-2.344,1.4104-2.7228,2.7248
		l-2.4648,8.4784l-2.4647-8.4784c-0.3789-1.3144-1.4105-2.342-2.7229-2.7248l-8.4804-2.4628l8.4804-2.4628
		c1.3124-0.3828,2.344-1.4104,2.7229-2.7248l2.4647-8.4784l2.4648,8.4784c0.3788,1.3144,1.41,2.342,2.7228,2.7248l8.4804,2.4628
		L206.1252,199.5176z"/>
</g>
</svg>
