<?xml version="1.0" encoding="utf-8"?>
<!-- Generator: Adobe Illustrator 19.2.0, SVG Export Plug-In . SVG Version: 6.00 Build 0)  -->
<svg version="1.1" id="star" xmlns="http://www.w3.org/2000/svg" xmlns:xlink="http://www.w3.org/1999/xlink" x="0px" y="0px"
	 viewBox="0 0 224 224" enable-background="new 0 0 224 224" xml:space="preserve">
<g>
	<path fill="none" d="M112,8C54.6544,8,8,54.6524,8,112c0,57.3476,46.6544,104,104,104c57.3456,0,104-46.6524,104-104
		C216,54.6524,169.3456,8,112,8z M134.7751,83.5664l36.4512-36.4492c1.5628-1.5624,4.094-1.5624,5.6564,0
		c1.5624,1.5624,1.5624,4.0936,0,5.6564l-36.4512,36.4492c-0.7812,0.7812-1.8048,1.1716-2.828,1.1716
		c-1.0236,0-2.0468-0.3904-2.8284-1.1716C133.2128,87.66,133.2128,85.1288,134.7751,83.5664z M28,112c0,2.2108-1.7912,4-4,4
		c-2.2088,0-4-1.7892-4-4c0-50.7304,41.2716-92,92-92c2.2088,0,4,1.7892,4,4c0,2.2108-1.7912,4-4,4C65.6816,28,28,65.6836,28,112z
		 M84.2248,147.828l-32.3204,32.3204c-0.7812,0.7812-1.8048,1.172-2.8284,1.172c-1.0232,0-2.0468-0.3908-2.828-1.172
		c-1.5624-1.5624-1.5624-4.0936,0-5.6564l32.3204-32.32c1.5624-1.5628,4.0936-1.5628,5.6564,0
		C85.7872,143.7344,85.7872,146.2656,84.2248,147.828z M76.7772,100.5548l24.338-3.5392L112,74.9608l10.8848,22.0548l24.338,3.5392
		l-17.6116,17.168l4.1584,24.242L112,130.5196l-21.7696,11.4452l4.1584-24.242L76.7772,100.5548z M114,208c-2.2088,0-4-1.7892-4-4
		c0-2.2108,1.7912-4,4-4c47.42,0,86-38.578,86-86c0-2.2108,1.7912-4,4-4c2.2088,0,4,1.7892,4,4C208,165.832,165.832,208,114,208z"/>
	<polygon fill="none" points="100.8556,127.34 112,121.4804 123.1444,127.34 121.0156,114.9336 130.0352,106.1408 117.5724,104.328 
		112,93.0392 106.4276,104.328 93.9648,106.1408 102.9844,114.9336 	"/>
	<path d="M112,0C50.242,0,0,50.242,0,112s50.242,112,112,112c61.7579,0,112-50.242,112-112S173.7579,0,112,0z M112,216
		C54.6544,216,8,169.3476,8,112C8,54.6524,54.6544,8,112,8c57.3456,0,104,46.6524,104,104C216,169.3476,169.3456,216,112,216z"/>
	<path d="M112,130.5196l21.7695,11.4452l-4.1584-24.242l17.6116-17.168l-24.338-3.5392L112,74.9608l-10.8848,22.0548l-24.338,3.5392
		l17.6116,17.168l-4.1584,24.242L112,130.5196z M93.9648,106.1408l12.4628-1.8128L112,93.0392l5.5724,11.2888l12.4628,1.8128
		l-9.0196,8.7928l2.1288,12.4064L112,121.4804l-11.1444,5.8596l2.1288-12.4064L93.9648,106.1408z"/>
	<path d="M204,110c-2.2088,0-4,1.7892-4,4c0,47.422-38.58,86-86,86c-2.2088,0-4,1.7892-4,4c0,2.2108,1.7912,4,4,4
		c51.832,0,94-42.168,94-94C208,111.7892,206.2088,110,204,110z"/>
	<path d="M112,28c2.2088,0,4-1.7892,4-4c0-2.2108-1.7912-4-4-4c-50.7284,0-92,41.2696-92,92c0,2.2108,1.7912,4,4,4
		c2.2088,0,4-1.7892,4-4C28,65.6836,65.6816,28,112,28z"/>
	<path d="M137.6036,90.3944c1.0232,0,2.0468-0.3904,2.828-1.1716l36.4512-36.4492c1.5624-1.5628,1.5624-4.094,0-5.6564
		c-1.5624-1.5624-4.0936-1.5624-5.6564,0l-36.4512,36.4492c-1.5624,1.5624-1.5624,4.0936,0,5.6564
		C135.5567,90.004,136.58,90.3944,137.6036,90.3944z"/>
	<path d="M78.5684,142.172l-32.3204,32.32c-1.5624,1.5628-1.5624,4.094,0,5.6564c0.7812,0.7812,1.8048,1.172,2.828,1.172
		c1.0236,0,2.0472-0.3908,2.8284-1.172l32.3204-32.3204c1.5624-1.5624,1.5624-4.0936,0-5.656
		C82.662,140.6092,80.1308,140.6092,78.5684,142.172z"/>
</g>
</svg>
