<?xml version="1.0" encoding="utf-8"?>
<!-- Generator: Adobe Illustrator 19.2.0, SVG Export Plug-In . SVG Version: 6.00 Build 0)  -->
<svg version="1.1" id="structurechemical" xmlns="http://www.w3.org/2000/svg" xmlns:xlink="http://www.w3.org/1999/xlink" x="0px"
	 y="0px" viewBox="0 0 216 224" enable-background="new 0 0 216 224" xml:space="preserve">
<g>
	<circle fill="none" cx="98" cy="118" r="6"/>
	<path fill="none" d="M128,28c0-11.0272-8.9728-20-20-20c-11.0272,0-20,8.9728-20,20s8.9728,20,20,20
		C119.0272,48,128,39.0272,128,28z M100,28c0,2.2088-1.7912,4-4,4c-2.2088,0-4-1.7912-4-4c0-8.8224,7.1776-16,16-16
		c2.2088,0,4,1.7912,4,4s-1.7912,4-4,4C103.588,20,100,23.588,100,28z"/>
	<path fill="none" d="M108,96c-17.6444,0-32,14.3556-32,32s14.3556,32,32,32c17.6444,0,32-14.3556,32-32S125.6444,96,108,96z
		 M98,132c-7.7188,0-14-6.2812-14-14s6.2812-14,14-14c7.7188,0,14,6.2812,14,14S105.7188,132,98,132z"/>
	<path fill="none" d="M188,176c-5.4872,0-10.4608,2.2264-14.0784,5.818l-0.1956,0.2152C170.1944,185.6416,168,190.5644,168,196
		c0,11.0272,8.9728,20,20,20c11.0272,0,20-8.9728,20-20S199.0272,176,188,176z M188,188c-4.412,0-8,3.588-8,8c0,2.2088-1.7912,4-4,4
		c-2.2088,0-4-1.7912-4-4c0-8.8224,7.1776-16,16-16c2.2088,0,4,1.7912,4,4S190.2088,188,188,188z"/>
	<path fill="none" d="M28,176c-11.0272,0-20,8.9728-20,20s8.9728,20,20,20c11.0272,0,20-8.9728,20-20S39.0272,176,28,176z M28,188
		c-4.412,0-8,3.588-8,8c0,2.2088-1.7912,4-4,4c-2.2088,0-4-1.7912-4-4c0-8.8224,7.1776-16,16-16c2.2088,0,4,1.7912,4,4
		S30.2088,188,28,188z"/>
	<path d="M98,104c-7.7188,0-14,6.2812-14,14s6.2812,14,14,14c7.7188,0,14-6.2812,14-14S105.7188,104,98,104z M98,124
		c-3.3084,0-6-2.6916-6-6s2.6916-6,6-6c3.3084,0,6,2.6916,6,6S101.3084,124,98,124z"/>
	<path d="M188,168c-6.6644,0-12.786,2.3488-17.5988,6.2508l-28.184-25.6404C145.862,142.5816,148,135.5444,148,128
		c0-20.7064-15.8148-37.7836-36-39.7972v-32.522C125.5464,53.7296,136,42.078,136,28c0-15.4396-12.5604-28-28-28
		C92.5604,0,80,12.5604,80,28c0,14.078,10.4536,25.7296,24,27.6808v32.522C83.8148,90.2164,68,107.2936,68,128
		c0,7.542,2.1364,14.578,5.7796,20.6056l-27.946,25.826C40.9864,170.4168,34.7708,168,28,168c-15.4396,0-28,12.5604-28,28
		s12.5604,28,28,28c15.4396,0,28-12.5604,28-28c0-5.79-1.7668-11.1752-4.7892-15.6452l27.396-25.3176
		C85.922,162.9832,96.3732,168,108,168c11.6272,0,22.0784-5.0168,29.3936-12.9632l27.5712,25.0832
		C161.8412,184.6368,160,190.1044,160,196c0,15.4396,12.5604,28,28,28c15.4396,0,28-12.5604,28-28S203.4396,168,188,168z M28,216
		c-11.0272,0-20-8.9728-20-20s8.9728-20,20-20c11.0272,0,20,8.9728,20,20S39.0272,216,28,216z M88,28c0-11.0272,8.9728-20,20-20
		c11.0272,0,20,8.9728,20,20s-8.9728,20-20,20C96.9728,48,88,39.0272,88,28z M108,160c-17.6444,0-32-14.3556-32-32s14.3556-32,32-32
		c17.6444,0,32,14.3556,32,32S125.6444,160,108,160z M188,216c-11.0272,0-20-8.9728-20-20c0-5.4356,2.1944-10.3584,5.726-13.9668
		l0.1956-0.2152C177.5392,178.2264,182.5128,176,188,176c11.0272,0,20,8.9728,20,20S199.0272,216,188,216z"/>
	<path d="M188,180c-8.8224,0-16,7.1776-16,16c0,2.2088,1.7912,4,4,4c2.2088,0,4-1.7912,4-4c0-4.412,3.588-8,8-8
		c2.2088,0,4-1.7912,4-4S190.2088,180,188,180z"/>
	<path d="M28,180c-8.8224,0-16,7.1776-16,16c0,2.2088,1.7912,4,4,4c2.2088,0,4-1.7912,4-4c0-4.412,3.588-8,8-8
		c2.2088,0,4-1.7912,4-4S30.2088,180,28,180z"/>
	<path d="M112,16c0-2.2088-1.7912-4-4-4c-8.8224,0-16,7.1776-16,16c0,2.2088,1.7912,4,4,4c2.2088,0,4-1.7912,4-4
		c0-4.412,3.588-8,8-8C110.2088,20,112,18.2088,112,16z"/>
</g>
</svg>
