<?xml version="1.0" encoding="utf-8"?>
<!-- Generator: Adobe Illustrator 19.2.0, SVG Export Plug-In . SVG Version: 6.00 Build 0)  -->
<svg version="1.1" id="sun" xmlns="http://www.w3.org/2000/svg" xmlns:xlink="http://www.w3.org/1999/xlink" x="0px" y="0px"
	 viewBox="0 0 180.492 214" enable-background="new 0 0 180.492 214" xml:space="preserve">
<g>
	<path fill="none" d="M110,74c-6.6173,0-12,5.3828-12,12c0,6.6172,5.3827,12,12,12c6.6171,0,12-5.3828,12-12
		C122,79.3828,116.6171,74,110,74z"/>
	<circle fill="none" cx="72" cy="136" r="6"/>
	<path fill="none" d="M54,90c-4.4101,0-8,3.59-8,8c0,4.41,3.5899,8,8,8c4.4099,0,8-3.59,8-8C62,93.59,58.4099,90,54,90z"/>
	<path fill="none" d="M90,38c-35.2893,0-64,28.7108-64,64c0,35.2892,28.7107,64,64,64c35.2891,0,64-28.7108,64-64
		C154,66.7108,125.2891,38,90,38z M38,98c0-8.8244,7.1755-16,16-16c8.8243,0,16,7.1756,16,16c0,8.8244-7.1757,16-16,16
		C45.1755,114,38,106.8244,38,98z M72,150c-7.7189,0-14-6.2812-14-14c0-7.7188,6.2811-14,14-14c7.7187,0,14,6.2812,14,14
		C86,143.7188,79.7187,150,72,150z M110,106c-11.0273,0-20-8.9728-20-20c0-11.0272,8.9727-20,20-20c11.0271,0,20,8.9728,20,20
		C130,97.0272,121.0271,106,110,106z"/>
	<path d="M110,66c-11.0273,0-20,8.9728-20,20c0,11.0272,8.9727,20,20,20c11.0271,0,20-8.9728,20-20C130,74.9728,121.0271,66,110,66z
		 M110,98c-6.6173,0-12-5.3828-12-12c0-6.6172,5.3827-12,12-12c6.6171,0,12,5.3828,12,12C122,92.6172,116.6171,98,110,98z"/>
	<path d="M72,122c-7.7189,0-14,6.2812-14,14c0,7.7188,6.2811,14,14,14c7.7187,0,14-6.2812,14-14C86,128.2812,79.7187,122,72,122z
		 M72,142c-3.3085,0-6-2.6916-6-6c0-3.3084,2.6915-6,6-6c3.3083,0,6,2.6916,6,6C78,139.3084,75.3083,142,72,142z"/>
	<path d="M70,98c0-8.8244-7.1757-16-16-16c-8.8245,0-16,7.1756-16,16c0,8.8244,7.1755,16,16,16C62.8243,114,70,106.8244,70,98z
		 M54,106c-4.4101,0-8-3.59-8-8c0-4.41,3.5899-8,8-8c4.4099,0,8,3.59,8,8C62,102.41,58.4099,106,54,106z"/>
	<path d="M176.492,94h-14.964c-1.9557-17.588-10.2965-33.2364-22.6157-44.682l29.2008-29.2048c1.5624-1.5624,1.5624-4.0936,0-5.656
		c-1.5624-1.5628-4.0936-1.5628-5.656,0l-29.7264,29.73c-10.96-8.1228-24.2696-13.184-38.7307-13.9844V4c0-2.2108-1.7893-4-4-4
		c-2.2109,0-4,1.7892-4,4v26.2028c-15.8809,0.8788-30.4221,6.8444-41.932,16.4052c-0.1345-0.1936-0.2157-0.412-0.3885-0.5844
		l-11.664-11.6644c-1.5624-1.5624-4.0936-1.5624-5.6564,0c-1.5624,1.5628-1.5624,4.094,0,5.6564l11.6644,11.664
		c0.1056,0.106,0.2436,0.1464,0.3576,0.238C27.5435,63.0844,20.2815,77.722,18.472,94H4c-2.2109,0-4,1.7892-4,4
		c0,2.2108,1.7891,4,4,4h14c0,18.4124,7.0071,35.1792,18.4195,47.9244l-18.5444,18.5444c-1.5628,1.5624-1.5628,4.0936,0,5.656
		c0.7812,0.7816,1.8044,1.172,2.828,1.172c1.0232,0,2.0468-0.3904,2.828-1.172l18.5444-18.5444
		C53.8863,166.1556,69.1659,172.8656,86,173.7972V210c0,2.2108,1.7891,4,4,4c2.2107,0,4-1.7892,4-4v-36.2028
		c17.9015-0.9912,34.0763-8.4904,46.1551-20.2448c0.1616,0.2632,0.2849,0.544,0.5129,0.772l11.664,11.664
		c0.7811,0.7812,1.8047,1.1716,2.828,1.1716c1.0235,0,2.0471-0.3904,2.8283-1.1716c1.5624-1.5628,1.5624-4.094,0-5.6564
		l-11.664-11.664c-0.2948-0.2948-0.648-0.4796-0.9988-0.6632C155.7259,135.5184,162,119.4816,162,102h14.492c2.2111,0,4-1.7892,4-4
		C180.492,95.7892,178.7031,94,176.492,94z M90,166c-35.2893,0-64-28.7108-64-64c0-35.2892,28.7107-64,64-64
		c35.2891,0,64,28.7108,64,64C154,137.2892,125.2891,166,90,166z"/>
</g>
</svg>
