<?xml version="1.0" encoding="utf-8"?>
<!-- Generator: Adobe Illustrator 19.2.0, SVG Export Plug-In . SVG Version: 6.00 Build 0)  -->
<svg version="1.1" id="telescope" xmlns="http://www.w3.org/2000/svg" xmlns:xlink="http://www.w3.org/1999/xlink" x="0px" y="0px"
	 viewBox="0 0 236.5866 201.1774" enable-background="new 0 0 236.5866 201.1774" xml:space="preserve">
<g>
	<polygon fill="none" points="63.1802,22.6362 63.1814,22.6338 64.0122,18.7242 17.063,8.7458 8.7466,47.8726 55.6958,57.8514 
		57.6094,48.8478 	"/>
	<polygon fill="none" points="136.4422,62.7438 139.7702,47.0934 139.7702,47.0926 140.6022,43.1814 70.1778,28.2126 
		65.187,51.6902 135.6098,66.6578 136.4422,62.7454 	"/>
	<path fill="none" d="M118.5007,111.1774c6.6171,0,12-5.3828,12-12s-5.3829-12-12-12c-6.6173,0-12,5.3828-12,12
		S111.8834,111.1774,118.5007,111.1774z"/>
	<polygon fill="none" points="146.7662,52.6694 145.1022,60.4958 223.3522,77.1286 224.1842,73.2154 225.0158,69.3022 	"/>
	<path d="M228.7586,51.697l-2.0796,9.7816l-78.252-16.6344l0.8316-3.9108c0.4568-2.1624-0.9219-4.2852-3.0824-4.7444L71.841,20.3882
		l0.8317-3.912c0.2187-1.0372,0.0195-2.1212-0.5589-3.0096c-0.578-0.8908-1.4844-1.514-2.5232-1.7344L14.813,0.0894
		c-2.156-0.4628-4.2852,0.916-4.746,3.08L0.0866,50.1206c-0.2188,1.0372-0.0196,2.1212,0.5584,3.01
		c0.5784,0.8904,1.4844,1.5136,2.5237,1.7344l54.7771,11.6424c0.2812,0.0608,0.5589,0.088,0.836,0.088
		c1.8476,0,3.508-1.2872,3.9104-3.168l0.832-3.914l74.3356,15.8008c0.2776,0.0584,0.5548,0.088,0.8324,0.088
		c0.7656,0,1.5232-0.2208,2.1796-0.6448c0.8868-0.578,1.5116-1.4864,1.7344-2.5232l0.8316-3.9144l78.2512,16.6328l-2.0792,9.7816
		l7.8284,1.664l9.1484-43.0372L228.7586,51.697z M8.7466,47.8726L17.063,8.7458l46.9492,9.9784l-0.8308,3.9096l-0.0012,0.0024
		l-5.5708,26.2116l-1.9136,9.0036L8.7466,47.8726z M65.187,51.6902l4.9908-23.4776l70.4244,14.9688l-0.832,3.9112v0.0008
		l-3.328,15.6504v0.0016l-0.8324,3.9124L65.187,51.6902z M223.3522,77.1286l-78.25-16.6328l1.664-7.8264l78.2496,16.6328
		l-0.8316,3.9132L223.3522,77.1286z"/>
	<path d="M132.9118,112.9782c3.4432-3.5944,5.5889-8.4424,5.5889-13.8008c0-11.0272-8.9729-20-20-20c-11.0273,0-20,8.9728-20,20
		c0,5.3584,2.1455,10.2064,5.5887,13.8008l-42.0108,80.1992H45.3598v8h21.5628l43.7804-83.5856
		c1.21,0.5144,2.4804,0.9128,3.7977,1.1812v80.4044h8V118.773c1.3171-0.2684,2.5875-0.6668,3.7975-1.1812l43.7804,83.5856h21.5628
		v-8h-16.7188L132.9118,112.9782z M118.5007,87.1774c6.6171,0,12,5.3828,12,12s-5.3829,12-12,12c-6.6173,0-12-5.3828-12-12
		S111.8834,87.1774,118.5007,87.1774z"/>
</g>
</svg>
