<?xml version="1.0" encoding="utf-8"?>
<!-- Generator: Adobe Illustrator 19.2.0, SVG Export Plug-In . SVG Version: 6.00 Build 0)  -->
<svg version="1.1" id="testtube" xmlns="http://www.w3.org/2000/svg" xmlns:xlink="http://www.w3.org/1999/xlink" x="0px" y="0px"
	 viewBox="0 0 195.0849 228.4998" enable-background="new 0 0 195.0849 228.4998" xml:space="preserve">
<g>
	<circle fill="none" cx="12" cy="105.4158" r="4"/>
	<circle fill="none" cx="112" cy="153.4158" r="4"/>
	<circle fill="none" cx="12" cy="145.4158" r="4"/>
	<circle fill="none" cx="136" cy="137.4158" r="4"/>
	<circle fill="none" cx="128" cy="201.4158" r="4"/>
	<circle fill="none" cx="166" cy="159.4158" r="6"/>
	<path fill="none" d="M171.8828,131.7574c-17.158-17.16-44.414-20.1188-64.8104-7.0332c-1.586,1.0176-3.6624,0.7892-4.9884-0.5388
		L57.5548,79.6562l-17.8084,4.82l9.0992,9.0996c0.0132,0.0132,0.0168,0.032,0.03,0.0452l41.892,41.8808
		c1.33,1.328,1.5548,3.4044,0.5392,4.9884c-13.084,20.3924-10.1232,47.6484,7.0368,64.8084
		c20.2736,20.2736,53.2656,20.2736,73.5392,0C192.1564,185.0234,192.1564,152.033,171.8828,131.7574z M100,153.4158
		c0-6.6172,5.3828-12,12-12c6.6172,0,12,5.3828,12,12s-5.3828,12-12,12C105.3828,165.4158,100,160.033,100,153.4158z M128,213.4158
		c-6.6172,0-12-5.3828-12-12s5.3828-12,12-12c6.6172,0,12,5.3828,12,12S134.6172,213.4158,128,213.4158z M136,149.4158
		c-6.6172,0-12-5.3828-12-12s5.3828-12,12-12c6.6172,0,12,5.3828,12,12S142.6172,149.4158,136,149.4158z M166,173.4158
		c-7.7188,0-14-6.2812-14-14c0-7.7188,6.2812-14,14-14c7.7188,0,14,6.2812,14,14C180,167.1346,173.7188,173.4158,166,173.4158z"/>
	<path d="M177.5392,126.1014c-19.0312-19.0312-48.8244-22.918-72.012-9.7852L65.8168,76.6038l-0.0004-0.0004l-1.3812-1.3808
		l-2.8608-2.8616c-0.0008-0.0004-0.0016-0.0008-0.0016-0.0008L44.6016,55.3906c-1.5624-1.5628-4.0936-1.5628-5.6564,0
		c-1.5624,1.5624-1.5624,4.0936,0,5.656l12.0876,12.086l-17.81,4.8204l-5.59-5.59c-1.5624-1.5624-4.0936-1.5624-5.6564,0
		c-1.5624,1.5624-1.5624,4.094,0,5.6564l7.1488,7.1484c0.0248,0.0264,0.0388,0.0584,0.0644,0.084l53.7088,53.6932
		c-13.1348,23.1836-9.242,52.9788,9.7892,72.01c11.6972,11.6972,27.0604,17.5448,42.4256,17.5448
		c15.3652,0,30.7284-5.8476,42.426-17.5448C200.9335,187.5602,200.9335,149.4938,177.5392,126.1014z M171.8828,205.2986
		c-20.2736,20.2736-53.2656,20.2736-73.5392,0c-17.16-17.16-20.1208-44.416-7.0368-64.8084
		c1.0156-1.584,0.7908-3.6604-0.5392-4.9884L48.8756,93.621c-0.0132-0.0132-0.0168-0.032-0.03-0.0452l-9.0992-9.0996l17.8084-4.82
		l44.5292,44.5292c1.326,1.328,3.4024,1.5564,4.9884,0.5388c20.3964-13.0856,47.6524-10.1268,64.8104,7.0332
		C192.1564,152.033,192.1564,185.0234,171.8828,205.2986z"/>
	<path d="M166,145.4158c-7.7188,0-14,6.2812-14,14c0,7.7188,6.2812,14,14,14c7.7188,0,14-6.2812,14-14
		C180,151.697,173.7188,145.4158,166,145.4158z M166,165.4158c-3.3084,0-6-2.6916-6-6c0-3.3084,2.6916-6,6-6c3.3083,0,6,2.6916,6,6
		C172,162.7242,169.3083,165.4158,166,165.4158z"/>
	<path d="M128,189.4158c-6.6172,0-12,5.3828-12,12s5.3828,12,12,12c6.6172,0,12-5.3828,12-12S134.6172,189.4158,128,189.4158z
		 M128,205.4158c-2.2052,0-4-1.7948-4-4s1.7948-4,4-4c2.2052,0,4,1.7948,4,4S130.2052,205.4158,128,205.4158z"/>
	<path d="M124,153.4158c0-6.6172-5.3828-12-12-12c-6.6172,0-12,5.3828-12,12s5.3828,12,12,12
		C118.6172,165.4158,124,160.033,124,153.4158z M112,157.4158c-2.2052,0-4-1.7948-4-4s1.7948-4,4-4c2.2052,0,4,1.7948,4,4
		S114.2052,157.4158,112,157.4158z"/>
	<path d="M136,125.4158c-6.6172,0-12,5.3828-12,12s5.3828,12,12,12c6.6172,0,12-5.3828,12-12S142.6172,125.4158,136,125.4158z
		 M136,141.4158c-2.2052,0-4-1.7948-4-4s1.7948-4,4-4c2.2052,0,4,1.7948,4,4S138.2052,141.4158,136,141.4158z"/>
	<path d="M12,93.4158c-6.6172,0-12,5.3828-12,12c0,6.6172,5.3828,12,12,12c6.6172,0,12-5.3828,12-12
		C24,98.7986,18.6172,93.4158,12,93.4158z M12,109.4158c-2.2052,0-4-1.7948-4-4s1.7948-4,4-4c2.2052,0,4,1.7948,4,4
		S14.2052,109.4158,12,109.4158z"/>
	<path d="M12,133.4158c-6.6172,0-12,5.3828-12,12s5.3828,12,12,12c6.6172,0,12-5.3828,12-12S18.6172,133.4158,12,133.4158z
		 M12,149.4158c-2.2052,0-4-1.7948-4-4s1.7948-4,4-4c2.2052,0,4,1.7948,4,4S14.2052,149.4158,12,149.4158z"/>
	<path d="M22.4728,52.2242c0.7676,1.172,2.0448,1.8088,3.3496,1.8088c0.752,0,1.5116-0.2108,2.1872-0.6544
		c1.848-1.2088,2.3656-3.6892,1.1544-5.5372c-7.4744-11.416-4.8904-14.5136-1.3124-18.8008
		c5.1248-6.1404,8.9452-12.8436-0.4864-27.2324c-1.2108-1.8476-3.6932-2.3652-5.5392-1.152
		c-1.8476,1.2108-2.3632,3.6912-1.152,5.5388c6.9628,10.6192,4.6052,13.4436,1.0348,17.7208
		C16.4608,30.205,12.5704,37.1014,22.4728,52.2242z"/>
</g>
</svg>
