<?xml version="1.0" encoding="utf-8"?>
<!-- Generator: Adobe Illustrator 19.2.0, SVG Export Plug-In . SVG Version: 6.00 Build 0)  -->
<svg version="1.1" id="testflask" xmlns="http://www.w3.org/2000/svg" xmlns:xlink="http://www.w3.org/1999/xlink" x="0px" y="0px"
	 viewBox="0 0 151.2033 199.2072" enable-background="new 0 0 151.2033 199.2072" xml:space="preserve">
<g>
	
		<rect x="63.9893" y="54.2218" transform="matrix(0.5 -0.866 0.866 0.5 -22.2844 109.8427)" fill="none" width="39.9963" height="39.9981"/>
	<path fill="none" d="M52.6676,88.4688l-41.986,72.7228c-5.5212,9.5624-2.244,21.828,7.3068,27.3436
		c9.5468,5.5196,21.8124,2.2188,27.332-7.3436l41.9864-72.7232L52.6676,88.4688z"/>
	<path fill="none" d="M43.2033,36c4.412,0,8-3.59,8-8c0-4.41-3.588-8-8-8s-8,3.59-8,8C35.2033,32.41,38.7913,36,43.2033,36z"/>
	<path fill="none" d="M113.2033,80c-0.07,0-0.128-0.036-0.1972-0.0396l-12.1336,21.0144c0.1668,0.1784,0.3688,0.3116,0.5048,0.5252
		c2.5876,4.0704,7.0096,6.5,11.826,6.5c7.7188,0,14-6.2812,14-14S120.922,80,113.2033,80z"/>
	<circle fill="none" cx="139.2033" cy="12" r="4"/>
	<circle fill="none" cx="131.2033" cy="44" r="4"/>
	<path d="M43.2033,44c8.8224,0,16-7.1756,16-16c0-8.8244-7.1776-16-16-16c-8.8224,0-16,7.1756-16,16
		C27.2033,36.8244,34.3808,44,43.2033,44z M43.2033,20c4.412,0,8,3.59,8,8c0,4.41-3.588,8-8,8s-8-3.59-8-8
		C35.2033,23.59,38.7913,20,43.2033,20z"/>
	<path d="M131.2033,32c-6.6173,0-12,5.3828-12,12c0,6.6172,5.3828,12,12,12c6.6171,0,12-5.3828,12-12
		C143.2033,37.3828,137.8204,32,131.2033,32z M131.2033,48c-2.2053,0-4-1.7928-4-4c0-2.2072,1.7947-4,4-4c2.2051,0,4,1.7928,4,4
		C135.2033,46.2072,133.4084,48,131.2033,48z"/>
	<path d="M139.2033,0c-6.6172,0-12,5.3828-12,12c0,6.6172,5.3828,12,12,12c6.6171,0,12-5.3828,12-12
		C151.2033,5.3828,145.8204,0,139.2033,0z M139.2033,16c-2.2053,0-4-1.7928-4-4c0-2.2072,1.7947-4,4-4c2.2051,0,4,1.7928,4,4
		C143.2033,14.2072,141.4084,16,139.2033,16z"/>
	<path d="M117.3673,72.4072l2.8692-4.9696c0.5292-0.918,0.674-2.012,0.3984-3.0352c-0.2732-1.0236-0.9452-1.8984-1.8632-2.4296
		l-41.5684-24c-1.92-1.1056-4.3612-0.4532-5.4648,1.4648l-24,41.5664L3.752,157.1916
		c-7.7264,13.3828-3.1348,30.5504,10.2364,38.2732c4.3944,2.5352,9.1972,3.7424,13.9412,3.7424
		c9.6916,0,19.1328-5.0316,24.3204-14.0156l43.9864-76.1876l0.3532-0.612c4.1472,4.8028,10.1452,7.608,16.6136,7.608
		c12.1308,0,22-9.8712,22-22C135.2033,83.2956,127.5116,74.3604,117.3673,72.4072z M76.668,46.9024l34.6388,20l-20,34.6368
		l-34.6388-20L76.668,46.9024z M45.3204,181.1916c-5.5196,9.5624-17.7852,12.8632-27.332,7.3436
		c-9.5508-5.5156-12.828-17.7812-7.3068-27.3436l41.986-72.7228l34.6392,19.9996L45.3204,181.1916z M113.2033,108
		c-4.8164,0-9.2384-2.4296-11.826-6.5c-0.136-0.2136-0.338-0.3468-0.5048-0.5252l12.1336-21.0144
		C113.0753,79.964,113.1332,80,113.2033,80c7.7188,0,14,6.2812,14,14S120.922,108,113.2033,108z"/>
</g>
</svg>
