<?xml version="1.0" encoding="utf-8"?>
<!-- Generator: Adobe Illustrator 19.2.0, SVG Export Plug-In . SVG Version: 6.00 Build 0)  -->
<svg version="1.1" id="tubeflask" xmlns="http://www.w3.org/2000/svg" xmlns:xlink="http://www.w3.org/1999/xlink" x="0px" y="0px"
	 viewBox="0 0 148.001 232" enable-background="new 0 0 148.001 232" xml:space="preserve">
<g>
	<circle fill="none" cx="62" cy="42" r="6"/>
	<path fill="none" d="M20,8C13.3827,8,8,13.3828,8,20s5.3827,12,12,12c6.6171,0,12-5.3828,12-12S26.6171,8,20,8z"/>
	<path fill="none" d="M92,184v-8h24v-16h-12v-8h12v-16H92v-8h24v-12H60v79.996C60,211.4376,72.5623,224,88,224
		c15.4375,0,28-12.5624,28-28.004V184H92z"/>
	<path fill="none" d="M42.4727,80H56c2.2107,0,4,1.7912,4,4v24h56V84c0-2.2088,1.7891-4,4-4h13.5271l4-8H38.4727L42.4727,80z"/>
	<path d="M147.4023,65.8964C146.672,64.7188,145.3867,64,144,64H32c-1.3869,0-2.672,0.7188-3.4025,1.8964
		c-0.7304,1.1796-0.7968,2.6524-0.1756,3.8928l8,16C37.1015,87.1444,38.4843,88,40,88h12v24v83.996C52,215.8496,68.1483,232,88,232
		c19.8515,0,36-16.1504,36-36.004V112V88h12c1.5155,0,2.8983-0.8556,3.5779-2.2108l8-16
		C148.1991,68.5488,148.1327,67.076,147.4023,65.8964z M88,224c-15.4377,0-28-12.5624-28-28.004V116h56v12H92v8h24v16h-12v8h12v16
		H92v8h24v11.996C116,211.4376,103.4375,224,88,224z M133.5271,80H120c-2.2109,0-4,1.7912-4,4v24H60V84c0-2.2088-1.7893-4-4-4
		H42.4727l-4-8h99.0544L133.5271,80z"/>
	<path d="M40,20C40,8.9728,31.0271,0,20,0C8.9727,0,0,8.9728,0,20s8.9727,20,20,20C31.0271,40,40,31.0272,40,20z M20,32
		c-6.6173,0-12-5.3828-12-12S13.3827,8,20,8c6.6171,0,12,5.3828,12,12S26.6171,32,20,32z"/>
	<path d="M62,56c7.7187,0,14-6.2812,14-14s-6.2813-14-14-14c-7.7189,0-14,6.2812-14,14S54.2811,56,62,56z M62,36
		c3.3083,0,6,2.6916,6,6s-2.6917,6-6,6c-3.3085,0-6-2.6916-6-6S58.6915,36,62,36z"/>
</g>
</svg>
