<?xml version="1.0" encoding="utf-8"?>
<!-- Generator: Adobe Illustrator 19.2.0, SVG Export Plug-In . SVG Version: 6.00 Build 0)  -->
<svg version="1.1" id="adjustmentlines" xmlns="http://www.w3.org/2000/svg" xmlns:xlink="http://www.w3.org/1999/xlink" x="0px"
	 y="0px" viewBox="0 0 204.1445 176" enable-background="new 0 0 204.1445 176" xml:space="preserve">
<g>
	<path fill="#8F89F5" d="M102.082,151.1368c10.6208,0,21.3828-2.6992,31.2225-8.3788c29.9179-17.2736,40.2111-55.672,22.9375-85.598
		c-17.2732-29.9216-55.6756-40.2068-85.5975-22.9372C40.7264,51.496,30.4336,89.8944,47.7068,119.8204
		C59.3008,139.9024,80.406,151.1368,102.082,151.1368z M80.9296,145.8984l-4-6.9296l81.2852-46.926l4,6.93L80.9296,145.8984z
		 M156.6405,65.8556l4,6.9296L62.4256,129.492l-4-6.9296L156.6405,65.8556z M41.7344,78.008l81.2812-46.926l4,6.9296
		l-81.2812,46.926L41.7344,78.008z M46.6952,102.2384L144.91,45.5352l4,6.9296L50.6952,109.168L46.6952,102.2384z"/>
	
		<rect x="37.4477" y="54.0092" transform="matrix(0.866 -0.5 0.5 0.866 -17.7007 49.9577)" fill="#A9C7D8" width="93.8546" height="8.0012"/>
	
		<rect x="41.0985" y="73.351" transform="matrix(0.866 -0.5 0.5 0.866 -25.5726 59.2634)" fill="#A9C7D8" width="113.4081" height="8.0012"/>
	
		<rect x="52.8281" y="93.6732" transform="matrix(0.866 -0.5 0.5 0.866 -34.1628 67.855)" fill="#A9C7D8" width="113.41" height="8.0012"/>
	
		<rect x="72.6432" y="114.97" transform="matrix(0.8661 -0.4999 0.4999 0.8661 -43.4619 75.7109)" fill="#A9C7D8" width="93.8579" height="8.0014"/>
	<rect x="0.1445" fill="#F8A131" width="204" height="8"/>
	<rect x="148" y="28" fill="#F8A131" width="56.1445" height="8"/>
	<rect x="148" y="140" fill="#F8A131" width="56.1445" height="8"/>
	<rect y="28" fill="#F8A131" width="56.1445" height="8"/>
	<rect x="168.1445" y="56" fill="#F8A131" width="36" height="8"/>
	<rect x="168.1445" y="112" fill="#F8A131" width="36" height="8"/>
	<rect x="0.1445" y="56" fill="#F8A131" width="36" height="8"/>
	<rect x="172.1445" y="84" fill="#F8A131" width="32" height="8"/>
	<rect x="0.1445" y="168" fill="#9D57C4" width="204" height="8"/>
	<rect x="0.1445" y="140" fill="#9D57C4" width="56.1407" height="8"/>
	<rect x="0.1445" y="112" fill="#9D57C4" width="36" height="8"/>
	<rect x="0.1445" y="84" fill="#9D57C4" width="32" height="8"/>
</g>
</svg>
