<?xml version="1.0" encoding="utf-8"?>
<!-- Generator: Adobe Illustrator 19.2.0, SVG Export Plug-In . SVG Version: 6.00 Build 0)  -->
<svg version="1.1" id="alienship" xmlns="http://www.w3.org/2000/svg" xmlns:xlink="http://www.w3.org/1999/xlink" x="0px" y="0px"
	 viewBox="0 0 224.3611 218.9416" enable-background="new 0 0 224.3611 218.9416" xml:space="preserve">
<g>
	<path fill="#C6DFED" d="M40.1734,94c-4,0-7.824-0.7304-11.3905-2.006L0.1069,214.0272c-0.4764,2.0236,0.68,4.0744,2.6564,4.7188
		c0.4101,0.1328,0.828,0.1956,1.2384,0.1956c1.5704,0,3.0508-0.93,3.6877-2.4512L59.1577,94H40.1734z"/>
	<path fill="#C6DFED" d="M224.2557,214.0312l-28.5472-122.084C192.1069,93.252,188.2361,94,184.1894,94h-18.9845l51.4685,122.4904
		c0.6367,1.5212,2.1171,2.4512,3.6875,2.4512c0.4104,0,0.8245-0.0628,1.2344-0.1956
		C223.5721,218.1056,224.7281,216.0548,224.2557,214.0312z"/>
	<path fill="#C6DFED" d="M117.7749,94h-15.1872h-8.0392l11.6524,120.3848c0.1992,2.0508,1.922,3.6152,3.9805,3.6152
		c2.0583,0,3.7811-1.5644,3.9803-3.6152L125.8101,94H117.7749z"/>
	<path fill="#6FB9B3" d="M184.1894,94c4.0467,0,7.9175-0.748,11.5191-2.0528c13.082-4.7364,22.4729-17.248,22.4729-31.9472
		c0-18.748-15.2501-34-33.992-34h-66.008V0h-12v26h-66.008c-18.7421,0-33.992,15.252-33.992,34
		c0,14.748,9.4531,27.2948,22.6015,31.994C32.3494,93.2696,36.1734,94,40.1734,94h18.9843h35.3908h8.0392h15.1872h8.0352h39.3948
		H184.1894z M60.1814,78H28.1969c-9.9572,0-18.0155-8.0604-18.0155-18c0-9.92,8.0663-18,18.0155-18h31.9845h104h31.9843
		c9.9572,0,18.0157,8.0584,18.0157,18c0,9.92-8.0665,18-18.0157,18h-31.9843H60.1814z"/>
	<path fill="#8BE5DD" d="M214.1814,60c0-9.9416-8.0585-18-18.0157-18h-31.9843c9.9255,0,18,8.0744,18,18s-8.0745,18-18,18h31.9843
		C206.1149,78,214.1814,69.92,214.1814,60z"/>
	<path fill="#8BE5DD" d="M146.1814,60c0-9.9256,8.0743-18,18-18h-104c9.9255,0,18,8.0744,18,18s-8.0745,18-18,18h104
		C154.2557,78,146.1814,69.9256,146.1814,60z M112.1814,74c-7.7189,0-14-6.2812-14-14s6.2811-14,14-14c7.7187,0,14,6.2812,14,14
		S119.9001,74,112.1814,74z"/>
	<path fill="#8BE5DD" d="M42.1814,60c0-9.9256,8.0743-18,18-18H28.1969c-9.9492,0-18.0155,8.08-18.0155,18
		c0,9.9396,8.0583,18,18.0155,18h31.9845C50.2557,78,42.1814,69.9256,42.1814,60z"/>
	<path fill="#FE8657" d="M182.1814,60c0-9.9256-8.0745-18-18-18c-9.9257,0-18,8.0744-18,18s8.0743,18,18,18
		C174.1069,78,182.1814,69.9256,182.1814,60z M164.1814,70c-5.5157,0-10-4.4864-10-10s4.4843-10,10-10c5.5155,0,10,4.4864,10,10
		S169.6969,70,164.1814,70z"/>
	<path fill="#FE8657" d="M78.1814,60c0-9.9256-8.0745-18-18-18c-9.9257,0-18,8.0744-18,18s8.0743,18,18,18
		C70.1069,78,78.1814,69.9256,78.1814,60z M60.1814,70c-5.5157,0-10-4.4864-10-10s4.4843-10,10-10c5.5155,0,10,4.4864,10,10
		S65.6969,70,60.1814,70z"/>
	<path fill="#FE8657" d="M112.1814,46c-7.7189,0-14,6.2812-14,14s6.2811,14,14,14c7.7187,0,14-6.2812,14-14S119.9001,46,112.1814,46
		z M112.1814,66c-3.3085,0-6-2.6916-6-6s2.6915-6,6-6c3.3083,0,6,2.6916,6,6S115.4897,66,112.1814,66z"/>
	<path fill="#FFAE8E" d="M164.1814,50c-5.5157,0-10,4.4864-10,10s4.4843,10,10,10c5.5155,0,10-4.4864,10-10S169.6969,50,164.1814,50
		z"/>
	<path fill="#FFAE8E" d="M60.1814,50c-5.5157,0-10,4.4864-10,10s4.4843,10,10,10c5.5155,0,10-4.4864,10-10S65.6969,50,60.1814,50z"
		/>
	<circle fill="#FFAE8E" cx="112.1814" cy="60" r="6"/>
</g>
</svg>
