<?xml version="1.0" encoding="utf-8"?>
<!-- Generator: Adobe Illustrator 19.2.0, SVG Export Plug-In . SVG Version: 6.00 Build 0)  -->
<svg version="1.1" id="alienship2" xmlns="http://www.w3.org/2000/svg" xmlns:xlink="http://www.w3.org/1999/xlink" x="0px" y="0px"
	 viewBox="0 0 224 200" enable-background="new 0 0 224 200" xml:space="preserve">
<g>
	<path fill="#618287" d="M44.2031,84C46.2891,48.3672,75.8555,20,112,20c2.2107,0,4,1.7892,4,4s-1.7893,4-4,4
		c-31.7345,0-57.7229,24.7812-59.7969,56h147.6952C197.7967,37.328,159.1835,0,112,0C64.8163,0,26.2031,37.328,24.1015,84H44.2031z"
		/>
	<path fill="#A9C7D8" d="M112,28c2.2107,0,4-1.7892,4-4s-1.7893-4-4-4c-36.1445,0-65.7109,28.3672-67.7969,64h8
		C54.2771,52.7812,80.2655,28,112,28z"/>
	<path fill="#535353" d="M88,136h-4v-12h-8v16c0,1.5936,0.9451,2.9416,2.2927,3.586l6.9768-6.5116
		C86.0115,136.3828,86.9883,136,88,136z"/>
	<path fill="#535353" d="M140,136h-4c1.0115,0,1.9883,0.3828,2.7303,1.0744l6.9768,6.5116C147.0547,142.9416,148,141.5936,148,140
		v-16h-8V136z"/>
	<polygon fill="#E06C3E" points="136,136 140,136 140,124 128,124 128,136 	"/>
	<rect x="104" y="124" fill="#E06C3E" width="16" height="12"/>
	<polygon fill="#E06C3E" points="88,136 96,136 96,124 84,124 84,136 	"/>
	<rect x="96" y="124" fill="#535353" width="8" height="12"/>
	<rect x="120" y="124" fill="#535353" width="8" height="12"/>
	<path fill="#D8F768" d="M204.0271,84h-4.1288H52.2031h-8H24.1015h-4.1288C8.9607,84,0,92.9728,0,104s8.9607,20,19.9727,20H76h8h12
		h8h16h8h12h8h56.0271C215.0391,124,224,115.0272,224,104S215.0391,84,204.0271,84z M136,108h-16v-8h16V108z M104,108H88v-8h16V108z
		 M40,108H24v-8h16V108z M72,108H56v-8h16V108z M168,108h-16v-8h16V108z M200,108h-16v-8h16V108z"/>
	<path fill="#FFE9E1" d="M136,136h-8h-8h-16h-8h-8c-1.0117,0-1.9885,0.3828-2.7305,1.0744l-6.9768,6.5116l-53.0232,49.4884
		c-1.1992,1.1208-1.594,2.8632-0.9924,4.3944C24.8827,198.996,26.3555,200,28,200h168c1.6443,0,3.1171-1.004,3.7227-2.5312
		c0.6016-1.5312,0.2068-3.2736-0.9924-4.3944l-53.0232-49.4884l-6.9768-6.5116C137.9883,136.3828,137.0115,136,136,136z"/>
	<rect x="24" y="100" fill="#3BABB7" width="16" height="8"/>
	<rect x="184" y="100" fill="#3BABB7" width="16" height="8"/>
	<rect x="152" y="100" fill="#3BABB7" width="16" height="8"/>
	<rect x="120" y="100" fill="#3BABB7" width="16" height="8"/>
	<rect x="88" y="100" fill="#3BABB7" width="16" height="8"/>
	<rect x="56" y="100" fill="#3BABB7" width="16" height="8"/>
</g>
</svg>
