<?xml version="1.0" encoding="utf-8"?>
<!-- Generator: Adobe Illustrator 19.2.0, SVG Export Plug-In . SVG Version: 6.00 Build 0)  -->
<svg version="1.1" id="alienavatar" xmlns="http://www.w3.org/2000/svg" xmlns:xlink="http://www.w3.org/1999/xlink" x="0px"
	 y="0px" viewBox="0 0 172 224" enable-background="new 0 0 172 224" xml:space="preserve">
<g>
	<path fill="#63B473" d="M86,0C38.58,0,0,38.9004,0,86.7168c0,46.7284,79.6876,132.3924,83.08,136.0176
		C83.836,223.5412,84.8924,224,86,224s2.164-0.4588,2.92-1.2656C92.3124,219.1092,172,133.4452,172,86.7168
		C172,38.9004,133.42,0,86,0z M16.3068,68.3908c-0.168-1.7052,0.7692-3.3264,2.33-4.0332
		C19.6308,63.9064,43.1112,53.4688,60,63.2148c16.8908,9.754,19.588,35.3104,19.6932,36.3944
		c0.168,1.7032-0.7692,3.3264-2.328,4.0332c-0.6796,0.3088-11.8748,5.2892-24.2892,5.2892c-5.738,0-11.736-1.0644-17.076-4.1464
		C19.1092,95.0332,16.412,69.4748,16.3068,68.3908z M84,140h-8v-12h8V140z M96,140h-8v-12h8V140z M124,156c-2.2088,0-4-1.7912-4-4
		c0-19.8496-15.252-36-34-36s-34,16.1504-34,36c0,2.2088-1.7912,4-4,4s-4-1.7912-4-4c0-24.2616,18.8416-44,42-44s42,19.7384,42,44
		C128,154.2088,126.2088,156,124,156z M136,104.7852c-5.338,3.082-11.338,4.1464-17.076,4.1464
		c-12.4144,0-23.6096-4.9804-24.2892-5.2892c-1.5588-0.7068-2.496-2.33-2.328-4.0332C92.412,98.5252,95.1092,72.9688,112,63.2148
		c16.8868-9.75,40.3712,0.6916,41.3632,1.1428c1.5608,0.7068,2.498,2.328,2.33,4.0332
		C155.588,69.4748,152.8908,95.0332,136,104.7852z"/>
	<path fill="#99D59D" d="M86,108c-23.1584,0-42,19.7384-42,44c0,2.2088,1.7912,4,4,4s4-1.7912,4-4c0-19.8496,15.252-36,34-36
		s34,16.1504,34,36c0,2.2088,1.7912,4,4,4s4-1.7912,4-4C128,127.7384,109.1584,108,86,108z"/>
	<rect x="76" y="128" fill="#FFFFFF" width="8" height="12"/>
	<rect x="88" y="128" fill="#FFFFFF" width="8" height="12"/>
	<path fill="#49A25A" d="M153.3632,64.3576c-0.992-0.4512-24.4764-10.8928-41.3632-1.1428
		c-16.8908,9.754-19.588,35.3104-19.6932,36.3944c-0.168,1.7032,0.7692,3.3264,2.328,4.0332
		c0.6796,0.3088,11.8748,5.2892,24.2892,5.2892c5.738,0,11.738-1.0644,17.076-4.1464c16.8908-9.752,19.588-35.3104,19.6932-36.3944
		C155.8612,66.6856,154.924,65.0644,153.3632,64.3576z M132,97.8556c-10.3924,6.0056-25.1932,1.7752-31.2852-0.4124
		c1.1524-6.3672,4.8928-21.2968,15.2852-27.2988c10.3924-6.0056,25.1932-1.7732,31.2852,0.4124
		C146.1328,76.9256,142.3924,91.8556,132,97.8556z"/>
	<path fill="#49A25A" d="M77.3652,103.6424c1.5588-0.7068,2.496-2.33,2.328-4.0332C79.588,98.5252,76.8908,72.9688,60,63.2148
		c-16.8888-9.746-40.3692,0.6916-41.3632,1.1428c-1.5608,0.7068-2.498,2.328-2.33,4.0332
		C16.412,69.4748,19.1092,95.0332,36,104.7852c5.34,3.082,11.338,4.1464,17.076,4.1464
		C65.4904,108.9316,76.6856,103.9512,77.3652,103.6424z M40,97.8556c-10.3964-6.002-14.1348-20.9396-15.2852-27.3048
		c6.08-2.1952,20.8476-6.4316,31.2852-0.4064c10.3924,6.002,14.1328,20.9316,15.2852,27.2988
		C65.1932,99.6328,50.3984,103.8612,40,97.8556z"/>
	<path fill="#C6DFED" d="M116,70.1444c-10.3924,6.002-14.1328,20.9316-15.2852,27.2988c6.092,2.1876,20.8928,6.418,31.2852,0.4124
		c10.3924-6,14.1328-20.93,15.2852-27.2988C141.1932,68.3712,126.3924,64.1388,116,70.1444z"/>
	<path fill="#C6DFED" d="M56,70.1444c-10.4376-6.0252-25.2052-1.7888-31.2852,0.4064C25.8652,76.916,29.6036,91.8536,40,97.8556
		c10.3984,6.0056,25.1932,1.7772,31.2852-0.4124C70.1328,91.076,66.3924,76.1464,56,70.1444z"/>
</g>
</svg>
