<?xml version="1.0" encoding="utf-8"?>
<!-- Generator: Adobe Illustrator 19.2.0, SVG Export Plug-In . SVG Version: 6.00 Build 0)  -->
<svg version="1.1" id="alienmonster" xmlns="http://www.w3.org/2000/svg" xmlns:xlink="http://www.w3.org/1999/xlink" x="0px"
	 y="0px" viewBox="0 0 176 235.9004" enable-background="new 0 0 176 235.9004" xml:space="preserve">
<g>
	<path fill="#C1DB66" d="M88,0C39.4764,0,0,37.6816,0,84v88.002C0,185.2344,10.7656,196,24,196s24-10.7656,24-23.998v-13.1604
		c5.1152,2.4964,10.4688,4.502,16,5.9964v31.1384C64,209.2228,74.7656,220,88,220s24-10.7772,24-24.0236V164.838
		c5.5312-1.4944,10.8848-3.5,16-5.9964v53.0352c0,13.2464,10.7656,24.0236,24,24.0236s24-10.7772,24-24.0236V84
		C176,37.6816,136.5236,0,88,0z M124.076,110.172c-5.7184,14.7284-19.9648,24.2364-35.4004,24.2364
		c-3.246,0-6.5428-0.42-9.824-1.2992c-3.2012-0.8572-5.0996-4.1464-4.2424-7.3476c0.8576-3.1972,4.1584-5.1016,7.348-4.242
		c10.2556,2.742,20.74-1.078,27.0016-8.8652C81.8652,115.7168,50.5,112.672,32,103.5468V140c0,4.418-3.582,8-8,8s-8-3.582-8-8V84
		c0-39.7636,32.2364-72,72-72s72,32.2364,72,72C160,96.9532,144.6836,105.66,124.076,110.172z"/>
	<path fill="#CCEA60" d="M88,12c-39.7636,0-72,32.2364-72,72v56c0,4.418,3.582,8,8,8s8-3.582,8-8v-36.4532
		c18.5,9.1252,49.8652,12.17,76.9588,9.1076c2.1936-2.7268,3.8792-5.9316,4.842-9.5216c0.8556-3.2012,4.1504-5.1016,7.3476-4.242
		c3.2012,0.8572,5.0996,4.1464,4.2424,7.3476c-0.3636,1.3552-0.8184,2.656-1.3148,3.9336C144.6836,105.66,160,96.9532,160,84
		C160,44.2364,127.7636,12,88,12z M88,92c-11.0448,0-20-8.9572-20-20c0-2.1056,0.416-4.0976,1.0196-6.006
		C71.584,74.082,79.0744,80,88,80s16.416-5.918,18.9804-14.006C107.584,67.9024,108,69.8944,108,72C108,83.0428,99.0448,92,88,92z
		 M74.752,57.1212C78.2872,53.9728,82.8944,52,88,52s9.7128,1.9728,13.248,5.1212C100.4844,57.8496,100,58.8632,100,60
		c0,6.6172-5.3828,12-12,12s-12-5.3828-12-12C76,58.8632,75.5156,57.8496,74.752,57.1212z M120,72c-2.2088,0-4-1.7912-4-4
		c0-15.4396-12.5604-28-28-28S60,52.5604,60,68c0,2.2088-1.7912,4-4,4s-4-1.7912-4-4c0-19.8496,16.1504-36,36-36s36,16.1504,36,36
		C124,70.2088,122.2088,72,120,72z"/>
	<path fill="#2F4556" d="M88,32c-19.8496,0-36,16.1504-36,36c0,2.2088,1.7912,4,4,4s4-1.7912,4-4c0-15.4396,12.5604-28,28-28
		s28,12.5604,28,28c0,2.2088,1.7912,4,4,4s4-1.7912,4-4C124,48.1504,107.8496,32,88,32z"/>
	<path fill="#4F676D" d="M88,72c6.6172,0,12-5.3828,12-12c0-1.1368,0.4844-2.1504,1.248-2.8788C97.7128,53.9728,93.1056,52,88,52
		s-9.7128,1.9728-13.248,5.1212C75.5156,57.8496,76,58.8632,76,60C76,66.6172,81.3828,72,88,72z"/>
	<path fill="#4F676D" d="M88,80c-8.9256,0-16.416-5.918-18.9804-14.006C68.416,67.9024,68,69.8944,68,72c0,11.0428,8.9552,20,20,20
		s20-8.9572,20-20c0-2.1056-0.416-4.0976-1.0196-6.006C104.416,74.082,96.9256,80,88,80z"/>
	<path fill="#FF6B97" d="M121.1484,98.8908c-3.1972-0.8596-6.492,1.0408-7.3476,4.242c-0.9628,3.59-2.6484,6.7948-4.842,9.5216
		c-6.2616,7.7872-16.746,11.6072-27.0016,8.8652c-3.1896-0.8596-6.4904,1.0448-7.348,4.242
		c-0.8572,3.2012,1.0412,6.4904,4.2424,7.3476c3.2812,0.8792,6.578,1.2992,9.824,1.2992c15.4356,0,29.682-9.508,35.4004-24.2364
		c0.4964-1.2776,0.9512-2.5784,1.3148-3.9336C126.248,103.0372,124.3496,99.748,121.1484,98.8908z"/>
</g>
</svg>
