<?xml version="1.0" encoding="utf-8"?>
<!-- Generator: Adobe Illustrator 19.2.0, SVG Export Plug-In . SVG Version: 6.00 Build 0)  -->
<svg version="1.1" id="alienship3" xmlns="http://www.w3.org/2000/svg" xmlns:xlink="http://www.w3.org/1999/xlink" x="0px" y="0px"
	 viewBox="0 0 232 181.162" enable-background="new 0 0 232 181.162" xml:space="preserve">
<g>
	<path fill="#3BABB7" d="M127.7656,173.162c0,4.418,3.582,8,8,8s8-3.582,8-8v-18.5604c-5.1992,0.5312-10.5332,0.9256-16,1.1524
		V173.162z"/>
	<path fill="#3BABB7" d="M91.7656,173.162c0,4.418,3.582,8,8,8s8-3.582,8-8v-17.2948c-5.4532-0.1584-10.7988-0.4628-16-0.922
		V173.162z"/>
	<path fill="#50CCD3" d="M232,106c0-16.6756-17.7832-31.5312-48.1172-40.7596v20.8672c0,2.2088-1.7912,4-4,4s-4-1.7912-4-4V62.5724
		c0-0.2052,0.088-0.3828,0.1172-0.5804V44.0252C176,19.75,156.2792,0,132.0392,0H99.9608C75.7208,0,56,19.75,56,44.0252v18.9944
		c-0.0392,0.0096-0.078,0.0232-0.1172,0.0312v23.0568c0,2.2088-1.7912,4-4,4c-2.2088,0-4-1.7912-4-4V65.3144
		C17.6952,74.5488,0,89.3672,0,106c0,24.4432,38.7344,44.2656,91.7656,48.9452c5.2012,0.4592,10.5468,0.7636,16,0.922
		C110.4864,155.9452,113.2248,156,116,156c3.9784,0,7.9004-0.084,11.7656-0.246c5.4668-0.2268,10.8008-0.6212,16-1.1524
		C194.9728,149.3692,232,129.8964,232,106z M152,67.996C152,79.0428,143.0644,88,132.0392,88h-12.012c0,2.2088-1.7908,4-4,4
		c-2.2088,0-4-1.7912-4-4H99.9608C88.9728,88,80,79.0428,80,67.996V44h72V67.996z M116,32c-24.3008,0-44-6.2676-44-14
		S91.6992,4,116,4s44,6.2676,44,14S140.3008,32,116,32z"/>
	<ellipse fill="#7BE5E4" cx="116" cy="18" rx="44" ry="14"/>
	<path fill="#FFFFFF" d="M51.8828,90.1076c2.2088,0,4-1.7912,4-4V63.0508v-0.4784c0-2.2092-1.7912-4-4-4c-2.2088,0-4,1.7908-4,4
		v2.742v20.7932C47.8828,88.3164,49.674,90.1076,51.8828,90.1076z"/>
	<path fill="#FFFFFF" d="M175.8828,86.1076c0,2.2088,1.7912,4,4,4s4-1.7912,4-4V65.2404v-2.668c0-2.2092-1.7912-4-4-4
		c-2.004,0-3.5916,1.498-3.8828,3.4196c-0.0292,0.1976-0.1172,0.3752-0.1172,0.5804V86.1076z"/>
	<path fill="#DBEEF7" d="M80,67.996C80,79.0428,88.9728,88,99.9608,88h12.0664v-8.5584C105.1328,77.66,100,71.4432,100,64
		c0-8.8224,7.1776-16,16-16s16,7.1776,16,16c0,7.422-5.1056,13.6248-11.9728,15.424V88h12.012C143.0644,88,152,79.0428,152,67.996
		V44H80V67.996z"/>
	<path fill="#49A25A" d="M132,64c0-8.8224-7.1776-16-16-16s-16,7.1776-16,16c0,7.4432,5.1328,13.66,12.0272,15.4416V88
		c0,2.2088,1.7912,4,4,4c2.2092,0,4-1.7912,4-4v-8.576C126.8944,77.6248,132,71.422,132,64z"/>
</g>
</svg>
