<?xml version="1.0" encoding="utf-8"?>
<!-- Generator: Adobe Illustrator 19.2.0, SVG Export Plug-In . SVG Version: 6.00 Build 0)  -->
<svg version="1.1" id="analysischart" xmlns="http://www.w3.org/2000/svg" xmlns:xlink="http://www.w3.org/1999/xlink" x="0px"
	 y="0px" viewBox="0 0 172 224" enable-background="new 0 0 172 224" xml:space="preserve">
<g>
	<path fill="none" d="M88,8c-8.8224,0-16,7.1777-16,16h32C104,15.1777,96.8224,8,88,8z"/>
	<polygon fill="#FF6B97" points="172,24 112,24 104,24 72,24 64,24 0,24 0,64 8,64 8,56 164,56 164,64 172,64 	"/>
	<path fill="#FFDC82" d="M8,56v8v148.0117C8,218.6233,13.3868,224,20.0096,224h131.9808C158.6132,224,164,218.6233,164,212.0117V64
		v-8H8z M130.8692,112.8261l-17.0352,78.2832c-0.4004,1.842-2.0292,3.1504-3.9084,3.1504c-0.0212,0-0.0428,0-0.0644,0
		c-1.904-0.0312-3.5232-1.4004-3.8692-3.2752l-16.0076-86.7928L75.7772,141.584c-0.5368,1.416-1.826,2.4065-3.332,2.5585
		c-1.5212,0.176-2.9704-0.5545-3.7812-1.832L54.4728,120.008l-9.9844,37.3357c-0.5684,2.1312-2.762,3.4003-4.8968,2.8304
		c-2.1344-0.5704-3.402-2.7621-2.83-4.8968l12.336-46.1308c0.4084-1.5332,1.6856-2.6796,3.256-2.92
		c1.5644-0.244,3.1288,0.4668,3.9824,1.8068l14.7968,23.254L87.586,87.9825c0.6368-1.6816,2.3104-2.7208,4.0996-2.5644
		c1.7872,0.1619,3.246,1.4939,3.5724,3.2596l14.992,81.2832l12.8028-58.834c0.4688-2.16,2.6092-3.5312,4.7576-3.0584
		C129.9708,108.5373,131.34,110.668,130.8692,112.8261z"/>
	<path fill="#F8A131" d="M88,8c8.8224,0,16,7.1777,16,16h8c0-13.2343-10.7656-24-24-24C74.7656,0,64,10.7657,64,24h8
		C72,15.1777,79.1776,8,88,8z"/>
	<path fill="#B976DD" d="M127.8104,108.0685c-2.1484-0.4728-4.2888,0.8984-4.7576,3.0584l-12.8028,58.834L95.258,88.6777
		c-0.3264-1.7657-1.7852-3.0977-3.5724-3.2596c-1.7892-0.1564-3.4628,0.8828-4.0996,2.5644l-16.4532,43.3048l-14.7968-23.254
		c-0.8536-1.34-2.418-2.0508-3.9824-1.8068c-1.5704,0.2404-2.8476,1.3868-3.256,2.92l-12.336,46.1308
		c-0.572,2.1347,0.6956,4.3264,2.83,4.8968c2.1348,0.5699,4.3284-0.6992,4.8968-2.8304l9.9844-37.3357l14.1912,22.3025
		c0.8108,1.2775,2.26,2.008,3.7812,1.832c1.506-0.152,2.7952-1.1425,3.332-2.5585l14.2072-37.3923l16.0076,86.7928
		c0.346,1.8748,1.9652,3.244,3.8692,3.2752c0.0216,0,0.0432,0,0.0644,0c1.8792,0,3.508-1.3084,3.9084-3.1504l17.0352-78.2832
		C131.34,110.668,129.9708,108.5373,127.8104,108.0685z"/>
</g>
</svg>
