<?xml version="1.0" encoding="utf-8"?>
<!-- Generator: Adobe Illustrator 19.2.0, SVG Export Plug-In . SVG Version: 6.00 Build 0)  -->
<svg version="1.1" id="animaltest" xmlns="http://www.w3.org/2000/svg" xmlns:xlink="http://www.w3.org/1999/xlink" x="0px" y="0px"
	 viewBox="0 0 188.6213 216.6408" enable-background="new 0 0 188.6213 216.6408" xml:space="preserve">
<g>
	<path fill="#FCD1C0" d="M163.5115,167.1288c-1.9372,0-3.6404-1.41-3.9492-3.3828c-0.3396-2.1796,1.1484-4.2224,3.3244-4.5664
		c0.0116-0.004,0.1444-0.0272,0.328-0.0624c-6.9376-15.8828-23.1796-30.4764-59.4844-30.4764c-2.5,0-5.0936,0.156-7.7303,0.3904V152
		c0,2.2108-1.7893,4-4,4c-2.2109,0-4-1.7892-4-4v-21.914c-6.7581,1.1248-13.7813,2.8632-20.9297,5.3124
		c-4.996-10.5664-14.6096-16.7068-23.9688-14.8828c-5.9375,1.1524-10.8556,5.2344-13.8436,11.5
		c-2.7972,5.8556-3.5784,13.008-2.1916,20.1408c0.1992,1.0312,0.4452,2.0508,0.7304,3.0508C10.332,167.2696,0,180.0508,0,189.7264
		c0,23.6524,41.7771,26.9144,86.9219,26.9144c43.5036,0,81.0781,0,81.0781-32.7464c0-5.1132-0.5157-11.082-2.1369-17.168
		c-0.9608,0.2268-1.6052,0.336-1.7304,0.3556C163.9219,167.1132,163.7147,167.1288,163.5115,167.1288z M36,192
		c-6.6173,0-12-5.3828-12-12s5.3827-12,12-12c6.6171,0,12,5.3828,12,12S42.6171,192,36,192z"/>
	<path fill="#89714D" d="M36,168c-6.6173,0-12,5.3828-12,12s5.3827,12,12,12c6.6171,0,12-5.3828,12-12S42.6171,168,36,168z"/>
	<path fill="#E1AD99" d="M166.5115,99.418c-17.4492-19.7072-23.6835-36.758-18.0352-49.3008c5.5-12.2148,21.0432-17.5,27.758-17.5
		c2.2108,0,4-1.7892,4-4s-1.7892-4-4-4c-10.1016,0-28.2263,7.0584-35.0508,22.2148c-4.91,10.8984-5.5392,29.7892,19.336,57.8908
		c16.0196,18.0936,22.664,32.7576,19.2188,42.41c-3.1916,8.9532-14.5312,11.582-16.5236,11.9844
		c-0.1836,0.0352-0.3164,0.0584-0.328,0.0624c-2.176,0.344-3.664,2.3868-3.3244,4.5664c0.3088,1.9728,2.012,3.3828,3.9492,3.3828
		c0.2032,0,0.4104-0.0156,0.6212-0.0468c0.1252-0.0196,0.7696-0.1288,1.7304-0.3556c4.6172-1.0896,17.1449-5.0664,21.3908-16.8476
		C191.8435,137.1288,184.8671,120.1524,166.5115,99.418z"/>
	<path fill="#2F4556" d="M92,156c2.2107,0,4-1.7892,4-4v-22.9688V116h-8v14.086V152C88,154.2108,89.7891,156,92,156z"/>
	<path fill="#2F4556" d="M96,12h32c3.3123,0,6-2.6876,6-6s-2.6877-6-6-6H56c-3.3125,0-6,2.6876-6,6s2.6875,6,6,6h32v16h8V12z"/>
	<path fill="#9AB040" d="M116,116V36h12c2.2107,0,4-1.7892,4-4s-1.7893-4-4-4h-12H96h-8H68H56c-2.2109,0-4,1.7892-4,4s1.7891,4,4,4
		h12v80h20h8H116z M76,108V88h12v-8H76v-8h12v-8H76v-8h12v-8H76V36h32v72H76z"/>
	<polygon fill="#C1DB66" points="108,36 76,36 76,48 88,48 88,56 76,56 76,64 88,64 88,72 76,72 76,80 88,80 88,88 76,88 76,108 
		108,108 	"/>
</g>
</svg>
