<?xml version="1.0" encoding="utf-8"?>
<!-- Generator: Adobe Illustrator 19.2.0, SVG Export Plug-In . SVG Version: 6.00 Build 0)  -->
<svg version="1.1" id="applethrow" xmlns="http://www.w3.org/2000/svg" xmlns:xlink="http://www.w3.org/1999/xlink" x="0px" y="0px"
	 viewBox="0 0 183.6126 192.9978" enable-background="new 0 0 183.6126 192.9978" xml:space="preserve">
<g>
	<path fill="#EB4548" d="M69.7564,60.7715c-12.2344,4.9452-20.8592,16.824-23.5936,32.2223
		c-15.504-2.1795-29.4532,2.3793-37.9376,12.4885c-15.5976,18.582-8.3516,50.4296,16.1484,70.9844
		c13.0588,10.9608,28.422,16.5311,42.2892,16.5311c12.1444,0,23.1408-4.2771,30.422-12.9567c2.0508-2.4416,5.496-6.18,6.8044-7.594
		c1.75-0.8084,6.3672-2.9256,9.3204-4.1248c11.1132-4.4845,19.168-14.418,22.676-27.9612
		c3.3985-13.1132,2.1172-28.1328-3.6055-42.2968C120.2996,68.4159,92.2488,51.6815,69.7564,60.7715z M105.7408,162.7247
		c-3.3984,1.3708-9.0624,4.0192-9.0624,4.0192s-4.2696,4.5704-6.6248,7.3792c-12.59,15-39.2112,13.3867-59.4652-3.6096
		c-20.25-16.992-26.4648-42.9296-13.8748-57.9336C24.362,103.4627,123.8972,155.3887,105.7408,162.7247z"/>
	<path fill="#FD5A5A" d="M16.7136,112.5799c-12.59,15.004-6.3752,40.9416,13.8748,57.9336
		c20.254,16.9963,46.8752,18.6096,59.4652,3.6096c2.3552-2.8088,6.6248-7.3792,6.6248-7.3792s5.664-2.6484,9.0624-4.0192
		C123.8972,155.3887,24.362,103.4627,16.7136,112.5799z"/>
	<path fill="#C1DB66" d="M31.1588,84.8143l2.1448,0.9768l1.8944-1.4024c9.332-6.9104,14.2068-17.6252,13.0468-28.6564
		c-1.16-11.0352-8.1564-20.5-18.7188-25.3204l-2.1444-0.9764l-1.8944,1.4023c-9.3284,6.9101-14.2031,17.6213-13.0431,28.656
		C13.6041,70.5291,20.6004,79.9938,31.1588,84.8143z"/>
	<path fill="#9AB040" d="M99.6161,44.0018c0.8903,0,1.7851-0.2967,2.5271-0.9023l44-36c1.7108-1.4024,1.9649-3.922,0.5664-5.6288
		c-1.406-1.7148-3.922-1.9649-5.6288-0.5664l-44,36c-1.7108,1.4024-1.9647,3.922-0.5664,5.6288
		C97.3072,43.5018,98.4556,44.0018,99.6161,44.0018z"/>
	<path fill="#9AB040" d="M132.5144,42.5331c0.7928,0.9687,1.9412,1.4687,3.1017,1.4687c0.8903,0,1.7851-0.2967,2.5271-0.9023l44-36
		c1.7108-1.4024,1.9649-3.922,0.5664-5.6288c-1.4024-1.7148-3.922-1.9649-5.6288-0.5664l-44,36
		C131.37,38.3067,131.1161,40.8263,132.5144,42.5331z"/>
	<path fill="#9AB040" d="M177.0808,28.9043l-44,36c-1.7108,1.4024-1.9647,3.922-0.5664,5.6288
		c0.7928,0.9687,1.9412,1.4687,3.1017,1.4687c0.8903,0,1.7851-0.2967,2.5271-0.9023l44-36c1.7108-1.4024,1.9649-3.922,0.5664-5.6288
		C181.3072,27.7559,178.7876,27.5058,177.0808,28.9043z"/>
</g>
</svg>
