<?xml version="1.0" encoding="utf-8"?>
<!-- Generator: Adobe Illustrator 19.2.0, SVG Export Plug-In . SVG Version: 6.00 Build 0)  -->
<svg version="1.1" id="applefall" xmlns="http://www.w3.org/2000/svg" xmlns:xlink="http://www.w3.org/1999/xlink" x="0px" y="0px"
	 viewBox="0 0 137.9439 222.1956" enable-background="new 0 0 137.9439 222.1956" xml:space="preserve">
<g>
	<path fill="#EB4548" d="M133.3471,74.8008c-5.3596-12.9257-14.7151-21.6404-26.344-24.5388
		c-12.8048-3.1836-26.7656,1.3516-38.0311,12.1992C57.7063,51.6056,43.7531,47.0704,30.9407,50.262
		C19.312,53.1604,9.9563,61.8751,4.5971,74.8008c-5.1916,12.508-6.016,27.5588-2.3204,42.3828
		c3.6953,14.8204,11.488,27.7268,21.9452,36.336c10.8008,8.8908,23.1484,12.1835,34.7812,9.2968
		c3.094-0.7733,8.082-1.7693,9.9689-2.1444c1.8907,0.3751,6.8751,1.3711,9.9687,2.1444c2.75,0.6836,5.5428,1.0236,8.3436,1.0236
		c9.0432,0,18.1917-3.5312,26.4376-10.3204c10.4572-8.6092,18.2501-21.5156,21.9452-36.336
		C139.3627,102.3596,138.5383,87.3088,133.3471,74.8008z M75.1127,151.418c-3.4376-0.8552-9.3672-2.004-9.3672-2.004
		s-5.93,1.1488-9.3672,2.004c-18.3596,4.5784-38.254-11.8044-44.4336-36.5896c-6.18-24.7853,3.6953-48.59,22.0544-53.168
		C45.1555,58.8791,93.472,155.9964,75.1127,151.418z"/>
	<path fill="#FD5A5A" d="M33.9991,61.6604c-18.3591,4.578-28.2344,28.3827-22.0544,53.168
		c6.1796,24.7852,26.074,41.168,44.4336,36.5896c3.4372-0.8552,9.3672-2.004,9.3672-2.004s5.9296,1.1488,9.3672,2.004
		C93.472,155.9964,45.1555,58.8791,33.9991,61.6604z"/>
	<path fill="#C1DB66" d="M62.808,49.0784l2.3555-0.0236c11.6052-0.1056,21.8476-5.9064,27.3984-15.5157
		c5.5468-9.6091,5.4492-21.3787-0.2656-31.4843L91.136,0l-2.3557,0.0236C77.1751,0.1292,66.9327,5.93,61.3819,15.5391
		c-5.5468,9.6133-5.4492,21.3829,0.2656,31.4845L62.808,49.0784z"/>
	<polygon fill="#49A25A" points="90.2843,189.5704 72.972,206.8828 72.972,174.5391 64.972,174.5391 64.972,206.8828 
		47.6595,189.5704 42.0031,195.2268 64.972,218.1956 64.972,218.762 65.5383,218.762 68.972,222.1956 72.4055,218.762 
		72.972,218.762 72.972,218.1956 95.9407,195.2268 	"/>
</g>
</svg>
