<?xml version="1.0" encoding="utf-8"?>
<!-- Generator: Adobe Illustrator 19.2.0, SVG Export Plug-In . SVG Version: 6.00 Build 0)  -->
<svg version="1.1" id="areafiftyone" xmlns="http://www.w3.org/2000/svg" xmlns:xlink="http://www.w3.org/1999/xlink" x="0px"
	 y="0px" viewBox="0 0 216 200" enable-background="new 0 0 216 200" xml:space="preserve">
<g>
	<path fill="#89714D" d="M120,152H96h-8v44c0,2.2088,1.7912,4,4,4h32c2.2088,0,4-1.7912,4-4v-44H120z"/>
	<path fill="#A48659" d="M216,24.0236C216,10.7772,205.2168,0,191.9608,0H24.0392C10.7832,0,0,10.7772,0,24.0236v103.9548
		c0,1.5256,0.1584,3.0136,0.4316,4.4592C2.0604,125.332,8.4084,120,16.006,120h183.988c7.5976,0,13.9456,5.332,15.5744,12.4376
		c0.2732-1.4456,0.4316-2.9336,0.4316-4.4592V24.0236z M64,60H40v12h16h8v8v12v8h-8H32v-8h24V80H40h-8v-8V60v-8h8h24V60z M92,60v40
		h-8V60h-8v-8h8h8V60z M156,116c-22.0568,0-40-17.9432-40-40s17.9432-40,40-40s40,17.9432,40,40S178.0568,116,156,116z"/>
	<path fill="#A48659" d="M156,44c-17.6444,0-32,14.3556-32,32s14.3556,32,32,32s32-14.3556,32-32S173.6444,44,156,44z
		 M168.7284,94.3848L155.584,81.242l-13.7264,13.7268l-5.6564-5.6564l13.7284-13.7264l-12.3144-12.3144l5.6564-5.6564
		l12.3124,12.3144l11.7304-11.7304l5.6564,5.6564L161.2404,75.586l13.1444,13.1424L168.7284,94.3848z"/>
	<path fill="#BC9A67" d="M199.994,120H16.006c-7.5976,0-13.9456,5.332-15.5744,12.4376C0.168,133.588,0,134.7716,0,136
		c0,8.8224,7.1796,16,16.006,16h8.0332H88h8h24h8h63.9608h8.0332c8.8264,0,16.006-7.1776,16.006-16
		c0-1.2284-0.168-2.412-0.4316-3.5624C213.9396,125.332,207.5916,120,199.994,120z"/>
	<path fill="#FFDC82" d="M156,36c-22.0568,0-40,17.9432-40,40s17.9432,40,40,40s40-17.9432,40-40S178.0568,36,156,36z M156,108
		c-17.6444,0-32-14.3556-32-32s14.3556-32,32-32s32,14.3556,32,32S173.6444,108,156,108z"/>
	<polygon fill="#D8F768" points="32,52 32,60 32,72 32,80 40,80 56,80 56,92 32,92 32,100 56,100 64,100 64,92 64,80 64,72 56,72 
		40,72 40,60 64,60 64,52 40,52 	"/>
	<polygon fill="#D8F768" points="76,52 76,60 84,60 84,100 92,100 92,60 92,52 84,52 	"/>
	<polygon fill="#FFDC82" points="172.9708,63.8556 167.3144,58.1992 155.584,69.9296 143.2716,57.6152 137.6152,63.2716 
		149.9296,75.586 136.2012,89.3124 141.8576,94.9688 155.584,81.242 168.7284,94.3848 174.3848,88.7284 161.2404,75.586 	"/>
</g>
</svg>
