<?xml version="1.0" encoding="utf-8"?>
<!-- Generator: Adobe Illustrator 19.2.0, SVG Export Plug-In . SVG Version: 6.00 Build 0)  -->
<svg version="1.1" id="astronout" xmlns="http://www.w3.org/2000/svg" xmlns:xlink="http://www.w3.org/1999/xlink" x="0px" y="0px"
	 viewBox="0 0 232 216" enable-background="new 0 0 232 216" xml:space="preserve">
<g>
	<path fill="#DBEEF7" d="M116,0C56.4492,0,8,48.4493,8,108c0,59.5509,48.4492,108,108,108s108-48.4491,108-108
		C224,48.4493,175.5508,0,116,0z M151.8576,14.6741c-10.596,2.8904-22.9592,4.4452-35.8264,4.4452
		c-12.8712,0-25.248-1.5644-35.8516-4.4593C91.3084,10.3749,103.3788,8,116,8C128.6348,8,140.7188,10.3789,151.8576,14.6741z
		 M116,208c-55.1408,0-100-44.8591-100-100c0-38.3163,21.672-71.6503,53.3944-88.4355c12.9864,4.8612,29.4376,7.5548,46.6368,7.5548
		c17.1972,0,33.6132-2.6876,46.5976-7.5448C194.338,36.3633,216,69.6917,216,108C216,163.1409,171.1408,208,116,208z"/>
	<path fill="#A9C7D8" d="M116.0312,19.1193c12.8672,0,25.2304-1.5548,35.8264-4.4452C140.7188,10.3789,128.6348,8,116,8
		c-12.6212,0-24.6916,2.3749-35.8204,6.66C90.7832,17.5549,103.16,19.1193,116.0312,19.1193z"/>
	<path fill="#A9C7D8" d="M162.6288,19.5745c-12.9844,4.8572-29.4004,7.5448-46.5976,7.5448
		c-17.1992,0-33.6504-2.6936-46.6368-7.5548C37.672,36.3497,16,69.6837,16,108c0,55.1409,44.8592,100,100,100s100-44.8591,100-100
		C216,69.6917,194.338,36.3633,162.6288,19.5745z M144,192H84c-2.2088,0-4-1.7891-4-4c0-2.2107,1.7912-4,4-4h60
		c2.2088,0,4,1.7893,4,4C148,190.2109,146.2088,192,144,192z M156,180H72c-2.2088,0-4-1.7891-4-4c0-2.2107,1.7912-4,4-4h84
		c2.2088,0,4,1.7893,4,4C160,178.2109,158.2088,180,156,180z M175.0548,158.6993L173.8652,160H58.1348l-1.1896-1.3007
		c-13.822-15.0976-21.4356-34.6444-21.4356-55.0353C35.5096,61.4689,68.6092,32,116,32s80.4904,29.4689,80.4904,71.664
		C196.4904,124.0549,188.8768,143.6017,175.0548,158.6993z"/>
	<path fill="#456782" d="M116,32c-47.3908,0-80.4904,29.4689-80.4904,71.664c0,20.3909,7.6136,39.9377,21.4356,55.0353L58.1348,160
		h115.7304l1.1896-1.3007c13.822-15.0976,21.4356-34.6444,21.4356-55.0353C196.4904,61.4689,163.3908,32,116,32z M65.998,110
		c-0.8904,0-1.7872-0.2967-2.5312-0.9023c-1.7088-1.4004-1.9608-3.92-0.5624-5.6308l36-44c1.4004-1.7088,3.918-1.9589,5.6288-0.5624
		c1.7088,1.3984,1.9608,3.918,0.5624,5.6288l-36,43.998C68.3048,109.5,67.1564,110,65.998,110z M115.0956,74.5333l-18,22
		C96.3048,97.5,95.1564,98,93.998,98c-0.8904,0-1.7872-0.2967-2.5312-0.9043c-1.7088-1.3984-1.9608-3.918-0.5624-5.6288l18-22
		c1.3984-1.7109,3.918-1.9589,5.6288-0.5624C116.242,70.3029,116.494,72.8225,115.0956,74.5333z"/>
	<path fill="#456782" d="M156,172H72c-2.2088,0-4,1.7893-4,4c0,2.2109,1.7912,4,4,4h84c2.2088,0,4-1.7891,4-4
		C160,173.7893,158.2088,172,156,172z"/>
	<path fill="#456782" d="M144,184H84c-2.2088,0-4,1.7893-4,4c0,2.2109,1.7912,4,4,4h60c2.2088,0,4-1.7891,4-4
		C148,185.7893,146.2088,184,144,184z"/>
	<path fill="#A9C7D8" d="M200,184v8c13.2344,0,24,10.7657,24,24h8C232,198.3557,217.6444,184,200,184z"/>
	<path fill="#A9C7D8" d="M0,216h8c0-13.2343,10.7656-24,24-24v-8C14.3556,184,0,198.3557,0,216z"/>
	<path fill="#4A8F9E" d="M104.5332,58.9045c-1.7108-1.3965-4.2284-1.1464-5.6288,0.5624l-36,44
		c-1.3984,1.7108-1.1464,4.2304,0.5624,5.6308C64.2108,109.7033,65.1076,110,65.998,110c1.1584,0,2.3068-0.5,3.0976-1.4687
		l36-43.998C106.494,62.8225,106.242,60.3029,104.5332,58.9045z"/>
	<path fill="#4A8F9E" d="M108.9044,69.4669l-18,22c-1.3984,1.7108-1.1464,4.2304,0.5624,5.6288
		C92.2108,97.7033,93.1076,98,93.998,98c1.1584,0,2.3068-0.5,3.0976-1.4667l18-22c1.3984-1.7108,1.1464-4.2304-0.5624-5.6288
		C112.8224,67.508,110.3028,67.756,108.9044,69.4669z"/>
</g>
</svg>
