<?xml version="1.0" encoding="utf-8"?>
<!-- Generator: Adobe Illustrator 19.2.0, SVG Export Plug-In . SVG Version: 6.00 Build 0)  -->
<svg version="1.1" id="astronauthelmet" xmlns="http://www.w3.org/2000/svg" xmlns:xlink="http://www.w3.org/1999/xlink" x="0px"
	 y="0px" viewBox="0 0 198.0634 225.4675" enable-background="new 0 0 198.0634 225.4675" xml:space="preserve">
<g>
	<path fill="#A9C7D8" d="M172.9727,99.8583c0.0584,0.1912,0.1052,0.3904,0.164,0.582
		C173.0779,100.2487,173.0311,100.0495,172.9727,99.8583z"/>
	<path fill="#A9C7D8" d="M167.8983,87.9595c0.0432,0.086,0.0937,0.168,0.1408,0.25
		C167.992,88.1275,167.9415,88.0455,167.8983,87.9595z"/>
	<path fill="#A9C7D8" d="M170.5703,93.4595c0.1484,0.344,0.2928,0.6916,0.4377,1.0392
		C170.8631,94.1511,170.7227,93.8035,170.5703,93.4595z"/>
	<path fill="#A9C7D8" d="M174.4451,105.5223c0.094,0.4336,0.1992,0.8672,0.2852,1.3084
		C174.6443,106.3895,174.5391,105.9559,174.4451,105.5223z"/>
	<path fill="#A9C7D8" d="M44,141.4675c11.8671,0,21.7263,8.668,23.6407,20H76v-17.2616l68.0779-81.0704
		c-10.0156-6.0936-21.7224-9.668-34.2772-9.668H66.1991C29.6951,53.4675,0,83.1551,0,119.6431v41.8244h20.3591
		C22.2735,150.1355,32.1327,141.4675,44,141.4675z M14,125.4675c-2.2109,0-4-1.7892-4-4c0-30.8788,25.1211-56,56-56
		c2.2107,0,4,1.7892,4,4s-1.7893,4-4,4c-26.4689,0-48,21.5312-48,48C18,123.6783,16.2107,125.4675,14,125.4675z"/>
	<path fill="#A9C7D8" d="M76,179.1551v-9.6876h-8.3593c-1.9144,11.332-11.7736,20-23.6407,20c-11.8673,0-21.7265-8.668-23.6409-20H0
		v56h176v-24H98.8983L76,179.1551z"/>
	<path fill="#A9C7D8" d="M175.5819,112.3855c0.0432,0.41,0.0744,0.8204,0.1132,1.2344
		C175.6563,113.2059,175.6251,112.7955,175.5819,112.3855z"/>
	<path fill="#DBEEF7" d="M66,73.4675c2.2107,0,4-1.7892,4-4s-1.7893-4-4-4c-30.8789,0-56,25.1212-56,56c0,2.2108,1.7891,4,4,4
		c2.2107,0,4-1.7892,4-4C18,94.9987,39.5311,73.4675,66,73.4675z"/>
	<path fill="#90A9AE" d="M175.5819,112.3855c-0.2068-1.8712-0.4884-3.7228-0.8516-5.5548c-0.086-0.4412-0.1912-0.8748-0.2852-1.3084
		c-0.3748-1.7148-0.8044-3.4104-1.3084-5.082c-0.0588-0.1916-0.1056-0.3908-0.164-0.582c-0.5704-1.8164-1.2424-3.598-1.9647-5.3596
		c-0.1449-0.3476-0.2893-0.6952-0.4377-1.0392c-0.7696-1.7848-1.6096-3.5388-2.5312-5.25c-0.0471-0.082-0.0976-0.164-0.1408-0.25
		c-4.9296-9.0312-11.9492-16.9336-20.6952-22.9296l-2.9924-2.0508l-0.1328,0.1564L76,144.2059v17.2616h-8.3593
		c0.2184,1.3048,0.3593,2.6328,0.3593,4c0,1.3672-0.1409,2.6952-0.3593,4H76v9.6876l22.8983,22.3124H176v-81.8244
		c0-2.0232-0.1249-4.0272-0.3049-6.0232C175.6563,113.2059,175.6251,112.7955,175.5819,112.3855z M168,193.4675h-65.8517
		L84,175.7799v-6.3124v-8v-14.3476l61.6015-73.3516C159.6915,84.7643,168,101.6551,168,119.6431V193.4675z"/>
	<path fill="#90A9AE" d="M20,165.4675c0-1.3672,0.1407-2.6952,0.3591-4H0v8h20.3591C20.1407,168.1627,20,166.8347,20,165.4675z"/>
	<path fill="#C1DB66" d="M44,141.4675c-11.8673,0-21.7265,8.668-23.6409,20c-0.2184,1.3048-0.3591,2.6328-0.3591,4
		c0,1.3672,0.1407,2.6952,0.3591,4c1.9144,11.332,11.7736,20,23.6409,20c11.8671,0,21.7263-8.668,23.6407-20
		c0.2184-1.3048,0.3593-2.6328,0.3593-4c0-1.3672-0.1409-2.6952-0.3593-4C65.7263,150.1355,55.8671,141.4675,44,141.4675z
		 M44,181.4675c-8.8245,0-16-7.1756-16-16c0-8.8244,7.1755-16,16-16c8.8243,0,16,7.1756,16,16
		C60,174.2919,52.8243,181.4675,44,181.4675z"/>
	<path fill="#D793FD" d="M6.5391,44.6043c0.746,0,1.5036-0.2072,2.1756-0.6448l6.7072-4.3552l4.3592,6.7068
		c0.7656,1.18,2.0509,1.8204,3.3596,1.8204c0.746,0,1.5036-0.2068,2.1756-0.6444c1.8517-1.2032,2.3788-3.6836,1.1757-5.5352
		l-4.3593-6.7072l6.7108-4.3592c1.8516-1.2032,2.3792-3.6836,1.176-5.5352c-1.2032-1.8516-3.6835-2.3828-5.5352-1.1756
		l-6.7072,4.3552l-4.3592-6.7068c-1.1992-1.8516-3.6876-2.3792-5.5352-1.176c-1.8516,1.2032-2.3787,3.6836-1.1756,5.5352
		l4.3552,6.7072l-6.7068,4.3592c-1.8515,1.2032-2.3792,3.6836-1.176,5.5352C3.9451,43.9635,5.2303,44.6043,6.5391,44.6043z"/>
	<path fill="#D793FD" d="M197.4179,41.9519c-1.2032-1.8516-3.676-2.3788-5.5352-1.176l-6.7072,4.3556l-4.3552-6.7068
		c-1.2032-1.8516-3.676-2.3828-5.5352-1.176c-1.8516,1.2032-2.3788,3.6796-1.176,5.5352l4.3556,6.7072l-6.7068,4.3552
		c-1.8516,1.2032-2.3792,3.6796-1.176,5.5352c0.7656,1.1796,2.0508,1.8204,3.3596,1.8204c0.746,0,1.5-0.2072,2.1756-0.6444
		l6.7072-4.3556l4.3552,6.7072c0.7656,1.1796,2.0508,1.82,3.3596,1.82c0.746,0,1.5-0.2068,2.1756-0.6444
		c1.8516-1.2032,2.3788-3.6796,1.176-5.5352l-4.3556-6.7072l6.7068-4.3552C198.0935,46.2839,198.6211,43.8075,197.4179,41.9519z"/>
	<path fill="#D793FD" d="M127.9415,24.6043c0.746,0,1.5036-0.2072,2.1756-0.6448l6.7072-4.3552l4.3552,6.7068
		c0.7656,1.18,2.0508,1.8204,3.3596,1.8204c0.746,0,1.5-0.2068,2.1756-0.6444c1.8516-1.2032,2.3788-3.6796,1.176-5.5352
		l-4.3556-6.7072l6.7068-4.3592c1.8516-1.2032,2.3792-3.6836,1.176-5.5352c-1.2032-1.8516-3.6836-2.3828-5.5352-1.1756
		l-6.7072,4.3552l-4.3552-6.7068c-1.2032-1.8516-3.676-2.3828-5.5352-1.176c-1.8516,1.2032-2.3788,3.6796-1.176,5.5352
		l4.3556,6.7072l-6.7068,4.3592c-1.8516,1.2032-2.3792,3.6836-1.176,5.5352C125.3475,23.9635,126.6327,24.6043,127.9415,24.6043z"/>
	<path fill="#4F676D" d="M145.6015,73.7683L84,147.1199v14.3476v8v6.3124l18.1483,17.6876H168v-73.8244
		C168,101.6551,159.6915,84.7643,145.6015,73.7683z"/>
	<path fill="#D8F768" d="M44,149.4675c-8.8245,0-16,7.1756-16,16c0,8.8244,7.1755,16,16,16c8.8243,0,16-7.1756,16-16
		C60,156.6431,52.8243,149.4675,44,149.4675z"/>
</g>
</svg>
