<?xml version="1.0" encoding="utf-8"?>
<!-- Generator: Adobe Illustrator 19.2.0, SVG Export Plug-In . SVG Version: 6.00 Build 0)  -->
<svg version="1.1" id="astronautmoon" xmlns="http://www.w3.org/2000/svg" xmlns:xlink="http://www.w3.org/1999/xlink" x="0px"
	 y="0px" viewBox="0 0 212 220" enable-background="new 0 0 212 220" xml:space="preserve">
<g>
	<path fill="#FFDC82" d="M80,128h0.6131H88V90h8v38h8.1015c-0.0312-0.672-0.1015-1.328-0.1015-2.008v-7.984
		C104,94.8437,122.84,76,146,76c4.8827,0,9.5547,0.8809,13.9219,2.4221C159.0663,35.0429,123.5819,0,80,0C35.8867,0,0,35.8889,0,80
		c0,44.1133,35.8867,80,80,80V128z M48,86c0,7.7189-6.2813,14-14,14c-7.7189,0-14-6.2811-14-14c0-7.7187,6.2811-14,14-14
		C41.7187,72,48,78.2813,48,86z M70,120c-7.7189,0-14-6.2811-14-14c0-7.7187,6.2811-14,14-14c7.7187,0,14,6.2813,14,14
		C84,113.7189,77.7187,120,70,120z M76,64c-11.0273,0-20-8.9727-20-20c0-11.0271,8.9727-20,20-20c11.0271,0,20,8.9729,20,20
		C96,55.0273,87.0271,64,76,64z"/>
	<path fill="#A9C7D8" d="M204,168.0313l-25.2617-15.7852c5.3868-6.7068,8.7224-15.0976,9.16-24.2461
		c0.0312-0.672,0.1017-1.328,0.1017-2.008v-7.984c0-18.2795-11.7501-33.8243-28.0781-39.5859C155.5547,76.8809,150.8827,76,146,76
		c-23.16,0-42,18.8437-42,42.008v7.984c0,0.68,0.0703,1.336,0.1015,2.008c0.4376,9.1485,3.7736,17.5393,9.16,24.2461L88,168.0313
		v9.4336l30.9803-19.3592C126.2891,164.2697,135.7107,168,146,168c10.2891,0,19.7107-3.7303,27.0195-9.8943L204,177.4649V168.0313z
		 M146,140.5157c-15.5509,0-26-9.0468-26-22.5157c0-18.5623,18.8907-18.5623,26-18.5623c7.1091,0,26,0,26,18.5623
		C172,131.4689,161.5507,140.5157,146,140.5157z"/>
	<path fill="#456782" d="M187.8983,128c-0.4376,9.1485-3.7732,17.5393-9.16,24.2461L204,168.0313v9.4336V220h8v-92H187.8983z"/>
	<path fill="#456782" d="M88,168.0313l25.2615-15.7852c-5.3864-6.7068-8.7224-15.0976-9.16-24.2461H96v6h-8v-6h-7.3869H80v32v60h8
		v-42.5351V168.0313z"/>
	<path fill="#456782" d="M146,99.4377c-7.1093,0-26,0-26,18.5623c0,13.4689,10.4491,22.5157,26,22.5157
		c15.5507,0,26-9.0468,26-22.5157C172,99.4377,153.1091,99.4377,146,99.4377z"/>
	<polygon fill="#A9C7D8" points="88,90 88,128 88,134 96,134 96,128 96,90 	"/>
	<path fill="#FE8657" d="M76,24c-11.0273,0-20,8.9729-20,20c0,11.0273,8.9727,20,20,20c11.0271,0,20-8.9727,20-20
		C96,32.9729,87.0271,24,76,24z"/>
	<path fill="#FE8657" d="M20,86c0,7.7189,6.2811,14,14,14c7.7187,0,14-6.2811,14-14c0-7.7187-6.2813-14-14-14
		C26.2811,72,20,78.2813,20,86z"/>
	<path fill="#FE8657" d="M70,92c-7.7189,0-14,6.2813-14,14c0,7.7189,6.2811,14,14,14c7.7187,0,14-6.2811,14-14
		C84,98.2813,77.7187,92,70,92z"/>
</g>
</svg>
