<?xml version="1.0" encoding="utf-8"?>
<!-- Generator: Adobe Illustrator 19.2.0, SVG Export Plug-In . SVG Version: 6.00 Build 0)  -->
<svg version="1.1" id="atom" xmlns="http://www.w3.org/2000/svg" xmlns:xlink="http://www.w3.org/1999/xlink" x="0px" y="0px"
	 viewBox="0 0 220 220" enable-background="new 0 0 220 220" xml:space="preserve">
<g>
	<path fill="none" d="M82.5271,176.244c5.4104-2.4688,11.0784-5.494,16.9572-9.1816c-3.3008-2.5096-6.59-5.1288-9.8516-7.8964
		c-4.2772-0.3516-8.4764-0.7988-12.5508-1.3612C78.6211,164.5352,80.4647,170.6992,82.5271,176.244z"/>
	<path fill="none" d="M62.1951,142.92c-0.5664-4.092-1.0116-8.3028-1.3631-12.5956c-2.7657-3.262-5.4337-6.5276-7.9065-9.7952
		c-3.6872,5.8752-6.7068,11.5392-9.1716,16.9396C49.2967,139.5352,55.4647,141.3768,62.1951,142.92z"/>
	<path fill="none" d="M39.3475,148.6016c-4.5584,14.1092-4.1368,25.2032,1.3556,30.6952c5.492,5.4884,16.582,5.9104,30.6912,1.3536
		c-2.832-7.5236-5.1952-15.9276-7.0352-25.0116C55.2771,153.8008,46.8671,151.4336,39.3475,148.6016z"/>
	<path fill="none" d="M157.8047,142.92c6.7304-1.5432,12.8984-3.3848,18.4452-5.4512c-2.4688-5.4004-5.4884-11.0644-9.172-16.9396
		c-2.4764,3.2676-5.1444,6.5352-7.9099,9.7952C158.8163,134.6172,158.3711,138.828,157.8047,142.92z"/>
	<path fill="none" d="M71.3983,39.34c-6.414-2.0724-12.2108-3.1292-17.1328-3.1292c-5.9064,0-10.5664,1.4944-13.5624,4.4904
		c-5.4924,5.494-5.914,16.588-1.3556,30.6972c7.5236-2.832,15.9296-5.1992,25.0116-7.0372
		C66.1991,55.2736,68.5663,46.8652,71.3983,39.34z"/>
	<path fill="none" d="M110,208c7.7615,0,15.9063-7.5216,22.6563-20.7072c-7.4144-3.3884-15.0156-7.6836-22.6448-12.7636
		c-7.738,5.1368-15.3632,9.3828-22.6992,12.7052C94.0703,200.4552,102.2263,208,110,208z"/>
	<path fill="none" d="M12,110c0,7.7696,7.5351,15.922,20.7459,22.6756c3.3164-7.324,7.6212-14.9492,12.7501-22.6756
		c-5.1249-7.7264-9.4337-15.3516-12.7501-22.6756C19.5351,94.078,12,102.2304,12,110z"/>
	<path fill="none" d="M89.672,60.832c3.2575-2.7616,6.5195-5.4236,9.7811-7.8964c-5.8596-3.672-11.5276-6.7424-16.914-9.2032
		c-2.0704,5.5508-3.914,11.7228-5.4572,18.4628C81.172,61.6308,85.3787,61.1836,89.672,60.832z"/>
	<path fill="none" d="M187.2579,132.6756C200.4647,125.922,208,117.7696,208,110s-7.5353-15.922-20.7461-22.6756
		c-3.3164,7.324-7.6212,14.9492-12.7499,22.6756C179.6327,117.7264,183.9375,125.3516,187.2579,132.6756z"/>
	<path fill="none" d="M110,12c-7.7697,0-15.9221,7.5352-22.6757,20.742c7.324,3.3184,14.9492,7.6252,22.6757,12.752
		c7.7263-5.1268,15.3515-9.4316,22.6755-12.75C125.9219,19.5352,117.7695,12,110,12z"/>
	<path fill="none" d="M180.6523,71.3984c4.5584-14.1092,4.1368-25.2032-1.3556-30.6952c-2.996-2.996-7.66-4.4924-13.5624-4.4924
		c-4.922,0-10.7188,1.0568-17.1328,3.1292c2.832,7.5252,5.1992,15.9336,7.0392,25.0212
		C164.7227,66.1992,173.1287,68.5664,180.6523,71.3984z"/>
	<path fill="none" d="M137.4607,43.7324c-5.3864,2.4592-11.0544,5.5312-16.914,9.2032c3.2616,2.4728,6.5236,5.1348,9.7813,7.8964
		c4.2891,0.3516,8.5,0.7988,12.5899,1.3632C141.3751,55.4552,139.5311,49.2812,137.4607,43.7324z"/>
	<path fill="none" d="M157.8047,77.08c0.5664,4.092,1.0116,8.2988,1.3633,12.592c2.7655,3.2616,5.4335,6.5292,7.9099,9.7968
		c3.6836-5.8752,6.7032-11.5372,9.172-16.9376C170.7031,80.4668,164.5351,78.6232,157.8047,77.08z"/>
	<path fill="none" d="M148.5663,180.75c14.1212,4.6076,25.1368,4.1388,30.7304-1.4552c5.4924-5.492,5.914-16.586,1.3596-30.6932
		c-7.5276,2.832-15.9336,5.1992-25.0156,7.0372C153.7927,164.7636,151.4139,173.2032,148.5663,180.75z"/>
	<path fill="none" d="M118,110c0-4.412-3.5901-8-8-8c-4.4101,0-8,3.588-8,8s3.5899,8,8,8C114.4099,118,118,114.412,118,110z"/>
	<path fill="none" d="M130.332,159.168c-3.2737,2.7792-6.5585,5.4396-9.84,7.9256c5.7343,3.6076,11.4063,6.6564,16.9611,9.2052
		c2.0704-5.5584,3.918-11.744,5.4648-18.494C138.832,158.3692,134.6251,158.8164,130.332,159.168z"/>
	<path fill="none" d="M125.4451,147.508c3.8088-3.342,7.6252-6.836,11.426-10.6368c3.8009-3.8008,7.2969-7.6152,10.6369-11.422
		C147.828,120.4572,148,115.3048,148,110s-0.172-10.4588-0.492-15.4512c-3.34-3.8068-6.836-7.6192-10.6369-11.422
		c-3.7736-3.7732-7.5628-7.3104-11.344-10.6288C120.5115,72.172,115.332,72,110,72s-10.5117,0.172-15.5273,0.498
		c-3.7812,3.3184-7.5704,6.8576-11.344,10.6308c-3.8007,3.8028-7.2967,7.6152-10.6367,11.422C72.172,99.5428,72,104.6952,72,110
		s0.172,10.4552,0.492,15.4472c3.34,3.8068,6.836,7.6192,10.6367,11.422c3.7384,3.7364,7.5588,7.252,11.414,10.6388
		C99.5391,147.828,104.6915,148,110,148C115.3047,148,120.4571,147.828,125.4451,147.508z M94,110c0-8.8224,7.1755-16,16-16
		c8.8243,0,16,7.1776,16,16s-7.1757,16-16,16C101.1755,126,94,118.8224,94,110z"/>
	<path fill="none" d="M62.1951,77.08c-6.7304,1.5432-12.8984,3.3868-18.4412,5.4492c2.4648,5.4024,5.488,11.0644,9.1716,16.9396
		c2.4728-3.2676,5.1408-6.5332,7.9065-9.7932C61.1835,85.3828,61.6287,81.172,62.1951,77.08z"/>
	<path fill="#746DE0" d="M72.492,94.5508C67.9335,99.746,63.8047,104.9084,60.1055,110c3.6992,5.09,7.828,10.254,12.3865,15.4472
		C72.172,120.4552,72,115.3048,72,110S72.172,99.5428,72.492,94.5508z"/>
	<path fill="#746DE0" d="M64.3591,155.6388c1.84,9.084,4.2032,17.488,7.0352,25.0116c3.5276-1.1408,7.2657-2.6408,11.1328-4.4064
		c-2.0624-5.5448-3.906-11.7088-5.4452-18.4392C72.7071,157.2032,68.4687,156.4688,64.3591,155.6388z"/>
	<path fill="#746DE0" d="M145.3943,145.3144c4.3204-0.6836,8.4572-1.49,12.4104-2.3944c0.5664-4.092,1.0116-8.3028,1.3633-12.5956
		C154.8943,135.3632,150.328,140.3788,145.3943,145.3144z"/>
	<path fill="#746DE0" d="M147.508,125.4492c4.5583-5.1952,8.6871-10.3592,12.3863-15.4492
		c-3.6992-5.0936-7.828-10.258-12.3863-15.4512C147.828,99.5412,148,104.6952,148,110S147.828,120.4572,147.508,125.4492z"/>
	<path fill="#746DE0" d="M74.6091,145.3164c-4.9336-4.9376-9.5036-9.9532-13.7771-14.992
		c0.3515,4.2928,0.7967,8.5036,1.3631,12.5956C66.1483,143.8244,70.2891,144.6308,74.6091,145.3164z"/>
	<path fill="#746DE0" d="M77.0819,62.1952c1.5432-6.74,3.3868-12.912,5.4572-18.4628c-3.8751-1.7696-7.6056-3.25-11.1408-4.3924
		c-2.832,7.5252-5.1992,15.9336-7.0392,25.0212C68.4687,63.5312,72.7071,62.7968,77.0819,62.1952z"/>
	<path fill="#746DE0" d="M132.6563,187.2928C125.9063,200.4784,117.7615,208,110,208c-7.7737,0-15.9297-7.5448-22.6877-20.7656
		c-3.8083,1.7228-7.5352,3.1912-11.156,4.3984C85,209.334,96.828,220,110,220c13.1407,0,24.9491-10.6152,33.7851-28.246
		c-1.9844-0.67-3.9768-1.3596-6.0392-2.1956C136.0663,188.8788,134.3591,188.0724,132.6563,187.2928z"/>
	<path fill="#746DE0" d="M142.9179,157.8048c-1.5468,6.75-3.3944,12.9356-5.4648,18.494c1.6052,0.7364,3.2189,1.498,4.8008,2.1388
		c2.164,0.8788,4.2696,1.6464,6.3124,2.3124c2.8476-7.5468,5.2264-15.9864,7.0744-25.1112
		C151.5271,156.4708,147.2927,157.2032,142.9179,157.8048z"/>
	<path fill="#746DE0" d="M145.3983,74.6856c4.9297,4.9336,9.496,9.9512,13.7697,14.9864c-0.3517-4.2932-0.7969-8.5-1.3633-12.592
		C153.8555,76.1756,149.7147,75.3712,145.3983,74.6856z"/>
	<path fill="#746DE0" d="M110,12c7.7695,0,15.9219,7.5352,22.6755,20.744c3.8285-1.7344,7.5432-3.1308,11.1836-4.3416
		C135.0155,10.6796,123.1795,0,110,0C96.8203,0,84.9843,10.6796,76.1407,28.4004c3.6404,1.2108,7.3553,2.6076,11.1836,4.3416
		C94.0779,19.5352,102.2303,12,110,12z"/>
	<path fill="#746DE0" d="M60.832,89.6756c4.2735-5.0388,8.84-10.0564,13.7735-14.99c-4.3204,0.6856-8.4572,1.49-12.4104,2.3944
		C61.6287,81.172,61.1835,85.3828,60.832,89.6756z"/>
	<path fill="#746DE0" d="M155.6407,64.3612c-1.84-9.0876-4.2072-17.496-7.0392-25.0212c-3.5352,1.1424-7.2655,2.6208-11.1408,4.3924
		c2.0704,5.5488,3.9144,11.7228,5.4572,18.4628C147.2927,62.7968,151.5271,63.5292,155.6407,64.3612z"/>
	<path fill="#F8A131" d="M12,110c0-7.7696,7.5351-15.922,20.7459-22.6756c-1.7344-3.8304-3.1328-7.5452-4.3436-11.1836
		C10.6795,84.9844,0,96.8204,0,110s10.6795,25.0156,28.4023,33.8592c1.2108-3.6384,2.6092-7.3532,4.3436-11.1836
		C19.5351,125.922,12,117.7696,12,110z"/>
	<path fill="#F8A131" d="M157.8047,142.92c-3.9532,0.9044-8.09,1.7108-12.4104,2.3944c-0.0156,0.0136-0.0272,0.0272-0.0388,0.0412
		c-4.9456,4.9452-9.9728,9.5292-15.0235,13.8124c4.2931-0.3516,8.5-0.7988,12.5859-1.3632c4.3748-0.6016,8.6092-1.334,12.7228-2.166
		c9.082-1.838,17.488-4.2052,25.0156-7.0372c-1.1408-3.5272-2.6408-7.2656-4.4064-11.1328
		C170.7031,139.5352,164.5351,141.3768,157.8047,142.92z"/>
	<path fill="#F8A131" d="M220,110c0-13.1796-10.6797-25.0156-28.4025-33.8592c-1.2108,3.6384-2.6092,7.3552-4.3436,11.1836
		C200.4647,94.078,208,102.2304,208,110s-7.5353,15.922-20.7421,22.6756c1.7304,3.8284,3.1288,7.5432,4.3396,11.1836
		C209.3203,135.0156,220,123.1796,220,110z"/>
	<path fill="#F8A131" d="M43.7539,137.4688c-1.7696,3.8672-3.2696,7.6056-4.4064,11.1328
		c7.5196,2.832,15.9296,5.1992,25.0116,7.0372c4.1096,0.83,8.348,1.5644,12.7228,2.166c4.0744,0.5624,8.2736,1.0096,12.5508,1.3612
		c-5.086-4.3184-10.1056-8.9276-14.9884-13.8124c-0.0116-0.0136-0.0232-0.0256-0.0352-0.0372
		c-4.32-0.6856-8.4608-1.492-12.414-2.3964C55.4647,141.3768,49.2967,139.5352,43.7539,137.4688z"/>
	<path fill="#F8A131" d="M110,148c-5.3085,0-10.4609-0.172-15.4573-0.492c5.098,4.4744,10.258,8.6188,15.4416,12.3964
		c5.0936-3.7012,10.2616-7.834,15.4608-12.3964C120.4571,147.828,115.3047,148,110,148z"/>
	<path fill="#F8A131" d="M176.2499,82.5312c1.7616-3.8672,3.2656-7.6056,4.4024-11.1328
		c-7.5236-2.832-15.9296-5.1992-25.0116-7.0372c-4.1136-0.832-8.348-1.5644-12.7228-2.166
		c-4.0899-0.5644-8.3008-1.0116-12.5899-1.3632c5.0507,4.2852,10.0783,8.8632,15.0275,13.8104
		c0.0156,0.014,0.0272,0.0296,0.0428,0.0432c4.3164,0.6856,8.4572,1.49,12.4064,2.3944
		C164.5351,78.6232,170.7031,80.4668,176.2499,82.5312z"/>
	<path fill="#F8A131" d="M110,72c5.332,0,10.5115,0.172,15.5271,0.498c-5.2188-4.586-10.41-8.7052-15.5271-12.4236
		c-5.1173,3.7184-10.3085,7.8376-15.5273,12.4236C99.4883,72.172,104.668,72,110,72z"/>
	<path fill="#F8A131" d="M74.6055,74.6856c0.0116-0.0136,0.0272-0.0272,0.0388-0.0412c4.9456-4.9472,9.9768-9.5272,15.0277-13.8124
		c-4.2933,0.3516-8.5,0.7988-12.5901,1.3632c-4.3748,0.6016-8.6132,1.336-12.7228,2.166c-9.082,1.838-17.488,4.2052-25.0116,7.0372
		c1.1368,3.5272,2.6408,7.2656,4.4064,11.1308c5.5428-2.0624,11.7108-3.906,18.4412-5.4492
		C66.1483,76.1756,70.2851,75.3712,74.6055,74.6856z"/>
	<path fill="#FF427A" d="M83.1287,83.1288c3.7736-3.7732,7.5628-7.3124,11.344-10.6308c5.2188-4.586,10.41-8.7052,15.5273-12.4236
		c-3.5665-2.59-7.0861-4.9688-10.5469-7.1388c-3.2616,2.4728-6.5236,5.1348-9.7811,7.8964
		c-5.0509,4.2852-10.0821,8.8652-15.0277,13.8124c-0.0116,0.014-0.0272,0.0276-0.0388,0.0412
		c-4.9335,4.9336-9.5,9.9512-13.7735,14.99c-2.7657,3.26-5.4337,6.5256-7.9065,9.7932c2.1644,3.4512,4.598,6.9764,7.18,10.5312
		c3.6992-5.0916,7.828-10.254,12.3865-15.4492C75.832,90.744,79.328,86.9316,83.1287,83.1288z"/>
	<path fill="#FF427A" d="M110,45.494c3.5,2.3224,7.0155,4.7676,10.5467,7.4416c5.8596-3.672,11.5276-6.744,16.914-9.2032
		c3.8753-1.7716,7.6056-3.25,11.1408-4.3924c6.414-2.0724,12.2108-3.1292,17.1328-3.1292c5.9024,0,10.5664,1.4964,13.5624,4.4924
		c5.4924,5.492,5.914,16.586,1.3556,30.6952c-1.1368,3.5272-2.6408,7.2656-4.4024,11.1328
		c-2.4688,5.4004-5.4884,11.0624-9.172,16.9376c2.668,3.5232,5.1096,7.0332,7.4261,10.5312
		c5.1287-7.7264,9.4335-15.3516,12.7499-22.6756c1.7344-3.8284,3.1328-7.5452,4.3436-11.1836
		c6.2268-18.7248,5.4804-34.6272-3.8164-43.922c-9.2928-9.2968-25.1952-10.0432-43.922-3.8164
		c-3.6404,1.2108-7.3551,2.6072-11.1836,4.3416C125.3515,36.0624,117.7263,40.3672,110,45.494z"/>
	<path fill="#FF427A" d="M110.0115,174.5292c-3.5115-2.3396-7.0232-4.8104-10.5272-7.4668
		c-5.8788,3.6876-11.5468,6.7128-16.9572,9.1816c-3.8671,1.7656-7.6052,3.2656-11.1328,4.4064
		c-14.1092,4.5568-25.1992,4.1348-30.6912-1.3536c-5.4924-5.492-5.914-16.586-1.3556-30.6952
		c1.1368-3.5272,2.6368-7.2656,4.4064-11.1328c2.4648-5.4004,5.4844-11.0644,9.1716-16.9396
		C50.2539,117.006,47.8163,113.496,45.496,110c-5.1289,7.7264-9.4337,15.3516-12.7501,22.6756
		c-1.7344,3.8304-3.1328,7.5452-4.3436,11.1836c-6.2268,18.7268-5.4804,34.6272,3.8164,43.922
		c5.3632,5.3632,12.91,7.912,21.9376,7.912c6.6248,0,14.0664-1.4196,22-4.0604c3.6208-1.2072,7.3477-2.6756,11.156-4.3984
		C94.6483,183.912,102.2735,179.666,110.0115,174.5292z"/>
	<path fill="#FF427A" d="M145.3555,145.3556c0.0116-0.014,0.0232-0.0276,0.0388-0.0412c4.9337-4.9356,9.5-9.9512,13.7737-14.99
		c2.7655-3.26,5.4335-6.5276,7.9099-9.7952c-2.164-3.4512-4.5976-6.9744-7.1836-10.5292c-3.6992,5.09-7.828,10.254-12.3863,15.4492
		c-3.34,3.8068-6.836,7.6212-10.6369,11.422c-3.8008,3.8008-7.6172,7.2948-11.426,10.6368
		c-5.1992,4.5624-10.3672,8.6952-15.4608,12.3964c3.504,2.5544,7.0117,4.99,10.5077,7.1892c3.2815-2.486,6.5663-5.1464,9.84-7.9256
		C135.3827,154.8848,140.4099,150.3008,145.3555,145.3556z"/>
	<path fill="#3BABB7" d="M174.504,110c-2.3165-3.498-4.7581-7.008-7.4261-10.5312c-2.4764-3.2676-5.1444-6.5352-7.9099-9.7968
		c-4.2737-5.0352-8.84-10.0528-13.7697-14.9864c-0.0156-0.0136-0.0272-0.0292-0.0428-0.0432
		c-4.9492-4.9472-9.9768-9.5252-15.0275-13.8104c-3.2577-2.7616-6.5197-5.4236-9.7813-7.8964
		C117.0155,50.2616,113.5,47.8164,110,45.494c-7.7265-5.1268-15.3517-9.4336-22.6757-12.752
		c-3.8283-1.734-7.5432-3.1308-11.1836-4.3416c-18.7268-6.2264-34.6252-5.4824-43.922,3.8164
		c-9.2968,9.2968-10.0432,25.1972-3.8164,43.924c1.2108,3.6384,2.6092,7.3532,4.3436,11.1836
		c3.3164,7.324,7.6252,14.9492,12.7501,22.6756c2.3203,3.496,4.7579,7.006,7.4295,10.5292
		c2.4728,3.2676,5.1408,6.5332,7.9065,9.7952c4.2735,5.0388,8.8435,10.0544,13.7771,14.992
		c0.012,0.0116,0.0236,0.0236,0.0352,0.0372c4.8828,4.8848,9.9024,9.494,14.9884,13.8124c3.2616,2.7676,6.5508,5.3868,9.8516,7.8964
		c3.504,2.6564,7.0157,5.1272,10.5272,7.4668c7.6292,5.08,15.2304,9.3752,22.6448,12.7636c1.7028,0.7796,3.41,1.586,5.0896,2.2656
		c2.0624,0.836,4.0548,1.5256,6.0392,2.1956c7.992,2.6972,15.3592,4.1072,21.8632,4.1072c9.2108,0,16.75-2.6992,22.1328-8.082
		c9.2968-9.2948,10.0432-25.1952,3.8164-43.92c-1.2108-3.6404-2.6092-7.3552-4.3396-11.1836
		C183.9375,125.3516,179.6327,117.7264,174.504,110z M179.2967,179.2948c-5.5936,5.594-16.6092,6.0628-30.7304,1.4552
		c-2.0428-0.666-4.1484-1.4336-6.3124-2.3124c-1.5819-0.6408-3.1956-1.4024-4.8008-2.1388
		c-5.5548-2.5488-11.2268-5.5976-16.9611-9.2052c-3.496-2.1992-7.0037-4.6348-10.5077-7.1892
		c-5.1836-3.7776-10.3436-7.922-15.4416-12.3964c-3.8552-3.3868-7.6756-6.9024-11.414-10.6388
		c-3.8007-3.8028-7.2967-7.6152-10.6367-11.422C67.9335,120.254,63.8047,115.09,60.1055,110c-2.582-3.5548-5.0156-7.08-7.18-10.5312
		c-3.6836-5.8752-6.7068-11.5372-9.1716-16.9396c-1.7656-3.8652-3.2696-7.6036-4.4064-11.1308
		c-4.5584-14.1092-4.1368-25.2032,1.3556-30.6972c2.996-2.996,7.656-4.4904,13.5624-4.4904c4.922,0,10.7188,1.0568,17.1328,3.1292
		c3.5352,1.1424,7.2657,2.6228,11.1408,4.3924c5.3864,2.4608,11.0544,5.5312,16.914,9.2032
		c3.4608,2.17,6.9804,4.5488,10.5469,7.1388c5.1171,3.7184,10.3083,7.8376,15.5271,12.4236
		c3.7812,3.3184,7.5704,6.8556,11.344,10.6288c3.8009,3.8028,7.2969,7.6152,10.6369,11.422
		c4.5583,5.1932,8.6871,10.3576,12.3863,15.4512c2.586,3.5548,5.0196,7.078,7.1836,10.5292
		c3.6836,5.8752,6.7032,11.5392,9.172,16.9396c1.7656,3.8672,3.2656,7.6056,4.4064,11.1328
		C185.2107,162.7088,184.7891,173.8028,179.2967,179.2948z"/>
	<path fill="#9AB040" d="M126,110c0-8.8224-7.1757-16-16-16c-8.8245,0-16,7.1776-16,16s7.1755,16,16,16
		C118.8243,126,126,118.8224,126,110z M102,110c0-4.412,3.5899-8,8-8c4.4099,0,8,3.588,8,8s-3.5901,8-8,8
		C105.5899,118,102,114.412,102,110z"/>
</g>
</svg>
