<?xml version="1.0" encoding="utf-8"?>
<!-- Generator: Adobe Illustrator 19.2.0, SVG Export Plug-In . SVG Version: 6.00 Build 0)  -->
<svg version="1.1" id="bacteria" xmlns="http://www.w3.org/2000/svg" xmlns:xlink="http://www.w3.org/1999/xlink" x="0px" y="0px"
	 viewBox="0 0 229.5269 205.4561" enable-background="new 0 0 229.5269 205.4561" xml:space="preserve">
<g>
	<path fill="#FD5A5A" d="M110.6961,88.886c-6.8788-1.9844-26.32-6.7812-43.4804-3.344
		c-21.1092,4.2228-33.7264,18.7032-34.25,19.3204c-1.4412,1.676-1.246,4.1992,0.4336,5.6368
		c0.754,0.6484,1.6796,0.9648,2.6017,0.9648c1.1251,0,2.2459-0.4728,3.0351-1.3984c0.1132-0.1288,11.3164-12.9924,29.75-16.6796
		c13.3829-2.6836,28.9532,0.418,36.824,2.4256c-1.1716,0.5236-2.1796,1.414-2.8124,2.672
		c-0.0624,0.0976-6.5896,9.5584-39.4256,13.0116C22.7393,115.7725,1.6337,152.968,0.7549,154.55
		c-1.6056,2.8944-0.5664,6.5352,2.324,8.1484c0.9261,0.5156,1.9261,0.7616,2.9141,0.7616c2.1055,0,4.1487-1.1092,5.2463-3.074
		c0.1872-0.332,19.0544-33.34,53.3904-36.9532c26.5508-2.7968,38.8793-9.4768,44.4844-14.2892
		c-1.836-3.074-2.7696-6.5196-2.5428-10.086C106.8093,95.3,108.2589,91.804,110.6961,88.886z"/>
	<path fill="#FD5A5A" d="M112.0205,112.9641c-0.8944-0.8908-1.6564-1.8556-2.34-2.8556
		c-1.6715,5.5196-9.1875,25.2188-32.7108,31.4924c-30.5116,8.1328-31.7384,17.2812-30.8476,20.832
		c0.4532,1.8204,2.082,3.0312,3.8749,3.0312c0.3203,0,0.6483-0.0392,0.9727-0.1212c1.8984-0.4724,3.1368-2.2264,3.0273-4.1092
		c0.3283-0.7968,3.3007-6.1096,25.0351-11.9064c23.176-6.1796,33.004-23.1876,36.7812-32.5896
		c-0.0312-0.0316-0.0704-0.0508-0.1016-0.082L112.0205,112.9641z"/>
	<path fill="#FD5A5A" d="M93.4853,156.0148c-28.3436,13.082-35.0588,40.922-35.332,42.1016
		c-0.7424,3.2188,1.2616,6.4256,4.4804,7.1796c0.4572,0.1056,0.918,0.16,1.3713,0.16c2.7147,0,5.1795-1.8672,5.836-4.6208
		c0.0583-0.2344,5.8043-23.3672,28.6755-33.922c22.7656-10.5076,29.1172-33.9256,30.84-44.1484
		c-4.1564-0.3828-8.1484-1.8436-11.4804-4.3672C117.1805,124.1009,113.1925,146.9212,93.4853,156.0148z"/>
	<path fill="#63B473" d="M223.1925,9.1748l-3.6915-3.6872c-3.8517-3.8516-8.7929-5.7736-13.9573-5.4532
		c-5.1404,0.336-9.7928,2.8904-13.0312,7.1016l-25.414,31.1132c-5.75,6.4336-15.7032,16.2228-22.2032,22.2148l-31.1404,25.4452
		c-1.1604,0.8984-2.164,1.9024-3.0588,2.9768c-2.4372,2.918-3.8868,6.414-4.1248,10.1716c-0.2268,3.5664,0.7068,7.012,2.5428,10.086
		c0.1916,0.3244,0.3516,0.6524,0.5664,0.9648c0.6836,1,1.4456,1.9648,2.34,2.8556l3.6912,3.6916
		c0.0312,0.0312,0.0704,0.0504,0.1016,0.082c0.6328,0.6248,1.3597,1.1288,2.0628,1.66c3.332,2.5236,7.324,3.9844,11.4804,4.3672
		c0.7224,0.0664,1.4372,0.1992,2.164,0.1992c4.8165,0,9.6405-1.4648,13.5388-4.4648l31.3868-25.6444
		c6.6564-5.9492,16.7384-16.2072,23.004-23.016l25.6444-31.3984C231.6805,29.9445,230.829,16.8156,223.1925,9.1748z
		 M136.829,94.2921c-0.7813,0.7812-1.8045,1.172-2.828,1.172c-1.0237,0-2.0469-0.3908-2.828-1.172l-8-8
		c-1.5629-1.5624-1.5629-4.0936,0-5.656c1.5623-1.5628,4.0935-1.5628,5.656,0l8,8
		C138.3917,90.1984,138.3917,92.7297,136.829,94.2921z M162.3993,98.6632c-0.7188,0.5392-1.5583,0.8008-2.3943,0.8008
		c-1.2189,0-2.4181-0.5508-3.2033-1.6016l-6-8c-1.328-1.7656-0.9687-4.2736,0.8008-5.5976c1.7656-1.328,4.2696-0.9728,5.5976,0.8008
		l6,8C164.5281,94.8313,164.169,97.3389,162.3993,98.6632z M168.829,72.2921c-0.7813,0.7812-1.8045,1.172-2.828,1.172
		c-1.0237,0-2.0469-0.3908-2.828-1.172l-10-10c-1.5629-1.5624-1.5629-4.0936,0-5.656c1.5623-1.5628,4.0935-1.5628,5.656,0l10,10
		C170.3917,68.1984,170.3917,70.7297,168.829,72.2921z M198.829,70.2921c-0.7813,0.7812-1.8045,1.172-2.828,1.172
		c-1.0237,0-2.0469-0.3908-2.828-1.172l-8-8c-1.5629-1.5624-1.5629-4.0936,0-5.656c1.5623-1.5628,4.0935-1.5628,5.656,0l8,8
		C200.3917,66.1984,200.3917,68.7297,198.829,70.2921z M199.829,40.292c-0.7813,0.7812-1.8045,1.172-2.828,1.172
		c-1.0237,0-2.0469-0.3908-2.828-1.172l-10-10c-1.5629-1.5624-1.5629-4.0936,0-5.656c1.5623-1.5628,4.0935-1.5628,5.656,0l10,10
		C201.3917,36.1984,201.3917,38.7296,199.829,40.292z"/>
	<path fill="#D8F768" d="M128.829,80.636c-1.5625-1.5628-4.0937-1.5628-5.656,0c-1.5629,1.5624-1.5629,4.0936,0,5.656l8,8
		c0.7811,0.7812,1.8043,1.172,2.828,1.172c1.0235,0,2.0467-0.3908,2.828-1.172c1.5627-1.5624,1.5627-4.0936,0-5.656L128.829,80.636z
		"/>
	<path fill="#D8F768" d="M157.2001,85.0657c-1.328-1.7736-3.832-2.1288-5.5976-0.8008c-1.7695,1.324-2.1288,3.832-0.8008,5.5976l6,8
		c0.7852,1.0508,1.9844,1.6016,3.2033,1.6016c0.836,0,1.6755-0.2616,2.3943-0.8008c1.7697-1.3244,2.1288-3.832,0.8008-5.5976
		L157.2001,85.0657z"/>
	<path fill="#D8F768" d="M158.829,56.6361c-1.5625-1.5628-4.0937-1.5628-5.656,0c-1.5629,1.5624-1.5629,4.0936,0,5.656l10,10
		c0.7811,0.7812,1.8043,1.172,2.828,1.172c1.0235,0,2.0467-0.3908,2.828-1.172c1.5627-1.5624,1.5627-4.0936,0-5.656L158.829,56.6361
		z"/>
	<path fill="#D8F768" d="M189.829,24.636c-1.5625-1.5628-4.0937-1.5628-5.656,0c-1.5629,1.5624-1.5629,4.0936,0,5.656l10,10
		c0.7811,0.7812,1.8043,1.172,2.828,1.172c1.0235,0,2.0467-0.3908,2.828-1.172c1.5627-1.5624,1.5627-4.0936,0-5.656L189.829,24.636z
		"/>
	<path fill="#D8F768" d="M190.829,56.6361c-1.5625-1.5628-4.0937-1.5628-5.656,0c-1.5629,1.5624-1.5629,4.0936,0,5.656l8,8
		c0.7811,0.7812,1.8043,1.172,2.828,1.172c1.0235,0,2.0467-0.3908,2.828-1.172c1.5627-1.5624,1.5627-4.0936,0-5.656L190.829,56.6361
		z"/>
</g>
</svg>
