<?xml version="1.0" encoding="utf-8"?>
<!-- Generator: Adobe Illustrator 19.2.0, SVG Export Plug-In . SVG Version: 6.00 Build 0)  -->
<svg version="1.1" id="bomb" xmlns="http://www.w3.org/2000/svg" xmlns:xlink="http://www.w3.org/1999/xlink" x="0px" y="0px"
	 viewBox="0 0 226.0326 215.2928" enable-background="new 0 0 226.0326 215.2928" xml:space="preserve">
<g>
	<path fill="#4F676D" d="M215.8184,101.2616c-16.758-29.0252-49.8984-42.756-81.0604-36.4024l0.0272,0.0488
		c1.1036,1.914,0.4492,4.3596-1.4648,5.4648l-34.6408,20c-0.6132,0.3536-1.3044,0.5352-2,0.5352
		c-0.3476,0-0.6952-0.0448-1.0352-0.1364c-1.0252-0.2736-1.8984-0.9456-2.4296-1.8636l-0.0272-0.0488
		c-21.088,23.8124-25.762,59.3792-9.006,88.4024c10.1504,17.58,26.5392,30.1544,46.1484,35.4084
		c6.5468,1.7556,13.1896,2.6228,19.7932,2.6228c13.168,0,26.166-3.4548,37.8768-10.2148
		c17.58-10.1504,30.1564-26.5392,35.41-46.1464C228.664,139.322,225.9688,118.8416,215.8184,101.2616z M125,95.9608
		c-11.5664,6.676-19.84,17.4572-23.2968,30.3576c-3.4572,12.9004-1.6816,26.3748,4.996,37.9412
		c1.1036,1.914,0.4492,4.3596-1.4648,5.4648c-0.6288,0.3636-1.3184,0.5352-1.996,0.5352c-1.3828,0-2.7268-0.7168-3.4688-2
		c-7.746-13.416-9.8028-29.0468-5.7932-44.0116c4.01-14.9648,13.6076-27.4708,27.0236-35.2168
		c1.912-1.1096,4.3576-0.4512,5.4648,1.4648C127.5684,92.41,126.912,94.8552,125,95.9608z"/>
	<path fill="#90A9AE" d="M121,89.0312c-13.416,7.746-23.0136,20.252-27.0236,35.2168c-4.0096,14.9648-1.9528,30.5956,5.7932,44.0116
		c0.742,1.2832,2.086,2,3.4688,2c0.6776,0,1.3672-0.1716,1.996-0.5352c1.914-1.1052,2.5684-3.5508,1.4648-5.4648
		c-6.6776-11.5664-8.4532-25.0408-4.996-37.9412C105.16,113.418,113.4336,102.6368,125,95.9608
		c1.912-1.1056,2.5684-3.5508,1.4648-5.4648C125.3576,88.58,122.912,87.9216,121,89.0312z"/>
	<path fill="#F8A131" d="M95.6444,90.7716c0.34,0.0916,0.6876,0.1364,1.0352,0.1364c0.6956,0,1.3868-0.1816,2-0.5352l34.6408-20
		c1.914-1.1052,2.5684-3.5508,1.4648-5.4648l-0.0272-0.0488l-7.9728-13.8084c-0.5312-0.918-1.4044-1.59-2.4296-1.8632
		c-1.0236-0.2776-2.1172-0.1312-3.0352,0.3984l-13.9612,8.0604c0.4492,0.6932,0.928,1.3632,1.344,2.084
		c1.1036,1.914,0.4492,4.3592-1.4648,5.4648c-0.6308,0.3632-1.3184,0.5352-1.9964,0.5352c-1.3828,0-2.7264-0.7168-3.4684-2
		c-0.416-0.7208-0.8888-1.3944-1.342-2.084l-13.752,7.9396c-1.914,1.1052-2.5684,3.5508-1.4648,5.4648l7.9728,13.8084l0.0272,0.0488
		C93.746,89.826,94.6192,90.498,95.6444,90.7716z"/>
	<path fill="#4F676D" d="M105.242,65.7304c0.678,0,1.3656-0.172,1.9964-0.5352c1.914-1.1056,2.5684-3.5508,1.4648-5.4648
		c-0.416-0.7208-0.8948-1.3908-1.344-2.084c-6.7968-10.5664-17.0876-18.162-29.3064-21.4356
		c-13.0216-3.49-26.6212-1.7012-38.3028,5.0412c-1.914,1.1052-2.5684,3.5508-1.4648,5.4648c1.1036,1.91,3.5468,2.5664,5.4648,1.4648
		c9.826-5.674,21.2716-7.1776,32.2324-4.244c10.1544,2.7224,18.7264,8.99,24.4492,17.7088c0.4532,0.6896,0.926,1.3632,1.342,2.084
		C102.5156,65.0136,103.8592,65.7304,105.242,65.7304z"/>
	
		<rect x="16.0002" y="-4.8752" transform="matrix(0.5547 -0.832 0.832 0.5547 -2.3657 22.6733)" fill="#FF6B97" width="7.9997" height="36.8441"/>
	
		<rect x="-0.1243" y="67.547" transform="matrix(0.4961 -0.8682 0.8682 0.4961 -52.043 53.4154)" fill="#FF6B97" width="40.2486" height="7.9995"/>
	<rect y="31.5468" fill="#FF6B97" width="28" height="8"/>
</g>
</svg>
