<?xml version="1.0" encoding="utf-8"?>
<!-- Generator: Adobe Illustrator 19.2.0, SVG Export Plug-In . SVG Version: 6.00 Build 0)  -->
<svg version="1.1" id="cheesemoon" xmlns="http://www.w3.org/2000/svg" xmlns:xlink="http://www.w3.org/1999/xlink" x="0px" y="0px"
	 viewBox="0 0 224 224" enable-background="new 0 0 224 224" xml:space="preserve">
<g>
	<path fill="#4A8F9E" d="M209.7948,57.3732c-0.9316-1.666-2.908-2.4396-4.7188-1.8536C204.088,55.838,203.0528,56,202,56
		c-5.5136,0-10-4.4864-10-10c0-2.088,0.6348-4.086,1.838-5.7772c1.1036-1.5548,0.9568-3.674-0.3516-5.0608
		C172.0956,12.4864,143.1564,0,112,0C50.242,0,0,50.242,0,112c0,3.088,0.1268,6.2052,0.3788,9.2636
		c0.1348,1.6388,1.258,3.0276,2.832,3.502C10.7404,127.0372,16,134.1232,16,142c0,4.662-1.7752,9.084-4.998,12.4472
		c-1.1368,1.1876-1.4316,2.9512-0.7424,4.4436C28.5196,198.4432,68.4552,224,112,224c16.3632,0,32.1388-3.4512,46.8848-10.256
		c1.9492-0.9004,2.8416-3.1796,2.0196-5.162C160.3048,207.1308,160,205.59,160,204c0-6.6172,5.3828-12,12-12
		c3.2948,0,6.3672,1.3084,8.6504,3.6856c1.4884,1.5448,3.9276,1.6404,5.5352,0.2244C210.2168,174.6484,224,144.0644,224,112
		C224,92.8632,219.088,73.9728,209.7948,57.3732z M116,162c0,14.336-11.664,26-26,26s-26-11.664-26-26
		c0-3.8476,0.8632-7.492,2.3692-10.7812C39.2792,140.8808,20,114.7228,20,84c0-39.7636,32.2364-72,72-72s72,32.2364,72,72
		c0,32.0216-20.92,59.1308-49.828,68.4844C115.338,155.4356,116,158.6388,116,162z M176,152c-11.0272,0-20-8.9728-20-20
		s8.9728-20,20-20c11.0272,0,20,8.9728,20,20S187.0272,152,176,152z"/>
	<path fill="#3BABB7" d="M164,84c0-39.7636-32.2364-72-72-72S20,44.2364,20,84c0,30.7228,19.2792,56.8808,46.3692,67.2188
		C70.4764,142.254,79.5116,136,90,136c10.9748,0,20.3632,6.8476,24.172,16.4844C143.08,143.1308,164,116.0216,164,84z M54,108
		c-7.7188,0-14-6.2812-14-14s6.2812-14,14-14s14,6.2812,14,14S61.7188,108,54,108z M118,72c-9.9256,0-18-8.0744-18-18
		s8.0744-18,18-18c9.9256,0,18,8.0744,18,18S127.9256,72,118,72z"/>
	<path fill="#FFDC82" d="M118,36c-9.9256,0-18,8.0744-18,18s8.0744,18,18,18c9.9256,0,18-8.0744,18-18S127.9256,36,118,36z M118,64
		c-5.5136,0-10-4.4864-10-10s4.4864-10,10-10c5.5136,0,10,4.4864,10,10S123.5136,64,118,64z"/>
	<path fill="#FFDC82" d="M176,112c-11.0272,0-20,8.9728-20,20s8.9728,20,20,20c11.0272,0,20-8.9728,20-20S187.0272,112,176,112z
		 M176,144c-6.6172,0-12-5.3828-12-12s5.3828-12,12-12c6.6172,0,12,5.3828,12,12S182.6172,144,176,144z"/>
	<path fill="#FFDC82" d="M90,136c-10.4884,0-19.5236,6.254-23.6308,15.2188C64.8632,154.508,64,158.1524,64,162
		c0,14.336,11.664,26,26,26s26-11.664,26-26c0-3.3612-0.662-6.5644-1.828-9.5156C110.3632,142.8476,100.9748,136,90,136z M108,162
		c0,9.9256-8.0744,18-18,18c-9.9256,0-18-8.0744-18-18s8.0744-18,18-18C99.9256,144,108,152.0744,108,162z"/>
	<path fill="#FFDC82" d="M54,80c-7.7188,0-14,6.2812-14,14s6.2812,14,14,14s14-6.2812,14-14S61.7188,80,54,80z M54,100
		c-3.3084,0-6-2.6916-6-6s2.6916-6,6-6c3.3084,0,6,2.6916,6,6S57.3084,100,54,100z"/>
	<path fill="#FCC24C" d="M118,44c-5.5136,0-10,4.4864-10,10s4.4864,10,10,10c5.5136,0,10-4.4864,10-10S123.5136,44,118,44z"/>
	<path fill="#FCC24C" d="M176,120c-6.6172,0-12,5.3828-12,12s5.3828,12,12,12c6.6172,0,12-5.3828,12-12S182.6172,120,176,120z"/>
	<path fill="#FCC24C" d="M90,144c-9.9256,0-18,8.0744-18,18s8.0744,18,18,18c9.9256,0,18-8.0744,18-18S99.9256,144,90,144z"/>
	<circle fill="#FCC24C" cx="54" cy="94" r="6"/>
</g>
</svg>
