<?xml version="1.0" encoding="utf-8"?>
<!-- Generator: Adobe Illustrator 19.2.0, SVG Export Plug-In . SVG Version: 6.00 Build 0)  -->
<svg version="1.1" id="chemestrystructure" xmlns="http://www.w3.org/2000/svg" xmlns:xlink="http://www.w3.org/1999/xlink" x="0px"
	 y="0px" viewBox="0 0 215.9216 240" enable-background="new 0 0 215.9216 240" xml:space="preserve">
<g>
	<path fill="#9D57C4" d="M8,56.3084v55.3832l47.9608,27.6892l47.9608-27.6892V56.3084L55.9608,28.6192L8,56.3084z M58.3728,43.8224
		l31.176,18c1.914,1.1052,2.5684,3.5508,1.4648,5.4648c-1.1076,1.91-3.5528,2.5664-5.4648,1.4648l-29.1504-16.83L26.822,69.4416
		C26.1816,69.8204,25.4804,70,24.7868,70c-1.3672,0-2.6992-0.7012-3.4452-1.9608c-1.1268-1.9004-0.498-4.3556,1.4024-5.4808
		l31.59-18.7128C55.578,43.1092,57.1208,43.0976,58.3728,43.8224z"/>
	<path fill="#D793FD" d="M22.744,62.5584c-1.9004,1.1252-2.5292,3.5804-1.4024,5.4808C22.0876,69.2988,23.4196,70,24.7868,70
		c0.6936,0,1.3948-0.1796,2.0352-0.5584L56.3984,51.922l29.1504,16.83c1.912,1.1016,4.3572,0.4452,5.4648-1.4648
		c1.1036-1.914,0.4492-4.3596-1.4648-5.4648l-31.176-18c-1.252-0.7248-2.7948-0.7132-4.0388,0.0232L22.744,62.5584z"/>
	<path fill="#B976DD" d="M213.9216,50.5352l-50.3124-29.0488c0.2228-1.1288,0.3516-2.2912,0.3516-3.4864c0-9.9256-8.0744-18-18-18
		s-18,8.0744-18,18s8.0744,18,18,18c5.8592,0,11.0216-2.8556,14.3104-7.2012l47.6504,27.5096v55.3832l-47.9608,27.6892L112,111.6916
		V54c0-1.3828-0.7444-2.5392-1.8108-3.258c-0.0916-0.0664-0.168-0.1484-0.2676-0.2068l-0.2616-0.1524
		c-0.0468-0.0196-0.082-0.0548-0.1308-0.0744L57.9608,20.5352c-1.2384-0.7148-2.7616-0.7148-4,0L2,50.5352
		C0.7616,51.25,0,52.5704,0,54v60c0,1.4296,0.7616,2.75,2,3.4648l50,28.8692V206c0,1.4296,0.7616,2.75,2,3.4648l51.9608,30
		c0.6192,0.3576,1.3084,0.5352,2,0.5352s1.3808-0.1776,2-0.5352l48.3084-27.8904c-2.0488-1.7696-3.736-3.9376-4.826-6.4532
		l-45.4824,26.2596L60,203.6916v-57.4044l47.9608-27.6896l50,28.8672c0.6192,0.3576,1.3084,0.5352,2,0.5352s1.3808-0.1776,2-0.5352
		l51.9608-30c1.2384-0.7148,2-2.0352,2-3.4648V54C215.9216,52.5704,215.16,51.25,213.9216,50.5352z M103.9216,111.6916
		l-47.9608,27.6892L8,111.6916V56.3084l47.9608-27.6892l47.9608,27.6892V111.6916z"/>
	<path fill="#9D57C4" d="M158.2692,211.5744c3.1544,2.7184,7.2092,4.4256,11.6916,4.4256c9.9256,0,18-8.0744,18-18s-8.0744-18-18-18
		s-18,8.0744-18,18c0,2.5312,0.5352,4.9336,1.4824,7.1212C154.5332,207.6368,156.2204,209.8048,158.2692,211.5744z"/>
</g>
</svg>
