<?xml version="1.0" encoding="utf-8"?>
<!-- Generator: Adobe Illustrator 19.2.0, SVG Export Plug-In . SVG Version: 6.00 Build 0)  -->
<svg version="1.1" id="chemicalconnection" xmlns="http://www.w3.org/2000/svg" xmlns:xlink="http://www.w3.org/1999/xlink" x="0px"
	 y="0px" viewBox="0 0 224 172" enable-background="new 0 0 224 172" xml:space="preserve">
<g>
	<path fill="#C1DB66" d="M192,76c-0.4668,0-0.9416-0.0819-1.4044-0.2539c-2.0684-0.7772-3.1172-3.0821-2.3416-5.1524l0.9568-2.5544
		C175.242,68.4609,164,79.9297,164,94c0,5.7109,1.8732,10.9805,5.004,15.2737l0.498-0.3988
		c1.7208-1.3829,4.242-1.1012,5.6212,0.6251c1.328,1.66,1.084,4.0313-0.4708,5.4417C178.9608,118.1057,184.256,120,190,120
		c14.336,0,26-11.664,26-26c0-11.7735-7.8748-21.7343-18.6308-24.9219l-1.6232,4.3284C195.1424,75.0117,193.6192,76,192,76z"/>
	<path fill="#E06C3E" d="M32.1424,83.7813c-2.1268,1.6408-4.57,2.8632-7.2516,3.5432l4.8164,14.4452
		c2.1112-1.7072,4.5016-3.0704,7.082-4.0548L32.1424,83.7813z"/>
	<path fill="#9AB040" d="M64.168,131.6917c0.6308-2.1172,2.8476-3.3168,4.9764-2.6877l1.7364,0.5197
		C71.6036,127.1409,72,124.6173,72,122c0-14.336-11.664-26-26-26c-3.246,0-6.3436,0.6249-9.2108,1.7149
		c-2.5804,0.9844-4.9708,2.3476-7.082,4.0548C23.7948,106.5393,20,113.832,20,122c0,14.336,11.664,26,26,26
		c8.832,0,16.6388-4.4375,21.34-11.1875l-0.4844-0.1445C64.7384,136.0353,63.5352,133.8085,64.168,131.6917z"/>
	<path fill="#E06C3E" d="M140.2032,26.7189l-6.9628,17.406c2.8144,0.2972,5.3592,1.508,7.2536,3.4104l6.5588-16.3984
		C144.3924,30.2657,142.0468,28.7461,140.2032,26.7189z"/>
	<path fill="#D8F768" d="M40,68c0-11.0271-8.9728-20-20-20S0,56.9729,0,68c0,11.0273,8.9728,20,20,20
		c1.6972,0,3.3164-0.2771,4.8908-0.6755c2.6816-0.68,5.1248-1.9024,7.2516-3.5432C36.8868,80.1213,40,74.4417,40,68z"/>
	<path fill="#D8F768" d="M160.0352,19.4765c0.2872-2.1912,2.3028-3.7224,4.4884-3.4412l3.4276,0.4532
		C167.9572,16.3205,168,16.168,168,16c0-8.8243-7.1776-16-16-16s-16,7.1757-16,16c0,4.1369,1.6192,7.8749,4.2032,10.7189
		c1.8436,2.0272,4.1892,3.5468,6.8496,4.418C148.6212,31.6525,150.2636,32,152,32c5.7948,0,10.832-3.1251,13.6388-7.7499
		l-2.1624-0.2852C161.2872,23.6757,159.746,21.668,160.0352,19.4765z"/>
	<path fill="#D8F768" d="M133.2404,44.1249C132.828,44.0821,132.4256,44,132,44c-6.6172,0-12,5.3829-12,12c0,6.6173,5.3828,12,12,12
		s12-5.3827,12-12c0-3.3007-1.3416-6.2927-3.506-8.4647C138.5996,45.6329,136.0548,44.4221,133.2404,44.1249z"/>
	<path fill="#E06C3E" d="M92.2912,135.9141l-21.4104-6.3904l-1.7364-0.5197c-2.1288-0.6291-4.3456,0.5705-4.9764,2.6877
		c-0.6328,2.1168,0.5704,4.3436,2.6876,4.9763l0.4844,0.1445l23.5156,7.0195c0.3828,0.1133,0.7676,0.168,1.1464,0.168
		c0.0916,0,0.1776-0.0391,0.2696-0.0427C92.1092,142.6565,92,141.3437,92,140C92,138.6133,92.1192,137.2541,92.2912,135.9141z"/>
	<path fill="#C1DB66" d="M152.002,132c-1.174,0-2.336-0.5115-3.1252-1.5c-1.3808-1.7263-1.1016-4.2419,0.6252-5.6251l1.8164-1.4528
		C145.6972,114.1953,135.5724,108,124,108c-16.258,0-29.6916,12.1953-31.7088,27.9141C92.1192,137.2541,92,138.6133,92,140
		c0,1.3437,0.1092,2.6565,0.2716,3.9573C94.2304,159.7385,107.6972,172,124,172c17.6444,0,32-14.3555,32-32
		c0-3.1327-0.4728-6.1563-1.3164-9.0235l-0.1856,0.1484C153.7616,131.7149,152.8788,132,152.002,132z"/>
	<path fill="#E06C3E" d="M184.8008,18.7073l-16.8496-2.2188l-3.4276-0.4532c-2.1856-0.2812-4.2012,1.25-4.4884,3.4412
		c-0.2892,2.1915,1.252,4.1992,3.4412,4.4884l2.1624,0.2852l18.6348,2.4572C184.1504,25.8125,184,24.9257,184,24
		C184,22.1565,184.332,20.4065,184.8008,18.7073z"/>
	<path fill="#9AB040" d="M205.4044,36.2541c2.0684,0.7772,3.1172,3.0819,2.3416,5.1524l-0.8632,2.3008
		C216.5372,42.2969,224,34.0393,224,24c0-11.0271-8.9728-20-20-20c-9.1836,0-16.8612,6.2581-19.1992,14.7073
		C184.332,20.4065,184,22.1565,184,24c0,0.9257,0.1504,1.8125,0.2736,2.7073c1.0856,7.902,6.7556,14.2927,14.2732,16.4412
		l1.7072-4.5548C201.0332,36.5237,203.34,35.4885,205.4044,36.2541z"/>
	<path fill="#E06C3E" d="M175.1232,109.5c-1.3792-1.7263-3.9004-2.008-5.6212-0.6251l-0.498,0.3988l-17.6856,14.1484l-1.8164,1.4528
		c-1.7268,1.3832-2.006,3.8988-0.6252,5.6251c0.7892,0.9885,1.9512,1.5,3.1252,1.5c0.8768,0,1.7596-0.2851,2.496-0.8751
		l0.1856-0.1484l19.8144-15.8516c0.0664-0.0504,0.0936-0.1289,0.1544-0.1832C176.2072,113.5313,176.4512,111.16,175.1232,109.5z"/>
	<path fill="#E06C3E" d="M207.746,41.4065c0.7756-2.0705-0.2732-4.3752-2.3416-5.1524c-2.0644-0.7656-4.3712,0.2696-5.1504,2.3396
		l-1.7072,4.5548l-9.336,24.8908l-0.9568,2.5544c-0.7756,2.0703,0.2732,4.3752,2.3416,5.1524C191.0584,75.9181,191.5332,76,192,76
		c1.6192,0,3.1424-0.9883,3.746-2.5935l1.6232-4.3284l9.5136-25.3708L207.746,41.4065z"/>
</g>
</svg>
