<?xml version="1.0" encoding="utf-8"?>
<!-- Generator: Adobe Illustrator 19.2.0, SVG Export Plug-In . SVG Version: 6.00 Build 0)  -->
<svg version="1.1" id="chemicalstructure" xmlns="http://www.w3.org/2000/svg" xmlns:xlink="http://www.w3.org/1999/xlink" x="0px"
	 y="0px" viewBox="0 0 239.9216 241.2344" enable-background="new 0 0 239.9216 241.2344" xml:space="preserve">
<g>
	<path fill="#C1DB66" d="M175.9216,32.3088L119.9608,0L64,32.3088v64.6168l55.9608,32.3088l55.9608-32.3088V32.3088z
		 M139.9608,88.6171h-8h-24h-8v-48h8h24h8V88.6171z"/>
	<rect x="107.9608" y="48.6171" fill="#C1DB66" width="24" height="32"/>
	<path fill="#7BE5E4" d="M0,144.3088v64.6168l55.9608,32.3088l55.9608-32.3088v-64.6168L55.9608,112L0,144.3088z M67.9608,152.6171
		h8v48h-8v-20h-24v20h-8v-48h8v20h24V152.6171z"/>
	<path fill="#FCC24C" d="M183.9608,112L128,144.3088v64.6168l55.9608,32.3088l55.9608-32.3088v-64.6168L183.9608,112z
		 M203.9608,200.6171h-8v-20h-24v20h-8v-48h8v20h24v-20h8V200.6171z"/>
	<polygon fill="#B7F5F0" points="43.9608,152.6171 35.9608,152.6171 35.9608,200.6171 43.9608,200.6171 43.9608,180.6171 
		67.9608,180.6171 67.9608,200.6171 75.9608,200.6171 75.9608,152.6171 67.9608,152.6171 67.9608,172.6171 43.9608,172.6171 	"/>
	<polygon fill="#B7F5F0" points="195.9608,172.6171 171.9608,172.6171 171.9608,152.6171 163.9608,152.6171 163.9608,200.6171 
		171.9608,200.6171 171.9608,180.6171 195.9608,180.6171 195.9608,200.6171 203.9608,200.6171 203.9608,152.6171 195.9608,152.6171 
			"/>
	<path fill="#B7F5F0" d="M107.9608,40.6171h-8v48h8h24h8v-48h-8H107.9608z M131.9608,80.6171h-24v-32h24V80.6171z"/>
</g>
</svg>
