<?xml version="1.0" encoding="utf-8"?>
<!-- Generator: Adobe Illustrator 19.2.0, SVG Export Plug-In . SVG Version: 6.00 Build 0)  -->
<svg version="1.1" id="chemicalcompound" xmlns="http://www.w3.org/2000/svg" xmlns:xlink="http://www.w3.org/1999/xlink" x="0px"
	 y="0px" viewBox="0 0 220 206" enable-background="new 0 0 220 206" xml:space="preserve">
<g>
	<path fill="none" d="M40,156c0,4.9256-1.8593,9.3828-4.8205,12.8712C47.2695,184.6524,66.0391,194,86,194
		c3.3007,0,6.5155-0.328,9.6835-0.8124c-17.1056-10.4104-29.6952-27.5-34.0195-47.672
		c-15.5625-13.4728-25.4845-33.2736-25.6369-55.3908C27.2735,101.0744,22,114.9256,22,130c0,2.082,0.1367,4.164,0.336,6.2384
		C32.2539,137.41,40,145.7736,40,156z"/>
	<path fill="none" d="M110,44c-10.3437,0-19.0197-7.1836-21.3593-16.8204c-17.84,6.1016-31.922,19.4648-39.1916,36.2228
		C60.3007,57.422,72.7539,54,86,54c9.5391,0,18.6367,1.8436,27.0547,5.0664C119.7031,57.0976,126.7227,56,134,56
		c13.7967,0,26.6755,3.8632,37.7419,10.4648c-6.832-18.168-21.4724-32.8164-40.3864-39.2812C129.0155,36.8164,120.34,44,110,44z"/>
	<path fill="none" d="M148.6755,142.9728C149.5391,138.7812,150,134.4416,150,130c0-27.8244-17.8829-51.496-42.7305-60.2892
		C84.168,79.996,68,103.1288,68,130c0,3.8436,0.3983,7.59,1.0311,11.254c11.2696,8.9568,25.4924,14.3516,40.9689,14.3516
		C124.4531,155.6056,137.7927,150.8828,148.6755,142.9728z"/>
	<path fill="none" d="M183.8867,86.918C183.9219,87.8164,184,88.7032,184,89.6056c0,21.1524-8.9689,40.2068-23.2421,53.7068
		c-3.9259,22.09-17.4064,40.8672-36.0276,51.9612C127.7695,195.7032,130.8475,196,134,196c20.4179,0,39.6991-9.5352,52.172-25.6132
		C182.3827,166.746,180,161.6564,180,156c0-10.922,8.8083-19.8008,19.6951-19.9688C199.8751,134.0236,200,132.008,200,130
		C200,113.5352,193.8983,98.492,183.8867,86.918z"/>
	<path fill="none" d="M145.004,154.7772c-10.4297,5.6252-22.3477,8.8284-35.004,8.8284c-13.7893,0-26.664-3.8596-37.7265-10.4532
		c6.2345,16.5624,18.906,29.9724,34.996,37.1368C124.2771,184.2696,138.0311,171.3164,145.004,154.7772z"/>
	<path fill="none" d="M162,130c0,0.0392-0.004,0.0744-0.004,0.1132C170.7383,118.918,176,104.8788,176,89.6056
		c0-3.8048-0.34-7.5508-0.9729-11.2112C163.7499,69.41,149.504,64,134,64c-3.1525,0-6.2305,0.2968-9.2697,0.7264
		C147,77.996,162,102.25,162,130z"/>
	<path fill="none" d="M95.6835,66.8124C92.5155,66.328,89.3007,66,86,66c-15.7929,0-30.2421,5.7812-41.4181,15.2968
		C44.2343,84.0312,44,86.7968,44,89.6056c0,16.4804,6.1131,31.5312,16.1367,43.1092C60.1055,131.8048,60,130.918,60,130
		C60,103.2304,74.336,79.8084,95.6835,66.8124z"/>
	<path fill="#9AB040" d="M134,196c-3.1525,0-6.2305-0.2968-9.2697-0.7264c18.6212-11.094,32.1017-29.8712,36.0276-51.9612
		C175.0311,129.8124,184,110.758,184,89.6056c0-0.9024-0.0781-1.7892-0.1133-2.6876C193.8983,98.492,200,113.5352,200,130
		c0,2.008-0.1249,4.0236-0.3049,6.0312c0.1016,0,0.1992-0.0312,0.3049-0.0312c2.6835,0,5.2383,0.5508,7.5819,1.5156
		C207.836,135.0156,208,132.504,208,130c0-22.3556-10.004-42.3788-25.7229-55.9608c-5.582-25.8048-24.7068-47.1876-50.5192-55.1172
		C131.9023,19.9296,132,20.9532,132,22c0,1.7892-0.2385,3.5196-0.6445,5.1836c18.914,6.4648,33.5544,21.1132,40.3864,39.2812
		C160.6755,59.8632,147.7967,56,134,56c-7.2773,0-14.2969,1.0976-20.9453,3.0664C104.6367,55.8436,95.5391,54,86,54
		c-13.2461,0-25.6993,3.422-36.5509,9.4024c7.2696-16.758,21.3516-30.1212,39.1916-36.2228C88.2383,25.5156,88,23.7892,88,22
		c0-1.0468,0.0975-2.0744,0.2419-3.082c-24.7224,7.5976-43.3512,27.5272-49.7812,51.8748C21.1327,84.7384,10,106.078,10,130
		c0,2.84,0.2107,5.6796,0.5235,8.5c2.8356-1.5428,6.0312-2.5,9.4765-2.5c0.8007,0,1.5623,0.1444,2.336,0.2384
		C22.1367,134.164,22,132.082,22,130c0-15.0744,5.2735-28.9256,14.0271-39.8752c0.1524,22.1172,10.0744,41.918,25.6369,55.3908
		c4.3243,20.172,16.9139,37.2616,34.0195,47.672C92.5155,193.672,89.3007,194,86,194c-19.9609,0-38.7305-9.3476-50.8205-25.1288
		c-2.6248,3.0896-6.1328,5.3632-10.1715,6.418C39.328,194.5468,61.9335,206,86,206c9.5391,0,18.6367-1.8436,27.0547-5.0664
		C119.7031,202.9024,126.7227,204,134,204c23.1563,0,45.004-10.9416,58.9687-29.34c-2.5548-0.9684-4.8632-2.414-6.7967-4.2732
		C173.6991,186.4648,154.4179,196,134,196z M68,130c0-26.8712,16.168-50.004,39.2695-60.2892C132.1171,78.504,150,102.1756,150,130
		c0,4.4416-0.4609,8.7812-1.3245,12.9728c-10.8828,7.91-24.2224,12.6328-38.6755,12.6328c-15.4765,0-29.6993-5.3948-40.9689-14.3516
		C68.3983,137.59,68,133.8436,68,130z M134,64c15.504,0,29.7499,5.41,41.0271,14.3944C175.66,82.0548,176,85.8008,176,89.6056
		c0,15.2732-5.2617,29.3124-14.004,40.5076c0-0.0388,0.004-0.074,0.004-0.1132c0-27.75-15-52.004-37.2697-65.2736
		C127.7695,64.2968,130.8475,64,134,64z M44,89.6056c0-2.8088,0.2343-5.5744,0.5819-8.3088C55.7579,71.7812,70.2071,66,86,66
		c3.3007,0,6.5155,0.328,9.6835,0.8124C74.336,79.8084,60,103.2304,60,130c0,0.918,0.1055,1.8048,0.1367,2.7148
		C50.1131,121.1368,44,106.086,44,89.6056z M72.2735,153.1524C83.336,159.746,96.2107,163.6056,110,163.6056
		c12.6563,0,24.5743-3.2032,35.004-8.8284c-6.9729,16.5392-20.7269,29.4924-37.7345,35.512
		C91.1795,183.1248,78.508,169.7148,72.2735,153.1524z"/>
	<path fill="#49A25A" d="M35.1795,168.8712C38.1407,165.3828,40,160.9256,40,156c0-10.2264-7.7461-18.59-17.664-19.7616
		C21.5623,136.1444,20.8007,136,20,136c-3.4453,0-6.6409,0.9572-9.4765,2.5C4.2891,141.8908,0,148.418,0,156
		c0,11.0272,8.9727,20,20,20c1.7383,0,3.3943-0.2928,5.008-0.7108C29.0467,174.2344,32.5547,171.9608,35.1795,168.8712z"/>
	<path fill="#49A25A" d="M207.5819,137.5156C205.2383,136.5508,202.6835,136,200,136c-0.1057,0-0.2033,0.0312-0.3049,0.0312
		C188.8083,136.1992,180,145.078,180,156c0,5.6564,2.3827,10.746,6.172,14.3868c1.9335,1.8592,4.2419,3.3048,6.7967,4.2732
		c2.1953,0.8284,4.5468,1.34,7.0313,1.34c11.0271,0,20-8.9728,20-20C220,147.6564,214.8555,140.508,207.5819,137.5156z"/>
	<path fill="#49A25A" d="M88.6407,27.1796C90.9803,36.8164,99.6563,44,110,44c10.34,0,19.0155-7.1836,21.3555-16.8164
		C131.7615,25.5196,132,23.7892,132,22c0-1.0468-0.0977-2.0704-0.2421-3.078C130.2539,8.246,121.0819,0,110,0
		C98.9219,0,89.7499,8.246,88.2419,18.918C88.0975,19.9256,88,20.9532,88,22C88,23.7892,88.2383,25.5156,88.6407,27.1796z"/>
</g>
</svg>
