<?xml version="1.0" encoding="utf-8"?>
<!-- Generator: Adobe Illustrator 19.2.0, SVG Export Plug-In . SVG Version: 6.00 Build 0)  -->
<svg version="1.1" id="chippinpoint" xmlns="http://www.w3.org/2000/svg" xmlns:xlink="http://www.w3.org/1999/xlink" x="0px"
	 y="0px" viewBox="0 0 220 216" enable-background="new 0 0 220 216" xml:space="preserve">
<g>
	<path fill="#FF6B97" d="M180,72v-8h4V51.9608C184,40.9532,175.0448,32,164.0392,32H160v8h-8v-8h-24v8h-8v-8H96v8h-8v-8H64v8h-8v-8
		h-4.0392C40.9552,32,32,40.9532,32,51.9608V64h8v8h-8v20h8v8h-8v20h8v8h-8v20h8v8h-8v8.0392C32,175.0468,40.9552,184,51.9608,184
		H56v-8h8v8h24v-8h8v8h24v-8h8v8h24v-8h8v8h4.0392C175.0448,184,184,175.0468,184,164.0392V156h-4v-8h4v-20h-4v-8h4v-20h-4v-8h4V72
		H180z M110.8944,162.7616C110.1388,163.5508,109.0936,164,108,164s-2.1388-0.4492-2.8944-1.2384C103.4276,161.004,64,119.422,64,96
		c0-24.2616,19.7384-44,44-44s44,19.7384,44,44C152,119.422,112.5724,161.004,110.8944,162.7616z"/>
	<polygon fill="#63B473" points="160,40 160,32 160,0 152,0 152,32 152,40 	"/>
	<polygon fill="#C1DB66" points="180,72 184,72 220,72 220,64 184,64 180,64 	"/>
	<polygon fill="#F8A131" points="40,64 32,64 0,64 0,72 32,72 40,72 	"/>
	<polygon fill="#C1DB66" points="180,100 184,100 220,100 220,92 184,92 180,92 	"/>
	<polygon fill="#F8A131" points="40,92 32,92 0,92 0,100 32,100 40,100 	"/>
	<polygon fill="#C1DB66" points="180,128 184,128 220,128 220,120 184,120 180,120 	"/>
	<polygon fill="#F8A131" points="40,120 32,120 0,120 0,128 32,128 40,128 	"/>
	<polygon fill="#C1DB66" points="180,156 184,156 220,156 220,148 184,148 180,148 	"/>
	<polygon fill="#F8A131" points="40,148 32,148 0,148 0,156 32,156 40,156 	"/>
	<polygon fill="#3BABB7" points="152,176 152,184 152,216 160,216 160,184 160,176 	"/>
	<polygon fill="#63B473" points="128,40 128,32 128,0 120,0 120,32 120,40 	"/>
	<polygon fill="#3BABB7" points="120,176 120,184 120,216 128,216 128,184 128,176 	"/>
	<polygon fill="#63B473" points="96,40 96,32 96,0 88,0 88,32 88,40 	"/>
	<polygon fill="#3BABB7" points="88,176 88,184 88,216 96,216 96,184 96,176 	"/>
	<polygon fill="#63B473" points="64,40 64,32 64,0 56,0 56,32 56,40 	"/>
	<polygon fill="#3BABB7" points="56,176 56,184 56,216 64,216 64,184 64,176 	"/>
	<path fill="#456782" d="M108,52c-24.2616,0-44,19.7384-44,44c0,23.422,39.4276,65.004,41.1056,66.7616
		C105.8612,163.5508,106.9064,164,108,164s2.1388-0.4492,2.8944-1.2384C112.5724,161.004,152,119.422,152,96
		C152,71.7384,132.2616,52,108,52z M132,104c-2.2088,0-4-1.7892-4-4c0-11.0272-8.9728-20-20-20s-20,8.9728-20,20
		c0,2.2108-1.7912,4-4,4s-4-1.7892-4-4c0-15.4376,12.5604-28,28-28s28,12.5624,28,28C136,102.2108,134.2088,104,132,104z"/>
	<path fill="#A9C7D8" d="M108,72c-15.4396,0-28,12.5624-28,28c0,2.2108,1.7912,4,4,4s4-1.7892,4-4c0-11.0272,8.9728-20,20-20
		s20,8.9728,20,20c0,2.2108,1.7912,4,4,4s4-1.7892,4-4C136,84.5624,123.4396,72,108,72z"/>
</g>
</svg>
