<?xml version="1.0" encoding="utf-8"?>
<!-- Generator: Adobe Illustrator 19.2.0, SVG Export Plug-In . SVG Version: 6.00 Build 0)  -->
<svg version="1.1" id="chipboard" xmlns="http://www.w3.org/2000/svg" xmlns:xlink="http://www.w3.org/1999/xlink" x="0px" y="0px"
	 viewBox="0 0 232 232" enable-background="new 0 0 232 232" xml:space="preserve">
<circle fill-rule="evenodd" clip-rule="evenodd" fill="none" cx="12" cy="160" r="8"/>
<path fill="#E06C3E" d="M12,172c-6.6172,0-12-5.3828-12-12s5.3828-12,12-12s12,5.3828,12,12S18.6172,172,12,172z"/>
<g>
	<rect x="76" y="68" fill="#535353" width="80" height="8"/>
	<rect x="156" y="76" fill="#535353" width="8" height="80"/>
	<rect x="76" y="156" fill="#535353" width="80" height="8"/>
	<rect x="68" y="76" fill="#535353" width="8" height="80"/>
	<path fill="#4A8F9E" d="M76,76v80h80V76H76z M148,144c0,2.2108-1.7912,4-4,4H88c-2.2088,0-4-1.7892-4-4V88c0-2.2108,1.7912-4,4-4
		h56c2.2088,0,4,1.7892,4,4V144z"/>
	<path fill="#C1DB66" d="M144,84H88c-2.2088,0-4,1.7892-4,4v56c0,2.2108,1.7912,4,4,4h56c2.2088,0,4-1.7892,4-4V88
		C148,85.7892,146.2088,84,144,84z"/>
	<path fill="#4A8F9E" d="M208.7364,156H164h-8v8v44.7384c1.258-0.4492,2.59-0.7384,4-0.7384s2.742,0.2892,4,0.7384V164h44.7364
		c-0.4472-1.258-0.7364-2.59-0.7364-4S208.2892,157.258,208.7364,156z"/>
	<path fill="#4A8F9E" d="M164,76h44.7364C208.2892,74.742,208,73.41,208,72s0.2892-2.742,0.7364-4H164V23.2616
		C162.742,23.7108,161.41,24,160,24s-2.742-0.2892-4-0.7384V68v8H164z"/>
	<path fill="#4A8F9E" d="M76,68V23.2616C74.742,23.7108,73.41,24,72,24s-2.742-0.2892-4-0.7384V68H16v8h52h8V68z"/>
	<path fill="#4A8F9E" d="M68,156H16v8h52v44.7384C69.258,208.2892,70.59,208,72,208s2.742,0.2892,4,0.7384V164v-8H68z"/>
	<path fill="#E06C3E" d="M164,23.2616c4.6464-1.656,8-6.0544,8-11.2616c0-6.6172-5.3828-12-12-12s-12,5.3828-12,12
		c0,5.2072,3.3536,9.6056,8,11.2616C157.258,23.7108,158.59,24,160,24S162.742,23.7108,164,23.2616z"/>
	<path fill="#E06C3E" d="M76,23.2616c4.6464-1.656,8-6.0544,8-11.2616c0-6.6172-5.3828-12-12-12S60,5.3828,60,12
		c0,5.2072,3.3536,9.6056,8,11.2616C69.258,23.7108,70.59,24,72,24S74.742,23.7108,76,23.2616z"/>
	<path fill="#E06C3E" d="M156,208.7384c-4.6464,1.656-8,6.0544-8,11.2616c0,6.6172,5.3828,12,12,12s12-5.3828,12-12
		c0-5.2072-3.3536-9.6056-8-11.2616c-1.258-0.4492-2.59-0.7384-4-0.7384S157.258,208.2892,156,208.7384z"/>
	<path fill="#E06C3E" d="M68,208.7384c-4.6464,1.656-8,6.0544-8,11.2616c0,6.6172,5.3828,12,12,12s12-5.3828,12-12
		c0-5.2072-3.3536-9.6056-8-11.2616C74.742,208.2892,73.41,208,72,208S69.258,208.2892,68,208.7384z"/>
	<path fill="#E06C3E" d="M220,148c-5.2072,0-9.6056,3.3556-11.2636,8c-0.4472,1.258-0.7364,2.59-0.7364,4s0.2892,2.742,0.7364,4
		c1.658,4.6444,6.0564,8,11.2636,8c6.6172,0,12-5.3828,12-12S226.6172,148,220,148z"/>
	<path fill="#E06C3E" d="M208.7364,76c1.658,4.6444,6.0564,8,11.2636,8c6.6172,0,12-5.3828,12-12s-5.3828-12-12-12
		c-5.2072,0-9.6056,3.3556-11.2636,8C208.2892,69.258,208,70.59,208,72S208.2892,74.742,208.7364,76z"/>
</g>
<circle fill-rule="evenodd" clip-rule="evenodd" fill="none" cx="12" cy="72" r="8"/>
<path fill="#E06C3E" d="M12,84C5.3828,84,0,78.6172,0,72s5.3828-12,12-12s12,5.3828,12,12S18.6172,84,12,84z"/>
</svg>
