<?xml version="1.0" encoding="utf-8"?>
<!-- Generator: Adobe Illustrator 19.2.0, SVG Export Plug-In . SVG Version: 6.00 Build 0)  -->
<svg version="1.1" id="circlehalf" xmlns="http://www.w3.org/2000/svg" xmlns:xlink="http://www.w3.org/1999/xlink" x="0px" y="0px"
	 viewBox="0 0 216 216" enable-background="new 0 0 216 216" xml:space="preserve">
<g>
	<path fill="#FFAE8E" d="M108,0C48.4492,0,0,48.4492,0,108s48.4492,108,108,108s108-48.4492,108-108S167.5508,0,108,0z M28,132.168
		c0,2.2108-1.7912,4-4,4s-4-1.7892-4-4V84c0-2.2108,1.7912-4,4-4s4,1.7892,4,4V132.168z M44,168.168c0,2.2108-1.7912,4-4,4
		s-4-1.7892-4-4V120c0-2.2108,1.7912-4,4-4s4,1.7892,4,4V168.168z M44,104.168c0,2.2108-1.7912,4-4,4s-4-1.7892-4-4V56
		c0-2.2108,1.7912-4,4-4s4,1.7892,4,4V104.168z M108,168v28c0,2.2108-1.7912,4-4,4s-4-1.7892-4-4v-28
		c0-0.2032,0.086-0.3788,0.1172-0.578c-2.7716-0.3636-5.4784-0.918-8.1172-1.6448V196c0,2.2108-1.7912,4-4,4s-4-1.7892-4-4v-33.0272
		c-2.7892-1.2188-5.4512-2.668-8-4.2812V188c0,2.2108-1.7912,4-4,4s-4-1.7892-4-4v-35.3672c-2.9472-2.6444-5.6232-5.5704-8-8.742
		V180c0,2.2108-1.7912,4-4,4s-4-1.7892-4-4v-50.5976c-2.5448-6.6564-4-13.8516-4-21.4024s1.4552-14.746,4-21.4024V40
		c0-2.2108,1.7912-4,4-4s4,1.7892,4,4v32.1092c2.3768-3.1716,5.0528-6.0976,8-8.742V32c0-2.2108,1.7912-4,4-4s4,1.7892,4,4v25.3084
		c2.5488-1.6132,5.2108-3.0624,8-4.2812V24c0-2.2108,1.7912-4,4-4s4,1.7892,4,4v26.2228c2.6016-0.7188,5.2696-1.2656,8-1.6292V20
		c0-2.2108,1.7912-4,4-4s4,1.7892,4,4v28c33.1368,0,60,26.8632,60,60S141.1368,168,108,168z"/>
	<path fill="#FF6B97" d="M108,48v60c0,2.2108-1.7912,4-4,4s-4-1.7892-4-4V48.5936c-2.7304,0.3636-5.3984,0.9104-8,1.6292V72
		c0,2.2108-1.7912,4-4,4s-4-1.7892-4-4V53.0272c-2.7892,1.2188-5.4512,2.668-8,4.2812V68c0,2.2108-1.7912,4-4,4s-4-1.7892-4-4
		v-4.6328c-2.9472,2.6444-5.6232,5.5704-8,8.742V88.168c0,2.2108-1.7912,4-4,4s-4-1.7892-4-4v-1.5704
		C49.4552,93.254,48,100.4492,48,108s1.4552,14.746,4,21.4024V104c0-2.2108,1.7912-4,4-4s4,1.7892,4,4v39.8908
		c2.3768,3.1716,5.0528,6.0976,8,8.742V152c0-2.2108,1.7912-4,4-4s4,1.7892,4,4v6.6916c2.5488,1.6132,5.2108,3.0624,8,4.2812V120
		c0-2.2108,1.7912-4,4-4s4,1.7892,4,4v45.7772c2.6388,0.7268,5.3456,1.2812,8.1172,1.6448C100.4064,165.5,101.996,164,104,164
		c2.2088,0,4,1.7892,4,4c33.1368,0,60-26.8632,60-60S141.1368,48,108,48z M76,136c0,2.2108-1.7912,4-4,4s-4-1.7892-4-4V84
		c0-2.2108,1.7912-4,4-4s4,1.7892,4,4V136z M92,104c0,2.2108-1.7912,4-4,4s-4-1.7892-4-4V88c0-2.2108,1.7912-4,4-4s4,1.7892,4,4V104
		z M108,152c0,2.2108-1.7912,4-4,4s-4-1.7892-4-4v-28c0-2.2108,1.7912-4,4-4s4,1.7892,4,4V152z"/>
	<path fill="#EB4548" d="M24,80c-2.2088,0-4,1.7892-4,4v48.168c0,2.2108,1.7912,4,4,4s4-1.7892,4-4V84C28,81.7892,26.2088,80,24,80z
		"/>
	<path fill="#EB4548" d="M40,52c-2.2088,0-4,1.7892-4,4v48.168c0,2.2108,1.7912,4,4,4s4-1.7892,4-4V56C44,53.7892,42.2088,52,40,52z
		"/>
	<path fill="#EB4548" d="M40,116c-2.2088,0-4,1.7892-4,4v48.168c0,2.2108,1.7912,4,4,4s4-1.7892,4-4V120
		C44,117.7892,42.2088,116,40,116z"/>
	<path fill="#EB4548" d="M56,92.168c2.2088,0,4-1.7892,4-4V72.1092V40c0-2.2108-1.7912-4-4-4s-4,1.7892-4,4v46.5976v1.5704
		C52,90.3788,53.7912,92.168,56,92.168z"/>
	<path fill="#EB4548" d="M56,100c-2.2088,0-4,1.7892-4,4v25.4024V180c0,2.2108,1.7912,4,4,4s4-1.7892,4-4v-36.1092V104
		C60,101.7892,58.2088,100,56,100z"/>
	<path fill="#EB4548" d="M88,116c-2.2088,0-4,1.7892-4,4v42.9728V196c0,2.2108,1.7912,4,4,4s4-1.7892,4-4v-30.2228V120
		C92,117.7892,90.2088,116,88,116z"/>
	<path fill="#EB4548" d="M104,120c-2.2088,0-4,1.7892-4,4v28c0,2.2108,1.7912,4,4,4s4-1.7892,4-4v-28
		C108,121.7892,106.2088,120,104,120z"/>
	<path fill="#EB4548" d="M104,112c2.2088,0,4-1.7892,4-4V48V20c0-2.2108-1.7912-4-4-4s-4,1.7892-4,4v28.5936V108
		C100,110.2108,101.7912,112,104,112z"/>
	<path fill="#EB4548" d="M104,164c-2.004,0-3.5936,1.5-3.8828,3.422C100.086,167.6212,100,167.7968,100,168v28
		c0,2.2108,1.7912,4,4,4s4-1.7892,4-4v-28C108,165.7892,106.2088,164,104,164z"/>
	<path fill="#EB4548" d="M72,80c-2.2088,0-4,1.7892-4,4v52c0,2.2108,1.7912,4,4,4s4-1.7892,4-4V84C76,81.7892,74.2088,80,72,80z"/>
	<path fill="#EB4548" d="M88,84c-2.2088,0-4,1.7892-4,4v16c0,2.2108,1.7912,4,4,4s4-1.7892,4-4V88C92,85.7892,90.2088,84,88,84z"/>
	<path fill="#EB4548" d="M88,76c2.2088,0,4-1.7892,4-4V50.2228V24c0-2.2108-1.7912-4-4-4s-4,1.7892-4,4v29.0272V72
		C84,74.2108,85.7912,76,88,76z"/>
	<path fill="#EB4548" d="M72,148c-2.2088,0-4,1.7892-4,4v0.6328V188c0,2.2108,1.7912,4,4,4s4-1.7892,4-4v-29.3084V152
		C76,149.7892,74.2088,148,72,148z"/>
	<path fill="#EB4548" d="M72,72c2.2088,0,4-1.7892,4-4V57.3084V32c0-2.2108-1.7912-4-4-4s-4,1.7892-4,4v31.3672V68
		C68,70.2108,69.7912,72,72,72z"/>
</g>
</svg>
