<?xml version="1.0" encoding="utf-8"?>
<!-- Generator: Adobe Illustrator 19.2.0, SVG Export Plug-In . SVG Version: 6.00 Build 0)  -->
<svg version="1.1" id="circlesradiant" xmlns="http://www.w3.org/2000/svg" xmlns:xlink="http://www.w3.org/1999/xlink" x="0px"
	 y="0px" viewBox="0 0 224 200" enable-background="new 0 0 224 200" xml:space="preserve">
<g>
	<path fill="#FD5A5A" d="M112,128c-19.8517,0-36,16.1484-36,36s16.1483,36,36,36c19.8515,0,36-16.1484,36-36S131.8515,128,112,128z"
		/>
	<path fill="#FD5A5A" d="M112,120c13.2343,0,24-10.7656,24-24s-10.7657-24-24-24c-13.2345,0-24,10.7656-24,24S98.7655,120,112,120z"
		/>
	<path fill="#50CCD3" d="M172,96c-13.2345,0-24,10.7656-24,24s10.7655,24,24,24c13.2343,0,24-10.7656,24-24S185.2343,96,172,96z"/>
	<path fill="#63B473" d="M52,96c-13.2345,0-24,10.7656-24,24s10.7655,24,24,24c13.2343,0,24-10.7656,24-24S65.2343,96,52,96z"/>
	<path fill="#FD5A5A" d="M112,64c8.8243,0,16-7.1756,16-16s-7.1757-16-16-16c-8.8245,0-16,7.1756-16,16S103.1755,64,112,64z"/>
	<path fill="#FCC24C" d="M164,76c8.8243,0,16-7.1756,16-16s-7.1757-16-16-16c-8.8245,0-16,7.1756-16,16S155.1755,76,164,76z"/>
	<path fill="#FCC24C" d="M60,76c8.8243,0,16-7.1756,16-16s-7.1757-16-16-16c-8.8245,0-16,7.1756-16,16S51.1755,76,60,76z"/>
	<path fill="#FD5A5A" d="M112,24c6.6171,0,12-5.3828,12-12s-5.3829-12-12-12c-6.6173,0-12,5.3828-12,12S105.3827,24,112,24z"/>
	<path fill="#FCC24C" d="M36,40c6.6171,0,12-5.3828,12-12s-5.3829-12-12-12c-6.6173,0-12,5.3828-12,12S29.3827,40,36,40z"/>
	<path fill="#FCC24C" d="M184,40c6.6171,0,12-5.3828,12-12s-5.3829-12-12-12c-6.6173,0-12,5.3828-12,12S177.3827,40,184,40z"/>
	<path fill="#50CCD3" d="M208,72c-8.8245,0-16,7.1756-16,16s7.1755,16,16,16c8.8243,0,16-7.1756,16-16S216.8243,72,208,72z"/>
	<path fill="#63B473" d="M16,72C7.1755,72,0,79.1756,0,88s7.1755,16,16,16c8.8243,0,16-7.1756,16-16S24.8243,72,16,72z"/>
</g>
</svg>
