<?xml version="1.0" encoding="utf-8"?>
<!-- Generator: Adobe Illustrator 19.2.0, SVG Export Plug-In . SVG Version: 6.00 Build 0)  -->
<svg version="1.1" id="cloudorganism" xmlns="http://www.w3.org/2000/svg" xmlns:xlink="http://www.w3.org/1999/xlink" x="0px"
	 y="0px" viewBox="0 0 220 204" enable-background="new 0 0 220 204" xml:space="preserve">
<g>
	<path fill="#E1AD99" d="M220,110c0-15.4728-10.334-28.5272-24.4748-32.6484C195.836,75.6192,196,73.832,196,72
		c0-15.4648-11.6408-28-26-28c-1.1132,0-2.2108,0.076-3.2892,0.2208C163.4804,34.7832,154.5332,28,144,28
		c-0.5684,0-1.1308,0.0196-1.6896,0.0584C143.3964,25.5916,144,22.8672,144,20c0-11.0448-8.9552-20-20-20
		c-5.4512,0-10.3924,2.1796-14,5.7148C106.3924,2.1796,101.4512,0,96,0C84.9552,0,76,8.9552,76,20
		c0,3.1408,0.7248,6.1172,2.0156,8.7596C76.0936,28.2636,74.078,28,72,28c-10.4532,0-19.3456,6.6836-22.6368,16.008
		C35.2968,44.3712,24,56.7636,24,72c0,1.832,0.164,3.6192,0.4748,5.3516C10.334,81.4728,0,94.5272,0,110
		c0,18.5644,14.8752,33.6524,33.3556,33.992C29.9492,149.8788,28,156.7108,28,164c0,22.0916,17.9084,40,40,40
		c12.1756,0,23.082-5.4396,30.418-14.0236C102.0332,191.2832,105.9336,192,110,192s7.9668-0.7168,11.582-2.0236
		C128.918,198.5604,139.8244,204,152,204c22.0916,0,40-17.9084,40-40c0-7.2892-1.9492-14.1212-5.3556-20.008
		C205.1252,143.6524,220,128.5644,220,110z M124.2948,35.7812c4.6896,16.7268,16.6232,22.4276,32.9728,28.6564L154.42,71.914
		c-17.338-6.6056-32.1504-13.7224-37.8284-33.9724L124.2948,35.7812z M95.7052,35.7812l7.7032,2.1604
		C97.7304,58.1916,82.918,65.3084,65.58,71.914l-2.8476-7.4764C79.082,58.2088,91.0156,52.508,95.7052,35.7812z M53.338,101.0724
		c-0.6428,3.3516-1.1428,6.3944-1.5528,9.1464l0.1348,0.24l-0.1876,0.1036c-1.3124,8.9492-1.5196,14.3908-1.5216,14.4628
		l-0.1364,3.9964l-7.9924-0.2676l0.1328-3.996c0.008-0.2424,0.1484-3.9144,0.8944-10.096c-3.3964,1.17-8.154,2.3516-13.6208,2.3516
		c-2.9552,0-6.1056-0.3456-9.342-1.2264l-3.8592-1.0508l2.1016-7.7188l3.8592,1.0508c11.0996,3.0216,21.1972-2.08,22.1836-2.5996
		c0.3088-1.8652,0.6504-3.8184,1.0508-5.9044c2.7948-14.5528,17.8244-17.8064,25.4472-17.492l3.996,0.166l-0.332,7.992
		l-3.9844-0.166C70.008,90.0604,55.5272,89.67,53.338,101.0724z M83.3416,153.2168c-8.3004,12.754-14.3808,20.1308-14.6344,20.4396
		l-2.5508,3.08l-6.1624-5.0996l2.5488-3.08c0.0608-0.0724,6.0664-7.3692,14.096-19.7032c5.8672-9.0176-0.2148-14.594-1.4944-15.6192
		l-3.0916-2.4804l4.8788-6.252l3.1348,2.4256C84.756,130.5568,91.4764,140.7208,83.3416,153.2168z M85.4296,103.6288L84.4512,99.75
		l7.7576-1.9572l0.9748,3.8656c0.0664,0.248,2.6288,9.4472,10.92,12.8336l3.7032,1.512l-3.0236,7.406l-3.7032-1.5116
		C88.912,116.9296,85.5664,104.17,85.4296,103.6288z M119.5292,167.3244c-4.576-5.4668-6.2872-7.514-16.4432-0.3828l-4.5956-6.5472
		c13.6716-9.5956,19.8788-6.9196,27.1716,1.7932L119.5292,167.3244z M118.92,121.8984l-3.7032,1.5116l-3.0236-7.406l3.7032-1.512
		c8.4648-3.4568,10.8928-12.7264,10.916-12.82l0.9788-3.8792l7.7576,1.9572l-0.9784,3.8788
		C134.4336,104.17,131.088,116.9296,118.92,121.8984z M153.8456,176.7384l-2.5508-3.082
		c-0.2556-0.3068-6.3376-7.6856-14.6384-20.4396c-8.1328-12.496-1.4124-22.66,3.2772-26.2892l3.164-2.4472l4.8944,6.328
		l-3.1444,2.4336c-1.2988,1.0432-7.3416,6.6136-1.4864,15.6116c8.0528,12.3728,14.0352,19.6288,14.094,19.7012l2.5528,3.08
		L153.8456,176.7384z M199.8536,115.7872c-3.2364,0.8808-6.3888,1.2264-9.342,1.2264c-5.4668,0-10.2244-1.1816-13.6208-2.3516
		c0.746,6.1816,0.8864,9.8536,0.8944,10.096l0.1328,3.996l-7.9924,0.2676l-0.1364-3.9964c-0.002-0.072-0.2092-5.5136-1.5216-14.4628
		l-0.1876-0.1036l0.1348-0.24c-0.41-2.752-0.91-5.7948-1.5528-9.1464c-2.2088-11.498-17.1228-11.0196-17.2596-11.008l-3.996,0.166
		l-0.332-7.992l3.996-0.166c7.6484-0.3128,22.6544,2.9372,25.4472,17.492c0.4004,2.084,0.742,4.0372,1.0508,5.9024
		c1.0392,0.5412,11.1952,5.584,22.1836,2.6016l3.8592-1.0508l2.1016,7.7188L199.8536,115.7872z"/>
	<path fill="#FFE9E1" d="M70.6092,90.0644l3.9844,0.166l0.332-7.992l-3.996-0.166c-7.6228-0.3144-22.6524,2.9392-25.4472,17.492
		c-0.4004,2.086-0.742,4.0392-1.0508,5.9044c-0.9864,0.5196-11.084,5.6212-22.1836,2.5996l-3.8592-1.0508l-2.1016,7.7188
		l3.8592,1.0508c3.2364,0.8808,6.3868,1.2264,9.342,1.2264c5.4668,0,10.2244-1.1816,13.6208-2.3516
		c-0.746,6.1816-0.8864,9.8536-0.8944,10.096l-0.1328,3.996l7.9924,0.2676l0.1364-3.9964c0.002-0.072,0.2092-5.5136,1.5216-14.4628
		l0.1876-0.1036l-0.1348-0.24c0.41-2.752,0.91-5.7948,1.5528-9.1464C55.5272,89.67,70.008,90.0604,70.6092,90.0644z"/>
	<path fill="#FFE9E1" d="M80.0664,126.9276l-3.1348-2.4256l-4.8788,6.252l3.0916,2.4804c1.2796,1.0252,7.3616,6.6016,1.4944,15.6192
		c-8.0296,12.334-14.0352,19.6308-14.096,19.7032l-2.5488,3.08l6.1624,5.0996l2.5508-3.08
		c0.2536-0.3088,6.334-7.6856,14.6344-20.4396C91.4764,140.7208,84.756,130.5568,80.0664,126.9276z"/>
	<path fill="#FFE9E1" d="M104.7832,123.41l3.0236-7.406l-3.7032-1.512c-8.2912-3.3864-10.8536-12.5856-10.92-12.8336l-0.9748-3.8656
		L84.4512,99.75l0.9784,3.8788c0.1368,0.5412,3.4824,13.3008,15.6504,18.2696L104.7832,123.41z"/>
	<path fill="#FFE9E1" d="M103.4084,37.9416l-7.7032-2.1604C91.0156,52.508,79.082,58.2088,62.7324,64.4376L65.58,71.914
		C82.918,65.3084,97.7304,58.1916,103.4084,37.9416z"/>
	<path fill="#FFE9E1" d="M197.752,108.0684c-10.9884,2.9824-21.1444-2.0604-22.1836-2.6016
		c-0.3088-1.8652-0.6504-3.8184-1.0508-5.9024c-2.7928-14.5548-17.7988-17.8048-25.4472-17.492l-3.996,0.166l0.332,7.992
		l3.996-0.166c0.1368-0.0116,15.0508-0.49,17.2596,11.008c0.6428,3.3516,1.1428,6.3944,1.5528,9.1464l-0.1348,0.24l0.1876,0.1036
		c1.3124,8.9492,1.5196,14.3908,1.5216,14.4628l0.1364,3.9964l7.9924-0.2676l-0.1328-3.996
		c-0.008-0.2424-0.1484-3.9144-0.8944-10.096c3.3964,1.17,8.154,2.3516,13.6208,2.3516c2.9532,0,6.1056-0.3456,9.342-1.2264
		l3.8592-1.0508l-2.1016-7.7188L197.752,108.0684z"/>
	<path fill="#FFE9E1" d="M143.3612,148.8536c-5.8552-8.998,0.1876-14.5684,1.4864-15.6116l3.1444-2.4336l-4.8944-6.328
		l-3.164,2.4472c-4.6896,3.6292-11.41,13.7932-3.2772,26.2892c8.3008,12.754,14.3828,20.1328,14.6384,20.4396l2.5508,3.082
		l6.1624-5.1036l-2.5528-3.08C157.3964,168.4824,151.414,161.2264,143.3612,148.8536z"/>
	<path fill="#FFE9E1" d="M135.5488,99.75l-7.7576-1.9572l-0.9788,3.8792c-0.0232,0.0936-2.4512,9.3632-10.916,12.82l-3.7032,1.512
		l3.0236,7.406l3.7032-1.5116c12.168-4.9688,15.5136-17.7284,15.6504-18.2696L135.5488,99.75z"/>
	<path fill="#FFE9E1" d="M154.42,71.914l2.8476-7.4764c-16.3496-6.2288-28.2832-11.9296-32.9728-28.6564l-7.7032,2.1604
		C122.2696,58.1916,137.082,65.3084,154.42,71.914z"/>
	<path fill="#FFE9E1" d="M98.4904,160.3944l4.5956,6.5472c10.156-7.1312,11.8672-5.084,16.4432,0.3828l6.1328-5.1368
		C118.3692,153.4748,112.162,150.7988,98.4904,160.3944z"/>
</g>
</svg>
