<?xml version="1.0" encoding="utf-8"?>
<!-- Generator: Adobe Illustrator 19.2.0, SVG Export Plug-In . SVG Version: 6.00 Build 0)  -->
<svg version="1.1" id="cube" xmlns="http://www.w3.org/2000/svg" xmlns:xlink="http://www.w3.org/1999/xlink" x="0px" y="0px"
	 viewBox="0 0 212.0792 212" enable-background="new 0 0 212.0792 212" xml:space="preserve">
<g>
	<polygon fill="none" points="60.0792,68 8.0792,68 8.0792,198.1952 60.0792,146.34 	"/>
	<path fill="#B7F5F0" d="M212.0792,0h-4H65.1219h-1.0427c-1.0585,0-2.0745,0.42-2.8245,1.168L2.2587,60H0.0792v3.078
		c-0.1133,0.5156-0.0977,1.0432,0,1.5684V207.078c-0.1133,0.5156-0.0977,1.0432,0,1.5684V212h145.0311
		c0.2268,0,0.4376-0.0448,0.6564-0.0664h2.2108c1.0588,0,2.0744-0.42,2.8244-1.168l60.1016-59.9336
		c0.9492-0.9452,1.3124-2.2832,1.07-3.5644c0.0628-0.3456,0.1057-0.6972,0.1057-1.0588V0z M8.0792,68h52v78.34l-52,51.8552V68z
		 M144.0792,203.9336H13.6535L65.7315,152h78.3477V203.9336z M68.0792,144V67.9336h76V68v76H68.0792z M152.0792,65.492l52-51.8552
		V144h-52V65.492z M146.3251,59.9336H68.0792V8h130.3243L146.3251,59.9336z M60.0792,13.6368v46.2968H13.6535L60.0792,13.6368z
		 M152.0792,198.1952V152h46.3243L152.0792,198.1952z"/>
	<polygon fill="#3BABB7" points="204.0792,13.6368 152.0792,65.492 152.0792,144 204.0792,144 	"/>
	<polygon fill="#3BABB7" points="144.0792,67.9336 68.0792,67.9336 68.0792,144 144.0792,144 144.0792,68 	"/>
	<polygon fill="#7BE5E4" points="60.0792,13.6368 13.6535,59.9336 60.0792,59.9336 	"/>
	<polygon fill="#7BE5E4" points="68.0792,59.9336 146.3251,59.9336 198.4035,8 68.0792,8 	"/>
	<polygon fill="#3BABB7" points="152.0792,198.1952 198.4035,152 152.0792,152 	"/>
	<polygon fill="#3BABB7" points="13.6535,203.9336 144.0792,203.9336 144.0792,152 65.7315,152 	"/>
</g>
</svg>
