<?xml version="1.0" encoding="utf-8"?>
<!-- Generator: Adobe Illustrator 19.2.0, SVG Export Plug-In . SVG Version: 6.00 Build 0)  -->
<svg version="1.1" id="dispersion" xmlns="http://www.w3.org/2000/svg" xmlns:xlink="http://www.w3.org/1999/xlink" x="0px" y="0px"
	 viewBox="0 0 212.2851 206.7863" enable-background="new 0 0 212.2851 206.7863" xml:space="preserve">
<g>
	<path fill="none" d="M82.3163,62.6535c7.7968,10.3672,12.6757,22.9964,13.4804,36.7384h20.1016
		c-0.8048-17.8516-6.9492-34.3244-16.8748-47.8752L82.3163,62.6535z"/>
	<path fill="none" d="M99.0235,155.2667c9.9256-13.5504,16.07-30.0232,16.8748-47.8748H95.7967
		c-0.8047,13.742-5.6836,26.3712-13.4804,36.7384L99.0235,155.2667z"/>
	<path fill="#FE7D71" d="M82.3163,144.1303c7.7968-10.3672,12.6757-22.9964,13.4804-36.7384H55.6795
		c-0.7928,5.5156-3.1912,10.508-6.7188,14.5L82.3163,144.1303z"/>
	<path fill="#FE7D71" d="M48.9607,84.8919c3.5276,3.992,5.926,8.9844,6.7188,14.5h40.1172
		c-0.8047-13.742-5.6836-26.3712-13.4804-36.7384L48.9607,84.8919z"/>
	<path fill="#FE7D71" d="M42.5779,79.5327l34.5472-23.0316C64.7343,43.5247,47.3163,35.3919,28,35.3919h-4v40.3204
		c1.3083-0.1876,2.6367-0.3204,4-0.3204C33.3435,75.3919,38.3243,76.9231,42.5779,79.5327z"/>
	<path fill="#FE7D71" d="M42.5779,127.2511c-4.2536,2.6096-9.2344,4.1408-14.5779,4.1408c-1.3633,0-2.6917-0.1288-4-0.3204v40.3204
		h4c19.3163,0,36.7343-8.1328,49.1251-21.1092L42.5779,127.2511z"/>
	<path fill="#9AB040" d="M28,191.3919v8c29.0311,0,55.0703-12.9688,72.6875-33.3984l-6.7032-4.4688
		C77.8475,179.8175,54.2579,191.3919,28,191.3919z"/>
	<path fill="#9AB040" d="M28,7.3919v8c26.2579,0,49.8475,11.5744,65.9843,29.8712l6.7032-4.4728
		C83.0703,20.3607,57.0311,7.3919,28,7.3919z"/>
	<path fill="#9AB040" d="M115.8983,99.3919h8c-0.8048-19.492-7.4452-37.492-18.2188-52.3124l-6.656,4.4372
		C108.9491,65.0675,115.0935,81.5403,115.8983,99.3919z"/>
	<path fill="#9AB040" d="M99.0235,155.2667l6.656,4.4376c10.7736-14.8204,17.414-32.8204,18.2188-52.3124h-8
		C115.0935,125.2435,108.9491,141.7163,99.0235,155.2667z"/>
	<path fill="#B976DD" d="M42.5779,79.5327c2.3868,1.4648,4.5352,3.2692,6.3828,5.3592l33.3556-22.2384l16.7072-11.1368l6.656-4.4372
		l39.3165-26.2112l-5.2265,20.9492c-0.5312,2.1448,0.7696,4.3164,2.914,4.8516c0.3245,0.0784,0.6525,0.1172,0.9728,0.1172
		c1.7928,0,3.4216-1.2148,3.8788-3.0312l8.7068-34.9296l-34.9256-8.7108c-2.1443-0.5196-4.3123,0.7732-4.8516,2.914
		c-0.5312,2.1444,0.7736,4.3164,2.914,4.8516l22.3284,5.5664l-41.0196,27.3436l-6.7032,4.4728l-16.8592,11.238L42.5779,79.5327z"/>
	<path fill="#EB4548" d="M186.828,77.9347c-1.5625-1.5624-4.0937-1.5624-5.656,0c-1.5629,1.5628-1.5629,4.094,0,5.6564
		l15.8007,15.8008h-73.0744h-8H95.7967H55.6795c0.1876,1.3084,0.3205,2.6368,0.3205,4c0,1.3632-0.1329,2.6916-0.3205,4h40.1172
		h20.1016h8h73.0744l-15.8007,15.8008c-1.5629,1.5624-1.5629,4.0936,0,5.6564c0.7811,0.7812,1.8043,1.1716,2.828,1.1716
		c1.0235,0,2.0467-0.3904,2.828-1.1716l25.4571-25.4572L186.828,77.9347z"/>
	<path fill="#F8A131" d="M82.3163,144.1303l-33.3556-22.2384c-1.8476,2.09-3.996,3.8944-6.3828,5.3592l34.5472,23.0316
		l16.8592,11.242l6.7032,4.4688l41.0196,27.3436l-22.3284,5.5664c-2.1404,0.5352-3.4452,2.7072-2.914,4.8516
		c0.4572,1.8164,2.086,3.0312,3.8788,3.0312c0.3205,0,0.6485-0.0388,0.9728-0.1172l34.9256-8.7108l-8.7068-34.9296
		c-0.5391-2.1408-2.7188-3.4376-4.8516-2.914c-2.1444,0.5352-3.4452,2.7068-2.914,4.8516l5.2265,20.9492l-39.3165-26.2112
		l-6.656-4.4376L82.3163,144.1303z"/>
	<path fill="#4F676D" d="M42.5779,127.2511c2.3868-1.4648,4.5352-3.2692,6.3828-5.3592c3.5276-3.992,5.926-8.9844,6.7188-14.5
		c0.1876-1.3084,0.3205-2.6368,0.3205-4c0-1.3632-0.1329-2.6916-0.3205-4c-0.7928-5.5156-3.1912-10.508-6.7188-14.5
		c-1.8476-2.09-3.996-3.8944-6.3828-5.3592C38.3243,76.9231,33.3435,75.3919,28,75.3919c-1.3633,0-2.6917,0.1328-4,0.3204
		C10.4531,77.6655,0,89.3175,0,103.3919s10.4531,25.7264,24,27.6796c1.3083,0.1916,2.6367,0.3204,4,0.3204
		C33.3435,131.3919,38.3243,129.8607,42.5779,127.2511z"/>
</g>
</svg>
