<?xml version="1.0" encoding="utf-8"?>
<!-- Generator: Adobe Illustrator 19.2.0, SVG Export Plug-In . SVG Version: 6.00 Build 0)  -->
<svg version="1.1" id="droplet" xmlns="http://www.w3.org/2000/svg" xmlns:xlink="http://www.w3.org/1999/xlink" x="0px" y="0px"
	 viewBox="0 0 212.1017 223.9493" enable-background="new 0 0 212.1017 223.9493" xml:space="preserve">
<g>
	<path fill="#50CCD3" d="M142.9688,41.6954c-1.508-1.5468-4.2264-1.5468-5.7344,0c-2.8244,2.9024-69.1327,71.5196-69.1327,110.2539
		c0,39.7013,32.3007,72,72,72c39.6991,0,72-32.2987,72-72C212.1017,113.215,145.7932,44.5978,142.9688,41.6954z M140.1017,199.9493
		c-26.4689,0-48-21.5331-48-48c0-2.2087,1.7891-4,4-4c2.2107,0,4,1.7913,4,4c0,22.0569,17.9451,40,40,40c2.2107,0,4,1.7913,4,4
		C144.1017,198.1582,142.3124,199.9493,140.1017,199.9493z M130.1017,179.9493c-9.9417,0-18-8.0583-18-18c0-9.9415,8.0583-18,18-18
		c9.9415,0,18,8.0585,18,18C148.1017,171.891,140.0432,179.9493,130.1017,179.9493z M146.1017,107.9493c-5.5237,0-10-4.4763-10-10
		c0-5.5235,4.4763-10,10-10c5.5235,0,10,4.4765,10,10C156.1017,103.473,151.6252,107.9493,146.1017,107.9493z M190.1017,163.9493
		c-5.5237,0-10-4.4763-10-10c0-5.5235,4.4763-10,10-10c5.5235,0,10,4.4765,10,10
		C200.1017,159.473,195.6252,163.9493,190.1017,163.9493z"/>
	<circle fill="#7BE5E4" cx="130.1017" cy="161.9493" r="18"/>
	<circle fill="#7BE5E4" cx="190.1017" cy="153.9493" r="10"/>
	<circle fill="#7BE5E4" cx="146.1017" cy="97.9493" r="10"/>
	<path fill="#3BABB7" d="M80.2032,61.0022c0-20.9572-33.422-55.924-37.2344-59.842c-1.508-1.5469-4.2264-1.5469-5.7344,0
		C33.422,5.0782,0,40.045,0,61.0022c0,22.1111,17.9884,40.0996,40.1017,40.0996C62.2148,101.1018,80.2032,83.1133,80.2032,61.0022z
		 M36.1017,83.9493c-11.0273,0-20-8.9727-20-20c0-2.2087,1.7891-4,4-4c2.2107,0,4,1.7913,4,4c0,6.6173,5.3827,12,12,12
		c2.2107,0,4,1.7913,4,4C40.1017,82.1582,38.3124,83.9493,36.1017,83.9493z M44.1017,59.9493c-4.4181,0-8-3.5819-8-8
		c0-4.4179,3.5819-8,8-8c4.4179,0,8,3.5821,8,8C52.1017,56.3674,48.5196,59.9493,44.1017,59.9493z"/>
	<circle fill="#7BE5E4" cx="44.1017" cy="51.9493" r="8"/>
	<path fill="#7BE5E4" d="M36.1017,75.9493c-6.6173,0-12-5.3827-12-12c0-2.2087-1.7893-4-4-4c-2.2109,0-4,1.7913-4,4
		c0,11.0273,8.9727,20,20,20c2.2107,0,4-1.7911,4-4C40.1017,77.7406,38.3124,75.9493,36.1017,75.9493z"/>
	<path fill="#7BE5E4" d="M140.1017,191.9493c-22.0549,0-40-17.9431-40-40c0-2.2087-1.7893-4-4-4c-2.2109,0-4,1.7913-4,4
		c0,26.4669,21.5311,48,48,48c2.2107,0,4-1.7911,4-4C144.1017,193.7406,142.3124,191.9493,140.1017,191.9493z"/>
</g>
</svg>
