<?xml version="1.0" encoding="utf-8"?>
<!-- Generator: Adobe Illustrator 19.2.0, SVG Export Plug-In . SVG Version: 6.00 Build 0)  -->
<svg version="1.1" id="drugspills" xmlns="http://www.w3.org/2000/svg" xmlns:xlink="http://www.w3.org/1999/xlink" x="0px" y="0px"
	 viewBox="0 0 224.1371 199.5515" enable-background="new 0 0 224.1371 199.5515" xml:space="preserve">
<g>
	<path fill="#EB4548" d="M219.8879,156.7079l-12.7188-20.3516l-0.008-0.008l0.008,0.012c1.1716,1.8708,0.6016,4.3396-1.2695,5.5076
		l-40.7033,25.4336c-0.66,0.414-1.3944,0.6096-2.1172,0.6096c-1.328,0-2.6248-0.6604-3.3828-1.8672l12.7033,20.3436
		c3.9567,6.332,10.1523,10.75,17.4411,12.4336c2.1136,0.492,4.25,0.7304,6.3672,0.7304c5.1837,0,10.2736-1.4452,14.7776-4.2616
		C224.0751,187.1103,228.0716,169.8055,219.8879,156.7079z"/>
	<path fill="#A9C7D8" d="M163.0791,167.9111c0.7228,0,1.4572-0.1956,2.1172-0.6096l40.7033-25.4336
		c1.8711-1.168,2.4411-3.6368,1.2695-5.5076l-0.008-0.012l-12.7068-20.3476c-8.18-13.086-25.4808-17.0936-38.586-8.9024
		c-13.09,8.18-17.086,25.4844-8.9024,38.582l12.7188,20.3516c0.004,0.004,0.0076,0.008,0.0116,0.012
		C160.4543,167.2507,161.7511,167.9111,163.0791,167.9111z"/>
	<path fill="#A9C7D8" d="M119.7391,22.6687c-1.4256-7.3476-5.6248-13.6992-11.82-17.8788
		c-6.1915-4.176-13.6328-5.6916-20.9924-4.2696c-7.3476,1.426-13.6991,5.6252-17.8788,11.8244l-13.422,19.8944
		c1.2344-1.832,3.7228-2.3088,5.5548-1.078l39.7928,26.8396c1.8284,1.2344,2.3128,3.7228,1.0784,5.5548l13.4216-19.8944
		C119.6495,37.4695,121.1651,30.0163,119.7391,22.6687z"/>
	<path fill="#EB4548" d="M100.9735,58.0007L61.1807,31.1611c-1.832-1.2308-4.3204-0.754-5.5548,1.078L42.2043,52.1375
		c-4.176,6.1916-5.6916,13.6484-4.2656,20.9924c1.4256,7.3476,5.6249,13.6992,11.82,17.8788
		c4.7932,3.2304,10.2304,4.7772,15.6172,4.7772c9.004,0,17.8557-4.324,23.258-12.332l13.418-19.8984
		C103.2863,61.7235,102.8019,59.2351,100.9735,58.0007z"/>
	<path fill="#FE8657" d="M96.6183,143.4695l-7.7267,2.0704l-2.0701-7.7268c-0.5704-2.1364-2.7579-3.3984-4.8988-2.828
		c-2.1328,0.5704-3.3984,2.7656-2.828,4.8984l2.0704,7.7268l-7.7264,2.07c-2.1332,0.5704-3.3988,2.766-2.8284,4.8988
		c0.4768,1.7888,2.094,2.9648,3.8596,2.9648c0.3436,0,0.6912-0.0432,1.0388-0.1368l7.7269-2.0704l2.0699,7.7264
		c0.4768,1.7892,2.0941,2.9652,3.8596,2.9652c0.3436,0,0.6912-0.0432,1.0392-0.1368c2.1328-0.5704,3.3984-2.7656,2.828-4.8984
		l-2.0704-7.7268l7.7268-2.07c2.1328-0.5704,3.3984-2.766,2.828-4.8988C100.9463,144.1611,98.7587,142.9031,96.6183,143.4695z"/>
	<path fill="#FE8657" d="M174.6104,58.2975c-0.5704,2.1328,0.6952,4.3284,2.8284,4.8988l7.7264,2.07l-2.0704,7.7268
		c-0.5704,2.1328,0.6952,4.328,2.828,4.8984c0.348,0.0936,0.6956,0.1368,1.0392,0.1368c1.7657,0,3.3828-1.176,3.8596-2.9652
		l2.0701-7.7264l7.7267,2.0704c0.3476,0.0936,0.6952,0.1368,1.0388,0.1368c1.7656,0,3.3828-1.176,3.8596-2.9648
		c0.5704-2.1328-0.6952-4.3284-2.828-4.8988l-7.7268-2.07l2.0704-7.7268c0.5704-2.1328-0.6952-4.328-2.828-4.8984
		c-2.1252-0.5704-4.3284,0.6916-4.8988,2.828l-2.0699,7.7268l-7.7269-2.0704C177.3839,54.8991,175.1807,56.1647,174.6104,58.2975z"
		/>
	<path fill="#FE8657" d="M21.9463,72.5475l-6.7072,4.3556l-4.3552-6.7068c-1.2032-1.8516-3.672-2.3832-5.5352-1.176
		c-1.8516,1.2032-2.3788,3.6796-1.176,5.5352l4.3556,6.7072l-6.7068,4.3552c-1.8516,1.2032-2.3792,3.6796-1.176,5.5352
		c0.7656,1.1796,2.0508,1.8204,3.3596,1.8204c0.746,0,1.5-0.2072,2.1756-0.6444l6.7072-4.3556l4.3552,6.7068
		c0.7656,1.18,2.0508,1.8204,3.3596,1.8204c0.746,0,1.5-0.2068,2.1756-0.6444c1.8516-1.2032,2.3788-3.6796,1.176-5.5352
		l-4.3556-6.7072l6.7068-4.3552c1.8516-1.2032,2.3792-3.6796,1.176-5.5352C26.2783,71.8719,23.8055,71.3407,21.9463,72.5475z"/>
	<path fill="#FE8657" d="M118.0636,102.4383c2.2107,0,4-1.7892,4-4c0-8.8244,7.1755-16,16-16c2.2107,0,4-1.7892,4-4s-1.7893-4-4-4
		c-13.2345,0-24,10.7656-24,24C114.0636,100.6491,115.8527,102.4383,118.0636,102.4383z"/>
	<path fill="#FE8657" d="M135.0907,180.6375c-5.668,6.754-15.7852,7.6444-22.5468,1.9688c-1.6952-1.422-4.2148-1.1876-5.6368,0.496
		c-1.418,1.6916-1.1952,4.2148,0.4965,5.6368c4.488,3.7616,9.9607,5.6016,15.4099,5.6016c6.8516,0,13.664-2.914,18.4024-8.5624
		c1.422-1.6916,1.2032-4.2152-0.4923-5.6328C139.0284,178.7235,136.5051,178.9463,135.0907,180.6375z"/>
	<path fill="#FE8657" d="M145.0831,28.8991c3.2732,1.5276,6.7148,2.2464,10.1092,2.2464c9.0433,0,17.7188-5.1328,21.7852-13.8516
		c0.9336-2.004,0.0664-4.3828-1.9336-5.3164c-2-0.922-4.3788-0.0664-5.3163,1.9336c-3.7265,8-13.2697,11.4688-21.2617,7.738
		c-2.004-0.9256-4.3788-0.0664-5.3164,1.9336C142.2159,25.5867,143.0831,27.9655,145.0831,28.8991z"/>
</g>
</svg>
