<?xml version="1.0" encoding="utf-8"?>
<!-- Generator: Adobe Illustrator 19.2.0, SVG Export Plug-In . SVG Version: 6.00 Build 0)  -->
<svg version="1.1" id="earthcomposition" xmlns="http://www.w3.org/2000/svg" xmlns:xlink="http://www.w3.org/1999/xlink" x="0px"
	 y="0px" viewBox="0 0 232 232" enable-background="new 0 0 232 232" xml:space="preserve">
<g>
	<path fill="#A48659" d="M204,116c0-47.1816-37.326-85.7988-84-87.8984v16.0956c37.828,2.0392,68,33.414,68,71.8028
		s-30.172,69.7636-68,71.8028v16.0956C166.674,201.7988,204,163.1816,204,116z"/>
	<path fill="#A48659" d="M95.6388,80.7872c-2.1956,4.7168-5.4648,8.072-8.092,10.7676c-3.9492,4.0544-3.75,4.32-3.1544,5.1112
		c2.1388,2.838,15.1368,7.246,27.6076,10.2988V72.4864C106.2948,73.4316,97.9492,75.8244,95.6388,80.7872z"/>
	<path fill="#A48659" d="M232,116C232,52.0372,179.9628,0,116,0S0,52.0372,0,116c0,62.6212,49.8848,113.7792,112,115.8984V115.1952
		c-9.5664-2.2344-29.3048-7.4864-33.998-13.7168c-4.922-6.5388,0.1288-11.7224,3.8164-15.5056
		c2.3184-2.3812,4.9452-5.0764,6.5664-8.5608C92.7072,68.1248,105.4784,65.254,112,64.3768V1.6796h8v18.422
		c51.084,2.1056,92,44.3068,92,95.8984s-40.916,93.7928-92,95.8984v20C182.1152,229.7792,232,178.6212,232,116z M49.2208,79.4824
		c-7.4356,4.4376-11.9824,7.4416-11.7812,13.006c0.6816,18.828,1.408,24.4704,13.3396,29.3084
		c4.4844,1.8184,7.0704,4.506,7.6896,7.9904c1.248,7.0372-6.3928,13.9588-13.7792,20.6544
		c-2.0568,1.8632-4.0568,3.6716-5.7092,5.3652c-7.9296,8.1288-10.7928,23.91-10.8204,24.068l-7.8788-1.3808
		c0.1288-0.744,3.3008-18.3592,12.9728-28.2732c1.7556-1.8008,3.8788-3.7288,6.0624-5.7072
		c4.1076-3.7208,11.75-10.6464,11.2752-13.328c-0.0604-0.334-0.7184-1.1252-2.8164-1.9748
		c-17.2656-7-17.6892-18.7088-18.332-36.4336c-0.3808-10.58,8.1504-15.6716,15.678-20.164
		c9.6972-5.7888,15.0136-9.5584,11.5232-19.7284c-9.0388-26.334-7.082-30.006-6.4372-31.2128l7.0584,3.7656
		c0.2756-0.5176,0.328-0.8928,0.328-0.8928c-0.0252,0.1876-0.5352,4.9084,6.6172,25.7424
		C69.9804,67.0916,57.9824,74.254,49.2208,79.4824z"/>
	<path fill="#FFDC82" d="M204,116c0,47.1816-37.326,85.7988-84,87.8984v8c51.084-2.1056,92-44.3068,92-95.8984
		s-40.916-93.7928-92-95.8984v8C166.674,30.2012,204,68.8184,204,116z"/>
	<path fill="#EB4548" d="M120.1172,52.1232v127.7516C153.4864,177.8008,180,149.9432,180,116S153.4864,54.1992,120.1172,52.1232z"/>
	<path fill="#FE7D71" d="M188,116c0-38.3888-30.172-69.7636-68-71.8028v143.6056C157.828,185.7636,188,154.3888,188,116z
		 M120.1172,179.8748V52.1232C153.4864,54.1992,180,82.0568,180,116S153.4864,177.8008,120.1172,179.8748z"/>
	<path fill="#BC9A67" d="M120,203.8984v-16.0956V44.1972V28.1016v-8V1.6796h-8v62.6972
		c-6.5216,0.8772-19.2928,3.748-23.6152,13.0352c-1.6212,3.4844-4.248,6.1796-6.5664,8.5608
		c-3.6876,3.7832-8.7384,8.9668-3.8164,15.5056c4.6932,6.2304,24.4316,11.4824,33.998,13.7168v116.7032V232h8v-0.1016v-20V203.8984z
		 M84.3924,96.666c-0.5956-0.7912-0.7948-1.0568,3.1544-5.1112c2.6272-2.6956,5.8964-6.0508,8.092-10.7676
		c2.3104-4.9628,10.656-7.3556,16.3612-8.3008v34.4784C99.5292,103.912,86.5312,99.504,84.3924,96.666z"/>
	<path fill="#BC9A67" d="M57.5936,24.5412c0,0-0.0524,0.3788-0.328,0.8964l-7.0584-3.7656
		c-0.6448,1.2068-2.6016,4.8788,6.4372,31.2128c3.4904,10.17-1.826,13.9396-11.5232,19.7284
		c-7.5276,4.4924-16.0588,9.584-15.678,20.164c0.6428,17.7248,1.0664,29.4336,18.332,36.4336
		c2.098,0.8496,2.756,1.6408,2.8164,1.9748c0.4748,2.6816-7.1676,9.6072-11.2752,13.328c-2.1836,1.9784-4.3068,3.9064-6.0624,5.7072
		c-9.672,9.914-12.844,27.5292-12.9728,28.2732l7.8788,1.3808c0.0276-0.158,2.8908-15.9392,10.8204-24.068
		c1.6524-1.6936,3.6524-3.502,5.7092-5.3652c7.3864-6.6956,15.0272-13.6172,13.7792-20.6544
		c-0.6192-3.4844-3.2052-6.172-7.6896-7.9904c-11.9316-4.838-12.658-10.4804-13.3396-29.3084
		c-0.2012-5.5644,4.3456-8.5684,11.7812-13.006c8.7616-5.2284,20.7596-12.3908,14.99-29.1952
		C57.0584,29.4532,57.5684,24.7324,57.5936,24.5412z"/>
</g>
</svg>
