<?xml version="1.0" encoding="utf-8"?>
<!-- Generator: Adobe Illustrator 19.2.0, SVG Export Plug-In . SVG Version: 6.00 Build 0)  -->
<svg version="1.1" id="einsteinequation" xmlns="http://www.w3.org/2000/svg" xmlns:xlink="http://www.w3.org/1999/xlink" x="0px"
	 y="0px" viewBox="0 0 212 224" enable-background="new 0 0 212 224" xml:space="preserve">
<g>
	<polygon fill="#FE8657" points="101.5351,156 71.6015,216 48,216 48,224 76.5547,224 104,168.9764 104,220 112,220 112,168.9764 
		139.4451,224 168,224 168,216 144.3983,216 114.4647,156 	"/>
	<path fill="#FE8657" d="M132,4c0-2.2088-1.7893-4-4-4H88c-2.2109,0-4,1.7912-4,4v24h48V4z"/>
	<path fill="#456782" d="M208,28h-76H84H4c-2.2109,0-4,1.7912-4,4v120c0,2.2088,1.7891,4,4,4h97.5351h12.9296H208
		c2.2107,0,4-1.7912,4-4V32C212,29.7912,210.2107,28,208,28z M52,76H32v16h20v8H32v16h20v8H32h-6.5H24V68h1.5H32h20V76z M88,108H64
		v-8h24V108z M88,92H64v-8h24V92z M132,76v48h-8V76h-4v12h-8V76h-4v48h-8V76v-8h8h4h8h4h8V76z M168,76h-20v40h20v8h-20h-6.5H140V68
		h1.5h6.5h20V76z M192,52v4v4v6v2h-12v4h12v8h-20v-2v-6v-4v-6v-2h12v-4h-12v-8h20V52z"/>
	<rect x="64" y="84" fill="#D4D4E2" width="24" height="8"/>
	<rect x="64" y="100" fill="#D4D4E2" width="24" height="8"/>
	<polygon fill="#D4D4E2" points="25.5,68 24,68 24,124 25.5,124 32,124 52,124 52,116 32,116 32,100 52,100 52,92 32,92 32,76 
		52,76 52,68 32,68 	"/>
	<polygon fill="#D4D4E2" points="141.5,68 140,68 140,124 141.5,124 148,124 168,124 168,116 148,116 148,76 168,76 168,68 148,68 	
		"/>
	<polygon fill="#D4D4E2" points="120,68 112,68 108,68 100,68 100,76 100,124 108,124 108,76 112,76 112,88 120,88 120,76 124,76 
		124,124 132,124 132,76 132,68 124,68 	"/>
	<polygon fill="#D4D4E2" points="172,56 184,56 184,60 172,60 172,62 172,68 172,72 172,78 172,80 192,80 192,72 180,72 180,68 
		192,68 192,66 192,60 192,56 192,52 192,48 172,48 	"/>
</g>
</svg>
