<?xml version="1.0" encoding="utf-8"?>
<!-- Generator: Adobe Illustrator 19.2.0, SVG Export Plug-In . SVG Version: 6.00 Build 0)  -->
<svg version="1.1" id="electricitydanger" xmlns="http://www.w3.org/2000/svg" xmlns:xlink="http://www.w3.org/1999/xlink" x="0px"
	 y="0px" viewBox="0 0 221.6292 188.0976" enable-background="new 0 0 221.6292 188.0976" xml:space="preserve">
<g>
	<path fill="#FE7D71" d="M221.0677,182.0548L114.1301,1.9568C113.4113,0.744,112.1025,0,110.6926,0c0,0,0,0-0.004,0
		c-1.4101,0-2.7189,0.746-3.4377,1.9608L0.5597,182.0584c-0.7344,1.2364-0.746,2.7716-0.0351,4.0196
		c0.7107,1.248,2.0391,2.0196,3.4763,2.0196h213.6292c1.4376,0,2.7656-0.7716,3.4764-2.0216
		C221.8177,184.826,221.8017,183.2908,221.0677,182.0548z M187.5481,170.0292c-0.7148,1.2384-2.0352,2.0019-3.4648,2.0019H37.3017
		c-1.4296,0-2.75-0.7635-3.4648-2.0019c-0.7148-1.24-0.7148-2.7656,0.004-4.0021l73.3908-126.7243
		c1.4296-2.4728,5.492-2.4728,6.9216,0l73.3908,126.7243C188.2629,167.2636,188.2629,168.7892,187.5481,170.0292z"/>
	<path fill="#FFDC82" d="M114.1533,39.3028c-1.4296-2.4728-5.492-2.4728-6.9216,0L33.8409,166.0271
		c-0.7188,1.2365-0.7188,2.7621-0.004,4.0021c0.7148,1.2384,2.0352,2.0019,3.4648,2.0019h146.7816
		c1.4296,0,2.75-0.7635,3.4648-2.0019c0.7148-1.24,0.7148-2.7656-0.004-4.0021L114.1533,39.3028z M132.7081,118.324
		l-22.6056,35.1328c-0.7656,1.1876-2.0508,1.836-3.3672,1.836c-0.742,0-1.492-0.2048-2.16-0.6368
		c-1.8592-1.1952-2.3944-3.6696-1.1992-5.5272l18.6368-28.9688H95.1966c-1.4297,0-2.7541-0.7656-3.4689-2.0056
		c-0.7108-1.2404-0.7071-2.7676,0.0116-4.006l17.0156-29.248c1.1097-1.9104,3.5588-2.5608,5.4688-1.4453
		c1.9104,1.1113,2.5548,3.5585,1.4452,5.4685L102.1497,112.16h27.1952c1.4648,0,2.8084,0.7988,3.5117,2.084
		C133.5557,115.5292,133.5009,117.0936,132.7081,118.324z"/>
	<path fill="#FF6B97" d="M129.3449,112.16h-27.1952l13.5192-23.2364c1.1096-1.91,0.4652-4.3572-1.4452-5.4685
		c-1.91-1.1155-4.3591-0.4651-5.4688,1.4453l-17.0156,29.248c-0.7187,1.2384-0.7224,2.7656-0.0116,4.006
		c0.7148,1.24,2.0392,2.0056,3.4689,2.0056h26.8163l-18.6368,28.9688c-1.1952,1.8576-0.66,4.332,1.1992,5.5272
		c0.668,0.432,1.418,0.6368,2.16,0.6368c1.3164,0,2.6016-0.6484,3.3672-1.836l22.6056-35.1328
		c0.7928-1.2304,0.8476-2.7948,0.1485-4.08C132.1533,112.9588,130.8097,112.16,129.3449,112.16z"/>
</g>
</svg>
