<?xml version="1.0" encoding="utf-8"?>
<!-- Generator: Adobe Illustrator 19.2.0, SVG Export Plug-In . SVG Version: 6.00 Build 0)  -->
<svg version="1.1" id="electricitymeasure" xmlns="http://www.w3.org/2000/svg" xmlns:xlink="http://www.w3.org/1999/xlink" x="0px"
	 y="0px" viewBox="0 0 216 221.3007" enable-background="new 0 0 216 221.3007" xml:space="preserve">
<g>
	<path fill="#63B473" d="M26.5,161.3007l0.1951,0.1953c0.004-0.0664,0.008-0.1288,0.012-0.1953H26.5z"/>
	<path fill="#63B473" d="M189.3827,161.496l0.1952-0.1953h-0.2068C189.3751,161.3672,189.3787,161.4296,189.3827,161.496z"/>
	<path fill="#63B473" d="M193.172,157.422c0.2459,2.5976,0.4059,5.2187,0.4059,7.8787v4h-4h-20.4608h-4H50.9607h-4H26.5h-4v-4
		c0-2.6991,0.1563-5.3631,0.4099-8h-2.8708C8.9727,157.3007,0,166.25,0,177.2892v24.0232c0,11.0236,8.9727,19.9883,20.0391,19.9883
		h171.9216c11.0664,0,20.0393-8.9491,20.0393-19.9883v-24.0232C212,166.6796,203.664,158.0588,193.172,157.422z M40,209.3007
		c-8.836,0-16-7.164-16-16s7.164-16,16-16s16,7.164,16,16S48.836,209.3007,40,209.3007z M167.1523,209.3007
		c-9.004,0-16.3048-7.164-16.3048-16s7.3008-16,16.3048-16c9.0077,0,16.3084,7.164,16.3084,16S176.16,209.3007,167.1523,209.3007z"
		/>
	<ellipse fill="#EB4548" cx="167.1532" cy="193.3007" rx="16.3066" ry="16"/>
	<circle fill="#FCC24C" cx="40" cy="193.3007" r="16"/>
	<path fill="#618287" d="M22.5,169.3007h4h20.4607v-4c0-33.1563,27.3636-60,61.0784-60s61.078,26.8437,61.078,60v4h20.4608h4v-4
		c0-2.66-0.16-5.2811-0.4059-7.8787c-2.5157-26.5276-17.6017-49.4104-39.332-62.9804l38.2967-52.2228
		c-2.3828-1.3556-4.3752-3.2812-5.7932-5.6252L146.8163,90.496c-11.6523-5.836-24.8048-9.1953-38.7772-9.1953
		c-14.1956,0-27.5548,3.4493-39.34,9.4609l-39.0428-53.238c-1.418,2.3436-3.4104,4.2691-5.7932,5.6248l37.844,51.6056
		c-21.418,13.5936-36.2656,36.2812-38.7972,62.5467c-0.2536,2.6369-0.4099,5.3009-0.4099,8V169.3007z M26.5,161.3007h0.2071
		c-0.004,0.0665-0.008,0.1289-0.012,0.1953L26.5,161.3007z M189.3827,161.496c-0.004-0.0664-0.0076-0.1288-0.0116-0.1953h0.2068
		L189.3827,161.496z"/>
	<path fill="#618287" d="M51.168,161.3007h-0.2073l0.1956,0.1953C51.16,161.4336,51.164,161.3672,51.168,161.3007z"/>
	<path fill="#618287" d="M165.1171,161.3007h-0.2072c0.004,0.0665,0.004,0.1329,0.008,0.1953L165.1171,161.3007z"/>
	<path fill="#FCC24C" d="M108.0391,105.3007c-33.7148,0-61.0784,26.8437-61.0784,60v4h4h114.1564h4v-4
		C169.1171,132.1444,141.7539,105.3007,108.0391,105.3007z M63.5155,133.3007l5.6565-5.6563l12.7263,12.7268l-5.6564,5.656
		L63.5155,133.3007z M137.172,146.0272l-5.6565-5.656l12.7264-12.7268l5.6564,5.6563L137.172,146.0272z M112,129.3007h-8v-18h8
		V129.3007z M165.1171,161.3007l-0.1992,0.1953c-0.004-0.0624-0.004-0.1288-0.008-0.1953H165.1171z M51.168,161.3007
		c-0.004,0.0665-0.008,0.1329-0.0117,0.1953l-0.1956-0.1953H51.168z"/>
	<rect x="104" y="111.3007" fill="#EB4548" width="8" height="18"/>
	
		<rect x="68.7073" y="127.8369" transform="matrix(0.7071 -0.7071 0.7071 0.7071 -75.4613 91.4868)" fill="#EB4548" width="7.9992" height="17.998"/>
	
		<rect x="131.7079" y="132.8363" transform="matrix(0.7071 -0.7071 0.7071 0.7071 -55.5454 139.5762)" fill="#EB4548" width="17.998" height="7.9992"/>
	<path fill="#9AB040" d="M29.6563,37.5236C31.1131,35.1132,32,32.3164,32,29.3007c0-8.8243-7.1757-16-16-16
		c-8.8245,0-16,7.1757-16,16c0,8.8245,7.1755,16,16,16c2.8711,0,5.5311-0.8203,7.8631-2.1523
		C26.2459,41.7927,28.2383,39.8672,29.6563,37.5236z"/>
	<path fill="#9AB040" d="M192.1367,42.2188c2.332,1.332,4.992,2.1524,7.8633,2.1524c8.8243,0,16-7.176,16-16
		c0-8.8244-7.1757-16-16-16c-8.8245,0-16,7.1756-16,16c0,3.0156,0.8867,5.8124,2.3435,8.2224
		C187.7615,38.9376,189.7539,40.8632,192.1367,42.2188z"/>
	<polygon fill="#50CCD3" points="73.4023,11.4376 104.6171,65.6212 126.0351,21.6916 149.2459,50.0624 174.3827,24.6407 
		168.6951,19.0156 149.8083,38.1172 124.3163,6.9572 104.0311,48.5744 76.0427,0 39.8787,24.414 44.3555,31.0468 	"/>
</g>
</svg>
