<?xml version="1.0" encoding="utf-8"?>
<!-- Generator: Adobe Illustrator 19.2.0, SVG Export Plug-In . SVG Version: 6.00 Build 0)  -->
<svg version="1.1" id="eyedropper" xmlns="http://www.w3.org/2000/svg" xmlns:xlink="http://www.w3.org/1999/xlink" x="0px" y="0px"
	 viewBox="0 0 189.9804 223.9741" enable-background="new 0 0 189.9804 223.9741" xml:space="preserve">
<g>
	<path fill="#50CCD3" d="M114.758,66.7301l-52,52c-1.172,1.1716-2.7072,1.7576-4.2424,1.7576c-1.5352,0-3.0704-0.586-4.242-1.7576
		c-2.344-2.342-2.344-6.1428,0-8.4844l52-52c0.83-0.83,1.8572-1.26,2.9236-1.502l-4.9532-4.9532l-65.0508,65.0488
		c-6.1052,6.1056-8.412,14.9648-6.2148,23.1876l-19.246,19.244c-0.75,0.75-1.172,1.7676-1.172,2.828
		c0,1.0608,0.422,2.0784,1.172,2.8284l11.3144,11.3124c0.7812,0.7812,1.8048,1.172,2.8284,1.172c1.0232,0,2.0468-0.3908,2.828-1.172
		l19.242-19.2404c8.2092,2.2072,17.0784-0.1072,23.1896-6.2184l65.0488-65.0488l-21.9256-21.924
		C116.0176,64.8725,115.588,65.8997,114.758,66.7301z"/>
	<path fill="#4A8F9E" d="M54.2736,110.2457c-2.344,2.3416-2.344,6.1424,0,8.4844c1.1716,1.1716,2.7068,1.7576,4.242,1.7576
		c1.5352,0,3.0704-0.586,4.2424-1.7576l52-52c0.83-0.8304,1.2596-1.8576,1.5-2.922l-7.0608-7.0644
		c-1.0664,0.242-2.0936,0.672-2.9236,1.502L54.2736,110.2457z"/>
	<path fill="#89714D" d="M189.9804,31.9761c-0.0076-8.5468-3.336-16.578-9.3712-22.6112
		c-12.4724-12.4788-32.7676-12.4884-45.236-0.0176L104.242,40.4781l-2.828-2.8284c-1.5624-1.5624-4.0936-1.5624-5.656,0
		c-1.5628,1.5628-1.5628,4.094,0,5.6564l5.656,5.6564l2.83,2.828l4.9532,4.9532l7.0608,7.0644l21.9256,21.924l2.828,2.828
		l5.6584,5.658c0.7812,0.7812,1.8048,1.172,2.828,1.172c1.0236,0,2.0468-0.3908,2.828-1.172c1.5628-1.5624,1.5628-4.0936,0-5.656
		l-2.83-2.83l31.1308-31.1292C186.666,48.5657,189.9864,40.5289,189.9804,31.9761z M160.8104,34.8177
		c-4.6852,4.6896-12.2832,4.6896-16.9704,0c-4.6856-4.6836-4.6856-12.2832,0-16.9688c4.6872-4.6872,12.2852-4.6872,16.9704,0
		C165.498,22.5345,165.498,30.1341,160.8104,34.8177z"/>
	
		<ellipse transform="matrix(0.7071 -0.7071 0.7071 0.7071 25.9988 115.429)" fill="#A48659" cx="152.3252" cy="26.3333" rx="11.9993" ry="11.9993"/>
	<path fill="#F8A131" d="M16,183.9741c-8.8224,0-16,6.838-16,15.244c0,7.0588,9.5272,19.5784,12.4452,23.2464
		c0.7444,0.9352,1.8672,1.488,3.0608,1.5096c0.0232,0,0.0468,0,0.07,0c1.17,0,2.2816-0.5116,3.0412-1.4024
		C21.758,218.8961,32,206.3489,32,199.2181C32,190.8121,24.8224,183.9741,16,183.9741z"/>
</g>
</svg>
