<?xml version="1.0" encoding="utf-8"?>
<!-- Generator: Adobe Illustrator 19.2.0, SVG Export Plug-In . SVG Version: 6.00 Build 0)  -->
<svg version="1.1" id="fallingstar" xmlns="http://www.w3.org/2000/svg" xmlns:xlink="http://www.w3.org/1999/xlink" x="0px"
	 y="0px" viewBox="0 0 220.6715 215.8174" enable-background="new 0 0 220.6715 215.8174" xml:space="preserve">
<g>
	<path fill="#F8A131" d="M220.4763,49.5674c-0.4723-1.4472-1.7224-2.504-3.2304-2.7228l-42.6052-6.1892L155.5859,2.0478
		c-1.344-2.7304-5.828-2.7304-7.172,0l-19.0548,38.6076l-42.6052,6.1892c-1.508,0.2188-2.7579,1.2756-3.2304,2.7228
		c-0.4688,1.4492-0.0784,3.0372,1.0116,4.1016l17.832,17.3808c14.3828-4.674,29.7108-7.2324,45.6329-7.2324c2.2107,0,4,1.7912,4,4
		s-1.7893,4-4,4c-13.5705,0-26.6837,1.9784-39.1017,5.5976l6.4688,6.3048l-0.2108,1.2188
		c10.3632-3.3144,21.3944-5.1212,32.8437-5.1212c2.2107,0,4,1.7912,4,4s-1.7893,4-4,4c-12.0745,0-23.6565,2.1524-34.3789,6.09
		l-5.5312,32.248c-0.2579,1.5,0.3592,3.0176,1.5896,3.912c1.2384,0.8964,2.8712,1.0116,4.2148,0.3048L152,110.337l38.1055,20.0352
		c0.586,0.3064,1.2265,0.4588,1.8632,0.4588c0.828,0,1.6524-0.2576,2.3516-0.7636c1.2304-0.8944,1.8477-2.412,1.5896-3.912
		l-7.2772-42.4356l30.832-30.0508C220.5547,52.6046,220.9451,51.0166,220.4763,49.5674z"/>
	<path fill="#FFDC82" d="M152,67.8174c0-2.2088-1.7893-4-4-4c-15.9221,0-31.2501,2.5584-45.6329,7.2324
		C43.0271,90.333,0,146.1318,0,211.8174c0,2.2088,1.7891,4,4,4c2.2107,0,4-1.7912,4-4C8,148.1922,50.6795,94.3818,108.8983,77.415
		c12.418-3.6192,25.5312-5.5976,39.1017-5.5976C150.2107,71.8174,152,70.0262,152,67.8174z"/>
	<path fill="#FFDC82" d="M152,83.8174c0-2.2088-1.7893-4-4-4c-11.4493,0-22.4805,1.8068-32.8437,5.1212
		C71.6171,98.8722,40,139.7158,40,187.8174c0,2.2088,1.7891,4,4,4c2.2107,0,4-1.7912,4-4c0-43.0664,27.3631-79.8592,65.6211-93.91
		c10.7224-3.9376,22.3044-6.09,34.3789-6.09C150.2107,87.8174,152,86.0262,152,83.8174z"/>
</g>
</svg>
