<?xml version="1.0" encoding="utf-8"?>
<!-- Generator: Adobe Illustrator 19.2.0, SVG Export Plug-In . SVG Version: 6.00 Build 0)  -->
<svg version="1.1" id="femalescientist" xmlns="http://www.w3.org/2000/svg" xmlns:xlink="http://www.w3.org/1999/xlink" x="0px"
	 y="0px" viewBox="0 0 204 224" enable-background="new 0 0 204 224" xml:space="preserve">
<g>
	<path fill="#F8A131" d="M148.5468,133.7072C149,133.8828,149.4844,134,150,134c7.578,0,14.9512,1.078,21.4572,2.0312
		c5.24,0.7696,9.9764,1.4608,14.0348,1.4608c4.8244,0,8.6936-0.9804,11.3164-3.9764c4.2952-4.9064,2.6488-12.9728,1.0372-18.6132
		c-7.0644-24.7268-23.334-28.3868-29.6524-28.8476C164.7188,105.3828,157.8752,121.578,148.5468,133.7072z"/>
	<path fill="#F8A131" d="M20.0684,135.758c4.0584,0,8.7948-0.6916,14.0352-1.4612c6.5056-0.9532,13.8788-2.0312,21.4568-2.0312
		c0.09,0,0.166-0.0468,0.254-0.0508c-8.8768-12.2264-15.4392-28.4492-19.0584-47.836c-6.6916,0.6524-22.1876,4.8008-29.0412,28.7892
		c-1.6112,5.6404-3.2576,13.7068,1.0372,18.6132C11.3752,134.7772,15.244,135.758,20.0684,135.758z"/>
	<path fill="#FCD1C0" d="M68.834,112.9532l15.8944,1.9492c1.0548,0.1288,2.1096-0.1564,2.9456-0.8088
		c0.8396-0.656,1.3748-1.6172,1.5076-2.6992l1.4572-11.8632c0.1328-1.074-0.1564-2.1328-0.8108-2.9764
		c-0.6504-0.84-1.5956-1.3712-2.658-1.504l-15.9004-1.9532c-0.168-0.0196-0.336-0.0312-0.502-0.0312
		c-0.8868,0-1.7384,0.2928-2.4416,0.84c-0.8396,0.656-1.3748,1.6172-1.5076,2.6992l-1.4572,11.8632
		C65.086,110.7072,66.6112,112.6796,68.834,112.9532z"/>
	<path fill="#FCD1C0" d="M116.326,114.0936c0.834,0.6524,1.8848,0.9376,2.9436,0.8088l15.8984-1.9492
		c2.2208-0.2736,3.746-2.246,3.4708-4.4844l-1.4572-11.8632c-0.1328-1.082-0.668-2.0432-1.5076-2.6992
		c-0.834-0.6484-1.8692-0.9336-2.9436-0.8088l-15.8964,1.9532c-1.0664,0.1328-2.0116,0.664-2.662,1.504
		c-0.6544,0.8436-0.9436,1.9024-0.8108,2.9764l1.4572,11.8632C114.9512,112.4764,115.4864,113.4376,116.326,114.0936z"/>
	<path fill="#FCD1C0" d="M55.8144,132.2148C67.7928,148.7148,83.914,158,102.5508,158c18.2188,0,34.1132-8.8476,45.996-24.2928
		c9.3284-12.1292,16.172-28.3244,19.6464-47.6524c0.4436-2.4728,0.8636-4.9688,1.1956-7.5392
		c0.1364-1.0508,0.1856-2.086,0.2772-3.1248C161.326,78.4256,152.6584,80,143.8712,80c-24.7968,0-50.2932-2.1876-67.4648-26.8672
		c-6.928,9.4804-16.2796,13.0936-25.3692,16.6016c-4.3124,1.668-8.7716,3.3868-13.1584,5.754
		c-0.7536,0.41-1.6036,0.5232-2.4276,0.414c0.1016,0.8984,0.1388,1.8048,0.2736,2.6952c0.2988,1.9728,0.6736,3.8672,1.0312,5.7812
		C40.3752,103.7656,46.9376,119.9884,55.8144,132.2148z M112,140H90c-2.2088,0-4-1.7892-4-4s1.7912-4,4-4h22c2.2088,0,4,1.7892,4,4
		S114.2088,140,112,140z M57.42,107.492l1.4568-11.8632c0.3948-3.2032,2-6.0544,4.5256-8.0272
		c2.5196-1.9648,5.664-2.8476,8.8436-2.4416l15.8964,1.9532c3.1936,0.3908,6.0372,2,8.006,4.5392
		c1.9592,2.5232,2.8224,5.668,2.4316,8.8556L98.3964,102h7.2072l-0.1836-1.492c-0.3908-3.1876,0.4724-6.3324,2.4316-8.8556
		c1.9688-2.5392,4.8124-4.1484,8.0096-4.5392L131.754,85.16c3.1912-0.3984,6.326,0.4768,8.8436,2.4416
		c2.5256,1.9728,4.1308,4.824,4.5256,8.0272l1.4568,11.8632c0.8068,6.5824-3.8748,12.594-10.4376,13.3988L120.244,122.84
		c-0.5,0.0624-0.998,0.0936-1.494,0.0936c-2.6584,0-5.2248-0.8788-7.3476-2.5352c-2.5256-1.9728-4.1308-4.824-4.5256-8.0272
		L106.586,110h-9.172l-0.2908,2.3712c-0.3948,3.2032-2,6.0544-4.5256,8.0272c-2.1228,1.6564-4.6876,2.5352-7.3496,2.5352
		c-0.496,0-0.994-0.0312-1.494-0.0936l-15.8948-1.9492C61.2948,120.086,56.6132,114.0744,57.42,107.492z"/>
	<path fill="#F8A131" d="M37.8788,75.4884c4.3868-2.3672,8.846-4.086,13.1584-5.754c9.0896-3.508,18.4412-7.1212,25.3692-16.6016
		C93.578,77.8124,119.0744,80,143.8712,80c8.7872,0,17.4548-1.5744,25.7948-4.6092c0.2872-0.1056,0.58-0.176,0.8672-0.2852
		c1.5584-0.586,2.588-2.0784,2.588-3.7424V50.5548C173.1212,22.6796,148.662,0,118.5976,0H86.506
		C56.4416,0,31.9804,22.6796,31.9804,50.5548v21.414c0,1.41,0.7404,2.7148,1.9512,3.4336c0.4708,0.2852,0.9904,0.4296,1.5196,0.5
		C36.2752,76.0116,37.1252,75.8984,37.8788,75.4884z"/>
	<path fill="#535353" d="M67.8592,120.8908L83.754,122.84c0.5,0.0624,0.998,0.0936,1.494,0.0936
		c2.662,0,5.2268-0.8788,7.3496-2.5352c2.5256-1.9728,4.1308-4.824,4.5256-8.0272L97.414,110h9.172l0.2908,2.3712
		c0.3948,3.2032,2,6.0544,4.5256,8.0272c2.1228,1.6564,4.6892,2.5352,7.3476,2.5352c0.496,0,0.994-0.0312,1.494-0.0936
		l15.8984-1.9492c6.5628-0.8048,11.2444-6.8164,10.4376-13.3988l-1.4568-11.8632c-0.3948-3.2032-2-6.0544-4.5256-8.0272
		c-2.5176-1.9648-5.6524-2.84-8.8436-2.4416l-15.8928,1.9532c-3.1972,0.3908-6.0408,2-8.0096,4.5392
		c-1.9592,2.5232-2.8224,5.668-2.4316,8.8556l0.1836,1.492h-7.2072l0.1836-1.492c0.3908-3.1876-0.4724-6.3324-2.4316-8.8556
		c-1.9688-2.5392-4.8124-4.1484-8.006-4.5392L72.246,85.16c-3.1796-0.406-6.324,0.4768-8.8436,2.4416
		c-2.5256,1.9728-4.1308,4.824-4.5256,8.0272L57.42,107.492C56.6132,114.0744,61.2948,120.086,67.8592,120.8908z M114.172,96.5548
		c0.6504-0.84,1.5956-1.3712,2.662-1.504l15.8964-1.9532c1.0744-0.1248,2.1096,0.1604,2.9436,0.8088
		c0.8396,0.656,1.3748,1.6172,1.5076,2.6992l1.4572,11.8632c0.2752,2.2384-1.25,4.2108-3.4708,4.4844l-15.8984,1.9492
		c-1.0588,0.1288-2.1096-0.1564-2.9436-0.8088c-0.8396-0.656-1.3748-1.6172-1.5076-2.6992l-1.4572-11.8632
		C113.2284,98.4572,113.5176,97.3984,114.172,96.5548z M66.8184,96.6056c0.1328-1.082,0.668-2.0432,1.5076-2.6992
		c0.7032-0.5472,1.5548-0.84,2.4416-0.84c0.166,0,0.334,0.0116,0.502,0.0312L87.17,95.0508c1.0624,0.1328,2.0076,0.664,2.658,1.504
		c0.6544,0.8436,0.9436,1.9024,0.8108,2.9764l-1.4572,11.8632c-0.1328,1.082-0.668,2.0432-1.5076,2.6992
		c-0.836,0.6524-1.8908,0.9376-2.9456,0.8088l-15.8944-1.9492c-2.2228-0.2736-3.748-2.246-3.4728-4.4844L66.8184,96.6056z"/>
	<path fill="#3BABB7" d="M177.996,144H150c-1.9492,0-3.7772,0.9452-4.9024,2.5392L102,207.5976l-43.0976-61.0584
		C57.7772,144.9452,55.9492,144,54,144H26.004C11.666,144,0,155.66,0,169.996c0,3.3124,2.6856,6,6,6s6-2.6876,6-6
		C12,162.2772,18.2812,156,26.004,156h24.8868l46.2068,65.4608C98.2228,223.0548,100.0508,224,102,224s3.7772-0.9452,4.9024-2.5392
		L153.1092,156h24.8868c7.7228,0,14.004,6.2772,14.004,13.996c0,3.3124,2.6856,6,6,6s6-2.6876,6-6
		C204,155.66,192.334,144,177.996,144z"/>
	<path fill="#535353" d="M112,132H90c-2.2088,0-4,1.7892-4,4s1.7912,4,4,4h22c2.2088,0,4-1.7892,4-4S114.2088,132,112,132z"/>
</g>
</svg>
