<?xml version="1.0" encoding="utf-8"?>
<!-- Generator: Adobe Illustrator 19.2.0, SVG Export Plug-In . SVG Version: 6.00 Build 0)  -->
<svg version="1.1" id="futuristcgun" xmlns="http://www.w3.org/2000/svg" xmlns:xlink="http://www.w3.org/1999/xlink" x="0px"
	 y="0px" viewBox="0 0 224 157.5662" enable-background="new 0 0 224 157.5662" xml:space="preserve">
<g>
	<path fill="none" d="M212,70.4729c2.4568-2.8144,4-6.4492,4-10.4729c0-4.0215-1.5432-7.6583-4-10.4727V70.4729z"/>
	<path fill="#63B473" d="M199.1444,87.6917c3.4728-0.6877,6.5116-2.5237,8.7772-5.0628C217.2696,79.3437,224,70.4553,224,60
		c0-10.4747-6.754-19.3787-16.1292-22.6463C204.9412,34.0917,200.7344,32,196,32h-52.9883h-8H107.996
		c-4.8123,0-9.0704,2.1585-12,5.504C98.4568,40.3145,100,43.9473,100,47.9729v24.0544c0,4.0236-1.5432,7.6524-4.004,10.4612
		C98.9256,85.84,103.1872,88,107.996,88h36.8828c1.918,2.1289,3.1212,4.9141,3.1212,8c0,6.6173-5.3828,12-12,12v8
		c11.0272,0,20-8.9727,20-20c0-1.6055-0.2384-3.1443-0.5976-4.6407l23.9608,56.4492c3.4568,8.1448,12.8476,11.9336,20.9845,8.4808
		l8.9219-3.7893c8.1288-3.4531,11.9296-12.8475,8.4764-20.9843L199.1444,87.6917z M212,70.4729V49.5273
		c2.4568,2.8144,4,6.4512,4,10.4727C216,64.0237,214.4568,67.6585,212,70.4729z M118,48h32v8h-32V48z M118,64h32v8h-32V64z"/>
	<path fill="#9D57C4" d="M23.2656,56C23.7108,57.2581,24,58.5901,24,60c0,1.4101-0.2892,2.7421-0.7344,4H44v-8H23.2656z"/>
	<path fill="#B976DD" d="M68,47.9729c0-4.0216,1.5428-7.6524,4-10.4612C69.0664,34.16,64.8044,32,60,32
		c-8.8203,0-16,7.1525-16,15.9729V56v8v8.0273C44,80.8517,51.16,88,60,88c4.7968,0,9.0584-2.16,11.996-5.5115
		C69.5388,79.6797,68,76.0509,68,72.0273V47.9729z"/>
	<path fill="#9D57C4" d="M100,47.9729c0-4.0256-1.5432-7.6584-4.004-10.4689C93.0624,34.1585,88.8044,32,84,32
		c-4.8008,0-9.0628,2.16-12,5.5117c-2.4572,2.8088-4,6.4396-4,10.4612v24.0544c0,4.0236,1.5388,7.6524,3.996,10.4612
		C74.9296,85.84,79.1912,88,84,88c4.7968,0,9.0584-2.16,11.996-5.5115C98.4568,79.6797,100,76.0509,100,72.0273V47.9729z"/>
	<rect x="118" y="48" fill="#99D59D" width="32" height="8"/>
	<rect x="118" y="64" fill="#99D59D" width="32" height="8"/>
	<path fill="#C1DB66" d="M23.2656,56C21.6092,51.3497,17.2148,48,12,48C5.3708,48,0,53.3733,0,60c0,6.6269,5.3708,12,12,12
		c5.2148,0,9.6092-3.3495,11.2656-8C23.7108,62.7421,24,61.4101,24,60C24,58.5901,23.7108,57.2581,23.2656,56z"/>
	<rect x="135.0117" y="24" fill="#535353" width="8" height="8"/>
	<path fill="#FF427A" d="M194.9804,24c6.66,0,12.0313-5.3731,12.0313-12c0-6.6131-5.3869-12-12.0313-12h-79.9376
		c-6.66,0-12.0311,5.3733-12.0311,12c0,6.6133,5.3867,12,12.0311,12h19.9689h8H194.9804z"/>
</g>
</svg>
