<?xml version="1.0" encoding="utf-8"?>
<!-- Generator: Adobe Illustrator 19.2.0, SVG Export Plug-In . SVG Version: 6.00 Build 0)  -->
<svg version="1.1" id="heatspike" xmlns="http://www.w3.org/2000/svg" xmlns:xlink="http://www.w3.org/1999/xlink" x="0px" y="0px"
	 viewBox="0 0 163.4296 211.996" enable-background="new 0 0 163.4296 211.996" xml:space="preserve">
<g>
	<path fill="none" d="M81.7149,171.996c27.2031,0,49.332-22.1288,49.332-49.332c0-15.8556-9.3049-23.4024-20.0821-32.1408
		c-5.6952-4.6172-11.5819-9.3944-16.0468-15.6288c-6.5548-9.1484-10.6604-17.6248-13.2031-24.2736
		c-2.5429,6.6488-6.6485,15.1252-13.2033,24.2736c-4.4647,6.2344-10.3516,11.008-16.0468,15.6252
		c-10.7772,8.742-20.0819,16.2888-20.0819,32.1444C32.3829,149.8672,54.5116,171.996,81.7149,171.996z M63.3084,93.5976
		c2.6564-2.1524,5.1644-4.1876,6.93-6.6484c6.3904-8.922,7.5036-16.414,7.5116-16.4884c0.2772-1.9764,1.9689-3.4532,3.9649-3.4532
		c0.004,0,0.0115,0,0.0195,0c2,0.008,3.6876,1.4884,3.9452,3.4728c0.008,0.0548,1.1212,7.5468,7.5116,16.4728
		c1.7656,2.4568,4.2736,4.492,6.93,6.6444c5.746,4.664,12.2617,9.9452,12.2617,20.7304c0,16.91-13.7581,30.668-30.668,30.668
		c-16.9101,0-30.668-13.758-30.668-30.668C51.0469,103.5428,57.5624,98.2616,63.3084,93.5976z"/>
	<path fill="#A9C7D8" d="M130.5312,75.8164c-8.1483-6.6096-15.8476-12.8556-21.59-20.8632
		C89.0352,27.164,85.7109,3.7068,85.6796,3.4724C85.414,1.4844,83.7189,0,81.7149,0c0,0-0.004,0-0.008,0
		c-2.0037,0.004-3.6993,1.488-3.9569,3.4804c-0.0311,0.2304-3.258,23.5508-23.2616,51.4728
		c-5.7424,8.0076-13.4415,14.2536-21.59,20.8632C16.7229,88.9336,0,102.496,0,130.2812c0,45.0584,36.6564,81.7148,81.7149,81.7148
		c45.0583,0,81.7147-36.6564,81.7147-81.7148C163.4296,102.496,146.7069,88.9336,130.5312,75.8164z M52.4648,90.5196
		c5.6952-4.6172,11.5821-9.3908,16.0468-15.6252c6.5548-9.1484,10.6604-17.6248,13.2033-24.2736
		c2.5427,6.6488,6.6483,15.1252,13.2031,24.2736c4.4649,6.2344,10.3516,11.0116,16.0468,15.6288
		c10.7772,8.7384,20.0821,16.2852,20.0821,32.1408c0,27.2032-22.1289,49.332-49.332,49.332c-27.2033,0-49.332-22.1288-49.332-49.332
		C32.3829,106.8084,41.6876,99.2616,52.4648,90.5196z M81.7149,201.996c-38.5977,0-70-31.4024-70-70c0-3.3124,2.6875-6,6-6
		c3.3123,0,6,2.6876,6,6c0,31.9804,26.0195,58,58,58c31.9803,0,58-26.0196,58-58c0-3.3124,2.6875-6,6-6c3.3123,0,6,2.6876,6,6
		C151.7149,170.5936,120.3124,201.996,81.7149,201.996z"/>
	<path fill="#4A8F9E" d="M145.7149,125.996c-3.3125,0-6,2.6876-6,6c0,31.9804-26.0197,58-58,58c-31.9805,0-58-26.0196-58-58
		c0-3.3124-2.6877-6-6-6c-3.3125,0-6,2.6876-6,6c0,38.5976,31.4023,70,70,70c38.5975,0,70-31.4024,70-70
		C151.7149,128.6836,149.0272,125.996,145.7149,125.996z"/>
	<path fill="#FE8657" d="M81.7149,144.996c16.9099,0,30.668-13.758,30.668-30.668c0-10.7852-6.5157-16.0664-12.2617-20.7304
		c-2.6564-2.1524-5.1644-4.1876-6.93-6.6444c-6.3904-8.926-7.5036-16.418-7.5116-16.4728
		c-0.2576-1.9844-1.9452-3.4648-3.9452-3.4728c-0.008,0-0.0155,0-0.0195,0c-1.996,0-3.6877,1.4768-3.9649,3.4532
		c-0.008,0.0744-1.1212,7.5664-7.5116,16.4884c-1.7656,2.4608-4.2736,4.496-6.93,6.6484
		c-5.746,4.664-12.2615,9.9452-12.2615,20.7304C51.0469,131.238,64.8048,144.996,81.7149,144.996z"/>
</g>
</svg>
