<?xml version="1.0" encoding="utf-8"?>
<!-- Generator: Adobe Illustrator 19.2.0, SVG Export Plug-In . SVG Version: 6.00 Build 0)  -->
<svg version="1.1" id="heatfirelamp" xmlns="http://www.w3.org/2000/svg" xmlns:xlink="http://www.w3.org/1999/xlink" x="0px"
	 y="0px" viewBox="0 0 200 219.9478" enable-background="new 0 0 200 219.9478" xml:space="preserve">
<g>
	<path fill="#FF6B97" d="M103.7383,70.0063c15.4688,0,28.0508-12.5836,28.0508-28.0505c0-14.4883-22.6056-38.1467-25.1836-40.7971
		c-1.512-1.5469-4.2304-1.5429-5.7344,0c-2.5784,2.6504-25.1796,26.3108-25.1796,40.7971
		C75.6915,57.4227,88.2735,70.0063,103.7383,70.0063z"/>
	<path fill="#FCC24C" d="M144,171.9478h-30v-8h29.5935c-1.8592-9.1171-9.9492-16-19.6172-16H108v-12h0.008
		c15.4335,0,27.992-12.5603,27.992-28v-24c0-2.2087-1.7893-4-4-4H76c-2.2109,0-4,1.7913-4,4v24c0,15.4397,12.5583,28,27.992,28H100
		v12H80.0235c-11.0392,0-20.0235,8.9729-20.0235,20v12h84V171.9478z"/>
	<path fill="#A48659" d="M196,179.9478h-52H60H4c-2.2109,0-4,1.7913-4,4v32c0,2.2089,1.7891,4,4,4h192c2.2107,0,4-1.7911,4-4v-32
		C200,181.7391,198.2107,179.9478,196,179.9478z"/>
	<polygon fill="#A48659" points="114,171.9478 144,171.9478 180,171.9478 180,169.9478 180,163.9478 180,137.6179 172,137.6179 
		172,163.9478 143.5935,163.9478 114,163.9478 	"/>
</g>
</svg>
