<?xml version="1.0" encoding="utf-8"?>
<!-- Generator: Adobe Illustrator 19.2.0, SVG Export Plug-In . SVG Version: 6.00 Build 0)  -->
<svg version="1.1" id="heatflasklab" xmlns="http://www.w3.org/2000/svg" xmlns:xlink="http://www.w3.org/1999/xlink" x="0px"
	 y="0px" viewBox="0 0 100 230" enable-background="new 0 0 100 230" xml:space="preserve">
<g>
	<path fill="#FFDC82" d="M47.3008,151.2109c-2.6484,2.7228-15.8592,16.7776-15.8592,26.0628c0,10.324,8.4,18.7263,18.7264,18.7263
		c10.324,0,18.7244-8.4023,18.7244-18.7263c0-9.2852-13.2088-23.34-15.8572-26.0628C52.2832,150.4377,51.248,150,50.168,150
		C49.088,150,48.0528,150.4377,47.3008,151.2109z"/>
	<rect y="136" fill="#89714D" width="12" height="94"/>
	<rect x="88" y="136" fill="#89714D" width="12" height="94"/>
	<path fill="#50CCD3" d="M68,200H32c-2.2088,0-4,1.7893-4,4v10c0,7.7189,6.2928,14,14.0272,14h15.9456
		C65.7072,228,72,221.7189,72,214v-10C72,201.7893,70.2088,200,68,200z"/>
	<polygon fill="#FE8657" points="68,60 68,16 32,16 32,60 4,116 96,116 	"/>
	<rect x="32" fill="#535353" width="36" height="8"/>
</g>
</svg>
