<?xml version="1.0" encoding="utf-8"?>
<!-- Generator: Adobe Illustrator 19.2.0, SVG Export Plug-In . SVG Version: 6.00 Build 0)  -->
<svg version="1.1" id="heatnucleus" xmlns="http://www.w3.org/2000/svg" xmlns:xlink="http://www.w3.org/1999/xlink" x="0px"
	 y="0px" viewBox="0 0 151.0644 222.4587" enable-background="new 0 0 151.0644 222.4587" xml:space="preserve">
<g>
	<path fill="#F8A131" d="M93.9472,73.658C93.1836,40.5488,70.67,11.4824,38.67,2.6052L29.2792,0l4.8516,8.4507
		c5.832,10.1605,8.916,21.7677,8.916,33.5629c0,18.9648-12.8048,37.5644-23.0936,52.5116c-1.6388,2.3788-3.2012,4.6504-4.4708,6.578
		C5.3536,114.3572,0,130.2027,0,146.9276c0,41.6484,33.8828,75.5311,75.5312,75.5311c20.1776,0,39.1444-7.8575,53.4084-22.1231
		c14.2672-14.2676,22.1248-33.2344,22.1248-53.408C151.0644,112.3004,127.2364,82,93.9472,73.658z M83.4708,205.5488
		c-2.5588,0.5779-5.2092,0.9099-7.9396,0.9099c-0.336,0-0.664-0.0411-0.998-0.0507c-0.338,0.006-0.664,0.0507-1.002,0.0507
		c-32.0332,0-58-25.9667-58-58c0-32.0311,25.9668-58,58-58s58,25.9689,58,58C131.5312,177.0956,110.7576,200.826,83.4708,205.5488z"
		/>
	<path fill="#FE7D71" d="M73.5312,90.4587c-32.0332,0-58,25.9689-58,58c0,32.0333,25.9668,58,58,58
		c0.338,0,0.664-0.0447,1.002-0.0507c-19.3868-0.5352-35.002-16.4356-35.002-35.9493c0-19.8495,16.1504-36,36-36s36,16.1505,36,36
		c0,17.1193-12.0236,31.4589-28.0604,35.0901c27.2868-4.7228,48.0604-28.4532,48.0604-57.0901
		C131.5312,116.4276,105.5644,90.4587,73.5312,90.4587z"/>
	<path fill="#FD5A5A" d="M111.5312,170.4587c0-19.8495-16.1504-36-36-36s-36,16.1505-36,36
		c0,19.5137,15.6152,35.4141,35.002,35.9493c0.334,0.0096,0.662,0.0507,0.998,0.0507c2.7304,0,5.3808-0.332,7.9396-0.9099
		C99.5076,201.9176,111.5312,187.578,111.5312,170.4587z"/>
</g>
</svg>
