<?xml version="1.0" encoding="utf-8"?>
<!-- Generator: Adobe Illustrator 19.2.0, SVG Export Plug-In . SVG Version: 6.00 Build 0)  -->
<svg version="1.1" id="heatflask" xmlns="http://www.w3.org/2000/svg" xmlns:xlink="http://www.w3.org/1999/xlink" x="0px" y="0px"
	 viewBox="0 0 216 168" enable-background="new 0 0 216 168" xml:space="preserve">
<g>
	<path fill="none" d="M176,44h-48v24v4h68V24h-16v16C180,42.2108,178.2107,44,176,44z M184,60c0,4.41-3.5901,8-8,8
		c-4.4101,0-8-3.59-8-8s3.5899-8,8-8C180.4099,52,184,55.59,184,60z"/>
	<path fill="#89714D" d="M124,36H4c-2.2109,0-4,1.7892-4,4v14.2852c0,2.0352,1.5271,3.742,3.5467,3.9728L120,71.5664V40
		C120,37.7892,121.7891,36,124,36z"/>
	<path fill="#C6DFED" d="M128,125.9764C128,144.7384,143.2539,160,162,160c18.7459,0,34-15.2616,34-34.0236V80h-68V125.9764z
		 M172,142c0,5.5156-4.4845,10-10,10c-5.5157,0-10-4.4844-10-10s4.4843-10,10-10C167.5155,132,172,136.4844,172,142z M144,92
		c6.6171,0,12,5.3828,12,12s-5.3829,12-12,12c-6.6173,0-12-5.3828-12-12S137.3827,92,144,92z"/>
	<path fill="#A9C7D8" d="M196,72h-68v-4V44h48c2.2107,0,4-1.7892,4-4V24h-8v12h-48c-2.2109,0-4,1.7892-4,4v31.5664V76v49.9764
		C120,149.1484,138.84,168,162,168s42-18.8516,42-42.0236V76V24h-8V72z M196,125.9764C196,144.7384,180.7459,160,162,160
		c-18.7461,0-34-15.2616-34-34.0236V80h68V125.9764z"/>
	<path fill="#4A8F9E" d="M212,0h-48c-2.2109,0-4,1.7892-4,4v16c0,2.2108,1.7891,4,4,4h8h8h16h8h8c2.2107,0,4-1.7892,4-4V4
		C216,1.7892,214.2107,0,212,0z"/>
	<path fill="#E06C3E" d="M144,116c6.6171,0,12-5.3828,12-12s-5.3829-12-12-12c-6.6173,0-12,5.3828-12,12S137.3827,116,144,116z"/>
	<circle fill="#E06C3E" cx="162" cy="142" r="10"/>
	<path fill="#E06C3E" d="M168,60c0,4.41,3.5899,8,8,8c4.4099,0,8-3.59,8-8s-3.5901-8-8-8C171.5899,52,168,55.59,168,60z"/>
</g>
</svg>
