<?xml version="1.0" encoding="utf-8"?>
<!-- Generator: Adobe Illustrator 19.2.0, SVG Export Plug-In . SVG Version: 6.00 Build 0)  -->
<svg version="1.1" id="heightcone" xmlns="http://www.w3.org/2000/svg" xmlns:xlink="http://www.w3.org/1999/xlink" x="0px" y="0px"
	 viewBox="0 0 200.6288 217.2577" enable-background="new 0 0 200.6288 217.2577" xml:space="preserve">
<g>
	<path fill="none" d="M62,28.3653L15.004,158.0097c11.1911-5.8064,27.7887-9.3808,46.996-9.3808
		c19.2071,0,35.8047,3.5744,46.996,9.3808L62,28.3653z"/>
	<path fill="#50CCD3" d="M121.0507,167.7889L65.7615,15.2657c-0.574-1.582-2.078-2.6368-3.7615-2.6368
		c-1.6837,0-3.1877,1.0548-3.7617,2.6368L2.9491,167.7889C1.0467,170.5469,0,173.5097,0,176.6289
		c0,0.0468,0.0155,0.0916,0.0155,0.1388c0,0.0644,0.0116,0.1228,0.0196,0.1872c0.3632,15.7988,26.8632,27.674,61.9649,27.674
		c35.1015,0,61.6015-11.8752,61.9647-27.674c0.008-0.0644,0.0196-0.1228,0.0196-0.1872c0-0.0472,0.0157-0.092,0.0157-0.1388
		C124,173.5097,122.9531,170.5469,121.0507,167.7889z M15.004,158.0097L62,28.3653l46.996,129.6444
		c-11.1913-5.8064-27.7889-9.3808-46.996-9.3808C42.7927,148.6289,26.1951,152.2033,15.004,158.0097z"/>
	<path fill="#B976DD" d="M168,18.4845v74.1444c0,2.2088,1.7891,4,4,4c2.2107,0,4-1.7912,4-4V18.4845l-4-4L168,18.4845z"/>
	<path fill="#9D57C4" d="M153.6131,32.8709L168,18.4845l4-4l4,4l14.3867,14.3864c1.1716,1.172,2.7068,1.758,4.242,1.758
		c1.5353,0,3.0704-0.586,4.2424-1.758c2.3436-2.3416,2.3436-6.1424,0-8.484L176.2419,1.7577c-2.3436-2.3436-6.1404-2.3436-8.484,0
		l-22.6292,22.6292c-2.3436,2.3416-2.3436,6.1424,0,8.484C147.4727,35.2149,151.2695,35.2149,153.6131,32.8709z"/>
	<path fill="#B976DD" d="M176,198.7733v-74.1444c0-2.2088-1.7893-4-4-4c-2.2109,0-4,1.7912-4,4v74.1444l4,4L176,198.7733z"/>
	<path fill="#9D57C4" d="M190.3867,184.3869L176,198.7733l-4,4l-4-4l-14.3869-14.3864c-2.3436-2.344-6.1404-2.344-8.4844,0
		c-2.3436,2.3416-2.3436,6.1424,0,8.484l22.6292,22.6292c1.1716,1.1716,2.7068,1.7576,4.2421,1.7576
		c1.5351,0,3.0703-0.586,4.2419-1.7576l22.6292-22.6292c2.3436-2.3416,2.3436-6.1424,0-8.484
		C196.5271,182.0429,192.7303,182.0429,190.3867,184.3869z"/>
</g>
</svg>
