<?xml version="1.0" encoding="utf-8"?>
<!-- Generator: Adobe Illustrator 19.2.0, SVG Export Plug-In . SVG Version: 6.00 Build 0)  -->
<svg version="1.1" id="hexagonalstructure" xmlns="http://www.w3.org/2000/svg" xmlns:xlink="http://www.w3.org/1999/xlink" x="0px"
	 y="0px" viewBox="0 0 196 220" enable-background="new 0 0 196 220" xml:space="preserve">
<g>
	<path fill="none" d="M152,66c0-3.2168,0.7108-6.2656,1.9572-9.0236c-6.2288-3.6208-12.8812-7.5468-19.4044-11.4004
		c-6.582-3.8884-12.9612-7.652-18.59-10.916C111.9748,40.3008,105.418,44,98,44c-7.2656,0-13.6992-3.5548-17.7072-9L42.0272,56.9472
		C43.2832,59.7108,44,62.7716,44,66c0,11.4376-8.7736,20.8556-19.9432,21.8944v44.2112C35.2264,133.1444,44,142.5624,44,154
		c0,3.3084-0.754,6.4356-2.0684,9.254c6.5176,3.7696,13.5468,7.8552,20.4356,11.8612c6.2128,3.6112,12.242,7.1192,17.6524,10.248
		C84.006,179.7108,90.5724,176,98,176c7.3144,0,13.7892,3.6016,17.7912,9.1112c6.2928-3.6228,13.2068-7.586,19.984-11.4704
		c6.5176-3.7324,12.8128-7.34,18.252-10.4748C152.7384,160.3712,152,157.2736,152,154c0-11.4356,8.7736-20.8536,19.9416-21.8944
		V87.8944C160.7736,86.8536,152,77.4356,152,66z M98,140c-16.5428,0-30-13.4572-30-30s13.4572-30,30-30s30,13.4572,30,30
		S114.5428,140,98,140z"/>
	<path fill="#9AB040" d="M24.0568,132.1056V87.8944C23.3788,87.9588,22.6952,88,22,88c-2.0624,0-4.0488-0.3048-5.9432-0.838v45.2812
		c0,0.1328,0.0624,0.2444,0.076,0.3752C18.004,132.2988,19.9648,132,22,132C22.6952,132,23.3788,132.0412,24.0568,132.1056z"/>
	<path fill="#9AB040" d="M154.0272,163.166c-5.4392,3.1348-11.7344,6.7424-18.252,10.4748
		c-6.7772,3.8844-13.6912,7.8476-19.984,11.4704c1.5664,2.1564,2.744,4.6036,3.4492,7.248
		c6.4276-3.7068,13.5428-7.7832,20.5116-11.7772c6.7792-3.8828,13.3224-7.6328,18.9024-10.8476
		C156.7324,167.8592,155.164,165.6328,154.0272,163.166z"/>
	<path fill="#9AB040" d="M171.9416,87.8944v44.2112C172.6192,132.0412,173.3048,132,174,132c2.0392,0,4.004,0.3008,5.8788,0.8224
		c0.008-0.1076,0.0628-0.1992,0.0628-0.3088V87.162C178.0488,87.6952,176.0604,88,174,88
		C173.3048,88,172.6192,87.9588,171.9416,87.8944z"/>
	<path fill="#9AB040" d="M42.0272,56.9472L80.2928,35c-1.58-2.1444-2.7752-4.582-3.496-7.2188L37.4416,50.3536
		C39.3516,52.2384,40.9044,54.4728,42.0272,56.9472z"/>
	<path fill="#9AB040" d="M62.3672,175.1152c-6.8888-4.006-13.918-8.0916-20.4356-11.8612c-1.1484,2.4628-2.7284,4.6796-4.66,6.5468
		c6.6932,3.8692,13.9608,8.0936,21.074,12.2304c6.4748,3.7656,12.752,7.414,18.334,10.6428c0.664-2.6604,1.8048-5.1312,3.34-7.3108
		C74.6092,182.2344,68.58,178.7264,62.3672,175.1152z"/>
	<path fill="#9AB040" d="M134.5528,45.576c6.5232,3.8536,13.1756,7.7796,19.4044,11.4004c1.1172-2.4724,2.668-4.7088,4.572-6.5976
		c-6.3692-3.6952-13.2068-7.7304-19.908-11.6892c-6.8556-4.0528-13.508-7.9788-19.3068-11.336
		c-0.67,2.658-1.8124,5.1288-3.3516,7.3064C121.5916,37.924,127.9708,41.6876,134.5528,45.576z"/>
	<path fill="#618287" d="M98,44c7.418,0,13.9748-3.6992,17.9628-9.34c1.5392-2.1776,2.6816-4.6484,3.3516-7.3064
		C119.746,25.6368,120,23.8496,120,22c0-12.1308-9.8692-22-22-22S76,9.8692,76,22c0,2.004,0.2928,3.9356,0.7968,5.7812
		c0.7208,2.6368,1.916,5.0744,3.496,7.2188C84.3008,40.4452,90.7344,44,98,44z"/>
	<path fill="#F8A131" d="M98,80c-16.5428,0-30,13.4572-30,30s13.4572,30,30,30s30-13.4572,30-30S114.5428,80,98,80z"/>
	<path fill="#618287" d="M98,176c-7.4276,0-13.994,3.7108-17.9804,9.3632c-1.5352,2.1796-2.676,4.6504-3.34,7.3108
		C76.252,194.3828,76,196.16,76,198c0,12.1308,9.8692,22,22,22s22-9.8692,22-22c0-1.9532-0.2812-3.838-0.7596-5.6408
		c-0.7052-2.6444-1.8828-5.0916-3.4492-7.248C111.7892,179.6016,105.3144,176,98,176z"/>
	<path fill="#618287" d="M179.8788,132.8224C178.004,132.3008,176.0392,132,174,132c-0.6952,0-1.3808,0.0412-2.0584,0.1056
		C160.7736,133.1464,152,142.5644,152,154c0,3.2736,0.7384,6.3712,2.0272,9.166c1.1368,2.4668,2.7052,4.6932,4.6272,6.5684
		C162.6212,173.6036,168.0332,176,174,176c12.1308,0,22-9.8692,22-22C196,143.9084,189.16,135.4024,179.8788,132.8224z"/>
	<path fill="#618287" d="M153.9572,56.9764C152.7108,59.7344,152,62.7832,152,66c0,11.4356,8.7736,20.8536,19.9416,21.8944
		C172.6192,87.9588,173.3048,88,174,88c2.0604,0,4.0488-0.3048,5.9416-0.838C189.1916,84.5624,196,76.0704,196,66
		c0-12.1308-9.8692-22-22-22c-6.0272,0-11.494,2.4396-15.4708,6.3788C156.6252,52.2676,155.0744,54.504,153.9572,56.9764z"/>
	<path fill="#618287" d="M41.9316,163.254C43.246,160.4356,44,157.3084,44,154c0-11.4376-8.7736-20.8556-19.9432-21.8944
		C23.3788,132.0412,22.6952,132,22,132c-2.0352,0-3.996,0.2988-5.8672,0.8184C6.8456,135.3944,0,143.9024,0,154
		c0,12.1308,9.8692,22,22,22c5.9316,0,11.3124-2.3692,15.2716-6.1992C39.2032,167.9336,40.7832,165.7168,41.9316,163.254z"/>
	<path fill="#618287" d="M24.0568,87.8944C35.2264,86.8556,44,77.4376,44,66c0-3.2284-0.7168-6.2892-1.9728-9.0528
		c-1.1228-2.4744-2.6756-4.7088-4.5856-6.5936C33.4668,46.4296,28.0136,44,22,44C9.8692,44,0,53.8692,0,66
		c0,10.0704,6.8084,18.5584,16.0568,21.162C17.9512,87.6952,19.9376,88,22,88C22.6952,88,23.3788,87.9588,24.0568,87.8944z"/>
</g>
</svg>
