<?xml version="1.0" encoding="utf-8"?>
<!-- Generator: Adobe Illustrator 19.2.0, SVG Export Plug-In . SVG Version: 6.00 Build 0)  -->
<svg version="1.1" id="hourglass" xmlns="http://www.w3.org/2000/svg" xmlns:xlink="http://www.w3.org/1999/xlink" x="0px" y="0px"
	 viewBox="0 0 120 224" enable-background="new 0 0 120 224" xml:space="preserve">
<g>
	<path fill="#50CCD3" d="M120,58V0H0v58c0,24.5645,15.3828,45.5585,37.006,54c6.5292-2.5487,13.6032-4,21.0252-4h3.9376
		c7.42,0,14.496,1.4513,21.0252,4C104.6172,103.5585,120,82.5645,120,58z M20,20h80c2.2088,0,4,1.7913,4,4c0,2.2089-1.7912,4-4,4H20
		c-2.2088,0-4-1.7911-4-4C16,21.7913,17.7912,20,20,20z M20,40h80c2.2088,0,4,1.7913,4,4c0,2.2089-1.7912,4-4,4H20
		c-2.2088,0-4-1.7911-4-4C16,41.7913,17.7912,40,20,40z M84,88H36c-2.2088,0-4-1.7911-4-4c0-2.2087,1.7912-4,4-4h48
		c2.2088,0,4,1.7913,4,4C88,86.2089,86.2088,88,84,88z M100,68H20c-2.2088,0-4-1.7911-4-4c0-2.2087,1.7912-4,4-4h80
		c2.2088,0,4,1.7913,4,4C104,66.2089,102.2088,68,100,68z"/>
	<path fill="#456782" d="M20,28h80c2.2088,0,4-1.7911,4-4c0-2.2087-1.7912-4-4-4H20c-2.2088,0-4,1.7913-4,4
		C16,26.2089,17.7912,28,20,28z"/>
	<path fill="#456782" d="M20,48h80c2.2088,0,4-1.7911,4-4c0-2.2087-1.7912-4-4-4H20c-2.2088,0-4,1.7913-4,4
		C16,46.2089,17.7912,48,20,48z"/>
	<path fill="#456782" d="M100,60H20c-2.2088,0-4,1.7913-4,4c0,2.2089,1.7912,4,4,4h80c2.2088,0,4-1.7911,4-4
		C104,61.7913,102.2088,60,100,60z"/>
	<path fill="#456782" d="M84,80H36c-2.2088,0-4,1.7913-4,4c0,2.2089,1.7912,4,4,4h48c2.2088,0,4-1.7911,4-4
		C88,81.7913,86.2088,80,84,80z"/>
	<path fill="#FF6B97" d="M58.0312,108c-7.422,0-14.496,1.4513-21.0252,4C15.3828,120.4417,0,141.4377,0,166v58h120v-58
		c0-24.5623-15.3828-45.5583-37.006-54c-6.5292-2.5487-13.6052-4-21.0252-4H58.0312z M100,204H20c-2.2088,0-4-1.7911-4-4
		c0-2.2087,1.7912-4,4-4h80c2.2088,0,4,1.7913,4,4C104,202.2089,102.2088,204,100,204z M100,184H20c-2.2088,0-4-1.7911-4-4
		c0-2.2087,1.7912-4,4-4h80c2.2088,0,4,1.7913,4,4C104,182.2089,102.2088,184,100,184z M104,160c0,2.2089-1.7912,4-4,4H20
		c-2.2088,0-4-1.7911-4-4c0-2.2087,1.7912-4,4-4h80C102.2088,156,104,157.7913,104,160z M88,140c0,2.2089-1.7912,4-4,4H36
		c-2.2088,0-4-1.7911-4-4c0-2.2087,1.7912-4,4-4h48C86.2088,136,88,137.7913,88,140z"/>
	<path fill="#FFDC82" d="M100,196H20c-2.2088,0-4,1.7913-4,4c0,2.2089,1.7912,4,4,4h80c2.2088,0,4-1.7911,4-4
		C104,197.7913,102.2088,196,100,196z"/>
	<path fill="#FFDC82" d="M100,176H20c-2.2088,0-4,1.7913-4,4c0,2.2089,1.7912,4,4,4h80c2.2088,0,4-1.7911,4-4
		C104,177.7913,102.2088,176,100,176z"/>
	<path fill="#FFDC82" d="M16,160c0,2.2089,1.7912,4,4,4h80c2.2088,0,4-1.7911,4-4c0-2.2087-1.7912-4-4-4H20
		C17.7912,156,16,157.7913,16,160z"/>
	<path fill="#FFDC82" d="M32,140c0,2.2089,1.7912,4,4,4h48c2.2088,0,4-1.7911,4-4c0-2.2087-1.7912-4-4-4H36
		C33.7912,136,32,137.7913,32,140z"/>
</g>
</svg>
