<?xml version="1.0" encoding="utf-8"?>
<!-- Generator: Adobe Illustrator 19.2.0, SVG Export Plug-In . SVG Version: 6.00 Build 0)  -->
<svg version="1.1" id="labequipment" xmlns="http://www.w3.org/2000/svg" xmlns:xlink="http://www.w3.org/1999/xlink" x="0px"
	 y="0px" viewBox="0 0 192 234" enable-background="new 0 0 192 234" xml:space="preserve">
<g>
	<rect x="40" y="40" fill="none" width="32" height="44"/>
	<rect x="40" y="28" fill="none" width="32" height="4"/>
	<polygon fill="#50CCD3" points="40,28 72,28 72,32 80,32 80,20 32,20 32,32 40,32 	"/>
	<path fill="#50CCD3" d="M72,84H40V40h-8v44.6953V92v63.9729C32,169.2229,42.7656,180,56,180s24-10.7771,24-24.0271V92v-7.3047V40
		h-8V84z M72,155.9729C72,164.8085,64.8224,172,56,172s-16-7.1915-16-16.0271V92.6953h32V155.9729z"/>
	<polygon fill="#4F676D" points="80,32 72,32 40,32 32,32 22,32 22,40 32,40 40,40 72,40 80,40 164,40 164,32 	"/>
	<polygon fill="#E06C3E" points="164,0 164,32 164,40 164,192 192,192 192,0 	"/>
	<rect x="16" y="216" fill="#4F676D" width="12" height="18"/>
	<rect x="168" y="216" fill="#4F676D" width="12" height="18"/>
	<polygon fill="#FE8657" points="0,192 0,216 16,216 28,216 168,216 180,216 192,216 192,200 192,192 164,192 	"/>
	<path fill="#3BABB7" d="M40,155.9729C40,164.8085,47.1776,172,56,172s16-7.1915,16-16.0271V92.6953H40V155.9729z"/>
</g>
</svg>
