<?xml version="1.0" encoding="utf-8"?>
<!-- Generator: Adobe Illustrator 19.2.0, SVG Export Plug-In . SVG Version: 6.00 Build 0)  -->
<svg version="1.1" id="lifesignal" xmlns="http://www.w3.org/2000/svg" xmlns:xlink="http://www.w3.org/1999/xlink" x="0px" y="0px"
	 viewBox="0 0 226.0006 163.9999" enable-background="new 0 0 226.0006 163.9999" xml:space="preserve">
<g>
	<path fill="#FF427A" d="M178.6881,72.3907h-16.254l-15.6132-48.4572c-0.8048-2.504-3.1916-4.1192-5.7812-4.16
		c-2.6328,0.0312-4.9336,1.7732-5.6836,4.2948l-16.2932,54.9708l-14.1524-38.5568c-0.9059-2.4728-3.3592-4.0664-5.9608-3.922
		c-2.6328,0.1428-4.8632,1.9884-5.496,4.5488l-20.586,83.1524L59.2309,5.3163c-0.328-2.8496-2.6248-5.0684-5.4804-5.2968
		c-2.8828-0.2304-5.4804,1.5976-6.2579,4.3572L21.1449,98.1739l-9.3864-32.096c-0.9299-3.1836-4.2659-5.0136-7.4416-4.074
		c-3.1796,0.9296-5.004,4.2616-4.0744,7.4412l15.2621,52.1836c0.7459,2.5608,3.0935,4.3164,5.7575,4.3164c0.012,0,0.0196,0,0.0312,0
		c2.676-0.0136,5.0196-1.8008,5.7464-4.3768l23.746-84.5448l13.9492,121.66c0.332,2.8848,2.6796,5.1172,5.574,5.3048
		c0.1332,0.0076,0.262,0.0116,0.3908,0.0116c2.7384,0,5.1524-1.8672,5.8204-4.5584l23.8748-96.4376l13.6448,37.168
		c0.8944,2.4276,3.0508,4.076,5.824,3.9276c2.586-0.082,4.8284-1.8104,5.5624-4.2912l15.922-53.7284l11.004,34.1504
		c0.8008,2.4784,3.1056,4.1604,5.7108,4.1604h20.8284c-0.5664-2.0392-0.8907-4.176-0.8907-6.3908
		C178.0006,76.0663,178.2545,74.1931,178.6881,72.3907z"/>
	<path fill="#63B473" d="M202.0006,53.9999c-11.3009,0-20.7737,7.8592-23.3125,18.3908c-0.4336,1.8024-0.6875,3.6756-0.6875,5.6092
		c0,2.2148,0.3243,4.3516,0.8907,6.3908c2.8084,10.1364,12.0896,17.6092,23.1093,17.6092c13.2343,0,24-10.7656,24-24
		S215.2349,53.9999,202.0006,53.9999z"/>
</g>
</svg>
