<?xml version="1.0" encoding="utf-8"?>
<!-- Generator: Adobe Illustrator 19.2.0, SVG Export Plug-In . SVG Version: 6.00 Build 0)  -->
<svg version="1.1" id="magnet" xmlns="http://www.w3.org/2000/svg" xmlns:xlink="http://www.w3.org/1999/xlink" x="0px" y="0px"
	 viewBox="0 0 229.7566 233.0293" enable-background="new 0 0 229.7566 233.0293" xml:space="preserve">
<g>
	<path fill="#3BABB7" d="M202.4181,211.2989l2.828-2.828c-0.9552,0.9532-1.9824,1.7852-2.9708,2.6836L202.4181,211.2989z"/>
	<path fill="#3BABB7" d="M207.9317,205.4981c29.9432-32.9256,29.1056-84.0312-2.6992-115.836l-70.6972-70.6972l-31.1112,31.1132
		l67.8708,67.8732c15.6016,15.6016,15.6056,40.9804,0.01,56.578l2.828-2.828L207.9317,205.4981z"/>
	<path fill="#FE8657" d="M174.1329,171.7013l-2.828,2.828c-7.5528,7.5548-17.594,11.7112-28.2776,11.7112h-0.0096
		c-10.6856,0-20.7344-4.1644-28.2932-11.7229l-67.8708-67.8711l-31.1116,31.1132l70.6976,70.6956
		c16.3828,16.3828,37.8984,24.574,59.416,24.574c20.2536,0,40.4528-7.3552,56.4196-21.8748
		c0.9884-0.8984,2.0156-1.7304,2.9708-2.6836l2.828-2.8284l-0.1424-0.1444L174.1329,171.7013z M180.4765,206.3261
		c-8.578,8.5784-19.8456,12.8672-31.1132,12.8672c-11.2656,0-22.5332-4.2888-31.1112-12.8672c-1.5624-1.5624-1.5624-4.0936,0-5.656
		c1.5624-1.5624,4.0936-1.5624,5.656,0c14.0372,14.0392,36.8792,14.0428,50.9124,0c1.5624-1.5624,4.0936-1.5624,5.656,0
		C182.0393,202.2325,182.0393,204.7637,180.4765,206.3261z"/>
	<path fill="#FCC24C" d="M174.8205,200.6701c-14.0332,14.0428-36.8752,14.0392-50.9124,0c-1.5624-1.5624-4.0936-1.5624-5.656,0
		c-1.5624,1.5624-1.5624,4.0936,0,5.656c8.578,8.5784,19.8456,12.8672,31.1112,12.8672c11.2676,0,22.5352-4.2888,31.1132-12.8672
		c1.5628-1.5624,1.5628-4.0936,0-5.656C178.9141,199.1077,176.3829,199.1077,174.8205,200.6701z"/>
	<path fill="#535353" d="M118.3381,14.0801c0.7812,0.7812,1.8044,1.172,2.828,1.172s2.0468-0.3908,2.828-1.172
		c1.5628-1.5625,1.5628-4.0936,0-5.656l-7.252-7.252c-1.5624-1.5628-4.0936-1.5628-5.656,0c-1.5624,1.5624-1.5624,4.0935,0,5.656
		L118.3381,14.0801z"/>
	<path fill="#535353" d="M96.1057,42.7597c0.7812,0.7816,1.8044,1.172,2.828,1.172s2.0468-0.3904,2.828-1.172
		c1.5624-1.5624,1.5624-4.0936,0-5.656l-7.252-7.252c-1.5624-1.5624-4.0936-1.5624-5.656,0c-1.5628,1.5624-1.5628,4.0936,0,5.6564
		L96.1057,42.7597z"/>
	<path fill="#535353" d="M102.1897,20.5605c0.7812,0.7816,1.8044,1.172,2.828,1.172c1.0232,0,2.0468-0.3904,2.828-1.172
		c1.5624-1.5604,1.5624-4.0936,0-5.656l-7.252-7.254c-1.5624-1.5624-4.0936-1.5624-5.656,0c-1.5628,1.5604-1.5628,4.0936,0,5.6564
		L102.1897,20.5605z"/>
	<path fill="#535353" d="M30.6565,101.7616c0.7812,0.7813,1.8044,1.172,2.828,1.172c1.0232,0,2.0468-0.3907,2.828-1.172
		c1.5624-1.5623,1.5624-4.0935,0-5.656l-7.252-7.252c-1.5624-1.5623-4.0936-1.5623-5.656,0c-1.5628,1.5625-1.5628,4.0937,0,5.656
		L30.6565,101.7616z"/>
	<path fill="#535353" d="M6.8281,117.5333c-1.5624-1.5624-4.0936-1.5624-5.656,0c-1.5628,1.5624-1.5628,4.0936,0,5.6563
		l7.252,7.2501c0.7812,0.7812,1.8044,1.1716,2.828,1.1716c1.0232,0,2.0468-0.3904,2.828-1.1716
		c1.5624-1.5628,1.5624-4.0941,0-5.6564L6.8281,117.5333z"/>
	<path fill="#535353" d="M14.5077,108.2405c0.7816,0.7811,1.8048,1.1716,2.8284,1.1716c1.0232,0,2.0468-0.3905,2.828-1.1716
		c1.5624-1.5629,1.5624-4.094,0-5.6564l-7.252-7.252c-1.5624-1.5625-4.0936-1.5625-5.656,0c-1.5628,1.5624-1.5628,4.094,0,5.6564
		L14.5077,108.2405z"/>
</g>
</svg>
