<?xml version="1.0" encoding="utf-8"?>
<!-- Generator: Adobe Illustrator 19.2.0, SVG Export Plug-In . SVG Version: 6.00 Build 0)  -->
<svg version="1.1" id="malescientist" xmlns="http://www.w3.org/2000/svg" xmlns:xlink="http://www.w3.org/1999/xlink" x="0px"
	 y="0px" viewBox="0 0 204 224" enable-background="new 0 0 204 224" xml:space="preserve">
<g>
	<path fill="#FCD1C0" d="M143.8711,80c-24.7968,0-50.2932-2.1876-67.4648-26.8672c-6.93,9.4804-16.2812,13.0936-25.3672,16.6016
		c-4.3128,1.668-8.7736,3.3868-13.1604,5.754c-0.7576,0.41-1.6052,0.5272-2.4256,0.414c0.1016,0.9024,0.1368,1.8008,0.2732,2.6952
		C43.1327,127.5744,68.7383,158,102.5507,158c34.3516,0,60.586-31.1992,66.84-79.4884c0.1328-1.0508,0.1872-2.082,0.2773-3.1208
		C161.328,78.4256,152.66,80,143.8711,80z M57.4219,107.492l1.4568-11.8632c0.8088-6.582,6.8008-11.3084,13.3672-10.4688
		l15.8948,1.9532c3.1953,0.3908,6.0388,2,8.0076,4.5392c1.9572,2.5232,2.8204,5.668,2.4296,8.8556L98.3943,102h7.2112l-0.1836-1.492
		c-0.3908-3.1876,0.4724-6.3324,2.4296-8.8556c1.9688-2.5392,4.8125-4.1484,8.0116-4.5392l15.8908-1.9532
		c6.5272-0.8436,12.5544,3.8868,13.3672,10.4688l1.4568,11.8632c0.8088,6.5824-3.8748,12.594-10.4372,13.3988l-15.8948,1.9492
		c-0.496,0.0624-0.9844,0.0936-1.4688,0.0936c-5.9648,0-11.1484-4.4764-11.8984-10.5624L106.5859,110h-9.172l-0.2928,2.3712
		c-0.746,6.086-5.9336,10.5584-11.8984,10.5584c-0.4844,0-0.9768-0.0272-1.4688-0.0896l-15.8948-1.9492
		C61.2967,120.086,56.6131,114.0744,57.4219,107.492z"/>
	<path fill="#F8A131" d="M33.9295,75.4024c0.4728,0.2852,0.996,0.4296,1.5236,0.5c0.8204,0.1132,1.668-0.004,2.4256-0.414
		c4.3868-2.3672,8.8476-4.086,13.1604-5.754c9.086-3.508,18.4372-7.1212,25.3672-16.6016C93.5779,77.8124,119.0743,80,143.8711,80
		c8.7889,0,17.4569-1.5744,25.7969-4.6092c0.2851-0.1056,0.5819-0.176,0.8671-0.2852c1.5548-0.586,2.586-2.0784,2.586-3.7424
		V50.5548C173.1211,22.6796,148.66,0,118.5975,0H86.504C56.4415,0,31.9803,22.6796,31.9803,50.5548v21.414
		C31.9803,73.3788,32.7227,74.6836,33.9295,75.4024z"/>
	<path fill="#4A8F9E" d="M67.8591,120.8908l15.8948,1.9492c0.492,0.0624,0.9844,0.0896,1.4688,0.0896
		c5.9648,0,11.1524-4.4724,11.8984-10.5584L97.4139,110h9.172l0.2928,2.3712c0.75,6.086,5.9336,10.5624,11.8984,10.5624
		c0.4844,0,0.9728-0.0312,1.4688-0.0936l15.8948-1.9492c6.5624-0.8048,11.246-6.8164,10.4372-13.3988l-1.4568-11.8632
		c-0.8128-6.582-6.84-11.3124-13.3672-10.4688l-15.8908,1.9532c-3.1991,0.3908-6.0428,2-8.0116,4.5392
		c-1.9572,2.5232-2.8204,5.668-2.4296,8.8556l0.1836,1.492h-7.2112l0.1836-1.492c0.3908-3.1876-0.4724-6.3324-2.4296-8.8556
		c-1.9688-2.5392-4.8123-4.1484-8.0076-4.5392L72.2459,85.16c-6.5664-0.8396-12.5584,3.8868-13.3672,10.4688l-1.4568,11.8632
		C56.6131,114.0744,61.2967,120.086,67.8591,120.8908z"/>
	<path fill="#FF427A" d="M177.996,144H150c-1.9493,0-3.7773,0.9452-4.9025,2.5392L102,207.5976l-43.0977-61.0584
		C57.7771,144.9452,55.9491,144,54,144H26.004C11.664,144,0,155.66,0,169.996c0,3.3124,2.6875,6,6,6c3.3123,0,6-2.6876,6-6
		C12,162.2772,18.2811,156,26.004,156h24.8867l46.2068,65.4608C98.2227,223.0548,100.0507,224,102,224
		c1.9491,0,3.7771-0.9452,4.9023-2.5392L153.1091,156h24.8869c7.7227,0,14.004,6.2772,14.004,13.996c0,3.3124,2.6875,6,6,6
		c3.3123,0,6-2.6876,6-6C204,155.66,192.336,144,177.996,144z"/>
</g>
</svg>
