<?xml version="1.0" encoding="utf-8"?>
<!-- Generator: Adobe Illustrator 19.2.0, SVG Export Plug-In . SVG Version: 6.00 Build 0)  -->
<svg version="1.1" id="measuringcup" xmlns="http://www.w3.org/2000/svg" xmlns:xlink="http://www.w3.org/1999/xlink" x="0px"
	 y="0px" viewBox="0 0 158.3177 188" enable-background="new 0 0 158.3177 188" xml:space="preserve">
<g>
	<path fill="#C6DFED" d="M95.3157,14.6212c-2.244-6.6328,0-14.6212,0-14.6212H6.3177C5.0033,0,3.7709,0.6484,3.0249,1.7304
		c-2.418,3.504-5.4844,11.9532,0.2148,18.8244c2.7224,3.2812,7.5252,5.742,12.1696,8.1208c2.348,1.2032,5.7972,2.9728,6.9084,4.0236
		V184c0,2.2108,1.7912,4,4,4h76V29.246C102.3177,24.8712,97.3137,20.5312,95.3157,14.6212z M66.3177,124h-28v-8h28V124z
		 M66.3177,104h-28v-8h28V104z M66.3177,84h-28v-8h28V84z M66.3177,64h-28v-8h28V64z"/>
	<path fill="#A9C7D8" d="M154.3177,0h-59.002c0,0-2.244,7.9884,0,14.6212c1.998,5.91,7.002,10.25,7.002,14.6248V188h52h4v-4V4V0
		H154.3177z"/>
	<rect x="38.3177" y="76" fill="#FD5A5A" width="28" height="8"/>
	<rect x="38.3177" y="56" fill="#FD5A5A" width="28" height="8"/>
	<rect x="38.3177" y="96" fill="#FD5A5A" width="28" height="8"/>
	<rect x="38.3177" y="116" fill="#FD5A5A" width="28" height="8"/>
</g>
</svg>
