<?xml version="1.0" encoding="utf-8"?>
<!-- Generator: Adobe Illustrator 19.2.0, SVG Export Plug-In . SVG Version: 6.00 Build 0)  -->
<svg version="1.1" id="mechanics" xmlns="http://www.w3.org/2000/svg" xmlns:xlink="http://www.w3.org/1999/xlink" x="0px" y="0px"
	 viewBox="0 0 212 216" enable-background="new 0 0 212 216" xml:space="preserve">
<g>
	<path fill="none" d="M44,120c12.2892,0,22.7304,7.9688,26.4904,19.004l40.4392-74.6564c1.3848-3.6212,3.2268-7.0076,5.4688-10.1016
		l0.084-0.1524l0.0236,0.012C124.5156,43.1564,137.422,36,152,36c14.8788,0,28.0332,7.4416,36,18.7812V28H24v100.4416
		C29.086,123.242,36.168,120,44,120z"/>
	<path fill="#A9C7D8" d="M148,123.7968V176h8v-52.2032c-1.3204,0.1212-2.6504,0.2032-4,0.2032S149.3204,123.918,148,123.7968z"/>
	<path fill="#A9C7D8" d="M24,28h-8v120c0-7.6056,3.0584-14.508,8-19.5584V28z"/>
	<path fill="#A9C7D8" d="M196,84v-4c0,1.3516-0.084,2.6796-0.2032,4H196z"/>
	<path fill="#A9C7D8" d="M188,54.7812c5.0236,7.1484,8,15.836,8,25.2188V28h-8V54.7812z"/>
	<path fill="#A9C7D8" d="M116.3984,54.246c0.0352-0.0468,0.0724-0.0936,0.1076-0.1404l-0.0236-0.012L116.3984,54.246z"/>
	<path fill="#A9C7D8" d="M110.9296,64.3476L70.4904,139.004C71.4532,141.832,72,144.8516,72,148c0,2-0.2188,3.9492-0.6212,5.832
		l0.1388,0.0744l36.9064-68.1328C108.174,83.8788,108,81.9608,108,80C108,74.4804,109.0664,69.2188,110.9296,64.3476z"/>
	<path fill="#F8A131" d="M70.4904,139.004C66.7304,127.9688,56.2892,120,44,120c-7.832,0-14.914,3.242-20,8.4416
		c-4.9416,5.0504-8,11.9528-8,19.5584c0,15.4376,12.5604,28,28,28c13.4396,0,24.6876-9.5196,27.3788-22.168
		C71.7812,151.9492,72,150,72,148C72,144.8516,71.4532,141.832,70.4904,139.004z"/>
	<path fill="#9AB040" d="M152,36c-14.578,0-27.4844,7.1564-35.494,18.1056c-0.0352,0.0468-0.0724,0.0936-0.1076,0.1404
		c-2.242,3.094-4.084,6.4804-5.4688,10.1016C109.0664,69.2188,108,74.4804,108,80c0,1.9608,0.174,3.8788,0.424,5.7736
		c2.6696,20.2304,19.1012,36.168,39.576,38.0232c1.3204,0.1212,2.6504,0.2032,4,0.2032s2.6796-0.082,4-0.2032
		c21.0724-1.91,37.8868-18.7264,39.7968-39.7968C195.916,82.6796,196,81.3516,196,80c0-9.3828-2.9764-18.0704-8-25.2188
		C180.0332,43.4416,166.8788,36,152,36z"/>
	<path fill="#FE7D71" d="M200.002,0H11.996C5.3808,0,0,5.3908,0,12.0196v3.9608C0,22.6092,5.3808,28,11.996,28H16h8h164h8h4.002
		C206.6172,28,212,22.6092,212,15.9804v-3.9608C212,5.3908,206.6172,0,200.002,0z"/>
	<polygon fill="#89714D" points="132,176 132,216 172,216 172,176 156,176 148,176 	"/>
</g>
</svg>
