<?xml version="1.0" encoding="utf-8"?>
<!-- Generator: Adobe Illustrator 19.2.0, SVG Export Plug-In . SVG Version: 6.00 Build 0)  -->
<svg version="1.1" id="medicalcrosscircles" xmlns="http://www.w3.org/2000/svg" xmlns:xlink="http://www.w3.org/1999/xlink"
	 x="0px" y="0px" viewBox="0 0 196 220" enable-background="new 0 0 196 220" xml:space="preserve">
<g>
	<path fill="#FCC24C" d="M132,68c-35.2892,0-64,28.7109-64,64c0,35.2893,28.7108,64,64,64s64-28.7107,64-64
		C196,96.7109,167.2892,68,132,68z M172,144h-28v28h-24v-28H92v-24h28V92h24v28h28V144z"/>
	<path fill="#8F89F5" d="M168,56c15.4396,0,28-12.5603,28-28c0-15.4395-12.5604-28-28-28s-28,12.5605-28,28
		C140,43.4397,152.5604,56,168,56z"/>
	<path fill="#FF6B97" d="M84,48c11.0272,0,20-8.9727,20-20c0-11.0271-8.9728-20-20-20s-20,8.9729-20,20C64,39.0273,72.9728,48,84,48
		z"/>
	<path fill="#FF6B97" d="M52,180c-11.0272,0-20,8.9729-20,20c0,11.0273,8.9728,20,20,20s20-8.9727,20-20
		C72,188.9729,63.0272,180,52,180z"/>
	<path fill="#8F89F5" d="M16,100c-8.8224,0-16,7.1777-16,16c0,8.8245,7.1776,16,16,16s16-7.1755,16-16
		C32,107.1777,24.8224,100,16,100z"/>
	<polygon fill="#FD5A5A" points="144,92 120,92 120,120 92,120 92,144 120,144 120,172 144,172 144,144 172,144 172,120 144,120 	
		"/>
</g>
</svg>
