<?xml version="1.0" encoding="utf-8"?>
<!-- Generator: Adobe Illustrator 19.2.0, SVG Export Plug-In . SVG Version: 6.00 Build 0)  -->
<svg version="1.1" id="meteor" xmlns="http://www.w3.org/2000/svg" xmlns:xlink="http://www.w3.org/1999/xlink" x="0px" y="0px"
	 viewBox="0 0 204.1074 204.1094" enable-background="new 0 0 204.1074 204.1094" xml:space="preserve">
<g>
	<path fill="#FE8657" d="M134.1074,190.1074c14.9568,0,29.0196-5.8264,39.5976-16.4044c21.834-21.834,21.834-57.3592,0-79.1932
		c-10.578-10.5784-24.6408-16.4024-39.5976-16.4024c-14.9592,0-29.0216,5.824-39.5976,16.4024
		c-10.5784,10.576-16.4044,24.6384-16.4044,39.5976c0,14.9568,5.826,29.0196,16.4044,39.5956
		C105.0858,184.281,119.1482,190.1074,134.1074,190.1074z M145.4198,122.797c6.2384-6.2384,16.3888-6.2384,22.6268,0
		c3.0236,3.0212,4.6876,7.0388,4.6876,11.3124c0,4.2732-1.664,8.2928-4.6876,11.3144c-3.1188,3.1192-7.2148,4.6776-11.3124,4.6776
		c-4.0976,0-8.1952-1.5584-11.3144-4.6776C139.1814,139.1834,139.1814,129.033,145.4198,122.797z M111.4766,105.8242
		c4.6756-4.6796,12.2888-4.6836,16.9724,0c4.68,4.6776,4.68,12.2928,0,16.9708c-2.3396,2.3376-5.412,3.5076-8.4864,3.5076
		c-3.072,0-6.1444-1.168-8.484-3.5056l-0.002-0.002C106.8006,118.115,106.8006,110.5038,111.4766,105.8242z M100.1658,139.7638
		c4.5312-4.5316,12.4376-4.5316,16.9688,0c4.6796,4.6776,4.6796,12.2928,0,16.9704c-2.2656,2.2656-5.2792,3.5136-8.4844,3.5136
		c-3.2048,0-6.2188-1.248-8.4844-3.5136C95.4862,152.0566,95.4862,144.4414,100.1658,139.7638z"/>
	<path fill="#FE8657" d="M183.6034,84.6114c-1.5624-1.5628-4.0936-1.5628-5.6564,0c-1.5624,1.5624-1.5624,4.0936,0,5.656
		c11.7112,11.7112,18.1604,27.2812,18.1604,43.842c0,16.5604-6.4492,32.1288-18.1604,43.8396
		c-11.7108,11.7112-27.2792,18.1604-43.8396,18.1604c-16.5624,0-32.1308-6.4492-43.842-18.1604
		c-1.5624-1.5624-4.0936-1.5624-5.656,0c-1.5628,1.5628-1.5628,4.094,0,5.6564c13.2204,13.2228,30.7988,20.504,49.498,20.504
		c18.6972,0,36.2752-7.2812,49.496-20.504c13.2228-13.2208,20.504-30.7988,20.504-49.496S196.8262,97.8318,183.6034,84.6114z"/>
	<path fill="#FFDC82" d="M156.7342,150.1014c4.0976,0,8.1936-1.5584,11.3124-4.6776c3.0236-3.0216,4.6876-7.0412,4.6876-11.3144
		c0-4.2736-1.664-8.2912-4.6876-11.3124c-6.238-6.2384-16.3884-6.2384-22.6268,0c-6.2384,6.236-6.2384,16.3864,0,22.6268
		C148.539,148.543,152.6366,150.1014,156.7342,150.1014z"/>
	<path fill="#FFDC82" d="M111.4786,122.797c2.3396,2.3376,5.412,3.5056,8.484,3.5056c3.0744,0,6.1468-1.17,8.4864-3.5076
		c4.68-4.678,4.68-12.2932,0-16.9708c-4.6836-4.6836-12.2968-4.6796-16.9724,0c-4.676,4.6796-4.676,12.2908,0,16.9708
		L111.4786,122.797z"/>
	<path fill="#FFDC82" d="M108.6502,160.2478c3.2052,0,6.2188-1.248,8.4844-3.5136c4.6796-4.6776,4.6796-12.2928,0-16.9704
		c-4.5312-4.5316-12.4376-4.5316-16.9688,0c-4.6796,4.6776-4.6796,12.2928,0,16.9704
		C102.4314,158.9998,105.4454,160.2478,108.6502,160.2478z"/>
	<path fill="#FD5A5A" d="M124.207,67.6386c0.7812,0.7812,1.8048,1.172,2.828,1.172c1.0236,0,2.0468-0.3908,2.828-1.172
		c1.5628-1.5624,1.5628-4.0936,0-5.6564L70.4666,2.5858c-1.5624-1.5624-4.0936-1.5624-5.656,0c-1.5628,1.5624-1.5628,4.094,0,5.6564
		L124.207,67.6386z"/>
	<path fill="#FD5A5A" d="M66.2246,32.283c-1.5624,1.5628-1.5624,4.094,0,5.6564l35.3552,35.3556
		c0.7816,0.7812,1.8048,1.1716,2.8284,1.1716c1.0232,0,2.0468-0.3904,2.828-1.1716c1.5624-1.5628,1.5624-4.094,0-5.6564
		L71.8806,32.283C70.3182,30.7206,67.787,30.7206,66.2246,32.283z"/>
	<path fill="#FD5A5A" d="M78.953,84.6094c0.7812,0.7812,1.8048,1.1716,2.828,1.1716c1.0236,0,2.0472-0.3904,2.8284-1.1716
		c1.5624-1.5624,1.5624-4.094,0-5.6564L6.8282,1.1718c-1.5628-1.5624-4.094-1.5624-5.6564,0s-1.5624,4.0936,0,5.6564L78.953,84.6094
		z"/>
	<path fill="#FD5A5A" d="M35.1114,63.4002c-1.5628,1.5628-1.5628,4.094,0,5.6564l26.8708,26.8692
		c0.7812,0.7812,1.8048,1.172,2.8284,1.172c1.0232,0,2.0468-0.3908,2.828-1.172c1.5624-1.5624,1.5624-4.094,0-5.6564
		L40.7674,63.4002C39.205,61.8378,36.6738,61.8378,35.1114,63.4002z"/>
	<path fill="#FD5A5A" d="M19.5546,51.8398c1.0236,0,2.0468-0.3908,2.828-1.172c1.5628-1.5624,1.5628-4.0936,0-5.656L6.8282,29.457
		c-1.5628-1.5624-4.094-1.5624-5.6564,0c-1.5624,1.5624-1.5624,4.0936,0,5.6564l15.5548,15.5544
		C17.5078,51.449,18.531,51.8398,19.5546,51.8398z"/>
	<path fill="#FD5A5A" d="M11.0702,61.9822c-1.5624-1.5624-4.0936-1.5624-5.6564,0c-1.5624,1.5628-1.5624,4.094,0,5.6564
		l59.3968,59.3964c0.7812,0.7812,1.8044,1.172,2.828,1.172c1.0236,0,2.0468-0.3908,2.828-1.172c1.5624-1.5624,1.5624-4.0936,0-5.656
		L11.0702,61.9822z"/>
</g>
</svg>
