<?xml version="1.0" encoding="utf-8"?>
<!-- Generator: Adobe Illustrator 19.2.0, SVG Export Plug-In . SVG Version: 6.00 Build 0)  -->
<svg version="1.1" id="microscopeview" xmlns="http://www.w3.org/2000/svg" xmlns:xlink="http://www.w3.org/1999/xlink" x="0px"
	 y="0px" viewBox="0 0 220 120" enable-background="new 0 0 220 120" xml:space="preserve">
<g>
	<rect fill="#8F89F5" width="220" height="12"/>
	<polygon fill="#F8A131" points="202,96 186,96 178,96 162,96 154,96 138,96 130,96 114,96 106,96 90,96 82,96 66,96 58,96 42,96 
		34,96 18,96 10,96 0,96 0,108 10,108 10,120 18,120 18,108 34,108 34,120 42,120 42,108 58,108 58,120 66,120 66,108 82,108 
		82,120 90,120 90,108 106,108 106,120 114,120 114,108 130,108 130,120 138,120 138,108 154,108 154,120 162,120 162,108 178,108 
		178,120 186,120 186,108 202,108 202,120 210,120 210,108 220,108 220,96 210,96 	"/>
	<path fill="#E1AD99" d="M42,48c0-8.8244-7.1757-16-16-16c-8.8245,0-16,7.1756-16,16s7.1755,16,16,16C34.8243,64,42,56.8244,42,48z"
		/>
	<path fill="#E1AD99" d="M114,44c-6.6173,0-12,5.3828-12,12s5.3827,12,12,12c6.6171,0,12-5.3828,12-12S120.6171,44,114,44z"/>
	<path fill="#E1AD99" d="M190,80c0,4.41,3.5899,8,8,8c4.4099,0,8-3.59,8-8s-3.5901-8-8-8C193.5899,72,190,75.59,190,80z"/>
	<path fill="#E1AD99" d="M47.6443,69.4376c-1.5116,2.8396-1.824,6.0896-0.8828,9.156c0.9416,3.0508,3.0196,5.5628,5.8516,7.0664
		c1.7892,0.9532,3.7112,1.4024,5.6096,1.4024c4.2968,0,8.4608-2.3124,10.6133-6.3592l7.5195-14.1408
		c3.1052-5.8396,0.8748-13.1172-4.9688-16.2224c-5.832-3.1056-13.1172-0.8752-16.2227,4.9568L47.6443,69.4376z"/>
	<path fill="#E1AD99" d="M152.996,50.6248c0.2851,0,0.5743-0.0116,0.8595-0.0312c3.1992-0.2264,6.1208-1.6796,8.2224-4.0976
		c2.1096-2.4296,3.1484-5.5232,2.9221-8.7188c-0.2265-3.1872-1.6837-6.1016-4.1017-8.2028l-6.0508-5.262
		c-2.418-2.0976-5.492-3.1288-8.7032-2.906c-3.1992,0.2264-6.1172,1.6796-8.2148,4.0976c-2.1132,2.4216-3.1524,5.5156-2.9295,8.7068
		c0.2227,3.1916,1.6795,6.1096,4.1015,8.2148l6.0508,5.262C147.3515,49.5976,150.1091,50.6248,152.996,50.6248z"/>
	<path fill="#E1AD99" d="M60.3555,27.9844c4.91-0.426,19.414-0.0272,21.8516,7.2812C82.7655,36.9416,84.3243,38,86,38
		c0.4179,0,0.8435-0.0664,1.2655-0.2072c2.0936-0.6952,3.2265-2.9608,2.5272-5.0584c-4.9452-14.84-29.1247-12.8088-30.156-12.7188
		c-2.1952,0.1992-3.8164,2.1444-3.6172,4.34C56.2107,26.5584,58.1875,28.2148,60.3555,27.9844z"/>
	<path fill="#E1AD99" d="M196.1211,38.6092c-1.8792-1.1756-4.344-0.6012-5.512,1.2696l-10,16
		c-1.1716,1.8752-0.6011,4.344,1.2696,5.512C182.5391,61.8048,183.2735,62,183.996,62c1.332,0,2.6367-0.664,3.3947-1.8788l10-16
		C198.5623,42.246,197.992,39.7772,196.1211,38.6092z"/>
	<path fill="#E1AD99" d="M122.0623,78.6952c0.34,1.9416,2.0276,3.3048,3.9337,3.3048c0.2303,0,0.4647-0.0196,0.6991-0.0624l34-6
		c2.176-0.3828,3.6292-2.4572,3.2424-4.6328c-0.3828-2.176-2.4572-3.6484-4.6328-3.2424l-34,6
		C123.1287,74.4452,121.6755,76.5196,122.0623,78.6952z"/>
</g>
</svg>
