<?xml version="1.0" encoding="utf-8"?>
<!-- Generator: Adobe Illustrator 19.2.0, SVG Export Plug-In . SVG Version: 6.00 Build 0)  -->
<svg version="1.1" id="microscopestructure" xmlns="http://www.w3.org/2000/svg" xmlns:xlink="http://www.w3.org/1999/xlink"
	 x="0px" y="0px" viewBox="0 0 196.9947 212" enable-background="new 0 0 196.9947 212" xml:space="preserve">
<g>
	<path fill="#FCC24C" d="M182.1563,25.1953c-9.1328-3.3516-16.6523,8.2228-24.6212,20.4767
		c-3.914,6.0157-11.1408,17.1209-14.41,17.1209c-0.0588,0-0.1171-0.0036-0.176-0.0116c-0.09-0.0116-2.2771-0.3868-4.9411-8.5156
		c-6.8949-21.0352-13.016-31.4844-20.4689-34.9337c-6.2892-2.9139-12.344-0.4571-17.2071,1.5273
		c-6.8125,2.7776-8.7305,8.176-10.2737,12.5156c-1.7576,4.9496-3.0272,8.5276-10.6208,10.2228
		c-6.1604,1.3632-9.1484-0.1952-12.9375-2.1836c-5.5781-2.9376-11.9141-6.2576-25.7969,0.7656
		c-3.7656,1.9064-5.8631,4.3712-6.2344,7.332c-0.6484,5.2112,4.1328,9.3712,9.672,14.1876
		c6.1132,5.3204,13.0428,11.3516,12.578,18.1564c-0.3907,5.7148-5.9104,12.0936-16.4024,18.9568
		c-15.0704,9.8632-22.4608,18.4064-23.258,26.8908c-0.82,8.7384,5.5744,14.8984,10.7152,19.8476
		c6.1132,5.8908,7.1092,7.6524,5.6052,9.922c-5.2264,7.8984-6.078,17.1132-2.332,25.2812
		c4.7188,10.2928,15.6952,17.2419,30.1096,19.0739c0.9296,0.1173,1.824,0.176,2.6912,0.176c12.914,0,18.996-12.6251,23.9416-22.8947
		c7.0352-14.5936,10.8984-20.0936,20.906-15.7576c19.9532,8.6443,55.758,22.1172,71.3828,15.246
		c3.6564-1.6132,6.2228-4.3084,7.4301-7.8048c3.7067-10.746-6.0665-17.0116-13.9181-22.0468
		c-8.3516-5.3592-13.7852-9.324-13.1916-15.3748c0.41-4.1916,3.168-5.2344,12.4297-6.6408
		c9.5351-1.4452,23.9455-3.6328,23.9455-22.5705c0-3.6951,0.0508-7.6363,0.1016-11.7107
		C197.2579,62.1877,197.6523,30.8945,182.1563,25.1953z M84,148c-13.2345,0-24-10.7655-24-24c0-13.2343,10.7655-24,24-24
		c13.2343,0,24,10.7657,24,24C108,137.2345,97.2343,148,84,148z M160,100c-6.6173,0-12-5.3827-12-12c0-6.6171,5.3827-12,12-12
		c6.6171,0,12,5.3829,12,12C172,94.6173,166.6171,100,160,100z"/>
	<path fill="#F8A131" d="M40,84c0-11.0271-8.9729-20-20-20C8.9727,64,0,72.9729,0,84c0,11.0273,8.9727,20,20,20
		C31.0271,104,40,95.0273,40,84z M8,84c0-6.6171,5.3827-12,12-12c6.6171,0,12,5.3829,12,12c0,6.6173-5.3829,12-12,12
		C13.3827,96,8,90.6173,8,84z"/>
	<path fill="#F8A131" d="M84,100c-13.2345,0-24,10.7657-24,24c0,13.2345,10.7655,24,24,24c13.2343,0,24-10.7655,24-24
		C108,110.7657,97.2343,100,84,100z M84,140c-8.8245,0-16-7.1755-16-16c0-8.8243,7.1755-16,16-16c8.8243,0,16,7.1757,16,16
		C100,132.8245,92.8243,140,84,140z"/>
	<path fill="#F8A131" d="M152,32c8.8243,0,16-7.1755,16-16c0-8.8243-7.1757-16-16-16c-8.8245,0-16,7.1757-16,16
		C136,24.8245,143.1755,32,152,32z M152,8c4.4099,0,8,3.5901,8,8c0,4.4101-3.5901,8-8,8c-4.4101,0-8-3.5899-8-8
		C144,11.5901,147.5899,8,152,8z"/>
	<path fill="#F8A131" d="M160,76c-6.6173,0-12,5.3829-12,12c0,6.6173,5.3827,12,12,12c6.6171,0,12-5.3827,12-12
		C172,81.3829,166.6171,76,160,76z M160,92c-2.2073,0-4-1.7927-4-4c0-2.2071,1.7927-4,4-4c2.2071,0,4,1.7929,4,4
		C164,90.2073,162.2071,92,160,92z"/>
	<path fill="#F8A131" d="M116,180c-8.8245,0-16,7.1757-16,16c0,8.8245,7.1755,16,16,16c8.8243,0,16-7.1755,16-16
		C132,187.1757,124.8243,180,116,180z M116,204c-4.4101,0-8-3.5899-8-8c0-4.4099,3.5899-8,8-8c4.4099,0,8,3.5901,8,8
		C124,200.4101,120.4099,204,116,204z"/>
	<path fill="#FFDC82" d="M32,84c0-6.6171-5.3829-12-12-12c-6.6173,0-12,5.3829-12,12c0,6.6173,5.3827,12,12,12
		C26.6171,96,32,90.6173,32,84z"/>
	<path fill="#FFDC82" d="M84,108c-8.8245,0-16,7.1757-16,16c0,8.8245,7.1755,16,16,16c8.8243,0,16-7.1755,16-16
		C100,115.1757,92.8243,108,84,108z"/>
	<path fill="#FFDC82" d="M152,24c4.4099,0,8-3.5899,8-8c0-4.4099-3.5901-8-8-8c-4.4101,0-8,3.5901-8,8
		C144,20.4101,147.5899,24,152,24z"/>
	<circle fill="#FFDC82" cx="160" cy="88" r="4"/>
	<path fill="#FFDC82" d="M116,188c-4.4101,0-8,3.5901-8,8c0,4.4101,3.5899,8,8,8c4.4099,0,8-3.5899,8-8
		C124,191.5901,120.4099,188,116,188z"/>
</g>
</svg>
