<?xml version="1.0" encoding="utf-8"?>
<!-- Generator: Adobe Illustrator 19.2.0, SVG Export Plug-In . SVG Version: 6.00 Build 0)  -->
<svg version="1.1" id="microorganism" xmlns="http://www.w3.org/2000/svg" xmlns:xlink="http://www.w3.org/1999/xlink" x="0px"
	 y="0px" viewBox="0 0 239.9619 237.8922" enable-background="new 0 0 239.9619 237.8922" xml:space="preserve">
<g>
	<path fill="#BC9A67" d="M133.5042,78.7785c12.1348,3.0784,24.6856,6.25,36.9376,1.1836
		c10.3048-4.2616,15.664-9.9256,15.9316-16.824c0.3868-9.9688-10.418-18.1408-16.1836-21.0665
		c-1.912-0.9727-3.8808-1.9451-5.8868-2.9179l9.1544-16.4764c1.0744-1.93,0.3772-4.3636-1.5528-5.4377
		c-1.9336-1.0819-4.3672-0.3751-5.4392,1.5545l-9.424,16.9652c-8.748-3.9376-18.1444-7.5704-27.8436-10.2152l8.2596-14.8668
		c1.0744-1.93,0.3772-4.3636-1.5528-5.4377c-1.9352-1.0819-4.3708-0.3791-5.4392,1.5545l-9.34,16.8088
		c-5.9708-1.2344-12.0136-2.0273-18.0564-2.2264L99.901,3.3101c-0.3828-2.176-2.4532-3.6292-4.6312-3.25
		c-2.1756,0.3828-3.6308,2.4568-3.248,4.6328l2.9436,16.7888c-9.6504,0.5899-19.1992,2.8908-28.3284,7.5704l-2.736-15.6016
		c-0.3812-2.1756-2.4532-3.6212-4.6312-3.25c-2.1756,0.3828-3.6308,2.4572-3.248,4.6328l3.26,18.586
		c-3.8808,2.6288-7.668,5.7304-11.3264,9.3908c-0.9528,0.9528-1.7792,1.9804-2.6776,2.9648L32.485,35.0209
		c-1.6896-1.418-4.2152-1.1992-5.6368,0.4884c-1.42,1.6912-1.2032,4.2148,0.4884,5.6364L40.149,51.9153
		c-3.754,4.9572-6.8984,10.2188-9.4492,15.6992L13.731,61.4193c-2.0704-0.75-4.3712,0.3083-5.1288,2.3868
		c-0.758,2.074,0.3104,4.3712,2.3864,5.1288l16.668,6.086c-2.8944,8.1056-4.5528,16.5312-4.9784,25.0312L4.143,99.3881
		c-2.1544-0.0744-4.0584,1.6484-4.1404,3.8515c-0.0784,2.2069,1.6464,4.0625,3.8552,4.1405l18.7852,0.676
		c0.2248,5.4608,0.9572,10.8904,2.2012,16.238l-18.3416,8.1488c-2.0196,0.8984-2.93,3.2616-2.0332,5.2812
		c0.662,1.488,2.1248,2.3748,3.658,2.3748c0.5428,0,1.0936-0.1092,1.6212-0.3436l17.2888-7.6797
		c2.3636,7.0977,5.5744,13.9725,9.8108,20.3865l-17.9708,7.9808c-2.0196,0.8984-2.9296,3.2616-2.0332,5.2812
		c0.662,1.488,2.1252,2.3748,3.6584,2.3748c0.5428,0,1.0936-0.1092,1.6208-0.3436l18.8204-8.3597
		c0.256-0.1131,0.4376-0.3083,0.6564-0.4647c1.9744,2.4572,4.074,4.8476,6.3552,7.1292l1.3616,1.3788
		c2.3436,2.3904,4.822,4.8436,7.3904,7.242L45.055,189.5636c-1.3612,1.7385-1.0544,4.2541,0.6856,5.6137
		c0.7304,0.574,1.5996,0.8512,2.4628,0.8512c1.1876,0,2.3636-0.5272,3.1524-1.5348l11.3476-14.4964
		c8.6664,7.254,17.9396,12.9572,26.3908,12.9572c0.2792,0,0.5588-0.008,0.834-0.0196c4.6584-0.2108,8.7248-2.2892,11.7616-6.004
		c7.01-8.582,0.8048-24.1016-6.3828-42.074c-8.7988-22.004-18.7732-46.9493-5.5116-60.2112
		C103.313,71.1341,117.977,74.8413,133.5042,78.7785z M85.9302,144.2396l4,32c0.2732,2.1913-1.2812,4.1913-3.4728,4.4649
		c-0.168,0.0196-0.336,0.0311-0.502,0.0311c-1.986,0-3.7108-1.4803-3.9628-3.504l-4-32c-0.2732-2.1911,1.2812-4.1911,3.4728-4.4647
		C83.645,140.4973,85.6566,142.0441,85.9302,144.2396z M65.2366,75.9505c3.3732,6.6524,9.4652,22.3164,4.6056,41.754
		c-5.7948,23.1836-5.8808,40.8591-5.8808,41.0351c-0.002,2.2069-1.7928,3.996-4,3.996h-0.002c-2.2088-0.004-3.998-1.7927-3.998-4
		c0-0.7539,0.0704-18.7695,6.1192-42.9687c5.4708-21.8828-5.344-38.6564-5.4532-38.8204c-1.1952-1.8164-0.7284-4.2616,1.0568-5.5
		l26-18c1.8164-1.2616,4.3084-0.8044,5.5664,1.012c1.2576,1.8164,0.8044,4.3084-1.012,5.5664L65.2366,75.9505z"/>
	<path fill="#E1AD99" d="M211.3854,173.0676c0.08-2.2071,1.9432-3.9763,4.1404-3.8515l2.1816,0.078
		c-0.824-8.3552-3.336-16.328-7.4688-23.4568l-3.084,1.3048c-0.5096,0.2148-1.0388,0.3164-1.5584,0.3164
		c-1.5588,0-3.0392-0.9144-3.6856-2.4416c-0.8612-2.0312,0.09-4.3788,2.1232-5.242l1.5684-0.6644
		c-1.8692-2.3829-3.8812-4.6716-6.1368-6.7772c-3.4944-3.2577-7.344-5.9844-11.4104-8.2697l-3.412,3.6525
		c-0.7872,0.844-1.8536,1.2696-2.922,1.2696c-0.9784,0-1.9588-0.3556-2.7304-1.0781c-1.6152-1.508-1.7012-4.0391-0.1912-5.6523
		l1.6836-1.8008c-4.7228-1.8164-9.6876-2.9572-14.7736-3.4728l0.0548,3.3476c0.0352,2.2112-1.7248,4.0312-3.9336,4.0663
		c-0.0236,0-0.0448,0-0.0684,0c-2.1776,0-3.9608-1.7459-3.998-3.9335l-0.0624-3.7968c-0.0508,0.004-0.0996,0-0.1504,0l-1.254,0.0352
		c-11.4648,0.2852-25.3908,1.5196-31.3732,8.5468c-2.242,2.6328-3.1736,5.8828-2.6952,9.3984
		c1.088,8,11.6484,12.0939,23.8732,16.836c14.076,5.4612,30.0312,11.6524,30.4276,23.0196
		c0.41,11.7303-7.2324,16.6524-16.082,22.3516c-7.084,4.5624-14.4084,9.2812-17.6132,17.8436
		c-2.7676,7.3908-2.344,12.9808,1.2576,16.6056c2.6232,2.6444,6.3868,3.504,10.006,3.504c3.414,0,6.6972-0.7656,8.7676-1.5236
		c5.2304-1.914,10.824-4.1796,16.3728-6.8672l-2.3044-1.742c-1.764-1.332-2.1136-3.84-0.7812-5.6017
		c1.326-1.7655,3.8336-2.1211,5.6012-0.7811l5.2952,4c7.0212-4.086,13.5896-9.0629,18.8904-15.1448l-2.1716-1.6404
		c-1.764-1.332-2.1136-3.84-0.7816-5.6017c1.3264-1.7655,3.834-2.1211,5.6016-0.7811l2.18,1.6444
		c4.164-6.5896,6.7656-14.3593,7.156-23.4608l-2.6836-0.0976C213.0318,177.1301,211.307,175.2749,211.3854,173.0676z
		 M193.9418,181.1341c-0.2068,2.0624-1.9452,3.5975-3.9744,3.5975c-0.1328,0-0.2656-0.004-0.3984-0.0195
		c-2.1976-0.2148-3.8028-2.1716-3.588-4.3708c0.4844-4.9688,0.2596-19.0588-6.5176-24.4808
		c-9.6776-7.742-19.4628-13.6364-19.5604-13.6952c-1.8948-1.1368-2.508-3.5937-1.3712-5.488
		c1.1348-1.8988,3.5896-2.508,5.488-1.3712c0.418,0.25,10.346,6.2304,20.4396,14.3044
		C196.0258,158.8645,194.0318,180.2276,193.9418,181.1341z"/>
	<path fill="#BC9A67" d="M161.7622,124.3956c0.0236,0,0.0448,0,0.0684,0c2.2088-0.0351,3.9688-1.8551,3.9336-4.0663l-0.0548-3.3476
		l-0.2832-17.2421c-0.0372-2.2147-1.8848-3.9259-4.0664-3.9335c-2.2088,0.0352-3.9688,1.8552-3.9336,4.0664l0.2756,16.7928
		l0.0624,3.7968C157.8014,122.6497,159.5846,124.3956,161.7622,124.3956z"/>
	<path fill="#BC9A67" d="M178.9906,127.9076c0.7716,0.7225,1.752,1.0781,2.7304,1.0781c1.0684,0,2.1348-0.4256,2.922-1.2696
		l3.412-3.6525l10.6448-11.3903c1.5096-1.6132,1.4236-4.1448-0.1916-5.6524c-1.6152-1.5116-4.1444-1.426-5.6524,0.1912
		l-12.3728,13.2424l-1.6836,1.8008C177.2894,123.8685,177.3754,126.3996,178.9906,127.9076z"/>
	<path fill="#BC9A67" d="M201.9106,145.017c0.6464,1.5272,2.1268,2.4416,3.6856,2.4416c0.5196,0,1.0488-0.1016,1.5584-0.3164
		l3.084-1.3048l15.8772-6.7268c2.0332-0.8632,2.9844-3.2109,2.1228-5.242c-0.8612-2.0352-3.2068-2.9844-5.244-2.1249
		l-17.3924,7.3669l-1.5684,0.6644C202.0006,140.6381,201.0494,142.9857,201.9106,145.017z"/>
	<path fill="#BC9A67" d="M236.1038,169.9545l-18.3964-0.6604l-2.1816-0.078c-2.1972-0.1248-4.0604,1.6444-4.1404,3.8515
		c-0.0784,2.2073,1.6464,4.0625,3.8552,4.1409l2.6836,0.0976l17.8948,0.6404c0.0488,0.004,0.0956,0.004,0.1444,0.004
		c2.1424,0,3.918-1.6992,3.996-3.8556C240.0374,171.8881,238.313,170.0325,236.1038,169.9545z"/>
	<path fill="#BC9A67" d="M202.9866,199.9036c-1.332,1.7617-0.9824,4.2697,0.7816,5.6017l2.1716,1.6404l14.262,10.7696
		c0.7204,0.5468,1.568,0.8088,2.406,0.8088c1.2128,0,2.4104-0.5468,3.1952-1.59c1.3324-1.7616,0.9828-4.2696-0.7812-5.6016
		l-14.2536-10.7656l-2.18-1.6444C206.8206,197.7825,204.313,198.1381,202.9866,199.9036z"/>
	<path fill="#BC9A67" d="M176.153,219.0716c-1.3324,1.7617-0.9828,4.2697,0.7812,5.6017l2.3044,1.742l14.1292,10.668
		c0.7204,0.5468,1.5684,0.8088,2.406,0.8088c1.2128,0,2.4104-0.5472,3.1956-1.59c1.332-1.7616,0.9824-4.2696-0.7816-5.6016
		l-11.1384-8.41l-5.2952-4C179.9866,216.9505,177.479,217.3062,176.153,219.0716z"/>
	<path fill="#A48659" d="M89.2506,54.4585c-1.258-1.8164-3.75-2.2736-5.5664-1.012l-26,18c-1.7852,1.2384-2.252,3.6836-1.0568,5.5
		c0.1092,0.164,10.924,16.9376,5.4532,38.8204c-6.0488,24.1992-6.1192,42.2148-6.1192,42.9687c0,2.2073,1.7892,3.996,3.998,4h0.002
		c2.2072,0,3.998-1.7891,4-3.996c0-0.176,0.086-17.8515,5.8808-41.0351c4.8596-19.4376-1.2324-35.1016-4.6056-41.754l23.002-15.9256
		C90.055,58.7669,90.5082,56.2749,89.2506,54.4585z"/>
	<path fill="#A48659" d="M77.9926,145.2316l4,32c0.252,2.0237,1.9768,3.504,3.9628,3.504c0.166,0,0.334-0.0115,0.502-0.0311
		c2.1916-0.2736,3.746-2.2736,3.4728-4.4649l-4-32c-0.2736-2.1955-2.2852-3.7423-4.4648-3.4727
		C79.2738,141.0405,77.7194,143.0405,77.9926,145.2316z"/>
	<path fill="#FCD1C0" d="M184.4594,149.6105c-10.0936-8.074-20.0216-14.0544-20.4396-14.3044
		c-1.8984-1.1368-4.3532-0.5276-5.488,1.3712c-1.1368,1.8943-0.5236,4.3512,1.3712,5.488
		c0.0976,0.0588,9.8828,5.9532,19.5604,13.6952c6.7772,5.422,7.002,19.512,6.5176,24.4808c-0.2148,2.1992,1.3904,4.156,3.588,4.3708
		c0.1328,0.0155,0.2656,0.0195,0.3984,0.0195c2.0292,0,3.7676-1.5351,3.9744-3.5975
		C194.0318,180.2276,196.0258,158.8645,184.4594,149.6105z"/>
</g>
</svg>
