<?xml version="1.0" encoding="utf-8"?>
<!-- Generator: Adobe Illustrator 19.2.0, SVG Export Plug-In . SVG Version: 6.00 Build 0)  -->
<svg version="1.1" id="microscope" xmlns="http://www.w3.org/2000/svg" xmlns:xlink="http://www.w3.org/1999/xlink" x="0px" y="0px"
	 viewBox="0 0 206 210.4948" enable-background="new 0 0 206 210.4948" xml:space="preserve">
<g>
	<path fill="#89714D" d="M180,182.4948h-25.8868c-12.6776,6.3828-26.9764,10-42.1132,10c-2.2676,0-4.2168-1.2736-5.2384-3.1268
		c-0.7188,0.6912-1.6856,1.1268-2.7616,1.1268H20c-2.2088,0-4-1.7912-4-4v-4H4c-2.2088,0-4,1.7912-4,4v20c0,2.2088,1.7912,4,4,4h176
		c2.2088,0,4-1.7912,4-4v-20C184,184.286,182.2088,182.4948,180,182.4948z"/>
	<path fill="#A9C7D8" d="M108,186.4948c0,1.1328-0.4804,2.1444-1.2384,2.8732c1.0216,1.8532,2.9708,3.1268,5.2384,3.1268
		c15.1368,0,29.4356-3.6172,42.1132-10C184.8516,167.022,206,135.19,206,98.4948c0-51.832-42.168-94-94-94
		c-1.8712,0-3.5216,0.8748-4.6212,2.2148L126.75,17.8952C164.9396,24.8696,194,58.3228,194,98.4948c0,45.2148-36.7852,82-82,82
		c-1.5428,0-2.9376,0.5996-4,1.5568V186.4948z"/>
	<path fill="#49A25A" d="M96.6796,0.534c-0.918-0.5276-2.0076-0.672-3.0352-0.3984c-1.0252,0.2732-1.8984,0.9452-2.4296,1.8632
		l-56,96.994c-1.1036,1.914-0.4492,4.3596,1.4648,5.4648l34.6408,20c0.6132,0.3536,1.3048,0.5352,2,0.5352
		c0.3476,0,0.6952-0.0448,1.0352-0.1368c1.0252-0.2732,1.8984-0.9452,2.4296-1.8632l56-96.994
		c1.1036-1.914,0.4492-4.3596-1.4648-5.4648l-4.5704-2.6388L107.3788,6.7096L96.6796,0.534z"/>
	
		<rect x="43.9995" y="104.6057" transform="matrix(0.4472 -0.8944 0.8944 0.4472 -86.6067 112.8576)" fill="#49A25A" width="8.001" height="43.7781"/>
	<path fill="#A48659" d="M20,190.4948h84c1.076,0,2.0428-0.4356,2.7616-1.1268c0.758-0.7288,1.2384-1.7404,1.2384-2.8732v-4.4432
		v-11.5568c0-2.2088-1.7912-4-4-4H20c-2.2088,0-4,1.7912-4,4v12v4C16,188.7036,17.7912,190.4948,20,190.4948z"/>
	<path fill="#A48659" d="M188,94.4948c0-8.8224-7.1776-16-16-16c-8.8224,0-16,7.1776-16,16s7.1776,16,16,16
		C180.8224,110.4948,188,103.3172,188,94.4948z"/>
</g>
</svg>
