<?xml version="1.0" encoding="utf-8"?>
<!-- Generator: Adobe Illustrator 19.2.0, SVG Export Plug-In . SVG Version: 6.00 Build 0)  -->
<svg version="1.1" id="microscopebacteria" xmlns="http://www.w3.org/2000/svg" xmlns:xlink="http://www.w3.org/1999/xlink" x="0px"
	 y="0px" viewBox="0 0 220.0844 215.4977" enable-background="new 0 0 220.0844 215.4977" xml:space="preserve">
<g>
	<path fill="#E06C3E" d="M77.2203,57.4193c1.1052,1.914,0.4492,4.3596-1.4648,5.4648l-2.7304,1.5784
		c2.8436,3.2656,6.5856,5.6248,10.8708,6.7696c1.8984,0.5116,3.8284,0.7616,5.7424,0.7616c3.8124,0,7.574-0.996,10.9648-2.9532
		l48.4764-27.992c5.086-2.9336,8.7268-7.676,10.25-13.3556c1.5276-5.6836,0.75-11.6172-2.1875-16.7032
		c-6.0665-10.504-19.5625-14.1092-30.0625-8.0468L78.6031,30.9313c-5.086,2.9372-8.7268,7.6796-10.25,13.3552
		c-1.1951,4.4492-0.9296,9.0392,0.6289,13.2696l2.7735-1.6016C73.6615,54.8529,76.1147,55.5013,77.2203,57.4193z"/>
	<path fill="#9AB040" d="M14.1107,92.8297l14.0508-8.1136l14.9688,11.6836c0.7188,0.5628,1.59,0.848,2.4612,0.848
		c0.7692,0,1.5428-0.2228,2.2148-0.668c1.4336-0.9572,2.0976-2.7228,1.6444-4.3828L41.314,62.3217l13.0351,10.0588
		c1.2892,0.9844,3.0392,1.1052,4.4452,0.2968l14.2308-8.2148l2.7304-1.5784c1.914-1.1052,2.57-3.5508,1.4648-5.4648
		c-1.1056-1.918-3.5588-2.5664-5.4648-1.4648l-2.7735,1.6016l-11.8673,6.8516L36.7711,48.7085
		c-1.3632-1.0508-3.246-1.1172-4.672-0.1564c-1.4256,0.9572-2.086,2.7188-1.6328,4.3752l8.1056,29.7656l-7.6136-5.9416
		c-1.2812-1.0076-3.0504-1.1288-4.4608-0.3124l-16.3868,9.4608c-1.914,1.1056-2.57,3.5508-1.4647,5.4652
		C9.7515,93.2825,12.2007,93.9273,14.1107,92.8297z"/>
	<path fill="#E06C3E" d="M195.49,126.134c-0.1173,0-0.2345-0.0035-0.3517-0.0155c-2.2032-0.1912-3.8283-2.1328-3.6368-4.332
		l0.2696-3.086c-7.3712,1.2424-13.3792,7.2775-14.0628,15.0784l-3.496,39.9608c-0.3943,4.4924,0.9884,8.8632,3.8868,12.3088
		c2.8984,3.4372,6.9648,5.5468,11.4532,5.9372c0.504,0.0432,1.0076,0.0664,1.504,0.0664c3.9492,0,7.738-1.3708,10.8044-3.9372
		c3.4573-2.8908,5.5784-6.9532,5.9688-11.4376l3.496-39.9612c0.6996-7.9336-4.2928-15.0584-11.574-17.4412l-0.2812,3.2071
		C199.2867,124.5641,197.5407,126.134,195.49,126.134z"/>
	<path fill="#9AB040" d="M217.4351,98.3609l-17.5392-6.3008l3.3284-1.0196c1.5584-0.4764,2.6716-1.8516,2.8124-3.4764
		l1.1796-13.4844c0.1916-2.1992-1.4336-4.1408-3.6368-4.332c-2.168-0.2152-4.1368,1.4372-4.332,3.6364l-0.9452,10.7972l-12.25,3.75
		c-1.6444,0.5036-2.7852,2.0076-2.828,3.7264c-0.0392,1.7228,1.0272,3.2812,2.6484,3.8632l17.6484,6.34l-8.004,2.504
		c-1.5508,0.4804-2.6524,1.8512-2.7928,3.4684l-0.9532,10.8672l-0.2696,3.086c-0.1915,2.1992,1.4336,4.1408,3.6368,4.332
		c0.1172,0.012,0.2344,0.0155,0.3517,0.0155c2.0507,0,3.7967-1.5699,3.9803-3.652l0.2812-3.2071l0.7068-8.0744l16.8168-5.2576
		c1.6404-0.5116,2.7732-2.0156,2.8084-3.7304C220.1187,100.4937,219.0523,98.9429,217.4351,98.3609z"/>
	<path fill="#E06C3E" d="M121.978,127.0873c1.168-1.8712,3.6327-2.4453,5.512-1.2696l2.6051,1.6292
		c0.6524-2.332,0.7812-4.7812,0.2269-7.2072c-0.8753-3.828-3.1877-7.078-6.508-9.1484L94.4311,92.7321
		c-3.3204-2.0784-7.254-2.7308-11.078-1.844c-3.8164,0.8868-7.0588,3.2072-9.1328,6.5312c-2.0783,3.3164-2.7423,7.25-1.8672,11.0704
		c0.8748,3.8243,3.1876,7.078,6.5076,9.1523l29.3868,18.3633c2.4025,1.5,5.082,2.2148,7.7305,2.2148
		c3.6563,0,7.2539-1.3672,10.004-3.9141l-2.7345-1.7071C121.3763,131.4313,120.8063,128.9625,121.978,127.0873z"/>
	<path fill="#9AB040" d="M161.2123,150.314l-7.496-4.6875l1.6916-10.1056c0.2812-1.6876-0.5432-3.3712-2.0472-4.1836
		c-1.5116-0.8084-3.3672-0.5704-4.6208,0.594l-10.1604,9.4372l0.84-5.2108c0.2576-1.59-0.4648-3.1757-1.828-4.0272l-7.4964-4.6836
		l-2.6051-1.6292c-1.8793-1.1757-4.344-0.6016-5.512,1.2696c-1.1717,1.8752-0.6017,4.344,1.2695,5.5116l2.7345,1.7071l5.1171,3.1993
		l-2.2696,14.0744c-0.2732,1.6872,0.5588,3.3592,2.0624,4.164c1.504,0.8008,3.3596,0.5623,4.6096-0.5977l10.078-9.3595
		l-0.1952,1.1564c-0.2656,1.5936,0.4532,3.1951,1.824,4.0508l9.762,6.1016c0.66,0.414,1.3944,0.6092,2.1172,0.6092
		c1.332,0,2.6368-0.664,3.3945-1.8788C163.654,153.9505,163.0835,151.482,161.2123,150.314z"/>
	<path fill="#E06C3E" d="M85.5991,155.0913c-3.7696-1.0744-7.7344-0.6408-11.16,1.2576L44.1383,173.146
		c-5.8984,3.2657-8.59,10.0353-7.0664,16.3045l2.7696-1.5348c1.9256-1.0668,4.3668-0.3752,5.4372,1.5623
		c1.0704,1.9297,0.3713,4.3673-1.5624,5.4377l-2.6912,1.492c1.7224,1.6952,3.8044,3,6.1912,3.6912
		c1.3516,0.3868,2.7264,0.5824,4.0937,0.5824c2.4491,0,4.8711-0.6212,7.0663-1.84l30.3048-16.8008
		c7.0664-3.918,9.6252-12.8712,5.6992-19.9492C92.482,158.6657,89.3607,156.1813,85.5991,155.0913z"/>
	<path fill="#9AB040" d="M45.2787,189.478c-1.0704-1.9375-3.5116-2.6291-5.4372-1.5623l-2.7696,1.5348l-5.3284,2.9532
		l-11.2148-8.8048c-1.3436-1.0624-3.2067-1.1444-4.6404-0.2148c-1.4336,0.9259-2.1212,2.6604-1.7112,4.3204l3.3009,13.3476
		l-0.9141-0.7264c-1.2696-1.0117-3.0156-1.16-4.4296-0.3712l-10.0704,5.578c-1.9336,1.0704-2.6328,3.504-1.5624,5.4375
		c1.0704,1.9377,3.5076,2.6289,5.4376,1.5625l7.7344-4.2848l8.0156,6.3788c0.7264,0.578,1.6092,0.8712,2.492,0.8712
		c0.75,0,1.5-0.2112,2.1604-0.6328c1.4412-0.926,2.1328-2.6644,1.7224-4.3284l-3.328-13.4648l4.156,3.2616
		c1.2621,0.9964,3,1.1367,4.4064,0.3556l7.7268-4.2812l2.6912-1.492C45.65,193.8453,46.3491,191.4077,45.2787,189.478z"/>
</g>
</svg>
