<?xml version="1.0" encoding="utf-8"?>
<!-- Generator: Adobe Illustrator 19.2.0, SVG Export Plug-In . SVG Version: 6.00 Build 0)  -->
<svg version="1.1" id="moonrevolution" xmlns="http://www.w3.org/2000/svg" xmlns:xlink="http://www.w3.org/1999/xlink" x="0px"
	 y="0px" viewBox="0 0 211.0268 212" enable-background="new 0 0 211.0268 212" xml:space="preserve">
<g>
	<path fill="#3BABB7" d="M139.0268,68c-39.6993,0-72,32.2988-72,72s32.3007,72,72,72c39.6991,0,72-32.2988,72-72
		S178.726,68,139.0268,68z M133.8315,166.8516c-3.7892,3.3868-13.2304,4.5196-24.1524,4.5196
		c-12.176,0-26.1916-1.4064-36.2772-2.664l1.484-11.9064c16.672,2.074,36.1212,3.1524,45.75,2.1856
		c-1.1208-0.5256-2.5232-1.1116-4.2656-1.75c-8.996-3.2892-19.1992-9.844-20.8515-18.3788
		c-0.8829-4.5628,0.7539-8.9844,4.6015-12.4512c1.9025-1.7148,3.008-3.2696,3.0236-4.264c0.0196-0.8728-0.7384-2.666-4.422-6.238
		c-5.9688-5.7872-14.5428-10.6232-14.6288-10.67l5.8672-10.4688c0.4065,0.2284,10.0352,5.66,17.1132,12.5216
		c4.0548,3.9316,8.1836,8.7968,8.0704,15.074c-0.082,4.5588-2.3712,8.7988-6.992,12.9612c-0.348,0.3144-0.922,0.8924-0.8516,1.2536
		c0.3985,2.0608,5.2068,6.4708,13.1872,9.3908c7.508,2.742,16.1328,6.8732,16.2308,14.5196
		C136.7455,162.9044,135.722,165.162,133.8315,166.8516z M183.8743,191.2304c-0.8592-0.578-8.4764-5.91-10.8124-14.8788
		c-0.6991-2.6796-0.8596-5.2736-1.0156-7.7812c-0.3164-5.1252-0.59-9.5508-5.1212-15.2676
		c-2.6248-3.3124-5.7772-5.1464-9.1172-7.088c-5.4568-3.1736-12.246-7.1232-12.3436-17.4784
		c-0.0156-1.5684-0.0784-2.8984-0.1328-4.0448c-0.5432-11.6172,3.1524-13.2912,16.8984-19.516
		c12.5976-5.7048,14.496-16.8456,14.5704-17.3164l11.8748,1.7032c-0.1016,0.7324-2.7032,18.0372-21.496,26.5452
		c-4.082,1.8496-8.6796,3.9316-9.922,4.9668c-0.0508,0.6364,0.0116,1.9608,0.0624,3.0544c0.0588,1.2736,0.1292,2.752,0.1448,4.4944
		c0.0312,3.246,1.074,4.1328,6.3788,7.2168c3.7656,2.1912,8.4532,4.918,12.4884,10.0096c6.8673,8.668,7.3436,16.3612,7.6913,21.9784
		c0.1327,2.1152,0.2459,3.9416,0.6483,5.4964c1.2188,4.666,5.8828,7.9336,5.93,7.9668L183.8743,191.2304z"/>
	<path fill="#FF427A" d="M98.9408,15.9396c0.4376,0,0.8828-0.0744,1.3204-0.2268c2.4377-0.8516,4.9064-1.6348,7.4024-2.3496
		c2.1248-0.6092,3.3516-2.824,2.742-4.9472c-0.6052-2.1268-2.832-3.3476-4.9452-2.744c-2.6444,0.7576-5.2615,1.5876-7.84,2.49
		c-2.0855,0.7288-3.1836,3.01-2.4568,5.096C95.7415,14.9064,97.2883,15.9396,98.9408,15.9396z"/>
	<path fill="#FF427A" d="M19.1399,80.8848c-2.004-0.9748-4.3788-0.1388-5.3516,1.8436c-1.1952,2.4572-2.324,4.9532-3.3828,7.4824
		c-0.8516,2.0392,0.1096,4.3828,2.1484,5.2344c0.504,0.2112,1.0276,0.3108,1.5432,0.3108c1.5624,0,3.0508-0.926,3.6912-2.4592
		c0.9964-2.3884,2.0628-4.744,3.1956-7.0644C21.9487,84.246,21.1243,81.8516,19.1399,80.8848z"/>
	<path fill="#FF427A" d="M5.8235,118.4532c-2.164-0.3692-4.25,1.082-4.6247,3.2576c-0.4649,2.6896-0.8597,5.4044-1.172,8.1408
		c-0.2541,2.1952,1.3243,4.1776,3.5155,4.4296c0.1565,0.0176,0.3088,0.0256,0.4608,0.0256c2.008,0,3.7384-1.504,3.9688-3.5452
		c0.2968-2.584,0.668-5.1464,1.1096-7.6836C9.4603,120.9004,7.9995,118.83,5.8235,118.4532z"/>
	<path fill="#FF427A" d="M138.0349,8.2188c0.0739,0,0.1483-0.002,0.2223-0.006C140.8315,8.0724,143.4251,8,146.0349,8
		c2.2107,0,4-1.7912,4-4s-1.7893-4-4-4c-2.7581,0-5.4925,0.076-8.2153,0.2248c-2.2028,0.1208-3.8944,2.0056-3.7732,4.2128
		C134.1595,6.5684,135.9251,8.2188,138.0349,8.2188z"/>
	<path fill="#7BE5E4" d="M184.6711,173.3244c-0.4024-1.5548-0.5156-3.3812-0.6483-5.4964
		c-0.3477-5.6172-0.824-13.3104-7.6913-21.9784c-4.0352-5.0916-8.7228-7.8184-12.4884-10.0096
		c-5.3048-3.084-6.3476-3.9708-6.3788-7.2168c-0.0156-1.7424-0.086-3.2208-0.1448-4.4944c-0.0508-1.0936-0.1132-2.418-0.0624-3.0544
		c1.2424-1.0352,5.84-3.1172,9.922-4.9668c18.7928-8.508,21.3944-25.8128,21.496-26.5452l-11.8748-1.7032
		c-0.0744,0.4708-1.9728,11.6116-14.5704,17.3164c-13.746,6.2248-17.4416,7.8988-16.8984,19.516
		c0.0544,1.1464,0.1172,2.4764,0.1328,4.0448c0.0976,10.3552,6.8868,14.3048,12.3436,17.4784
		c3.34,1.9416,6.4924,3.7756,9.1172,7.088c4.5312,5.7168,4.8048,10.1424,5.1212,15.2676c0.156,2.5076,0.3165,5.1016,1.0156,7.7812
		c2.336,8.9688,9.9532,14.3008,10.8124,14.8788l6.7268-9.9392C190.5539,181.258,185.89,177.9904,184.6711,173.3244z"/>
	<path fill="#A9C7D8" d="M95.0268,46c0-20.9532-17.0469-38-38-38c-20.9533,0-38,17.0468-38,38s17.0467,38,38,38
		C77.9799,84,95.0268,66.9532,95.0268,46z"/>
	<path fill="#7BE5E4" d="M120.4875,145.9668c-7.9804-2.92-12.7887-7.33-13.1872-9.3908c-0.0704-0.3612,0.5036-0.9392,0.8516-1.2536
		c4.6208-4.1624,6.91-8.4024,6.992-12.9612c0.1132-6.2772-4.0156-11.1424-8.0704-15.074
		c-7.078-6.8616-16.7067-12.2932-17.1132-12.5216l-5.8672,10.4688c0.086,0.0468,8.66,4.8828,14.6288,10.67
		c3.6836,3.572,4.4416,5.3652,4.422,6.238c-0.0156,0.9944-1.1211,2.5492-3.0236,4.264c-3.8476,3.4668-5.4844,7.8884-4.6015,12.4512
		c1.6523,8.5348,11.8555,15.0896,20.8515,18.3788c1.7424,0.6384,3.1448,1.2244,4.2656,1.75
		c-9.6288,0.9668-29.078-0.1116-45.75-2.1856l-1.484,11.9064c10.0856,1.2576,24.1012,2.664,36.2772,2.664
		c10.922,0,20.3632-1.1328,24.1524-4.5196c1.8904-1.6896,2.914-3.9472,2.8868-6.3652
		C136.6203,152.84,127.9955,148.7088,120.4875,145.9668z"/>
</g>
</svg>
