<?xml version="1.0" encoding="utf-8"?>
<!-- Generator: Adobe Illustrator 19.2.0, SVG Export Plug-In . SVG Version: 6.00 Build 0)  -->
<svg version="1.1" id="moonclouds" xmlns="http://www.w3.org/2000/svg" xmlns:xlink="http://www.w3.org/1999/xlink" x="0px" y="0px"
	 viewBox="0 0 232 196" enable-background="new 0 0 232 196" xml:space="preserve">
<g>
	<path fill="#4F676D" d="M110.4531,148.3985h70.918c0.2696,0,0.5232,0.0548,0.7889,0.0664C198.0547,133.1757,208,111.7421,208,88
		c0-6.9023-0.9297-13.5779-2.508-20H102.0155C89.8751,68,80,58.1289,80,46c0-0.672,0.0311-1.336,0.0899-2H58.0155
		c-1.746,0-3.4336-0.2263-5.0624-0.6091C44.7967,56.336,40,71.6017,40,88c0,0.6485,0.0819,1.2737,0.0975,1.9181
		C42.4375,88.7345,45.0427,88,47.8435,88h70.922C128.2695,88,136,95.7149,136,105.1993s-7.7305,17.1992-17.2345,17.1992h-13.3788
		c0.004,0.1328,0.004,0.2695,0.004,0.4024c0,9.4844-7.7307,17.1991-17.2344,17.1991h-30
		c9.1364,11.5393,21.2148,20.6093,35.1132,26.0977c-0.004-0.168-0.0508-0.328-0.0508-0.496
		C93.2187,156.1173,100.9491,148.3985,110.4531,148.3985z"/>
	<path fill="#7BE5E4" d="M80.0899,44C80.0311,44.664,80,45.328,80,46c0,12.1289,9.8751,22,22.0155,22H205.492h0.4923
		C218.1251,68,228,58.1289,228,46c0-12.1287-9.8749-22-22.0157-22h-22.0744C183.9687,23.34,184,22.672,184,22
		c0-12.1287-9.8749-22-22.0157-22H58.0155C45.8751,0,36,9.8713,36,22c0,10.3869,7.2499,19.0937,16.9531,21.3909
		C54.5819,43.7737,56.2695,44,58.0155,44H80.0899z M56,8h76c2.2107,0,4,1.7893,4,4c0,2.2109-1.7893,4-4,4H56c-2.2109,0-4-1.7891-4-4
		C52,9.7893,53.7891,8,56,8z"/>
	<path fill="#50CCD3" d="M56,16h76c2.2107,0,4-1.7891,4-4c0-2.2107-1.7893-4-4-4H56c-2.2109,0-4,1.7893-4,4
		C52,14.2109,53.7891,16,56,16z"/>
	<path fill="#7BE5E4" d="M105.3907,122.8009c0-0.1329,0-0.2696-0.004-0.4024h13.3788c9.504,0,17.2345-7.7148,17.2345-17.1992
		S128.2695,88,118.7655,88h-70.922c-2.8008,0-5.406,0.7345-7.746,1.9181c-5.6015,2.8436-9.4884,8.5899-9.4884,15.2812
		c0,0.1327,0,0.2696,0.004,0.4024H17.2343C7.7303,105.6017,0,113.3165,0,122.8009C0,132.2853,7.7303,140,17.2343,140h40.922h30
		C97.66,140,105.3907,132.2853,105.3907,122.8009z M48,124H20c-2.2109,0-4-1.7891-4-4c0-2.2107,1.7891-4,4-4h28
		c2.2107,0,4,1.7893,4,4C52,122.2109,50.2107,124,48,124z"/>
	<path fill="#7BE5E4" d="M214.7655,161.6017h-16.6248c-1.754-7.3124-8.2112-12.7772-15.9807-13.1368
		c-0.2657-0.0116-0.5193-0.0664-0.7889-0.0664h-70.918c-9.504,0-17.2344,7.7188-17.2344,17.2032c0,0.168,0.0468,0.328,0.0508,0.496
		c0.2696,9.25,7.8476,16.7032,17.1836,16.7032h16.6248C128.8907,190.3633,135.7187,196,143.8435,196h70.922
		c9.504,0,17.2345-7.7147,17.2345-17.1991C232,169.3165,224.2695,161.6017,214.7655,161.6017z M216,188h-28c-2.2109,0-4-1.7891-4-4
		c0-2.2107,1.7891-4,4-4h28c2.2107,0,4,1.7893,4,4C220,186.2109,218.2107,188,216,188z"/>
	<path fill="#50CCD3" d="M52,120c0-2.2107-1.7893-4-4-4H20c-2.2109,0-4,1.7893-4,4c0,2.2109,1.7891,4,4,4h28
		C50.2107,124,52,122.2109,52,120z"/>
	<path fill="#50CCD3" d="M216,180h-28c-2.2109,0-4,1.7893-4,4c0,2.2109,1.7891,4,4,4h28c2.2107,0,4-1.7891,4-4
		C220,181.7893,218.2107,180,216,180z"/>
</g>
</svg>
