<?xml version="1.0" encoding="utf-8"?>
<!-- Generator: Adobe Illustrator 19.2.0, SVG Export Plug-In . SVG Version: 6.00 Build 0)  -->
<svg version="1.1" id="mouse" xmlns="http://www.w3.org/2000/svg" xmlns:xlink="http://www.w3.org/1999/xlink" x="0px" y="0px"
	 viewBox="0 0 188.6221 192.0236" enable-background="new 0 0 188.6221 192.0236" xml:space="preserve">
<g>
	<path fill="#FCD1C0" d="M163.5116,142.5116c-1.9356,0-3.6384-1.41-3.9452-3.3828c-0.3416-2.1796,1.1484-4.2264,3.328-4.5704
		c0.0256-0.0036,0.1504-0.0272,0.3184-0.0624c-6.9356-15.8828-23.1796-30.4724-59.4844-30.4724
		c-11.1348,0-23.738,2.328-36.658,6.7576c-4.9944-10.5704-14.5996-16.7068-23.9668-14.8828
		c-5.9376,1.1524-10.8556,5.2344-13.8456,11.5c-2.7992,5.8556-3.5764,13.008-2.1916,20.1408
		c0.2012,1.0312,0.4452,2.0508,0.7304,3.0508C10.334,142.6524,0,155.4376,0,165.1092c0,23.6524,41.7772,26.9144,86.922,26.9144
		c43.5056,0,81.078,0,81.078-32.7464c0-5.1132-0.5156-11.082-2.1368-17.168c-0.9608,0.2268-1.6016,0.336-1.7284,0.3556
		C163.9256,142.496,163.7188,142.5116,163.5116,142.5116z M36,167.3828c-6.6172,0-12-5.3828-12-12s5.3828-12,12-12
		c6.6172,0,12,5.3828,12,12S42.6172,167.3828,36,167.3828z"/>
	<path fill="#89714D" d="M36,143.3828c-6.6172,0-12,5.3828-12,12s5.3828,12,12,12c6.6172,0,12-5.3828,12-12
		S42.6172,143.3828,36,143.3828z"/>
	<path fill="#E1AD99" d="M166.5116,74.8008C149.0644,55.0936,142.828,38.0468,148.4764,25.5c5.5-12.2148,21.0412-17.5,27.756-17.5
		c2.2092,0,4-1.7892,4-4s-1.7908-4-4-4c-10.1016,0-28.2264,7.0584-35.0508,22.2148c-4.908,10.8984-5.5352,29.7892,19.342,57.8908
		c16.0156,18.0936,22.662,32.7576,19.2168,42.41c-3.1916,8.9452-14.5276,11.582-16.5276,11.9804
		c-0.168,0.0352-0.2928,0.0588-0.3184,0.0624c-2.1796,0.344-3.6696,2.3908-3.328,4.5704c0.3068,1.9728,2.0096,3.3828,3.9452,3.3828
		c0.2072,0,0.414-0.0156,0.6232-0.0468c0.1268-0.0196,0.7676-0.1288,1.7284-0.3556c4.6152-1.0896,17.1464-5.0624,21.3908-16.8476
		C191.8456,112.5116,184.8672,95.5352,166.5116,74.8008z"/>
</g>
</svg>
