<?xml version="1.0" encoding="utf-8"?>
<!-- Generator: Adobe Illustrator 19.2.0, SVG Export Plug-In . SVG Version: 6.00 Build 0)  -->
<svg version="1.1" id="network" xmlns="http://www.w3.org/2000/svg" xmlns:xlink="http://www.w3.org/1999/xlink" x="0px" y="0px"
	 viewBox="0 0 216 200" enable-background="new 0 0 216 200" xml:space="preserve">
<g>
	<path fill="none" d="M47.0391,78.25l32.086,90.59C80.672,168.34,82.2891,168,84,168c1.7303,0,3.3631,0.3476,4.9255,0.8556
		c0.098-0.1604,0.176-0.3244,0.2892-0.4768l52.5508-69.4412C124.2031,90.578,112,72.7108,112,52c0-1.3516,0.1015-2.6756,0.2031-4
		H71.7655C70.1835,62.2304,60.2811,73.9728,47.0391,78.25z"/>
	<path fill="#535353" d="M79.1251,168.84l-32.086-90.59c-2.5311,0.8204-5.18,1.3556-7.922,1.5936l33.09,93.43
		C74.0663,171.2344,76.4375,169.7072,79.1251,168.84z"/>
	<path fill="#535353" d="M71.7655,48h40.4376c0.2108-2.7344,0.6329-5.3984,1.25-8H71.7655C71.9099,41.3164,72,42.6484,72,44
		S71.9099,46.6836,71.7655,48z"/>
	<path fill="#50CCD3" d="M71.7655,48C71.9099,46.6836,72,45.3516,72,44s-0.0901-2.6836-0.2345-4C69.7655,22.0272,54.5,8,36,8
		C16.1483,8,0,24.1484,0,44s16.1483,36,36,36c1.0507,0,2.0899-0.0704,3.1171-0.1564c2.742-0.238,5.3909-0.7732,7.922-1.5936
		C60.2811,73.9728,70.1835,62.2304,71.7655,48z M28,56c-8.8245,0-16-7.1756-16-16s7.1755-16,16-16c8.8243,0,16,7.1756,16,16
		S36.8243,56,28,56z"/>
	<path fill="#535353" d="M89.2147,168.3788c-0.1132,0.1524-0.1912,0.3164-0.2892,0.4768c3.918,1.2772,7.1448,4.0036,9.0825,7.574
		c0.2731-0.25,0.5467-0.504,0.7771-0.8084l54.9728-72.6448c-4.2112-0.8436-8.2112-2.242-11.9924-4.0388L89.2147,168.3788z"/>
	<path fill="#3BABB7" d="M44,40c0-8.8244-7.1757-16-16-16c-8.8245,0-16,7.1756-16,16s7.1755,16,16,16C36.8243,56,44,48.8244,44,40z"
		/>
	<path fill="#63B473" d="M164,0c-24.5353,0-45.1057,17.1056-50.5469,40c-0.6171,2.6016-1.0392,5.2656-1.25,8
		C112.1015,49.3244,112,50.6484,112,52c0,20.7108,12.2031,38.578,29.7655,46.9376c3.7812,1.7968,7.7812,3.1952,11.9924,4.0388
		C157.0703,103.6408,160.496,104,164,104c28.672,0,52-23.328,52-52S192.672,0,164,0z M152,68c-13.2345,0-24-10.7656-24-24
		s10.7655-24,24-24c13.2343,0,24,10.7656,24,24S165.2343,68,152,68z"/>
	<path fill="#99D59D" d="M152,20c-13.2345,0-24,10.7656-24,24s10.7655,24,24,24c13.2343,0,24-10.7656,24-24S165.2343,20,152,20z"/>
	<path fill="#FD5A5A" d="M88.9255,168.8556C87.3631,168.3476,85.7303,168,84,168c-1.7109,0-3.328,0.34-4.8749,0.84
		c-2.6876,0.8672-5.0588,2.3944-6.918,4.4336C69.6211,176.1172,68,179.8592,68,184c0,8.8244,7.1755,16,16,16
		c8.8243,0,16-7.1756,16-16c0-2.754-0.7617-5.3084-1.992-7.5704C96.0703,172.8592,92.8435,170.1328,88.9255,168.8556z"/>
</g>
</svg>
