<?xml version="1.0" encoding="utf-8"?>
<!-- Generator: Adobe Illustrator 19.2.0, SVG Export Plug-In . SVG Version: 6.00 Build 0)  -->
<svg version="1.1" id="nuclearfactory" xmlns="http://www.w3.org/2000/svg" xmlns:xlink="http://www.w3.org/1999/xlink" x="0px"
	 y="0px" viewBox="0 0 216.17 212.0428" enable-background="new 0 0 216.17 212.0428" xml:space="preserve">
<g>
	<path fill="#C6DFED" d="M72,168c-7.5664,0-14.5156-2.6524-20-7.0584V212h40v-51.0584C86.5156,165.3476,79.5664,168,72,168z"/>
	<path fill="#C6DFED" d="M119.2736,84.5c0-9.3828,0.4256-18.8516,1.2636-28.1408L120.9296,52H23.0704l0.3924,4.3592
		c0.838,9.2892,1.2636,18.758,1.2636,28.1408c0,41.7344-8.2148,82.4452-24.414,121.004L0,206.25V212h36V72h16v39.0584
		C57.4844,106.6524,64.4336,104,72,104s14.5156,2.6524,20,7.0584V72h16v140h36v-5.75l-0.3124-0.746
		C127.4884,166.9452,119.2736,126.2344,119.2736,84.5z"/>
	<rect x="24" y="36" fill="#A9C7D8" width="96" height="8"/>
	<path fill="#A9C7D8" d="M92,72v39.0584c7.3048,5.8712,12,14.8636,12,24.9416s-4.6952,19.0704-12,24.9416V212v0.0428h16V212V72H92z"
		/>
	<path fill="#A9C7D8" d="M40,136c0-10.078,4.6952-19.0704,12-24.9416V72H36v140v0.0428h16V212v-51.0584
		C44.6952,155.0704,40,146.078,40,136z"/>
	<rect x="168" fill="#A9C7D8" width="40" height="8"/>
	<polygon fill="#A9C7D8" points="196,40 196,212 216.17,212 207.836,12 168.164,12 159.83,212 180,212 180,40 	"/>
	<path fill="#FCC24C" d="M40,136c0,10.078,4.6952,19.0704,12,24.9416C57.4844,165.3476,64.4336,168,72,168s14.5156-2.6524,20-7.0584
		c7.3048-5.8712,12-14.8636,12-24.9416s-4.6952-19.0704-12-24.9416C86.5156,106.6524,79.5664,104,72,104s-14.5156,2.6524-20,7.0584
		C44.6952,116.9296,40,125.922,40,136z M68,124h8v10.0704l9.4648,5.4648l-4,6.9296l-9.7948-5.6564l-9.7948,5.6564l-4-6.9296
		L68,133.6916V124z"/>
	<polygon fill="#C6DFED" points="196,40 180,40 180,212 180,212.0428 196,212.0428 196,212 	"/>
	<polygon fill="#EB4548" points="61.8752,146.4648 71.67,140.8084 81.4648,146.4648 85.4648,139.5352 76,134.0704 76,124 68,124 
		68,133.6916 57.8752,139.5352 	"/>
</g>
</svg>
