<?xml version="1.0" encoding="utf-8"?>
<!-- Generator: Adobe Illustrator 19.2.0, SVG Export Plug-In . SVG Version: 6.00 Build 0)  -->
<svg version="1.1" id="oillamp" xmlns="http://www.w3.org/2000/svg" xmlns:xlink="http://www.w3.org/1999/xlink" x="0px" y="0px"
	 viewBox="0 0 128 229.7045" enable-background="new 0 0 128 229.7045" xml:space="preserve">
<g>
	<path fill="#FFAE8E" d="M88,110.2577V93.6953h12v-16H84H44H28v16h12v16.5624c-23.664,17.2364-40,57.2636-40,83.4376
		c0,11.1248,2.8203,19.3516,8.6251,25.1484c10.914,10.9004,29.996,10.91,52.1872,10.8536L64,229.6953l3.1875,0.002
		c1.0468,0.002,2.086,0.002,3.1208,0.002c20.8168,0,38.672-0.4708,49.0668-10.8556c5.8044-5.7968,8.6249-14.0236,8.6249-25.1484
		C128,167.5213,111.664,127.4941,88,110.2577z M68.9099,127.1561c5.1212,17.42,10.9261,37.164-16.4492,57.334l-4.742-6.4412
		c22.8632-16.8476,18.7384-30.8752,13.5156-48.6368c-3.1836-10.826-6.672-22.7324-3.168-35.7168h8.3752
		C62.508,105.2793,65.6211,115.9725,68.9099,127.1561z M14,211.6953c0-5.5236,22.3867-10,50-10c27.6131,0,50,4.4764,50,10
		c0,5.5236-22.3869,10-50,10C36.3867,221.6953,14,217.2189,14,211.6953z"/>
	<ellipse fill="#FE8657" cx="64" cy="211.6953" rx="50" ry="10"/>
	<path fill="#EB4548" d="M64,73.6953c15.4375,0,28-12.5604,28-28c0-14.25-21.2929-41.166-23.7229-44.1896
		c-0.738-0.918-1.8436-1.4648-3.0232-1.492c-1.172-0.1112-2.3088,0.4648-3.0899,1.3476C59.4883,4.3869,36,31.3397,36,45.6953
		C36,61.1349,48.5623,73.6953,64,73.6953z"/>
	<path fill="#FFDC82" d="M58.0663,93.6953c-3.504,12.9844-0.0156,24.8908,3.168,35.7168
		c5.2228,17.7616,9.3476,31.7892-13.5156,48.6368l4.742,6.4412c27.3753-20.17,21.5704-39.914,16.4492-57.334
		c-3.2888-11.1836-6.4019-21.8768-2.4684-33.4608H58.0663z"/>
</g>
</svg>
