<?xml version="1.0" encoding="utf-8"?>
<!-- Generator: Adobe Illustrator 19.2.0, SVG Export Plug-In . SVG Version: 6.00 Build 0)  -->
<svg version="1.1" id="particlemovement" xmlns="http://www.w3.org/2000/svg" xmlns:xlink="http://www.w3.org/1999/xlink" x="0px"
	 y="0px" viewBox="0 0 202.5575 204.9288" enable-background="new 0 0 202.5575 204.9288" xml:space="preserve">
<g>
	<path fill="#BC9A67" d="M35.6827,78.9092l-0.418-7.992l-14.3264,0.75l37.3928-41.5312c-1.1776-0.6096-2.3204-1.3204-3.3516-2.25
		c-1.0332-0.93-1.8612-1.9924-2.5936-3.1016L14.9931,66.3157l-0.75-14.3244l-7.988,0.422L7.7199,80.37L35.6827,78.9092z"/>
	<path fill="#BC9A67" d="M161.8387,39.8232c-0.0348,0-0.068-0.0076-0.1032-0.0076l13.5036,54.164l-12.2928-7.3868l-4.1212,6.8596
		l24.002,14.4176l14.42-24l-6.8556-4.1172l-7.3884,12.2932l-13.5176-54.2228c-1.178,0.6408-2.4124,1.1876-3.7464,1.5196
		C164.4463,39.6632,163.1379,39.8232,161.8387,39.8232z"/>
	<path fill="#49A25A" d="M58.3311,30.1361c2.3084,1.1992,4.8184,1.8512,7.3456,1.8512c4.3808,0,8.7444-1.7848,11.8964-5.2848
		c2.8616-3.176,4.3148-7.2776,4.09-11.5432c-0.2228-4.2696-2.0956-8.1952-5.2716-11.0548
		c-6.5564-5.906-16.6932-5.3748-22.5976,1.1836c-4.9724,5.5276-5.324,13.5664-1.408,19.4964
		c0.7324,1.1092,1.5604,2.1716,2.5936,3.1016C56.0107,28.8157,57.1535,29.5265,58.3311,30.1361z"/>
	<path fill="#BC9A67" d="M174.1203,178.8701c0.8652-1.07,1.8808-1.9568,2.9568-2.7536l-43.4276-35.168l14.2676-1.5l-0.836-7.9532
		l-27.8476,2.9256l2.9276,27.848l7.9572-0.836l-1.5-14.2696l43.4276,35.172c0.5508-1.2112,1.2012-2.3908,2.076-3.4688
		L174.1203,178.8701z"/>
	<path fill="#49A25A" d="M153.6299,37.5345c2.4884,1.492,5.2752,2.2616,8.1056,2.2812c0.0352,0,0.0684,0.0076,0.1032,0.0076
		c1.2992,0,2.6076-0.16,3.9004-0.4804c1.334-0.332,2.5684-0.8788,3.7464-1.5196c2.4824-1.3436,4.6052-3.2812,6.0976-5.7656
		c2.2012-3.66,2.8456-7.9648,1.8104-12.1132c-1.0332-4.1444-3.6212-7.6408-7.2832-9.8436c-3.664-2.1956-7.9628-2.836-12.1112-1.8088
		c-4.1464,1.0352-7.6428,3.6212-9.844,7.2852c-2.2008,3.66-2.8456,7.9648-1.8104,12.1132
		C147.3779,31.8353,149.9659,35.3312,153.6299,37.5345z"/>
	<path fill="#BC9A67" d="M71.7551,98.5225c0.5976,1.1992,1.1012,2.4532,1.3864,3.7968c0.2872,1.344,0.336,2.6916,0.2796,4.0316
		l54.658-11.6172l-7.8124,12.0272l6.7108,4.3592l15.25-23.484l-23.4824-15.254l-4.3592,6.7108l12.0332,7.8164L71.7551,98.5225z"/>
	<path fill="#49A25A" d="M202.4679,187.2648c-0.4456-4.25-2.5216-8.0744-5.842-10.762c-3.3204-2.6872-7.492-3.9216-11.742-3.4804
		c-2.8828,0.3048-5.5372,1.4104-7.8068,3.094c-1.076,0.7968-2.0916,1.6836-2.9568,2.7536l0.0016-0.0036
		c-0.8748,1.078-1.5252,2.2576-2.076,3.4688c-2.9412,6.4724-1.336,14.3592,4.4416,19.0388
		c2.9568,2.3908,6.5136,3.5548,10.0508,3.5548c4.666,0,9.2948-2.0236,12.4508-5.922
		C201.6787,195.6828,202.9151,191.5148,202.4679,187.2648z"/>
	<path fill="#49A25A" d="M73.1415,102.3193c-0.2852-1.3436-0.7888-2.5976-1.3864-3.7968c-1.258-2.5272-3.1192-4.7188-5.5492-6.2968
		c-3.584-2.324-7.8572-3.1132-12.0388-2.2304c-4.1796,0.8868-7.7656,3.3516-10.094,6.9376
		c-2.326,3.582-3.1188,7.8592-2.2304,12.0388c0.8868,4.18,3.3516,7.7656,6.9356,10.094c2.6252,1.7032,5.6232,2.586,8.6796,2.586
		c1.1172,0,2.2424-0.1172,3.3596-0.3556c4.1816-0.8868,7.7656-3.3516,10.0936-6.9376c1.58-2.4296,2.3888-5.1876,2.51-8.0076
		C73.4775,105.0108,73.4287,103.6633,73.1415,102.3193z"/>
	<path fill="#BC9A67" d="M78.1847,159.3936l5.834,13.1016l-52.168-20.0236c-0.1524,1.3284-0.4124,2.6524-0.9044,3.9376
		c-0.492,1.2812-1.1836,2.4376-1.9608,3.5312l52.1696,20.0276l-13.1052,5.8356l3.254,7.3048l25.578-11.3868l-11.3888-25.578
		L78.1847,159.3936z"/>
	<path fill="#49A25A" d="M31.8507,152.4716c0.322-2.8084-0.0468-5.656-1.2248-8.3044c-1.738-3.9064-4.8924-6.8984-8.8828-8.43
		c-3.994-1.5348-8.3416-1.418-12.242,0.3204c-3.9044,1.7384-6.8984,4.8948-8.4296,8.8828c-1.5316,3.9884-1.418,8.336,0.32,12.2424
		c1.7384,3.906,4.8928,6.8984,8.8828,8.4296c1.8636,0.7148,3.8028,1.0704,5.7404,1.0704c2.2128,0,4.42-0.4648,6.502-1.3908
		c2.6484-1.1796,4.83-3.0508,6.4688-5.3516c0.7772-1.0936,1.4688-2.25,1.9608-3.5312
		C31.4383,155.1241,31.6983,153.8,31.8507,152.4716z"/>
</g>
</svg>
