<?xml version="1.0" encoding="utf-8"?>
<!-- Generator: Adobe Illustrator 19.2.0, SVG Export Plug-In . SVG Version: 6.00 Build 0)  -->
<svg version="1.1" id="pendulum" xmlns="http://www.w3.org/2000/svg" xmlns:xlink="http://www.w3.org/1999/xlink" x="0px" y="0px"
	 viewBox="0 0 212 188" enable-background="new 0 0 212 188" xml:space="preserve">
<g>
	<path fill="#4A8F9E" d="M20,148.4065C21.2928,148.1409,22.6308,148,24,148c1.3692,0,2.7072,0.1409,4,0.4065V32h-8V148.4065z"/>
	<path fill="#4A8F9E" d="M68,148.4065C69.2928,148.1409,70.6308,148,72,148c1.3692,0,2.7072,0.1409,4,0.4065V32h-8V148.4065z"/>
	<path fill="#4A8F9E" d="M116,148.4065c1.2928-0.2656,2.6308-0.4065,4-0.4065c1.3692,0,2.7072,0.1409,4,0.4065V32h-8V148.4065z"/>
	<path fill="#4A8F9E" d="M192.0624,144.008L172.412,32h-8.1208l19.9256,113.5781C186.6092,144.5625,189.2404,144,192,144
		C192.0216,144,192.0412,144.008,192.0624,144.008z"/>
	<path fill="#8BE5DD" d="M175.998,32C184.8224,32,192,24.8245,192,16c0-8.8243-7.1776-16-16.002-16H16.002C7.1776,0,0,7.1757,0,16
		c0,8.8245,7.1776,16,16.002,16H20h8h40h8h40h8h40.2912h8.1208H175.998z"/>
	<path fill="#B976DD" d="M20,148.4065C10.8828,150.2617,4,158.3437,4,168c0,11.0273,8.9728,20,20,20s20-8.9727,20-20
		c0-9.6563-6.8828-17.7383-16-19.5935C26.7072,148.1409,25.3692,148,24,148C22.6308,148,21.2928,148.1409,20,148.4065z"/>
	<path fill="#B976DD" d="M68,148.4065c-9.1172,1.8552-16,9.9372-16,19.5935c0,11.0273,8.9728,20,20,20c11.0272,0,20-8.9727,20-20
		c0-9.6563-6.8828-17.7383-16-19.5935C74.7072,148.1409,73.3692,148,72,148C70.6308,148,69.2928,148.1409,68,148.4065z"/>
	<path fill="#B976DD" d="M116,148.4065c-9.1172,1.8552-16,9.9372-16,19.5935c0,11.0273,8.9728,20,20,20c11.0272,0,20-8.9727,20-20
		c0-9.6563-6.8828-17.7383-16-19.5935c-1.2928-0.2656-2.6308-0.4065-4-0.4065C118.6308,148,117.2928,148.1409,116,148.4065z"/>
	<path fill="#B976DD" d="M192.0624,144.008c-0.0212,0-0.0408-0.008-0.0624-0.008c-2.7596,0-5.3908,0.5625-7.7832,1.5781
		C177.0448,148.6213,172,155.7305,172,164c0,11.0273,8.9728,20,20,20c11.0272,0,20-8.9727,20-20
		C212,152.992,203.0604,144.0429,192.0624,144.008z"/>
</g>
</svg>
