<?xml version="1.0" encoding="utf-8"?>
<!-- Generator: Adobe Illustrator 19.2.0, SVG Export Plug-In . SVG Version: 6.00 Build 0)  -->
<svg version="1.1" id="planetsmovement" xmlns="http://www.w3.org/2000/svg" xmlns:xlink="http://www.w3.org/1999/xlink" x="0px"
	 y="0px" viewBox="0 0 218.3507 212.0392" enable-background="new 0 0 218.3507 212.0392" xml:space="preserve">
<g>
	<path fill="#456782" d="M167.008,21.2264c0.8436,0,1.7028-0.1796,2.5192-0.5544c5.0528-2.344,9.7852-4.1564,14.0684-5.3908
		c3.1836-0.918,5.0216-4.242,4.1036-7.4256s-4.2404-5.0312-7.4276-4.1056c-4.8712,1.4024-10.1836,3.4336-15.7912,6.0312
		c-3.0056,1.3944-4.3144,4.9608-2.92,7.9688C162.5744,19.9376,164.742,21.2264,167.008,21.2264z"/>
	<path fill="#456782" d="M139.2928,37.16c1.1504,0,2.3128-0.328,3.34-1.0192c4.502-3.0236,8.9492-5.8128,13.2188-8.2932
		c2.8652-1.66,3.8416-5.332,2.1776-8.1992s-5.334-3.8436-8.2012-2.1756c-4.496,2.6052-9.168,5.5388-13.8864,8.7068
		c-2.75,1.8476-3.4828,5.5744-1.6348,8.3244C135.4648,36.2304,137.3612,37.16,139.2928,37.16z"/>
	<path fill="#456782" d="M197.2344,13.3944c3.0664,0.2464,5.3888,1.1368,6.9044,2.6564c0.5468,0.5468,0.994,1.168,1.3692,1.8944
		c1.0624,2.0704,3.164,3.258,5.3416,3.258c0.922,0,1.8592-0.2112,2.7364-0.664c2.9472-1.512,4.1092-5.1292,2.5936-8.0784
		c-0.9376-1.824-2.1348-3.4724-3.5508-4.8904c-3.586-3.594-8.4452-5.6604-14.4412-6.1368c-3.3184-0.2384-6.1956,2.2032-6.4572,5.504
		C191.4668,10.2384,193.9296,13.1328,197.2344,13.3944z"/>
	<path fill="#456782" d="M90.506,172.992c-4.4104,3.1328-8.7872,6.0588-13.008,8.7032c-2.8084,1.758-3.66,5.4612-1.9024,8.2696
		c1.1388,1.8204,3.094,2.8164,5.092,2.8164c1.0876,0,2.1876-0.2928,3.1776-0.914c4.42-2.7656,8.9924-5.8244,13.59-9.0936
		c2.7012-1.918,3.336-5.6644,1.416-8.3672C96.9512,171.7072,93.2108,171.0704,90.506,172.992z"/>
	<path fill="#456782" d="M204.0216,55.422c-2.9316-1.5628-6.5608-0.43-8.1096,2.492c-2.2832,4.3124-4.914,8.836-7.8184,13.4376
		c-1.7676,2.8048-0.9296,6.5076,1.8732,8.2772c0.994,0.6292,2.1016,0.926,3.1952,0.926c1.9924,0,3.9396-0.9884,5.08-2.7968
		c3.0664-4.8596,5.8496-9.6488,8.2756-14.2268C208.0684,60.6016,206.9512,56.9688,204.0216,55.422z"/>
	<path fill="#456782" d="M187.7208,82.9452c-2.7012-1.9256-6.4416-1.3044-8.3712,1.3948c-2.9356,4.1052-6.1152,8.332-9.4512,12.5544
		c-2.0528,2.6016-1.6072,6.3752,0.994,8.43c1.1016,0.8672,2.4124,1.2888,3.7132,1.2888c1.7732,0,3.5292-0.7812,4.7148-2.2812
		c3.4512-4.3748,6.746-8.754,9.7908-13.0156C191.0392,88.6212,190.416,84.8748,187.7208,82.9452z"/>
	<path fill="#456782" d="M213.2812,24.9376c-3.2772-0.5468-6.3456,1.7188-6.8592,4.992c-0.6504,4.1408-2.0156,8.8828-4.0588,14.094
		c-1.2088,3.0856,0.3108,6.57,3.3964,7.7772c0.7188,0.2812,1.4592,0.414,2.1876,0.414c2.3964,0,4.6604-1.4452,5.588-3.8084
		c2.3612-6.0236,3.9552-11.6136,4.742-16.6096C218.7912,28.5236,216.5548,25.4492,213.2812,24.9376z"/>
	<path fill="#456782" d="M115.25,153.578c-4.0332,3.4572-8.1288,6.8204-12.17,10c-2.6036,2.0468-3.0528,5.8204-1.004,8.426
		c1.1836,1.504,2.9416,2.2888,4.7188,2.2888c1.2988,0,2.6076-0.418,3.7072-1.2848c4.172-3.2816,8.3964-6.754,12.5564-10.3204
		c2.516-2.1564,2.8088-5.9416,0.6524-8.4572C121.5548,151.7108,117.7656,151.418,115.25,153.578z"/>
	<path fill="#456782" d="M138.3888,132.1368c-3.7404,3.7344-7.5684,7.414-11.3732,10.9452
		c-2.4296,2.254-2.5724,6.0508-0.3184,8.4764c1.1816,1.2776,2.7892,1.922,4.4004,1.922c1.4592,0,2.924-0.5312,4.078-1.6016
		c3.9124-3.6288,7.846-7.414,11.6896-11.25c2.3456-2.3396,2.3496-6.1404,0.008-8.4844
		C144.5312,129.7968,140.7344,129.7968,138.3888,132.1368z"/>
	<path fill="#456782" d="M32.9296,140.1248c-2.8632-1.6676-6.5372-0.7108-8.2088,2.1488c-2.9532,5.0468-5.5608,9.9608-7.748,14.6092
		c-1.4104,3-0.1232,6.5744,2.8748,7.9844c0.8264,0.3868,1.6952,0.5704,2.5508,0.5704c2.252,0,4.41-1.2736,5.4336-3.4456
		c2.0352-4.324,4.4728-8.9216,7.244-13.656C36.75,145.4764,35.7892,141.8008,32.9296,140.1248z"/>
	<path fill="#456782" d="M20.1856,189.7736c-0.0176-0.3908-0.0272-0.7892-0.0292-1.176c0-3.5352,0.7284-7.7576,2.164-12.5508
		c0.9512-3.1756-0.8516-6.5196-4.0276-7.4688c-3.1716-0.9568-6.5176,0.8516-7.4684,4.0236
		c-1.7696,5.914-2.668,11.2928-2.668,16.0196c0.002,0.5896,0.0156,1.168,0.0448,1.738c0.1564,3.2112,2.8084,5.7072,5.9884,5.7072
		c0.0976,0,0.1972-0.004,0.2968-0.008C17.7948,195.8984,20.3476,193.082,20.1856,189.7736z"/>
	<path fill="#456782" d="M36.0528,199.7072c-5.1288,0.7028-9.1192,0.2732-11.6936-1.2464c-2.8496-1.6836-6.5292-0.742-8.2184,2.1096
		c-1.6856,2.8552-0.7404,6.5352,2.1132,8.2188c3.6464,2.156,8.1348,3.25,13.336,3.25c1.916,0,3.9724-0.1524,6.1112-0.4492
		c3.2832-0.4532,5.574-3.4844,5.1192-6.7656C42.3612,201.5392,39.3084,199.25,36.0528,199.7072z"/>
	<path fill="#456782" d="M42.9728,115.16c-3.3596,4.4492-6.5548,8.9104-9.4964,13.258c-1.8572,2.746-1.1384,6.4764,1.6056,8.332
		c1.0312,0.6992,2.2012,1.0312,3.3576,1.0312c1.9256,0,3.8164-0.922,4.9744-2.6368c2.828-4.1796,5.9004-8.4688,9.1368-12.7576
		c1.996-2.6448,1.4708-6.4064-1.174-8.4024C48.7304,111.9884,44.9708,112.5116,42.9728,115.16z"/>
	<path fill="#456782" d="M113.6856,56.3436c1.3416,0,2.6932-0.4492,3.8124-1.3708c4.1192-3.3948,8.2772-6.668,12.3576-9.7344
		c2.6504-1.9884,3.1836-5.75,1.1932-8.4024c-1.9864-2.6408-5.75-3.1796-8.4004-1.1916c-4.2244,3.172-8.5252,6.5588-12.7832,10.0704
		c-2.5568,2.1056-2.922,5.8868-0.8144,8.4452C110.2384,55.5976,111.9552,56.3436,113.6856,56.3436z"/>
	<path fill="#456782" d="M159.8752,109.0392c-3.3888,3.9296-6.93,7.8828-10.5236,11.746c-2.258,2.422-2.1212,6.2188,0.3048,8.4764
		c1.156,1.0784,2.6228,1.6096,4.0856,1.6096c1.6076,0,3.2132-0.6408,4.3948-1.914c3.6972-3.9728,7.3416-8.0392,10.828-12.09
		c2.164-2.508,1.8808-6.2968-0.6288-8.4608C165.828,106.246,162.0392,106.5272,159.8752,109.0392z"/>
	<path fill="#456782" d="M64.0392,189.4608c-4.8868,2.5588-9.5684,4.6992-13.914,6.3672c-3.094,1.1876-4.6408,4.6564-3.4532,7.75
		c0.916,2.3868,3.1892,3.8516,5.6032,3.8516c0.7132,0,1.4396-0.1248,2.1468-0.3984c4.7772-1.832,9.8848-4.168,15.1796-6.9376
		c2.9376-1.5352,4.0704-5.164,2.5352-8.0976C70.5996,189.0584,66.9728,187.9256,64.0392,189.4608z"/>
	<path fill="#456782" d="M196.4512,34.586c0-3.3164-0.9748-5.9768-2.9004-7.9064c-2.924-2.918-7.5256-3.6368-13.7324-2.074
		c-2.1408,0.5428-3.4376,2.7188-2.8944,4.8592c0.5408,2.1408,2.7068,3.4376,4.8592,2.8984c2.9864-0.7576,5.42-0.7108,6.1112-0.0272
		c0.3596,0.3632,0.5568,1.16,0.5568,2.332c0,2.2108,1.7908,3.9608,4,3.9608C194.66,38.6288,196.4512,36.7968,196.4512,34.586z"/>
	<path fill="#456782" d="M102.1152,143.496c-4.0916,3.5548-8.1856,6.9688-12.162,10.1564c-1.7248,1.3788-2.004,3.8984-0.6232,5.6212
		c0.7912,0.988,1.9532,1.5,3.1252,1.5c0.8768,0,1.7596-0.2852,2.498-0.8792c4.0604-3.25,8.2344-6.7344,12.408-10.3592
		c1.668-1.4492,1.846-3.9728,0.3968-5.6408C106.3084,142.2228,103.7852,142.0392,102.1152,143.496z"/>
	<path fill="#456782" d="M160.6016,93.3436c1.1544,0,2.3008-0.496,3.0916-1.4608c3.5704-4.3436,6.9356-8.6248,10.002-12.7304
		c1.3244-1.7696,0.9612-4.2776-0.8084-5.5976c-1.7716-1.3284-4.2756-0.9612-5.5976,0.8084
		c-2.9944,4.008-6.2832,8.1916-9.7756,12.4416c-1.4024,1.7068-1.156,4.2264,0.5508,5.6288
		C158.8084,93.0468,159.7072,93.3436,160.6016,93.3436z"/>
	<path fill="#456782" d="M142.7968,50.2188c-1.3516-1.746-3.8652-2.0624-5.6092-0.7228c-4.0996,3.164-8.332,6.586-12.582,10.168
		c-1.6896,1.426-1.9044,3.9492-0.4804,5.6368c0.7908,0.9376,1.9216,1.422,3.0604,1.422c0.91,0,1.826-0.3088,2.576-0.9416
		c4.1624-3.5076,8.3048-6.8556,12.3128-9.9492C143.8244,54.4804,144.1464,51.9688,142.7968,50.2188z"/>
	<path fill="#456782" d="M184.1152,48.0508c-1.9824,4.0196-4.6016,8.5392-7.7852,13.4296c-1.2032,1.8516-0.6796,4.328,1.172,5.5312
		c0.6736,0.4376,1.4296,0.6484,2.1776,0.6484c1.3088,0,2.59-0.6404,3.3576-1.82c3.3536-5.1524,6.1308-9.9492,8.254-14.25
		c0.9764-1.9808,0.164-4.3792-1.8184-5.3556C187.4864,45.25,185.0936,46.0664,184.1152,48.0508z"/>
	<path fill="#456782" d="M168.0704,38.2812c1.9336-1.0664,2.6368-3.5,1.5684-5.4336c-1.0704-1.9336-3.506-2.6404-5.4356-1.5664
		c-4.2812,2.3632-8.9592,5.2736-13.9044,8.6564c-1.824,1.246-2.2908,3.7344-1.0448,5.5584
		c0.7752,1.1328,2.0292,1.7424,3.3064,1.7424c0.7776,0,1.5628-0.2268,2.254-0.6992
		C159.5488,43.3048,164.0096,40.5236,168.0704,38.2812z"/>
	<path fill="#456782" d="M125.3652,121.8828c-3.836,3.8008-7.662,7.4728-11.4552,11.004c-1.6152,1.504-1.7068,4.0352-0.2012,5.6524
		c0.7872,0.8436,1.8576,1.2732,2.928,1.2732c0.9764,0,1.9548-0.3552,2.7264-1.074c3.8516-3.586,7.7364-7.3128,11.6308-11.168
		c1.5704-1.5548,1.582-4.09,0.0276-5.6604C129.4708,120.3436,126.9356,120.336,125.3652,121.8828z"/>
	<path fill="#456782" d="M139.3752,117.2892c1.0584,0,2.1152-0.418,2.902-1.2464c3.7952-4.0036,7.4376-7.9724,10.9144-11.8864
		c1.4648-1.6524,1.3164-4.18-0.336-5.6484c-1.6544-1.4652-4.1836-1.3164-5.6484,0.3356c-3.418,3.8516-7.002,7.758-10.7344,11.6916
		c-1.5196,1.6056-1.4532,4.1368,0.1504,5.6564C137.3964,116.9256,138.3868,117.2892,139.3752,117.2892z"/>
	<path fill="#456782" d="M41.5272,189.5236c3.3692-0.004,7.3848-0.9924,12.2756-3.0156c2.0408-0.844,3.0116-3.1836,2.166-5.2268
		c-0.8456-2.0392-3.1856-3.0116-5.2248-2.164c-7.8436,3.242-10.3496,2.7108-11.3708,1.9376
		c-1.758-1.3476-4.2696-1.004-5.6056,0.7536c-1.34,1.758-1.002,4.266,0.754,5.6056
		C36.3556,188.8124,38.7108,189.5236,41.5272,189.5236z"/>
	<path fill="#456782" d="M66.4356,179.3828c0.7108,0,1.4336-0.1912,2.084-0.59c4.2324-2.5896,8.7908-5.6404,13.5468-9.07
		c1.7912-1.2932,2.1972-3.7932,0.9044-5.586c-1.2892-1.7932-3.7892-2.1916-5.584-0.9064c-4.594,3.3164-8.9824,6.254-13.0432,8.7424
		c-1.8848,1.152-2.4764,3.6132-1.324,5.5C63.7752,178.7032,65.09,179.3828,66.4356,179.3828z"/>
	<path fill="#456782" d="M35.4864,172.9296c0.4764,0.1836,0.9648,0.2696,1.4452,0.2696c1.6036,0,3.1152-0.9688,3.7304-2.5548
		c1.51-3.9024,3.844-8.492,6.9356-13.6404c1.1368-1.8948,0.5236-4.3516-1.3712-5.4884c-1.8964-1.1408-4.3512-0.5272-5.488,1.3712
		c-3.3264,5.5388-5.8616,10.5428-7.5372,14.8672C32.4044,169.8164,33.4276,172.1328,35.4864,172.9296z"/>
	<path fill="#456782" d="M65.1212,125.7032c-1.7268-1.3712-4.2424-1.094-5.6212,0.6368c-3.5216,4.4296-6.8104,8.7812-9.7736,12.9372
		c-1.2812,1.7972-0.8632,4.2932,0.9356,5.5784c0.7052,0.5,1.5156,0.742,2.3184,0.742c1.25,0,2.4804-0.582,3.2616-1.6796
		c2.8812-4.0392,6.084-8.2772,9.5196-12.5936C67.1368,129.5936,66.8496,127.078,65.1212,125.7032z"/>
	<path fill="#3BABB7" d="M86,120c18.748,0,34-15.254,34-34s-15.252-34-34-34S52,67.254,52,86S67.252,120,86,120z"/>
	<path fill="#FCC24C" d="M44,22C44,9.8712,34.1308,0,22,0S0,9.8712,0,22s9.8692,22,22,22S44,34.1288,44,22z"/>
</g>
</svg>
