<?xml version="1.0" encoding="utf-8"?>
<!-- Generator: Adobe Illustrator 19.2.0, SVG Export Plug-In . SVG Version: 6.00 Build 0)  -->
<svg version="1.1" id="radiationcontainer" xmlns="http://www.w3.org/2000/svg" xmlns:xlink="http://www.w3.org/1999/xlink" x="0px"
	 y="0px" viewBox="0 0 224 184" enable-background="new 0 0 224 184" xml:space="preserve">
<g>
	<rect x="92" y="8" fill="none" width="40" height="16"/>
	<path fill="#99D59D" d="M204.008,24H188v20h-40V24h-8V0H84v24h-8v4h16h2.17h9.834C108.42,28,112,35.1369,112,43.992V72
		c17.6444,0,32,14.3557,32,32c0,17.6445-14.3556,32-32,32v16.008c0,8.832-3.5936,15.992-7.9844,15.992H68v4h88v-12h28v12h20.0292
		C215.0352,172,224,163.0393,224,152.008V43.992C224,32.9337,215.0568,24,204.008,24z M92,24V8h40v16H92z"/>
	<path fill="#99D59D" d="M19.9708,168h-7.9864C7.5744,168,4,160.8633,4,152.008V43.992C4,35.16,7.5684,28,11.996,28h7.9944h2.408H36
		v-4H19.9904C8.9336,24,0,32.9453,0,43.992v108.016C0,163.0665,8.9316,172,19.9708,172H40v-4H19.9708z"/>
	<path fill="#63B473" d="M76,44H36V28H22.3984h-2.408H11.996C7.5684,28,4,35.16,4,43.992v108.016C4,160.8633,7.5744,168,11.9844,168
		h7.9864H40v-8h28v8h36.0156c4.3908,0,7.9844-7.16,7.9844-15.992V136c-17.6444,0-32-14.3555-32-32c0-17.6443,14.3556-32,32-32
		V43.992C112,35.1369,108.42,28,104.004,28H94.17H92H76V44z"/>
	<polygon fill="#618287" points="36,44 76,44 76,28 76,24 76,20 36,20 36,24 36,28 	"/>
	<polygon fill="#618287" points="68,160 40,160 40,168 40,172 40,184 68,184 68,172 68,168 	"/>
	<polygon fill="#618287" points="148,44 188,44 188,24 188,20 148,20 148,24 	"/>
	<polygon fill="#618287" points="184,160 156,160 156,172 156,184 184,184 184,172 	"/>
	<path fill="#FCC24C" d="M80,104c0,17.6445,14.3556,32,32,32s32-14.3555,32-32c0-17.6443-14.3556-32-32-32S80,86.3557,80,104z
		 M108,92h8v10.0705l9.4648,5.4648l-4,6.9296l-9.7948-5.6524l-9.7948,5.6524l-4-6.9296L108,101.6917V92z"/>
	<polygon fill="#EB4548" points="101.8752,114.4649 111.67,108.8125 121.4648,114.4649 125.4648,107.5353 116,102.0705 116,92 
		108,92 108,101.6917 97.8752,107.5353 	"/>
</g>
</svg>
