<?xml version="1.0" encoding="utf-8"?>
<!-- Generator: Adobe Illustrator 19.2.0, SVG Export Plug-In . SVG Version: 6.00 Build 0)  -->
<svg version="1.1" id="raygun" xmlns="http://www.w3.org/2000/svg" xmlns:xlink="http://www.w3.org/1999/xlink" x="0px" y="0px"
	 viewBox="0 0 224.0005 176" enable-background="new 0 0 224.0005 176" xml:space="preserve">
<g>
	<path fill="#746DE0" d="M40.3657,122.3124l-25.8828,47.7812c-0.672,1.2424-0.6408,2.7424,0.08,3.9532
		C15.2857,175.258,16.5905,176,18.0005,176h44c2.0624,0,3.7872-1.5664,3.9824-3.6212l3.1428-32.988l11.7164,15.0664
		C81.6313,155.4688,82.8109,156,84.0025,156c0.8592,0,1.7244-0.2736,2.4532-0.8436c1.744-1.3556,2.0584-3.8672,0.7032-5.6136
		l-10.8968-14.0116C63.1137,134.0116,50.9381,128.8084,40.3657,122.3124z"/>
	<path fill="#FF6B97" d="M160.0005,80h5.9572c-6.8672-8.6444-40.422-48-81.9572-48c-4.9492,0-9.7752,0.586-14.4668,1.586L68.4693,24
		h-8.0488l1.2988,11.6756c-34.6076,11.1836-59.67,44.25-60.924,45.9336c-1.0604,1.418-1.0604,3.3636,0,4.7816
		c0.9768,1.3124,16.424,21.6952,39.5704,35.9216c10.5724,6.496,22.748,11.6992,35.8964,13.2188
		C78.8073,135.828,81.3853,136,84.0005,136c41.5352,0,75.09-39.3556,81.9572-48h-5.9572V80z M116.9849,77.4728l-28,16
		c-1.2404,0.7028-2.7596,0.6992-3.9924-0.012c-1.2324-0.7188-1.992-2.0352-1.992-3.4608v-8.6484l-27.826,18.0076
		c-0.672,0.4336-1.426,0.6408-2.17,0.6408c-1.3124,0-2.5956-0.6444-3.3616-1.828c-1.2008-1.8556-0.6696-4.3284,1.1836-5.5312l34-22
		c1.2324-0.7932,2.7972-0.8556,4.086-0.1564c1.2872,0.7032,2.088,2.0508,2.088,3.5156v9.1056l22.0156-12.5784
		c1.918-1.1016,4.3632-0.4296,5.4572,1.4884C119.5689,73.9336,118.9029,76.3748,116.9849,77.4728z"/>
	<path fill="#FCC24C" d="M113.0161,70.5272L91.0005,83.1056V74c0-1.4648-0.8008-2.8124-2.088-3.5156
		c-1.2888-0.6992-2.8536-0.6368-4.086,0.1564l-34,22c-1.8532,1.2028-2.3844,3.6756-1.1836,5.5312
		c0.766,1.1836,2.0492,1.828,3.3616,1.828c0.744,0,1.498-0.2072,2.17-0.6408l27.826-18.0076V90c0,1.4256,0.7596,2.742,1.992,3.4608
		c1.2328,0.7112,2.752,0.7148,3.9924,0.012l28-16c1.918-1.098,2.584-3.5392,1.4884-5.4572
		C117.3793,70.0976,114.9341,69.4256,113.0161,70.5272z"/>
	<path fill="#9AB040" d="M212.0005,72c-5.2072,0-9.6056,3.3556-11.2636,8h-4.838c-0.3964-8.7852-2.3556-28-11.8984-28
		c-9.5428,0-11.502,19.2148-11.8984,28h-6.1444h-5.9572v8h5.9572h6.1444c0.3964,8.7852,2.3556,28,11.8984,28
		c9.5428,0,11.502-19.2148,11.8984-28h4.838c1.658,4.6444,6.0564,8,11.2636,8c6.6172,0,12-5.3828,12-12S218.6177,72,212.0005,72z"/>
	<path fill="#50CCD3" d="M104.0357,24c6.5976,0,11.9648-5.3712,11.9648-12c0-6.6132-5.3576-12-11.9648-12H31.9653
		c-6.5976,0-11.9648,5.3712-11.9648,12c0,6.6132,5.3576,12,11.9648,12h28.4552h8.0488H104.0357z"/>
</g>
</svg>
