<?xml version="1.0" encoding="utf-8"?>
<!-- Generator: Adobe Illustrator 19.2.0, SVG Export Plug-In . SVG Version: 6.00 Build 0)  -->
<svg version="1.1" id="robot" xmlns="http://www.w3.org/2000/svg" xmlns:xlink="http://www.w3.org/1999/xlink" x="0px" y="0px"
	 viewBox="0 0 164 232" enable-background="new 0 0 164 232" xml:space="preserve">
<g>
	<path fill="#B976DD" d="M140.004,52H120v12h-8V52H23.996C10.7655,52,0,62.7636,0,75.994v96.012C0,185.2364,10.7655,196,23.996,196
		H64v36h12v-36h16v36h12v-36h36.004C153.2343,196,164,185.2364,164,172.006V75.994C164,62.7636,153.2343,52,140.004,52z M120,172
		c0,2.2088-1.7893,4-4,4H48c-2.2109,0-4-1.7912-4-4v-28c0-2.2088,1.7891-4,4-4h68c2.2107,0,4,1.7912,4,4V172z M48,112v-8h24v8H48z
		 M92,112v-8h24v8H92z M140,96H24V84h116V96z"/>
	<path fill="#D8F768" d="M116,140H48c-2.2109,0-4,1.7912-4,4v28c0,2.2088,1.7891,4,4,4h68c2.2107,0,4-1.7912,4-4v-28
		C120,141.7912,118.2107,140,116,140z M68,172h-8v-28h8V172z M104,172h-8v-28h8V172z"/>
	<rect x="60" y="144" fill="#9AB040" width="8" height="28"/>
	<rect x="96" y="144" fill="#9AB040" width="8" height="28"/>
	<path fill="#8BE5DD" d="M120,64V52V31.4316c6.8827-1.7872,12-7.998,12-15.4316c0-8.8224-7.1757-16-16-16c-8.8245,0-16,7.1776-16,16
		c0,7.4336,5.1171,13.6444,12,15.4316V52v12H120z"/>
	<rect x="24" y="84" fill="#E1AD99" width="116" height="12"/>
	<rect x="48" y="104" fill="#DBEEF7" width="24" height="8"/>
	<rect x="92" y="104" fill="#DBEEF7" width="24" height="8"/>
</g>
</svg>
