<?xml version="1.0" encoding="utf-8"?>
<!-- Generator: Adobe Illustrator 19.2.0, SVG Export Plug-In . SVG Version: 6.00 Build 0)  -->
<svg version="1.1" id="rocketship" xmlns="http://www.w3.org/2000/svg" xmlns:xlink="http://www.w3.org/1999/xlink" x="0px" y="0px"
	 viewBox="0 0 193.4331 220" enable-background="new 0 0 193.4331 220" xml:space="preserve">
<g>
	<path fill="#FD5A5A" d="M67.281,189.9256l-12.1424,24.2852c-0.6192,1.2404-0.5528,2.7132,0.1756,3.8928
		C56.0426,219.2812,57.3298,220,58.7166,220h28c1.3868,0,2.674-0.7188,3.4024-1.8964c0.7284-1.1796,0.7948-2.6524,0.1756-3.8928
		L79.1894,192h-8.4728C69.2206,192,67.9666,191.1444,67.281,189.9256z"/>
	<path fill="#FD5A5A" d="M122.7166,192h-8.4728l-11.1052,22.2108c-0.6192,1.2404-0.5528,2.7132,0.1756,3.8928
		c0.7284,1.1776,2.0156,1.8964,3.4024,1.8964h28c1.3868,0,2.674-0.7188,3.4024-1.8964c0.7284-1.1796,0.7948-2.6524,0.1756-3.8928
		l-12.1424-24.2852C125.4666,191.1444,124.2126,192,122.7166,192z"/>
	<path fill="#F8A131" d="M192.0742,169.0428l-65.3576-57.4588V29.9728c0-16.5276-13.4572-29.9728-30-29.9728s-30,13.4452-30,29.9728
		v81.6092L1.359,169.0428c-1.25,1.0996-1.6892,2.8576-1.1012,4.416c0.5856,1.5568,2.078,2.588,3.742,2.588h62.7168V188
		c0,0.7128,0.2364,1.3476,0.5644,1.9256C67.9666,191.1444,69.2206,192,70.7166,192h8.4728h35.0544h8.4728
		c1.496,0,2.75-0.8556,3.4356-2.0744c0.326-0.578,0.5644-1.2128,0.5644-1.9256v-11.9532h62.7168c1.664,0,3.1564-1.0312,3.742-2.588
		C193.7634,171.9004,193.3242,170.1424,192.0742,169.0428z M14.6074,168.0468l51.736-45.4864l0.6368,45.4864H14.6074z
		 M96.7166,43.7988c-4.1268,0-8.0372-0.6016-11.008-1.6952c-6.0836-2.2404-6.992-6.0392-6.992-8.1036c0-9.9256,8.0744-18,18-18
		s18,8.0744,18,18C114.7166,40.0448,107.8202,43.7988,96.7166,43.7988z M126.453,168.0468l0.6348-45.4864l51.738,45.4864H126.453z"
		/>
	<path fill="#DBEEF7" d="M96.7166,16c-9.9256,0-18,8.0744-18,18c0,2.0644,0.9084,5.8632,6.992,8.1036
		c2.9708,1.0936,6.8812,1.6952,11.008,1.6952c11.1036,0,18-3.754,18-9.7988C114.7166,24.0744,106.6422,16,96.7166,16z"/>
	<polygon fill="#FCC24C" points="66.3434,122.5604 14.6074,168.0468 66.9802,168.0468 	"/>
	<polygon fill="#FCC24C" points="126.453,168.0468 178.8258,168.0468 127.0878,122.5604 	"/>
</g>
</svg>
