<?xml version="1.0" encoding="utf-8"?>
<!-- Generator: Adobe Illustrator 19.2.0, SVG Export Plug-In . SVG Version: 6.00 Build 0)  -->
<svg version="1.1" id="satellitedish" xmlns="http://www.w3.org/2000/svg" xmlns:xlink="http://www.w3.org/1999/xlink" x="0px"
	 y="0px" viewBox="0 0 217.6563 219.6565" enable-background="new 0 0 217.6563 219.6565" xml:space="preserve">
<g>
	<path fill="#4F676D" d="M119.6407,76.6973c-12.2112-9.172-29.9767-7.9512-41.4532,3.5196
		C66.7147,91.6917,65.496,109.4533,74.672,121.664L119.6407,76.6973z"/>
	<path fill="#4F676D" d="M146.2227,149.9065c-1.5627,1.5624-1.5627,4.0935,0,5.656c0.7813,0.7812,1.8044,1.172,2.828,1.172
		c1.0236,0,2.0468-0.3908,2.828-1.172c29.6328-29.6328,29.6328-77.8476,0-107.4785c-0.6992-0.7011-1.6016-1.0391-2.5156-1.1111
		c-1.1288-0.09-2.2772,0.25-3.1404,1.1111c-0.8636,0.8633-1.1992,2.0137-1.1096,3.1409c0.0704,0.914,0.4104,1.8144,1.1096,2.5156
		C172.7343,80.2541,172.7343,123.3945,146.2227,149.9065z"/>
	<path fill="#FE8657" d="M43.504,115.7737c-1.8633-5.7188-2.8089-11.6992-2.8089-17.7737c0-31.5975,25.7072-57.3047,57.3049-57.3047
		c5.9531,0,11.8243,0.9084,17.4415,2.7012l2.4296-7.6212c-6.4064-2.0428-13.09-3.08-19.8711-3.08
		c-36.008,0-65.3049,29.2952-65.3049,65.3047c0,6.9181,1.0784,13.7305,3.1992,20.2501L43.504,115.7737z"/>
	<path fill="#FE8657" d="M98,8c9.0703,0,18.0235,1.3437,26.6055,3.996l2.3592-7.6443C117.6171,1.4649,107.8711,0,98,0
		C43.9607,0,0,43.9629,0,98c0,8.8085,1.168,17.5429,3.4727,25.9609l7.7188-2.1172C9.0743,114.1173,8,106.0937,8,98
		C8,48.3733,48.3751,8,98,8z"/>
	<path fill="#90A9AE" d="M212,174.3437l-16,16l-29.1445-29.1444c31.07-35.0744,29.918-88.8496-3.6484-122.414l-2.8284-2.828
		l-11.0156,11.0156c0.914,0.072,1.8164,0.41,2.5156,1.1111c29.6328,29.6309,29.6328,77.8457,0,107.4785
		c-0.7812,0.7812-1.8044,1.172-2.828,1.172c-1.0236,0-2.0467-0.3908-2.828-1.172c-1.5627-1.5625-1.5627-4.0936,0-5.656
		c26.5116-26.512,26.5116-69.6524,0-96.166c-0.6992-0.7012-1.0392-1.6016-1.1096-2.5156l-25.4724,25.4724L74.672,121.664
		l-40.7425,40.7425l2.8284,2.828c17.4296,17.4295,40.328,26.1484,63.2224,26.1484c22.094,0,44.1368-8.1992,61.3204-24.4256
		L190.3435,196l-18,18L178,219.6565L217.6563,180L212,174.3437z"/>
</g>
</svg>
