<?xml version="1.0" encoding="utf-8"?>
<!-- Generator: Adobe Illustrator 19.2.0, SVG Export Plug-In . SVG Version: 6.00 Build 0)  -->
<svg version="1.1" id="satellite" xmlns="http://www.w3.org/2000/svg" xmlns:xlink="http://www.w3.org/1999/xlink" x="0px" y="0px"
	 viewBox="0 0 229.0178 229.0194" enable-background="new 0 0 229.0178 229.0194" xml:space="preserve">
<g>
	<path fill="#50CCD3" d="M69.4552,97.3378c0.7812,0.7811,1.8048,1.172,2.828,1.172c1.0236,0,2.0472-0.3909,2.8284-1.172
		L89.254,83.1954L60.9688,54.9102L45.4144,70.4666l-5.6564-5.656l15.5548-15.5568L27.0296,20.9706L12.8868,35.113
		c-1.5624,1.5628-1.5624,4.0939,0,5.6564L69.4552,97.3378z"/>
	<path fill="#50CCD3" d="M77.9396,26.6269L52.4844,1.1718c-1.5624-1.5624-4.0936-1.5624-5.656,0L32.6856,15.3142l28.2832,28.2832
		L77.9396,26.6269z"/>
	<path fill="#50CCD3" d="M94.9104,77.5389l14.1424-14.1427c1.5628-1.5624,1.5628-4.0936,0-5.656L83.596,32.2829L66.6252,49.2538
		L94.9104,77.5389z"/>
	<path fill="#50CCD3" d="M164.098,189.369l-5.6564-5.6564l15.666-15.664l-28.2852-28.2852L131.68,153.9062
		c-0.75,0.75-1.172,1.7676-1.172,2.828c0,1.0607,0.422,2.0784,1.172,2.8284l56.57,56.568c0.75,0.75,1.7676,1.172,2.8284,1.172
		c1.0604,0,2.078-0.422,2.828-1.172l14.1428-14.1424L179.764,173.705L164.098,189.369z"/>
	<path fill="#50CCD3" d="M227.846,176.533l-56.5684-56.5684c-1.5624-1.5624-4.094-1.5624-5.6564,0l-14.1424,14.1428l28.2852,28.2832
		l15.666-15.664l5.656,5.656l-15.666,15.666l28.2852,28.2832l14.1408-14.1424C229.4084,180.6269,229.4084,178.0958,227.846,176.533z
		"/>
	<polygon fill="#FFFFFF" points="39.758,64.8106 45.4144,70.4666 60.9688,54.9102 89.254,83.1954 94.9104,77.5389 66.6252,49.2538 
		83.596,32.2829 77.9396,26.6269 60.9688,43.5974 32.6856,15.3142 27.0296,20.9706 55.3128,49.2538 	"/>
	<polygon fill="#FFFFFF" points="201.086,152.3826 195.43,146.7266 179.764,162.3906 151.4788,134.1074 145.8224,139.7634 
		174.1076,168.0486 158.4416,183.7126 164.098,189.369 179.764,173.705 208.0492,201.9882 208.0492,201.9882 213.7052,196.3318 
		213.7052,196.3318 185.42,168.0486 	"/>
	
		<rect x="48.8447" y="154.1595" transform="matrix(0.7071 -0.7071 0.7071 0.7071 -91.0788 96.4233)" fill="#746DE0" width="44.0298" height="7.9991"/>
	<path fill="#9D57C4" d="M134.51,134.1074l39.5996-39.6016c5.2928-5.2912,8.2052-12.3244,8.2032-19.8008
		c-0.002-7.4748-2.918-14.504-8.2072-19.7928c-5.2792-5.2816-12.3064-8.1916-19.7872-8.1956c-0.0056,0-0.0096,0-0.0156,0
		c-7.4804,0-14.5076,2.9084-19.7888,8.1916L94.9124,94.5098L134.51,134.1074z M141.0648,55.6678
		c4.4588-4.4569,11.6852-4.4569,16.1424,0c4.4572,4.4572,4.4572,11.6856,0,16.1428c-4.4572,4.4568-11.6836,4.4568-16.1424,0
		C136.6076,67.3534,136.6076,60.125,141.0648,55.6678z"/>
	
		<ellipse transform="matrix(0.7071 -0.7071 0.7071 0.7071 -1.3902 124.122)" fill="#BDB9FF" cx="149.136" cy="63.7392" rx="11.4145" ry="11.4145"/>
	<polygon fill="#9D57C4" points="131.68,136.9354 92.0824,97.3378 66.6272,122.793 83.598,139.7634 89.254,145.4198 
		106.2248,162.3906 	"/>
	<path fill="#746DE0" d="M27.3128,141.705c-2.2092,0-4,1.7908-4,4c0,33.084,26.916,60,60,60c2.2088,0,4-1.7912,4-4
		c0-2.2092-1.7912-4-4-4c-28.674,0-52-23.3261-52-52C31.3128,143.4958,29.5216,141.705,27.3128,141.705z"/>
	<path fill="#746DE0" d="M84,221.0194c-41.906,0-76-34.0936-76-76c0-2.2088-1.7908-4-4-4c-2.2088,0-4,1.7912-4,4
		c0,46.3184,37.682,84,84,84c2.2092,0,4-1.7908,4-4C88,222.8106,86.2092,221.0194,84,221.0194z"/>
</g>
</svg>
