<?xml version="1.0" encoding="utf-8"?>
<!-- Generator: Adobe Illustrator 19.2.0, SVG Export Plug-In . SVG Version: 6.00 Build 0)  -->
<svg version="1.1" id="saturnplanets" xmlns="http://www.w3.org/2000/svg" xmlns:xlink="http://www.w3.org/1999/xlink" x="0px"
	 y="0px" viewBox="0 0 229.8352 216" enable-background="new 0 0 229.8352 216" xml:space="preserve">
<g>
	<path fill="none" d="M188.3154,120.5312c3.926-3.5232,7.6428-7.0312,10.9532-10.4804
		C216.2902,92.3084,219.5266,81.1584,217.1282,77c-2.9592-5.1212-19.8636-7.8204-54.4632,3.9376
		C175.0186,90.9396,184.1182,104.7384,188.3154,120.5312z"/>
	<path fill="none" d="M12.745,195c3.5472,6.1388,21.4004,6.1544,47.9084-1.91c-10.584-10.8204-17.914-24.7832-20.5604-40.338
		C16.8566,173.9024,9.4582,189.3084,12.745,195z"/>
	<path fill="#FF6B97" d="M71.5478,202.3084C83.8642,210.912,98.8078,216,114.9366,216c41.9064,0,76-34.0936,76-76
		c0-1.8908-0.1464-3.742-0.2832-5.5976c-15.3592,12.998-34.1036,26.0704-54.7168,37.9708
		C114.5458,184.7248,92.011,195.2832,71.5478,202.3084z"/>
	<path fill="#FF6B97" d="M46.591,139.1388c2.1524,2.5196,1.8536,6.3064-0.666,8.4588c-2.0568,1.758-3.9788,3.4688-5.832,5.1544
		c2.6464,15.5548,9.9764,29.5176,20.5604,40.338c19.246-5.8536,43.0428-15.9572,69.2832-31.1076
		c22.5488-13.0216,42.7264-27.412,58.3788-41.4512c-4.1972-15.7928-13.2968-29.5916-25.6504-39.5936
		c-2.576,0.8768-5.2264,1.8124-8,2.8536c-3.0996,1.1696-6.5604-0.4064-7.7244-3.51c-1.1232-2.992,0.3144-6.2968,3.2032-7.5724
		C139.6066,67.174,127.6418,64,114.9366,64c-41.1776,0-74.7324,32.9376-75.8908,73.84
		C41.499,136.4316,44.6826,136.9044,46.591,139.1388z M114.9366,76c2.2088,0,4,1.7912,4,4s-1.7912,4-4,4
		c-2.586,0-5.1132,0.2384-7.6076,0.578c17.9356,3.0452,31.6076,18.6192,31.6076,37.422c0,20.9884-17.0136,38-38,38
		s-38-17.0116-38-38c0-1.0448,0.0744-2.0684,0.1564-3.09c-2.6604,6.5156-4.1564,13.6272-4.1564,21.09c0,2.2088-1.7912,4-4,4
		s-4-1.7912-4-4C50.9366,104.7108,79.6474,76,114.9366,76z"/>
	<path fill="#618287" d="M227.5206,71c-11.7208-20.2968-57.8028-5.674-77.0704,1.5568c-0.1092,0.0408-0.2012,0.1052-0.3064,0.152
		c-2.8888,1.2756-4.3264,4.5804-3.2032,7.5724c1.164,3.1036,4.6248,4.6796,7.7244,3.51c2.7736-1.0412,5.424-1.9768,8-2.8536
		c34.5996-11.758,51.504-9.0588,54.4632-3.9376c2.3984,4.1584-0.838,15.3084-17.8596,33.0508
		c-3.3104,3.4492-7.0272,6.9572-10.9532,10.4804c-15.6524,14.0392-35.83,28.4296-58.3788,41.4512
		c-26.2404,15.1504-50.0372,25.254-69.2832,31.1076c-26.508,8.0644-44.3612,8.0488-47.9084,1.91
		c-3.2868-5.6916,4.1116-21.0976,27.348-42.248c1.8532-1.6856,3.7752-3.3964,5.832-5.1544c2.5196-2.1524,2.8184-5.9392,0.666-8.4588
		c-1.9084-2.2344-5.092-2.7072-7.5452-1.2988c-0.3164,0.1816-0.6248,0.3864-0.914,0.6328
		C20.1534,153.832-8.3994,182.3768,2.3546,201c4.1972,7.2716,13.0332,10.4552,24.8788,10.4552
		c12.1816-0.002,27.5568-3.3908,44.3144-9.1468c20.4632-7.0252,42.998-17.5836,64.3888-29.9352
		c20.6132-11.9004,39.3576-24.9728,54.7168-37.9708c6.3692-5.3888,12.2148-10.7676,17.2752-16.0432
		C227.0966,98.3768,233.8702,82.002,227.5206,71z"/>
	<path fill="#FF8AAC" d="M63.093,118.91c-0.082,1.0216-0.1564,2.0452-0.1564,3.09c0,20.9884,17.0136,38,38,38s38-17.0116,38-38
		c0-18.8028-13.672-34.3768-31.6076-37.422C87.2414,87.326,70.5206,100.7188,63.093,118.91z"/>
	<path fill="#FF427A" d="M54.9366,144c2.2088,0,4-1.7912,4-4c0-7.4628,1.496-14.5744,4.1564-21.09
		c7.4276-18.1912,24.1484-31.584,44.236-34.332c2.4944-0.3396,5.0216-0.578,7.6076-0.578c2.2088,0,4-1.7912,4-4s-1.7912-4-4-4
		c-35.2892,0-64,28.7108-64,64C50.9366,142.2088,52.7278,144,54.9366,144z"/>
	<path fill="#F8A131" d="M38.9366,72c19.8496,0,36-16.1504,36-36s-16.1504-36-36-36s-36,16.1504-36,36S19.087,72,38.9366,72z
		 M6.9366,28c0-11.0448,8.9552-20,20-20s20,8.9552,20,20c0,11.0428-8.9552,20-20,20S6.9366,39.0428,6.9366,28z"/>
	<circle fill="#FCC24C" cx="26.9366" cy="28" r="20"/>
</g>
</svg>
