<?xml version="1.0" encoding="utf-8"?>
<!-- Generator: Adobe Illustrator 19.2.0, SVG Export Plug-In . SVG Version: 6.00 Build 0)  -->
<svg version="1.1" id="scale" xmlns="http://www.w3.org/2000/svg" xmlns:xlink="http://www.w3.org/1999/xlink" x="0px" y="0px"
	 viewBox="0 0 232.001 196" enable-background="new 0 0 232.001 196" xml:space="preserve">
<g>
	<polygon fill="#A9C7D8" points="86.5749,172 149.4261,172 129.8189,150.6093 109.5589,146.9257 	"/>
	<path fill="#FD5A5A" d="M44.0005,56c15.4396,0,28-12.5623,28-28c0-15.4375-12.5604-28-28-28s-28,12.5625-28,28
		C16.0005,43.4377,28.5609,56,44.0005,56z"/>
	<path fill="#4F676D" d="M227.0749,156.0977l-220-40c-3.256-0.5897-6.3848,1.5703-6.9768,4.828
		c-0.5936,3.262,1.5684,6.3828,4.828,6.9768l104.6328,19.0232l20.26,3.6836l95.1072,17.2932
		c0.3636,0.0664,0.7248,0.0975,1.0824,0.0975c2.8436,0,5.3688-2.0311,5.8944-4.9255
		C232.4965,159.8125,230.3345,156.6917,227.0749,156.0977z"/>
	<path fill="#C1DB66" d="M192.0005,128c19.8496,0,36-16.1483,36-36c0-19.8515-16.1504-36-36-36s-36,16.1485-36,36
		C156.0005,111.8517,172.1509,128,192.0005,128z M177.8581,99.6565l8.07-8.0704l-6.656-6.6564c-1.5628-1.5624-1.5628-4.0937,0-5.656
		c1.5624-1.5628,4.0936-1.5628,5.656,0l6.6564,6.656l6.0724-6.0704c1.5624-1.5624,4.0936-1.5624,5.656,0
		c1.5628,1.5628,1.5628,4.094,0,5.6564l-6.0704,6.0704l7.4844,7.4844c1.5628,1.5624,1.5628,4.0935,0,5.656
		c-0.7812,0.7815-1.8044,1.172-2.828,1.172c-1.0232,0-2.0468-0.3905-2.828-1.172l-7.4864-7.4844l-8.0704,8.0704
		c-0.7812,0.7812-1.8048,1.172-2.828,1.172c-1.0236,0-2.0468-0.3908-2.828-1.172
		C176.2953,103.7501,176.2953,101.2189,177.8581,99.6565z"/>
	<path fill="#FCD1C0" d="M67.9733,172c-4.3968,0-7.9728,3.6057-7.9728,8.0393v7.9216c0,4.4336,3.576,8.0391,7.9728,8.0391h100.0544
		c4.3968,0,7.9728-3.6055,7.9728-8.0391v-7.9216c0-4.4336-3.576-8.0393-7.9728-8.0393h-18.6016H86.5749H67.9733z"/>
	<path fill="#FF6B97" d="M180.6861,106.4845c1.0232,0,2.0468-0.3908,2.828-1.172l8.0704-8.0704l7.4864,7.4844
		c0.7812,0.7815,1.8048,1.172,2.828,1.172c1.0236,0,2.0468-0.3905,2.828-1.172c1.5628-1.5625,1.5628-4.0936,0-5.656l-7.4844-7.4844
		l6.0704-6.0704c1.5628-1.5624,1.5628-4.0936,0-5.6564c-1.5624-1.5624-4.0936-1.5624-5.656,0l-6.0724,6.0704l-6.6564-6.656
		c-1.5624-1.5628-4.0936-1.5628-5.656,0c-1.5628,1.5623-1.5628,4.0936,0,5.656l6.656,6.6564l-8.07,8.0704
		c-1.5628,1.5624-1.5628,4.0936,0,5.656C178.6393,106.0937,179.6625,106.4845,180.6861,106.4845z"/>
</g>
</svg>
