<?xml version="1.0" encoding="utf-8"?>
<!-- Generator: Adobe Illustrator 19.2.0, SVG Export Plug-In . SVG Version: 6.00 Build 0)  -->
<svg version="1.1" id="searchmagnify" xmlns="http://www.w3.org/2000/svg" xmlns:xlink="http://www.w3.org/1999/xlink" x="0px"
	 y="0px" viewBox="0 0 218.0822 222.084" enable-background="new 0 0 218.0822 222.084" xml:space="preserve">
<g>
	<path fill="#C6DFED" d="M144.0822,0c-40.8049,0-74,33.1952-74,74c0,19.6876,7.7771,37.5584,20.3591,50.83l3.3284-3.4588
		l5.7656,5.5448l-3.3008,3.4336C109.1485,141.334,125.8401,148,144.0822,148c40.8047,0,74-33.1952,74-74S184.8869,0,144.0822,0z
		 M144.0822,140c-36.3909,0-66-29.6076-66-66s29.6091-66,66-66c36.3907,0,66,29.6076,66,66S180.4729,140,144.0822,140z"/>
	<path fill="#50CCD3" d="M144.0822,8c-36.3909,0-66,29.6076-66,66s29.6091,66,66,66c36.3907,0,66-29.6076,66-66
		S180.4729,8,144.0822,8z M144.0822,128c-29.7773,0-54-24.2248-54-54s24.2227-54,54-54c29.7771,0,54,24.2248,54,54
		S173.8593,128,144.0822,128z"/>
	<path fill="#DBEEF7" d="M144.0822,28c-25.3633,0-46,20.6348-46,46s20.6367,46,46,46c25.3631,0,46-20.6348,46-46
		S169.4453,28,144.0822,28z M126.6289,96.4748c-0.1992,2.068-1.9376,3.6168-3.9764,3.6168c-0.1288,0-0.258-0.0056-0.3868-0.0172
		c-2.1992-0.2132-3.8084-2.166-3.5976-4.3656c1.3592-14.1464-12.6564-20.824-13.2539-21.1032c-2-0.928-2.8749-3.3008-1.9569-5.3028
		c0.9216-2.004,3.2812-2.8868,5.2889-1.9688C109.5549,67.7032,128.5429,76.5976,126.6289,96.4748z M151.9377,97.4472
		c-2.8128,9.84-14.4532,16.3008-14.9492,16.5704c-0.6096,0.332-1.2656,0.4904-1.9103,0.4904c-1.4141,0-2.7813-0.75-3.5117-2.0764
		c-1.0624-1.9336-0.3516-4.3652,1.578-5.4296c2.5628-1.412,9.5468-6.2812,11.1057-11.7716c0.6055-2.1212,0.328-4.162-0.8437-6.2384
		c-1.086-1.9236-0.4064-4.3632,1.5192-5.4492c1.93-1.0876,4.3672-0.402,5.4492,1.5196
		C152.6213,89.0488,153.1485,93.2148,151.9377,97.4472z M151.7109,48.0372c-7.7344-7.4904-19.8868,1.9648-20.0116,2.0604
		c-1.7344,1.3788-4.246,1.0764-5.6171-0.6544c-1.3713-1.7324-1.0781-4.248,0.6563-5.6188
		c6.1132-4.844,20.3708-11.3888,30.5428-1.5296c2.582,2.504,4.2264,3.5588,5.1212,4c0.7968-1.3728,2.3517-2.2148,4.0548-1.9452
		c2.1832,0.326,3.6872,2.3632,3.3632,4.5468c-0.2812,1.8828-1.6056,4.416-4.4063,5.3632c-0.7189,0.2424-1.4453,0.3516-2.1757,0.3516
		C159.0393,54.6112,154.7462,50.9804,151.7109,48.0372z M187.0705,75.1544c-3.9612,1.5136-14.1956,6.9472-14.0196,13.8084
		c0.0548,2.2092-1.6876,4.0452-3.8984,4.1016c-0.0352,0.002-0.0703,0.002-0.1016,0.002c-2.164,0-3.9416-1.7248-4-3.8964
		c-0.3556-13.9376,18.3828-21.1936,19.1796-21.4944c2.0588-0.7868,4.3672,0.252,5.1524,2.3184
		C190.1681,72.0568,189.1329,74.3672,187.0705,75.1544z"/>
	<path fill="#C6DFED" d="M144.0822,20c-29.7773,0-54,24.2248-54,54s24.2227,54,54,54c29.7771,0,54-24.2248,54-54
		S173.8593,20,144.0822,20z M144.0822,120c-25.3633,0-46-20.6348-46-46s20.6367-46,46-46c25.3631,0,46,20.6348,46,46
		S169.4453,120,144.0822,120z"/>
	<path fill="#618287" d="M93.7697,121.3712l-3.3284,3.4588l-45.1092,46.9064l-4.5624-4.5644c-0.75-0.75-1.7656-1.172-2.8284-1.172
		c-1.0624,0-2.078,0.422-2.828,1.172L1.1721,201.1132c-1.5628,1.5624-1.5628,4.094,0,5.6564l14.1404,14.1424
		c0.75,0.75,1.7657,1.172,2.828,1.172c1.0628,0,2.0784-0.422,2.8284-1.172l33.9413-33.9412c1.5627-1.5624,1.5627-4.094,0-5.6564
		l-3.9181-3.92l45.2424-47.0448l3.3008-3.4336L93.7697,121.3712z"/>
	<path fill="#9D57C4" d="M169.8205,48.8964c0.324-2.1836-1.18-4.2208-3.3632-4.5468c-1.7031-0.2696-3.258,0.5724-4.0548,1.9452
		c-0.8948-0.4412-2.5392-1.496-5.1212-4c-10.172-9.8592-24.4296-3.3144-30.5428,1.5296c-1.7344,1.3708-2.0276,3.8864-0.6563,5.6188
		c1.3711,1.7308,3.8827,2.0332,5.6171,0.6544c0.1248-0.0956,12.2772-9.5508,20.0116-2.0604
		c3.0353,2.9432,7.3284,6.574,11.5276,6.574c0.7304,0,1.4568-0.1092,2.1757-0.3516
		C168.2149,53.3124,169.5393,50.7792,169.8205,48.8964z"/>
	<path fill="#9D57C4" d="M189.3829,69.994c-0.7852-2.0664-3.0936-3.1052-5.1524-2.3184
		c-0.7968,0.3008-19.5352,7.5568-19.1796,21.4944c0.0584,2.1716,1.836,3.8964,4,3.8964c0.0313,0,0.0664,0,0.1016-0.002
		c2.2108-0.0564,3.9532-1.8924,3.8984-4.1016c-0.176-6.8612,10.0584-12.2948,14.0196-13.8084
		C189.1329,74.3672,190.1681,72.0568,189.3829,69.994z"/>
	<path fill="#9D57C4" d="M108.7462,67.334c-2.0077-0.918-4.3673-0.0352-5.2889,1.9688c-0.918,2.002-0.0431,4.3748,1.9569,5.3028
		c0.5975,0.2792,14.6131,6.9568,13.2539,21.1032c-0.2108,2.1996,1.3984,4.1524,3.5976,4.3656
		c0.1288,0.0116,0.258,0.0172,0.3868,0.0172c2.0388,0,3.7772-1.5488,3.9764-3.6168
		C128.5429,76.5976,109.5549,67.7032,108.7462,67.334z"/>
	<path fill="#9D57C4" d="M144.9257,83.5428c-1.9256,1.086-2.6052,3.5256-1.5192,5.4492c1.1717,2.0764,1.4492,4.1172,0.8437,6.2384
		c-1.5589,5.4904-8.5429,10.3596-11.1057,11.7716c-1.9296,1.0644-2.6404,3.496-1.578,5.4296
		c0.7304,1.3264,2.0976,2.0764,3.5117,2.0764c0.6447,0,1.3007-0.1584,1.9103-0.4904c0.496-0.2696,12.1364-6.7304,14.9492-16.5704
		c1.2108-4.2324,0.6836-8.3984-1.5628-12.3848C149.2929,83.1408,146.8557,82.4552,144.9257,83.5428z"/>
</g>
</svg>
