<?xml version="1.0" encoding="utf-8"?>
<!-- Generator: Adobe Illustrator 19.2.0, SVG Export Plug-In . SVG Version: 6.00 Build 0)  -->
<svg version="1.1" id="skull" xmlns="http://www.w3.org/2000/svg" xmlns:xlink="http://www.w3.org/1999/xlink" x="0px" y="0px"
	 viewBox="0 0 192 221.9431" enable-background="new 0 0 192 221.9431" xml:space="preserve">
<g>
	<path fill="#FFAE8E" d="M100.6211,2.0583c0.5352,0.9532,0.7069,2.1036,0.328,3.2188l-8,23.6564l12.4804,4.6756
		c1.2776,0.4784,2.2228,1.5744,2.508,2.9064c0.2852,1.334-0.1252,2.7204-1.094,3.6796L95.3943,51.5467
		c-0.3863,0.3848-0.8516,0.6876-1.3592,0.8868L60.2967,65.6151c-0.4804,0.1856-0.9724,0.2752-1.4567,0.2752
		c-1.5981,0-3.1097-0.9668-3.7269-2.5468c-0.8048-2.0568,0.2149-4.3768,2.2696-5.1816l32.9688-12.8788l6.4256-6.3732
		l-10.2616-3.8436c-2.0235-0.758-3.078-2.9824-2.3868-5.0276l9.2424-27.324c0.0936-0.2716,0.2732-0.4788,0.414-0.7168
		C41.8751,3.1579,0,44.8375,0,95.9431c0,35.0096,20.3243,67.5332,52,83.5664v38.4336c0,2.2088,1.7891,4,4,4h84
		c2.2107,0,4-1.7912,4-4v-40.576c29.672-16.7952,48-47.7736,48-81.424C192,45.6287,151.4179,4.4275,100.6211,2.0583z M80,205.9431
		c0,2.2088-1.7893,4-4,4c-2.2109,0-4-1.7912-4-4v-20c0-2.2088,1.7891-4,4-4c2.2107,0,4,1.7912,4,4V205.9431z M65.8943,128.8923
		c-5.5076,1.0724-11.25,2.0236-16.57,2.0236c-1.2424,0-2.4652-0.0528-3.6523-0.168c-10.9689-1.0568-14.4181-7.168-15.3753-12.1096
		c-1.2927-6.6464,1.1016-15.8044,6.4064-24.496c2.6132-4.2812,9.7224-14.4376,19.2696-16.2928
		c6.7148-1.3088,14.1524,0.57,20.3788,5.152c6.0352,4.4396,10.25,10.8556,11.5584,17.6c1.3244,6.7948-0.4336,13.4568-4.9452,18.7576
		C78.8751,124.1639,72.8123,127.5487,65.8943,128.8923z M84,133.9431h8v16h-8V133.9431z M100,205.9431c0,2.2088-1.7893,4-4,4
		c-2.2109,0-4-1.7912-4-4v-20c0-2.2088,1.7891-4,4-4c2.2107,0,4,1.7912,4,4V205.9431z M108,149.9431h-8v-16h8V149.9431z
		 M120,205.9431c0,2.2088-1.7893,4-4,4c-2.2109,0-4-1.7912-4-4v-20c0-2.2088,1.7891-4,4-4c2.2107,0,4,1.7912,4,4V205.9431z
		 M161.7031,118.6403c-0.9572,4.9396-4.4064,11.0508-15.3751,12.1076c-1.1873,0.1152-2.4101,0.168-3.6525,0.168
		c-5.32,0-11.0624-0.9512-16.57-2.0236c-6.918-1.3436-12.9804-4.7284-17.0704-9.5332c-4.5116-5.3008-6.2696-11.9628-4.9452-18.7596
		c1.3084-6.7424,5.5232-13.1564,11.5584-17.598c6.2268-4.582,13.66-6.4684,20.3752-5.152
		c9.5508,1.8552,16.66,12.0116,19.2732,16.2928C160.6015,102.8339,162.996,111.9919,161.7031,118.6403z"/>
	<path fill="#FFDC82" d="M87.9099,100.6015c-1.3084-6.7444-5.5232-13.1604-11.5584-17.6c-6.2264-4.582-13.664-6.4608-20.3788-5.152
		c-9.5472,1.8552-16.6564,12.0116-19.2696,16.2928c-5.3048,8.6916-7.6991,17.8496-6.4064,24.496
		c0.9572,4.9416,4.4064,11.0528,15.3753,12.1096c1.1871,0.1152,2.4099,0.168,3.6523,0.168c5.32,0,11.0624-0.9512,16.57-2.0236
		c6.918-1.3436,12.9808-4.7284,17.0704-9.5332C87.4763,114.0583,89.2343,107.3963,87.9099,100.6015z"/>
	<path fill="#FFDC82" d="M136.0235,77.8495c-6.7152-1.3164-14.1484,0.57-20.3752,5.152c-6.0352,4.4416-10.25,10.8556-11.5584,17.598
		c-1.3244,6.7968,0.4336,13.4588,4.9452,18.7596c4.09,4.8048,10.1524,8.1896,17.0704,9.5332
		c5.5076,1.0724,11.25,2.0236,16.57,2.0236c1.2424,0,2.4652-0.0528,3.6525-0.168c10.9687-1.0568,14.4179-7.168,15.3751-12.1076
		c1.2929-6.6484-1.1016-15.8064-6.4064-24.498C152.6835,89.8611,145.5743,79.7047,136.0235,77.8495z"/>
	<path fill="#FFDC82" d="M76,181.9431c-2.2109,0-4,1.7912-4,4v20c0,2.2088,1.7891,4,4,4c2.2107,0,4-1.7912,4-4v-20
		C80,183.7343,78.2107,181.9431,76,181.9431z"/>
	<path fill="#FFDC82" d="M116,181.9431c-2.2109,0-4,1.7912-4,4v20c0,2.2088,1.7891,4,4,4c2.2107,0,4-1.7912,4-4v-20
		C120,183.7343,118.2107,181.9431,116,181.9431z"/>
	<path fill="#FFDC82" d="M96,181.9431c-2.2109,0-4,1.7912-4,4v20c0,2.2088,1.7891,4,4,4c2.2107,0,4-1.7912,4-4v-20
		C100,183.7343,98.2107,181.9431,96,181.9431z"/>
	<rect x="84" y="133.9431" fill="#FFDC82" width="8" height="16"/>
	<rect x="100" y="133.9431" fill="#FFDC82" width="8" height="16"/>
	<path fill="#FFDC82" d="M84.1287,30.0387c-0.6912,2.0452,0.3633,4.2696,2.3868,5.0276l10.2616,3.8436l-6.4256,6.3732
		L57.3827,58.1619c-2.0547,0.8048-3.0744,3.1248-2.2696,5.1816c0.6172,1.58,2.1288,2.5468,3.7269,2.5468
		c0.4843,0,0.9763-0.0896,1.4567-0.2752l33.7384-13.1816c0.5076-0.1992,0.9729-0.502,1.3592-0.8868l11.4492-11.3516
		c0.9688-0.9592,1.3792-2.3456,1.094-3.6796c-0.2852-1.332-1.2304-2.428-2.508-2.9064l-12.4804-4.6756l8-23.6564
		c0.3789-1.1152,0.2072-2.2656-0.328-3.2188c-0.4688-0.834-1.2032-1.5216-2.1796-1.8516c-1.8204-0.6192-3.7112,0.2032-4.6564,1.7912
		c-0.1408,0.238-0.3204,0.4452-0.414,0.7168L84.1287,30.0387z"/>
</g>
</svg>
