<?xml version="1.0" encoding="utf-8"?>
<!-- Generator: Adobe Illustrator 19.2.0, SVG Export Plug-In . SVG Version: 6.00 Build 0)  -->
<svg version="1.1" id="skullbottle" xmlns="http://www.w3.org/2000/svg" xmlns:xlink="http://www.w3.org/1999/xlink" x="0px"
	 y="0px" viewBox="0 0 136 220" enable-background="new 0 0 136 220" xml:space="preserve">
<g>
	<path fill="#FCC24C" d="M132,68c-18.5,0-33.7657-14.0272-35.7657-32H39.7655C37.7655,53.9728,22.496,68,4,68
		c-2.2109,0-4,1.7912-4,4v132h136V72C136,69.7912,134.2107,68,132,68z M92,160.8828V180c0,2.2088-1.7893,4-4,4H72v-18h-8v18H48
		c-2.2109,0-4-1.7912-4-4v-19.1172c-12.3945-8.084-20-22.008-20-36.8828c0-24.2616,19.7383-44,44-44c24.2615,0,44,19.7384,44,44
		C112,138.8748,104.3943,152.7988,92,160.8828z"/>
	<polygon fill="#618287" points="0,212 0,220 136,220 136,212 136,204 0,204 	"/>
	<path fill="#FF6B97" d="M68,80c-24.2617,0-44,19.7384-44,44c0,14.8748,7.6055,28.7988,20,36.8828V180c0,2.2088,1.7891,4,4,4h16v-18
		h8v18h16c2.2107,0,4-1.7912,4-4v-19.1172c12.3943-8.084,20-22.008,20-36.8828C112,99.7384,92.2615,80,68,80z M52,132
		c-6.6173,0-12-5.3828-12-12s5.3827-12,12-12c6.6171,0,12,5.3828,12,12S58.6171,132,52,132z M84,132c-6.6173,0-12-5.3828-12-12
		s5.3827-12,12-12c6.6171,0,12,5.3828,12,12S90.6171,132,84,132z"/>
	<path fill="#FCC24C" d="M52,108c-6.6173,0-12,5.3828-12,12s5.3827,12,12,12c6.6171,0,12-5.3828,12-12S58.6171,108,52,108z"/>
	<path fill="#FCC24C" d="M84,108c-6.6173,0-12,5.3828-12,12s5.3827,12,12,12c6.6171,0,12-5.3828,12-12S90.6171,108,84,108z"/>
	<path fill="#618287" d="M120,36c2.2107,0,4-1.7912,4-4V4c0-2.2088-1.7893-4-4-4H16c-2.2109,0-4,1.7912-4,4v28
		c0,2.2088,1.7891,4,4,4h23.7655h56.4688H120z"/>
</g>
</svg>
