<?xml version="1.0" encoding="utf-8"?>
<!-- Generator: Adobe Illustrator 19.2.0, SVG Export Plug-In . SVG Version: 6.00 Build 0)  -->
<svg version="1.1" id="smallorganism" xmlns="http://www.w3.org/2000/svg" xmlns:xlink="http://www.w3.org/1999/xlink" x="0px"
	 y="0px" viewBox="0 0 224 224" enable-background="new 0 0 224 224" xml:space="preserve">
<g>
	<circle fill="none" cx="138" cy="126" r="26"/>
	<circle fill="none" cx="112" cy="76" r="12"/>
	<circle fill="none" cx="74" cy="126" r="18"/>
	<path fill="#FD5A5A" d="M208.0235,96h-17.6252c-2.0392-9.9884-6.0196-19.5956-11.6564-28.1172l12.4688-12.4668
		c3.0196-3.0176,4.68-7.0352,4.672-11.3124c-0.004-4.2676-1.672-8.2812-4.6876-11.2988c-3.0196-3.0216-7.0388-4.6856-11.3084-4.6876
		h-0.0116c-4.2696,0-8.2776,1.658-11.2892,4.672L156.1171,45.256c-8.5236-5.6368-18.1288-9.6172-28.1171-11.6524V15.9764
		C128,7.168,120.8243,0,112,0c-8.8245,0-16,7.168-16,15.9764v17.6272c-9.9885,2.0352-19.5977,6.0176-28.1173,11.6524
		L55.4139,32.7892c-3.0116-3.014-7.0196-4.672-11.2888-4.672c-0.008,0-0.016,0-0.0196,0c-4.2735,0.006-8.2852,1.67-11.3008,4.6876
		c-3.0196,3.0196-4.6876,7.0352-4.6876,11.3084c-0.004,4.2736,1.6564,8.2872,4.672,11.3008l12.4688,12.4688
		C39.6211,76.4044,35.6407,86.0116,33.6015,96H15.9763C7.168,96,0,103.1776,0,112s7.168,16,15.9763,16h17.6252
		c2.0392,9.9884,6.0196,19.5956,11.6564,28.1172L32.7891,168.584c-3.0196,3.0176-4.68,7.0352-4.672,11.3124
		c0.004,4.2696,1.672,8.2832,4.6876,11.2988c6.238,6.2424,16.3868,6.248,22.6092,0.0176l12.4688-12.4688
		c8.5196,5.6348,18.1288,9.6172,28.1173,11.6544v17.6252C96,216.832,103.1755,224,112,224c8.8243,0,16-7.168,16-15.9764v-17.6252
		c9.9883-2.0372,19.5935-6.0196,28.1171-11.6544l12.4688,12.4688c3.0116,3.0136,7.0196,4.672,11.2852,4.672
		c0.0076,0,0.0156,0,0.0232,0c4.2737-0.006,8.2852-1.672,11.3008-4.6896c3.0196-3.0196,4.6876-7.0352,4.6876-11.3084
		c0.004-4.2716-1.6564-8.2852-4.672-11.3008l-12.4688-12.4688c5.6368-8.5216,9.6172-18.1288,11.6564-28.1172h17.6252
		C216.832,128,224,120.8224,224,112S216.832,96,208.0235,96z M208.0235,120h-20.9652c-1.9684,0-3.6404,1.4296-3.9492,3.3732
		c-1.7616,11.082-6.1836,21.7536-12.7928,30.8612c-1.1523,1.5916-0.9803,3.7872,0.41,5.1776l14.8284,14.83
		c1.5036,1.504,2.332,3.506,2.328,5.6408c0,2.1368-0.832,4.1444-2.3436,5.6564c-1.508,1.5096-3.5156,2.3416-5.6524,2.3456
		c-0.008,0-0.008,0-0.008,0c-2.1368,0-4.1368-0.8264-5.6368-2.328l-14.828-14.8304c-1.3868-1.3904-3.5859-1.5604-5.1756-0.41
		c-9.1132,6.6092-19.7852,11.0332-30.8672,12.7912c-1.9416,0.3084-3.3711,1.984-3.3711,3.9508v20.9652
		c0,4.3984-3.5901,7.9764-8,7.9764c-4.4101,0-8-3.578-8-7.9764v-20.9652c0-1.9668-1.4297-3.6424-3.3713-3.9508
		c-11.086-1.758-21.7576-6.182-30.8672-12.7912c-0.7032-0.5116-1.5272-0.7616-2.3476-0.7616c-1.0312,0-2.0548,0.3964-2.828,1.1716
		l-14.828,14.8304c-3.1096,3.1052-8.18,3.0996-11.2972-0.0176c-1.5076-1.51-2.3396-3.5176-2.3436-5.6544
		c-0.004-2.1348,0.8244-4.1388,2.328-5.6428l14.8284-14.83c1.3905-1.3904,1.5625-3.586,0.41-5.1776
		c-6.6092-9.1076-11.0312-19.7792-12.7928-30.8612C40.5819,121.4296,38.9099,120,36.9415,120H15.9763C11.5779,120,8,116.412,8,112
		s3.5779-8,7.9763-8h20.9652c1.9684,0,3.6404-1.4296,3.9492-3.3732c1.7616-11.082,6.1836-21.7536,12.7928-30.8612
		c1.1525-1.5916,0.9805-3.7872-0.41-5.1776L38.4451,49.756c-1.5036-1.502-2.332-3.504-2.328-5.6368
		c0-2.1388,0.832-4.1464,2.3436-5.6584c1.508-1.5096,3.5156-2.3416,5.6524-2.3436c0.004,0,0.008,0,0.008,0
		c2.1368,0,4.1368,0.826,5.6368,2.328l14.828,14.8284c1.3904,1.3924,3.5896,1.5664,5.1756,0.41
		c9.1096-6.6092,19.7812-11.0332,30.8636-12.7892C102.5703,40.586,104,38.91,104,36.9432V15.9764C104,11.578,107.5899,8,112,8
		c4.4099,0,8,3.578,8,7.9764v20.9668c0,1.9668,1.4295,3.6428,3.3751,3.9512c11.074,1.756,21.75,6.178,30.8632,12.7892
		c1.5897,1.1564,3.7888,0.9824,5.1756-0.41l14.828-14.8284c1.5-1.502,3.504-2.328,5.6332-2.328h0.0036
		c2.1408,0,4.1484,0.834,5.6604,2.3436c1.5076,1.51,2.3396,3.5176,2.3436,5.6544c0.004,2.1348-0.8244,4.1388-2.328,5.6428
		l-14.8284,14.83c-1.3903,1.3904-1.5623,3.586-0.41,5.1776c6.6092,9.1076,11.0312,19.7792,12.7928,30.8612
		c0.3088,1.9436,1.9808,3.3732,3.9492,3.3732h20.9652c4.3984,0,7.9765,3.588,7.9765,8S212.4219,120,208.0235,120z"/>
	<path fill="#FE7D71" d="M208.0235,104h-20.9652c-1.9684,0-3.6404-1.4296-3.9492-3.3732
		c-1.7616-11.082-6.1836-21.7536-12.7928-30.8612c-1.1523-1.5916-0.9803-3.7872,0.41-5.1776l14.8284-14.83
		c1.5036-1.504,2.332-3.508,2.328-5.6428c-0.004-2.1368-0.836-4.1444-2.3436-5.6544c-1.512-1.5096-3.5196-2.3436-5.6604-2.3436
		h-0.0036c-2.1292,0-4.1332,0.826-5.6332,2.328l-14.828,14.8284c-1.3868,1.3924-3.5859,1.5664-5.1756,0.41
		c-9.1132-6.6112-19.7892-11.0332-30.8632-12.7892C121.4295,40.586,120,38.91,120,36.9432V15.9764C120,11.578,116.4099,8,112,8
		c-4.4101,0-8,3.578-8,7.9764v20.9668c0,1.9668-1.4297,3.6428-3.3749,3.9512c-11.0824,1.756-21.754,6.18-30.8636,12.7892
		c-1.586,1.1564-3.7852,0.9824-5.1756-0.41l-14.828-14.8284c-1.5-1.502-3.5-2.328-5.6328-2.328c0,0-0.008,0-0.012,0
		c-2.1368,0.002-4.1444,0.834-5.6524,2.3436c-1.5116,1.512-2.3436,3.5196-2.3436,5.6584c-0.004,2.1328,0.8244,4.1348,2.328,5.6368
		l14.8284,14.832c1.3905,1.3904,1.5625,3.586,0.41,5.1776c-6.6092,9.1076-11.0312,19.7792-12.7928,30.8612
		C40.5819,102.5704,38.9099,104,36.9415,104H15.9763C11.5779,104,8,107.588,8,112s3.5779,8,7.9763,8h20.9652
		c1.9684,0,3.6404,1.4296,3.9492,3.3732c1.7616,11.082,6.1836,21.7536,12.7928,30.8612c1.1525,1.5916,0.9805,3.7872-0.41,5.1776
		l-14.8284,14.83c-1.5036,1.504-2.332,3.508-2.328,5.6428c0.004,2.1368,0.836,4.1444,2.3436,5.6544
		c3.1172,3.1172,8.1876,3.1228,11.2972,0.0176l14.828-14.8304c0.7732-0.7752,1.7968-1.1716,2.828-1.1716
		c0.8204,0,1.6444,0.25,2.3476,0.7616c9.1096,6.6092,19.7812,11.0332,30.8672,12.7912c1.9416,0.3084,3.3713,1.984,3.3713,3.9508
		v20.9652c0,4.3984,3.5899,7.9764,8,7.9764c4.4099,0,8-3.578,8-7.9764v-20.9652c0-1.9668,1.4295-3.6424,3.3711-3.9508
		c11.082-1.758,21.754-6.182,30.8672-12.7912c1.5897-1.1504,3.7888-0.9804,5.1756,0.41l14.828,14.8304
		c1.5,1.5016,3.5,2.328,5.6332,2.328c0,0,0.0036,0,0.0116,0c2.1368-0.004,4.1444-0.836,5.6524-2.3456
		c1.5116-1.512,2.3436-3.5196,2.3436-5.6564c0.004-2.1348-0.8244-4.1368-2.328-5.6408l-14.8284-14.83
		c-1.3903-1.3904-1.5623-3.586-0.41-5.1776c6.6092-9.1076,11.0312-19.7792,12.7928-30.8612
		c0.3088-1.9436,1.9808-3.3732,3.9492-3.3732h20.9652c4.3984,0,7.9765-3.588,7.9765-8S212.4219,104,208.0235,104z M52,112
		c0,2.2088-1.7893,4-4,4c-2.2109,0-4-1.7912-4-4c0-37.496,30.504-68,68-68c2.2107,0,4,1.7912,4,4s-1.7893,4-4,4
		C78.9139,52,52,78.916,52,112z M74,144c-9.9417,0-18-8.0604-18-18c0-9.9416,8.0583-18,18-18c9.9415,0,18,8.0584,18,18
		C92,135.9396,83.9415,144,74,144z M100,76c0-6.6288,5.3711-12,12-12c6.6287,0,12,5.3712,12,12s-5.3713,12-12,12
		C105.3711,88,100,82.6288,100,76z M138,152c-14.3593,0-26-11.6408-26-26s11.6407-26,26-26c14.3591,0,26,11.6408,26,26
		S152.3591,152,138,152z"/>
	<path fill="#FD5A5A" d="M112,52c2.2107,0,4-1.7912,4-4s-1.7893-4-4-4c-37.496,0-68,30.504-68,68c0,2.2088,1.7891,4,4,4
		c2.2107,0,4-1.7912,4-4C52,78.916,78.9139,52,112,52z"/>
</g>
</svg>
