<?xml version="1.0" encoding="utf-8"?>
<!-- Generator: Adobe Illustrator 19.2.0, SVG Export Plug-In . SVG Version: 6.00 Build 0)  -->
<svg version="1.1" id="squarestructure" xmlns="http://www.w3.org/2000/svg" xmlns:xlink="http://www.w3.org/1999/xlink" x="0px"
	 y="0px" viewBox="0 0 228 228" enable-background="new 0 0 228 228" xml:space="preserve">
<g>
	<path fill="none" d="M180.3591,28h-68.7184C109.9451,38.0272,102.0271,45.9452,92,47.6388V84h24.3591
		C118.2735,72.668,128.1327,64,140,64c13.2343,0,24,10.7656,24,24c0,11.8692-8.668,21.7264-20,23.6388V136h36.3591
		c1.6956-10.0272,9.6136-17.9452,19.6409-19.6388V47.6388C189.9727,45.9452,182.0547,38.0272,180.3591,28z"/>
	<path fill="none" d="M116.3591,92H92v24.3612c10.0271,1.6936,17.9451,9.6116,19.6407,19.6388H136v-24.3612
		C125.9727,109.9452,118.0547,102.0272,116.3591,92z"/>
	<path fill="none" d="M88,164c-13.2345,0-24-10.7656-24-24c0-11.8692,8.668-21.7264,20-23.6388V92H47.6407
		C45.9451,102.0272,38.0271,109.9452,28,111.6388v68.7224c10.0271,1.6936,17.9451,9.6116,19.6407,19.6388h68.7184
		c1.6956-10.0272,9.6136-17.9452,19.6409-19.6388V144h-24.3593C109.7263,155.332,99.8671,164,88,164z"/>
	<path fill="#F8A131" d="M200,47.6388v68.7224c1.3047-0.2204,2.6327-0.3612,4-0.3612c1.3671,0,2.6951,0.1408,4,0.3612V47.6388
		C206.6951,47.8592,205.3671,48,204,48C202.6327,48,201.3047,47.8592,200,47.6388z"/>
	<path fill="#F8A131" d="M111.6407,28h68.7184C180.1407,26.6952,180,25.3652,180,24s0.1407-2.6952,0.3591-4h-68.7184
		C111.8591,21.3048,112,22.6348,112,24S111.8591,26.6952,111.6407,28z"/>
	<path fill="#F8A131" d="M180.3591,136H144v-24.3612c-1.3049,0.2204-2.6329,0.3612-4,0.3612c-1.3673,0-2.6953-0.1408-4-0.3612V136
		h-24.3593c0.2184,1.3048,0.3593,2.6348,0.3593,4s-0.1409,2.6952-0.3593,4H136v36.3612c1.3047-0.2204,2.6327-0.3612,4-0.3612
		c1.3671,0,2.6951,0.1408,4,0.3612V144h36.3591c-0.2184-1.3048-0.3591-2.6348-0.3591-4S180.1407,137.3048,180.3591,136z"/>
	<path fill="#E06C3E" d="M180.3591,28c1.6956,10.0272,9.6136,17.9452,19.6409,19.6388C201.3047,47.8592,202.6327,48,204,48
		c1.3671,0,2.6951-0.1408,4-0.3612C219.332,45.7264,228,35.8692,228,24c0-13.2344-10.7657-24-24-24
		c-11.8673,0-21.7265,8.668-23.6409,20C180.1407,21.3048,180,22.6348,180,24S180.1407,26.6952,180.3591,28z"/>
	<path fill="#E06C3E" d="M92,47.6388c10.0271-1.6936,17.9451-9.6116,19.6407-19.6388C111.8591,26.6952,112,25.3652,112,24
		s-0.1409-2.6952-0.3593-4C109.7263,8.668,99.8671,0,88,0C74.7655,0,64,10.7656,64,24c0,11.8692,8.668,21.7264,20,23.6388
		C85.3047,47.8592,86.6327,48,88,48C89.3671,48,90.6951,47.8592,92,47.6388z"/>
	<path fill="#E06C3E" d="M208,116.3612c-1.3049-0.2204-2.6329-0.3612-4-0.3612c-1.3673,0-2.6953,0.1408-4,0.3612
		c-10.0273,1.6936-17.9453,9.6116-19.6409,19.6388c-0.2184,1.3048-0.3591,2.6348-0.3591,4s0.1407,2.6952,0.3591,4
		c1.9144,11.332,11.7736,20,23.6409,20c13.2343,0,24-10.7656,24-24C228,128.1308,219.332,118.2736,208,116.3612z"/>
	<path fill="#E06C3E" d="M92,116.3612C90.6951,116.1408,89.3671,116,88,116c-1.3673,0-2.6953,0.1408-4,0.3612
		C72.668,118.2736,64,128.1308,64,140c0,13.2344,10.7655,24,24,24c11.8671,0,21.7263-8.668,23.6407-20
		c0.2184-1.3048,0.3593-2.6348,0.3593-4s-0.1409-2.6952-0.3593-4C109.9451,125.9728,102.0271,118.0548,92,116.3612z"/>
	<path fill="#F8A131" d="M28,180.3612v-68.7224C26.6951,111.8592,25.3671,112,24,112c-1.3673,0-2.6953-0.1408-4-0.3612v68.7224
		C21.3047,180.1408,22.6327,180,24,180C25.3671,180,26.6951,180.1408,28,180.3612z"/>
	<path fill="#F8A131" d="M116.3591,200H47.6407C47.8591,201.3048,48,202.6348,48,204s-0.1409,2.6952-0.3593,4h68.7184
		c-0.2184-1.3048-0.3591-2.6348-0.3591-4S116.1407,201.3048,116.3591,200z"/>
	<path fill="#F8A131" d="M47.6407,92H84v24.3612C85.3047,116.1408,86.6327,116,88,116c1.3671,0,2.6951,0.1408,4,0.3612V92h24.3591
		C116.1407,90.6952,116,89.3652,116,88s0.1407-2.6952,0.3591-4H92V47.6388C90.6951,47.8592,89.3671,48,88,48
		c-1.3673,0-2.6953-0.1408-4-0.3612V84H47.6407C47.8591,85.3048,48,86.6348,48,88S47.8591,90.6952,47.6407,92z"/>
	<path fill="#FE8657" d="M164,88c0-13.2344-10.7657-24-24-24c-11.8673,0-21.7265,8.668-23.6409,20
		C116.1407,85.3048,116,86.6348,116,88s0.1407,2.6952,0.3591,4c1.6956,10.0272,9.6136,17.9452,19.6409,19.6388
		c1.3047,0.2204,2.6327,0.3612,4,0.3612c1.3671,0,2.6951-0.1408,4-0.3612C155.332,109.7264,164,99.8692,164,88z"/>
	<path fill="#FE8657" d="M28,111.6388C38.0271,109.9452,45.9451,102.0272,47.6407,92C47.8591,90.6952,48,89.3652,48,88
		s-0.1409-2.6952-0.3593-4C45.7263,72.668,35.8671,64,24,64C10.7655,64,0,74.7656,0,88c0,11.8692,8.668,21.7264,20,23.6388
		C21.3047,111.8592,22.6327,112,24,112C25.3671,112,26.6951,111.8592,28,111.6388z"/>
	<path fill="#FE8657" d="M136,180.3612c-10.0273,1.6936-17.9453,9.6116-19.6409,19.6388c-0.2184,1.3048-0.3591,2.6348-0.3591,4
		s0.1407,2.6952,0.3591,4c1.9144,11.332,11.7736,20,23.6409,20c13.2343,0,24-10.7656,24-24c0-11.8692-8.668-21.7264-20-23.6388
		c-1.3049-0.2204-2.6329-0.3612-4-0.3612C138.6327,180,137.3047,180.1408,136,180.3612z"/>
	<path fill="#FE8657" d="M47.6407,200C45.9451,189.9728,38.0271,182.0548,28,180.3612C26.6951,180.1408,25.3671,180,24,180
		c-1.3673,0-2.6953,0.1408-4,0.3612C8.668,182.2736,0,192.1308,0,204c0,13.2344,10.7655,24,24,24
		c11.8671,0,21.7263-8.668,23.6407-20C47.8591,206.6952,48,205.3652,48,204S47.8591,201.3048,47.6407,200z"/>
</g>
</svg>
