<?xml version="1.0" encoding="utf-8"?>
<!-- Generator: Adobe Illustrator 19.2.0, SVG Export Plug-In . SVG Version: 6.00 Build 0)  -->
<svg version="1.1" id="star" xmlns="http://www.w3.org/2000/svg" xmlns:xlink="http://www.w3.org/1999/xlink" x="0px" y="0px"
	 viewBox="0 0 224 224" enable-background="new 0 0 224 224" xml:space="preserve">
<g>
	<path fill="#FD5A5A" d="M112,0C50.242,0,0,50.242,0,112s50.242,112,112,112s112-50.242,112-112S173.758,0,112,0z M134.7752,83.5664
		l36.4512-36.4492c1.5628-1.5624,4.094-1.5624,5.6564,0c1.5624,1.5624,1.5624,4.0936,0,5.6564l-36.4512,36.4492
		c-0.7812,0.7812-1.8048,1.1716-2.828,1.1716c-1.0236,0-2.0468-0.3904-2.8284-1.1716
		C133.2128,87.66,133.2128,85.1288,134.7752,83.5664z M144.2968,202.9608c-3.8884,8.9336-10.7888,13.8712-19.5252,13.8712
		c-61.758,0-112-50.242-112-112c0-8.078,3.9372-14.7384,11.1112-19.242C35.2616,47.6952,70.4492,20,112,20c2.2088,0,4,1.7892,4,4
		s-1.7912,4-4,4c-35.4824,0-65.826,22.1484-78.1152,53.3164c18.252-4.9572,45.66-0.508,68.088,13.9648L112,74.9608l10.8848,22.0588
		l24.34,3.5352l-17.6136,17.168l1.2696,7.402c13.83,22.3832,19.4356,49.4844,16.1916,68.2424
		C178.1212,180.3828,200,149.7072,200,114c0-2.2108,1.7912-4,4-4c2.2088,0,4,1.7892,4,4
		C208,155.2304,181.3028,190.3244,144.2968,202.9608z"/>
	<path fill="#FE7D71" d="M110,204c0-2.2108,1.7912-4,4-4c11.7168,0,22.8848-2.3712,33.0724-6.6328
		c3.244-18.758-2.3616-45.8592-16.1916-68.2424l2.8888,16.84L112,130.5196l-21.7716,11.4452l4.1584-24.242l-17.6116-17.168
		l24.34-3.5352l0.8576-1.7384c-22.428-14.4728-49.836-18.922-68.088-13.9648C30.1328,90.836,28,101.164,28,112
		c0,2.2108-1.7912,4-4,4c-2.2088,0-4-1.7892-4-4c0-9.1796,1.3692-18.0392,3.8828-26.41c-7.174,4.5036-11.1112,11.164-11.1112,19.242
		c0,61.758,50.242,112,112,112c8.7364,0,15.6368-4.9376,19.5252-13.8712C134.7832,206.2108,124.5996,208,114,208
		C111.7912,208,110,206.2108,110,204z M84.2248,147.828l-32.3204,32.3204c-0.7812,0.7812-1.8048,1.172-2.8284,1.172
		c-1.0232,0-2.0468-0.3908-2.828-1.172c-1.5624-1.5624-1.5624-4.0936,0-5.6564l32.3204-32.32c1.5624-1.5628,4.0936-1.5628,5.6564,0
		C85.7872,143.7344,85.7872,146.2656,84.2248,147.828z"/>
	<polygon fill="#D8F768" points="76.7752,100.5548 94.3868,117.7228 90.2284,141.9648 112,130.5196 133.7696,141.9648 
		130.8808,125.1248 129.6112,117.7228 147.2248,100.5548 122.8848,97.0196 112,74.9608 101.9728,95.2812 101.1152,97.0196 	"/>
	<path fill="#FFDC82" d="M204,110c-2.2088,0-4,1.7892-4,4c0,35.7072-21.8788,66.3828-52.9276,79.3672
		C136.8848,197.6288,125.7168,200,114,200c-2.2088,0-4,1.7892-4,4s1.7912,4,4,4c10.5996,0,20.7832-1.7892,30.2968-5.0392
		C181.3028,190.3244,208,155.2304,208,114C208,111.7892,206.2088,110,204,110z"/>
	<path fill="#FFDC82" d="M24,116c2.2088,0,4-1.7892,4-4c0-10.836,2.1328-21.164,5.8848-30.6836C46.174,50.1484,76.5176,28,112,28
		c2.2088,0,4-1.7892,4-4s-1.7912-4-4-4c-41.5508,0-76.7384,27.6952-88.1172,65.59C21.3692,93.9608,20,102.8204,20,112
		C20,114.2108,21.7912,116,24,116z"/>
	<path fill="#FFDC82" d="M137.6036,90.3944c1.0232,0,2.0468-0.3904,2.828-1.1716l36.4512-36.4492
		c1.5624-1.5628,1.5624-4.094,0-5.6564c-1.5624-1.5624-4.0936-1.5624-5.6564,0l-36.4512,36.4492
		c-1.5624,1.5624-1.5624,4.0936,0,5.6564C135.5568,90.004,136.58,90.3944,137.6036,90.3944z"/>
	<path fill="#FFDC82" d="M78.5684,142.172l-32.3204,32.32c-1.5624,1.5628-1.5624,4.094,0,5.6564
		c0.7812,0.7812,1.8048,1.172,2.828,1.172c1.0236,0,2.0472-0.3908,2.8284-1.172l32.3204-32.3204
		c1.5624-1.5624,1.5624-4.0936,0-5.656C82.662,140.6092,80.1308,140.6092,78.5684,142.172z"/>
</g>
</svg>
