<?xml version="1.0" encoding="utf-8"?>
<!-- Generator: Adobe Illustrator 19.2.0, SVG Export Plug-In . SVG Version: 6.00 Build 0)  -->
<svg version="1.1" id="structurechemical" xmlns="http://www.w3.org/2000/svg" xmlns:xlink="http://www.w3.org/1999/xlink" x="0px"
	 y="0px" viewBox="0 0 216 224" enable-background="new 0 0 216 224" xml:space="preserve">
<g>
	<path fill="#FFDC82" d="M98,104c-7.7188,0-14,6.2812-14,14s6.2812,14,14,14s14-6.2812,14-14S105.7188,104,98,104z"/>
	<path fill="#746DE0" d="M170.4004,174.25l-28.1836-25.6408C145.8612,142.582,148,135.5448,148,128
		c0-20.7072-15.8144-37.7832-36-39.7968V55.6816C110.6896,55.8692,109.3612,56,108,56s-2.6896-0.1308-4-0.3184v32.5216
		C83.8144,90.2168,68,107.2928,68,128c0,7.5428,2.1368,14.578,5.7792,20.6056l-27.9452,25.826
		c2.0604,1.7072,3.8748,3.7012,5.3768,5.924l27.3968-25.3184C85.922,162.9844,96.3732,168,108,168s22.078-5.0156,29.3944-12.9628
		l27.5704,25.084C166.4904,177.914,168.3224,175.9376,170.4004,174.25z M98,132c-7.7188,0-14-6.2812-14-14s6.2812-14,14-14
		s14,6.2812,14,14S105.7188,132,98,132z"/>
	<path fill="#A8A9BA" d="M188,168c-6.664,0-12.7852,2.3496-17.5996,6.25c-2.078,1.6876-3.91,3.664-5.4356,5.8712
		C161.8416,184.6368,160,190.1056,160,196c0,15.4396,12.5604,28,28,28s28-12.5604,28-28S203.4396,168,188,168z M188,188
		c-4.412,0-8,3.588-8,8c0,2.2088-1.7912,4-4,4s-4-1.7912-4-4c0-8.8224,7.1776-16,16-16c2.2088,0,4,1.7912,4,4S190.2088,188,188,188z
		"/>
	<path fill="#618287" d="M188,180c-8.8224,0-16,7.1776-16,16c0,2.2088,1.7912,4,4,4s4-1.7912,4-4c0-4.412,3.588-8,8-8
		c2.2088,0,4-1.7912,4-4S190.2088,180,188,180z"/>
	<path fill="#A8A9BA" d="M45.834,174.4316C40.9864,170.418,34.7716,168,28,168c-15.4396,0-28,12.5604-28,28s12.5604,28,28,28
		s28-12.5604,28-28c0-5.7892-1.7676-11.1756-4.7892-15.6444C49.7088,178.1328,47.8944,176.1388,45.834,174.4316z M28,188
		c-4.412,0-8,3.588-8,8c0,2.2088-1.7912,4-4,4s-4-1.7912-4-4c0-8.8224,7.1776-16,16-16c2.2088,0,4,1.7912,4,4S30.2088,188,28,188z"
		/>
	<path fill="#618287" d="M28,180c-8.8224,0-16,7.1776-16,16c0,2.2088,1.7912,4,4,4s4-1.7912,4-4c0-4.412,3.588-8,8-8
		c2.2088,0,4-1.7912,4-4S30.2088,180,28,180z"/>
	<path fill="#A8A9BA" d="M112,55.6816C125.5468,53.7304,136,42.078,136,28c0-15.4396-12.5604-28-28-28S80,12.5604,80,28
		c0,14.078,10.4532,25.7304,24,27.6816C105.3104,55.8692,106.6388,56,108,56S110.6896,55.8692,112,55.6816z M100,28
		c0,2.2088-1.7912,4-4,4s-4-1.7912-4-4c0-8.8224,7.1776-16,16-16c2.2088,0,4,1.7912,4,4s-1.7912,4-4,4C103.588,20,100,23.588,100,28
		z"/>
	<path fill="#618287" d="M112,16c0-2.2088-1.7912-4-4-4c-8.8224,0-16,7.1776-16,16c0,2.2088,1.7912,4,4,4s4-1.7912,4-4
		c0-4.412,3.588-8,8-8C110.2088,20,112,18.2088,112,16z"/>
</g>
</svg>
