<?xml version="1.0" encoding="utf-8"?>
<!-- Generator: Adobe Illustrator 19.2.0, SVG Export Plug-In . SVG Version: 6.00 Build 0)  -->
<svg version="1.1" id="structure" xmlns="http://www.w3.org/2000/svg" xmlns:xlink="http://www.w3.org/1999/xlink" x="0px" y="0px"
	 viewBox="0 0 224 234" enable-background="new 0 0 224 234" xml:space="preserve">
<g>
	<path fill="none" d="M80.996,71.6993c-1.1112,1.9256-3.1268,3-5.2012,3c-1.0176,0-2.0488-0.2576-2.994-0.8048
		c-2.8692-1.656-3.8536-5.324-2.1952-8.1952L72.742,62H39.5956c-0.904,4.4377-3.3376,8.2773-6.654,11.1213
		c0.1248,0.1524,0.2888,0.2616,0.3924,0.4372L81.8964,156h12.3028c3.3144,0,6,2.6877,6,6c0,3.3125-2.6856,6-6,6h-5.2344
		l16.092,27.3165C107.2284,194.504,109.5488,194,112,194c2.09,0,4.0644,0.4101,5.9608,1.008l48.6016-82.504l-5.7576-9.9727
		c-1.6584-2.8713-0.674-6.5393,2.1952-8.1953c2.8732-1.6603,6.5412-0.676,8.1952,2.1953l2.3632,4.0936l16.6272-28.2264
		c-2.8772-2.7576-4.9552-6.3436-5.7812-10.3985H86.5956L80.996,71.6993z M70.996,89.0197l-8,13.8552
		c-1.1112,1.926-3.1268,3-5.2012,3c-1.0176,0-2.0488-0.2576-2.994-0.8044c-2.8692-1.6564-3.8536-5.3244-2.1952-8.1956l8-13.8552
		c1.66-2.8712,5.326-3.8517,8.1952-2.1952C71.67,82.4805,72.6544,86.1485,70.996,89.0197z M145,63.16
		c2.8732-1.656,6.5392-0.6755,8.1952,2.1957l8,13.8552c1.6584,2.8712,0.674,6.5392-2.1952,8.1956
		c-0.9452,0.5468-1.9764,0.8044-2.994,0.8044c-2.0744,0-4.09-1.074-5.2012-3l-8-13.8552
		C141.1464,68.4845,142.1308,64.8165,145,63.16z M114.1992,156h16c3.3144,0,6,2.6877,6,6c0,3.3125-2.6856,6-6,6h-16
		c-3.3144,0-6-2.6875-6-6C108.1992,158.6877,110.8848,156,114.1992,156z"/>
	<path fill="#FE8657" d="M72.8008,73.8945c0.9452,0.5472,1.9764,0.8048,2.994,0.8048c2.0744,0,4.09-1.0744,5.2012-3L86.5956,62
		H72.742l-2.1364,3.6993C68.9472,68.5705,69.9316,72.2385,72.8008,73.8945z"/>
	<path fill="#FE8657" d="M143.1972,48.0353l-8-13.8596c-1.6544-2.8672-5.322-3.8512-8.1972-2.1952
		c-2.8692,1.6564-3.8536,5.3244-2.1972,8.1952L132.7832,54h10.4044C144.2088,52.2109,144.3028,49.9493,143.1972,48.0353z"/>
	<path fill="#FE8657" d="M86.8008,49.6485c-2.8712-1.66-6.5392-0.672-8.1952,2.1952L77.3612,54h12.3536
		C89.4628,52.2421,88.4588,50.6057,86.8008,49.6485z"/>
	<path fill="#FE8657" d="M100.1992,162c0-3.3123-2.6856-6-6-6H81.8964l7.0684,12h5.2344C97.5136,168,100.1992,165.3125,100.1992,162
		z"/>
	<path fill="#FE8657" d="M192.006,150.5625c1.0176,0,2.0488-0.2576,2.994-0.8044c2.8692-1.6564,3.8536-5.3244,2.1952-8.1956
		l-8-13.8552c-1.654-2.8673-5.3184-3.8516-8.1952-2.1956c-2.8692,1.6563-3.8536,5.3243-2.1952,8.1956l8,13.8552
		C187.916,149.4885,189.9316,150.5625,192.006,150.5625z"/>
	<path fill="#FE8657" d="M42.6036,114.1953l-8,13.8596c-1.6564,2.8708-0.672,6.5388,2.1972,8.1952
		c0.9452,0.5468,1.9764,0.8048,2.994,0.8048c2.0744,0,4.092-1.0744,5.2032-3l7.2676-12.59l-5.9376-10.078
		C44.8144,111.7697,43.4472,112.7345,42.6036,114.1953z"/>
	<path fill="#FE8657" d="M114.1992,168h16c3.3144,0,6-2.6875,6-6c0-3.3123-2.6856-6-6-6h-16c-3.3144,0-6,2.6877-6,6
		C108.1992,165.3125,110.8848,168,114.1992,168z"/>
	<path fill="#FE8657" d="M150.8048,85.2109c1.1112,1.926,3.1268,3,5.2012,3c1.0176,0,2.0488-0.2576,2.994-0.8044
		c2.8692-1.6564,3.8536-5.3244,2.1952-8.1956l-8-13.8552c-1.656-2.8712-5.322-3.8517-8.1952-2.1957
		c-2.8692,1.6565-3.8536,5.3245-2.1952,8.1957L150.8048,85.2109z"/>
	<path fill="#FE8657" d="M68.8008,80.8245c-2.8692-1.6565-6.5352-0.676-8.1952,2.1952l-8,13.8552
		c-1.6584,2.8712-0.674,6.5392,2.1952,8.1956c0.9452,0.5468,1.9764,0.8044,2.994,0.8044c2.0744,0,4.09-1.074,5.2012-3l8-13.8552
		C72.6544,86.1485,71.67,82.4805,68.8008,80.8245z"/>
	<path fill="#FE8657" d="M163,94.336c-2.8692,1.656-3.8536,5.324-2.1952,8.1953l5.7576,9.9727l6.996-11.8791l-2.3632-4.0936
		C169.5412,93.66,165.8732,92.6757,163,94.336z"/>
	<path fill="#FE8657" d="M114.8048,22.8557c1.1112,1.9256,3.1268,3,5.2012,3c1.0176,0,2.0488-0.258,2.994-0.8048
		c2.8692-1.6564,3.8536-5.3244,2.1952-8.1952l-8-13.8557c-1.07-1.8555-3.0488-3-5.1912-3H112c-2.1408,0-4.1172,1.1409-5.1916,2.992
		l-0.1992,0.344c-1.3808,2.3829-0.8688,5.2033,0.9904,7.0429L114.8048,22.8557z"/>
	<path fill="#FE8657" d="M72.1992,162c0,3.3125,2.6856,6,6,6h1.4784l-5.9024-10.0235C72.8048,159.0429,72.1992,160.4453,72.1992,162
		z"/>
	<path fill="#FE8657" d="M90.8008,42.7189c0.9452,0.5468,1.9764,0.8048,2.994,0.8048c2.0744,0,4.09-1.0744,5.2012-3l8-13.8557
		c1.6584-2.8711,0.674-6.5391-2.1952-8.1951c-2.8712-1.6564-6.5372-0.672-8.1952,2.1951l-8,13.8557
		C86.9472,37.3945,87.9316,41.0625,90.8008,42.7189z"/>
	<path fill="#FE8657" d="M58.1992,156h-16c-3.3144,0-6,2.6877-6,6c0,3.3125,2.6856,6,6,6h16c3.3144,0,6-2.6875,6-6
		C64.1992,158.6877,61.5136,156,58.1992,156z"/>
	<path fill="#FE8657" d="M32.8008,143.1797c-2.8672-1.66-6.5372-0.6757-8.1952,2.1952L16.7384,159c-1.0724,1.8557-1.0724,4.1445,0,6
		c1.07,1.8557,3.0508,3,5.1952,3h0.2656c2.662,0,4.832-1.7343,5.584-4.1327l7.2128-12.4924
		C36.6544,148.504,35.67,144.836,32.8008,143.1797z"/>
	<path fill="#FE8657" d="M174.006,119.3869c1.0176,0,2.0488-0.258,2.994-0.8048c2.8692-1.6564,3.8536-5.324,2.1952-8.1952
		l-1.0388-1.8008l-6.1368,10.4179C172.66,119.2305,173.3224,119.3869,174.006,119.3869z"/>
	<path fill="#FE8657" d="M207.2208,158.9257c-1.2636-2.2264-3.7384-3.3164-6.092-2.9257h-14.9296c-3.3144,0-6,2.6877-6,6
		c0,3.3125,2.6856,6,6,6h15.8672c2.1348,0,4.1092-1.1327,5.1836-2.9803c1.076-1.844,1.09-4.1212,0.0372-5.9768L207.2208,158.9257z"
		/>
	<path fill="#FE8657" d="M150.1992,168h16c3.3144,0,6-2.6875,6-6c0-3.3123-2.6856-6-6-6h-15.9728l-5.246,8.9065
		C146.006,166.7421,147.9452,168,150.1992,168z"/>
	<path fill="#9D57C4" d="M88.9648,168l-7.0684-12L33.334,73.5585c-0.1036-0.1756-0.2676-0.2848-0.3924-0.4372
		c-1.9632,1.6836-4.2364,2.9724-6.7444,3.7968c0.084,0.2344,0.1112,0.4804,0.2424,0.7032l19.8884,33.7656l5.9376,10.078
		l21.5096,36.5116L79.6776,168l18.5804,31.5393c1.9392-1.844,4.246-3.2736,6.7988-4.2228L88.9648,168z"/>
	<path fill="#9D57C4" d="M39.5956,62H72.742h13.8536h97.8088C184.1408,60.7073,184,59.3713,184,58c0-1.3711,0.1408-2.7071,0.4044-4
		h-41.2168h-10.4044H89.7148H77.3612H39.5956C39.8592,55.2929,40,56.6289,40,58C40,59.3713,39.8592,60.7073,39.5956,62z"/>
	<path fill="#9D57C4" d="M173.5584,100.6249l-6.996,11.8791l-48.6016,82.504c2.6076,0.824,4.9708,2.1445,6.998,3.8865
		l20.0216-33.988l5.246-8.9065l21.7932-36.996l6.1368-10.4179l18.8084-31.9296c-2.5468-0.9648-4.8476-2.4024-6.7792-4.258
		L173.5584,100.6249z"/>
	<path fill="#BDB9FF" d="M112,194c-2.4512,0-4.7716,0.504-6.9432,1.3165c-2.5528,0.9492-4.8596,2.3788-6.7988,4.2228
		C94.422,203.1877,92,208.3049,92,214c0,11.0273,8.9728,20,20,20s20-8.9727,20-20c0-6.0623-2.7676-11.4335-7.0412-15.1055
		c-2.0272-1.742-4.3904-3.0625-6.998-3.8865C116.0644,194.4101,114.09,194,112,194z"/>
	<path fill="#BDB9FF" d="M204,38c-9.6584,0-17.7364,6.8829-19.5956,16C184.1408,55.2929,184,56.6289,184,58
		c0,1.3713,0.1408,2.7073,0.4044,4c0.826,4.0549,2.904,7.6409,5.7812,10.3985c1.9316,1.8556,4.2324,3.2932,6.7792,4.258
		C199.162,77.4885,201.5156,78,204,78c11.0272,0,20-8.9727,20-20C224,46.9729,215.0272,38,204,38z"/>
	<path fill="#BDB9FF" d="M39.5956,62C39.8592,60.7073,40,59.3713,40,58c0-1.3711-0.1408-2.7071-0.4044-4
		C37.7364,44.8829,29.6584,38,20,38C8.9728,38,0,46.9729,0,58c0,11.0273,8.9728,20,20,20c2.1756,0,4.2324-0.4375,6.1972-1.0819
		c2.508-0.8244,4.7812-2.1132,6.7444-3.7968C36.258,70.2773,38.6916,66.4377,39.5956,62z"/>
</g>
</svg>
