<?xml version="1.0" encoding="utf-8"?>
<!-- Generator: Adobe Illustrator 19.2.0, SVG Export Plug-In . SVG Version: 6.00 Build 0)  -->
<svg version="1.1" id="sun" xmlns="http://www.w3.org/2000/svg" xmlns:xlink="http://www.w3.org/1999/xlink" x="0px" y="0px"
	 viewBox="0 0 180.492 214" enable-background="new 0 0 180.492 214" xml:space="preserve">
<g>
	<path fill="#9D57C4" d="M176.492,94h-14.9649c0.2932,2.6288,0.4729,5.2928,0.4729,8h14.492c2.2111,0,4-1.7892,4-4
		S178.7031,94,176.492,94z"/>
	<path fill="#9D57C4" d="M4,94c-2.2109,0-4,1.7892-4,4s1.7891,4,4,4h14c0-2.7072,0.1795-5.3712,0.4727-8H4z"/>
	<path fill="#9D57C4" d="M140.1563,153.5508c0.16,0.2656,0.2852,0.5468,0.5117,0.7736l11.664,11.664
		c0.7811,0.7812,1.8047,1.1716,2.828,1.1716c1.0235,0,2.0471-0.3904,2.8283-1.1716c1.5624-1.5628,1.5624-4.094,0-5.6564
		l-11.664-11.664c-0.2932-0.2932-0.6488-0.4804-1-0.664C143.7071,149.9492,141.9687,151.7892,140.1563,153.5508z"/>
	<path fill="#9D57C4" d="M44.0663,46.6092c-0.1328-0.1952-0.2148-0.414-0.3868-0.5856l-11.664-11.6644
		c-1.5624-1.5624-4.0936-1.5624-5.6564,0c-1.5624,1.5628-1.5624,4.094,0,5.6564l11.6644,11.664
		c0.1052,0.1056,0.242,0.1448,0.3592,0.2384C40.1875,50.0548,42.0703,48.2656,44.0663,46.6092z"/>
	<path fill="#4A8F9E" d="M94,30.2032V4c0-2.2108-1.7893-4-4-4c-2.2109,0-4,1.7892-4,4v26.2032C87.332,30.1288,88.6483,30,90,30
		C91.3515,30,92.668,30.1288,94,30.2032z"/>
	<path fill="#4A8F9E" d="M86,173.7968V210c0,2.2108,1.7891,4,4,4c2.2107,0,4-1.7892,4-4v-36.2032
		C92.668,173.8712,91.3515,174,90,174C88.6483,174,87.332,173.8712,86,173.7968z"/>
	<path fill="#4A8F9E" d="M143.5819,54.0744L172.828,24.828c1.5627-1.5624,1.5627-4.0936,0-5.656
		c-1.5625-1.5628-4.0937-1.5628-5.656,0l-29.2465,29.246C139.9139,50.1992,141.8007,52.086,143.5819,54.0744z"/>
	<path fill="#4A8F9E" d="M36.4179,149.9256l-18.5428,18.5432c-1.5628,1.5624-1.5628,4.0936,0,5.656
		c0.7812,0.7816,1.8044,1.172,2.828,1.172c1.0232,0,2.0468-0.3904,2.828-1.172l18.5432-18.5428
		C40.0859,153.8008,38.1991,151.914,36.4179,149.9256z"/>
	<path fill="#456782" d="M143.5819,54.0744c-1.7812-1.9884-3.668-3.8752-5.6564-5.6564C126.1131,37.8436,110.836,31.1328,94,30.2032
		C92.668,30.1288,91.3515,30,90,30c-1.3517,0-2.668,0.1288-4,0.2032c-15.8829,0.8788-30.4221,6.8436-41.9337,16.406
		c-1.996,1.6564-3.8788,3.4456-5.6836,5.3088C27.5427,63.086,20.2811,77.7228,18.4727,94C18.1795,96.6288,18,99.2928,18,102
		c0,18.414,7.008,35.1796,18.4179,47.9256c1.7812,1.9884,3.668,3.8752,5.6564,5.6564C53.8867,166.1564,69.164,172.8672,86,173.7968
		C87.332,173.8712,88.6483,174,90,174c1.3515,0,2.668-0.1288,4-0.2032c17.9023-0.992,34.0779-8.4884,46.1563-20.246
		c1.8124-1.7616,3.5508-3.6016,5.168-5.5468C155.7263,135.5196,162,119.4804,162,102c0-2.7072-0.1797-5.3712-0.4729-8
		C159.832,78.7384,153.3163,64.9452,143.5819,54.0744z M38,98c0-8.8244,7.1755-16,16-16c8.8243,0,16,7.1756,16,16s-7.1757,16-16,16
		C45.1755,114,38,106.8244,38,98z M72,150c-7.7189,0-14-6.2812-14-14s6.2811-14,14-14c7.7187,0,14,6.2812,14,14S79.7187,150,72,150z
		 M110,106c-11.0273,0-20-8.9728-20-20s8.9727-20,20-20c11.0271,0,20,8.9728,20,20S121.0271,106,110,106z"/>
	<path fill="#FFE9E1" d="M110,66c-11.0273,0-20,8.9728-20,20s8.9727,20,20,20c11.0271,0,20-8.9728,20-20S121.0271,66,110,66z
		 M110,98c-6.6173,0-12-5.3828-12-12s5.3827-12,12-12c6.6171,0,12,5.3828,12,12S116.6171,98,110,98z"/>
	<path fill="#FFE9E1" d="M72,122c-7.7189,0-14,6.2812-14,14s6.2811,14,14,14c7.7187,0,14-6.2812,14-14S79.7187,122,72,122z M72,142
		c-3.3085,0-6-2.6916-6-6s2.6915-6,6-6c3.3083,0,6,2.6916,6,6S75.3083,142,72,142z"/>
	<path fill="#FCC24C" d="M110,74c-6.6173,0-12,5.3828-12,12s5.3827,12,12,12c6.6171,0,12-5.3828,12-12S116.6171,74,110,74z"/>
	<path fill="#FFE9E1" d="M70,98c0-8.8244-7.1757-16-16-16c-8.8245,0-16,7.1756-16,16s7.1755,16,16,16C62.8243,114,70,106.8244,70,98
		z M54,106c-4.4101,0-8-3.59-8-8s3.5899-8,8-8c4.4099,0,8,3.59,8,8S58.4099,106,54,106z"/>
	<circle fill="#FCC24C" cx="72" cy="136" r="6"/>
	<path fill="#FCC24C" d="M54,90c-4.4101,0-8,3.59-8,8s3.5899,8,8,8c4.4099,0,8-3.59,8-8S58.4099,90,54,90z"/>
</g>
</svg>
