<?xml version="1.0" encoding="utf-8"?>
<!-- Generator: Adobe Illustrator 19.2.0, SVG Export Plug-In . SVG Version: 6.00 Build 0)  -->
<svg version="1.1" id="testflask" xmlns="http://www.w3.org/2000/svg" xmlns:xlink="http://www.w3.org/1999/xlink" x="0px" y="0px"
	 viewBox="0 0 151.2032 199.2072" enable-background="new 0 0 151.2032 199.2072" xml:space="preserve">
<g>
	<path fill="none" d="M113.2032,80c-0.0704,0-0.1288-0.0352-0.1972-0.0392l-12.1328,21.0156c0.166,0.176,0.3672,0.3088,0.504,0.5236
		c2.5876,4.0704,7.0096,6.5,11.826,6.5c7.7188,0,14-6.2812,14-14S120.922,80,113.2032,80z"/>
	
		<rect x="63.9893" y="54.2218" transform="matrix(0.5 -0.866 0.866 0.5 -22.2844 109.8427)" fill="none" width="39.9963" height="39.9981"/>
	<path fill="#FE8657" d="M87.3068,108.4688l-34.6388-20l-41.9864,72.7228c-5.5212,9.5624-2.244,21.828,7.3068,27.3436
		c9.5468,5.5196,21.8124,2.2188,27.332-7.3436L87.3068,108.4688z"/>
	<path fill="#E1AD99" d="M43.2032,44c8.8224,0,16-7.1756,16-16s-7.1776-16-16-16c-8.8224,0-16,7.1756-16,16S34.3808,44,43.2032,44z"
		/>
	<path fill="#E1AD99" d="M131.2032,32c-6.6172,0-12,5.3828-12,12s5.3828,12,12,12c6.6172,0,12-5.3828,12-12S137.8204,32,131.2032,32
		z"/>
	<path fill="#E1AD99" d="M139.2032,0c-6.6172,0-12,5.3828-12,12s5.3828,12,12,12c6.6172,0,12-5.3828,12-12S145.8204,0,139.2032,0z"
		/>
	<path fill="#E1AD99" d="M117.3672,72.4064l2.8692-4.9688c0.5292-0.918,0.674-2.012,0.3984-3.0352
		c-0.2732-1.0236-0.9452-1.8984-1.8632-2.4296l-41.5684-24c-1.92-1.1056-4.3612-0.4532-5.4648,1.4648l-24,41.5664L3.752,157.1916
		c-7.7264,13.3828-3.1348,30.5504,10.2364,38.2732c4.3944,2.5352,9.1972,3.7424,13.9412,3.7424
		c9.6916,0,19.1328-5.0316,24.3204-14.0156l43.9864-76.1876l0.3536-0.6132c4.1464,4.8044,10.1444,7.6092,16.6132,7.6092
		c12.1308,0,22-9.8712,22-22C135.2032,83.2968,127.5116,74.3592,117.3672,72.4064z M76.668,46.9024l34.6388,20l-20,34.6368
		l-34.6388-20L76.668,46.9024z M17.9884,188.5352c-9.5508-5.5156-12.828-17.7812-7.3068-27.3436L52.668,88.4688l34.6388,20
		l-41.9864,72.7228C39.8008,190.754,27.5352,194.0548,17.9884,188.5352z M113.2032,108c-4.8164,0-9.2384-2.4296-11.826-6.5
		c-0.1368-0.2148-0.338-0.3476-0.504-0.5236l12.1328-21.0156c0.0684,0.004,0.1268,0.0392,0.1972,0.0392c7.7188,0,14,6.2812,14,14
		S120.922,108,113.2032,108z"/>
</g>
</svg>
