<?xml version="1.0" encoding="utf-8"?>
<!-- Generator: Adobe Illustrator 19.2.0, SVG Export Plug-In . SVG Version: 6.00 Build 0)  -->
<svg version="1.1" id="testtubes" xmlns="http://www.w3.org/2000/svg" xmlns:xlink="http://www.w3.org/1999/xlink" x="0px" y="0px"
	 viewBox="0 0 232 168" enable-background="new 0 0 232 168" xml:space="preserve">
<g>
	<rect x="28" y="8" fill="none" width="36" height="20"/>
	<rect x="172" y="8" fill="none" width="36" height="20"/>
	<rect x="100" y="8" fill="none" width="36" height="20"/>
	<rect y="64" fill="#FD5A5A" width="20" height="8"/>
	<rect x="216" y="64" fill="#FD5A5A" width="16" height="8"/>
	<rect x="72" y="64" fill="#FD5A5A" width="20" height="8"/>
	<rect x="144" y="64" fill="#FD5A5A" width="20" height="8"/>
	<path fill="#A9C7D8" d="M72,32c0,2.2088-1.7912,4-4,4h-4v28v8v69.9804C64,151.916,55.9256,160,46,160s-18-8.084-18-18.0196V36h-4
		c-2.2088,0-4-1.7912-4-4v32v8v69.9804C20,156.328,31.664,168,46,168s26-11.672,26-26.0196V72v-8V32z"/>
	<path fill="#3BABB7" d="M24,36h4v105.9804C28,151.916,36.0744,160,46,160s18-8.084,18-18.0196V72v-8V36h4c2.2088,0,4-1.7912,4-4V8
		h8V0H68H24H12v8h8v24C20,34.2088,21.7912,36,24,36z M64,8v20H28V8H64z"/>
	<path fill="#A9C7D8" d="M144,32c0,2.2088-1.7912,4-4,4h-4v28v8v69.9804C136,151.916,127.9256,160,118,160s-18-8.084-18-18.0196V72
		v-8V36h-4c-2.2088,0-4-1.7912-4-4v32v8v69.9804C92,156.328,103.664,168,118,168s26-11.672,26-26.0196V72v-8V32z"/>
	<path fill="#3BABB7" d="M96,36h4h36h4c2.2088,0,4-1.7912,4-4V8h8V0h-12H96H84v8h8v24C92,34.2088,93.7912,36,96,36z M136,8v20h-36V8
		H136z"/>
	<path fill="#A9C7D8" d="M216,32c0,2.2088-1.7912,4-4,4h-4v28v8v69.9804C208,151.916,199.9256,160,190,160s-18-8.084-18-18.0196V72
		v-8V36h-4c-2.2088,0-4-1.7912-4-4v32v8v69.9804C164,156.328,175.664,168,190,168s26-11.672,26-26.0196V72v-8V32z"/>
	<path fill="#3BABB7" d="M168,36h4h36h4c2.2088,0,4-1.7912,4-4V8h8V0h-12h-44h-12v8h8v24C164,34.2088,165.7912,36,168,36z M208,8v20
		h-36V8H208z"/>
	<path fill="#49A25A" d="M172,64v8v69.9804C172,151.916,180.0744,160,190,160s18-8.084,18-18.0196V72v-8V36h-36V64z"/>
	<path fill="#F8A131" d="M100,64v8v69.9804C100,151.916,108.0744,160,118,160s18-8.084,18-18.0196V72v-8V36h-36V64z"/>
</g>
</svg>
