<?xml version="1.0" encoding="utf-8"?>
<!-- Generator: Adobe Illustrator 19.2.0, SVG Export Plug-In . SVG Version: 6.00 Build 0)  -->
<svg version="1.1" id="testtube" xmlns="http://www.w3.org/2000/svg" xmlns:xlink="http://www.w3.org/1999/xlink" x="0px" y="0px"
	 viewBox="0 0 195.085 228.4998" enable-background="new 0 0 195.085 228.4998" xml:space="preserve">
<g>
	<path fill="#DBEEF7" d="M177.5392,126.1014c-19.0296-19.0372-48.8284-22.924-72.012-9.7872L61.5744,72.361
		c-0.002-0.002-0.006-0.0036-0.008-0.0056L44.6016,55.3906c-1.5624-1.5628-4.0936-1.5628-5.6564,0
		c-1.5624,1.5624-1.5624,4.0936,0,5.656l12.086,12.086L33.2228,77.953l-5.59-5.59c-1.5624-1.5624-4.0936-1.5624-5.6564,0
		c-1.5624,1.5624-1.5624,4.094,0,5.6564l7.1488,7.1484c0.0252,0.0252,0.0388,0.0584,0.0644,0.084l53.7088,53.6932
		c-13.1348,23.1816-9.244,52.9788,9.7892,72.01c11.6972,11.6972,27.0604,17.5448,42.4256,17.5448s30.7284-5.8476,42.426-17.5448
		C200.9336,187.5602,200.9336,149.4938,177.5392,126.1014z M171.8828,205.2986c-20.2736,20.2736-53.2656,20.2736-73.5392,0
		c-17.16-17.162-20.1208-44.418-7.0368-64.8084c1.0156-1.5824,0.7908-3.6604-0.5392-4.9884L48.8752,93.621
		c-0.012-0.0136-0.016-0.0312-0.0296-0.0452l-9.0996-9.0996l17.8088-4.82l2.6052,2.6052l0,0l41.924,41.922
		c1.326,1.33,3.4024,1.5584,4.9884,0.5392c20.3924-13.084,47.6464-10.1252,64.8104,7.0348
		C192.1564,152.033,192.1564,185.0234,171.8828,205.2986z"/>
	<circle fill="#8F89F5" cx="136" cy="137.4158" r="4"/>
	<circle fill="#8F89F5" cx="112" cy="153.4158" r="4"/>
	<path fill="#8F89F5" d="M171.8828,131.7574c-17.164-17.16-44.418-20.1188-64.8104-7.0348
		c-1.586,1.0192-3.6624,0.7908-4.9884-0.5392L60.16,82.2614l0,0l-2.6052-2.6052l-17.8088,4.82l9.0996,9.0996
		c0.0136,0.014,0.0176,0.0316,0.0296,0.0452l41.8924,41.8808c1.33,1.328,1.5548,3.406,0.5392,4.9884
		c-13.084,20.3904-10.1232,47.6464,7.0368,64.8084c20.2736,20.2736,53.2656,20.2736,73.5392,0
		C192.1564,185.0234,192.1564,152.033,171.8828,131.7574z M100,153.4158c0-6.6172,5.3828-12,12-12c6.6172,0,12,5.3828,12,12
		s-5.3828,12-12,12C105.3828,165.4158,100,160.033,100,153.4158z M128,213.4158c-6.6172,0-12-5.3828-12-12s5.3828-12,12-12
		c6.6172,0,12,5.3828,12,12S134.6172,213.4158,128,213.4158z M136,149.4158c-6.6172,0-12-5.3828-12-12s5.3828-12,12-12
		c6.6172,0,12,5.3828,12,12S142.6172,149.4158,136,149.4158z M166,173.4158c-7.7188,0-14-6.2812-14-14c0-7.7188,6.2812-14,14-14
		c7.7188,0,14,6.2812,14,14C180,167.1346,173.7188,173.4158,166,173.4158z"/>
	<circle fill="#8F89F5" cx="166" cy="159.4158" r="6"/>
	<circle fill="#8F89F5" cx="128" cy="201.4158" r="4"/>
	<path fill="#DBEEF7" d="M166,145.4158c-7.7188,0-14,6.2812-14,14c0,7.7188,6.2812,14,14,14c7.7188,0,14-6.2812,14-14
		C180,151.697,173.7188,145.4158,166,145.4158z M166,165.4158c-3.3084,0-6-2.6916-6-6c0-3.3084,2.6916-6,6-6c3.3084,0,6,2.6916,6,6
		C172,162.7242,169.3084,165.4158,166,165.4158z"/>
	<path fill="#DBEEF7" d="M128,189.4158c-6.6172,0-12,5.3828-12,12s5.3828,12,12,12c6.6172,0,12-5.3828,12-12
		S134.6172,189.4158,128,189.4158z M128,205.4158c-2.2052,0-4-1.7948-4-4s1.7948-4,4-4c2.2052,0,4,1.7948,4,4
		S130.2052,205.4158,128,205.4158z"/>
	<path fill="#DBEEF7" d="M124,153.4158c0-6.6172-5.3828-12-12-12c-6.6172,0-12,5.3828-12,12s5.3828,12,12,12
		C118.6172,165.4158,124,160.033,124,153.4158z M112,157.4158c-2.2052,0-4-1.7948-4-4s1.7948-4,4-4c2.2052,0,4,1.7948,4,4
		S114.2052,157.4158,112,157.4158z"/>
	<path fill="#DBEEF7" d="M136,125.4158c-6.6172,0-12,5.3828-12,12s5.3828,12,12,12c6.6172,0,12-5.3828,12-12
		S142.6172,125.4158,136,125.4158z M136,141.4158c-2.2052,0-4-1.7948-4-4s1.7948-4,4-4c2.2052,0,4,1.7948,4,4
		S138.2052,141.4158,136,141.4158z"/>
	<path fill="#DBEEF7" d="M12,93.4158c-6.6172,0-12,5.3828-12,12c0,6.6172,5.3828,12,12,12c6.6172,0,12-5.3828,12-12
		C24,98.7986,18.6172,93.4158,12,93.4158z M12,109.4158c-2.2052,0-4-1.7948-4-4s1.7948-4,4-4c2.2052,0,4,1.7948,4,4
		S14.2052,109.4158,12,109.4158z"/>
	<path fill="#DBEEF7" d="M12,133.4158c-6.6172,0-12,5.3828-12,12s5.3828,12,12,12c6.6172,0,12-5.3828,12-12
		S18.6172,133.4158,12,133.4158z M12,149.4158c-2.2052,0-4-1.7948-4-4s1.7948-4,4-4c2.2052,0,4,1.7948,4,4
		S14.2052,149.4158,12,149.4158z"/>
	<path fill="#8F89F5" d="M22.4728,52.2242c0.7676,1.172,2.0448,1.8088,3.3496,1.8088c0.752,0,1.5116-0.2108,2.1872-0.6544
		c1.848-1.2088,2.3656-3.6892,1.1544-5.5372c-7.4744-11.416-4.8904-14.5136-1.3124-18.7988
		c5.1248-6.1424,8.9452-12.8456-0.4864-27.2344c-1.2108-1.8476-3.6932-2.3652-5.5392-1.152
		c-1.8476,1.2108-2.3632,3.6912-1.152,5.5388c6.9628,10.6192,4.6052,13.4456,1.0348,17.7208
		C16.4608,30.205,12.5704,37.1034,22.4728,52.2242z"/>
	<circle fill="#8F89F5" cx="12" cy="105.4158" r="4"/>
	<circle fill="#8F89F5" cx="12" cy="145.4158" r="4"/>
</g>
</svg>
